G04 #@! TF.GenerationSoftware,KiCad,Pcbnew,(5.1.2)-1*
G04 #@! TF.CreationDate,2019-09-13T22:49:14-05:00*
G04 #@! TF.ProjectId,keanu-homeboy,6b65616e-752d-4686-9f6d-65626f792e6b,rev?*
G04 #@! TF.SameCoordinates,Original*
G04 #@! TF.FileFunction,Legend,Bot*
G04 #@! TF.FilePolarity,Positive*
%FSLAX46Y46*%
G04 Gerber Fmt 4.6, Leading zero omitted, Abs format (unit mm)*
G04 Created by KiCad (PCBNEW (5.1.2)-1) date 2019-09-13 22:49:14*
%MOMM*%
%LPD*%
G04 APERTURE LIST*
%ADD10C,0.120000*%
%ADD11C,0.010000*%
%ADD12C,0.150000*%
G04 APERTURE END LIST*
D10*
X-2905820Y27063700D02*
G75*
G03X-2905820Y27063700I-1750000J0D01*
G01*
D11*
G36*
X-9601200Y18649786D02*
G01*
X-9535241Y18649140D01*
X-9487698Y18646654D01*
X-9451600Y18641241D01*
X-9419974Y18631815D01*
X-9385848Y18617291D01*
X-9382459Y18615716D01*
X-9321242Y18579421D01*
X-9284081Y18539681D01*
X-9262043Y18481713D01*
X-9261143Y18420872D01*
X-9279709Y18363556D01*
X-9316066Y18316162D01*
X-9348437Y18293711D01*
X-9388897Y18272789D01*
X-9339474Y18245278D01*
X-9290018Y18204796D01*
X-9258538Y18151800D01*
X-9246582Y18092234D01*
X-9255697Y18032040D01*
X-9274175Y17994604D01*
X-9306699Y17959916D01*
X-9354744Y17926252D01*
X-9374446Y17915587D01*
X-9415652Y17897130D01*
X-9455335Y17885466D01*
X-9502512Y17878667D01*
X-9564946Y17874857D01*
X-9624711Y17873904D01*
X-9681531Y17875563D01*
X-9725974Y17879476D01*
X-9737507Y17881446D01*
X-9823345Y17908207D01*
X-9888185Y17947118D01*
X-9931303Y17997549D01*
X-9951974Y18058874D01*
X-9953039Y18068332D01*
X-9950412Y18106648D01*
X-9683536Y18106648D01*
X-9670974Y18068222D01*
X-9642493Y18039585D01*
X-9638415Y18037363D01*
X-9603649Y18023602D01*
X-9577136Y18026443D01*
X-9550243Y18044274D01*
X-9525846Y18077503D01*
X-9518159Y18118519D01*
X-9525240Y18160451D01*
X-9545147Y18196429D01*
X-9575937Y18219582D01*
X-9601200Y18224500D01*
X-9639012Y18213791D01*
X-9666225Y18186120D01*
X-9681510Y18148177D01*
X-9683536Y18106648D01*
X-9950412Y18106648D01*
X-9948330Y18136991D01*
X-9921567Y18193422D01*
X-9873312Y18236572D01*
X-9858950Y18244653D01*
X-9807429Y18271156D01*
X-9851346Y18294806D01*
X-9898567Y18333903D01*
X-9927190Y18388793D01*
X-9933882Y18435737D01*
X-9677180Y18435737D01*
X-9671295Y18396579D01*
X-9651647Y18364712D01*
X-9622501Y18344446D01*
X-9588120Y18340090D01*
X-9552770Y18355956D01*
X-9548226Y18359819D01*
X-9528685Y18392157D01*
X-9524117Y18433056D01*
X-9533984Y18472201D01*
X-9555406Y18497837D01*
X-9593036Y18510565D01*
X-9631478Y18505535D01*
X-9660753Y18484565D01*
X-9665035Y18477875D01*
X-9677180Y18435737D01*
X-9933882Y18435737D01*
X-9935568Y18447558D01*
X-9925345Y18510001D01*
X-9893630Y18561502D01*
X-9839116Y18603914D01*
X-9817200Y18615596D01*
X-9784207Y18630720D01*
X-9754372Y18640625D01*
X-9720890Y18646386D01*
X-9676958Y18649082D01*
X-9615771Y18649788D01*
X-9601200Y18649786D01*
X-9601200Y18649786D01*
G37*
X-9601200Y18649786D02*
X-9535241Y18649140D01*
X-9487698Y18646654D01*
X-9451600Y18641241D01*
X-9419974Y18631815D01*
X-9385848Y18617291D01*
X-9382459Y18615716D01*
X-9321242Y18579421D01*
X-9284081Y18539681D01*
X-9262043Y18481713D01*
X-9261143Y18420872D01*
X-9279709Y18363556D01*
X-9316066Y18316162D01*
X-9348437Y18293711D01*
X-9388897Y18272789D01*
X-9339474Y18245278D01*
X-9290018Y18204796D01*
X-9258538Y18151800D01*
X-9246582Y18092234D01*
X-9255697Y18032040D01*
X-9274175Y17994604D01*
X-9306699Y17959916D01*
X-9354744Y17926252D01*
X-9374446Y17915587D01*
X-9415652Y17897130D01*
X-9455335Y17885466D01*
X-9502512Y17878667D01*
X-9564946Y17874857D01*
X-9624711Y17873904D01*
X-9681531Y17875563D01*
X-9725974Y17879476D01*
X-9737507Y17881446D01*
X-9823345Y17908207D01*
X-9888185Y17947118D01*
X-9931303Y17997549D01*
X-9951974Y18058874D01*
X-9953039Y18068332D01*
X-9950412Y18106648D01*
X-9683536Y18106648D01*
X-9670974Y18068222D01*
X-9642493Y18039585D01*
X-9638415Y18037363D01*
X-9603649Y18023602D01*
X-9577136Y18026443D01*
X-9550243Y18044274D01*
X-9525846Y18077503D01*
X-9518159Y18118519D01*
X-9525240Y18160451D01*
X-9545147Y18196429D01*
X-9575937Y18219582D01*
X-9601200Y18224500D01*
X-9639012Y18213791D01*
X-9666225Y18186120D01*
X-9681510Y18148177D01*
X-9683536Y18106648D01*
X-9950412Y18106648D01*
X-9948330Y18136991D01*
X-9921567Y18193422D01*
X-9873312Y18236572D01*
X-9858950Y18244653D01*
X-9807429Y18271156D01*
X-9851346Y18294806D01*
X-9898567Y18333903D01*
X-9927190Y18388793D01*
X-9933882Y18435737D01*
X-9677180Y18435737D01*
X-9671295Y18396579D01*
X-9651647Y18364712D01*
X-9622501Y18344446D01*
X-9588120Y18340090D01*
X-9552770Y18355956D01*
X-9548226Y18359819D01*
X-9528685Y18392157D01*
X-9524117Y18433056D01*
X-9533984Y18472201D01*
X-9555406Y18497837D01*
X-9593036Y18510565D01*
X-9631478Y18505535D01*
X-9660753Y18484565D01*
X-9665035Y18477875D01*
X-9677180Y18435737D01*
X-9933882Y18435737D01*
X-9935568Y18447558D01*
X-9925345Y18510001D01*
X-9893630Y18561502D01*
X-9839116Y18603914D01*
X-9817200Y18615596D01*
X-9784207Y18630720D01*
X-9754372Y18640625D01*
X-9720890Y18646386D01*
X-9676958Y18649082D01*
X-9615771Y18649788D01*
X-9601200Y18649786D01*
G36*
X-1723458Y18637999D02*
G01*
X-1619299Y18617395D01*
X-1533992Y18579774D01*
X-1467524Y18525126D01*
X-1419883Y18453441D01*
X-1391058Y18364709D01*
X-1381037Y18258920D01*
X-1381063Y18247932D01*
X-1392459Y18146867D01*
X-1423866Y18059719D01*
X-1474369Y17987920D01*
X-1543053Y17932902D01*
X-1599683Y17905804D01*
X-1670514Y17886782D01*
X-1754763Y17875686D01*
X-1842355Y17872990D01*
X-1923215Y17879171D01*
X-1968193Y17888398D01*
X-2063286Y17924748D01*
X-2136856Y17974344D01*
X-2185545Y18031500D01*
X-2220355Y18096040D01*
X-2240013Y18160062D01*
X-2247505Y18234382D01*
X-2247820Y18256476D01*
X-1978952Y18256476D01*
X-1976046Y18212509D01*
X-1956752Y18152285D01*
X-1919910Y18107672D01*
X-1869375Y18080596D01*
X-1809000Y18072988D01*
X-1742639Y18086777D01*
X-1732686Y18090693D01*
X-1690270Y18121451D01*
X-1663284Y18171981D01*
X-1651597Y18242557D01*
X-1651048Y18265368D01*
X-1660817Y18335411D01*
X-1688967Y18388531D01*
X-1733928Y18423335D01*
X-1794130Y18438432D01*
X-1844230Y18436565D01*
X-1899889Y18417499D01*
X-1942151Y18378993D01*
X-1969134Y18324251D01*
X-1978952Y18256476D01*
X-2247820Y18256476D01*
X-2247830Y18257120D01*
X-2237624Y18360518D01*
X-2206889Y18449128D01*
X-2155752Y18522732D01*
X-2084339Y18581111D01*
X-2047708Y18601342D01*
X-2008567Y18618682D01*
X-1971264Y18629921D01*
X-1927591Y18636700D01*
X-1869339Y18640662D01*
X-1846480Y18641596D01*
X-1723458Y18637999D01*
X-1723458Y18637999D01*
G37*
X-1723458Y18637999D02*
X-1619299Y18617395D01*
X-1533992Y18579774D01*
X-1467524Y18525126D01*
X-1419883Y18453441D01*
X-1391058Y18364709D01*
X-1381037Y18258920D01*
X-1381063Y18247932D01*
X-1392459Y18146867D01*
X-1423866Y18059719D01*
X-1474369Y17987920D01*
X-1543053Y17932902D01*
X-1599683Y17905804D01*
X-1670514Y17886782D01*
X-1754763Y17875686D01*
X-1842355Y17872990D01*
X-1923215Y17879171D01*
X-1968193Y17888398D01*
X-2063286Y17924748D01*
X-2136856Y17974344D01*
X-2185545Y18031500D01*
X-2220355Y18096040D01*
X-2240013Y18160062D01*
X-2247505Y18234382D01*
X-2247820Y18256476D01*
X-1978952Y18256476D01*
X-1976046Y18212509D01*
X-1956752Y18152285D01*
X-1919910Y18107672D01*
X-1869375Y18080596D01*
X-1809000Y18072988D01*
X-1742639Y18086777D01*
X-1732686Y18090693D01*
X-1690270Y18121451D01*
X-1663284Y18171981D01*
X-1651597Y18242557D01*
X-1651048Y18265368D01*
X-1660817Y18335411D01*
X-1688967Y18388531D01*
X-1733928Y18423335D01*
X-1794130Y18438432D01*
X-1844230Y18436565D01*
X-1899889Y18417499D01*
X-1942151Y18378993D01*
X-1969134Y18324251D01*
X-1978952Y18256476D01*
X-2247820Y18256476D01*
X-2247830Y18257120D01*
X-2237624Y18360518D01*
X-2206889Y18449128D01*
X-2155752Y18522732D01*
X-2084339Y18581111D01*
X-2047708Y18601342D01*
X-2008567Y18618682D01*
X-1971264Y18629921D01*
X-1927591Y18636700D01*
X-1869339Y18640662D01*
X-1846480Y18641596D01*
X-1723458Y18637999D01*
G36*
X-10394950Y18642996D02*
G01*
X-10188575Y18413374D01*
X-9982200Y18183751D01*
X-9982200Y18034630D01*
X-10394950Y18027650D01*
X-10402568Y17881600D01*
X-10577833Y17881600D01*
X-10581642Y17954625D01*
X-10585450Y18027650D01*
X-10718800Y18035328D01*
X-10718800Y18186400D01*
X-10579100Y18186400D01*
X-10579100Y18287449D01*
X-10401056Y18287449D01*
X-10399864Y18244751D01*
X-10397200Y18211633D01*
X-10393031Y18195084D01*
X-10392834Y18194867D01*
X-10376846Y18190763D01*
X-10342474Y18187755D01*
X-10296731Y18186421D01*
X-10290175Y18186400D01*
X-10195982Y18186400D01*
X-10219266Y18217112D01*
X-10249005Y18254925D01*
X-10283673Y18296892D01*
X-10319228Y18338392D01*
X-10351629Y18374807D01*
X-10376833Y18401516D01*
X-10390797Y18413902D01*
X-10391775Y18414252D01*
X-10396135Y18403128D01*
X-10399158Y18373626D01*
X-10400809Y18332737D01*
X-10401056Y18287449D01*
X-10579100Y18287449D01*
X-10579100Y18643600D01*
X-10394950Y18642996D01*
X-10394950Y18642996D01*
G37*
X-10394950Y18642996D02*
X-10188575Y18413374D01*
X-9982200Y18183751D01*
X-9982200Y18034630D01*
X-10394950Y18027650D01*
X-10402568Y17881600D01*
X-10577833Y17881600D01*
X-10581642Y17954625D01*
X-10585450Y18027650D01*
X-10718800Y18035328D01*
X-10718800Y18186400D01*
X-10579100Y18186400D01*
X-10579100Y18287449D01*
X-10401056Y18287449D01*
X-10399864Y18244751D01*
X-10397200Y18211633D01*
X-10393031Y18195084D01*
X-10392834Y18194867D01*
X-10376846Y18190763D01*
X-10342474Y18187755D01*
X-10296731Y18186421D01*
X-10290175Y18186400D01*
X-10195982Y18186400D01*
X-10219266Y18217112D01*
X-10249005Y18254925D01*
X-10283673Y18296892D01*
X-10319228Y18338392D01*
X-10351629Y18374807D01*
X-10376833Y18401516D01*
X-10390797Y18413902D01*
X-10391775Y18414252D01*
X-10396135Y18403128D01*
X-10399158Y18373626D01*
X-10400809Y18332737D01*
X-10401056Y18287449D01*
X-10579100Y18287449D01*
X-10579100Y18643600D01*
X-10394950Y18642996D01*
G36*
X-8559789Y18643011D02*
G01*
X-8481515Y18640751D01*
X-8422025Y18636085D01*
X-8378018Y18628276D01*
X-8346194Y18616589D01*
X-8323255Y18600287D01*
X-8305898Y18578635D01*
X-8296658Y18562513D01*
X-8279630Y18507037D01*
X-8277894Y18442205D01*
X-8291317Y18378837D01*
X-8299174Y18359832D01*
X-8318414Y18328382D01*
X-8349867Y18286057D01*
X-8387984Y18240138D01*
X-8404453Y18221740D01*
X-8443501Y18177640D01*
X-8465871Y18148044D01*
X-8473415Y18130082D01*
X-8469115Y18121528D01*
X-8451075Y18117827D01*
X-8412321Y18114638D01*
X-8357539Y18112191D01*
X-8291415Y18110719D01*
X-8244336Y18110395D01*
X-8167169Y18110477D01*
X-8111339Y18111223D01*
X-8072782Y18113131D01*
X-8047436Y18116699D01*
X-8031236Y18122427D01*
X-8020121Y18130812D01*
X-8012984Y18138775D01*
X-7995701Y18161734D01*
X-7988723Y18175150D01*
X-7999213Y18183809D01*
X-8026359Y18197043D01*
X-8044859Y18204549D01*
X-8108921Y18240885D01*
X-8155319Y18291462D01*
X-8182906Y18351711D01*
X-8186586Y18383250D01*
X-7962900Y18383250D01*
X-7959791Y18352007D01*
X-7947640Y18331580D01*
X-7922211Y18319793D01*
X-7879269Y18314470D01*
X-7827011Y18313400D01*
X-7721600Y18313400D01*
X-7721600Y18453100D01*
X-7827011Y18453100D01*
X-7887794Y18451502D01*
X-7927533Y18445256D01*
X-7950464Y18432185D01*
X-7960820Y18410113D01*
X-7962900Y18383250D01*
X-8186586Y18383250D01*
X-8190532Y18417064D01*
X-8177049Y18482951D01*
X-8141311Y18544805D01*
X-8132847Y18554692D01*
X-8114879Y18574098D01*
X-8097458Y18590452D01*
X-8078346Y18604016D01*
X-8055304Y18615050D01*
X-8026092Y18623816D01*
X-7988473Y18630575D01*
X-7940206Y18635588D01*
X-7879053Y18639114D01*
X-7802775Y18641417D01*
X-7709133Y18642756D01*
X-7595888Y18643392D01*
X-7460801Y18643587D01*
X-7370088Y18643600D01*
X-6769100Y18643600D01*
X-6769100Y18415000D01*
X-7010400Y18415000D01*
X-7010400Y17881600D01*
X-7251700Y17881600D01*
X-7251700Y18415000D01*
X-7442200Y18415000D01*
X-7442200Y17881600D01*
X-7721600Y17881600D01*
X-7721600Y18128774D01*
X-7845653Y18005187D01*
X-7969705Y17881600D01*
X-8312378Y17881879D01*
X-8416263Y17882108D01*
X-8498036Y17882740D01*
X-8560981Y17883977D01*
X-8608386Y17886023D01*
X-8643535Y17889080D01*
X-8669716Y17893350D01*
X-8690214Y17899036D01*
X-8708183Y17906281D01*
X-8759214Y17941137D01*
X-8789881Y17990614D01*
X-8800786Y18055727D01*
X-8800822Y18061945D01*
X-8791090Y18127920D01*
X-8761517Y18194817D01*
X-8710519Y18265680D01*
X-8673097Y18307098D01*
X-8639354Y18344578D01*
X-8615030Y18376168D01*
X-8603701Y18396997D01*
X-8603756Y18401500D01*
X-8620158Y18407587D01*
X-8658913Y18412011D01*
X-8717013Y18414518D01*
X-8763750Y18415000D01*
X-8915400Y18415000D01*
X-8915400Y18643600D01*
X-8660145Y18643600D01*
X-8559789Y18643011D01*
X-8559789Y18643011D01*
G37*
X-8559789Y18643011D02*
X-8481515Y18640751D01*
X-8422025Y18636085D01*
X-8378018Y18628276D01*
X-8346194Y18616589D01*
X-8323255Y18600287D01*
X-8305898Y18578635D01*
X-8296658Y18562513D01*
X-8279630Y18507037D01*
X-8277894Y18442205D01*
X-8291317Y18378837D01*
X-8299174Y18359832D01*
X-8318414Y18328382D01*
X-8349867Y18286057D01*
X-8387984Y18240138D01*
X-8404453Y18221740D01*
X-8443501Y18177640D01*
X-8465871Y18148044D01*
X-8473415Y18130082D01*
X-8469115Y18121528D01*
X-8451075Y18117827D01*
X-8412321Y18114638D01*
X-8357539Y18112191D01*
X-8291415Y18110719D01*
X-8244336Y18110395D01*
X-8167169Y18110477D01*
X-8111339Y18111223D01*
X-8072782Y18113131D01*
X-8047436Y18116699D01*
X-8031236Y18122427D01*
X-8020121Y18130812D01*
X-8012984Y18138775D01*
X-7995701Y18161734D01*
X-7988723Y18175150D01*
X-7999213Y18183809D01*
X-8026359Y18197043D01*
X-8044859Y18204549D01*
X-8108921Y18240885D01*
X-8155319Y18291462D01*
X-8182906Y18351711D01*
X-8186586Y18383250D01*
X-7962900Y18383250D01*
X-7959791Y18352007D01*
X-7947640Y18331580D01*
X-7922211Y18319793D01*
X-7879269Y18314470D01*
X-7827011Y18313400D01*
X-7721600Y18313400D01*
X-7721600Y18453100D01*
X-7827011Y18453100D01*
X-7887794Y18451502D01*
X-7927533Y18445256D01*
X-7950464Y18432185D01*
X-7960820Y18410113D01*
X-7962900Y18383250D01*
X-8186586Y18383250D01*
X-8190532Y18417064D01*
X-8177049Y18482951D01*
X-8141311Y18544805D01*
X-8132847Y18554692D01*
X-8114879Y18574098D01*
X-8097458Y18590452D01*
X-8078346Y18604016D01*
X-8055304Y18615050D01*
X-8026092Y18623816D01*
X-7988473Y18630575D01*
X-7940206Y18635588D01*
X-7879053Y18639114D01*
X-7802775Y18641417D01*
X-7709133Y18642756D01*
X-7595888Y18643392D01*
X-7460801Y18643587D01*
X-7370088Y18643600D01*
X-6769100Y18643600D01*
X-6769100Y18415000D01*
X-7010400Y18415000D01*
X-7010400Y17881600D01*
X-7251700Y17881600D01*
X-7251700Y18415000D01*
X-7442200Y18415000D01*
X-7442200Y17881600D01*
X-7721600Y17881600D01*
X-7721600Y18128774D01*
X-7845653Y18005187D01*
X-7969705Y17881600D01*
X-8312378Y17881879D01*
X-8416263Y17882108D01*
X-8498036Y17882740D01*
X-8560981Y17883977D01*
X-8608386Y17886023D01*
X-8643535Y17889080D01*
X-8669716Y17893350D01*
X-8690214Y17899036D01*
X-8708183Y17906281D01*
X-8759214Y17941137D01*
X-8789881Y17990614D01*
X-8800786Y18055727D01*
X-8800822Y18061945D01*
X-8791090Y18127920D01*
X-8761517Y18194817D01*
X-8710519Y18265680D01*
X-8673097Y18307098D01*
X-8639354Y18344578D01*
X-8615030Y18376168D01*
X-8603701Y18396997D01*
X-8603756Y18401500D01*
X-8620158Y18407587D01*
X-8658913Y18412011D01*
X-8717013Y18414518D01*
X-8763750Y18415000D01*
X-8915400Y18415000D01*
X-8915400Y18643600D01*
X-8660145Y18643600D01*
X-8559789Y18643011D01*
G36*
X-6032500Y17881600D02*
G01*
X-6261100Y17881600D01*
X-6261100Y18097500D01*
X-6032500Y18097500D01*
X-6032500Y17881600D01*
X-6032500Y17881600D01*
G37*
X-6032500Y17881600D02*
X-6261100Y17881600D01*
X-6261100Y18097500D01*
X-6032500Y18097500D01*
X-6032500Y17881600D01*
G36*
X-5638800Y18529300D02*
G01*
X-5607279Y18482985D01*
X-5581171Y18445682D01*
X-5563539Y18421701D01*
X-5557557Y18415000D01*
X-5549266Y18424941D01*
X-5530222Y18451852D01*
X-5503450Y18491365D01*
X-5478510Y18529101D01*
X-5403850Y18643202D01*
X-5253761Y18643401D01*
X-5103671Y18643600D01*
X-5127884Y18608675D01*
X-5142565Y18587468D01*
X-5168979Y18549279D01*
X-5204419Y18498023D01*
X-5246179Y18437616D01*
X-5291552Y18371971D01*
X-5293849Y18368647D01*
X-5435600Y18163543D01*
X-5435600Y17881600D01*
X-5689600Y17881600D01*
X-5689600Y18169605D01*
X-5848350Y18399293D01*
X-5894588Y18466510D01*
X-5935524Y18526629D01*
X-5969082Y18576550D01*
X-5993185Y18613173D01*
X-6005757Y18633397D01*
X-6007100Y18636291D01*
X-5995238Y18639172D01*
X-5962996Y18641518D01*
X-5915393Y18643077D01*
X-5861378Y18643600D01*
X-5715656Y18643600D01*
X-5638800Y18529300D01*
X-5638800Y18529300D01*
G37*
X-5638800Y18529300D02*
X-5607279Y18482985D01*
X-5581171Y18445682D01*
X-5563539Y18421701D01*
X-5557557Y18415000D01*
X-5549266Y18424941D01*
X-5530222Y18451852D01*
X-5503450Y18491365D01*
X-5478510Y18529101D01*
X-5403850Y18643202D01*
X-5253761Y18643401D01*
X-5103671Y18643600D01*
X-5127884Y18608675D01*
X-5142565Y18587468D01*
X-5168979Y18549279D01*
X-5204419Y18498023D01*
X-5246179Y18437616D01*
X-5291552Y18371971D01*
X-5293849Y18368647D01*
X-5435600Y18163543D01*
X-5435600Y17881600D01*
X-5689600Y17881600D01*
X-5689600Y18169605D01*
X-5848350Y18399293D01*
X-5894588Y18466510D01*
X-5935524Y18526629D01*
X-5969082Y18576550D01*
X-5993185Y18613173D01*
X-6005757Y18633397D01*
X-6007100Y18636291D01*
X-5995238Y18639172D01*
X-5962996Y18641518D01*
X-5915393Y18643077D01*
X-5861378Y18643600D01*
X-5715656Y18643600D01*
X-5638800Y18529300D01*
G36*
X-4191000Y18415000D02*
G01*
X-4343400Y18415000D01*
X-4343400Y17881600D01*
X-4645025Y17883074D01*
X-4731318Y17883713D01*
X-4810146Y17884709D01*
X-4877619Y17885979D01*
X-4929845Y17887441D01*
X-4962933Y17889013D01*
X-4972050Y17889990D01*
X-5050665Y17913998D01*
X-5107358Y17948502D01*
X-5144043Y17995216D01*
X-5162633Y18055855D01*
X-5163413Y18061494D01*
X-5161348Y18111449D01*
X-4889500Y18111449D01*
X-4878689Y18083427D01*
X-4851634Y18056744D01*
X-4826000Y18043010D01*
X-4804665Y18039521D01*
X-4765716Y18036712D01*
X-4716941Y18035113D01*
X-4708525Y18035003D01*
X-4610100Y18034000D01*
X-4610100Y18173700D01*
X-4721575Y18173700D01*
X-4795998Y18170378D01*
X-4847602Y18159976D01*
X-4878141Y18141846D01*
X-4889368Y18115337D01*
X-4889500Y18111449D01*
X-5161348Y18111449D01*
X-5160821Y18124189D01*
X-5135331Y18177337D01*
X-5086322Y18221974D01*
X-5057155Y18239181D01*
X-4992773Y18272912D01*
X-5030294Y18288453D01*
X-5082066Y18321682D01*
X-5115506Y18367691D01*
X-5127152Y18409277D01*
X-4836615Y18409277D01*
X-4834638Y18377654D01*
X-4818143Y18356509D01*
X-4784051Y18344219D01*
X-4729283Y18339163D01*
X-4702923Y18338800D01*
X-4610100Y18338800D01*
X-4610100Y18454089D01*
X-4721225Y18450420D01*
X-4832350Y18446750D01*
X-4836615Y18409277D01*
X-5127152Y18409277D01*
X-5130632Y18421699D01*
X-5127460Y18478922D01*
X-5106007Y18534577D01*
X-5066290Y18583881D01*
X-5029157Y18611164D01*
X-5015409Y18618494D01*
X-4999887Y18624358D01*
X-4979659Y18628957D01*
X-4951795Y18632491D01*
X-4913364Y18635159D01*
X-4861435Y18637160D01*
X-4793078Y18638696D01*
X-4705361Y18639965D01*
X-4595353Y18641167D01*
X-4587875Y18641242D01*
X-4191000Y18645234D01*
X-4191000Y18415000D01*
X-4191000Y18415000D01*
G37*
X-4191000Y18415000D02*
X-4343400Y18415000D01*
X-4343400Y17881600D01*
X-4645025Y17883074D01*
X-4731318Y17883713D01*
X-4810146Y17884709D01*
X-4877619Y17885979D01*
X-4929845Y17887441D01*
X-4962933Y17889013D01*
X-4972050Y17889990D01*
X-5050665Y17913998D01*
X-5107358Y17948502D01*
X-5144043Y17995216D01*
X-5162633Y18055855D01*
X-5163413Y18061494D01*
X-5161348Y18111449D01*
X-4889500Y18111449D01*
X-4878689Y18083427D01*
X-4851634Y18056744D01*
X-4826000Y18043010D01*
X-4804665Y18039521D01*
X-4765716Y18036712D01*
X-4716941Y18035113D01*
X-4708525Y18035003D01*
X-4610100Y18034000D01*
X-4610100Y18173700D01*
X-4721575Y18173700D01*
X-4795998Y18170378D01*
X-4847602Y18159976D01*
X-4878141Y18141846D01*
X-4889368Y18115337D01*
X-4889500Y18111449D01*
X-5161348Y18111449D01*
X-5160821Y18124189D01*
X-5135331Y18177337D01*
X-5086322Y18221974D01*
X-5057155Y18239181D01*
X-4992773Y18272912D01*
X-5030294Y18288453D01*
X-5082066Y18321682D01*
X-5115506Y18367691D01*
X-5127152Y18409277D01*
X-4836615Y18409277D01*
X-4834638Y18377654D01*
X-4818143Y18356509D01*
X-4784051Y18344219D01*
X-4729283Y18339163D01*
X-4702923Y18338800D01*
X-4610100Y18338800D01*
X-4610100Y18454089D01*
X-4721225Y18450420D01*
X-4832350Y18446750D01*
X-4836615Y18409277D01*
X-5127152Y18409277D01*
X-5130632Y18421699D01*
X-5127460Y18478922D01*
X-5106007Y18534577D01*
X-5066290Y18583881D01*
X-5029157Y18611164D01*
X-5015409Y18618494D01*
X-4999887Y18624358D01*
X-4979659Y18628957D01*
X-4951795Y18632491D01*
X-4913364Y18635159D01*
X-4861435Y18637160D01*
X-4793078Y18638696D01*
X-4705361Y18639965D01*
X-4595353Y18641167D01*
X-4587875Y18641242D01*
X-4191000Y18645234D01*
X-4191000Y18415000D01*
G36*
X-3098800Y18110200D02*
G01*
X-2985365Y18110200D01*
X-2931016Y18110601D01*
X-2896005Y18112835D01*
X-2874274Y18118453D01*
X-2859762Y18129004D01*
X-2846669Y18145676D01*
X-2821408Y18181152D01*
X-2882921Y18202999D01*
X-2947778Y18238227D01*
X-2994988Y18289473D01*
X-3022255Y18352771D01*
X-3024725Y18387858D01*
X-2806700Y18387858D01*
X-2803430Y18354304D01*
X-2790799Y18332443D01*
X-2764579Y18319920D01*
X-2720541Y18314384D01*
X-2672904Y18313400D01*
X-2565400Y18313400D01*
X-2565400Y18453100D01*
X-2666093Y18453100D01*
X-2730326Y18450284D01*
X-2772943Y18440824D01*
X-2797208Y18423207D01*
X-2806382Y18395921D01*
X-2806700Y18387858D01*
X-3024725Y18387858D01*
X-3027282Y18424154D01*
X-3024072Y18446750D01*
X-3007659Y18505836D01*
X-2981494Y18549402D01*
X-2943055Y18584687D01*
X-2914921Y18603404D01*
X-2883899Y18617782D01*
X-2846314Y18628362D01*
X-2798492Y18635684D01*
X-2736756Y18640291D01*
X-2657433Y18642722D01*
X-2556847Y18643518D01*
X-2543175Y18643530D01*
X-2286000Y18643600D01*
X-2286000Y17881600D01*
X-2565400Y17881600D01*
X-2566035Y18005425D01*
X-2566669Y18129250D01*
X-2801505Y17881600D01*
X-3351812Y17881600D01*
X-3359150Y18101938D01*
X-3451862Y17991769D01*
X-3544573Y17881600D01*
X-3848100Y17881600D01*
X-3848100Y18110200D01*
X-3613150Y18110408D01*
X-3551853Y18187278D01*
X-3490555Y18264147D01*
X-3601659Y18412599D01*
X-3644132Y18469333D01*
X-3683783Y18522265D01*
X-3716855Y18566385D01*
X-3739594Y18596682D01*
X-3743839Y18602325D01*
X-3774915Y18643600D01*
X-3649583Y18643423D01*
X-3524250Y18643246D01*
X-3438525Y18520081D01*
X-3352800Y18396917D01*
X-3352800Y18643600D01*
X-3098800Y18643600D01*
X-3098800Y18110200D01*
X-3098800Y18110200D01*
G37*
X-3098800Y18110200D02*
X-2985365Y18110200D01*
X-2931016Y18110601D01*
X-2896005Y18112835D01*
X-2874274Y18118453D01*
X-2859762Y18129004D01*
X-2846669Y18145676D01*
X-2821408Y18181152D01*
X-2882921Y18202999D01*
X-2947778Y18238227D01*
X-2994988Y18289473D01*
X-3022255Y18352771D01*
X-3024725Y18387858D01*
X-2806700Y18387858D01*
X-2803430Y18354304D01*
X-2790799Y18332443D01*
X-2764579Y18319920D01*
X-2720541Y18314384D01*
X-2672904Y18313400D01*
X-2565400Y18313400D01*
X-2565400Y18453100D01*
X-2666093Y18453100D01*
X-2730326Y18450284D01*
X-2772943Y18440824D01*
X-2797208Y18423207D01*
X-2806382Y18395921D01*
X-2806700Y18387858D01*
X-3024725Y18387858D01*
X-3027282Y18424154D01*
X-3024072Y18446750D01*
X-3007659Y18505836D01*
X-2981494Y18549402D01*
X-2943055Y18584687D01*
X-2914921Y18603404D01*
X-2883899Y18617782D01*
X-2846314Y18628362D01*
X-2798492Y18635684D01*
X-2736756Y18640291D01*
X-2657433Y18642722D01*
X-2556847Y18643518D01*
X-2543175Y18643530D01*
X-2286000Y18643600D01*
X-2286000Y17881600D01*
X-2565400Y17881600D01*
X-2566035Y18005425D01*
X-2566669Y18129250D01*
X-2801505Y17881600D01*
X-3351812Y17881600D01*
X-3359150Y18101938D01*
X-3451862Y17991769D01*
X-3544573Y17881600D01*
X-3848100Y17881600D01*
X-3848100Y18110200D01*
X-3613150Y18110408D01*
X-3551853Y18187278D01*
X-3490555Y18264147D01*
X-3601659Y18412599D01*
X-3644132Y18469333D01*
X-3683783Y18522265D01*
X-3716855Y18566385D01*
X-3739594Y18596682D01*
X-3743839Y18602325D01*
X-3774915Y18643600D01*
X-3649583Y18643423D01*
X-3524250Y18643246D01*
X-3438525Y18520081D01*
X-3352800Y18396917D01*
X-3352800Y18643600D01*
X-3098800Y18643600D01*
X-3098800Y18110200D01*
G36*
X-748466Y18485493D02*
G01*
X-732055Y18427193D01*
X-717321Y18379952D01*
X-705695Y18348002D01*
X-698608Y18335574D01*
X-697850Y18335816D01*
X-691188Y18350923D01*
X-678796Y18385278D01*
X-662418Y18433850D01*
X-643796Y18491611D01*
X-642924Y18494375D01*
X-595885Y18643600D01*
X304800Y18643600D01*
X304800Y18415000D01*
X63500Y18415000D01*
X63500Y17881600D01*
X-190500Y17881600D01*
X-190500Y18415000D01*
X-417689Y18415000D01*
X-461839Y18272125D01*
X-484296Y18199231D01*
X-508696Y18119674D01*
X-531389Y18045375D01*
X-542567Y18008600D01*
X-579146Y17887950D01*
X-830445Y17887950D01*
X-869576Y18045197D01*
X-908708Y18202444D01*
X-929762Y18134097D01*
X-944588Y18085553D01*
X-962541Y18026192D01*
X-978295Y17973675D01*
X-1005774Y17881600D01*
X-1254132Y17881600D01*
X-1444702Y18643600D01*
X-1196350Y18643600D01*
X-1176219Y18551525D01*
X-1163546Y18493248D01*
X-1150574Y18433104D01*
X-1141279Y18389600D01*
X-1126468Y18319750D01*
X-1073376Y18478500D01*
X-1020283Y18637250D01*
X-905738Y18640877D01*
X-791194Y18644503D01*
X-748466Y18485493D01*
X-748466Y18485493D01*
G37*
X-748466Y18485493D02*
X-732055Y18427193D01*
X-717321Y18379952D01*
X-705695Y18348002D01*
X-698608Y18335574D01*
X-697850Y18335816D01*
X-691188Y18350923D01*
X-678796Y18385278D01*
X-662418Y18433850D01*
X-643796Y18491611D01*
X-642924Y18494375D01*
X-595885Y18643600D01*
X304800Y18643600D01*
X304800Y18415000D01*
X63500Y18415000D01*
X63500Y17881600D01*
X-190500Y17881600D01*
X-190500Y18415000D01*
X-417689Y18415000D01*
X-461839Y18272125D01*
X-484296Y18199231D01*
X-508696Y18119674D01*
X-531389Y18045375D01*
X-542567Y18008600D01*
X-579146Y17887950D01*
X-830445Y17887950D01*
X-869576Y18045197D01*
X-908708Y18202444D01*
X-929762Y18134097D01*
X-944588Y18085553D01*
X-962541Y18026192D01*
X-978295Y17973675D01*
X-1005774Y17881600D01*
X-1254132Y17881600D01*
X-1444702Y18643600D01*
X-1196350Y18643600D01*
X-1176219Y18551525D01*
X-1163546Y18493248D01*
X-1150574Y18433104D01*
X-1141279Y18389600D01*
X-1126468Y18319750D01*
X-1073376Y18478500D01*
X-1020283Y18637250D01*
X-905738Y18640877D01*
X-791194Y18644503D01*
X-748466Y18485493D01*
G36*
X1082475Y18285697D02*
G01*
X1085850Y17926050D01*
X1172204Y18183202D01*
X1422400Y18183202D01*
X1434094Y18178785D01*
X1465168Y18175462D01*
X1509605Y18173794D01*
X1523794Y18173700D01*
X1625189Y18173700D01*
X1574604Y18315508D01*
X1554476Y18371207D01*
X1537256Y18417511D01*
X1524793Y18449535D01*
X1518975Y18462358D01*
X1513619Y18453003D01*
X1502441Y18425116D01*
X1487395Y18384342D01*
X1470436Y18336330D01*
X1453517Y18286728D01*
X1438591Y18241182D01*
X1427613Y18205339D01*
X1422536Y18184849D01*
X1422400Y18183202D01*
X1172204Y18183202D01*
X1326810Y18643600D01*
X1968500Y18643600D01*
X1968500Y18415000D01*
X1879600Y18415000D01*
X1828599Y18413408D01*
X1799930Y18408277D01*
X1790706Y18399082D01*
X1790700Y18398759D01*
X1794577Y18382250D01*
X1805402Y18345560D01*
X1821958Y18292559D01*
X1843031Y18227121D01*
X1867407Y18153118D01*
X1873250Y18135600D01*
X1898081Y18061160D01*
X1919923Y17995371D01*
X1937577Y17941859D01*
X1949850Y17904255D01*
X1955544Y17886185D01*
X1955800Y17885142D01*
X1943961Y17883708D01*
X1911893Y17882552D01*
X1864764Y17881809D01*
X1818419Y17881600D01*
X1681038Y17881600D01*
X1637002Y18021300D01*
X1413101Y18021300D01*
X1362449Y17887950D01*
X1087624Y17884528D01*
X812800Y17881105D01*
X812800Y18002003D01*
X812234Y18053906D01*
X810716Y18094655D01*
X808507Y18118739D01*
X807001Y18122900D01*
X796524Y18114289D01*
X771928Y18090712D01*
X736655Y18055558D01*
X694145Y18012216D01*
X684484Y18002250D01*
X567767Y17881600D01*
X266700Y17881600D01*
X266700Y18110200D01*
X378786Y18110200D01*
X433594Y18110791D01*
X469418Y18113518D01*
X492664Y18119812D01*
X509738Y18131104D01*
X520652Y18141900D01*
X539117Y18163960D01*
X545513Y18176669D01*
X545091Y18177327D01*
X531526Y18184184D01*
X501902Y18198101D01*
X472053Y18211777D01*
X410765Y18247859D01*
X371204Y18292638D01*
X350041Y18350656D01*
X345734Y18382353D01*
X572004Y18382353D01*
X574061Y18349072D01*
X582325Y18325922D01*
X587375Y18321811D01*
X606863Y18318716D01*
X644575Y18316167D01*
X693335Y18314604D01*
X708025Y18314403D01*
X812800Y18313400D01*
X812800Y18453100D01*
X707389Y18453100D01*
X648517Y18451183D01*
X606775Y18445783D01*
X586739Y18437861D01*
X576211Y18415403D01*
X572004Y18382353D01*
X345734Y18382353D01*
X345444Y18384486D01*
X350167Y18462032D01*
X377403Y18528695D01*
X426256Y18582697D01*
X455244Y18602505D01*
X474967Y18613780D01*
X493212Y18622356D01*
X513742Y18628661D01*
X540323Y18633123D01*
X576716Y18636170D01*
X626688Y18638228D01*
X694001Y18639726D01*
X782420Y18641091D01*
X796725Y18641297D01*
X1079101Y18645343D01*
X1082475Y18285697D01*
X1082475Y18285697D01*
G37*
X1082475Y18285697D02*
X1085850Y17926050D01*
X1172204Y18183202D01*
X1422400Y18183202D01*
X1434094Y18178785D01*
X1465168Y18175462D01*
X1509605Y18173794D01*
X1523794Y18173700D01*
X1625189Y18173700D01*
X1574604Y18315508D01*
X1554476Y18371207D01*
X1537256Y18417511D01*
X1524793Y18449535D01*
X1518975Y18462358D01*
X1513619Y18453003D01*
X1502441Y18425116D01*
X1487395Y18384342D01*
X1470436Y18336330D01*
X1453517Y18286728D01*
X1438591Y18241182D01*
X1427613Y18205339D01*
X1422536Y18184849D01*
X1422400Y18183202D01*
X1172204Y18183202D01*
X1326810Y18643600D01*
X1968500Y18643600D01*
X1968500Y18415000D01*
X1879600Y18415000D01*
X1828599Y18413408D01*
X1799930Y18408277D01*
X1790706Y18399082D01*
X1790700Y18398759D01*
X1794577Y18382250D01*
X1805402Y18345560D01*
X1821958Y18292559D01*
X1843031Y18227121D01*
X1867407Y18153118D01*
X1873250Y18135600D01*
X1898081Y18061160D01*
X1919923Y17995371D01*
X1937577Y17941859D01*
X1949850Y17904255D01*
X1955544Y17886185D01*
X1955800Y17885142D01*
X1943961Y17883708D01*
X1911893Y17882552D01*
X1864764Y17881809D01*
X1818419Y17881600D01*
X1681038Y17881600D01*
X1637002Y18021300D01*
X1413101Y18021300D01*
X1362449Y17887950D01*
X1087624Y17884528D01*
X812800Y17881105D01*
X812800Y18002003D01*
X812234Y18053906D01*
X810716Y18094655D01*
X808507Y18118739D01*
X807001Y18122900D01*
X796524Y18114289D01*
X771928Y18090712D01*
X736655Y18055558D01*
X694145Y18012216D01*
X684484Y18002250D01*
X567767Y17881600D01*
X266700Y17881600D01*
X266700Y18110200D01*
X378786Y18110200D01*
X433594Y18110791D01*
X469418Y18113518D01*
X492664Y18119812D01*
X509738Y18131104D01*
X520652Y18141900D01*
X539117Y18163960D01*
X545513Y18176669D01*
X545091Y18177327D01*
X531526Y18184184D01*
X501902Y18198101D01*
X472053Y18211777D01*
X410765Y18247859D01*
X371204Y18292638D01*
X350041Y18350656D01*
X345734Y18382353D01*
X572004Y18382353D01*
X574061Y18349072D01*
X582325Y18325922D01*
X587375Y18321811D01*
X606863Y18318716D01*
X644575Y18316167D01*
X693335Y18314604D01*
X708025Y18314403D01*
X812800Y18313400D01*
X812800Y18453100D01*
X707389Y18453100D01*
X648517Y18451183D01*
X606775Y18445783D01*
X586739Y18437861D01*
X576211Y18415403D01*
X572004Y18382353D01*
X345734Y18382353D01*
X345444Y18384486D01*
X350167Y18462032D01*
X377403Y18528695D01*
X426256Y18582697D01*
X455244Y18602505D01*
X474967Y18613780D01*
X493212Y18622356D01*
X513742Y18628661D01*
X540323Y18633123D01*
X576716Y18636170D01*
X626688Y18638228D01*
X694001Y18639726D01*
X782420Y18641091D01*
X796725Y18641297D01*
X1079101Y18645343D01*
X1082475Y18285697D01*
G36*
X-8877300Y18084800D02*
G01*
X-9182100Y18084800D01*
X-9182100Y18275300D01*
X-8877300Y18275300D01*
X-8877300Y18084800D01*
X-8877300Y18084800D01*
G37*
X-8877300Y18084800D02*
X-9182100Y18084800D01*
X-9182100Y18275300D01*
X-8877300Y18275300D01*
X-8877300Y18084800D01*
G36*
X-6032500Y18237200D02*
G01*
X-6261100Y18237200D01*
X-6261100Y18453100D01*
X-6032500Y18453100D01*
X-6032500Y18237200D01*
X-6032500Y18237200D01*
G37*
X-6032500Y18237200D02*
X-6261100Y18237200D01*
X-6261100Y18453100D01*
X-6032500Y18453100D01*
X-6032500Y18237200D01*
D10*
X-15290619Y-7207908D02*
X-13683529Y-7207908D01*
X-15290619Y-5322908D02*
X-15290619Y-7207908D01*
X5649381Y-5322908D02*
X5649381Y-7207908D01*
X-15290619Y677092D02*
X-15290619Y2562092D01*
X5649381Y677092D02*
X5649381Y2562092D01*
X5649381Y-7207908D02*
X4042291Y-7207908D01*
X-15290619Y2562092D02*
X-13683529Y2562092D01*
X5649381Y2562092D02*
X4042291Y2562092D01*
X-13683529Y-7207908D02*
G75*
G03X4042291Y-7207908I8862910J4885000D01*
G01*
X4044402Y2558260D02*
G75*
G03X-13683529Y2562092I-8865021J-4881168D01*
G01*
X-10959720Y9781740D02*
X-10959720Y13666740D01*
X-10959720Y13666740D02*
X-8689720Y13666740D01*
X-8689720Y13666740D02*
X-8689720Y9781740D01*
X-7851520Y24352980D02*
X-7851520Y20467980D01*
X-10121520Y24352980D02*
X-7851520Y24352980D01*
X-10121520Y20467980D02*
X-10121520Y24352980D01*
X-494920Y20467980D02*
X-494920Y24352980D01*
X-494920Y24352980D02*
X1775080Y24352980D01*
X1775080Y24352980D02*
X1775080Y20467980D01*
X2181480Y13666740D02*
X2181480Y9781740D01*
X-88520Y13666740D02*
X2181480Y13666740D01*
X-88520Y9781740D02*
X-88520Y13666740D01*
X-6802800Y12512992D02*
X-6802800Y10290488D01*
X-4982800Y12512992D02*
X-4982800Y10290488D01*
X-2117680Y12512992D02*
X-2117680Y10290488D01*
X-3937680Y12512992D02*
X-3937680Y10290488D01*
D12*
X-14266956Y-8804980D02*
X-14933622Y-9804980D01*
X-14933622Y-8804980D02*
X-14266956Y-9804980D01*
X-15838384Y-9804980D02*
X-15266956Y-9804980D01*
X-15552670Y-9804980D02*
X-15552670Y-8804980D01*
X-15457432Y-8947838D01*
X-15362194Y-9043076D01*
X-15266956Y-9090695D01*
X-4034904Y-13451479D02*
X-4177761Y-13499098D01*
X-4225380Y-13546717D01*
X-4272999Y-13641955D01*
X-4272999Y-13784812D01*
X-4225380Y-13880050D01*
X-4177761Y-13927669D01*
X-4082523Y-13975288D01*
X-3701571Y-13975288D01*
X-3701571Y-12975288D01*
X-4034904Y-12975288D01*
X-4130142Y-13022908D01*
X-4177761Y-13070527D01*
X-4225380Y-13165765D01*
X-4225380Y-13261003D01*
X-4177761Y-13356241D01*
X-4130142Y-13403860D01*
X-4034904Y-13451479D01*
X-3701571Y-13451479D01*
X-4558714Y-12975288D02*
X-5130142Y-12975288D01*
X-4844428Y-13975288D02*
X-4844428Y-12975288D01*
X-5987285Y-13975288D02*
X-5415857Y-13975288D01*
X-5701571Y-13975288D02*
X-5701571Y-12975288D01*
X-5606333Y-13118146D01*
X-5511095Y-13213384D01*
X-5415857Y-13261003D01*
X-11192339Y12119835D02*
X-12192339Y12119835D01*
X-12192339Y11881740D01*
X-12144720Y11738882D01*
X-12049481Y11643644D01*
X-11954243Y11596025D01*
X-11763767Y11548406D01*
X-11620910Y11548406D01*
X-11430434Y11596025D01*
X-11335196Y11643644D01*
X-11239958Y11738882D01*
X-11192339Y11881740D01*
X-11192339Y12119835D01*
X-11192339Y10596025D02*
X-11192339Y11167454D01*
X-11192339Y10881740D02*
X-12192339Y10881740D01*
X-12049481Y10976978D01*
X-11954243Y11072216D01*
X-11906624Y11167454D01*
X-10354139Y22806075D02*
X-11354139Y22806075D01*
X-11354139Y22567980D01*
X-11306520Y22425122D01*
X-11211281Y22329884D01*
X-11116043Y22282265D01*
X-10925567Y22234646D01*
X-10782710Y22234646D01*
X-10592234Y22282265D01*
X-10496996Y22329884D01*
X-10401758Y22425122D01*
X-10354139Y22567980D01*
X-10354139Y22806075D01*
X-11258900Y21853694D02*
X-11306520Y21806075D01*
X-11354139Y21710837D01*
X-11354139Y21472741D01*
X-11306520Y21377503D01*
X-11258900Y21329884D01*
X-11163662Y21282265D01*
X-11068424Y21282265D01*
X-10925567Y21329884D01*
X-10354139Y21901313D01*
X-10354139Y21282265D01*
X-727539Y22806075D02*
X-1727539Y22806075D01*
X-1727539Y22567980D01*
X-1679920Y22425122D01*
X-1584681Y22329884D01*
X-1489443Y22282265D01*
X-1298967Y22234646D01*
X-1156110Y22234646D01*
X-965634Y22282265D01*
X-870396Y22329884D01*
X-775158Y22425122D01*
X-727539Y22567980D01*
X-727539Y22806075D01*
X-1727539Y21901313D02*
X-1727539Y21282265D01*
X-1346586Y21615599D01*
X-1346586Y21472741D01*
X-1298967Y21377503D01*
X-1251348Y21329884D01*
X-1156110Y21282265D01*
X-918015Y21282265D01*
X-822777Y21329884D01*
X-775158Y21377503D01*
X-727539Y21472741D01*
X-727539Y21758456D01*
X-775158Y21853694D01*
X-822777Y21901313D01*
X-321139Y12119835D02*
X-1321139Y12119835D01*
X-1321139Y11881740D01*
X-1273520Y11738882D01*
X-1178281Y11643644D01*
X-1083043Y11596025D01*
X-892567Y11548406D01*
X-749710Y11548406D01*
X-559234Y11596025D01*
X-463996Y11643644D01*
X-368758Y11738882D01*
X-321139Y11881740D01*
X-321139Y12119835D01*
X-987805Y10691263D02*
X-321139Y10691263D01*
X-1368758Y10929359D02*
X-654472Y11167454D01*
X-654472Y10548406D01*
X-7290419Y11568406D02*
X-7766609Y11901740D01*
X-7290419Y12139835D02*
X-8290419Y12139835D01*
X-8290419Y11758882D01*
X-8242800Y11663644D01*
X-8195180Y11616025D01*
X-8099942Y11568406D01*
X-7957085Y11568406D01*
X-7861847Y11616025D01*
X-7814228Y11663644D01*
X-7766609Y11758882D01*
X-7766609Y12139835D01*
X-7290419Y10616025D02*
X-7290419Y11187454D01*
X-7290419Y10901740D02*
X-8290419Y10901740D01*
X-8147561Y10996978D01*
X-8052323Y11092216D01*
X-8004704Y11187454D01*
X-4425299Y11568406D02*
X-4901489Y11901740D01*
X-4425299Y12139835D02*
X-5425299Y12139835D01*
X-5425299Y11758882D01*
X-5377680Y11663644D01*
X-5330060Y11616025D01*
X-5234822Y11568406D01*
X-5091965Y11568406D01*
X-4996727Y11616025D01*
X-4949108Y11663644D01*
X-4901489Y11758882D01*
X-4901489Y12139835D01*
X-5330060Y11187454D02*
X-5377680Y11139835D01*
X-5425299Y11044597D01*
X-5425299Y10806501D01*
X-5377680Y10711263D01*
X-5330060Y10663644D01*
X-5234822Y10616025D01*
X-5139584Y10616025D01*
X-4996727Y10663644D01*
X-4425299Y11235073D01*
X-4425299Y10616025D01*
M02*
