G04 #@! TF.GenerationSoftware,KiCad,Pcbnew,8.0.4*
G04 #@! TF.CreationDate,2024-07-21T19:03:05-05:00*
G04 #@! TF.ProjectId,keanu-homeboy,6b65616e-752d-4686-9f6d-65626f792e6b,rev?*
G04 #@! TF.SameCoordinates,Original*
G04 #@! TF.FileFunction,Legend,Bot*
G04 #@! TF.FilePolarity,Positive*
%FSLAX46Y46*%
G04 Gerber Fmt 4.6, Leading zero omitted, Abs format (unit mm)*
G04 Created by KiCad (PCBNEW 8.0.4) date 2024-07-21 19:03:05*
%MOMM*%
%LPD*%
G01*
G04 APERTURE LIST*
G04 Aperture macros list*
%AMRoundRect*
0 Rectangle with rounded corners*
0 $1 Rounding radius*
0 $2 $3 $4 $5 $6 $7 $8 $9 X,Y pos of 4 corners*
0 Add a 4 corners polygon primitive as box body*
4,1,4,$2,$3,$4,$5,$6,$7,$8,$9,$2,$3,0*
0 Add four circle primitives for the rounded corners*
1,1,$1+$1,$2,$3*
1,1,$1+$1,$4,$5*
1,1,$1+$1,$6,$7*
1,1,$1+$1,$8,$9*
0 Add four rect primitives between the rounded corners*
20,1,$1+$1,$2,$3,$4,$5,0*
20,1,$1+$1,$4,$5,$6,$7,0*
20,1,$1+$1,$6,$7,$8,$9,0*
20,1,$1+$1,$8,$9,$2,$3,0*%
G04 Aperture macros list end*
%ADD10C,0.150000*%
%ADD11C,0.500000*%
%ADD12C,0.120000*%
%ADD13C,0.010000*%
%ADD14O,2.127200X2.127200*%
%ADD15RoundRect,0.200000X-0.863600X0.863600X-0.863600X-0.863600X0.863600X-0.863600X0.863600X0.863600X0*%
%ADD16C,2.127200*%
%ADD17RoundRect,0.333333X-0.566667X0.466667X-0.566667X-0.466667X0.566667X-0.466667X0.566667X0.466667X0*%
%ADD18RoundRect,0.200000X-0.450000X0.600000X-0.450000X-0.600000X0.450000X-0.600000X0.450000X0.600000X0*%
%ADD19RoundRect,0.200000X-0.400000X0.500000X-0.400000X-0.500000X0.400000X-0.500000X0.400000X0.500000X0*%
%ADD20RoundRect,0.200000X0.450000X-0.600000X0.450000X0.600000X-0.450000X0.600000X-0.450000X-0.600000X0*%
%ADD21RoundRect,0.200000X0.400000X-0.500000X0.400000X0.500000X-0.400000X0.500000X-0.400000X-0.500000X0*%
%ADD22C,3.400000*%
%ADD23RoundRect,0.200000X-4.000000X-2.780000X4.000000X-2.780000X4.000000X2.780000X-4.000000X2.780000X0*%
%ADD24RoundRect,0.200000X-1.300000X-2.780000X1.300000X-2.780000X1.300000X2.780000X-1.300000X2.780000X0*%
G04 APERTURE END LIST*
D10*
X-16641880Y-11811964D02*
X-16891880Y-12561964D01*
X-16891880Y-12561964D02*
X-17141880Y-11811964D01*
X-17820451Y-12490535D02*
X-17784737Y-12526250D01*
X-17784737Y-12526250D02*
X-17677594Y-12561964D01*
X-17677594Y-12561964D02*
X-17606166Y-12561964D01*
X-17606166Y-12561964D02*
X-17499023Y-12526250D01*
X-17499023Y-12526250D02*
X-17427594Y-12454821D01*
X-17427594Y-12454821D02*
X-17391880Y-12383392D01*
X-17391880Y-12383392D02*
X-17356166Y-12240535D01*
X-17356166Y-12240535D02*
X-17356166Y-12133392D01*
X-17356166Y-12133392D02*
X-17391880Y-11990535D01*
X-17391880Y-11990535D02*
X-17427594Y-11919107D01*
X-17427594Y-11919107D02*
X-17499023Y-11847678D01*
X-17499023Y-11847678D02*
X-17606166Y-11811964D01*
X-17606166Y-11811964D02*
X-17677594Y-11811964D01*
X-17677594Y-11811964D02*
X-17784737Y-11847678D01*
X-17784737Y-11847678D02*
X-17820451Y-11883392D01*
X-18570451Y-12490535D02*
X-18534737Y-12526250D01*
X-18534737Y-12526250D02*
X-18427594Y-12561964D01*
X-18427594Y-12561964D02*
X-18356166Y-12561964D01*
X-18356166Y-12561964D02*
X-18249023Y-12526250D01*
X-18249023Y-12526250D02*
X-18177594Y-12454821D01*
X-18177594Y-12454821D02*
X-18141880Y-12383392D01*
X-18141880Y-12383392D02*
X-18106166Y-12240535D01*
X-18106166Y-12240535D02*
X-18106166Y-12133392D01*
X-18106166Y-12133392D02*
X-18141880Y-11990535D01*
X-18141880Y-11990535D02*
X-18177594Y-11919107D01*
X-18177594Y-11919107D02*
X-18249023Y-11847678D01*
X-18249023Y-11847678D02*
X-18356166Y-11811964D01*
X-18356166Y-11811964D02*
X-18427594Y-11811964D01*
X-18427594Y-11811964D02*
X-18534737Y-11847678D01*
X-18534737Y-11847678D02*
X-18570451Y-11883392D01*
X-10667337Y-17461078D02*
X-10595909Y-17425364D01*
X-10595909Y-17425364D02*
X-10488766Y-17425364D01*
X-10488766Y-17425364D02*
X-10381623Y-17461078D01*
X-10381623Y-17461078D02*
X-10310194Y-17532507D01*
X-10310194Y-17532507D02*
X-10274480Y-17603935D01*
X-10274480Y-17603935D02*
X-10238766Y-17746792D01*
X-10238766Y-17746792D02*
X-10238766Y-17853935D01*
X-10238766Y-17853935D02*
X-10274480Y-17996792D01*
X-10274480Y-17996792D02*
X-10310194Y-18068221D01*
X-10310194Y-18068221D02*
X-10381623Y-18139650D01*
X-10381623Y-18139650D02*
X-10488766Y-18175364D01*
X-10488766Y-18175364D02*
X-10560194Y-18175364D01*
X-10560194Y-18175364D02*
X-10667337Y-18139650D01*
X-10667337Y-18139650D02*
X-10703051Y-18103935D01*
X-10703051Y-18103935D02*
X-10703051Y-17853935D01*
X-10703051Y-17853935D02*
X-10560194Y-17853935D01*
X-11024480Y-18175364D02*
X-11024480Y-17425364D01*
X-11024480Y-17425364D02*
X-11310194Y-17425364D01*
X-11310194Y-17425364D02*
X-11381623Y-17461078D01*
X-11381623Y-17461078D02*
X-11417337Y-17496792D01*
X-11417337Y-17496792D02*
X-11453051Y-17568221D01*
X-11453051Y-17568221D02*
X-11453051Y-17675364D01*
X-11453051Y-17675364D02*
X-11417337Y-17746792D01*
X-11417337Y-17746792D02*
X-11381623Y-17782507D01*
X-11381623Y-17782507D02*
X-11310194Y-17818221D01*
X-11310194Y-17818221D02*
X-11024480Y-17818221D01*
X-11774480Y-18175364D02*
X-11774480Y-17425364D01*
X-12274480Y-17425364D02*
X-12417337Y-17425364D01*
X-12417337Y-17425364D02*
X-12488766Y-17461078D01*
X-12488766Y-17461078D02*
X-12560194Y-17532507D01*
X-12560194Y-17532507D02*
X-12595909Y-17675364D01*
X-12595909Y-17675364D02*
X-12595909Y-17925364D01*
X-12595909Y-17925364D02*
X-12560194Y-18068221D01*
X-12560194Y-18068221D02*
X-12488766Y-18139650D01*
X-12488766Y-18139650D02*
X-12417337Y-18175364D01*
X-12417337Y-18175364D02*
X-12274480Y-18175364D01*
X-12274480Y-18175364D02*
X-12203052Y-18139650D01*
X-12203052Y-18139650D02*
X-12131623Y-18068221D01*
X-12131623Y-18068221D02*
X-12095909Y-17925364D01*
X-12095909Y-17925364D02*
X-12095909Y-17675364D01*
X-12095909Y-17675364D02*
X-12131623Y-17532507D01*
X-12131623Y-17532507D02*
X-12203052Y-17461078D01*
X-12203052Y-17461078D02*
X-12274480Y-17425364D01*
X-12881623Y-17496792D02*
X-12917337Y-17461078D01*
X-12917337Y-17461078D02*
X-12988766Y-17425364D01*
X-12988766Y-17425364D02*
X-13167337Y-17425364D01*
X-13167337Y-17425364D02*
X-13238766Y-17461078D01*
X-13238766Y-17461078D02*
X-13274480Y-17496792D01*
X-13274480Y-17496792D02*
X-13310194Y-17568221D01*
X-13310194Y-17568221D02*
X-13310194Y-17639650D01*
X-13310194Y-17639650D02*
X-13274480Y-17746792D01*
X-13274480Y-17746792D02*
X-12845908Y-18175364D01*
X-12845908Y-18175364D02*
X-13310194Y-18175364D01*
X-17019651Y-17486478D02*
X-16948223Y-17450764D01*
X-16948223Y-17450764D02*
X-16841080Y-17450764D01*
X-16841080Y-17450764D02*
X-16733937Y-17486478D01*
X-16733937Y-17486478D02*
X-16662508Y-17557907D01*
X-16662508Y-17557907D02*
X-16626794Y-17629335D01*
X-16626794Y-17629335D02*
X-16591080Y-17772192D01*
X-16591080Y-17772192D02*
X-16591080Y-17879335D01*
X-16591080Y-17879335D02*
X-16626794Y-18022192D01*
X-16626794Y-18022192D02*
X-16662508Y-18093621D01*
X-16662508Y-18093621D02*
X-16733937Y-18165050D01*
X-16733937Y-18165050D02*
X-16841080Y-18200764D01*
X-16841080Y-18200764D02*
X-16912508Y-18200764D01*
X-16912508Y-18200764D02*
X-17019651Y-18165050D01*
X-17019651Y-18165050D02*
X-17055365Y-18129335D01*
X-17055365Y-18129335D02*
X-17055365Y-17879335D01*
X-17055365Y-17879335D02*
X-16912508Y-17879335D01*
X-17376794Y-18200764D02*
X-17376794Y-17450764D01*
X-17376794Y-17450764D02*
X-17805365Y-18200764D01*
X-17805365Y-18200764D02*
X-17805365Y-17450764D01*
X-18162508Y-18200764D02*
X-18162508Y-17450764D01*
X-18162508Y-17450764D02*
X-18341079Y-17450764D01*
X-18341079Y-17450764D02*
X-18448222Y-17486478D01*
X-18448222Y-17486478D02*
X-18519651Y-17557907D01*
X-18519651Y-17557907D02*
X-18555365Y-17629335D01*
X-18555365Y-17629335D02*
X-18591079Y-17772192D01*
X-18591079Y-17772192D02*
X-18591079Y-17879335D01*
X-18591079Y-17879335D02*
X-18555365Y-18022192D01*
X-18555365Y-18022192D02*
X-18519651Y-18093621D01*
X-18519651Y-18093621D02*
X-18448222Y-18165050D01*
X-18448222Y-18165050D02*
X-18341079Y-18200764D01*
X-18341079Y-18200764D02*
X-18162508Y-18200764D01*
X-10794337Y-11822278D02*
X-10722909Y-11786564D01*
X-10722909Y-11786564D02*
X-10615766Y-11786564D01*
X-10615766Y-11786564D02*
X-10508623Y-11822278D01*
X-10508623Y-11822278D02*
X-10437194Y-11893707D01*
X-10437194Y-11893707D02*
X-10401480Y-11965135D01*
X-10401480Y-11965135D02*
X-10365766Y-12107992D01*
X-10365766Y-12107992D02*
X-10365766Y-12215135D01*
X-10365766Y-12215135D02*
X-10401480Y-12357992D01*
X-10401480Y-12357992D02*
X-10437194Y-12429421D01*
X-10437194Y-12429421D02*
X-10508623Y-12500850D01*
X-10508623Y-12500850D02*
X-10615766Y-12536564D01*
X-10615766Y-12536564D02*
X-10687194Y-12536564D01*
X-10687194Y-12536564D02*
X-10794337Y-12500850D01*
X-10794337Y-12500850D02*
X-10830051Y-12465135D01*
X-10830051Y-12465135D02*
X-10830051Y-12215135D01*
X-10830051Y-12215135D02*
X-10687194Y-12215135D01*
X-11151480Y-12536564D02*
X-11151480Y-11786564D01*
X-11151480Y-11786564D02*
X-11437194Y-11786564D01*
X-11437194Y-11786564D02*
X-11508623Y-11822278D01*
X-11508623Y-11822278D02*
X-11544337Y-11857992D01*
X-11544337Y-11857992D02*
X-11580051Y-11929421D01*
X-11580051Y-11929421D02*
X-11580051Y-12036564D01*
X-11580051Y-12036564D02*
X-11544337Y-12107992D01*
X-11544337Y-12107992D02*
X-11508623Y-12143707D01*
X-11508623Y-12143707D02*
X-11437194Y-12179421D01*
X-11437194Y-12179421D02*
X-11151480Y-12179421D01*
X-11901480Y-12536564D02*
X-11901480Y-11786564D01*
X-12401480Y-11786564D02*
X-12544337Y-11786564D01*
X-12544337Y-11786564D02*
X-12615766Y-11822278D01*
X-12615766Y-11822278D02*
X-12687194Y-11893707D01*
X-12687194Y-11893707D02*
X-12722909Y-12036564D01*
X-12722909Y-12036564D02*
X-12722909Y-12286564D01*
X-12722909Y-12286564D02*
X-12687194Y-12429421D01*
X-12687194Y-12429421D02*
X-12615766Y-12500850D01*
X-12615766Y-12500850D02*
X-12544337Y-12536564D01*
X-12544337Y-12536564D02*
X-12401480Y-12536564D01*
X-12401480Y-12536564D02*
X-12330052Y-12500850D01*
X-12330052Y-12500850D02*
X-12258623Y-12429421D01*
X-12258623Y-12429421D02*
X-12222909Y-12286564D01*
X-12222909Y-12286564D02*
X-12222909Y-12036564D01*
X-12222909Y-12036564D02*
X-12258623Y-11893707D01*
X-12258623Y-11893707D02*
X-12330052Y-11822278D01*
X-12330052Y-11822278D02*
X-12401480Y-11786564D01*
X-13437194Y-12536564D02*
X-13008623Y-12536564D01*
X-13222908Y-12536564D02*
X-13222908Y-11786564D01*
X-13222908Y-11786564D02*
X-13151480Y-11893707D01*
X-13151480Y-11893707D02*
X-13080051Y-11965135D01*
X-13080051Y-11965135D02*
X-13008623Y-12000850D01*
X-13937166Y-12500850D02*
X-14044309Y-12536564D01*
X-14044309Y-12536564D02*
X-14222880Y-12536564D01*
X-14222880Y-12536564D02*
X-14294309Y-12500850D01*
X-14294309Y-12500850D02*
X-14330023Y-12465135D01*
X-14330023Y-12465135D02*
X-14365737Y-12393707D01*
X-14365737Y-12393707D02*
X-14365737Y-12322278D01*
X-14365737Y-12322278D02*
X-14330023Y-12250850D01*
X-14330023Y-12250850D02*
X-14294309Y-12215135D01*
X-14294309Y-12215135D02*
X-14222880Y-12179421D01*
X-14222880Y-12179421D02*
X-14080023Y-12143707D01*
X-14080023Y-12143707D02*
X-14008594Y-12107992D01*
X-14008594Y-12107992D02*
X-13972880Y-12072278D01*
X-13972880Y-12072278D02*
X-13937166Y-12000850D01*
X-13937166Y-12000850D02*
X-13937166Y-11929421D01*
X-13937166Y-11929421D02*
X-13972880Y-11857992D01*
X-13972880Y-11857992D02*
X-14008594Y-11822278D01*
X-14008594Y-11822278D02*
X-14080023Y-11786564D01*
X-14080023Y-11786564D02*
X-14258594Y-11786564D01*
X-14258594Y-11786564D02*
X-14365737Y-11822278D01*
X-14687166Y-12536564D02*
X-14687166Y-11786564D01*
X-14687166Y-11786564D02*
X-14865737Y-11786564D01*
X-14865737Y-11786564D02*
X-14972880Y-11822278D01*
X-14972880Y-11822278D02*
X-15044309Y-11893707D01*
X-15044309Y-11893707D02*
X-15080023Y-11965135D01*
X-15080023Y-11965135D02*
X-15115737Y-12107992D01*
X-15115737Y-12107992D02*
X-15115737Y-12215135D01*
X-15115737Y-12215135D02*
X-15080023Y-12357992D01*
X-15080023Y-12357992D02*
X-15044309Y-12429421D01*
X-15044309Y-12429421D02*
X-14972880Y-12500850D01*
X-14972880Y-12500850D02*
X-14865737Y-12536564D01*
X-14865737Y-12536564D02*
X-14687166Y-12536564D01*
X-15401452Y-12322278D02*
X-15758595Y-12322278D01*
X-15330023Y-12536564D02*
X-15580023Y-11786564D01*
X-15580023Y-11786564D02*
X-15830023Y-12536564D01*
X-14209023Y-18165050D02*
X-14316166Y-18200764D01*
X-14316166Y-18200764D02*
X-14494737Y-18200764D01*
X-14494737Y-18200764D02*
X-14566166Y-18165050D01*
X-14566166Y-18165050D02*
X-14601880Y-18129335D01*
X-14601880Y-18129335D02*
X-14637594Y-18057907D01*
X-14637594Y-18057907D02*
X-14637594Y-17986478D01*
X-14637594Y-17986478D02*
X-14601880Y-17915050D01*
X-14601880Y-17915050D02*
X-14566166Y-17879335D01*
X-14566166Y-17879335D02*
X-14494737Y-17843621D01*
X-14494737Y-17843621D02*
X-14351880Y-17807907D01*
X-14351880Y-17807907D02*
X-14280451Y-17772192D01*
X-14280451Y-17772192D02*
X-14244737Y-17736478D01*
X-14244737Y-17736478D02*
X-14209023Y-17665050D01*
X-14209023Y-17665050D02*
X-14209023Y-17593621D01*
X-14209023Y-17593621D02*
X-14244737Y-17522192D01*
X-14244737Y-17522192D02*
X-14280451Y-17486478D01*
X-14280451Y-17486478D02*
X-14351880Y-17450764D01*
X-14351880Y-17450764D02*
X-14530451Y-17450764D01*
X-14530451Y-17450764D02*
X-14637594Y-17486478D01*
X-15387594Y-18129335D02*
X-15351880Y-18165050D01*
X-15351880Y-18165050D02*
X-15244737Y-18200764D01*
X-15244737Y-18200764D02*
X-15173309Y-18200764D01*
X-15173309Y-18200764D02*
X-15066166Y-18165050D01*
X-15066166Y-18165050D02*
X-14994737Y-18093621D01*
X-14994737Y-18093621D02*
X-14959023Y-18022192D01*
X-14959023Y-18022192D02*
X-14923309Y-17879335D01*
X-14923309Y-17879335D02*
X-14923309Y-17772192D01*
X-14923309Y-17772192D02*
X-14959023Y-17629335D01*
X-14959023Y-17629335D02*
X-14994737Y-17557907D01*
X-14994737Y-17557907D02*
X-15066166Y-17486478D01*
X-15066166Y-17486478D02*
X-15173309Y-17450764D01*
X-15173309Y-17450764D02*
X-15244737Y-17450764D01*
X-15244737Y-17450764D02*
X-15351880Y-17486478D01*
X-15351880Y-17486478D02*
X-15387594Y-17522192D01*
X-16066166Y-18200764D02*
X-15709023Y-18200764D01*
X-15709023Y-18200764D02*
X-15709023Y-17450764D01*
X-4034904Y-13453917D02*
X-4177761Y-13501536D01*
X-4177761Y-13501536D02*
X-4225380Y-13549155D01*
X-4225380Y-13549155D02*
X-4272999Y-13644393D01*
X-4272999Y-13644393D02*
X-4272999Y-13787250D01*
X-4272999Y-13787250D02*
X-4225380Y-13882488D01*
X-4225380Y-13882488D02*
X-4177761Y-13930108D01*
X-4177761Y-13930108D02*
X-4082523Y-13977727D01*
X-4082523Y-13977727D02*
X-3701571Y-13977727D01*
X-3701571Y-13977727D02*
X-3701571Y-12977727D01*
X-3701571Y-12977727D02*
X-4034904Y-12977727D01*
X-4034904Y-12977727D02*
X-4130142Y-13025346D01*
X-4130142Y-13025346D02*
X-4177761Y-13072965D01*
X-4177761Y-13072965D02*
X-4225380Y-13168203D01*
X-4225380Y-13168203D02*
X-4225380Y-13263441D01*
X-4225380Y-13263441D02*
X-4177761Y-13358679D01*
X-4177761Y-13358679D02*
X-4130142Y-13406298D01*
X-4130142Y-13406298D02*
X-4034904Y-13453917D01*
X-4034904Y-13453917D02*
X-3701571Y-13453917D01*
X-4558714Y-12977727D02*
X-5130142Y-12977727D01*
X-4844428Y-13977727D02*
X-4844428Y-12977727D01*
X-5987285Y-13977727D02*
X-5415857Y-13977727D01*
X-5701571Y-13977727D02*
X-5701571Y-12977727D01*
X-5701571Y-12977727D02*
X-5606333Y-13120584D01*
X-5606333Y-13120584D02*
X-5511095Y-13215822D01*
X-5511095Y-13215822D02*
X-5415857Y-13263441D01*
D11*
X-16981480Y-10825800D02*
X-16981480Y-11333800D01*
X-8091480Y-18572800D02*
X-8091480Y-11460800D01*
X-21426480Y-18572800D02*
X-8091480Y-18572800D01*
X-12663480Y-11333800D02*
X-12663480Y-10825800D01*
X-21426480Y-11460800D02*
X-21426480Y-18572800D01*
X-8218480Y-11460800D02*
X-21426480Y-11460800D01*
X-12663480Y-10825800D02*
X-16981480Y-10825800D01*
X-16981480Y-11206800D02*
X-12663480Y-11206800D01*
X-20232680Y-12299000D02*
G75*
G02*
X-20740680Y-12299000I-254000J0D01*
G01*
X-20740680Y-12299000D02*
G75*
G02*
X-20232680Y-12299000I254000J0D01*
G01*
D12*
X-3762680Y11174676D02*
X-3762680Y11628804D01*
X-2292680Y11174676D02*
X-2292680Y11628804D01*
X-6627800Y11174676D02*
X-6627800Y11628804D01*
X-5157800Y11174676D02*
X-5157800Y11628804D01*
X-10104000Y9118400D02*
X-9596000Y9118400D01*
X765500Y14124700D02*
X257500Y14124700D01*
X452000Y24409600D02*
X-56000Y24409600D01*
X-8639500Y18895300D02*
X-8131500Y18895300D01*
X-2905820Y27063700D02*
G75*
G02*
X-6405820Y27063700I-1750000J0D01*
G01*
X-6405820Y27063700D02*
G75*
G02*
X-2905820Y27063700I1750000J0D01*
G01*
D13*
X-9601200Y18649786D02*
X-9535241Y18649140D01*
X-9487698Y18646654D01*
X-9451600Y18641241D01*
X-9419974Y18631815D01*
X-9385848Y18617291D01*
X-9382459Y18615716D01*
X-9321242Y18579421D01*
X-9284081Y18539681D01*
X-9262043Y18481713D01*
X-9261143Y18420872D01*
X-9279709Y18363556D01*
X-9316066Y18316162D01*
X-9348437Y18293711D01*
X-9388897Y18272789D01*
X-9339474Y18245278D01*
X-9290018Y18204796D01*
X-9258538Y18151800D01*
X-9246582Y18092234D01*
X-9255697Y18032040D01*
X-9274175Y17994604D01*
X-9306699Y17959916D01*
X-9354744Y17926252D01*
X-9374446Y17915587D01*
X-9415652Y17897130D01*
X-9455335Y17885466D01*
X-9502512Y17878667D01*
X-9564946Y17874857D01*
X-9624711Y17873904D01*
X-9681531Y17875563D01*
X-9725974Y17879476D01*
X-9737507Y17881446D01*
X-9823345Y17908207D01*
X-9888185Y17947118D01*
X-9931303Y17997549D01*
X-9951974Y18058874D01*
X-9953039Y18068332D01*
X-9950412Y18106648D01*
X-9683536Y18106648D01*
X-9670974Y18068222D01*
X-9642493Y18039585D01*
X-9638415Y18037363D01*
X-9603649Y18023602D01*
X-9577136Y18026443D01*
X-9550243Y18044274D01*
X-9525846Y18077503D01*
X-9518159Y18118519D01*
X-9525240Y18160451D01*
X-9545147Y18196429D01*
X-9575937Y18219582D01*
X-9601200Y18224500D01*
X-9639012Y18213791D01*
X-9666225Y18186120D01*
X-9681510Y18148177D01*
X-9683536Y18106648D01*
X-9950412Y18106648D01*
X-9948330Y18136991D01*
X-9921567Y18193422D01*
X-9873312Y18236572D01*
X-9858950Y18244653D01*
X-9807429Y18271156D01*
X-9851346Y18294806D01*
X-9898567Y18333903D01*
X-9927190Y18388793D01*
X-9933882Y18435737D01*
X-9677180Y18435737D01*
X-9671295Y18396579D01*
X-9651647Y18364712D01*
X-9622501Y18344446D01*
X-9588120Y18340090D01*
X-9552770Y18355956D01*
X-9548226Y18359819D01*
X-9528685Y18392157D01*
X-9524117Y18433056D01*
X-9533984Y18472201D01*
X-9555406Y18497837D01*
X-9593036Y18510565D01*
X-9631478Y18505535D01*
X-9660753Y18484565D01*
X-9665035Y18477875D01*
X-9677180Y18435737D01*
X-9933882Y18435737D01*
X-9935568Y18447558D01*
X-9925345Y18510001D01*
X-9893630Y18561502D01*
X-9839116Y18603914D01*
X-9817200Y18615596D01*
X-9784207Y18630720D01*
X-9754372Y18640625D01*
X-9720890Y18646386D01*
X-9676958Y18649082D01*
X-9615771Y18649788D01*
X-9601200Y18649786D01*
G36*
X-9601200Y18649786D02*
G01*
X-9535241Y18649140D01*
X-9487698Y18646654D01*
X-9451600Y18641241D01*
X-9419974Y18631815D01*
X-9385848Y18617291D01*
X-9382459Y18615716D01*
X-9321242Y18579421D01*
X-9284081Y18539681D01*
X-9262043Y18481713D01*
X-9261143Y18420872D01*
X-9279709Y18363556D01*
X-9316066Y18316162D01*
X-9348437Y18293711D01*
X-9388897Y18272789D01*
X-9339474Y18245278D01*
X-9290018Y18204796D01*
X-9258538Y18151800D01*
X-9246582Y18092234D01*
X-9255697Y18032040D01*
X-9274175Y17994604D01*
X-9306699Y17959916D01*
X-9354744Y17926252D01*
X-9374446Y17915587D01*
X-9415652Y17897130D01*
X-9455335Y17885466D01*
X-9502512Y17878667D01*
X-9564946Y17874857D01*
X-9624711Y17873904D01*
X-9681531Y17875563D01*
X-9725974Y17879476D01*
X-9737507Y17881446D01*
X-9823345Y17908207D01*
X-9888185Y17947118D01*
X-9931303Y17997549D01*
X-9951974Y18058874D01*
X-9953039Y18068332D01*
X-9950412Y18106648D01*
X-9683536Y18106648D01*
X-9670974Y18068222D01*
X-9642493Y18039585D01*
X-9638415Y18037363D01*
X-9603649Y18023602D01*
X-9577136Y18026443D01*
X-9550243Y18044274D01*
X-9525846Y18077503D01*
X-9518159Y18118519D01*
X-9525240Y18160451D01*
X-9545147Y18196429D01*
X-9575937Y18219582D01*
X-9601200Y18224500D01*
X-9639012Y18213791D01*
X-9666225Y18186120D01*
X-9681510Y18148177D01*
X-9683536Y18106648D01*
X-9950412Y18106648D01*
X-9948330Y18136991D01*
X-9921567Y18193422D01*
X-9873312Y18236572D01*
X-9858950Y18244653D01*
X-9807429Y18271156D01*
X-9851346Y18294806D01*
X-9898567Y18333903D01*
X-9927190Y18388793D01*
X-9933882Y18435737D01*
X-9677180Y18435737D01*
X-9671295Y18396579D01*
X-9651647Y18364712D01*
X-9622501Y18344446D01*
X-9588120Y18340090D01*
X-9552770Y18355956D01*
X-9548226Y18359819D01*
X-9528685Y18392157D01*
X-9524117Y18433056D01*
X-9533984Y18472201D01*
X-9555406Y18497837D01*
X-9593036Y18510565D01*
X-9631478Y18505535D01*
X-9660753Y18484565D01*
X-9665035Y18477875D01*
X-9677180Y18435737D01*
X-9933882Y18435737D01*
X-9935568Y18447558D01*
X-9925345Y18510001D01*
X-9893630Y18561502D01*
X-9839116Y18603914D01*
X-9817200Y18615596D01*
X-9784207Y18630720D01*
X-9754372Y18640625D01*
X-9720890Y18646386D01*
X-9676958Y18649082D01*
X-9615771Y18649788D01*
X-9601200Y18649786D01*
G37*
X-1723458Y18637999D02*
X-1619299Y18617395D01*
X-1533992Y18579774D01*
X-1467524Y18525126D01*
X-1419883Y18453441D01*
X-1391058Y18364709D01*
X-1381037Y18258920D01*
X-1381063Y18247932D01*
X-1392459Y18146867D01*
X-1423866Y18059719D01*
X-1474369Y17987920D01*
X-1543053Y17932902D01*
X-1599683Y17905804D01*
X-1670514Y17886782D01*
X-1754763Y17875686D01*
X-1842355Y17872990D01*
X-1923215Y17879171D01*
X-1968193Y17888398D01*
X-2063286Y17924748D01*
X-2136856Y17974344D01*
X-2185545Y18031500D01*
X-2220355Y18096040D01*
X-2240013Y18160062D01*
X-2247505Y18234382D01*
X-2247820Y18256476D01*
X-1978952Y18256476D01*
X-1976046Y18212509D01*
X-1956752Y18152285D01*
X-1919910Y18107672D01*
X-1869375Y18080596D01*
X-1809000Y18072988D01*
X-1742639Y18086777D01*
X-1732686Y18090693D01*
X-1690270Y18121451D01*
X-1663284Y18171981D01*
X-1651597Y18242557D01*
X-1651048Y18265368D01*
X-1660817Y18335411D01*
X-1688967Y18388531D01*
X-1733928Y18423335D01*
X-1794130Y18438432D01*
X-1844230Y18436565D01*
X-1899889Y18417499D01*
X-1942151Y18378993D01*
X-1969134Y18324251D01*
X-1978952Y18256476D01*
X-2247820Y18256476D01*
X-2247830Y18257120D01*
X-2237624Y18360518D01*
X-2206889Y18449128D01*
X-2155752Y18522732D01*
X-2084339Y18581111D01*
X-2047708Y18601342D01*
X-2008567Y18618682D01*
X-1971264Y18629921D01*
X-1927591Y18636700D01*
X-1869339Y18640662D01*
X-1846480Y18641596D01*
X-1723458Y18637999D01*
G36*
X-1723458Y18637999D02*
G01*
X-1619299Y18617395D01*
X-1533992Y18579774D01*
X-1467524Y18525126D01*
X-1419883Y18453441D01*
X-1391058Y18364709D01*
X-1381037Y18258920D01*
X-1381063Y18247932D01*
X-1392459Y18146867D01*
X-1423866Y18059719D01*
X-1474369Y17987920D01*
X-1543053Y17932902D01*
X-1599683Y17905804D01*
X-1670514Y17886782D01*
X-1754763Y17875686D01*
X-1842355Y17872990D01*
X-1923215Y17879171D01*
X-1968193Y17888398D01*
X-2063286Y17924748D01*
X-2136856Y17974344D01*
X-2185545Y18031500D01*
X-2220355Y18096040D01*
X-2240013Y18160062D01*
X-2247505Y18234382D01*
X-2247820Y18256476D01*
X-1978952Y18256476D01*
X-1976046Y18212509D01*
X-1956752Y18152285D01*
X-1919910Y18107672D01*
X-1869375Y18080596D01*
X-1809000Y18072988D01*
X-1742639Y18086777D01*
X-1732686Y18090693D01*
X-1690270Y18121451D01*
X-1663284Y18171981D01*
X-1651597Y18242557D01*
X-1651048Y18265368D01*
X-1660817Y18335411D01*
X-1688967Y18388531D01*
X-1733928Y18423335D01*
X-1794130Y18438432D01*
X-1844230Y18436565D01*
X-1899889Y18417499D01*
X-1942151Y18378993D01*
X-1969134Y18324251D01*
X-1978952Y18256476D01*
X-2247820Y18256476D01*
X-2247830Y18257120D01*
X-2237624Y18360518D01*
X-2206889Y18449128D01*
X-2155752Y18522732D01*
X-2084339Y18581111D01*
X-2047708Y18601342D01*
X-2008567Y18618682D01*
X-1971264Y18629921D01*
X-1927591Y18636700D01*
X-1869339Y18640662D01*
X-1846480Y18641596D01*
X-1723458Y18637999D01*
G37*
X-10394950Y18642996D02*
X-10188575Y18413374D01*
X-9982200Y18183751D01*
X-9982200Y18034630D01*
X-10394950Y18027650D01*
X-10402568Y17881600D01*
X-10577833Y17881600D01*
X-10581642Y17954625D01*
X-10585450Y18027650D01*
X-10718800Y18035328D01*
X-10718800Y18186400D01*
X-10579100Y18186400D01*
X-10579100Y18287449D01*
X-10401056Y18287449D01*
X-10399864Y18244751D01*
X-10397200Y18211633D01*
X-10393031Y18195084D01*
X-10392834Y18194867D01*
X-10376846Y18190763D01*
X-10342474Y18187755D01*
X-10296731Y18186421D01*
X-10290175Y18186400D01*
X-10195982Y18186400D01*
X-10219266Y18217112D01*
X-10249005Y18254925D01*
X-10283673Y18296892D01*
X-10319228Y18338392D01*
X-10351629Y18374807D01*
X-10376833Y18401516D01*
X-10390797Y18413902D01*
X-10391775Y18414252D01*
X-10396135Y18403128D01*
X-10399158Y18373626D01*
X-10400809Y18332737D01*
X-10401056Y18287449D01*
X-10579100Y18287449D01*
X-10579100Y18643600D01*
X-10394950Y18642996D01*
G36*
X-10394950Y18642996D02*
G01*
X-10188575Y18413374D01*
X-9982200Y18183751D01*
X-9982200Y18034630D01*
X-10394950Y18027650D01*
X-10402568Y17881600D01*
X-10577833Y17881600D01*
X-10581642Y17954625D01*
X-10585450Y18027650D01*
X-10718800Y18035328D01*
X-10718800Y18186400D01*
X-10579100Y18186400D01*
X-10579100Y18287449D01*
X-10401056Y18287449D01*
X-10399864Y18244751D01*
X-10397200Y18211633D01*
X-10393031Y18195084D01*
X-10392834Y18194867D01*
X-10376846Y18190763D01*
X-10342474Y18187755D01*
X-10296731Y18186421D01*
X-10290175Y18186400D01*
X-10195982Y18186400D01*
X-10219266Y18217112D01*
X-10249005Y18254925D01*
X-10283673Y18296892D01*
X-10319228Y18338392D01*
X-10351629Y18374807D01*
X-10376833Y18401516D01*
X-10390797Y18413902D01*
X-10391775Y18414252D01*
X-10396135Y18403128D01*
X-10399158Y18373626D01*
X-10400809Y18332737D01*
X-10401056Y18287449D01*
X-10579100Y18287449D01*
X-10579100Y18643600D01*
X-10394950Y18642996D01*
G37*
X-8559789Y18643011D02*
X-8481515Y18640751D01*
X-8422025Y18636085D01*
X-8378018Y18628276D01*
X-8346194Y18616589D01*
X-8323255Y18600287D01*
X-8305898Y18578635D01*
X-8296658Y18562513D01*
X-8279630Y18507037D01*
X-8277894Y18442205D01*
X-8291317Y18378837D01*
X-8299174Y18359832D01*
X-8318414Y18328382D01*
X-8349867Y18286057D01*
X-8387984Y18240138D01*
X-8404453Y18221740D01*
X-8443501Y18177640D01*
X-8465871Y18148044D01*
X-8473415Y18130082D01*
X-8469115Y18121528D01*
X-8451075Y18117827D01*
X-8412321Y18114638D01*
X-8357539Y18112191D01*
X-8291415Y18110719D01*
X-8244336Y18110395D01*
X-8167169Y18110477D01*
X-8111339Y18111223D01*
X-8072782Y18113131D01*
X-8047436Y18116699D01*
X-8031236Y18122427D01*
X-8020121Y18130812D01*
X-8012984Y18138775D01*
X-7995701Y18161734D01*
X-7988723Y18175150D01*
X-7999213Y18183809D01*
X-8026359Y18197043D01*
X-8044859Y18204549D01*
X-8108921Y18240885D01*
X-8155319Y18291462D01*
X-8182906Y18351711D01*
X-8186586Y18383250D01*
X-7962900Y18383250D01*
X-7959791Y18352007D01*
X-7947640Y18331580D01*
X-7922211Y18319793D01*
X-7879269Y18314470D01*
X-7827011Y18313400D01*
X-7721600Y18313400D01*
X-7721600Y18453100D01*
X-7827011Y18453100D01*
X-7887794Y18451502D01*
X-7927533Y18445256D01*
X-7950464Y18432185D01*
X-7960820Y18410113D01*
X-7962900Y18383250D01*
X-8186586Y18383250D01*
X-8190532Y18417064D01*
X-8177049Y18482951D01*
X-8141311Y18544805D01*
X-8132847Y18554692D01*
X-8114879Y18574098D01*
X-8097458Y18590452D01*
X-8078346Y18604016D01*
X-8055304Y18615050D01*
X-8026092Y18623816D01*
X-7988473Y18630575D01*
X-7940206Y18635588D01*
X-7879053Y18639114D01*
X-7802775Y18641417D01*
X-7709133Y18642756D01*
X-7595888Y18643392D01*
X-7460801Y18643587D01*
X-7370088Y18643600D01*
X-6769100Y18643600D01*
X-6769100Y18415000D01*
X-7010400Y18415000D01*
X-7010400Y17881600D01*
X-7251700Y17881600D01*
X-7251700Y18415000D01*
X-7442200Y18415000D01*
X-7442200Y17881600D01*
X-7721600Y17881600D01*
X-7721600Y18128774D01*
X-7845653Y18005187D01*
X-7969705Y17881600D01*
X-8312378Y17881879D01*
X-8416263Y17882108D01*
X-8498036Y17882740D01*
X-8560981Y17883977D01*
X-8608386Y17886023D01*
X-8643535Y17889080D01*
X-8669716Y17893350D01*
X-8690214Y17899036D01*
X-8708183Y17906281D01*
X-8759214Y17941137D01*
X-8789881Y17990614D01*
X-8800786Y18055727D01*
X-8800822Y18061945D01*
X-8791090Y18127920D01*
X-8761517Y18194817D01*
X-8710519Y18265680D01*
X-8673097Y18307098D01*
X-8639354Y18344578D01*
X-8615030Y18376168D01*
X-8603701Y18396997D01*
X-8603756Y18401500D01*
X-8620158Y18407587D01*
X-8658913Y18412011D01*
X-8717013Y18414518D01*
X-8763750Y18415000D01*
X-8915400Y18415000D01*
X-8915400Y18643600D01*
X-8660145Y18643600D01*
X-8559789Y18643011D01*
G36*
X-8559789Y18643011D02*
G01*
X-8481515Y18640751D01*
X-8422025Y18636085D01*
X-8378018Y18628276D01*
X-8346194Y18616589D01*
X-8323255Y18600287D01*
X-8305898Y18578635D01*
X-8296658Y18562513D01*
X-8279630Y18507037D01*
X-8277894Y18442205D01*
X-8291317Y18378837D01*
X-8299174Y18359832D01*
X-8318414Y18328382D01*
X-8349867Y18286057D01*
X-8387984Y18240138D01*
X-8404453Y18221740D01*
X-8443501Y18177640D01*
X-8465871Y18148044D01*
X-8473415Y18130082D01*
X-8469115Y18121528D01*
X-8451075Y18117827D01*
X-8412321Y18114638D01*
X-8357539Y18112191D01*
X-8291415Y18110719D01*
X-8244336Y18110395D01*
X-8167169Y18110477D01*
X-8111339Y18111223D01*
X-8072782Y18113131D01*
X-8047436Y18116699D01*
X-8031236Y18122427D01*
X-8020121Y18130812D01*
X-8012984Y18138775D01*
X-7995701Y18161734D01*
X-7988723Y18175150D01*
X-7999213Y18183809D01*
X-8026359Y18197043D01*
X-8044859Y18204549D01*
X-8108921Y18240885D01*
X-8155319Y18291462D01*
X-8182906Y18351711D01*
X-8186586Y18383250D01*
X-7962900Y18383250D01*
X-7959791Y18352007D01*
X-7947640Y18331580D01*
X-7922211Y18319793D01*
X-7879269Y18314470D01*
X-7827011Y18313400D01*
X-7721600Y18313400D01*
X-7721600Y18453100D01*
X-7827011Y18453100D01*
X-7887794Y18451502D01*
X-7927533Y18445256D01*
X-7950464Y18432185D01*
X-7960820Y18410113D01*
X-7962900Y18383250D01*
X-8186586Y18383250D01*
X-8190532Y18417064D01*
X-8177049Y18482951D01*
X-8141311Y18544805D01*
X-8132847Y18554692D01*
X-8114879Y18574098D01*
X-8097458Y18590452D01*
X-8078346Y18604016D01*
X-8055304Y18615050D01*
X-8026092Y18623816D01*
X-7988473Y18630575D01*
X-7940206Y18635588D01*
X-7879053Y18639114D01*
X-7802775Y18641417D01*
X-7709133Y18642756D01*
X-7595888Y18643392D01*
X-7460801Y18643587D01*
X-7370088Y18643600D01*
X-6769100Y18643600D01*
X-6769100Y18415000D01*
X-7010400Y18415000D01*
X-7010400Y17881600D01*
X-7251700Y17881600D01*
X-7251700Y18415000D01*
X-7442200Y18415000D01*
X-7442200Y17881600D01*
X-7721600Y17881600D01*
X-7721600Y18128774D01*
X-7845653Y18005187D01*
X-7969705Y17881600D01*
X-8312378Y17881879D01*
X-8416263Y17882108D01*
X-8498036Y17882740D01*
X-8560981Y17883977D01*
X-8608386Y17886023D01*
X-8643535Y17889080D01*
X-8669716Y17893350D01*
X-8690214Y17899036D01*
X-8708183Y17906281D01*
X-8759214Y17941137D01*
X-8789881Y17990614D01*
X-8800786Y18055727D01*
X-8800822Y18061945D01*
X-8791090Y18127920D01*
X-8761517Y18194817D01*
X-8710519Y18265680D01*
X-8673097Y18307098D01*
X-8639354Y18344578D01*
X-8615030Y18376168D01*
X-8603701Y18396997D01*
X-8603756Y18401500D01*
X-8620158Y18407587D01*
X-8658913Y18412011D01*
X-8717013Y18414518D01*
X-8763750Y18415000D01*
X-8915400Y18415000D01*
X-8915400Y18643600D01*
X-8660145Y18643600D01*
X-8559789Y18643011D01*
G37*
X-6032500Y17881600D02*
X-6261100Y17881600D01*
X-6261100Y18097500D01*
X-6032500Y18097500D01*
X-6032500Y17881600D01*
G36*
X-6032500Y17881600D02*
G01*
X-6261100Y17881600D01*
X-6261100Y18097500D01*
X-6032500Y18097500D01*
X-6032500Y17881600D01*
G37*
X-5638800Y18529300D02*
X-5607279Y18482985D01*
X-5581171Y18445682D01*
X-5563539Y18421701D01*
X-5557557Y18415000D01*
X-5549266Y18424941D01*
X-5530222Y18451852D01*
X-5503450Y18491365D01*
X-5478510Y18529101D01*
X-5403850Y18643202D01*
X-5253761Y18643401D01*
X-5103671Y18643600D01*
X-5127884Y18608675D01*
X-5142565Y18587468D01*
X-5168979Y18549279D01*
X-5204419Y18498023D01*
X-5246179Y18437616D01*
X-5291552Y18371971D01*
X-5293849Y18368647D01*
X-5435600Y18163543D01*
X-5435600Y17881600D01*
X-5689600Y17881600D01*
X-5689600Y18169605D01*
X-5848350Y18399293D01*
X-5894588Y18466510D01*
X-5935524Y18526629D01*
X-5969082Y18576550D01*
X-5993185Y18613173D01*
X-6005757Y18633397D01*
X-6007100Y18636291D01*
X-5995238Y18639172D01*
X-5962996Y18641518D01*
X-5915393Y18643077D01*
X-5861378Y18643600D01*
X-5715656Y18643600D01*
X-5638800Y18529300D01*
G36*
X-5638800Y18529300D02*
G01*
X-5607279Y18482985D01*
X-5581171Y18445682D01*
X-5563539Y18421701D01*
X-5557557Y18415000D01*
X-5549266Y18424941D01*
X-5530222Y18451852D01*
X-5503450Y18491365D01*
X-5478510Y18529101D01*
X-5403850Y18643202D01*
X-5253761Y18643401D01*
X-5103671Y18643600D01*
X-5127884Y18608675D01*
X-5142565Y18587468D01*
X-5168979Y18549279D01*
X-5204419Y18498023D01*
X-5246179Y18437616D01*
X-5291552Y18371971D01*
X-5293849Y18368647D01*
X-5435600Y18163543D01*
X-5435600Y17881600D01*
X-5689600Y17881600D01*
X-5689600Y18169605D01*
X-5848350Y18399293D01*
X-5894588Y18466510D01*
X-5935524Y18526629D01*
X-5969082Y18576550D01*
X-5993185Y18613173D01*
X-6005757Y18633397D01*
X-6007100Y18636291D01*
X-5995238Y18639172D01*
X-5962996Y18641518D01*
X-5915393Y18643077D01*
X-5861378Y18643600D01*
X-5715656Y18643600D01*
X-5638800Y18529300D01*
G37*
X-4191000Y18415000D02*
X-4343400Y18415000D01*
X-4343400Y17881600D01*
X-4645025Y17883074D01*
X-4731318Y17883713D01*
X-4810146Y17884709D01*
X-4877619Y17885979D01*
X-4929845Y17887441D01*
X-4962933Y17889013D01*
X-4972050Y17889990D01*
X-5050665Y17913998D01*
X-5107358Y17948502D01*
X-5144043Y17995216D01*
X-5162633Y18055855D01*
X-5163413Y18061494D01*
X-5161348Y18111449D01*
X-4889500Y18111449D01*
X-4878689Y18083427D01*
X-4851634Y18056744D01*
X-4826000Y18043010D01*
X-4804665Y18039521D01*
X-4765716Y18036712D01*
X-4716941Y18035113D01*
X-4708525Y18035003D01*
X-4610100Y18034000D01*
X-4610100Y18173700D01*
X-4721575Y18173700D01*
X-4795998Y18170378D01*
X-4847602Y18159976D01*
X-4878141Y18141846D01*
X-4889368Y18115337D01*
X-4889500Y18111449D01*
X-5161348Y18111449D01*
X-5160821Y18124189D01*
X-5135331Y18177337D01*
X-5086322Y18221974D01*
X-5057155Y18239181D01*
X-4992773Y18272912D01*
X-5030294Y18288453D01*
X-5082066Y18321682D01*
X-5115506Y18367691D01*
X-5127152Y18409277D01*
X-4836615Y18409277D01*
X-4834638Y18377654D01*
X-4818143Y18356509D01*
X-4784051Y18344219D01*
X-4729283Y18339163D01*
X-4702923Y18338800D01*
X-4610100Y18338800D01*
X-4610100Y18454089D01*
X-4721225Y18450420D01*
X-4832350Y18446750D01*
X-4836615Y18409277D01*
X-5127152Y18409277D01*
X-5130632Y18421699D01*
X-5127460Y18478922D01*
X-5106007Y18534577D01*
X-5066290Y18583881D01*
X-5029157Y18611164D01*
X-5015409Y18618494D01*
X-4999887Y18624358D01*
X-4979659Y18628957D01*
X-4951795Y18632491D01*
X-4913364Y18635159D01*
X-4861435Y18637160D01*
X-4793078Y18638696D01*
X-4705361Y18639965D01*
X-4595353Y18641167D01*
X-4587875Y18641242D01*
X-4191000Y18645234D01*
X-4191000Y18415000D01*
G36*
X-4191000Y18415000D02*
G01*
X-4343400Y18415000D01*
X-4343400Y17881600D01*
X-4645025Y17883074D01*
X-4731318Y17883713D01*
X-4810146Y17884709D01*
X-4877619Y17885979D01*
X-4929845Y17887441D01*
X-4962933Y17889013D01*
X-4972050Y17889990D01*
X-5050665Y17913998D01*
X-5107358Y17948502D01*
X-5144043Y17995216D01*
X-5162633Y18055855D01*
X-5163413Y18061494D01*
X-5161348Y18111449D01*
X-4889500Y18111449D01*
X-4878689Y18083427D01*
X-4851634Y18056744D01*
X-4826000Y18043010D01*
X-4804665Y18039521D01*
X-4765716Y18036712D01*
X-4716941Y18035113D01*
X-4708525Y18035003D01*
X-4610100Y18034000D01*
X-4610100Y18173700D01*
X-4721575Y18173700D01*
X-4795998Y18170378D01*
X-4847602Y18159976D01*
X-4878141Y18141846D01*
X-4889368Y18115337D01*
X-4889500Y18111449D01*
X-5161348Y18111449D01*
X-5160821Y18124189D01*
X-5135331Y18177337D01*
X-5086322Y18221974D01*
X-5057155Y18239181D01*
X-4992773Y18272912D01*
X-5030294Y18288453D01*
X-5082066Y18321682D01*
X-5115506Y18367691D01*
X-5127152Y18409277D01*
X-4836615Y18409277D01*
X-4834638Y18377654D01*
X-4818143Y18356509D01*
X-4784051Y18344219D01*
X-4729283Y18339163D01*
X-4702923Y18338800D01*
X-4610100Y18338800D01*
X-4610100Y18454089D01*
X-4721225Y18450420D01*
X-4832350Y18446750D01*
X-4836615Y18409277D01*
X-5127152Y18409277D01*
X-5130632Y18421699D01*
X-5127460Y18478922D01*
X-5106007Y18534577D01*
X-5066290Y18583881D01*
X-5029157Y18611164D01*
X-5015409Y18618494D01*
X-4999887Y18624358D01*
X-4979659Y18628957D01*
X-4951795Y18632491D01*
X-4913364Y18635159D01*
X-4861435Y18637160D01*
X-4793078Y18638696D01*
X-4705361Y18639965D01*
X-4595353Y18641167D01*
X-4587875Y18641242D01*
X-4191000Y18645234D01*
X-4191000Y18415000D01*
G37*
X-3098800Y18110200D02*
X-2985365Y18110200D01*
X-2931016Y18110601D01*
X-2896005Y18112835D01*
X-2874274Y18118453D01*
X-2859762Y18129004D01*
X-2846669Y18145676D01*
X-2821408Y18181152D01*
X-2882921Y18202999D01*
X-2947778Y18238227D01*
X-2994988Y18289473D01*
X-3022255Y18352771D01*
X-3024725Y18387858D01*
X-2806700Y18387858D01*
X-2803430Y18354304D01*
X-2790799Y18332443D01*
X-2764579Y18319920D01*
X-2720541Y18314384D01*
X-2672904Y18313400D01*
X-2565400Y18313400D01*
X-2565400Y18453100D01*
X-2666093Y18453100D01*
X-2730326Y18450284D01*
X-2772943Y18440824D01*
X-2797208Y18423207D01*
X-2806382Y18395921D01*
X-2806700Y18387858D01*
X-3024725Y18387858D01*
X-3027282Y18424154D01*
X-3024072Y18446750D01*
X-3007659Y18505836D01*
X-2981494Y18549402D01*
X-2943055Y18584687D01*
X-2914921Y18603404D01*
X-2883899Y18617782D01*
X-2846314Y18628362D01*
X-2798492Y18635684D01*
X-2736756Y18640291D01*
X-2657433Y18642722D01*
X-2556847Y18643518D01*
X-2543175Y18643530D01*
X-2286000Y18643600D01*
X-2286000Y17881600D01*
X-2565400Y17881600D01*
X-2566035Y18005425D01*
X-2566669Y18129250D01*
X-2801505Y17881600D01*
X-3351812Y17881600D01*
X-3359150Y18101938D01*
X-3451862Y17991769D01*
X-3544573Y17881600D01*
X-3848100Y17881600D01*
X-3848100Y18110200D01*
X-3613150Y18110408D01*
X-3551853Y18187278D01*
X-3490555Y18264147D01*
X-3601659Y18412599D01*
X-3644132Y18469333D01*
X-3683783Y18522265D01*
X-3716855Y18566385D01*
X-3739594Y18596682D01*
X-3743839Y18602325D01*
X-3774915Y18643600D01*
X-3649583Y18643423D01*
X-3524250Y18643246D01*
X-3438525Y18520081D01*
X-3352800Y18396917D01*
X-3352800Y18643600D01*
X-3098800Y18643600D01*
X-3098800Y18110200D01*
G36*
X-3098800Y18110200D02*
G01*
X-2985365Y18110200D01*
X-2931016Y18110601D01*
X-2896005Y18112835D01*
X-2874274Y18118453D01*
X-2859762Y18129004D01*
X-2846669Y18145676D01*
X-2821408Y18181152D01*
X-2882921Y18202999D01*
X-2947778Y18238227D01*
X-2994988Y18289473D01*
X-3022255Y18352771D01*
X-3024725Y18387858D01*
X-2806700Y18387858D01*
X-2803430Y18354304D01*
X-2790799Y18332443D01*
X-2764579Y18319920D01*
X-2720541Y18314384D01*
X-2672904Y18313400D01*
X-2565400Y18313400D01*
X-2565400Y18453100D01*
X-2666093Y18453100D01*
X-2730326Y18450284D01*
X-2772943Y18440824D01*
X-2797208Y18423207D01*
X-2806382Y18395921D01*
X-2806700Y18387858D01*
X-3024725Y18387858D01*
X-3027282Y18424154D01*
X-3024072Y18446750D01*
X-3007659Y18505836D01*
X-2981494Y18549402D01*
X-2943055Y18584687D01*
X-2914921Y18603404D01*
X-2883899Y18617782D01*
X-2846314Y18628362D01*
X-2798492Y18635684D01*
X-2736756Y18640291D01*
X-2657433Y18642722D01*
X-2556847Y18643518D01*
X-2543175Y18643530D01*
X-2286000Y18643600D01*
X-2286000Y17881600D01*
X-2565400Y17881600D01*
X-2566035Y18005425D01*
X-2566669Y18129250D01*
X-2801505Y17881600D01*
X-3351812Y17881600D01*
X-3359150Y18101938D01*
X-3451862Y17991769D01*
X-3544573Y17881600D01*
X-3848100Y17881600D01*
X-3848100Y18110200D01*
X-3613150Y18110408D01*
X-3551853Y18187278D01*
X-3490555Y18264147D01*
X-3601659Y18412599D01*
X-3644132Y18469333D01*
X-3683783Y18522265D01*
X-3716855Y18566385D01*
X-3739594Y18596682D01*
X-3743839Y18602325D01*
X-3774915Y18643600D01*
X-3649583Y18643423D01*
X-3524250Y18643246D01*
X-3438525Y18520081D01*
X-3352800Y18396917D01*
X-3352800Y18643600D01*
X-3098800Y18643600D01*
X-3098800Y18110200D01*
G37*
X-748466Y18485493D02*
X-732055Y18427193D01*
X-717321Y18379952D01*
X-705695Y18348002D01*
X-698608Y18335574D01*
X-697850Y18335816D01*
X-691188Y18350923D01*
X-678796Y18385278D01*
X-662418Y18433850D01*
X-643796Y18491611D01*
X-642924Y18494375D01*
X-595885Y18643600D01*
X304800Y18643600D01*
X304800Y18415000D01*
X63500Y18415000D01*
X63500Y17881600D01*
X-190500Y17881600D01*
X-190500Y18415000D01*
X-417689Y18415000D01*
X-461839Y18272125D01*
X-484296Y18199231D01*
X-508696Y18119674D01*
X-531389Y18045375D01*
X-542567Y18008600D01*
X-579146Y17887950D01*
X-830445Y17887950D01*
X-869576Y18045197D01*
X-908708Y18202444D01*
X-929762Y18134097D01*
X-944588Y18085553D01*
X-962541Y18026192D01*
X-978295Y17973675D01*
X-1005774Y17881600D01*
X-1254132Y17881600D01*
X-1444702Y18643600D01*
X-1196350Y18643600D01*
X-1176219Y18551525D01*
X-1163546Y18493248D01*
X-1150574Y18433104D01*
X-1141279Y18389600D01*
X-1126468Y18319750D01*
X-1073376Y18478500D01*
X-1020283Y18637250D01*
X-905738Y18640877D01*
X-791194Y18644503D01*
X-748466Y18485493D01*
G36*
X-748466Y18485493D02*
G01*
X-732055Y18427193D01*
X-717321Y18379952D01*
X-705695Y18348002D01*
X-698608Y18335574D01*
X-697850Y18335816D01*
X-691188Y18350923D01*
X-678796Y18385278D01*
X-662418Y18433850D01*
X-643796Y18491611D01*
X-642924Y18494375D01*
X-595885Y18643600D01*
X304800Y18643600D01*
X304800Y18415000D01*
X63500Y18415000D01*
X63500Y17881600D01*
X-190500Y17881600D01*
X-190500Y18415000D01*
X-417689Y18415000D01*
X-461839Y18272125D01*
X-484296Y18199231D01*
X-508696Y18119674D01*
X-531389Y18045375D01*
X-542567Y18008600D01*
X-579146Y17887950D01*
X-830445Y17887950D01*
X-869576Y18045197D01*
X-908708Y18202444D01*
X-929762Y18134097D01*
X-944588Y18085553D01*
X-962541Y18026192D01*
X-978295Y17973675D01*
X-1005774Y17881600D01*
X-1254132Y17881600D01*
X-1444702Y18643600D01*
X-1196350Y18643600D01*
X-1176219Y18551525D01*
X-1163546Y18493248D01*
X-1150574Y18433104D01*
X-1141279Y18389600D01*
X-1126468Y18319750D01*
X-1073376Y18478500D01*
X-1020283Y18637250D01*
X-905738Y18640877D01*
X-791194Y18644503D01*
X-748466Y18485493D01*
G37*
X1082475Y18285697D02*
X1085850Y17926050D01*
X1172204Y18183202D01*
X1422400Y18183202D01*
X1434094Y18178785D01*
X1465168Y18175462D01*
X1509605Y18173794D01*
X1523794Y18173700D01*
X1625189Y18173700D01*
X1574604Y18315508D01*
X1554476Y18371207D01*
X1537256Y18417511D01*
X1524793Y18449535D01*
X1518975Y18462358D01*
X1513619Y18453003D01*
X1502441Y18425116D01*
X1487395Y18384342D01*
X1470436Y18336330D01*
X1453517Y18286728D01*
X1438591Y18241182D01*
X1427613Y18205339D01*
X1422536Y18184849D01*
X1422400Y18183202D01*
X1172204Y18183202D01*
X1326810Y18643600D01*
X1968500Y18643600D01*
X1968500Y18415000D01*
X1879600Y18415000D01*
X1828599Y18413408D01*
X1799930Y18408277D01*
X1790706Y18399082D01*
X1790700Y18398759D01*
X1794577Y18382250D01*
X1805402Y18345560D01*
X1821958Y18292559D01*
X1843031Y18227121D01*
X1867407Y18153118D01*
X1873250Y18135600D01*
X1898081Y18061160D01*
X1919923Y17995371D01*
X1937577Y17941859D01*
X1949850Y17904255D01*
X1955544Y17886185D01*
X1955800Y17885142D01*
X1943961Y17883708D01*
X1911893Y17882552D01*
X1864764Y17881809D01*
X1818419Y17881600D01*
X1681038Y17881600D01*
X1637002Y18021300D01*
X1413101Y18021300D01*
X1362449Y17887950D01*
X1087624Y17884528D01*
X812800Y17881105D01*
X812800Y18002003D01*
X812234Y18053906D01*
X810716Y18094655D01*
X808507Y18118739D01*
X807001Y18122900D01*
X796524Y18114289D01*
X771928Y18090712D01*
X736655Y18055558D01*
X694145Y18012216D01*
X684484Y18002250D01*
X567767Y17881600D01*
X266700Y17881600D01*
X266700Y18110200D01*
X378786Y18110200D01*
X433594Y18110791D01*
X469418Y18113518D01*
X492664Y18119812D01*
X509738Y18131104D01*
X520652Y18141900D01*
X539117Y18163960D01*
X545513Y18176669D01*
X545091Y18177327D01*
X531526Y18184184D01*
X501902Y18198101D01*
X472053Y18211777D01*
X410765Y18247859D01*
X371204Y18292638D01*
X350041Y18350656D01*
X345734Y18382353D01*
X572004Y18382353D01*
X574061Y18349072D01*
X582325Y18325922D01*
X587375Y18321811D01*
X606863Y18318716D01*
X644575Y18316167D01*
X693335Y18314604D01*
X708025Y18314403D01*
X812800Y18313400D01*
X812800Y18453100D01*
X707389Y18453100D01*
X648517Y18451183D01*
X606775Y18445783D01*
X586739Y18437861D01*
X576211Y18415403D01*
X572004Y18382353D01*
X345734Y18382353D01*
X345444Y18384486D01*
X350167Y18462032D01*
X377403Y18528695D01*
X426256Y18582697D01*
X455244Y18602505D01*
X474967Y18613780D01*
X493212Y18622356D01*
X513742Y18628661D01*
X540323Y18633123D01*
X576716Y18636170D01*
X626688Y18638228D01*
X694001Y18639726D01*
X782420Y18641091D01*
X796725Y18641297D01*
X1079101Y18645343D01*
X1082475Y18285697D01*
G36*
X1082475Y18285697D02*
G01*
X1085850Y17926050D01*
X1172204Y18183202D01*
X1422400Y18183202D01*
X1434094Y18178785D01*
X1465168Y18175462D01*
X1509605Y18173794D01*
X1523794Y18173700D01*
X1625189Y18173700D01*
X1574604Y18315508D01*
X1554476Y18371207D01*
X1537256Y18417511D01*
X1524793Y18449535D01*
X1518975Y18462358D01*
X1513619Y18453003D01*
X1502441Y18425116D01*
X1487395Y18384342D01*
X1470436Y18336330D01*
X1453517Y18286728D01*
X1438591Y18241182D01*
X1427613Y18205339D01*
X1422536Y18184849D01*
X1422400Y18183202D01*
X1172204Y18183202D01*
X1326810Y18643600D01*
X1968500Y18643600D01*
X1968500Y18415000D01*
X1879600Y18415000D01*
X1828599Y18413408D01*
X1799930Y18408277D01*
X1790706Y18399082D01*
X1790700Y18398759D01*
X1794577Y18382250D01*
X1805402Y18345560D01*
X1821958Y18292559D01*
X1843031Y18227121D01*
X1867407Y18153118D01*
X1873250Y18135600D01*
X1898081Y18061160D01*
X1919923Y17995371D01*
X1937577Y17941859D01*
X1949850Y17904255D01*
X1955544Y17886185D01*
X1955800Y17885142D01*
X1943961Y17883708D01*
X1911893Y17882552D01*
X1864764Y17881809D01*
X1818419Y17881600D01*
X1681038Y17881600D01*
X1637002Y18021300D01*
X1413101Y18021300D01*
X1362449Y17887950D01*
X1087624Y17884528D01*
X812800Y17881105D01*
X812800Y18002003D01*
X812234Y18053906D01*
X810716Y18094655D01*
X808507Y18118739D01*
X807001Y18122900D01*
X796524Y18114289D01*
X771928Y18090712D01*
X736655Y18055558D01*
X694145Y18012216D01*
X684484Y18002250D01*
X567767Y17881600D01*
X266700Y17881600D01*
X266700Y18110200D01*
X378786Y18110200D01*
X433594Y18110791D01*
X469418Y18113518D01*
X492664Y18119812D01*
X509738Y18131104D01*
X520652Y18141900D01*
X539117Y18163960D01*
X545513Y18176669D01*
X545091Y18177327D01*
X531526Y18184184D01*
X501902Y18198101D01*
X472053Y18211777D01*
X410765Y18247859D01*
X371204Y18292638D01*
X350041Y18350656D01*
X345734Y18382353D01*
X572004Y18382353D01*
X574061Y18349072D01*
X582325Y18325922D01*
X587375Y18321811D01*
X606863Y18318716D01*
X644575Y18316167D01*
X693335Y18314604D01*
X708025Y18314403D01*
X812800Y18313400D01*
X812800Y18453100D01*
X707389Y18453100D01*
X648517Y18451183D01*
X606775Y18445783D01*
X586739Y18437861D01*
X576211Y18415403D01*
X572004Y18382353D01*
X345734Y18382353D01*
X345444Y18384486D01*
X350167Y18462032D01*
X377403Y18528695D01*
X426256Y18582697D01*
X455244Y18602505D01*
X474967Y18613780D01*
X493212Y18622356D01*
X513742Y18628661D01*
X540323Y18633123D01*
X576716Y18636170D01*
X626688Y18638228D01*
X694001Y18639726D01*
X782420Y18641091D01*
X796725Y18641297D01*
X1079101Y18645343D01*
X1082475Y18285697D01*
G37*
X-8877300Y18084800D02*
X-9182100Y18084800D01*
X-9182100Y18275300D01*
X-8877300Y18275300D01*
X-8877300Y18084800D01*
G36*
X-8877300Y18084800D02*
G01*
X-9182100Y18084800D01*
X-9182100Y18275300D01*
X-8877300Y18275300D01*
X-8877300Y18084800D01*
G37*
X-6032500Y18237200D02*
X-6261100Y18237200D01*
X-6261100Y18453100D01*
X-6032500Y18453100D01*
X-6032500Y18237200D01*
G36*
X-6032500Y18237200D02*
G01*
X-6261100Y18237200D01*
X-6261100Y18453100D01*
X-6032500Y18453100D01*
X-6032500Y18237200D01*
G37*
D12*
X-15290619Y-7207908D02*
X-13683529Y-7207908D01*
X-15290619Y-5322908D02*
X-15290619Y-7207908D01*
X5649381Y-5322908D02*
X5649381Y-7207908D01*
X-15290619Y677092D02*
X-15290619Y2562092D01*
X5649381Y677092D02*
X5649381Y2562092D01*
X5649381Y-7207908D02*
X4042291Y-7207908D01*
X-15290619Y2562092D02*
X-13683529Y2562092D01*
X5649381Y2562092D02*
X4042291Y2562092D01*
X4042291Y-7207908D02*
G75*
G02*
X-13683529Y-7207908I-8862910J4885000D01*
G01*
X-13683529Y2562092D02*
G75*
G02*
X4044402Y2558260I8862910J-4885000D01*
G01*
%LPC*%
D13*
X-4200409Y29522279D02*
X-4017233Y29517109D01*
X-3821491Y29507826D01*
X-3610502Y29494365D01*
X-3381588Y29476659D01*
X-3132067Y29454644D01*
X-2959100Y29438142D01*
X-2363948Y29370262D01*
X-1786287Y29284573D01*
X-1225118Y29180681D01*
X-679442Y29058190D01*
X-148260Y28916708D01*
X369427Y28755838D01*
X874618Y28575186D01*
X1368312Y28374359D01*
X1851509Y28152960D01*
X2325208Y27910597D01*
X2790408Y27646873D01*
X3248108Y27361395D01*
X3699307Y27053768D01*
X4145004Y26723597D01*
X4377157Y26541078D01*
X4608879Y26352101D01*
X4821044Y26172064D01*
X5016542Y25998021D01*
X5198265Y25827031D01*
X5369104Y25656147D01*
X5531951Y25482428D01*
X5689697Y25302928D01*
X5845233Y25114704D01*
X6001450Y24914811D01*
X6090129Y24796917D01*
X6360397Y24415210D01*
X6621144Y24010822D01*
X6871950Y23584787D01*
X7112389Y23138138D01*
X7342040Y22671909D01*
X7560478Y22187135D01*
X7767282Y21684848D01*
X7962028Y21166084D01*
X8144293Y20631875D01*
X8313654Y20083257D01*
X8469687Y19521262D01*
X8611970Y18946925D01*
X8740080Y18361279D01*
X8756217Y18281650D01*
X8816902Y17970621D01*
X8870350Y17676883D01*
X8917120Y17395755D01*
X8957771Y17122555D01*
X8992863Y16852600D01*
X9022956Y16581209D01*
X9048608Y16303701D01*
X9070379Y16015392D01*
X9088828Y15711602D01*
X9104515Y15387648D01*
X9105939Y15354300D01*
X9109339Y15255083D01*
X9112181Y15134153D01*
X9114466Y14995192D01*
X9116193Y14841883D01*
X9117364Y14677905D01*
X9117979Y14506942D01*
X9118039Y14332674D01*
X9117544Y14158783D01*
X9116494Y13988951D01*
X9114891Y13826859D01*
X9112734Y13676189D01*
X9110025Y13540622D01*
X9106764Y13423840D01*
X9105646Y13392150D01*
X9087898Y12985700D01*
X9065445Y12586416D01*
X9038463Y12195209D01*
X9007127Y11812989D01*
X8971615Y11440668D01*
X8932102Y11079155D01*
X8888764Y10729362D01*
X8841777Y10392199D01*
X8791319Y10068577D01*
X8737564Y9759406D01*
X8680690Y9465598D01*
X8620872Y9188063D01*
X8558287Y8927711D01*
X8493111Y8685454D01*
X8425520Y8462201D01*
X8355690Y8258865D01*
X8283798Y8076354D01*
X8210019Y7915581D01*
X8134531Y7777455D01*
X8057508Y7662888D01*
X7979760Y7573410D01*
X7915107Y7520357D01*
X7834531Y7469991D01*
X7747405Y7427300D01*
X7663102Y7397268D01*
X7636436Y7390762D01*
X7573052Y7382915D01*
X7488151Y7380698D01*
X7384907Y7383780D01*
X7266493Y7391831D01*
X7136082Y7404519D01*
X6996848Y7421515D01*
X6851965Y7442488D01*
X6704607Y7467106D01*
X6557946Y7495039D01*
X6481489Y7511096D01*
X6284992Y7554960D01*
X6087416Y7601497D01*
X5885863Y7651493D01*
X5677433Y7705732D01*
X5459228Y7764999D01*
X5228351Y7830079D01*
X4981903Y7901756D01*
X4716984Y7980816D01*
X4476750Y8053906D01*
X4208957Y8135473D01*
X3963906Y8208991D01*
X3740362Y8274798D01*
X3537092Y8333236D01*
X3352863Y8384646D01*
X3186443Y8429367D01*
X3036596Y8467741D01*
X2902091Y8500108D01*
X2781694Y8526808D01*
X2714300Y8540527D01*
X2596401Y8564254D01*
X2501749Y8584827D01*
X2428464Y8602804D01*
X2374667Y8618746D01*
X2338478Y8633210D01*
X2318017Y8646755D01*
X2311404Y8659941D01*
X2311400Y8660289D01*
X2313965Y8675540D01*
X2322123Y8701845D01*
X2336563Y8740879D01*
X2357975Y8794315D01*
X2387048Y8863825D01*
X2424474Y8951085D01*
X2470941Y9057767D01*
X2527139Y9185544D01*
X2539518Y9213576D01*
X2614666Y9387135D01*
X2677205Y9539161D01*
X2727293Y9670080D01*
X2765088Y9780316D01*
X2790750Y9870296D01*
X2799515Y9910071D01*
X2813829Y9970886D01*
X2835439Y10039893D01*
X2865402Y10119683D01*
X2904775Y10212851D01*
X2954613Y10321990D01*
X3015973Y10449693D01*
X3035638Y10489688D01*
X3073951Y10568425D01*
X3110157Y10644950D01*
X3142047Y10714432D01*
X3167412Y10772039D01*
X3184043Y10812940D01*
X3186437Y10819580D01*
X3235016Y10988446D01*
X3267998Y11170069D01*
X3285832Y11367486D01*
X3289542Y11515225D01*
X3291404Y11646373D01*
X3296342Y11783562D01*
X3303948Y11920639D01*
X3313815Y12051455D01*
X3325534Y12169858D01*
X3338698Y12269696D01*
X3340190Y12279120D01*
X3360962Y12395226D01*
X3385060Y12503478D01*
X3414477Y12610967D01*
X3451202Y12724786D01*
X3497228Y12852025D01*
X3511853Y12890500D01*
X3554232Y13005431D01*
X3592234Y13118623D01*
X3626173Y13232251D01*
X3656365Y13348491D01*
X3683125Y13469518D01*
X3706768Y13597507D01*
X3727608Y13734633D01*
X3745961Y13883071D01*
X3762143Y14044996D01*
X3776467Y14222584D01*
X3789249Y14418009D01*
X3800804Y14633446D01*
X3811447Y14871072D01*
X3816274Y14992350D01*
X3825765Y15232403D01*
X3834933Y15449336D01*
X3843926Y15645428D01*
X3852891Y15822956D01*
X3861977Y15984195D01*
X3871332Y16131424D01*
X3881103Y16266920D01*
X3891439Y16392958D01*
X3902487Y16511817D01*
X3914395Y16625773D01*
X3927312Y16737104D01*
X3932202Y16776700D01*
X3949106Y16929205D01*
X3958399Y17062434D01*
X3959586Y17181492D01*
X3952175Y17291486D01*
X3935670Y17397523D01*
X3909578Y17504709D01*
X3873404Y17618150D01*
X3842676Y17701776D01*
X3799125Y17826228D01*
X3765687Y17947808D01*
X3741946Y18070772D01*
X3727486Y18199376D01*
X3721891Y18337873D01*
X3724744Y18490519D01*
X3735628Y18661569D01*
X3741804Y18732500D01*
X3749199Y18825078D01*
X3755504Y18927958D01*
X3760185Y19030595D01*
X3762709Y19122445D01*
X3762989Y19151600D01*
X3761878Y19247668D01*
X3757136Y19333142D01*
X3747626Y19412515D01*
X3732213Y19490277D01*
X3709763Y19570920D01*
X3679138Y19658935D01*
X3639205Y19758812D01*
X3588827Y19875042D01*
X3568727Y19919950D01*
X3490393Y20100368D01*
X3426107Y20263013D01*
X3374998Y20410672D01*
X3336196Y20546130D01*
X3308830Y20672173D01*
X3292030Y20791586D01*
X3290182Y20811191D01*
X3269004Y20973562D01*
X3232536Y21148896D01*
X3180231Y21339592D01*
X3142848Y21456904D01*
X3071633Y21657077D01*
X2989893Y21863158D01*
X2899981Y22070211D01*
X2804248Y22273301D01*
X2705047Y22467493D01*
X2604728Y22647852D01*
X2505645Y22809443D01*
X2479218Y22849499D01*
X2448754Y22894851D01*
X2408751Y22954363D01*
X2363854Y23021125D01*
X2318711Y23088226D01*
X2307144Y23105415D01*
X2237184Y23215920D01*
X2167977Y23337268D01*
X2103257Y23462193D01*
X2046758Y23583428D01*
X2002210Y23693707D01*
X1996074Y23710900D01*
X1947788Y23838835D01*
X1891647Y23967426D01*
X1826750Y24097870D01*
X1752198Y24231365D01*
X1667092Y24369108D01*
X1570531Y24512295D01*
X1461617Y24662125D01*
X1339450Y24819793D01*
X1203130Y24986498D01*
X1051758Y25163436D01*
X884434Y25351804D01*
X700258Y25552801D01*
X498330Y25767622D01*
X278111Y25997095D01*
X196695Y26080620D01*
X104114Y26174626D01*
X2726Y26276788D01*
X-105111Y26384778D01*
X-217036Y26496272D01*
X-330691Y26608942D01*
X-443716Y26720462D01*
X-553753Y26828507D01*
X-658442Y26930751D01*
X-755424Y27024866D01*
X-842340Y27108527D01*
X-916830Y27179408D01*
X-976536Y27235183D01*
X-990600Y27248064D01*
X-1107421Y27350580D01*
X-1211683Y27433632D01*
X-1305399Y27498559D01*
X-1390587Y27546698D01*
X-1469259Y27579389D01*
X-1505386Y27590009D01*
X-1538059Y27596688D01*
X-1591802Y27605800D01*
X-1662468Y27616725D01*
X-1745910Y27628843D01*
X-1837982Y27641536D01*
X-1934537Y27654183D01*
X-1936750Y27654465D01*
X-2227670Y27691950D01*
X-2494539Y27727320D01*
X-2738598Y27760805D01*
X-2961088Y27792633D01*
X-3163250Y27823034D01*
X-3346323Y27852238D01*
X-3511550Y27880474D01*
X-3660171Y27907971D01*
X-3793426Y27934959D01*
X-3912557Y27961667D01*
X-4018803Y27988325D01*
X-4113407Y28015162D01*
X-4197609Y28042408D01*
X-4272649Y28070291D01*
X-4338816Y28098604D01*
X-4389005Y28123466D01*
X-4451194Y28156907D01*
X-4516007Y28193789D01*
X-4554716Y28216936D01*
X-4647243Y28270053D01*
X-4727607Y28307511D01*
X-4801868Y28331345D01*
X-4876091Y28343587D01*
X-4940836Y28346400D01*
X-5027539Y28341020D01*
X-5112847Y28323870D01*
X-5200437Y28293438D01*
X-5293986Y28248212D01*
X-5397171Y28186681D01*
X-5502001Y28115626D01*
X-5623955Y28033792D01*
X-5733273Y27970611D01*
X-5833121Y27924847D01*
X-5926663Y27895267D01*
X-6017066Y27880635D01*
X-6106980Y27879686D01*
X-6189637Y27888853D01*
X-6260206Y27904975D01*
X-6283325Y27913115D01*
X-6337006Y27934752D01*
X-6394919Y27958083D01*
X-6416675Y27966844D01*
X-6511700Y27991680D01*
X-6617400Y27994716D01*
X-6732450Y27976542D01*
X-6855528Y27937745D01*
X-6985309Y27878914D01*
X-7120469Y27800637D01*
X-7259684Y27703502D01*
X-7401630Y27588098D01*
X-7525251Y27474326D01*
X-7552316Y27447426D01*
X-7594753Y27404431D01*
X-7650373Y27347595D01*
X-7716983Y27279172D01*
X-7792394Y27201418D01*
X-7874416Y27116585D01*
X-7960857Y27026929D01*
X-8041512Y26943050D01*
X-8201705Y26777024D01*
X-8347516Y26627690D01*
X-8481388Y26492711D01*
X-8605767Y26369752D01*
X-8723095Y26256479D01*
X-8835818Y26150555D01*
X-8946379Y26049646D01*
X-9057224Y25951415D01*
X-9170795Y25853528D01*
X-9264452Y25774570D01*
X-9399471Y25658398D01*
X-9516753Y25549648D01*
X-9620788Y25443453D01*
X-9716066Y25334944D01*
X-9807079Y25219254D01*
X-9898318Y25091516D01*
X-9908812Y25076150D01*
X-9937522Y25031471D01*
X-9975852Y24968088D01*
X-10022165Y24888994D01*
X-10074820Y24797181D01*
X-10132180Y24695642D01*
X-10192606Y24587370D01*
X-10254458Y24475356D01*
X-10316097Y24362593D01*
X-10375884Y24252074D01*
X-10432181Y24146790D01*
X-10483348Y24049734D01*
X-10527747Y23963899D01*
X-10563738Y23892277D01*
X-10589683Y23837861D01*
X-10599818Y23814536D01*
X-10664540Y23626408D01*
X-10711910Y23426214D01*
X-10740125Y23221969D01*
X-10743788Y23174145D01*
X-10753262Y23062620D01*
X-10767467Y22961470D01*
X-10787904Y22866832D01*
X-10816072Y22774843D01*
X-10853472Y22681640D01*
X-10901603Y22583360D01*
X-10961966Y22476142D01*
X-11036061Y22356121D01*
X-11099196Y22258942D01*
X-11150186Y22182457D01*
X-11206240Y22099752D01*
X-11264877Y22014358D01*
X-11323619Y21929808D01*
X-11379986Y21849634D01*
X-11431498Y21777368D01*
X-11475678Y21716543D01*
X-11510044Y21670689D01*
X-11527667Y21648515D01*
X-11562251Y21597794D01*
X-11599334Y21525076D01*
X-11639163Y21429722D01*
X-11681987Y21311095D01*
X-11728054Y21168556D01*
X-11772722Y21018500D01*
X-11829611Y20813565D01*
X-11880713Y20612944D01*
X-11926965Y20411977D01*
X-11969303Y20206004D01*
X-12008666Y19990365D01*
X-12045989Y19760400D01*
X-12082210Y19511449D01*
X-12095739Y19411950D01*
X-12169562Y18825127D01*
X-12234015Y18240267D01*
X-12288874Y17660473D01*
X-12333912Y17088845D01*
X-12368905Y16528482D01*
X-12393628Y15982486D01*
X-12407855Y15453955D01*
X-12411515Y15062200D01*
X-12410479Y14814962D01*
X-12406685Y14591993D01*
X-12400055Y14392306D01*
X-12390513Y14214912D01*
X-12377981Y14058822D01*
X-12362381Y13923050D01*
X-12343637Y13806606D01*
X-12321672Y13708501D01*
X-12300167Y13638106D01*
X-12270273Y13552347D01*
X-12244317Y13473852D01*
X-12222004Y13400085D01*
X-12203041Y13328512D01*
X-12187133Y13256600D01*
X-12173986Y13181813D01*
X-12163307Y13101617D01*
X-12154800Y13013478D01*
X-12148173Y12914861D01*
X-12143131Y12803233D01*
X-12139379Y12676058D01*
X-12136624Y12530802D01*
X-12134572Y12364931D01*
X-12133102Y12198350D01*
X-12127643Y11499850D01*
X-12359368Y11303000D01*
X-12481771Y11198047D01*
X-12584942Y11107419D01*
X-12669915Y11030137D01*
X-12737729Y10965219D01*
X-12789420Y10911685D01*
X-12826023Y10868552D01*
X-12841668Y10846489D01*
X-12869231Y10788578D01*
X-12877433Y10729218D01*
X-12865603Y10666420D01*
X-12833069Y10598197D01*
X-12779162Y10522559D01*
X-12703907Y10438243D01*
X-12633447Y10367604D01*
X-12562820Y10302475D01*
X-12487120Y10238813D01*
X-12401436Y10172575D01*
X-12300860Y10099718D01*
X-12247581Y10062410D01*
X-12145286Y9987716D01*
X-12064715Y9920361D01*
X-12003959Y9858386D01*
X-11961106Y9799827D01*
X-11934247Y9742725D01*
X-11933271Y9739814D01*
X-11915013Y9660301D01*
X-11905314Y9558405D01*
X-11904160Y9433684D01*
X-11911539Y9285698D01*
X-11918582Y9201150D01*
X-11931102Y9060259D01*
X-11940222Y8942682D01*
X-11946008Y8846574D01*
X-11948524Y8770088D01*
X-11947835Y8711376D01*
X-11944009Y8668593D01*
X-11938335Y8643363D01*
X-11923158Y8607250D01*
X-11900811Y8572583D01*
X-11869010Y8537585D01*
X-11825473Y8500481D01*
X-11767915Y8459494D01*
X-11694054Y8412846D01*
X-11601606Y8358763D01*
X-11498300Y8300979D01*
X-11409326Y8251017D01*
X-11341013Y8210279D01*
X-11291113Y8177017D01*
X-11257381Y8149480D01*
X-11237569Y8125921D01*
X-11229430Y8104589D01*
X-11229277Y8091575D01*
X-11240943Y8066574D01*
X-11270884Y8040635D01*
X-11320084Y8013391D01*
X-11389529Y7984472D01*
X-11480202Y7953509D01*
X-11593090Y7920134D01*
X-11729176Y7883978D01*
X-11887200Y7845206D01*
X-12010882Y7811355D01*
X-12154323Y7764050D01*
X-12316112Y7703871D01*
X-12494838Y7631396D01*
X-12689091Y7547205D01*
X-12897457Y7451878D01*
X-13118526Y7345994D01*
X-13196044Y7307835D01*
X-13328277Y7241676D01*
X-13438804Y7184918D01*
X-13529145Y7136677D01*
X-13600818Y7096066D01*
X-13655342Y7062203D01*
X-13694236Y7034200D01*
X-13719019Y7011175D01*
X-13728843Y6997434D01*
X-13735498Y6971068D01*
X-13725476Y6942959D01*
X-13696689Y6909447D01*
X-13660559Y6877771D01*
X-13608605Y6824103D01*
X-13565200Y6758260D01*
X-13534497Y6688158D01*
X-13520652Y6621718D01*
X-13520270Y6610350D01*
X-13527288Y6522969D01*
X-13547806Y6455281D01*
X-13580850Y6408102D01*
X-13625445Y6382246D01*
X-13680617Y6378527D01*
X-13745391Y6397760D01*
X-13763859Y6406712D01*
X-13796079Y6419807D01*
X-13841145Y6431802D01*
X-13900469Y6442828D01*
X-13975466Y6453014D01*
X-14067551Y6462491D01*
X-14178137Y6471390D01*
X-14308640Y6479840D01*
X-14460472Y6487971D01*
X-14635048Y6495913D01*
X-14808200Y6502835D01*
X-14904338Y6505902D01*
X-15017580Y6508538D01*
X-15144960Y6510743D01*
X-15283512Y6512518D01*
X-15430272Y6513863D01*
X-15582272Y6514778D01*
X-15736547Y6515264D01*
X-15890131Y6515320D01*
X-16040058Y6514947D01*
X-16183363Y6514146D01*
X-16317079Y6512916D01*
X-16438240Y6511259D01*
X-16543881Y6509173D01*
X-16631036Y6506660D01*
X-16696738Y6503719D01*
X-16713200Y6502656D01*
X-16802616Y6495470D01*
X-16870038Y6487963D01*
X-16918867Y6479280D01*
X-16952503Y6468569D01*
X-16974348Y6454975D01*
X-16987801Y6437645D01*
X-16990015Y6433153D01*
X-17008174Y6382275D01*
X-17024292Y6313258D01*
X-17038486Y6224992D01*
X-17050871Y6116369D01*
X-17061564Y5986280D01*
X-17070680Y5833615D01*
X-17078336Y5657266D01*
X-17081766Y5556250D01*
X-17085268Y5454648D01*
X-17089235Y5357698D01*
X-17093461Y5269292D01*
X-17097739Y5193321D01*
X-17101861Y5133677D01*
X-17105622Y5094251D01*
X-17106747Y5086350D01*
X-17113448Y5045755D01*
X-17118080Y5016905D01*
X-17119527Y5006975D01*
X-17126380Y5001704D01*
X-17138682Y5008869D01*
X-17145000Y5021535D01*
X-17155477Y5044296D01*
X-17182133Y5071507D01*
X-17217807Y5097602D01*
X-17255340Y5117010D01*
X-17275598Y5123096D01*
X-17337591Y5126063D01*
X-17408596Y5112937D01*
X-17489481Y5083193D01*
X-17581114Y5036310D01*
X-17684364Y4971763D01*
X-17800099Y4889029D01*
X-17929187Y4787583D01*
X-18072496Y4666904D01*
X-18161000Y4589201D01*
X-18250175Y4511444D01*
X-18345884Y4430730D01*
X-18443794Y4350519D01*
X-18539567Y4274272D01*
X-18628868Y4205450D01*
X-18707362Y4147514D01*
X-18760670Y4110524D01*
X-18819259Y4073694D01*
X-18869168Y4046421D01*
X-18907217Y4030126D01*
X-18930226Y4026232D01*
X-18935700Y4032221D01*
X-18925864Y4053648D01*
X-18897129Y4089603D01*
X-18850664Y4139036D01*
X-18787631Y4200896D01*
X-18709198Y4274135D01*
X-18616529Y4357702D01*
X-18510789Y4450548D01*
X-18393144Y4551623D01*
X-18264759Y4659876D01*
X-18126800Y4774258D01*
X-17980432Y4893720D01*
X-17970500Y4901761D01*
X-17907773Y4952547D01*
X-17851556Y4998115D01*
X-17804913Y5035977D01*
X-17770906Y5063645D01*
X-17752599Y5078633D01*
X-17750548Y5080352D01*
X-17753415Y5093522D01*
X-17766520Y5126477D01*
X-17788559Y5176375D01*
X-17818231Y5240374D01*
X-17854235Y5315632D01*
X-17895269Y5399307D01*
X-17912424Y5433749D01*
X-17975616Y5560496D01*
X-18029359Y5669459D01*
X-18075863Y5765418D01*
X-18117338Y5853157D01*
X-18155992Y5937456D01*
X-18194037Y6023097D01*
X-18233682Y6114861D01*
X-18277137Y6217532D01*
X-18301409Y6275469D01*
X-18449403Y6644456D01*
X-18594458Y7035287D01*
X-18735629Y7444483D01*
X-18871974Y7868566D01*
X-19002550Y8304059D01*
X-19126412Y8747482D01*
X-19242619Y9195358D01*
X-19350226Y9644208D01*
X-19448292Y10090556D01*
X-19535871Y10530922D01*
X-19612023Y10961829D01*
X-19665085Y11304342D01*
X-19713231Y11658346D01*
X-19752723Y11996155D01*
X-19784043Y12324495D01*
X-19807672Y12650094D01*
X-19824093Y12979677D01*
X-19833786Y13319972D01*
X-19837233Y13677706D01*
X-19837253Y13709650D01*
X-19835301Y14015672D01*
X-19829193Y14302414D01*
X-19818517Y14575721D01*
X-19802866Y14841436D01*
X-19781828Y15105403D01*
X-19754995Y15373464D01*
X-19721956Y15651463D01*
X-19682302Y15945244D01*
X-19678739Y15970250D01*
X-19660342Y16096609D01*
X-19642118Y16216510D01*
X-19623568Y16332418D01*
X-19604194Y16446797D01*
X-19583499Y16562111D01*
X-19560983Y16680825D01*
X-19536148Y16805402D01*
X-19508497Y16938306D01*
X-19477531Y17082002D01*
X-19442752Y17238953D01*
X-19403662Y17411624D01*
X-19359762Y17602478D01*
X-19310555Y17813980D01*
X-19276871Y17957800D01*
X-19225237Y18177282D01*
X-19178557Y18374283D01*
X-19136187Y18551101D01*
X-19097483Y18710033D01*
X-19061804Y18853373D01*
X-19028504Y18983419D01*
X-18996942Y19102467D01*
X-18966473Y19212813D01*
X-18936454Y19316752D01*
X-18906242Y19416583D01*
X-18875194Y19514599D01*
X-18842666Y19613099D01*
X-18808015Y19714377D01*
X-18770597Y19820731D01*
X-18729770Y19934457D01*
X-18700450Y20015200D01*
X-18616546Y20239915D01*
X-18524334Y20476773D01*
X-18425378Y20722228D01*
X-18321241Y20972732D01*
X-18213487Y21224740D01*
X-18103679Y21474703D01*
X-17993380Y21719076D01*
X-17884153Y21954311D01*
X-17777562Y22176862D01*
X-17675170Y22383181D01*
X-17578540Y22569723D01*
X-17555737Y22612350D01*
X-17417658Y22859677D01*
X-17266474Y23114017D01*
X-17103840Y23373239D01*
X-16931414Y23635213D01*
X-16750851Y23897808D01*
X-16563809Y24158894D01*
X-16371945Y24416340D01*
X-16176914Y24668014D01*
X-15980374Y24911788D01*
X-15783982Y25145530D01*
X-15589393Y25367109D01*
X-15398266Y25574395D01*
X-15212256Y25765257D01*
X-15033020Y25937565D01*
X-14862214Y26089188D01*
X-14833600Y26113199D01*
X-14640032Y26268003D01*
X-14425333Y26428558D01*
X-14192103Y26593413D01*
X-13942942Y26761116D01*
X-13680449Y26930217D01*
X-13407224Y27099266D01*
X-13125866Y27266812D01*
X-12838975Y27431404D01*
X-12549149Y27591592D01*
X-12258989Y27745924D01*
X-11971094Y27892951D01*
X-11688063Y28031222D01*
X-11412496Y28159286D01*
X-11146991Y28275692D01*
X-10894150Y28378990D01*
X-10656570Y28467729D01*
X-10547350Y28505179D01*
X-10475219Y28528392D01*
X-10402144Y28550291D01*
X-10325372Y28571509D01*
X-10242148Y28592674D01*
X-10149720Y28614418D01*
X-10045334Y28637372D01*
X-9926236Y28662165D01*
X-9789673Y28689430D01*
X-9632891Y28719795D01*
X-9499600Y28745131D01*
X-9144929Y28811678D01*
X-8794721Y28876501D01*
X-8450289Y28939381D01*
X-8112944Y29000101D01*
X-7783999Y29058443D01*
X-7464766Y29114188D01*
X-7156556Y29167120D01*
X-6860681Y29217019D01*
X-6578455Y29263669D01*
X-6311188Y29306851D01*
X-6060193Y29346348D01*
X-5826781Y29381942D01*
X-5612266Y29413414D01*
X-5417958Y29440547D01*
X-5245170Y29463124D01*
X-5095213Y29480925D01*
X-5021590Y29488738D01*
X-4861048Y29503146D01*
X-4701338Y29513770D01*
X-4539782Y29520544D01*
X-4373699Y29523402D01*
X-4200409Y29522279D01*
G36*
X-4200409Y29522279D02*
G01*
X-4017233Y29517109D01*
X-3821491Y29507826D01*
X-3610502Y29494365D01*
X-3381588Y29476659D01*
X-3132067Y29454644D01*
X-2959100Y29438142D01*
X-2363948Y29370262D01*
X-1786287Y29284573D01*
X-1225118Y29180681D01*
X-679442Y29058190D01*
X-148260Y28916708D01*
X369427Y28755838D01*
X874618Y28575186D01*
X1368312Y28374359D01*
X1851509Y28152960D01*
X2325208Y27910597D01*
X2790408Y27646873D01*
X3248108Y27361395D01*
X3699307Y27053768D01*
X4145004Y26723597D01*
X4377157Y26541078D01*
X4608879Y26352101D01*
X4821044Y26172064D01*
X5016542Y25998021D01*
X5198265Y25827031D01*
X5369104Y25656147D01*
X5531951Y25482428D01*
X5689697Y25302928D01*
X5845233Y25114704D01*
X6001450Y24914811D01*
X6090129Y24796917D01*
X6360397Y24415210D01*
X6621144Y24010822D01*
X6871950Y23584787D01*
X7112389Y23138138D01*
X7342040Y22671909D01*
X7560478Y22187135D01*
X7767282Y21684848D01*
X7962028Y21166084D01*
X8144293Y20631875D01*
X8313654Y20083257D01*
X8469687Y19521262D01*
X8611970Y18946925D01*
X8740080Y18361279D01*
X8756217Y18281650D01*
X8816902Y17970621D01*
X8870350Y17676883D01*
X8917120Y17395755D01*
X8957771Y17122555D01*
X8992863Y16852600D01*
X9022956Y16581209D01*
X9048608Y16303701D01*
X9070379Y16015392D01*
X9088828Y15711602D01*
X9104515Y15387648D01*
X9105939Y15354300D01*
X9109339Y15255083D01*
X9112181Y15134153D01*
X9114466Y14995192D01*
X9116193Y14841883D01*
X9117364Y14677905D01*
X9117979Y14506942D01*
X9118039Y14332674D01*
X9117544Y14158783D01*
X9116494Y13988951D01*
X9114891Y13826859D01*
X9112734Y13676189D01*
X9110025Y13540622D01*
X9106764Y13423840D01*
X9105646Y13392150D01*
X9087898Y12985700D01*
X9065445Y12586416D01*
X9038463Y12195209D01*
X9007127Y11812989D01*
X8971615Y11440668D01*
X8932102Y11079155D01*
X8888764Y10729362D01*
X8841777Y10392199D01*
X8791319Y10068577D01*
X8737564Y9759406D01*
X8680690Y9465598D01*
X8620872Y9188063D01*
X8558287Y8927711D01*
X8493111Y8685454D01*
X8425520Y8462201D01*
X8355690Y8258865D01*
X8283798Y8076354D01*
X8210019Y7915581D01*
X8134531Y7777455D01*
X8057508Y7662888D01*
X7979760Y7573410D01*
X7915107Y7520357D01*
X7834531Y7469991D01*
X7747405Y7427300D01*
X7663102Y7397268D01*
X7636436Y7390762D01*
X7573052Y7382915D01*
X7488151Y7380698D01*
X7384907Y7383780D01*
X7266493Y7391831D01*
X7136082Y7404519D01*
X6996848Y7421515D01*
X6851965Y7442488D01*
X6704607Y7467106D01*
X6557946Y7495039D01*
X6481489Y7511096D01*
X6284992Y7554960D01*
X6087416Y7601497D01*
X5885863Y7651493D01*
X5677433Y7705732D01*
X5459228Y7764999D01*
X5228351Y7830079D01*
X4981903Y7901756D01*
X4716984Y7980816D01*
X4476750Y8053906D01*
X4208957Y8135473D01*
X3963906Y8208991D01*
X3740362Y8274798D01*
X3537092Y8333236D01*
X3352863Y8384646D01*
X3186443Y8429367D01*
X3036596Y8467741D01*
X2902091Y8500108D01*
X2781694Y8526808D01*
X2714300Y8540527D01*
X2596401Y8564254D01*
X2501749Y8584827D01*
X2428464Y8602804D01*
X2374667Y8618746D01*
X2338478Y8633210D01*
X2318017Y8646755D01*
X2311404Y8659941D01*
X2311400Y8660289D01*
X2313965Y8675540D01*
X2322123Y8701845D01*
X2336563Y8740879D01*
X2357975Y8794315D01*
X2387048Y8863825D01*
X2424474Y8951085D01*
X2470941Y9057767D01*
X2527139Y9185544D01*
X2539518Y9213576D01*
X2614666Y9387135D01*
X2677205Y9539161D01*
X2727293Y9670080D01*
X2765088Y9780316D01*
X2790750Y9870296D01*
X2799515Y9910071D01*
X2813829Y9970886D01*
X2835439Y10039893D01*
X2865402Y10119683D01*
X2904775Y10212851D01*
X2954613Y10321990D01*
X3015973Y10449693D01*
X3035638Y10489688D01*
X3073951Y10568425D01*
X3110157Y10644950D01*
X3142047Y10714432D01*
X3167412Y10772039D01*
X3184043Y10812940D01*
X3186437Y10819580D01*
X3235016Y10988446D01*
X3267998Y11170069D01*
X3285832Y11367486D01*
X3289542Y11515225D01*
X3291404Y11646373D01*
X3296342Y11783562D01*
X3303948Y11920639D01*
X3313815Y12051455D01*
X3325534Y12169858D01*
X3338698Y12269696D01*
X3340190Y12279120D01*
X3360962Y12395226D01*
X3385060Y12503478D01*
X3414477Y12610967D01*
X3451202Y12724786D01*
X3497228Y12852025D01*
X3511853Y12890500D01*
X3554232Y13005431D01*
X3592234Y13118623D01*
X3626173Y13232251D01*
X3656365Y13348491D01*
X3683125Y13469518D01*
X3706768Y13597507D01*
X3727608Y13734633D01*
X3745961Y13883071D01*
X3762143Y14044996D01*
X3776467Y14222584D01*
X3789249Y14418009D01*
X3800804Y14633446D01*
X3811447Y14871072D01*
X3816274Y14992350D01*
X3825765Y15232403D01*
X3834933Y15449336D01*
X3843926Y15645428D01*
X3852891Y15822956D01*
X3861977Y15984195D01*
X3871332Y16131424D01*
X3881103Y16266920D01*
X3891439Y16392958D01*
X3902487Y16511817D01*
X3914395Y16625773D01*
X3927312Y16737104D01*
X3932202Y16776700D01*
X3949106Y16929205D01*
X3958399Y17062434D01*
X3959586Y17181492D01*
X3952175Y17291486D01*
X3935670Y17397523D01*
X3909578Y17504709D01*
X3873404Y17618150D01*
X3842676Y17701776D01*
X3799125Y17826228D01*
X3765687Y17947808D01*
X3741946Y18070772D01*
X3727486Y18199376D01*
X3721891Y18337873D01*
X3724744Y18490519D01*
X3735628Y18661569D01*
X3741804Y18732500D01*
X3749199Y18825078D01*
X3755504Y18927958D01*
X3760185Y19030595D01*
X3762709Y19122445D01*
X3762989Y19151600D01*
X3761878Y19247668D01*
X3757136Y19333142D01*
X3747626Y19412515D01*
X3732213Y19490277D01*
X3709763Y19570920D01*
X3679138Y19658935D01*
X3639205Y19758812D01*
X3588827Y19875042D01*
X3568727Y19919950D01*
X3490393Y20100368D01*
X3426107Y20263013D01*
X3374998Y20410672D01*
X3336196Y20546130D01*
X3308830Y20672173D01*
X3292030Y20791586D01*
X3290182Y20811191D01*
X3269004Y20973562D01*
X3232536Y21148896D01*
X3180231Y21339592D01*
X3142848Y21456904D01*
X3071633Y21657077D01*
X2989893Y21863158D01*
X2899981Y22070211D01*
X2804248Y22273301D01*
X2705047Y22467493D01*
X2604728Y22647852D01*
X2505645Y22809443D01*
X2479218Y22849499D01*
X2448754Y22894851D01*
X2408751Y22954363D01*
X2363854Y23021125D01*
X2318711Y23088226D01*
X2307144Y23105415D01*
X2237184Y23215920D01*
X2167977Y23337268D01*
X2103257Y23462193D01*
X2046758Y23583428D01*
X2002210Y23693707D01*
X1996074Y23710900D01*
X1947788Y23838835D01*
X1891647Y23967426D01*
X1826750Y24097870D01*
X1752198Y24231365D01*
X1667092Y24369108D01*
X1570531Y24512295D01*
X1461617Y24662125D01*
X1339450Y24819793D01*
X1203130Y24986498D01*
X1051758Y25163436D01*
X884434Y25351804D01*
X700258Y25552801D01*
X498330Y25767622D01*
X278111Y25997095D01*
X196695Y26080620D01*
X104114Y26174626D01*
X2726Y26276788D01*
X-105111Y26384778D01*
X-217036Y26496272D01*
X-330691Y26608942D01*
X-443716Y26720462D01*
X-553753Y26828507D01*
X-658442Y26930751D01*
X-755424Y27024866D01*
X-842340Y27108527D01*
X-916830Y27179408D01*
X-976536Y27235183D01*
X-990600Y27248064D01*
X-1107421Y27350580D01*
X-1211683Y27433632D01*
X-1305399Y27498559D01*
X-1390587Y27546698D01*
X-1469259Y27579389D01*
X-1505386Y27590009D01*
X-1538059Y27596688D01*
X-1591802Y27605800D01*
X-1662468Y27616725D01*
X-1745910Y27628843D01*
X-1837982Y27641536D01*
X-1934537Y27654183D01*
X-1936750Y27654465D01*
X-2227670Y27691950D01*
X-2494539Y27727320D01*
X-2738598Y27760805D01*
X-2961088Y27792633D01*
X-3163250Y27823034D01*
X-3346323Y27852238D01*
X-3511550Y27880474D01*
X-3660171Y27907971D01*
X-3793426Y27934959D01*
X-3912557Y27961667D01*
X-4018803Y27988325D01*
X-4113407Y28015162D01*
X-4197609Y28042408D01*
X-4272649Y28070291D01*
X-4338816Y28098604D01*
X-4389005Y28123466D01*
X-4451194Y28156907D01*
X-4516007Y28193789D01*
X-4554716Y28216936D01*
X-4647243Y28270053D01*
X-4727607Y28307511D01*
X-4801868Y28331345D01*
X-4876091Y28343587D01*
X-4940836Y28346400D01*
X-5027539Y28341020D01*
X-5112847Y28323870D01*
X-5200437Y28293438D01*
X-5293986Y28248212D01*
X-5397171Y28186681D01*
X-5502001Y28115626D01*
X-5623955Y28033792D01*
X-5733273Y27970611D01*
X-5833121Y27924847D01*
X-5926663Y27895267D01*
X-6017066Y27880635D01*
X-6106980Y27879686D01*
X-6189637Y27888853D01*
X-6260206Y27904975D01*
X-6283325Y27913115D01*
X-6337006Y27934752D01*
X-6394919Y27958083D01*
X-6416675Y27966844D01*
X-6511700Y27991680D01*
X-6617400Y27994716D01*
X-6732450Y27976542D01*
X-6855528Y27937745D01*
X-6985309Y27878914D01*
X-7120469Y27800637D01*
X-7259684Y27703502D01*
X-7401630Y27588098D01*
X-7525251Y27474326D01*
X-7552316Y27447426D01*
X-7594753Y27404431D01*
X-7650373Y27347595D01*
X-7716983Y27279172D01*
X-7792394Y27201418D01*
X-7874416Y27116585D01*
X-7960857Y27026929D01*
X-8041512Y26943050D01*
X-8201705Y26777024D01*
X-8347516Y26627690D01*
X-8481388Y26492711D01*
X-8605767Y26369752D01*
X-8723095Y26256479D01*
X-8835818Y26150555D01*
X-8946379Y26049646D01*
X-9057224Y25951415D01*
X-9170795Y25853528D01*
X-9264452Y25774570D01*
X-9399471Y25658398D01*
X-9516753Y25549648D01*
X-9620788Y25443453D01*
X-9716066Y25334944D01*
X-9807079Y25219254D01*
X-9898318Y25091516D01*
X-9908812Y25076150D01*
X-9937522Y25031471D01*
X-9975852Y24968088D01*
X-10022165Y24888994D01*
X-10074820Y24797181D01*
X-10132180Y24695642D01*
X-10192606Y24587370D01*
X-10254458Y24475356D01*
X-10316097Y24362593D01*
X-10375884Y24252074D01*
X-10432181Y24146790D01*
X-10483348Y24049734D01*
X-10527747Y23963899D01*
X-10563738Y23892277D01*
X-10589683Y23837861D01*
X-10599818Y23814536D01*
X-10664540Y23626408D01*
X-10711910Y23426214D01*
X-10740125Y23221969D01*
X-10743788Y23174145D01*
X-10753262Y23062620D01*
X-10767467Y22961470D01*
X-10787904Y22866832D01*
X-10816072Y22774843D01*
X-10853472Y22681640D01*
X-10901603Y22583360D01*
X-10961966Y22476142D01*
X-11036061Y22356121D01*
X-11099196Y22258942D01*
X-11150186Y22182457D01*
X-11206240Y22099752D01*
X-11264877Y22014358D01*
X-11323619Y21929808D01*
X-11379986Y21849634D01*
X-11431498Y21777368D01*
X-11475678Y21716543D01*
X-11510044Y21670689D01*
X-11527667Y21648515D01*
X-11562251Y21597794D01*
X-11599334Y21525076D01*
X-11639163Y21429722D01*
X-11681987Y21311095D01*
X-11728054Y21168556D01*
X-11772722Y21018500D01*
X-11829611Y20813565D01*
X-11880713Y20612944D01*
X-11926965Y20411977D01*
X-11969303Y20206004D01*
X-12008666Y19990365D01*
X-12045989Y19760400D01*
X-12082210Y19511449D01*
X-12095739Y19411950D01*
X-12169562Y18825127D01*
X-12234015Y18240267D01*
X-12288874Y17660473D01*
X-12333912Y17088845D01*
X-12368905Y16528482D01*
X-12393628Y15982486D01*
X-12407855Y15453955D01*
X-12411515Y15062200D01*
X-12410479Y14814962D01*
X-12406685Y14591993D01*
X-12400055Y14392306D01*
X-12390513Y14214912D01*
X-12377981Y14058822D01*
X-12362381Y13923050D01*
X-12343637Y13806606D01*
X-12321672Y13708501D01*
X-12300167Y13638106D01*
X-12270273Y13552347D01*
X-12244317Y13473852D01*
X-12222004Y13400085D01*
X-12203041Y13328512D01*
X-12187133Y13256600D01*
X-12173986Y13181813D01*
X-12163307Y13101617D01*
X-12154800Y13013478D01*
X-12148173Y12914861D01*
X-12143131Y12803233D01*
X-12139379Y12676058D01*
X-12136624Y12530802D01*
X-12134572Y12364931D01*
X-12133102Y12198350D01*
X-12127643Y11499850D01*
X-12359368Y11303000D01*
X-12481771Y11198047D01*
X-12584942Y11107419D01*
X-12669915Y11030137D01*
X-12737729Y10965219D01*
X-12789420Y10911685D01*
X-12826023Y10868552D01*
X-12841668Y10846489D01*
X-12869231Y10788578D01*
X-12877433Y10729218D01*
X-12865603Y10666420D01*
X-12833069Y10598197D01*
X-12779162Y10522559D01*
X-12703907Y10438243D01*
X-12633447Y10367604D01*
X-12562820Y10302475D01*
X-12487120Y10238813D01*
X-12401436Y10172575D01*
X-12300860Y10099718D01*
X-12247581Y10062410D01*
X-12145286Y9987716D01*
X-12064715Y9920361D01*
X-12003959Y9858386D01*
X-11961106Y9799827D01*
X-11934247Y9742725D01*
X-11933271Y9739814D01*
X-11915013Y9660301D01*
X-11905314Y9558405D01*
X-11904160Y9433684D01*
X-11911539Y9285698D01*
X-11918582Y9201150D01*
X-11931102Y9060259D01*
X-11940222Y8942682D01*
X-11946008Y8846574D01*
X-11948524Y8770088D01*
X-11947835Y8711376D01*
X-11944009Y8668593D01*
X-11938335Y8643363D01*
X-11923158Y8607250D01*
X-11900811Y8572583D01*
X-11869010Y8537585D01*
X-11825473Y8500481D01*
X-11767915Y8459494D01*
X-11694054Y8412846D01*
X-11601606Y8358763D01*
X-11498300Y8300979D01*
X-11409326Y8251017D01*
X-11341013Y8210279D01*
X-11291113Y8177017D01*
X-11257381Y8149480D01*
X-11237569Y8125921D01*
X-11229430Y8104589D01*
X-11229277Y8091575D01*
X-11240943Y8066574D01*
X-11270884Y8040635D01*
X-11320084Y8013391D01*
X-11389529Y7984472D01*
X-11480202Y7953509D01*
X-11593090Y7920134D01*
X-11729176Y7883978D01*
X-11887200Y7845206D01*
X-12010882Y7811355D01*
X-12154323Y7764050D01*
X-12316112Y7703871D01*
X-12494838Y7631396D01*
X-12689091Y7547205D01*
X-12897457Y7451878D01*
X-13118526Y7345994D01*
X-13196044Y7307835D01*
X-13328277Y7241676D01*
X-13438804Y7184918D01*
X-13529145Y7136677D01*
X-13600818Y7096066D01*
X-13655342Y7062203D01*
X-13694236Y7034200D01*
X-13719019Y7011175D01*
X-13728843Y6997434D01*
X-13735498Y6971068D01*
X-13725476Y6942959D01*
X-13696689Y6909447D01*
X-13660559Y6877771D01*
X-13608605Y6824103D01*
X-13565200Y6758260D01*
X-13534497Y6688158D01*
X-13520652Y6621718D01*
X-13520270Y6610350D01*
X-13527288Y6522969D01*
X-13547806Y6455281D01*
X-13580850Y6408102D01*
X-13625445Y6382246D01*
X-13680617Y6378527D01*
X-13745391Y6397760D01*
X-13763859Y6406712D01*
X-13796079Y6419807D01*
X-13841145Y6431802D01*
X-13900469Y6442828D01*
X-13975466Y6453014D01*
X-14067551Y6462491D01*
X-14178137Y6471390D01*
X-14308640Y6479840D01*
X-14460472Y6487971D01*
X-14635048Y6495913D01*
X-14808200Y6502835D01*
X-14904338Y6505902D01*
X-15017580Y6508538D01*
X-15144960Y6510743D01*
X-15283512Y6512518D01*
X-15430272Y6513863D01*
X-15582272Y6514778D01*
X-15736547Y6515264D01*
X-15890131Y6515320D01*
X-16040058Y6514947D01*
X-16183363Y6514146D01*
X-16317079Y6512916D01*
X-16438240Y6511259D01*
X-16543881Y6509173D01*
X-16631036Y6506660D01*
X-16696738Y6503719D01*
X-16713200Y6502656D01*
X-16802616Y6495470D01*
X-16870038Y6487963D01*
X-16918867Y6479280D01*
X-16952503Y6468569D01*
X-16974348Y6454975D01*
X-16987801Y6437645D01*
X-16990015Y6433153D01*
X-17008174Y6382275D01*
X-17024292Y6313258D01*
X-17038486Y6224992D01*
X-17050871Y6116369D01*
X-17061564Y5986280D01*
X-17070680Y5833615D01*
X-17078336Y5657266D01*
X-17081766Y5556250D01*
X-17085268Y5454648D01*
X-17089235Y5357698D01*
X-17093461Y5269292D01*
X-17097739Y5193321D01*
X-17101861Y5133677D01*
X-17105622Y5094251D01*
X-17106747Y5086350D01*
X-17113448Y5045755D01*
X-17118080Y5016905D01*
X-17119527Y5006975D01*
X-17126380Y5001704D01*
X-17138682Y5008869D01*
X-17145000Y5021535D01*
X-17155477Y5044296D01*
X-17182133Y5071507D01*
X-17217807Y5097602D01*
X-17255340Y5117010D01*
X-17275598Y5123096D01*
X-17337591Y5126063D01*
X-17408596Y5112937D01*
X-17489481Y5083193D01*
X-17581114Y5036310D01*
X-17684364Y4971763D01*
X-17800099Y4889029D01*
X-17929187Y4787583D01*
X-18072496Y4666904D01*
X-18161000Y4589201D01*
X-18250175Y4511444D01*
X-18345884Y4430730D01*
X-18443794Y4350519D01*
X-18539567Y4274272D01*
X-18628868Y4205450D01*
X-18707362Y4147514D01*
X-18760670Y4110524D01*
X-18819259Y4073694D01*
X-18869168Y4046421D01*
X-18907217Y4030126D01*
X-18930226Y4026232D01*
X-18935700Y4032221D01*
X-18925864Y4053648D01*
X-18897129Y4089603D01*
X-18850664Y4139036D01*
X-18787631Y4200896D01*
X-18709198Y4274135D01*
X-18616529Y4357702D01*
X-18510789Y4450548D01*
X-18393144Y4551623D01*
X-18264759Y4659876D01*
X-18126800Y4774258D01*
X-17980432Y4893720D01*
X-17970500Y4901761D01*
X-17907773Y4952547D01*
X-17851556Y4998115D01*
X-17804913Y5035977D01*
X-17770906Y5063645D01*
X-17752599Y5078633D01*
X-17750548Y5080352D01*
X-17753415Y5093522D01*
X-17766520Y5126477D01*
X-17788559Y5176375D01*
X-17818231Y5240374D01*
X-17854235Y5315632D01*
X-17895269Y5399307D01*
X-17912424Y5433749D01*
X-17975616Y5560496D01*
X-18029359Y5669459D01*
X-18075863Y5765418D01*
X-18117338Y5853157D01*
X-18155992Y5937456D01*
X-18194037Y6023097D01*
X-18233682Y6114861D01*
X-18277137Y6217532D01*
X-18301409Y6275469D01*
X-18449403Y6644456D01*
X-18594458Y7035287D01*
X-18735629Y7444483D01*
X-18871974Y7868566D01*
X-19002550Y8304059D01*
X-19126412Y8747482D01*
X-19242619Y9195358D01*
X-19350226Y9644208D01*
X-19448292Y10090556D01*
X-19535871Y10530922D01*
X-19612023Y10961829D01*
X-19665085Y11304342D01*
X-19713231Y11658346D01*
X-19752723Y11996155D01*
X-19784043Y12324495D01*
X-19807672Y12650094D01*
X-19824093Y12979677D01*
X-19833786Y13319972D01*
X-19837233Y13677706D01*
X-19837253Y13709650D01*
X-19835301Y14015672D01*
X-19829193Y14302414D01*
X-19818517Y14575721D01*
X-19802866Y14841436D01*
X-19781828Y15105403D01*
X-19754995Y15373464D01*
X-19721956Y15651463D01*
X-19682302Y15945244D01*
X-19678739Y15970250D01*
X-19660342Y16096609D01*
X-19642118Y16216510D01*
X-19623568Y16332418D01*
X-19604194Y16446797D01*
X-19583499Y16562111D01*
X-19560983Y16680825D01*
X-19536148Y16805402D01*
X-19508497Y16938306D01*
X-19477531Y17082002D01*
X-19442752Y17238953D01*
X-19403662Y17411624D01*
X-19359762Y17602478D01*
X-19310555Y17813980D01*
X-19276871Y17957800D01*
X-19225237Y18177282D01*
X-19178557Y18374283D01*
X-19136187Y18551101D01*
X-19097483Y18710033D01*
X-19061804Y18853373D01*
X-19028504Y18983419D01*
X-18996942Y19102467D01*
X-18966473Y19212813D01*
X-18936454Y19316752D01*
X-18906242Y19416583D01*
X-18875194Y19514599D01*
X-18842666Y19613099D01*
X-18808015Y19714377D01*
X-18770597Y19820731D01*
X-18729770Y19934457D01*
X-18700450Y20015200D01*
X-18616546Y20239915D01*
X-18524334Y20476773D01*
X-18425378Y20722228D01*
X-18321241Y20972732D01*
X-18213487Y21224740D01*
X-18103679Y21474703D01*
X-17993380Y21719076D01*
X-17884153Y21954311D01*
X-17777562Y22176862D01*
X-17675170Y22383181D01*
X-17578540Y22569723D01*
X-17555737Y22612350D01*
X-17417658Y22859677D01*
X-17266474Y23114017D01*
X-17103840Y23373239D01*
X-16931414Y23635213D01*
X-16750851Y23897808D01*
X-16563809Y24158894D01*
X-16371945Y24416340D01*
X-16176914Y24668014D01*
X-15980374Y24911788D01*
X-15783982Y25145530D01*
X-15589393Y25367109D01*
X-15398266Y25574395D01*
X-15212256Y25765257D01*
X-15033020Y25937565D01*
X-14862214Y26089188D01*
X-14833600Y26113199D01*
X-14640032Y26268003D01*
X-14425333Y26428558D01*
X-14192103Y26593413D01*
X-13942942Y26761116D01*
X-13680449Y26930217D01*
X-13407224Y27099266D01*
X-13125866Y27266812D01*
X-12838975Y27431404D01*
X-12549149Y27591592D01*
X-12258989Y27745924D01*
X-11971094Y27892951D01*
X-11688063Y28031222D01*
X-11412496Y28159286D01*
X-11146991Y28275692D01*
X-10894150Y28378990D01*
X-10656570Y28467729D01*
X-10547350Y28505179D01*
X-10475219Y28528392D01*
X-10402144Y28550291D01*
X-10325372Y28571509D01*
X-10242148Y28592674D01*
X-10149720Y28614418D01*
X-10045334Y28637372D01*
X-9926236Y28662165D01*
X-9789673Y28689430D01*
X-9632891Y28719795D01*
X-9499600Y28745131D01*
X-9144929Y28811678D01*
X-8794721Y28876501D01*
X-8450289Y28939381D01*
X-8112944Y29000101D01*
X-7783999Y29058443D01*
X-7464766Y29114188D01*
X-7156556Y29167120D01*
X-6860681Y29217019D01*
X-6578455Y29263669D01*
X-6311188Y29306851D01*
X-6060193Y29346348D01*
X-5826781Y29381942D01*
X-5612266Y29413414D01*
X-5417958Y29440547D01*
X-5245170Y29463124D01*
X-5095213Y29480925D01*
X-5021590Y29488738D01*
X-4861048Y29503146D01*
X-4701338Y29513770D01*
X-4539782Y29520544D01*
X-4373699Y29523402D01*
X-4200409Y29522279D01*
G37*
X-6370547Y20367625D02*
X-6409792Y20311449D01*
X-6451180Y20252332D01*
X-6487670Y20200326D01*
X-6498422Y20185038D01*
X-6524860Y20146534D01*
X-6541037Y20117350D01*
X-6549472Y20088868D01*
X-6552686Y20052468D01*
X-6553200Y19999531D01*
X-6553200Y19888200D01*
X-6743700Y19888200D01*
X-6743700Y20106671D01*
X-6864350Y20282551D01*
X-6904284Y20341161D01*
X-6938638Y20392335D01*
X-6965042Y20432485D01*
X-6981130Y20458020D01*
X-6985000Y20465416D01*
X-6973260Y20468508D01*
X-6941869Y20470848D01*
X-6896576Y20472083D01*
X-6873875Y20472187D01*
X-6762750Y20471973D01*
X-6646330Y20293845D01*
X-6586964Y20383123D01*
X-6527598Y20472400D01*
X-6297451Y20472400D01*
X-6370547Y20367625D01*
G36*
X-6370547Y20367625D02*
G01*
X-6409792Y20311449D01*
X-6451180Y20252332D01*
X-6487670Y20200326D01*
X-6498422Y20185038D01*
X-6524860Y20146534D01*
X-6541037Y20117350D01*
X-6549472Y20088868D01*
X-6552686Y20052468D01*
X-6553200Y19999531D01*
X-6553200Y19888200D01*
X-6743700Y19888200D01*
X-6743700Y20106671D01*
X-6864350Y20282551D01*
X-6904284Y20341161D01*
X-6938638Y20392335D01*
X-6965042Y20432485D01*
X-6981130Y20458020D01*
X-6985000Y20465416D01*
X-6973260Y20468508D01*
X-6941869Y20470848D01*
X-6896576Y20472083D01*
X-6873875Y20472187D01*
X-6762750Y20471973D01*
X-6646330Y20293845D01*
X-6586964Y20383123D01*
X-6527598Y20472400D01*
X-6297451Y20472400D01*
X-6370547Y20367625D01*
G37*
X-5848350Y19894550D02*
X-6350000Y19887664D01*
X-6350000Y20066000D01*
X-6032500Y20066000D01*
X-6032500Y20472400D01*
X-5841524Y20472400D01*
X-5848350Y19894550D01*
G36*
X-5848350Y19894550D02*
G01*
X-6350000Y19887664D01*
X-6350000Y20066000D01*
X-6032500Y20066000D01*
X-6032500Y20472400D01*
X-5841524Y20472400D01*
X-5848350Y19894550D01*
G37*
X-5321300Y19888200D02*
X-5566834Y19888200D01*
X-5643361Y19888619D01*
X-5711037Y19889786D01*
X-5765814Y19891565D01*
X-5803647Y19893823D01*
X-5820488Y19896423D01*
X-5820834Y19896667D01*
X-5825241Y19912908D01*
X-5828303Y19946808D01*
X-5829300Y19985567D01*
X-5829300Y20066000D01*
X-5511800Y20066000D01*
X-5511800Y20472400D01*
X-5321300Y20472400D01*
X-5321300Y19888200D01*
G36*
X-5321300Y19888200D02*
G01*
X-5566834Y19888200D01*
X-5643361Y19888619D01*
X-5711037Y19889786D01*
X-5765814Y19891565D01*
X-5803647Y19893823D01*
X-5820488Y19896423D01*
X-5820834Y19896667D01*
X-5825241Y19912908D01*
X-5828303Y19946808D01*
X-5829300Y19985567D01*
X-5829300Y20066000D01*
X-5511800Y20066000D01*
X-5511800Y20472400D01*
X-5321300Y20472400D01*
X-5321300Y19888200D01*
G37*
X-5092700Y19888200D02*
X-5179484Y19888200D01*
X-5224296Y19889357D01*
X-5258497Y19892391D01*
X-5274712Y19896646D01*
X-5274734Y19896667D01*
X-5277184Y19911296D01*
X-5279355Y19947582D01*
X-5281140Y20001782D01*
X-5282431Y20070155D01*
X-5283117Y20148958D01*
X-5283200Y20188767D01*
X-5283200Y20472400D01*
X-5092700Y20472400D01*
X-5092700Y19888200D01*
G36*
X-5092700Y19888200D02*
G01*
X-5179484Y19888200D01*
X-5224296Y19889357D01*
X-5258497Y19892391D01*
X-5274712Y19896646D01*
X-5274734Y19896667D01*
X-5277184Y19911296D01*
X-5279355Y19947582D01*
X-5281140Y20001782D01*
X-5282431Y20070155D01*
X-5283117Y20148958D01*
X-5283200Y20188767D01*
X-5283200Y20472400D01*
X-5092700Y20472400D01*
X-5092700Y19888200D01*
G37*
X-4445000Y20066000D02*
X-4089400Y20066000D01*
X-4089400Y20097750D01*
X-4090588Y20113900D01*
X-4097716Y20123366D01*
X-4116135Y20127933D01*
X-4151195Y20129384D01*
X-4184650Y20129500D01*
X-4279900Y20129500D01*
X-4279900Y20231100D01*
X-4184650Y20231100D01*
X-4136202Y20231496D01*
X-4107803Y20233872D01*
X-4094103Y20240012D01*
X-4089751Y20251699D01*
X-4089400Y20262850D01*
X-4089400Y20294600D01*
X-4394200Y20294600D01*
X-4394200Y20472400D01*
X-3898900Y20472400D01*
X-3898900Y19888200D01*
X-4391025Y19889661D01*
X-4502216Y19890213D01*
X-4606918Y19891157D01*
X-4702061Y19892434D01*
X-4784575Y19893984D01*
X-4851390Y19895748D01*
X-4899435Y19897668D01*
X-4925642Y19899683D01*
X-4927600Y19900010D01*
X-4994400Y19922019D01*
X-5039536Y19957133D01*
X-5063250Y20005598D01*
X-5067300Y20042452D01*
X-5061671Y20068094D01*
X-4851400Y20068094D01*
X-4845147Y20041986D01*
X-4824034Y20025543D01*
X-4784536Y20017169D01*
X-4734561Y20015200D01*
X-4648200Y20015200D01*
X-4648200Y20116800D01*
X-4725235Y20116800D01*
X-4789531Y20112731D01*
X-4830709Y20100269D01*
X-4849757Y20079034D01*
X-4851400Y20068094D01*
X-5061671Y20068094D01*
X-5056532Y20091503D01*
X-5028360Y20135562D01*
X-4988988Y20166271D01*
X-4970195Y20173281D01*
X-4936515Y20181735D01*
X-4981257Y20212138D01*
X-5018089Y20242094D01*
X-5036462Y20273485D01*
X-5037065Y20278260D01*
X-4824515Y20278260D01*
X-4808094Y20258548D01*
X-4769563Y20246851D01*
X-4722845Y20243800D01*
X-4648200Y20243800D01*
X-4648200Y20333913D01*
X-4726255Y20330132D01*
X-4776907Y20325124D01*
X-4806782Y20315362D01*
X-4817594Y20305190D01*
X-4824515Y20278260D01*
X-5037065Y20278260D01*
X-5041863Y20316219D01*
X-5041900Y20321670D01*
X-5030523Y20379615D01*
X-4997620Y20424902D01*
X-4953231Y20451776D01*
X-4928071Y20459675D01*
X-4895346Y20465380D01*
X-4851000Y20469192D01*
X-4790982Y20471408D01*
X-4711237Y20472329D01*
X-4673343Y20472400D01*
X-4445000Y20472400D01*
X-4445000Y20066000D01*
G36*
X-4445000Y20066000D02*
G01*
X-4089400Y20066000D01*
X-4089400Y20097750D01*
X-4090588Y20113900D01*
X-4097716Y20123366D01*
X-4116135Y20127933D01*
X-4151195Y20129384D01*
X-4184650Y20129500D01*
X-4279900Y20129500D01*
X-4279900Y20231100D01*
X-4184650Y20231100D01*
X-4136202Y20231496D01*
X-4107803Y20233872D01*
X-4094103Y20240012D01*
X-4089751Y20251699D01*
X-4089400Y20262850D01*
X-4089400Y20294600D01*
X-4394200Y20294600D01*
X-4394200Y20472400D01*
X-3898900Y20472400D01*
X-3898900Y19888200D01*
X-4391025Y19889661D01*
X-4502216Y19890213D01*
X-4606918Y19891157D01*
X-4702061Y19892434D01*
X-4784575Y19893984D01*
X-4851390Y19895748D01*
X-4899435Y19897668D01*
X-4925642Y19899683D01*
X-4927600Y19900010D01*
X-4994400Y19922019D01*
X-5039536Y19957133D01*
X-5063250Y20005598D01*
X-5067300Y20042452D01*
X-5061671Y20068094D01*
X-4851400Y20068094D01*
X-4845147Y20041986D01*
X-4824034Y20025543D01*
X-4784536Y20017169D01*
X-4734561Y20015200D01*
X-4648200Y20015200D01*
X-4648200Y20116800D01*
X-4725235Y20116800D01*
X-4789531Y20112731D01*
X-4830709Y20100269D01*
X-4849757Y20079034D01*
X-4851400Y20068094D01*
X-5061671Y20068094D01*
X-5056532Y20091503D01*
X-5028360Y20135562D01*
X-4988988Y20166271D01*
X-4970195Y20173281D01*
X-4936515Y20181735D01*
X-4981257Y20212138D01*
X-5018089Y20242094D01*
X-5036462Y20273485D01*
X-5037065Y20278260D01*
X-4824515Y20278260D01*
X-4808094Y20258548D01*
X-4769563Y20246851D01*
X-4722845Y20243800D01*
X-4648200Y20243800D01*
X-4648200Y20333913D01*
X-4726255Y20330132D01*
X-4776907Y20325124D01*
X-4806782Y20315362D01*
X-4817594Y20305190D01*
X-4824515Y20278260D01*
X-5037065Y20278260D01*
X-5041863Y20316219D01*
X-5041900Y20321670D01*
X-5030523Y20379615D01*
X-4997620Y20424902D01*
X-4953231Y20451776D01*
X-4928071Y20459675D01*
X-4895346Y20465380D01*
X-4851000Y20469192D01*
X-4790982Y20471408D01*
X-4711237Y20472329D01*
X-4673343Y20472400D01*
X-4445000Y20472400D01*
X-4445000Y20066000D01*
G37*
X-3371850Y19894550D02*
X-3873500Y19887664D01*
X-3873500Y20066000D01*
X-3556000Y20066000D01*
X-3556000Y20472400D01*
X-3365024Y20472400D01*
X-3371850Y19894550D01*
G36*
X-3371850Y19894550D02*
G01*
X-3873500Y19887664D01*
X-3873500Y20066000D01*
X-3556000Y20066000D01*
X-3556000Y20472400D01*
X-3365024Y20472400D01*
X-3371850Y19894550D01*
G37*
X-2562225Y20470416D02*
X-2489147Y20468311D01*
X-2435815Y20465500D01*
X-2396576Y20461099D01*
X-2365779Y20454226D01*
X-2337769Y20443998D01*
X-2309859Y20430991D01*
X-2239861Y20385325D01*
X-2201909Y20343128D01*
X-2183442Y20313941D01*
X-2172482Y20286912D01*
X-2167115Y20253792D01*
X-2165427Y20206335D01*
X-2165350Y20185594D01*
X-2166193Y20131645D01*
X-2170048Y20094735D01*
X-2178902Y20066522D01*
X-2194746Y20038667D01*
X-2203450Y20025807D01*
X-2249442Y19975849D01*
X-2314106Y19934531D01*
X-2317465Y19932838D01*
X-2349789Y19917466D01*
X-2378530Y19906722D01*
X-2409589Y19899600D01*
X-2448863Y19895095D01*
X-2502253Y19892204D01*
X-2568290Y19890122D01*
X-2743200Y19885318D01*
X-2744456Y20023284D01*
X-2745120Y20083336D01*
X-2746195Y20120627D01*
X-2748276Y20137795D01*
X-2751963Y20137480D01*
X-2757851Y20122320D01*
X-2763129Y20105794D01*
X-2798830Y20028962D01*
X-2852914Y19969306D01*
X-2919642Y19928397D01*
X-2951656Y19914744D01*
X-2982505Y19905153D01*
X-3018114Y19898709D01*
X-3064406Y19894494D01*
X-3127307Y19891594D01*
X-3165475Y19890390D01*
X-3340100Y19885318D01*
X-3340100Y20180300D01*
X-3162300Y20180300D01*
X-3162300Y20066000D01*
X-3113396Y20066000D01*
X-3045812Y20073989D01*
X-2997423Y20097413D01*
X-2969057Y20135462D01*
X-2961540Y20187325D01*
X-2964567Y20211807D01*
X-2974499Y20243098D01*
X-2993123Y20265673D01*
X-3023986Y20280813D01*
X-3070633Y20289803D01*
X-3136611Y20293924D01*
X-3193420Y20294600D01*
X-3340100Y20294600D01*
X-3340100Y20474782D01*
X-3159125Y20470416D01*
X-3086047Y20468311D01*
X-3032715Y20465500D01*
X-2993476Y20461099D01*
X-2962679Y20454226D01*
X-2934669Y20443998D01*
X-2906759Y20430991D01*
X-2837400Y20385159D01*
X-2788721Y20326753D01*
X-2762210Y20257722D01*
X-2759071Y20237739D01*
X-2752597Y20180300D01*
X-2565400Y20180300D01*
X-2565400Y20066000D01*
X-2516496Y20066000D01*
X-2448912Y20073989D01*
X-2400523Y20097413D01*
X-2372157Y20135462D01*
X-2364640Y20187325D01*
X-2367667Y20211807D01*
X-2377599Y20243098D01*
X-2396223Y20265673D01*
X-2427086Y20280813D01*
X-2473733Y20289803D01*
X-2539711Y20293924D01*
X-2596520Y20294600D01*
X-2743200Y20294600D01*
X-2743200Y20474782D01*
X-2562225Y20470416D01*
G36*
X-2562225Y20470416D02*
G01*
X-2489147Y20468311D01*
X-2435815Y20465500D01*
X-2396576Y20461099D01*
X-2365779Y20454226D01*
X-2337769Y20443998D01*
X-2309859Y20430991D01*
X-2239861Y20385325D01*
X-2201909Y20343128D01*
X-2183442Y20313941D01*
X-2172482Y20286912D01*
X-2167115Y20253792D01*
X-2165427Y20206335D01*
X-2165350Y20185594D01*
X-2166193Y20131645D01*
X-2170048Y20094735D01*
X-2178902Y20066522D01*
X-2194746Y20038667D01*
X-2203450Y20025807D01*
X-2249442Y19975849D01*
X-2314106Y19934531D01*
X-2317465Y19932838D01*
X-2349789Y19917466D01*
X-2378530Y19906722D01*
X-2409589Y19899600D01*
X-2448863Y19895095D01*
X-2502253Y19892204D01*
X-2568290Y19890122D01*
X-2743200Y19885318D01*
X-2744456Y20023284D01*
X-2745120Y20083336D01*
X-2746195Y20120627D01*
X-2748276Y20137795D01*
X-2751963Y20137480D01*
X-2757851Y20122320D01*
X-2763129Y20105794D01*
X-2798830Y20028962D01*
X-2852914Y19969306D01*
X-2919642Y19928397D01*
X-2951656Y19914744D01*
X-2982505Y19905153D01*
X-3018114Y19898709D01*
X-3064406Y19894494D01*
X-3127307Y19891594D01*
X-3165475Y19890390D01*
X-3340100Y19885318D01*
X-3340100Y20180300D01*
X-3162300Y20180300D01*
X-3162300Y20066000D01*
X-3113396Y20066000D01*
X-3045812Y20073989D01*
X-2997423Y20097413D01*
X-2969057Y20135462D01*
X-2961540Y20187325D01*
X-2964567Y20211807D01*
X-2974499Y20243098D01*
X-2993123Y20265673D01*
X-3023986Y20280813D01*
X-3070633Y20289803D01*
X-3136611Y20293924D01*
X-3193420Y20294600D01*
X-3340100Y20294600D01*
X-3340100Y20474782D01*
X-3159125Y20470416D01*
X-3086047Y20468311D01*
X-3032715Y20465500D01*
X-2993476Y20461099D01*
X-2962679Y20454226D01*
X-2934669Y20443998D01*
X-2906759Y20430991D01*
X-2837400Y20385159D01*
X-2788721Y20326753D01*
X-2762210Y20257722D01*
X-2759071Y20237739D01*
X-2752597Y20180300D01*
X-2565400Y20180300D01*
X-2565400Y20066000D01*
X-2516496Y20066000D01*
X-2448912Y20073989D01*
X-2400523Y20097413D01*
X-2372157Y20135462D01*
X-2364640Y20187325D01*
X-2367667Y20211807D01*
X-2377599Y20243098D01*
X-2396223Y20265673D01*
X-2427086Y20280813D01*
X-2473733Y20289803D01*
X-2539711Y20293924D01*
X-2596520Y20294600D01*
X-2743200Y20294600D01*
X-2743200Y20474782D01*
X-2562225Y20470416D01*
G37*
X-1949450Y19894550D02*
X-2133600Y19887088D01*
X-2133600Y20472400D01*
X-1942624Y20472400D01*
X-1949450Y19894550D01*
G36*
X-1949450Y19894550D02*
G01*
X-2133600Y19887088D01*
X-2133600Y20472400D01*
X-1942624Y20472400D01*
X-1949450Y19894550D01*
G37*
X-1712240Y20281413D02*
X-1710262Y20203035D01*
X-1707201Y20146484D01*
X-1701559Y20108190D01*
X-1691837Y20084584D01*
X-1676536Y20072097D01*
X-1654155Y20067159D01*
X-1623197Y20066201D01*
X-1621845Y20066195D01*
X-1573640Y20066000D01*
X-1581150Y19894550D01*
X-1625600Y19892785D01*
X-1667422Y19893687D01*
X-1715755Y19898126D01*
X-1727200Y19899718D01*
X-1783830Y19912462D01*
X-1826414Y19933938D01*
X-1866089Y19969744D01*
X-1879647Y19986280D01*
X-1888898Y20005116D01*
X-1894946Y20031670D01*
X-1898898Y20071360D01*
X-1901859Y20129602D01*
X-1902612Y20148710D01*
X-1905715Y20206173D01*
X-1909960Y20252977D01*
X-1914774Y20284109D01*
X-1919299Y20294600D01*
X-1924770Y20306225D01*
X-1928735Y20336817D01*
X-1930392Y20379954D01*
X-1930400Y20383500D01*
X-1930400Y20472400D01*
X-1716330Y20472400D01*
X-1712240Y20281413D01*
G36*
X-1712240Y20281413D02*
G01*
X-1710262Y20203035D01*
X-1707201Y20146484D01*
X-1701559Y20108190D01*
X-1691837Y20084584D01*
X-1676536Y20072097D01*
X-1654155Y20067159D01*
X-1623197Y20066201D01*
X-1621845Y20066195D01*
X-1573640Y20066000D01*
X-1581150Y19894550D01*
X-1625600Y19892785D01*
X-1667422Y19893687D01*
X-1715755Y19898126D01*
X-1727200Y19899718D01*
X-1783830Y19912462D01*
X-1826414Y19933938D01*
X-1866089Y19969744D01*
X-1879647Y19986280D01*
X-1888898Y20005116D01*
X-1894946Y20031670D01*
X-1898898Y20071360D01*
X-1901859Y20129602D01*
X-1902612Y20148710D01*
X-1905715Y20206173D01*
X-1909960Y20252977D01*
X-1914774Y20284109D01*
X-1919299Y20294600D01*
X-1924770Y20306225D01*
X-1928735Y20336817D01*
X-1930392Y20379954D01*
X-1930400Y20383500D01*
X-1930400Y20472400D01*
X-1716330Y20472400D01*
X-1712240Y20281413D01*
G37*
X-4194114Y24518450D02*
X-4153104Y24504248D01*
X-4101819Y24483421D01*
X-4059208Y24464310D01*
X-3966868Y24426184D01*
X-3882996Y24404036D01*
X-3799669Y24397080D01*
X-3708969Y24404529D01*
X-3622810Y24421000D01*
X-3566150Y24432780D01*
X-3514179Y24441802D01*
X-3475083Y24446712D01*
X-3464060Y24447222D01*
X-3412302Y24439322D01*
X-3362057Y24419126D01*
X-3321351Y24390879D01*
X-3298486Y24359589D01*
X-3280547Y24330529D01*
X-3258257Y24314332D01*
X-3237708Y24311282D01*
X-3196258Y24307516D01*
X-3138385Y24303356D01*
X-3068567Y24299122D01*
X-2991282Y24295138D01*
X-2990850Y24295117D01*
X-2910784Y24290743D01*
X-2835553Y24285531D01*
X-2770385Y24279926D01*
X-2720506Y24274376D01*
X-2692400Y24269648D01*
X-2607492Y24239020D01*
X-2542842Y24193556D01*
X-2497822Y24132417D01*
X-2471800Y24054764D01*
X-2464102Y23965582D01*
X-2469712Y23888118D01*
X-2487625Y23815740D01*
X-2520237Y23741750D01*
X-2569947Y23659452D01*
X-2577957Y23647548D01*
X-2609252Y23602451D01*
X-2638918Y23562652D01*
X-2669361Y23526110D01*
X-2702987Y23490785D01*
X-2742202Y23454636D01*
X-2789412Y23415623D01*
X-2847022Y23371706D01*
X-2917440Y23320843D01*
X-3003070Y23260994D01*
X-3106318Y23190119D01*
X-3162300Y23151952D01*
X-3270185Y23078267D01*
X-3359004Y23016981D01*
X-3430870Y22966471D01*
X-3487897Y22925113D01*
X-3532196Y22891283D01*
X-3565880Y22863358D01*
X-3591063Y22839713D01*
X-3609856Y22818726D01*
X-3624372Y22798771D01*
X-3626864Y22794896D01*
X-3659485Y22755564D01*
X-3695990Y22737411D01*
X-3697995Y22736987D01*
X-3737567Y22729072D01*
X-3721871Y22371050D01*
X-3785897Y22294850D01*
X-3813187Y22261721D01*
X-3852702Y22212874D01*
X-3901014Y22152594D01*
X-3954693Y22085162D01*
X-4010308Y22014865D01*
X-4025397Y21995712D01*
X-4079263Y21928295D01*
X-4130888Y21865559D01*
X-4177238Y21811046D01*
X-4215280Y21768298D01*
X-4241983Y21740858D01*
X-4248295Y21735362D01*
X-4316755Y21677928D01*
X-4370877Y21623146D01*
X-4416420Y21563774D01*
X-4459141Y21492565D01*
X-4491883Y21428888D01*
X-4524421Y21364441D01*
X-4549174Y21320067D01*
X-4568326Y21292479D01*
X-4584063Y21278388D01*
X-4594303Y21274782D01*
X-4619957Y21279414D01*
X-4642067Y21304468D01*
X-4645103Y21309627D01*
X-4669437Y21339861D01*
X-4695345Y21345702D01*
X-4724582Y21327052D01*
X-4744440Y21304082D01*
X-4772099Y21274590D01*
X-4799929Y21255023D01*
X-4807387Y21252206D01*
X-4827551Y21242364D01*
X-4840657Y21222026D01*
X-4848027Y21186803D01*
X-4850986Y21132304D01*
X-4851227Y21106765D01*
X-4854339Y21047560D01*
X-4864348Y21010283D01*
X-4882700Y20994747D01*
X-4910844Y21000762D01*
X-4950226Y21028140D01*
X-5002295Y21076691D01*
X-5011371Y21085872D01*
X-5073794Y21154212D01*
X-5117649Y21214645D01*
X-5145931Y21272685D01*
X-5161636Y21333847D01*
X-5165977Y21370552D01*
X-5170072Y21411755D01*
X-5174442Y21440561D01*
X-5177824Y21450300D01*
X-5192063Y21445037D01*
X-5207065Y21437566D01*
X-5228639Y21431595D01*
X-5237349Y21435332D01*
X-5240757Y21450972D01*
X-5245968Y21487370D01*
X-5252413Y21539996D01*
X-5259525Y21604319D01*
X-5264020Y21648092D01*
X-5272291Y21723674D01*
X-5281554Y21796398D01*
X-5290893Y21859772D01*
X-5299388Y21907307D01*
X-5302751Y21922034D01*
X-5312901Y21967204D01*
X-5318680Y22011142D01*
X-5320070Y22059414D01*
X-5317050Y22117587D01*
X-5309601Y22191227D01*
X-5301565Y22256317D01*
X-5293900Y22325119D01*
X-5288361Y22393429D01*
X-5285547Y22452512D01*
X-5285690Y22487887D01*
X-5289550Y22566410D01*
X-5378450Y22530527D01*
X-5422616Y22514133D01*
X-5457901Y22503676D01*
X-5477635Y22501083D01*
X-5478919Y22501535D01*
X-5481770Y22505967D01*
X-5477777Y22514334D01*
X-5464518Y22529010D01*
X-5439572Y22552369D01*
X-5400516Y22586784D01*
X-5344929Y22634628D01*
X-5330667Y22646827D01*
X-5312878Y22664637D01*
X-5206923Y22664637D01*
X-5202118Y22654718D01*
X-5181397Y22663539D01*
X-5163298Y22676254D01*
X-5131481Y22690678D01*
X-5104012Y22694900D01*
X-5062191Y22698035D01*
X-5040667Y22710586D01*
X-5034775Y22737269D01*
X-5036900Y22762778D01*
X-5035397Y22824863D01*
X-5023793Y22871122D01*
X-5007373Y22921905D01*
X-5002641Y22950584D01*
X-5009670Y22957115D01*
X-5028530Y22941454D01*
X-5059294Y22903557D01*
X-5102034Y22843380D01*
X-5125227Y22808968D01*
X-5168539Y22741548D01*
X-5195750Y22693509D01*
X-5206923Y22664637D01*
X-5312878Y22664637D01*
X-5295637Y22681897D01*
X-5251533Y22733655D01*
X-5202140Y22796888D01*
X-5151243Y22866379D01*
X-5102628Y22936915D01*
X-5060079Y23003280D01*
X-5027383Y23060260D01*
X-5020066Y23074734D01*
X-5005452Y23108872D01*
X-5002279Y23133021D01*
X-5013484Y23149664D01*
X-5042006Y23161280D01*
X-5090782Y23170353D01*
X-5140916Y23176801D01*
X-5230828Y23191438D01*
X-5315598Y23214327D01*
X-5399583Y23247502D01*
X-5487141Y23292996D01*
X-5582629Y23352842D01*
X-5690404Y23429075D01*
X-5705467Y23440236D01*
X-5777111Y23499934D01*
X-5849594Y23571728D01*
X-5919536Y23651186D01*
X-5983555Y23733879D01*
X-6038269Y23815377D01*
X-6080297Y23891250D01*
X-6106257Y23957068D01*
X-6109403Y23969431D01*
X-6117172Y24014377D01*
X-6116456Y24052675D01*
X-6115944Y24055027D01*
X-6044899Y24055027D01*
X-6032585Y23967288D01*
X-5998026Y23875863D01*
X-5943717Y23782828D01*
X-5872149Y23690263D01*
X-5785817Y23600245D01*
X-5687214Y23514851D01*
X-5578832Y23436161D01*
X-5463164Y23366251D01*
X-5342705Y23307200D01*
X-5219946Y23261085D01*
X-5097381Y23229985D01*
X-5045075Y23221710D01*
X-5003711Y23217935D01*
X-4983414Y23222549D01*
X-4980314Y23239133D01*
X-4990538Y23271269D01*
X-4990786Y23271924D01*
X-5009500Y23298069D01*
X-5036071Y23304500D01*
X-5073371Y23310104D01*
X-5101297Y23324014D01*
X-5116476Y23341883D01*
X-5115540Y23359361D01*
X-5095117Y23372099D01*
X-5089525Y23373468D01*
X-5066734Y23376197D01*
X-5024118Y23379542D01*
X-4967229Y23383126D01*
X-4901625Y23386574D01*
X-4882729Y23387451D01*
X-4791965Y23392097D01*
X-4723581Y23397121D01*
X-4674554Y23403068D01*
X-4641865Y23410482D01*
X-4622493Y23419911D01*
X-4613416Y23431900D01*
X-4612203Y23436313D01*
X-4617916Y23461999D01*
X-4639655Y23490858D01*
X-4671247Y23518459D01*
X-4706522Y23540369D01*
X-4739307Y23552156D01*
X-4763431Y23549389D01*
X-4766359Y23547022D01*
X-4786947Y23538386D01*
X-4821761Y23533506D01*
X-4835337Y23533100D01*
X-4877318Y23528601D01*
X-4913280Y23517420D01*
X-4920083Y23513647D01*
X-4949130Y23500780D01*
X-4992092Y23488480D01*
X-5023230Y23482239D01*
X-5084953Y23467287D01*
X-5124417Y23444707D01*
X-5144257Y23411914D01*
X-5147109Y23366322D01*
X-5146588Y23361199D01*
X-5144477Y23324334D01*
X-5150179Y23304821D01*
X-5162761Y23296312D01*
X-5187015Y23297531D01*
X-5205340Y23317900D01*
X-5216536Y23351617D01*
X-5219406Y23392877D01*
X-5212753Y23435875D01*
X-5198552Y23469734D01*
X-5170826Y23502954D01*
X-5130562Y23525369D01*
X-5071803Y23540160D01*
X-5064463Y23541377D01*
X-5022006Y23551044D01*
X-4984701Y23564108D01*
X-4979151Y23566783D01*
X-4941671Y23579439D01*
X-4906931Y23583822D01*
X-4873748Y23589642D01*
X-4851400Y23602950D01*
X-4822831Y23619050D01*
X-4779919Y23621838D01*
X-4728924Y23612865D01*
X-4676103Y23593679D01*
X-4627714Y23565830D01*
X-4598162Y23540261D01*
X-4569307Y23509547D01*
X-4528470Y23550385D01*
X-4479071Y23586155D01*
X-4418044Y23610440D01*
X-4352758Y23622088D01*
X-4290581Y23619947D01*
X-4238882Y23602866D01*
X-4229769Y23597076D01*
X-4194960Y23578579D01*
X-4150577Y23562684D01*
X-4136677Y23559134D01*
X-4071685Y23541124D01*
X-4031097Y23521496D01*
X-4013942Y23499734D01*
X-4013200Y23493711D01*
X-4019903Y23468754D01*
X-4039491Y23465462D01*
X-4062448Y23477562D01*
X-4090775Y23489205D01*
X-4133066Y23497814D01*
X-4161896Y23500500D01*
X-4208426Y23505152D01*
X-4237751Y23515492D01*
X-4256062Y23531875D01*
X-4293759Y23559299D01*
X-4344236Y23567566D01*
X-4403112Y23556241D01*
X-4423114Y23548364D01*
X-4473662Y23519158D01*
X-4504902Y23486141D01*
X-4514624Y23452296D01*
X-4508956Y23432352D01*
X-4489407Y23411541D01*
X-4473129Y23405891D01*
X-4421819Y23404425D01*
X-4365964Y23401308D01*
X-4312630Y23397116D01*
X-4268888Y23392425D01*
X-4241806Y23387809D01*
X-4238625Y23386799D01*
X-4220397Y23385038D01*
X-4216400Y23390841D01*
X-4204928Y23396059D01*
X-4174972Y23398278D01*
X-4133224Y23397864D01*
X-4086379Y23395184D01*
X-4041128Y23390602D01*
X-4004163Y23384486D01*
X-3983806Y23378124D01*
X-3968345Y23365347D01*
X-3975340Y23348696D01*
X-3976855Y23346837D01*
X-3991885Y23336534D01*
X-4018777Y23331462D01*
X-4063001Y23330889D01*
X-4088800Y23331848D01*
X-4184650Y23336250D01*
X-4185574Y23256945D01*
X-4185678Y23214164D01*
X-4183576Y23192587D01*
X-4177561Y23188025D01*
X-4165926Y23196286D01*
X-4162216Y23199613D01*
X-4145298Y23213281D01*
X-4140308Y23207981D01*
X-4142243Y23184925D01*
X-4158874Y23142735D01*
X-4196142Y23113341D01*
X-4252098Y23097916D01*
X-4290073Y23095813D01*
X-4359967Y23103782D01*
X-4416118Y23125526D01*
X-4454131Y23159173D01*
X-4459690Y23168107D01*
X-4468420Y23197227D01*
X-4473321Y23239433D01*
X-4473741Y23263225D01*
X-4473785Y23264777D01*
X-4431455Y23264777D01*
X-4425013Y23260416D01*
X-4408583Y23268297D01*
X-4376971Y23277425D01*
X-4353047Y23265493D01*
X-4343403Y23235841D01*
X-4343400Y23235291D01*
X-4351156Y23207999D01*
X-4375150Y23195416D01*
X-4398925Y23185610D01*
X-4406900Y23176124D01*
X-4395771Y23168614D01*
X-4367948Y23165313D01*
X-4331776Y23166173D01*
X-4295603Y23171145D01*
X-4275149Y23176893D01*
X-4237886Y23201252D01*
X-4221872Y23234386D01*
X-4227245Y23270944D01*
X-4254144Y23305577D01*
X-4271509Y23318029D01*
X-4318107Y23338903D01*
X-4357130Y23337599D01*
X-4394050Y23313736D01*
X-4398819Y23309119D01*
X-4422456Y23282129D01*
X-4431455Y23264777D01*
X-4473785Y23264777D01*
X-4474810Y23300465D01*
X-4479046Y23324666D01*
X-4483101Y23329900D01*
X-4499027Y23337402D01*
X-4524646Y23355922D01*
X-4530461Y23360705D01*
X-4567071Y23391510D01*
X-4584682Y23363880D01*
X-4595908Y23336168D01*
X-4606204Y23294000D01*
X-4611363Y23261523D01*
X-4628796Y23195568D01*
X-4661302Y23148319D01*
X-4706421Y23121347D01*
X-4761693Y23116222D01*
X-4816092Y23130745D01*
X-4865558Y23162102D01*
X-4894827Y23207408D01*
X-4905102Y23268686D01*
X-4905063Y23280141D01*
X-4906291Y23309869D01*
X-4843670Y23309869D01*
X-4840642Y23294745D01*
X-4827157Y23291800D01*
X-4796536Y23281118D01*
X-4779714Y23252864D01*
X-4779484Y23216407D01*
X-4781331Y23188081D01*
X-4769833Y23175637D01*
X-4765190Y23174313D01*
X-4723029Y23176834D01*
X-4686944Y23201009D01*
X-4674823Y23217810D01*
X-4660765Y23259558D01*
X-4670639Y23292985D01*
X-4704262Y23317757D01*
X-4734259Y23327945D01*
X-4788441Y23337199D01*
X-4823959Y23331753D01*
X-4843127Y23311225D01*
X-4843670Y23309869D01*
X-4906291Y23309869D01*
X-4906718Y23320189D01*
X-4912729Y23339784D01*
X-4921267Y23337399D01*
X-4930501Y23311509D01*
X-4932363Y23302913D01*
X-4937003Y23266870D01*
X-4939706Y23219170D01*
X-4940586Y23165739D01*
X-4939760Y23112499D01*
X-4937343Y23065377D01*
X-4933451Y23030295D01*
X-4928199Y23013178D01*
X-4926687Y23012400D01*
X-4908380Y23018368D01*
X-4877413Y23033509D01*
X-4860012Y23043209D01*
X-4820501Y23062251D01*
X-4771352Y23080539D01*
X-4719822Y23096023D01*
X-4673167Y23106656D01*
X-4638647Y23110389D01*
X-4627578Y23108804D01*
X-4610865Y23096478D01*
X-4619022Y23082254D01*
X-4651621Y23066552D01*
X-4679940Y23057400D01*
X-4733833Y23036200D01*
X-4794333Y23003710D01*
X-4855051Y22964330D01*
X-4909596Y22922460D01*
X-4951578Y22882500D01*
X-4970467Y22857334D01*
X-4986616Y22826830D01*
X-4990021Y22808837D01*
X-4981431Y22794350D01*
X-4976174Y22788886D01*
X-4950671Y22774798D01*
X-4910593Y22764138D01*
X-4890308Y22761348D01*
X-4846296Y22759699D01*
X-4813719Y22767281D01*
X-4779341Y22787286D01*
X-4777552Y22788521D01*
X-4746801Y22808484D01*
X-4724673Y22820411D01*
X-4719656Y22821900D01*
X-4704525Y22828571D01*
X-4676092Y22845703D01*
X-4653515Y22860713D01*
X-4595865Y22896531D01*
X-4549258Y22915356D01*
X-4507525Y22918873D01*
X-4470365Y22910789D01*
X-4432260Y22902957D01*
X-4395233Y22902713D01*
X-4367205Y22909286D01*
X-4356101Y22921904D01*
X-4356100Y22921905D01*
X-4366969Y22932172D01*
X-4393521Y22943165D01*
X-4397375Y22944312D01*
X-4431176Y22961524D01*
X-4442709Y22984249D01*
X-4441550Y23004227D01*
X-4425545Y23011667D01*
X-4408533Y23012400D01*
X-4378876Y23008573D01*
X-4362450Y22999700D01*
X-4344813Y22990924D01*
X-4313417Y22987403D01*
X-4279335Y22989036D01*
X-4253637Y22995726D01*
X-4247515Y23000730D01*
X-4229271Y23008389D01*
X-4205490Y23005311D01*
X-4165776Y22998818D01*
X-4138019Y22998058D01*
X-4110675Y22993445D01*
X-4090594Y22971829D01*
X-4083848Y22959383D01*
X-4071638Y22923149D01*
X-4078597Y22903458D01*
X-4103922Y22901154D01*
X-4130853Y22909796D01*
X-4172783Y22923293D01*
X-4218538Y22932708D01*
X-4221128Y22933046D01*
X-4250949Y22934821D01*
X-4272954Y22928162D01*
X-4295727Y22908753D01*
X-4317162Y22884760D01*
X-4346910Y22854225D01*
X-4376048Y22836594D01*
X-4411358Y22830273D01*
X-4459617Y22833670D01*
X-4504034Y22840850D01*
X-4538066Y22844615D01*
X-4565651Y22839286D01*
X-4597562Y22821907D01*
X-4614511Y22810535D01*
X-4655910Y22780634D01*
X-4675316Y22762878D01*
X-4672861Y22756941D01*
X-4648682Y22762500D01*
X-4632111Y22768174D01*
X-4603222Y22774212D01*
X-4553918Y22779943D01*
X-4489182Y22785179D01*
X-4414000Y22789730D01*
X-4333354Y22793405D01*
X-4252231Y22796014D01*
X-4175613Y22797369D01*
X-4108486Y22797279D01*
X-4055833Y22795555D01*
X-4022639Y22792006D01*
X-4020292Y22791471D01*
X-3994626Y22778266D01*
X-3988427Y22761424D01*
X-4001772Y22748474D01*
X-4019824Y22745700D01*
X-4045322Y22741177D01*
X-4087252Y22729037D01*
X-4138596Y22711430D01*
X-4167547Y22700490D01*
X-4307213Y22657848D01*
X-4446754Y22638515D01*
X-4582558Y22642991D01*
X-4583193Y22643070D01*
X-4644953Y22653345D01*
X-4684714Y22666752D01*
X-4705836Y22684994D01*
X-4711700Y22708182D01*
X-4711941Y22709563D01*
X-4632730Y22709563D01*
X-4628980Y22697022D01*
X-4614738Y22697037D01*
X-4596593Y22706256D01*
X-4594225Y22714124D01*
X-4603607Y22723240D01*
X-4446386Y22723240D01*
X-4446174Y22704756D01*
X-4444235Y22699225D01*
X-4434257Y22681717D01*
X-4417068Y22677235D01*
X-4387679Y22682239D01*
X-4355618Y22690823D01*
X-4335845Y22698618D01*
X-4334283Y22699785D01*
X-4338060Y22708649D01*
X-4358530Y22718646D01*
X-4387290Y22726990D01*
X-4415938Y22730896D01*
X-4426780Y22730435D01*
X-4446386Y22723240D01*
X-4603607Y22723240D01*
X-4606393Y22725946D01*
X-4623973Y22721690D01*
X-4632730Y22709563D01*
X-4711941Y22709563D01*
X-4714271Y22722903D01*
X-4726667Y22723007D01*
X-4746625Y22714232D01*
X-4769815Y22706466D01*
X-4813525Y22694870D01*
X-4873337Y22680443D01*
X-4944836Y22664183D01*
X-5023604Y22647088D01*
X-5105224Y22630157D01*
X-5185280Y22614389D01*
X-5203825Y22610879D01*
X-5221179Y22604388D01*
X-5229671Y22588758D01*
X-5232304Y22556923D01*
X-5232400Y22543617D01*
X-5229126Y22499936D01*
X-5218716Y22477679D01*
X-5213350Y22474408D01*
X-5199051Y22460663D01*
X-5195736Y22432776D01*
X-5203626Y22388070D01*
X-5222942Y22323868D01*
X-5226647Y22312950D01*
X-5248118Y22237150D01*
X-5262185Y22159678D01*
X-5268368Y22086662D01*
X-5266189Y22024230D01*
X-5255167Y21978509D01*
X-5253150Y21974286D01*
X-5239223Y21930005D01*
X-5232466Y21868049D01*
X-5232014Y21847806D01*
X-5230888Y21802871D01*
X-5227677Y21780812D01*
X-5221867Y21779152D01*
X-5218683Y21783675D01*
X-5202461Y21804912D01*
X-5191205Y21803639D01*
X-5184664Y21779156D01*
X-5182589Y21730762D01*
X-5183550Y21685241D01*
X-5184758Y21633422D01*
X-5184411Y21592748D01*
X-5182625Y21568725D01*
X-5180965Y21564591D01*
X-5167009Y21572361D01*
X-5159594Y21578987D01*
X-5136630Y21587908D01*
X-5126652Y21586253D01*
X-5117556Y21577880D01*
X-5112942Y21558367D01*
X-5112300Y21522874D01*
X-5114741Y21472636D01*
X-5115477Y21398863D01*
X-5105650Y21337316D01*
X-5082566Y21281393D01*
X-5043535Y21224491D01*
X-4988348Y21162589D01*
X-4908550Y21079397D01*
X-4901085Y21195661D01*
X-4894781Y21263458D01*
X-4885875Y21308066D01*
X-4873942Y21331602D01*
X-4873871Y21331673D01*
X-4857748Y21343718D01*
X-4842609Y21338747D01*
X-4827824Y21325124D01*
X-4810105Y21310218D01*
X-4798104Y21309959D01*
X-4789858Y21327334D01*
X-4783401Y21365333D01*
X-4779660Y21398420D01*
X-4779091Y21402362D01*
X-4610866Y21402362D01*
X-4605532Y21374652D01*
X-4601634Y21369867D01*
X-4593364Y21363379D01*
X-4586023Y21366858D01*
X-4575885Y21384795D01*
X-4559895Y21420165D01*
X-4542562Y21460188D01*
X-4536366Y21479991D01*
X-4542156Y21482577D01*
X-4560782Y21470949D01*
X-4572000Y21463000D01*
X-4598802Y21434598D01*
X-4610866Y21402362D01*
X-4779091Y21402362D01*
X-4772716Y21446481D01*
X-4764688Y21470791D01*
X-4756034Y21470842D01*
X-4747215Y21446125D01*
X-4745137Y21436509D01*
X-4737416Y21412083D01*
X-4725565Y21404189D01*
X-4707183Y21414070D01*
X-4679872Y21442972D01*
X-4643438Y21489221D01*
X-4612180Y21528943D01*
X-4584875Y21560905D01*
X-4566457Y21579395D01*
X-4563962Y21581163D01*
X-4539668Y21585684D01*
X-4524745Y21568027D01*
X-4521200Y21542188D01*
X-4519786Y21526127D01*
X-4513653Y21525704D01*
X-4499965Y21543113D01*
X-4479925Y21574119D01*
X-4429008Y21653850D01*
X-4388913Y21713734D01*
X-4357868Y21755980D01*
X-4334100Y21782799D01*
X-4315833Y21796399D01*
X-4301295Y21798990D01*
X-4299677Y21798656D01*
X-4281043Y21800172D01*
X-4257690Y21815476D01*
X-4225599Y21847554D01*
X-4209456Y21865703D01*
X-4137911Y21950196D01*
X-4069937Y22034956D01*
X-4010053Y22114162D01*
X-3962778Y22181992D01*
X-3956907Y22191055D01*
X-3929400Y22230688D01*
X-3903291Y22262715D01*
X-3885665Y22279082D01*
X-3865738Y22302513D01*
X-3860800Y22321824D01*
X-3850554Y22347329D01*
X-3836489Y22355396D01*
X-3805546Y22374510D01*
X-3785611Y22413485D01*
X-3776370Y22473443D01*
X-3777509Y22555506D01*
X-3778141Y22564429D01*
X-3783462Y22622844D01*
X-3789301Y22658966D01*
X-3796355Y22675902D01*
X-3803501Y22677665D01*
X-3819655Y22681505D01*
X-3828117Y22706348D01*
X-3829120Y22749065D01*
X-3822898Y22806527D01*
X-3818618Y22828900D01*
X-3770605Y22828900D01*
X-3766210Y22812425D01*
X-3756025Y22804911D01*
X-3732788Y22798315D01*
X-3715078Y22805845D01*
X-3706928Y22812375D01*
X-3687975Y22832097D01*
X-3662750Y22862976D01*
X-3652724Y22876308D01*
X-3626174Y22906151D01*
X-3586037Y22943856D01*
X-3539563Y22982757D01*
X-3523274Y22995322D01*
X-3478417Y23029976D01*
X-3450491Y23054869D01*
X-3435578Y23074752D01*
X-3429760Y23094372D01*
X-3429000Y23109597D01*
X-3435890Y23161243D01*
X-3453988Y23209046D01*
X-3479439Y23244213D01*
X-3492098Y23253485D01*
X-3525527Y23258340D01*
X-3566778Y23246490D01*
X-3609497Y23222306D01*
X-3647331Y23190161D01*
X-3673924Y23154424D01*
X-3683000Y23122162D01*
X-3683000Y23095649D01*
X-3663972Y23122816D01*
X-3638489Y23146554D01*
X-3601776Y23165991D01*
X-3559922Y23179869D01*
X-3519013Y23186931D01*
X-3485136Y23185919D01*
X-3464379Y23175575D01*
X-3460750Y23164800D01*
X-3472735Y23149203D01*
X-3505200Y23141865D01*
X-3545222Y23131847D01*
X-3569269Y23107788D01*
X-3580089Y23065847D01*
X-3581400Y23035373D01*
X-3585657Y22988264D01*
X-3600216Y22956554D01*
X-3608070Y22947631D01*
X-3633405Y22929458D01*
X-3648828Y22932364D01*
X-3652577Y22953370D01*
X-3642893Y22989499D01*
X-3638682Y22999409D01*
X-3624093Y23034068D01*
X-3622180Y23052766D01*
X-3634866Y23062552D01*
X-3657627Y23068901D01*
X-3672996Y23071049D01*
X-3685061Y23065902D01*
X-3696761Y23049293D01*
X-3711033Y23017053D01*
X-3730761Y22965159D01*
X-3753473Y22901504D01*
X-3766557Y22857339D01*
X-3770605Y22828900D01*
X-3818618Y22828900D01*
X-3809683Y22875605D01*
X-3789709Y22953169D01*
X-3780747Y22983086D01*
X-3764925Y23037083D01*
X-3751528Y23088367D01*
X-3743139Y23126959D01*
X-3742492Y23130907D01*
X-3739027Y23161068D01*
X-3742352Y23170665D01*
X-3753482Y23164277D01*
X-3767217Y23140894D01*
X-3771900Y23113272D01*
X-3777088Y23065843D01*
X-3790989Y23031733D01*
X-3811109Y23015765D01*
X-3822205Y23015951D01*
X-3850091Y23012433D01*
X-3865475Y23001498D01*
X-3880998Y22973583D01*
X-3896012Y22928559D01*
X-3908188Y22874650D01*
X-3914530Y22828359D01*
X-3924837Y22796116D01*
X-3943941Y22785300D01*
X-3965628Y22796940D01*
X-3978480Y22817755D01*
X-3999172Y22846010D01*
X-4019550Y22853650D01*
X-4040042Y22864010D01*
X-4050193Y22888064D01*
X-4047286Y22915280D01*
X-4038774Y22928140D01*
X-4023387Y22933547D01*
X-4004221Y22918129D01*
X-4000887Y22914159D01*
X-3983549Y22896079D01*
X-3973986Y22897611D01*
X-3970039Y22905673D01*
X-3964671Y22931998D01*
X-3962401Y22967630D01*
X-3962400Y22968082D01*
X-3955546Y23004795D01*
X-3938481Y23034992D01*
X-3916455Y23050059D01*
X-3912175Y23050500D01*
X-3901235Y23061112D01*
X-3894767Y23077635D01*
X-3885595Y23095950D01*
X-3866252Y23099697D01*
X-3848083Y23096852D01*
X-3808494Y23088934D01*
X-3817057Y23146033D01*
X-3819002Y23184556D01*
X-3733800Y23184556D01*
X-3706636Y23211721D01*
X-3688564Y23238651D01*
X-3687187Y23258993D01*
X-3703900Y23276539D01*
X-3714352Y23279100D01*
X-3728222Y23270565D01*
X-3733596Y23242352D01*
X-3733800Y23231828D01*
X-3733800Y23184556D01*
X-3819002Y23184556D01*
X-3819489Y23194204D01*
X-3810485Y23221367D01*
X-3805835Y23231828D01*
X-3796358Y23253148D01*
X-3806626Y23283044D01*
X-3840284Y23309246D01*
X-3865575Y23320400D01*
X-3919177Y23346946D01*
X-3961180Y23380584D01*
X-3988951Y23417357D01*
X-3999859Y23453308D01*
X-3991270Y23484478D01*
X-3981612Y23494866D01*
X-3954981Y23505142D01*
X-3933532Y23493928D01*
X-3924315Y23465064D01*
X-3924300Y23463649D01*
X-3920432Y23439585D01*
X-3912877Y23431500D01*
X-3896990Y23424880D01*
X-3867298Y23407686D01*
X-3837034Y23388150D01*
X-3771978Y23353841D01*
X-3694920Y23327639D01*
X-3615687Y23312018D01*
X-3544106Y23309451D01*
X-3530212Y23310904D01*
X-3481653Y23311453D01*
X-3444393Y23295908D01*
X-3414852Y23261340D01*
X-3389445Y23204821D01*
X-3385093Y23192263D01*
X-3359150Y23115002D01*
X-3254778Y23181176D01*
X-3195102Y23218570D01*
X-3125404Y23261580D01*
X-3057534Y23302912D01*
X-3033788Y23317200D01*
X-2931537Y23386243D01*
X-2833025Y23467394D01*
X-2742162Y23556444D01*
X-2662859Y23649184D01*
X-2599024Y23741404D01*
X-2554569Y23828894D01*
X-2551723Y23836207D01*
X-2532266Y23904452D01*
X-2523605Y23973500D01*
X-2525839Y24036432D01*
X-2539071Y24086329D01*
X-2547815Y24101572D01*
X-2589519Y24140767D01*
X-2652110Y24171721D01*
X-2736270Y24194573D01*
X-2842686Y24209461D01*
X-2972039Y24216526D01*
X-3111500Y24216245D01*
X-3270250Y24212550D01*
X-3284890Y24011150D01*
X-3292828Y23905546D01*
X-3300030Y23822581D01*
X-3307265Y23759539D01*
X-3315305Y23713701D01*
X-3324923Y23682353D01*
X-3336888Y23662777D01*
X-3351974Y23652256D01*
X-3370951Y23648075D01*
X-3388172Y23647466D01*
X-3418655Y23650542D01*
X-3450656Y23661079D01*
X-3487472Y23681168D01*
X-3532399Y23712897D01*
X-3588733Y23758358D01*
X-3659771Y23819639D01*
X-3659916Y23819767D01*
X-3746865Y23895521D01*
X-3819934Y23957398D01*
X-3883678Y24008992D01*
X-3942654Y24053896D01*
X-4001417Y24095706D01*
X-4057650Y24133502D01*
X-4173728Y24203428D01*
X-4299260Y24267715D01*
X-4427938Y24323719D01*
X-4553455Y24368799D01*
X-4561398Y24370956D01*
X-4342938Y24370956D01*
X-4332527Y24362836D01*
X-4304146Y24346433D01*
X-4262704Y24324492D01*
X-4233322Y24309668D01*
X-4067188Y24216287D01*
X-3896095Y24098572D01*
X-3720653Y23956967D01*
X-3588827Y23837482D01*
X-3543336Y23795817D01*
X-3498247Y23756945D01*
X-3460834Y23727052D01*
X-3448888Y23718478D01*
X-3414887Y23699408D01*
X-3390517Y23697157D01*
X-3373409Y23713913D01*
X-3361190Y23751861D01*
X-3352196Y23807624D01*
X-3347972Y23853498D01*
X-3344408Y23916987D01*
X-3341837Y23990309D01*
X-3340594Y24065679D01*
X-3340536Y24079200D01*
X-3341748Y24176657D01*
X-3347315Y24251154D01*
X-3359425Y24305040D01*
X-3380265Y24340662D01*
X-3412024Y24360368D01*
X-3456891Y24366507D01*
X-3517052Y24361426D01*
X-3591196Y24348179D01*
X-3692331Y24330126D01*
X-3775941Y24321452D01*
X-3848380Y24322878D01*
X-3916001Y24335121D01*
X-3985158Y24358903D01*
X-4062205Y24394943D01*
X-4078558Y24403391D01*
X-4145067Y24433470D01*
X-4198775Y24445841D01*
X-4244873Y24440722D01*
X-4288554Y24418333D01*
X-4296443Y24412575D01*
X-4324070Y24390346D01*
X-4340752Y24374482D01*
X-4342938Y24370956D01*
X-4561398Y24370956D01*
X-4669502Y24400312D01*
X-4715664Y24409154D01*
X-4757478Y24413534D01*
X-4819801Y24416958D01*
X-4897762Y24419432D01*
X-4986489Y24420959D01*
X-5081110Y24421542D01*
X-5176752Y24421186D01*
X-5268543Y24419895D01*
X-5351612Y24417672D01*
X-5421086Y24414522D01*
X-5472094Y24410449D01*
X-5486400Y24408535D01*
X-5610241Y24381126D01*
X-5729336Y24340832D01*
X-5838433Y24290054D01*
X-5932279Y24231196D01*
X-5998386Y24174308D01*
X-6025812Y24143497D01*
X-6039711Y24116927D01*
X-6044524Y24083210D01*
X-6044899Y24055027D01*
X-6115944Y24055027D01*
X-6106639Y24097756D01*
X-6102902Y24110932D01*
X-6087579Y24154235D01*
X-6066611Y24191364D01*
X-6034687Y24230409D01*
X-6002943Y24263249D01*
X-5929698Y24325493D01*
X-5844166Y24377556D01*
X-5744512Y24419900D01*
X-5628901Y24452990D01*
X-5495497Y24477289D01*
X-5342465Y24493260D01*
X-5167969Y24501366D01*
X-5054600Y24502647D01*
X-4952109Y24501991D01*
X-4868391Y24499349D01*
X-4796846Y24493803D01*
X-4730870Y24484436D01*
X-4663861Y24470332D01*
X-4589216Y24450572D01*
X-4508919Y24426852D01*
X-4401388Y24394203D01*
X-4373067Y24427128D01*
X-4334023Y24464808D01*
X-4289135Y24496674D01*
X-4246261Y24517813D01*
X-4218608Y24523700D01*
X-4194114Y24518450D01*
G36*
X-4194114Y24518450D02*
G01*
X-4153104Y24504248D01*
X-4101819Y24483421D01*
X-4059208Y24464310D01*
X-3966868Y24426184D01*
X-3882996Y24404036D01*
X-3799669Y24397080D01*
X-3708969Y24404529D01*
X-3622810Y24421000D01*
X-3566150Y24432780D01*
X-3514179Y24441802D01*
X-3475083Y24446712D01*
X-3464060Y24447222D01*
X-3412302Y24439322D01*
X-3362057Y24419126D01*
X-3321351Y24390879D01*
X-3298486Y24359589D01*
X-3280547Y24330529D01*
X-3258257Y24314332D01*
X-3237708Y24311282D01*
X-3196258Y24307516D01*
X-3138385Y24303356D01*
X-3068567Y24299122D01*
X-2991282Y24295138D01*
X-2990850Y24295117D01*
X-2910784Y24290743D01*
X-2835553Y24285531D01*
X-2770385Y24279926D01*
X-2720506Y24274376D01*
X-2692400Y24269648D01*
X-2607492Y24239020D01*
X-2542842Y24193556D01*
X-2497822Y24132417D01*
X-2471800Y24054764D01*
X-2464102Y23965582D01*
X-2469712Y23888118D01*
X-2487625Y23815740D01*
X-2520237Y23741750D01*
X-2569947Y23659452D01*
X-2577957Y23647548D01*
X-2609252Y23602451D01*
X-2638918Y23562652D01*
X-2669361Y23526110D01*
X-2702987Y23490785D01*
X-2742202Y23454636D01*
X-2789412Y23415623D01*
X-2847022Y23371706D01*
X-2917440Y23320843D01*
X-3003070Y23260994D01*
X-3106318Y23190119D01*
X-3162300Y23151952D01*
X-3270185Y23078267D01*
X-3359004Y23016981D01*
X-3430870Y22966471D01*
X-3487897Y22925113D01*
X-3532196Y22891283D01*
X-3565880Y22863358D01*
X-3591063Y22839713D01*
X-3609856Y22818726D01*
X-3624372Y22798771D01*
X-3626864Y22794896D01*
X-3659485Y22755564D01*
X-3695990Y22737411D01*
X-3697995Y22736987D01*
X-3737567Y22729072D01*
X-3721871Y22371050D01*
X-3785897Y22294850D01*
X-3813187Y22261721D01*
X-3852702Y22212874D01*
X-3901014Y22152594D01*
X-3954693Y22085162D01*
X-4010308Y22014865D01*
X-4025397Y21995712D01*
X-4079263Y21928295D01*
X-4130888Y21865559D01*
X-4177238Y21811046D01*
X-4215280Y21768298D01*
X-4241983Y21740858D01*
X-4248295Y21735362D01*
X-4316755Y21677928D01*
X-4370877Y21623146D01*
X-4416420Y21563774D01*
X-4459141Y21492565D01*
X-4491883Y21428888D01*
X-4524421Y21364441D01*
X-4549174Y21320067D01*
X-4568326Y21292479D01*
X-4584063Y21278388D01*
X-4594303Y21274782D01*
X-4619957Y21279414D01*
X-4642067Y21304468D01*
X-4645103Y21309627D01*
X-4669437Y21339861D01*
X-4695345Y21345702D01*
X-4724582Y21327052D01*
X-4744440Y21304082D01*
X-4772099Y21274590D01*
X-4799929Y21255023D01*
X-4807387Y21252206D01*
X-4827551Y21242364D01*
X-4840657Y21222026D01*
X-4848027Y21186803D01*
X-4850986Y21132304D01*
X-4851227Y21106765D01*
X-4854339Y21047560D01*
X-4864348Y21010283D01*
X-4882700Y20994747D01*
X-4910844Y21000762D01*
X-4950226Y21028140D01*
X-5002295Y21076691D01*
X-5011371Y21085872D01*
X-5073794Y21154212D01*
X-5117649Y21214645D01*
X-5145931Y21272685D01*
X-5161636Y21333847D01*
X-5165977Y21370552D01*
X-5170072Y21411755D01*
X-5174442Y21440561D01*
X-5177824Y21450300D01*
X-5192063Y21445037D01*
X-5207065Y21437566D01*
X-5228639Y21431595D01*
X-5237349Y21435332D01*
X-5240757Y21450972D01*
X-5245968Y21487370D01*
X-5252413Y21539996D01*
X-5259525Y21604319D01*
X-5264020Y21648092D01*
X-5272291Y21723674D01*
X-5281554Y21796398D01*
X-5290893Y21859772D01*
X-5299388Y21907307D01*
X-5302751Y21922034D01*
X-5312901Y21967204D01*
X-5318680Y22011142D01*
X-5320070Y22059414D01*
X-5317050Y22117587D01*
X-5309601Y22191227D01*
X-5301565Y22256317D01*
X-5293900Y22325119D01*
X-5288361Y22393429D01*
X-5285547Y22452512D01*
X-5285690Y22487887D01*
X-5289550Y22566410D01*
X-5378450Y22530527D01*
X-5422616Y22514133D01*
X-5457901Y22503676D01*
X-5477635Y22501083D01*
X-5478919Y22501535D01*
X-5481770Y22505967D01*
X-5477777Y22514334D01*
X-5464518Y22529010D01*
X-5439572Y22552369D01*
X-5400516Y22586784D01*
X-5344929Y22634628D01*
X-5330667Y22646827D01*
X-5312878Y22664637D01*
X-5206923Y22664637D01*
X-5202118Y22654718D01*
X-5181397Y22663539D01*
X-5163298Y22676254D01*
X-5131481Y22690678D01*
X-5104012Y22694900D01*
X-5062191Y22698035D01*
X-5040667Y22710586D01*
X-5034775Y22737269D01*
X-5036900Y22762778D01*
X-5035397Y22824863D01*
X-5023793Y22871122D01*
X-5007373Y22921905D01*
X-5002641Y22950584D01*
X-5009670Y22957115D01*
X-5028530Y22941454D01*
X-5059294Y22903557D01*
X-5102034Y22843380D01*
X-5125227Y22808968D01*
X-5168539Y22741548D01*
X-5195750Y22693509D01*
X-5206923Y22664637D01*
X-5312878Y22664637D01*
X-5295637Y22681897D01*
X-5251533Y22733655D01*
X-5202140Y22796888D01*
X-5151243Y22866379D01*
X-5102628Y22936915D01*
X-5060079Y23003280D01*
X-5027383Y23060260D01*
X-5020066Y23074734D01*
X-5005452Y23108872D01*
X-5002279Y23133021D01*
X-5013484Y23149664D01*
X-5042006Y23161280D01*
X-5090782Y23170353D01*
X-5140916Y23176801D01*
X-5230828Y23191438D01*
X-5315598Y23214327D01*
X-5399583Y23247502D01*
X-5487141Y23292996D01*
X-5582629Y23352842D01*
X-5690404Y23429075D01*
X-5705467Y23440236D01*
X-5777111Y23499934D01*
X-5849594Y23571728D01*
X-5919536Y23651186D01*
X-5983555Y23733879D01*
X-6038269Y23815377D01*
X-6080297Y23891250D01*
X-6106257Y23957068D01*
X-6109403Y23969431D01*
X-6117172Y24014377D01*
X-6116456Y24052675D01*
X-6115944Y24055027D01*
X-6044899Y24055027D01*
X-6032585Y23967288D01*
X-5998026Y23875863D01*
X-5943717Y23782828D01*
X-5872149Y23690263D01*
X-5785817Y23600245D01*
X-5687214Y23514851D01*
X-5578832Y23436161D01*
X-5463164Y23366251D01*
X-5342705Y23307200D01*
X-5219946Y23261085D01*
X-5097381Y23229985D01*
X-5045075Y23221710D01*
X-5003711Y23217935D01*
X-4983414Y23222549D01*
X-4980314Y23239133D01*
X-4990538Y23271269D01*
X-4990786Y23271924D01*
X-5009500Y23298069D01*
X-5036071Y23304500D01*
X-5073371Y23310104D01*
X-5101297Y23324014D01*
X-5116476Y23341883D01*
X-5115540Y23359361D01*
X-5095117Y23372099D01*
X-5089525Y23373468D01*
X-5066734Y23376197D01*
X-5024118Y23379542D01*
X-4967229Y23383126D01*
X-4901625Y23386574D01*
X-4882729Y23387451D01*
X-4791965Y23392097D01*
X-4723581Y23397121D01*
X-4674554Y23403068D01*
X-4641865Y23410482D01*
X-4622493Y23419911D01*
X-4613416Y23431900D01*
X-4612203Y23436313D01*
X-4617916Y23461999D01*
X-4639655Y23490858D01*
X-4671247Y23518459D01*
X-4706522Y23540369D01*
X-4739307Y23552156D01*
X-4763431Y23549389D01*
X-4766359Y23547022D01*
X-4786947Y23538386D01*
X-4821761Y23533506D01*
X-4835337Y23533100D01*
X-4877318Y23528601D01*
X-4913280Y23517420D01*
X-4920083Y23513647D01*
X-4949130Y23500780D01*
X-4992092Y23488480D01*
X-5023230Y23482239D01*
X-5084953Y23467287D01*
X-5124417Y23444707D01*
X-5144257Y23411914D01*
X-5147109Y23366322D01*
X-5146588Y23361199D01*
X-5144477Y23324334D01*
X-5150179Y23304821D01*
X-5162761Y23296312D01*
X-5187015Y23297531D01*
X-5205340Y23317900D01*
X-5216536Y23351617D01*
X-5219406Y23392877D01*
X-5212753Y23435875D01*
X-5198552Y23469734D01*
X-5170826Y23502954D01*
X-5130562Y23525369D01*
X-5071803Y23540160D01*
X-5064463Y23541377D01*
X-5022006Y23551044D01*
X-4984701Y23564108D01*
X-4979151Y23566783D01*
X-4941671Y23579439D01*
X-4906931Y23583822D01*
X-4873748Y23589642D01*
X-4851400Y23602950D01*
X-4822831Y23619050D01*
X-4779919Y23621838D01*
X-4728924Y23612865D01*
X-4676103Y23593679D01*
X-4627714Y23565830D01*
X-4598162Y23540261D01*
X-4569307Y23509547D01*
X-4528470Y23550385D01*
X-4479071Y23586155D01*
X-4418044Y23610440D01*
X-4352758Y23622088D01*
X-4290581Y23619947D01*
X-4238882Y23602866D01*
X-4229769Y23597076D01*
X-4194960Y23578579D01*
X-4150577Y23562684D01*
X-4136677Y23559134D01*
X-4071685Y23541124D01*
X-4031097Y23521496D01*
X-4013942Y23499734D01*
X-4013200Y23493711D01*
X-4019903Y23468754D01*
X-4039491Y23465462D01*
X-4062448Y23477562D01*
X-4090775Y23489205D01*
X-4133066Y23497814D01*
X-4161896Y23500500D01*
X-4208426Y23505152D01*
X-4237751Y23515492D01*
X-4256062Y23531875D01*
X-4293759Y23559299D01*
X-4344236Y23567566D01*
X-4403112Y23556241D01*
X-4423114Y23548364D01*
X-4473662Y23519158D01*
X-4504902Y23486141D01*
X-4514624Y23452296D01*
X-4508956Y23432352D01*
X-4489407Y23411541D01*
X-4473129Y23405891D01*
X-4421819Y23404425D01*
X-4365964Y23401308D01*
X-4312630Y23397116D01*
X-4268888Y23392425D01*
X-4241806Y23387809D01*
X-4238625Y23386799D01*
X-4220397Y23385038D01*
X-4216400Y23390841D01*
X-4204928Y23396059D01*
X-4174972Y23398278D01*
X-4133224Y23397864D01*
X-4086379Y23395184D01*
X-4041128Y23390602D01*
X-4004163Y23384486D01*
X-3983806Y23378124D01*
X-3968345Y23365347D01*
X-3975340Y23348696D01*
X-3976855Y23346837D01*
X-3991885Y23336534D01*
X-4018777Y23331462D01*
X-4063001Y23330889D01*
X-4088800Y23331848D01*
X-4184650Y23336250D01*
X-4185574Y23256945D01*
X-4185678Y23214164D01*
X-4183576Y23192587D01*
X-4177561Y23188025D01*
X-4165926Y23196286D01*
X-4162216Y23199613D01*
X-4145298Y23213281D01*
X-4140308Y23207981D01*
X-4142243Y23184925D01*
X-4158874Y23142735D01*
X-4196142Y23113341D01*
X-4252098Y23097916D01*
X-4290073Y23095813D01*
X-4359967Y23103782D01*
X-4416118Y23125526D01*
X-4454131Y23159173D01*
X-4459690Y23168107D01*
X-4468420Y23197227D01*
X-4473321Y23239433D01*
X-4473741Y23263225D01*
X-4473785Y23264777D01*
X-4431455Y23264777D01*
X-4425013Y23260416D01*
X-4408583Y23268297D01*
X-4376971Y23277425D01*
X-4353047Y23265493D01*
X-4343403Y23235841D01*
X-4343400Y23235291D01*
X-4351156Y23207999D01*
X-4375150Y23195416D01*
X-4398925Y23185610D01*
X-4406900Y23176124D01*
X-4395771Y23168614D01*
X-4367948Y23165313D01*
X-4331776Y23166173D01*
X-4295603Y23171145D01*
X-4275149Y23176893D01*
X-4237886Y23201252D01*
X-4221872Y23234386D01*
X-4227245Y23270944D01*
X-4254144Y23305577D01*
X-4271509Y23318029D01*
X-4318107Y23338903D01*
X-4357130Y23337599D01*
X-4394050Y23313736D01*
X-4398819Y23309119D01*
X-4422456Y23282129D01*
X-4431455Y23264777D01*
X-4473785Y23264777D01*
X-4474810Y23300465D01*
X-4479046Y23324666D01*
X-4483101Y23329900D01*
X-4499027Y23337402D01*
X-4524646Y23355922D01*
X-4530461Y23360705D01*
X-4567071Y23391510D01*
X-4584682Y23363880D01*
X-4595908Y23336168D01*
X-4606204Y23294000D01*
X-4611363Y23261523D01*
X-4628796Y23195568D01*
X-4661302Y23148319D01*
X-4706421Y23121347D01*
X-4761693Y23116222D01*
X-4816092Y23130745D01*
X-4865558Y23162102D01*
X-4894827Y23207408D01*
X-4905102Y23268686D01*
X-4905063Y23280141D01*
X-4906291Y23309869D01*
X-4843670Y23309869D01*
X-4840642Y23294745D01*
X-4827157Y23291800D01*
X-4796536Y23281118D01*
X-4779714Y23252864D01*
X-4779484Y23216407D01*
X-4781331Y23188081D01*
X-4769833Y23175637D01*
X-4765190Y23174313D01*
X-4723029Y23176834D01*
X-4686944Y23201009D01*
X-4674823Y23217810D01*
X-4660765Y23259558D01*
X-4670639Y23292985D01*
X-4704262Y23317757D01*
X-4734259Y23327945D01*
X-4788441Y23337199D01*
X-4823959Y23331753D01*
X-4843127Y23311225D01*
X-4843670Y23309869D01*
X-4906291Y23309869D01*
X-4906718Y23320189D01*
X-4912729Y23339784D01*
X-4921267Y23337399D01*
X-4930501Y23311509D01*
X-4932363Y23302913D01*
X-4937003Y23266870D01*
X-4939706Y23219170D01*
X-4940586Y23165739D01*
X-4939760Y23112499D01*
X-4937343Y23065377D01*
X-4933451Y23030295D01*
X-4928199Y23013178D01*
X-4926687Y23012400D01*
X-4908380Y23018368D01*
X-4877413Y23033509D01*
X-4860012Y23043209D01*
X-4820501Y23062251D01*
X-4771352Y23080539D01*
X-4719822Y23096023D01*
X-4673167Y23106656D01*
X-4638647Y23110389D01*
X-4627578Y23108804D01*
X-4610865Y23096478D01*
X-4619022Y23082254D01*
X-4651621Y23066552D01*
X-4679940Y23057400D01*
X-4733833Y23036200D01*
X-4794333Y23003710D01*
X-4855051Y22964330D01*
X-4909596Y22922460D01*
X-4951578Y22882500D01*
X-4970467Y22857334D01*
X-4986616Y22826830D01*
X-4990021Y22808837D01*
X-4981431Y22794350D01*
X-4976174Y22788886D01*
X-4950671Y22774798D01*
X-4910593Y22764138D01*
X-4890308Y22761348D01*
X-4846296Y22759699D01*
X-4813719Y22767281D01*
X-4779341Y22787286D01*
X-4777552Y22788521D01*
X-4746801Y22808484D01*
X-4724673Y22820411D01*
X-4719656Y22821900D01*
X-4704525Y22828571D01*
X-4676092Y22845703D01*
X-4653515Y22860713D01*
X-4595865Y22896531D01*
X-4549258Y22915356D01*
X-4507525Y22918873D01*
X-4470365Y22910789D01*
X-4432260Y22902957D01*
X-4395233Y22902713D01*
X-4367205Y22909286D01*
X-4356101Y22921904D01*
X-4356100Y22921905D01*
X-4366969Y22932172D01*
X-4393521Y22943165D01*
X-4397375Y22944312D01*
X-4431176Y22961524D01*
X-4442709Y22984249D01*
X-4441550Y23004227D01*
X-4425545Y23011667D01*
X-4408533Y23012400D01*
X-4378876Y23008573D01*
X-4362450Y22999700D01*
X-4344813Y22990924D01*
X-4313417Y22987403D01*
X-4279335Y22989036D01*
X-4253637Y22995726D01*
X-4247515Y23000730D01*
X-4229271Y23008389D01*
X-4205490Y23005311D01*
X-4165776Y22998818D01*
X-4138019Y22998058D01*
X-4110675Y22993445D01*
X-4090594Y22971829D01*
X-4083848Y22959383D01*
X-4071638Y22923149D01*
X-4078597Y22903458D01*
X-4103922Y22901154D01*
X-4130853Y22909796D01*
X-4172783Y22923293D01*
X-4218538Y22932708D01*
X-4221128Y22933046D01*
X-4250949Y22934821D01*
X-4272954Y22928162D01*
X-4295727Y22908753D01*
X-4317162Y22884760D01*
X-4346910Y22854225D01*
X-4376048Y22836594D01*
X-4411358Y22830273D01*
X-4459617Y22833670D01*
X-4504034Y22840850D01*
X-4538066Y22844615D01*
X-4565651Y22839286D01*
X-4597562Y22821907D01*
X-4614511Y22810535D01*
X-4655910Y22780634D01*
X-4675316Y22762878D01*
X-4672861Y22756941D01*
X-4648682Y22762500D01*
X-4632111Y22768174D01*
X-4603222Y22774212D01*
X-4553918Y22779943D01*
X-4489182Y22785179D01*
X-4414000Y22789730D01*
X-4333354Y22793405D01*
X-4252231Y22796014D01*
X-4175613Y22797369D01*
X-4108486Y22797279D01*
X-4055833Y22795555D01*
X-4022639Y22792006D01*
X-4020292Y22791471D01*
X-3994626Y22778266D01*
X-3988427Y22761424D01*
X-4001772Y22748474D01*
X-4019824Y22745700D01*
X-4045322Y22741177D01*
X-4087252Y22729037D01*
X-4138596Y22711430D01*
X-4167547Y22700490D01*
X-4307213Y22657848D01*
X-4446754Y22638515D01*
X-4582558Y22642991D01*
X-4583193Y22643070D01*
X-4644953Y22653345D01*
X-4684714Y22666752D01*
X-4705836Y22684994D01*
X-4711700Y22708182D01*
X-4711941Y22709563D01*
X-4632730Y22709563D01*
X-4628980Y22697022D01*
X-4614738Y22697037D01*
X-4596593Y22706256D01*
X-4594225Y22714124D01*
X-4603607Y22723240D01*
X-4446386Y22723240D01*
X-4446174Y22704756D01*
X-4444235Y22699225D01*
X-4434257Y22681717D01*
X-4417068Y22677235D01*
X-4387679Y22682239D01*
X-4355618Y22690823D01*
X-4335845Y22698618D01*
X-4334283Y22699785D01*
X-4338060Y22708649D01*
X-4358530Y22718646D01*
X-4387290Y22726990D01*
X-4415938Y22730896D01*
X-4426780Y22730435D01*
X-4446386Y22723240D01*
X-4603607Y22723240D01*
X-4606393Y22725946D01*
X-4623973Y22721690D01*
X-4632730Y22709563D01*
X-4711941Y22709563D01*
X-4714271Y22722903D01*
X-4726667Y22723007D01*
X-4746625Y22714232D01*
X-4769815Y22706466D01*
X-4813525Y22694870D01*
X-4873337Y22680443D01*
X-4944836Y22664183D01*
X-5023604Y22647088D01*
X-5105224Y22630157D01*
X-5185280Y22614389D01*
X-5203825Y22610879D01*
X-5221179Y22604388D01*
X-5229671Y22588758D01*
X-5232304Y22556923D01*
X-5232400Y22543617D01*
X-5229126Y22499936D01*
X-5218716Y22477679D01*
X-5213350Y22474408D01*
X-5199051Y22460663D01*
X-5195736Y22432776D01*
X-5203626Y22388070D01*
X-5222942Y22323868D01*
X-5226647Y22312950D01*
X-5248118Y22237150D01*
X-5262185Y22159678D01*
X-5268368Y22086662D01*
X-5266189Y22024230D01*
X-5255167Y21978509D01*
X-5253150Y21974286D01*
X-5239223Y21930005D01*
X-5232466Y21868049D01*
X-5232014Y21847806D01*
X-5230888Y21802871D01*
X-5227677Y21780812D01*
X-5221867Y21779152D01*
X-5218683Y21783675D01*
X-5202461Y21804912D01*
X-5191205Y21803639D01*
X-5184664Y21779156D01*
X-5182589Y21730762D01*
X-5183550Y21685241D01*
X-5184758Y21633422D01*
X-5184411Y21592748D01*
X-5182625Y21568725D01*
X-5180965Y21564591D01*
X-5167009Y21572361D01*
X-5159594Y21578987D01*
X-5136630Y21587908D01*
X-5126652Y21586253D01*
X-5117556Y21577880D01*
X-5112942Y21558367D01*
X-5112300Y21522874D01*
X-5114741Y21472636D01*
X-5115477Y21398863D01*
X-5105650Y21337316D01*
X-5082566Y21281393D01*
X-5043535Y21224491D01*
X-4988348Y21162589D01*
X-4908550Y21079397D01*
X-4901085Y21195661D01*
X-4894781Y21263458D01*
X-4885875Y21308066D01*
X-4873942Y21331602D01*
X-4873871Y21331673D01*
X-4857748Y21343718D01*
X-4842609Y21338747D01*
X-4827824Y21325124D01*
X-4810105Y21310218D01*
X-4798104Y21309959D01*
X-4789858Y21327334D01*
X-4783401Y21365333D01*
X-4779660Y21398420D01*
X-4779091Y21402362D01*
X-4610866Y21402362D01*
X-4605532Y21374652D01*
X-4601634Y21369867D01*
X-4593364Y21363379D01*
X-4586023Y21366858D01*
X-4575885Y21384795D01*
X-4559895Y21420165D01*
X-4542562Y21460188D01*
X-4536366Y21479991D01*
X-4542156Y21482577D01*
X-4560782Y21470949D01*
X-4572000Y21463000D01*
X-4598802Y21434598D01*
X-4610866Y21402362D01*
X-4779091Y21402362D01*
X-4772716Y21446481D01*
X-4764688Y21470791D01*
X-4756034Y21470842D01*
X-4747215Y21446125D01*
X-4745137Y21436509D01*
X-4737416Y21412083D01*
X-4725565Y21404189D01*
X-4707183Y21414070D01*
X-4679872Y21442972D01*
X-4643438Y21489221D01*
X-4612180Y21528943D01*
X-4584875Y21560905D01*
X-4566457Y21579395D01*
X-4563962Y21581163D01*
X-4539668Y21585684D01*
X-4524745Y21568027D01*
X-4521200Y21542188D01*
X-4519786Y21526127D01*
X-4513653Y21525704D01*
X-4499965Y21543113D01*
X-4479925Y21574119D01*
X-4429008Y21653850D01*
X-4388913Y21713734D01*
X-4357868Y21755980D01*
X-4334100Y21782799D01*
X-4315833Y21796399D01*
X-4301295Y21798990D01*
X-4299677Y21798656D01*
X-4281043Y21800172D01*
X-4257690Y21815476D01*
X-4225599Y21847554D01*
X-4209456Y21865703D01*
X-4137911Y21950196D01*
X-4069937Y22034956D01*
X-4010053Y22114162D01*
X-3962778Y22181992D01*
X-3956907Y22191055D01*
X-3929400Y22230688D01*
X-3903291Y22262715D01*
X-3885665Y22279082D01*
X-3865738Y22302513D01*
X-3860800Y22321824D01*
X-3850554Y22347329D01*
X-3836489Y22355396D01*
X-3805546Y22374510D01*
X-3785611Y22413485D01*
X-3776370Y22473443D01*
X-3777509Y22555506D01*
X-3778141Y22564429D01*
X-3783462Y22622844D01*
X-3789301Y22658966D01*
X-3796355Y22675902D01*
X-3803501Y22677665D01*
X-3819655Y22681505D01*
X-3828117Y22706348D01*
X-3829120Y22749065D01*
X-3822898Y22806527D01*
X-3818618Y22828900D01*
X-3770605Y22828900D01*
X-3766210Y22812425D01*
X-3756025Y22804911D01*
X-3732788Y22798315D01*
X-3715078Y22805845D01*
X-3706928Y22812375D01*
X-3687975Y22832097D01*
X-3662750Y22862976D01*
X-3652724Y22876308D01*
X-3626174Y22906151D01*
X-3586037Y22943856D01*
X-3539563Y22982757D01*
X-3523274Y22995322D01*
X-3478417Y23029976D01*
X-3450491Y23054869D01*
X-3435578Y23074752D01*
X-3429760Y23094372D01*
X-3429000Y23109597D01*
X-3435890Y23161243D01*
X-3453988Y23209046D01*
X-3479439Y23244213D01*
X-3492098Y23253485D01*
X-3525527Y23258340D01*
X-3566778Y23246490D01*
X-3609497Y23222306D01*
X-3647331Y23190161D01*
X-3673924Y23154424D01*
X-3683000Y23122162D01*
X-3683000Y23095649D01*
X-3663972Y23122816D01*
X-3638489Y23146554D01*
X-3601776Y23165991D01*
X-3559922Y23179869D01*
X-3519013Y23186931D01*
X-3485136Y23185919D01*
X-3464379Y23175575D01*
X-3460750Y23164800D01*
X-3472735Y23149203D01*
X-3505200Y23141865D01*
X-3545222Y23131847D01*
X-3569269Y23107788D01*
X-3580089Y23065847D01*
X-3581400Y23035373D01*
X-3585657Y22988264D01*
X-3600216Y22956554D01*
X-3608070Y22947631D01*
X-3633405Y22929458D01*
X-3648828Y22932364D01*
X-3652577Y22953370D01*
X-3642893Y22989499D01*
X-3638682Y22999409D01*
X-3624093Y23034068D01*
X-3622180Y23052766D01*
X-3634866Y23062552D01*
X-3657627Y23068901D01*
X-3672996Y23071049D01*
X-3685061Y23065902D01*
X-3696761Y23049293D01*
X-3711033Y23017053D01*
X-3730761Y22965159D01*
X-3753473Y22901504D01*
X-3766557Y22857339D01*
X-3770605Y22828900D01*
X-3818618Y22828900D01*
X-3809683Y22875605D01*
X-3789709Y22953169D01*
X-3780747Y22983086D01*
X-3764925Y23037083D01*
X-3751528Y23088367D01*
X-3743139Y23126959D01*
X-3742492Y23130907D01*
X-3739027Y23161068D01*
X-3742352Y23170665D01*
X-3753482Y23164277D01*
X-3767217Y23140894D01*
X-3771900Y23113272D01*
X-3777088Y23065843D01*
X-3790989Y23031733D01*
X-3811109Y23015765D01*
X-3822205Y23015951D01*
X-3850091Y23012433D01*
X-3865475Y23001498D01*
X-3880998Y22973583D01*
X-3896012Y22928559D01*
X-3908188Y22874650D01*
X-3914530Y22828359D01*
X-3924837Y22796116D01*
X-3943941Y22785300D01*
X-3965628Y22796940D01*
X-3978480Y22817755D01*
X-3999172Y22846010D01*
X-4019550Y22853650D01*
X-4040042Y22864010D01*
X-4050193Y22888064D01*
X-4047286Y22915280D01*
X-4038774Y22928140D01*
X-4023387Y22933547D01*
X-4004221Y22918129D01*
X-4000887Y22914159D01*
X-3983549Y22896079D01*
X-3973986Y22897611D01*
X-3970039Y22905673D01*
X-3964671Y22931998D01*
X-3962401Y22967630D01*
X-3962400Y22968082D01*
X-3955546Y23004795D01*
X-3938481Y23034992D01*
X-3916455Y23050059D01*
X-3912175Y23050500D01*
X-3901235Y23061112D01*
X-3894767Y23077635D01*
X-3885595Y23095950D01*
X-3866252Y23099697D01*
X-3848083Y23096852D01*
X-3808494Y23088934D01*
X-3817057Y23146033D01*
X-3819002Y23184556D01*
X-3733800Y23184556D01*
X-3706636Y23211721D01*
X-3688564Y23238651D01*
X-3687187Y23258993D01*
X-3703900Y23276539D01*
X-3714352Y23279100D01*
X-3728222Y23270565D01*
X-3733596Y23242352D01*
X-3733800Y23231828D01*
X-3733800Y23184556D01*
X-3819002Y23184556D01*
X-3819489Y23194204D01*
X-3810485Y23221367D01*
X-3805835Y23231828D01*
X-3796358Y23253148D01*
X-3806626Y23283044D01*
X-3840284Y23309246D01*
X-3865575Y23320400D01*
X-3919177Y23346946D01*
X-3961180Y23380584D01*
X-3988951Y23417357D01*
X-3999859Y23453308D01*
X-3991270Y23484478D01*
X-3981612Y23494866D01*
X-3954981Y23505142D01*
X-3933532Y23493928D01*
X-3924315Y23465064D01*
X-3924300Y23463649D01*
X-3920432Y23439585D01*
X-3912877Y23431500D01*
X-3896990Y23424880D01*
X-3867298Y23407686D01*
X-3837034Y23388150D01*
X-3771978Y23353841D01*
X-3694920Y23327639D01*
X-3615687Y23312018D01*
X-3544106Y23309451D01*
X-3530212Y23310904D01*
X-3481653Y23311453D01*
X-3444393Y23295908D01*
X-3414852Y23261340D01*
X-3389445Y23204821D01*
X-3385093Y23192263D01*
X-3359150Y23115002D01*
X-3254778Y23181176D01*
X-3195102Y23218570D01*
X-3125404Y23261580D01*
X-3057534Y23302912D01*
X-3033788Y23317200D01*
X-2931537Y23386243D01*
X-2833025Y23467394D01*
X-2742162Y23556444D01*
X-2662859Y23649184D01*
X-2599024Y23741404D01*
X-2554569Y23828894D01*
X-2551723Y23836207D01*
X-2532266Y23904452D01*
X-2523605Y23973500D01*
X-2525839Y24036432D01*
X-2539071Y24086329D01*
X-2547815Y24101572D01*
X-2589519Y24140767D01*
X-2652110Y24171721D01*
X-2736270Y24194573D01*
X-2842686Y24209461D01*
X-2972039Y24216526D01*
X-3111500Y24216245D01*
X-3270250Y24212550D01*
X-3284890Y24011150D01*
X-3292828Y23905546D01*
X-3300030Y23822581D01*
X-3307265Y23759539D01*
X-3315305Y23713701D01*
X-3324923Y23682353D01*
X-3336888Y23662777D01*
X-3351974Y23652256D01*
X-3370951Y23648075D01*
X-3388172Y23647466D01*
X-3418655Y23650542D01*
X-3450656Y23661079D01*
X-3487472Y23681168D01*
X-3532399Y23712897D01*
X-3588733Y23758358D01*
X-3659771Y23819639D01*
X-3659916Y23819767D01*
X-3746865Y23895521D01*
X-3819934Y23957398D01*
X-3883678Y24008992D01*
X-3942654Y24053896D01*
X-4001417Y24095706D01*
X-4057650Y24133502D01*
X-4173728Y24203428D01*
X-4299260Y24267715D01*
X-4427938Y24323719D01*
X-4553455Y24368799D01*
X-4561398Y24370956D01*
X-4342938Y24370956D01*
X-4332527Y24362836D01*
X-4304146Y24346433D01*
X-4262704Y24324492D01*
X-4233322Y24309668D01*
X-4067188Y24216287D01*
X-3896095Y24098572D01*
X-3720653Y23956967D01*
X-3588827Y23837482D01*
X-3543336Y23795817D01*
X-3498247Y23756945D01*
X-3460834Y23727052D01*
X-3448888Y23718478D01*
X-3414887Y23699408D01*
X-3390517Y23697157D01*
X-3373409Y23713913D01*
X-3361190Y23751861D01*
X-3352196Y23807624D01*
X-3347972Y23853498D01*
X-3344408Y23916987D01*
X-3341837Y23990309D01*
X-3340594Y24065679D01*
X-3340536Y24079200D01*
X-3341748Y24176657D01*
X-3347315Y24251154D01*
X-3359425Y24305040D01*
X-3380265Y24340662D01*
X-3412024Y24360368D01*
X-3456891Y24366507D01*
X-3517052Y24361426D01*
X-3591196Y24348179D01*
X-3692331Y24330126D01*
X-3775941Y24321452D01*
X-3848380Y24322878D01*
X-3916001Y24335121D01*
X-3985158Y24358903D01*
X-4062205Y24394943D01*
X-4078558Y24403391D01*
X-4145067Y24433470D01*
X-4198775Y24445841D01*
X-4244873Y24440722D01*
X-4288554Y24418333D01*
X-4296443Y24412575D01*
X-4324070Y24390346D01*
X-4340752Y24374482D01*
X-4342938Y24370956D01*
X-4561398Y24370956D01*
X-4669502Y24400312D01*
X-4715664Y24409154D01*
X-4757478Y24413534D01*
X-4819801Y24416958D01*
X-4897762Y24419432D01*
X-4986489Y24420959D01*
X-5081110Y24421542D01*
X-5176752Y24421186D01*
X-5268543Y24419895D01*
X-5351612Y24417672D01*
X-5421086Y24414522D01*
X-5472094Y24410449D01*
X-5486400Y24408535D01*
X-5610241Y24381126D01*
X-5729336Y24340832D01*
X-5838433Y24290054D01*
X-5932279Y24231196D01*
X-5998386Y24174308D01*
X-6025812Y24143497D01*
X-6039711Y24116927D01*
X-6044524Y24083210D01*
X-6044899Y24055027D01*
X-6115944Y24055027D01*
X-6106639Y24097756D01*
X-6102902Y24110932D01*
X-6087579Y24154235D01*
X-6066611Y24191364D01*
X-6034687Y24230409D01*
X-6002943Y24263249D01*
X-5929698Y24325493D01*
X-5844166Y24377556D01*
X-5744512Y24419900D01*
X-5628901Y24452990D01*
X-5495497Y24477289D01*
X-5342465Y24493260D01*
X-5167969Y24501366D01*
X-5054600Y24502647D01*
X-4952109Y24501991D01*
X-4868391Y24499349D01*
X-4796846Y24493803D01*
X-4730870Y24484436D01*
X-4663861Y24470332D01*
X-4589216Y24450572D01*
X-4508919Y24426852D01*
X-4401388Y24394203D01*
X-4373067Y24427128D01*
X-4334023Y24464808D01*
X-4289135Y24496674D01*
X-4246261Y24517813D01*
X-4218608Y24523700D01*
X-4194114Y24518450D01*
G37*
X-5504859Y22500870D02*
X-5502236Y22488760D01*
X-5519606Y22465790D01*
X-5540375Y22445345D01*
X-5588593Y22402861D01*
X-5630309Y22371143D01*
X-5662086Y22352468D01*
X-5680485Y22349115D01*
X-5682667Y22351057D01*
X-5679037Y22366983D01*
X-5660406Y22393296D01*
X-5631924Y22424925D01*
X-5598744Y22456796D01*
X-5566016Y22483836D01*
X-5538891Y22500973D01*
X-5526957Y22504400D01*
X-5504859Y22500870D01*
G36*
X-5504859Y22500870D02*
G01*
X-5502236Y22488760D01*
X-5519606Y22465790D01*
X-5540375Y22445345D01*
X-5588593Y22402861D01*
X-5630309Y22371143D01*
X-5662086Y22352468D01*
X-5680485Y22349115D01*
X-5682667Y22351057D01*
X-5679037Y22366983D01*
X-5660406Y22393296D01*
X-5631924Y22424925D01*
X-5598744Y22456796D01*
X-5566016Y22483836D01*
X-5538891Y22500973D01*
X-5526957Y22504400D01*
X-5504859Y22500870D01*
G37*
X-4788754Y21604529D02*
X-4787900Y21586476D01*
X-4793659Y21547448D01*
X-4808250Y21515077D01*
X-4827645Y21494693D01*
X-4847815Y21491625D01*
X-4855634Y21496867D01*
X-4864161Y21521390D01*
X-4858399Y21556133D01*
X-4840081Y21591610D01*
X-4837779Y21594638D01*
X-4812419Y21621427D01*
X-4796339Y21624767D01*
X-4788754Y21604529D01*
G36*
X-4788754Y21604529D02*
G01*
X-4787900Y21586476D01*
X-4793659Y21547448D01*
X-4808250Y21515077D01*
X-4827645Y21494693D01*
X-4847815Y21491625D01*
X-4855634Y21496867D01*
X-4864161Y21521390D01*
X-4858399Y21556133D01*
X-4840081Y21591610D01*
X-4837779Y21594638D01*
X-4812419Y21621427D01*
X-4796339Y21624767D01*
X-4788754Y21604529D01*
G37*
X-5006036Y22028580D02*
X-5003800Y22004867D01*
X-5000499Y21974133D01*
X-4992404Y21956914D01*
X-4990919Y21956123D01*
X-4987511Y21942935D01*
X-4986815Y21910852D01*
X-4988364Y21866184D01*
X-4991691Y21815236D01*
X-4996330Y21764315D01*
X-5001812Y21719728D01*
X-5007672Y21687783D01*
X-5011614Y21676533D01*
X-5029402Y21666588D01*
X-5046134Y21674667D01*
X-5050705Y21691046D01*
X-5053780Y21724668D01*
X-5054600Y21757217D01*
X-5056971Y21802981D01*
X-5063741Y21827664D01*
X-5069077Y21831300D01*
X-5076371Y21842427D01*
X-5078280Y21870991D01*
X-5075500Y21909767D01*
X-5068727Y21951532D01*
X-5058658Y21989060D01*
X-5052405Y22004390D01*
X-5032507Y22035681D01*
X-5016241Y22043752D01*
X-5006036Y22028580D01*
G36*
X-5006036Y22028580D02*
G01*
X-5003800Y22004867D01*
X-5000499Y21974133D01*
X-4992404Y21956914D01*
X-4990919Y21956123D01*
X-4987511Y21942935D01*
X-4986815Y21910852D01*
X-4988364Y21866184D01*
X-4991691Y21815236D01*
X-4996330Y21764315D01*
X-5001812Y21719728D01*
X-5007672Y21687783D01*
X-5011614Y21676533D01*
X-5029402Y21666588D01*
X-5046134Y21674667D01*
X-5050705Y21691046D01*
X-5053780Y21724668D01*
X-5054600Y21757217D01*
X-5056971Y21802981D01*
X-5063741Y21827664D01*
X-5069077Y21831300D01*
X-5076371Y21842427D01*
X-5078280Y21870991D01*
X-5075500Y21909767D01*
X-5068727Y21951532D01*
X-5058658Y21989060D01*
X-5052405Y22004390D01*
X-5032507Y22035681D01*
X-5016241Y22043752D01*
X-5006036Y22028580D01*
G37*
X-4423744Y21987163D02*
X-4420963Y21961878D01*
X-4424398Y21923846D01*
X-4433432Y21878833D01*
X-4447447Y21832608D01*
X-4451836Y21821090D01*
X-4469791Y21783856D01*
X-4483829Y21769758D01*
X-4492647Y21779156D01*
X-4495025Y21809075D01*
X-4490480Y21848733D01*
X-4479785Y21894363D01*
X-4465416Y21938541D01*
X-4449851Y21973839D01*
X-4435567Y21992829D01*
X-4433357Y21993932D01*
X-4423744Y21987163D01*
G36*
X-4423744Y21987163D02*
G01*
X-4420963Y21961878D01*
X-4424398Y21923846D01*
X-4433432Y21878833D01*
X-4447447Y21832608D01*
X-4451836Y21821090D01*
X-4469791Y21783856D01*
X-4483829Y21769758D01*
X-4492647Y21779156D01*
X-4495025Y21809075D01*
X-4490480Y21848733D01*
X-4479785Y21894363D01*
X-4465416Y21938541D01*
X-4449851Y21973839D01*
X-4435567Y21992829D01*
X-4433357Y21993932D01*
X-4423744Y21987163D01*
G37*
X-3966828Y22556338D02*
X-3963219Y22525615D01*
X-3963385Y22481681D01*
X-3967294Y22430484D01*
X-3974914Y22377972D01*
X-3975290Y22375959D01*
X-3992271Y22318669D01*
X-4020815Y22276069D01*
X-4027298Y22269450D01*
X-4057423Y22235343D01*
X-4089436Y22192064D01*
X-4103029Y22171025D01*
X-4130506Y22131039D01*
X-4150700Y22112923D01*
X-4162640Y22117211D01*
X-4165600Y22136463D01*
X-4159029Y22165045D01*
X-4141751Y22207454D01*
X-4117416Y22256568D01*
X-4089678Y22305261D01*
X-4062188Y22346410D01*
X-4050503Y22360990D01*
X-4017419Y22417933D01*
X-4006641Y22462590D01*
X-3998309Y22516616D01*
X-3990428Y22549389D01*
X-3981741Y22564997D01*
X-3974245Y22567900D01*
X-3966828Y22556338D01*
G36*
X-3966828Y22556338D02*
G01*
X-3963219Y22525615D01*
X-3963385Y22481681D01*
X-3967294Y22430484D01*
X-3974914Y22377972D01*
X-3975290Y22375959D01*
X-3992271Y22318669D01*
X-4020815Y22276069D01*
X-4027298Y22269450D01*
X-4057423Y22235343D01*
X-4089436Y22192064D01*
X-4103029Y22171025D01*
X-4130506Y22131039D01*
X-4150700Y22112923D01*
X-4162640Y22117211D01*
X-4165600Y22136463D01*
X-4159029Y22165045D01*
X-4141751Y22207454D01*
X-4117416Y22256568D01*
X-4089678Y22305261D01*
X-4062188Y22346410D01*
X-4050503Y22360990D01*
X-4017419Y22417933D01*
X-4006641Y22462590D01*
X-3998309Y22516616D01*
X-3990428Y22549389D01*
X-3981741Y22564997D01*
X-3974245Y22567900D01*
X-3966828Y22556338D01*
G37*
X-5097812Y22530722D02*
X-5088878Y22498348D01*
X-5086113Y22472265D01*
X-5086699Y22424210D01*
X-5098425Y22386697D01*
X-5111399Y22364700D01*
X-5132525Y22329159D01*
X-5147547Y22297226D01*
X-5149436Y22291675D01*
X-5161028Y22266374D01*
X-5171567Y22263702D01*
X-5178083Y22280961D01*
X-5177603Y22315455D01*
X-5177407Y22317075D01*
X-5169646Y22366025D01*
X-5158657Y22419424D01*
X-5146311Y22469556D01*
X-5134482Y22508702D01*
X-5126413Y22527296D01*
X-5110707Y22540895D01*
X-5097812Y22530722D01*
G36*
X-5097812Y22530722D02*
G01*
X-5088878Y22498348D01*
X-5086113Y22472265D01*
X-5086699Y22424210D01*
X-5098425Y22386697D01*
X-5111399Y22364700D01*
X-5132525Y22329159D01*
X-5147547Y22297226D01*
X-5149436Y22291675D01*
X-5161028Y22266374D01*
X-5171567Y22263702D01*
X-5178083Y22280961D01*
X-5177603Y22315455D01*
X-5177407Y22317075D01*
X-5169646Y22366025D01*
X-5158657Y22419424D01*
X-5146311Y22469556D01*
X-5134482Y22508702D01*
X-5126413Y22527296D01*
X-5110707Y22540895D01*
X-5097812Y22530722D01*
G37*
X-3890273Y22598159D02*
X-3883494Y22588013D01*
X-3876134Y22557969D01*
X-3880894Y22525580D01*
X-3894894Y22500374D01*
X-3912610Y22491700D01*
X-3932508Y22500476D01*
X-3937000Y22520625D01*
X-3929742Y22552874D01*
X-3916146Y22579322D01*
X-3900334Y22598748D01*
X-3890273Y22598159D01*
G36*
X-3890273Y22598159D02*
G01*
X-3883494Y22588013D01*
X-3876134Y22557969D01*
X-3880894Y22525580D01*
X-3894894Y22500374D01*
X-3912610Y22491700D01*
X-3932508Y22500476D01*
X-3937000Y22520625D01*
X-3929742Y22552874D01*
X-3916146Y22579322D01*
X-3900334Y22598748D01*
X-3890273Y22598159D01*
G37*
X-4701980Y22627052D02*
X-4683984Y22612350D01*
X-4639736Y22586901D01*
X-4586901Y22577883D01*
X-4508096Y22576660D01*
X-4441436Y22580343D01*
X-4391875Y22588521D01*
X-4371995Y22595625D01*
X-4344315Y22604303D01*
X-4332456Y22593265D01*
X-4335449Y22563411D01*
X-4351918Y22536535D01*
X-4386916Y22518213D01*
X-4442442Y22507807D01*
X-4519921Y22504679D01*
X-4597196Y22509334D01*
X-4655765Y22523349D01*
X-4668497Y22528595D01*
X-4710454Y22553464D01*
X-4731738Y22583312D01*
X-4737100Y22619739D01*
X-4734552Y22638778D01*
X-4724198Y22641403D01*
X-4701980Y22627052D01*
G36*
X-4701980Y22627052D02*
G01*
X-4683984Y22612350D01*
X-4639736Y22586901D01*
X-4586901Y22577883D01*
X-4508096Y22576660D01*
X-4441436Y22580343D01*
X-4391875Y22588521D01*
X-4371995Y22595625D01*
X-4344315Y22604303D01*
X-4332456Y22593265D01*
X-4335449Y22563411D01*
X-4351918Y22536535D01*
X-4386916Y22518213D01*
X-4442442Y22507807D01*
X-4519921Y22504679D01*
X-4597196Y22509334D01*
X-4655765Y22523349D01*
X-4668497Y22528595D01*
X-4710454Y22553464D01*
X-4731738Y22583312D01*
X-4737100Y22619739D01*
X-4734552Y22638778D01*
X-4724198Y22641403D01*
X-4701980Y22627052D01*
G37*
X-4083891Y23113388D02*
X-4081560Y23108345D01*
X-4080597Y23083326D01*
X-4101433Y23065797D01*
X-4134959Y23055994D01*
X-4172483Y23056031D01*
X-4188693Y23066771D01*
X-4194943Y23088133D01*
X-4177052Y23106390D01*
X-4136204Y23120441D01*
X-4129661Y23121823D01*
X-4099121Y23124143D01*
X-4083891Y23113388D01*
G36*
X-4083891Y23113388D02*
G01*
X-4081560Y23108345D01*
X-4080597Y23083326D01*
X-4101433Y23065797D01*
X-4134959Y23055994D01*
X-4172483Y23056031D01*
X-4188693Y23066771D01*
X-4194943Y23088133D01*
X-4177052Y23106390D01*
X-4136204Y23120441D01*
X-4129661Y23121823D01*
X-4099121Y23124143D01*
X-4083891Y23113388D01*
G37*
X-4565697Y23172926D02*
X-4549900Y23155561D01*
X-4548967Y23142614D01*
X-4562837Y23124089D01*
X-4587535Y23115923D01*
X-4610708Y23120923D01*
X-4616755Y23127193D01*
X-4616790Y23146744D01*
X-4601014Y23165097D01*
X-4578142Y23174448D01*
X-4565697Y23172926D01*
G36*
X-4565697Y23172926D02*
G01*
X-4549900Y23155561D01*
X-4548967Y23142614D01*
X-4562837Y23124089D01*
X-4587535Y23115923D01*
X-4610708Y23120923D01*
X-4616755Y23127193D01*
X-4616790Y23146744D01*
X-4601014Y23165097D01*
X-4578142Y23174448D01*
X-4565697Y23172926D01*
G37*
X-5315752Y23973798D02*
X-5308600Y23966951D01*
X-5317895Y23953555D01*
X-5342821Y23928352D01*
X-5378939Y23895103D01*
X-5421811Y23857570D01*
X-5466999Y23819515D01*
X-5510065Y23784699D01*
X-5546570Y23756884D01*
X-5572077Y23739832D01*
X-5580735Y23736300D01*
X-5598158Y23745850D01*
X-5600700Y23754909D01*
X-5590696Y23780247D01*
X-5563984Y23814645D01*
X-5525513Y23853892D01*
X-5480232Y23893775D01*
X-5433091Y23930086D01*
X-5389039Y23958612D01*
X-5353025Y23975142D01*
X-5338953Y23977600D01*
X-5315752Y23973798D01*
G36*
X-5315752Y23973798D02*
G01*
X-5308600Y23966951D01*
X-5317895Y23953555D01*
X-5342821Y23928352D01*
X-5378939Y23895103D01*
X-5421811Y23857570D01*
X-5466999Y23819515D01*
X-5510065Y23784699D01*
X-5546570Y23756884D01*
X-5572077Y23739832D01*
X-5580735Y23736300D01*
X-5598158Y23745850D01*
X-5600700Y23754909D01*
X-5590696Y23780247D01*
X-5563984Y23814645D01*
X-5525513Y23853892D01*
X-5480232Y23893775D01*
X-5433091Y23930086D01*
X-5389039Y23958612D01*
X-5353025Y23975142D01*
X-5338953Y23977600D01*
X-5315752Y23973798D01*
G37*
X-5501290Y23938576D02*
X-5499100Y23928538D01*
X-5508825Y23905226D01*
X-5533784Y23874210D01*
X-5567654Y23841220D01*
X-5604111Y23811987D01*
X-5636833Y23792239D01*
X-5655190Y23787100D01*
X-5682073Y23790326D01*
X-5693834Y23795567D01*
X-5700516Y23813740D01*
X-5702300Y23833667D01*
X-5698083Y23854485D01*
X-5680476Y23862440D01*
X-5661773Y23863300D01*
X-5635602Y23864337D01*
X-5631678Y23869535D01*
X-5644663Y23880424D01*
X-5661168Y23900433D01*
X-5655742Y23916162D01*
X-5631849Y23923956D01*
X-5604772Y23922541D01*
X-5570927Y23921115D01*
X-5555038Y23931980D01*
X-5554228Y23933841D01*
X-5538480Y23949812D01*
X-5517034Y23951025D01*
X-5501290Y23938576D01*
G36*
X-5501290Y23938576D02*
G01*
X-5499100Y23928538D01*
X-5508825Y23905226D01*
X-5533784Y23874210D01*
X-5567654Y23841220D01*
X-5604111Y23811987D01*
X-5636833Y23792239D01*
X-5655190Y23787100D01*
X-5682073Y23790326D01*
X-5693834Y23795567D01*
X-5700516Y23813740D01*
X-5702300Y23833667D01*
X-5698083Y23854485D01*
X-5680476Y23862440D01*
X-5661773Y23863300D01*
X-5635602Y23864337D01*
X-5631678Y23869535D01*
X-5644663Y23880424D01*
X-5661168Y23900433D01*
X-5655742Y23916162D01*
X-5631849Y23923956D01*
X-5604772Y23922541D01*
X-5570927Y23921115D01*
X-5555038Y23931980D01*
X-5554228Y23933841D01*
X-5538480Y23949812D01*
X-5517034Y23951025D01*
X-5501290Y23938576D01*
G37*
D14*
X-17226280Y-13843000D03*
D15*
X-17226280Y-16383000D03*
D14*
X-14686280Y-13843000D03*
X-14686280Y-16383000D03*
D16*
X-12146280Y-13843000D03*
X-12146280Y-16383000D03*
D17*
X-3027680Y12401740D03*
X-3027680Y10401740D03*
X-5892800Y12401740D03*
X-5892800Y10401740D03*
D18*
X-10208000Y10084000D03*
X-10208000Y13284000D03*
D19*
X-9808000Y11684000D03*
D20*
X869500Y13159100D03*
X869500Y9959100D03*
D21*
X469500Y11559100D03*
D20*
X556000Y23444000D03*
X556000Y20244000D03*
D21*
X156000Y21844000D03*
D18*
X-8743500Y19860900D03*
X-8743500Y23060900D03*
D19*
X-8343500Y21460900D03*
D22*
X-4655820Y27063700D03*
D23*
X-4820619Y-2322908D03*
D24*
X7084381Y-2322908D03*
X-16725619Y-2322908D03*
%LPD*%
M02*
