%TF.GenerationSoftware,KiCad,Pcbnew,8.0.4*%
%TF.CreationDate,2024-07-21T19:03:18-05:00*%
%TF.ProjectId,keanu-homeboy,6b65616e-752d-4686-9f6d-65626f792e6b,rev?*%
%TF.SameCoordinates,Original*%
%TF.FileFunction,Drillmap*%
%TF.FilePolarity,Positive*%
%FSLAX45Y45*%
G04 Gerber Fmt 4.5, Leading zero omitted, Abs format (unit mm)*
G04 Created by KiCad (PCBNEW 8.0.4) date 2024-07-21 19:03:18*
%MOMM*%
%LPD*%
G01*
G04 APERTURE LIST*
%ADD10C,0.100000*%
%ADD11C,0.200000*%
G04 APERTURE END LIST*
D10*
X-1701413Y-2012726D02*
X-1712397Y-2009486D01*
X-1712399Y-2009486D02*
X-1725764Y-2004674D01*
X-1725764Y-2004674D02*
X-1758027Y-1991175D01*
X-1758027Y-1991175D02*
X-1794971Y-1973911D01*
X-1794971Y-1973911D02*
X-1833367Y-1954567D01*
X-1833367Y-1954567D02*
X-1869982Y-1934827D01*
X-1869982Y-1934827D02*
X-1901586Y-1916372D01*
X-1901586Y-1916372D02*
X-1924947Y-1900889D01*
X-1924947Y-1900889D02*
X-1932527Y-1894787D01*
X-1932527Y-1894787D02*
X-1936835Y-1890059D01*
X-1936835Y-1890059D02*
X-1941769Y-1880603D01*
X-1941769Y-1880603D02*
X-1947441Y-1866764D01*
X-1947441Y-1866764D02*
X-1960416Y-1828297D01*
X-1960416Y-1828297D02*
X-1974593Y-1779371D01*
X-1974593Y-1779371D02*
X-1988807Y-1724701D01*
X-1988807Y-1724701D02*
X-2001892Y-1669000D01*
X-2001892Y-1669000D02*
X-2012683Y-1616983D01*
X-2012683Y-1616983D02*
X-2020012Y-1573364D01*
X-2020012Y-1573364D02*
X-2022014Y-1556177D01*
X-2022014Y-1556177D02*
X-2022714Y-1542857D01*
X-2022714Y-1542857D02*
X-2021488Y-1518352D01*
X-2021488Y-1518352D02*
X-2018151Y-1491786D01*
X-2018151Y-1491786D02*
X-2013211Y-1466361D01*
X-2013211Y-1466361D02*
X-2007179Y-1445278D01*
X-2007179Y-1445278D02*
X-2001871Y-1429437D01*
X-2001871Y-1429437D02*
X-1997327Y-1413407D01*
X-1997327Y-1413407D02*
X-1993554Y-1396916D01*
X-1993554Y-1396916D02*
X-1990558Y-1379691D01*
X-1990558Y-1379691D02*
X-1988347Y-1361460D01*
X-1988347Y-1361460D02*
X-1986926Y-1341950D01*
X-1986926Y-1341950D02*
X-1986306Y-1320887D01*
X-1986306Y-1320887D02*
X-1986486Y-1298000D01*
X-1986486Y-1298000D02*
X-1989288Y-1245659D01*
X-1989288Y-1245659D02*
X-1995387Y-1182744D01*
X-1995387Y-1182744D02*
X-2004836Y-1107073D01*
X-2004836Y-1107073D02*
X-2017689Y-1016463D01*
X-2017689Y-1016463D02*
X-2030325Y-929130D01*
X-2030325Y-929130D02*
X-2039573Y-859017D01*
X-2039573Y-859017D02*
X-2045563Y-801605D01*
X-2045563Y-801605D02*
X-2048426Y-752375D01*
X-2048426Y-752375D02*
X-2048296Y-706806D01*
X-2048296Y-706806D02*
X-2045294Y-660380D01*
X-2045294Y-660380D02*
X-2039554Y-608576D01*
X-2039554Y-608576D02*
X-2031207Y-546875D01*
X-2031207Y-546875D02*
X-2025054Y-496753D01*
X-2025054Y-496753D02*
X-2021059Y-449088D01*
X-2021059Y-449088D02*
X-2019220Y-403985D01*
X-2019220Y-403985D02*
X-2019530Y-361551D01*
X-2019530Y-361551D02*
X-2021990Y-321892D01*
X-2021990Y-321892D02*
X-2026594Y-285116D01*
X-2026594Y-285116D02*
X-2033338Y-251327D01*
X-2033338Y-251327D02*
X-2042220Y-220634D01*
X-2042220Y-220634D02*
X-2052570Y-188820D01*
X-2052570Y-188820D02*
X-2062145Y-156296D01*
X-2062145Y-156296D02*
X-2070920Y-123259D01*
X-2070920Y-123259D02*
X-2078872Y-89909D01*
X-2078872Y-89909D02*
X-2085976Y-56446D01*
X-2085976Y-56446D02*
X-2092208Y-23067D01*
X-2092208Y-23067D02*
X-2097543Y10027D01*
X-2097543Y10027D02*
X-2101958Y42639D01*
X-2101958Y42639D02*
X-2105428Y74568D01*
X-2105428Y74568D02*
X-2107928Y105616D01*
X-2107928Y105616D02*
X-2109435Y135585D01*
X-2109435Y135585D02*
X-2109925Y164274D01*
X-2109925Y164274D02*
X-2109375Y191485D01*
X-2109375Y191485D02*
X-2107755Y217020D01*
X-2107755Y217020D02*
X-2105044Y240678D01*
X-2105044Y240678D02*
X-2101218Y262262D01*
X-2101218Y262262D02*
X-2094473Y286603D01*
X-2094473Y286603D02*
X-2084715Y312364D01*
X-2084715Y312364D02*
X-2072746Y338184D01*
X-2072746Y338184D02*
X-2059372Y362700D01*
X-2059372Y362700D02*
X-2045394Y384551D01*
X-2045394Y384551D02*
X-2031616Y402375D01*
X-2031616Y402375D02*
X-2025053Y409351D01*
X-2025053Y409351D02*
X-2018842Y414810D01*
X-2018842Y414810D02*
X-2013083Y418581D01*
X-2013083Y418581D02*
X-2007876Y420494D01*
X-2007876Y420494D02*
X-2003080Y422006D01*
X-2003080Y422006D02*
X-1997004Y424888D01*
X-1997004Y424888D02*
X-1982004Y434090D01*
X-1982004Y434090D02*
X-1964855Y446753D01*
X-1964855Y446753D02*
X-1947536Y461529D01*
X-1947536Y461529D02*
X-1930103Y476906D01*
X-1930103Y476906D02*
X-1912643Y491203D01*
X-1912643Y491203D02*
X-1897182Y502824D01*
X-1897182Y502824D02*
X-1885748Y510172D01*
X-1885748Y510172D02*
X-1877665Y515538D01*
X-1877665Y515538D02*
X-1871586Y521862D01*
X-1871586Y521862D02*
X-1867522Y529064D01*
X-1867522Y529064D02*
X-1865481Y537065D01*
X-1865481Y537065D02*
X-1865475Y545785D01*
X-1865475Y545785D02*
X-1867512Y555145D01*
X-1867512Y555145D02*
X-1871602Y565065D01*
X-1871602Y565065D02*
X-1877755Y575465D01*
X-1877755Y575465D02*
X-1886261Y589592D01*
X-1886261Y589592D02*
X-1895341Y607594D01*
X-1895341Y607594D02*
X-1904914Y629196D01*
X-1904914Y629196D02*
X-1914897Y654120D01*
X-1914897Y654120D02*
X-1935767Y712829D01*
X-1935767Y712829D02*
X-1957294Y781510D01*
X-1957294Y781510D02*
X-1978822Y857951D01*
X-1978822Y857951D02*
X-1999695Y939940D01*
X-1999695Y939940D02*
X-2019257Y1025265D01*
X-2019257Y1025265D02*
X-2036851Y1111714D01*
X-2036851Y1111714D02*
X-2040027Y1131648D01*
X-2040027Y1131648D02*
X-2042864Y1155838D01*
X-2042864Y1155838D02*
X-2047491Y1214444D01*
X-2047491Y1214444D02*
X-2050670Y1282443D01*
X-2050670Y1282443D02*
X-2052339Y1354749D01*
X-2052339Y1354749D02*
X-2052434Y1426275D01*
X-2052434Y1426275D02*
X-2050894Y1491931D01*
X-2050894Y1491931D02*
X-2047656Y1546632D01*
X-2047656Y1546632D02*
X-2045381Y1568285D01*
X-2045381Y1568285D02*
X-2042658Y1585290D01*
X-2042658Y1585290D02*
X-2007189Y1761521D01*
X-2007189Y1761521D02*
X-1992498Y1832131D01*
X-1992498Y1832131D02*
X-1978305Y1893877D01*
X-1978305Y1893877D02*
X-1963889Y1948960D01*
X-1963889Y1948960D02*
X-1948530Y1999581D01*
X-1948530Y1999581D02*
X-1931508Y2047940D01*
X-1931508Y2047940D02*
X-1912104Y2096237D01*
X-1912104Y2096237D02*
X-1889598Y2146675D01*
X-1889598Y2146675D02*
X-1863269Y2201452D01*
X-1863269Y2201452D02*
X-1840462Y2246261D01*
X-1840462Y2246261D02*
X-1816941Y2289766D01*
X-1816941Y2289766D02*
X-1792732Y2331934D01*
X-1792732Y2331934D02*
X-1767864Y2372730D01*
X-1767864Y2372730D02*
X-1742363Y2412121D01*
X-1742363Y2412121D02*
X-1716256Y2450072D01*
X-1716256Y2450072D02*
X-1689571Y2486551D01*
X-1689571Y2486551D02*
X-1662335Y2521523D01*
X-1662335Y2521523D02*
X-1634575Y2554954D01*
X-1634575Y2554954D02*
X-1606318Y2586811D01*
X-1606318Y2586811D02*
X-1577591Y2617059D01*
X-1577591Y2617059D02*
X-1548422Y2645666D01*
X-1548422Y2645666D02*
X-1518837Y2672596D01*
X-1518837Y2672596D02*
X-1488865Y2697817D01*
X-1488865Y2697817D02*
X-1458531Y2721295D01*
X-1458531Y2721295D02*
X-1427864Y2742995D01*
X-1427864Y2742995D02*
X-1377804Y2775154D01*
X-1377804Y2775154D02*
X-1324955Y2806109D01*
X-1324955Y2806109D02*
X-1270469Y2835324D01*
X-1270469Y2835324D02*
X-1215499Y2862259D01*
X-1215499Y2862259D02*
X-1161194Y2886377D01*
X-1161194Y2886377D02*
X-1108706Y2907140D01*
X-1108706Y2907140D02*
X-1059187Y2924010D01*
X-1059187Y2924010D02*
X-1035901Y2930817D01*
X-1035901Y2930817D02*
X-1013788Y2936450D01*
X-1013788Y2936450D02*
X-927803Y2955482D01*
X-927803Y2955482D02*
X-866056Y2967335D01*
X-866056Y2967335D02*
X-795686Y2979134D01*
X-795686Y2979134D02*
X-688969Y2998036D01*
X-688969Y2998036D02*
X-638410Y3006321D01*
X-638410Y3006321D02*
X-587782Y3012921D01*
X-587782Y3012921D02*
X-537101Y3017837D01*
X-537101Y3017837D02*
X-486381Y3021070D01*
X-486381Y3021070D02*
X-435636Y3022621D01*
X-435636Y3022621D02*
X-384882Y3022491D01*
X-384882Y3022491D02*
X-334132Y3020682D01*
X-334132Y3020682D02*
X-283402Y3017195D01*
X-283402Y3017195D02*
X-232705Y3012031D01*
X-232705Y3012031D02*
X-182058Y3005192D01*
X-182058Y3005192D02*
X-131473Y2996678D01*
X-131473Y2996678D02*
X-80967Y2986491D01*
X-80967Y2986491D02*
X-30552Y2974632D01*
X-30552Y2974632D02*
X19755Y2961103D01*
X19755Y2961103D02*
X69941Y2945905D01*
X69941Y2945905D02*
X119990Y2929038D01*
X119990Y2929038D02*
X147715Y2917608D01*
X147715Y2917608D02*
X183500Y2900468D01*
X183500Y2900468D02*
X224685Y2879114D01*
X224685Y2879114D02*
X268606Y2855041D01*
X268606Y2855041D02*
X312603Y2829743D01*
X312603Y2829743D02*
X354012Y2804715D01*
X354012Y2804715D02*
X390173Y2781453D01*
X390173Y2781453D02*
X418424Y2761450D01*
X418424Y2761450D02*
X455437Y2732107D01*
X455437Y2732107D02*
X493202Y2700173D01*
X493202Y2700173D02*
X530707Y2666627D01*
X530707Y2666627D02*
X566941Y2632448D01*
X566941Y2632448D02*
X600894Y2598616D01*
X600894Y2598616D02*
X631555Y2566110D01*
X631555Y2566110D02*
X657914Y2535909D01*
X657914Y2535909D02*
X678960Y2508993D01*
X678960Y2508993D02*
X696695Y2483483D01*
X696695Y2483483D02*
X714538Y2455873D01*
X714538Y2455873D02*
X732394Y2426374D01*
X732394Y2426374D02*
X750167Y2395198D01*
X750167Y2395198D02*
X767765Y2362555D01*
X767765Y2362555D02*
X785091Y2328656D01*
X785091Y2328656D02*
X802051Y2293711D01*
X802051Y2293711D02*
X818550Y2257933D01*
X818550Y2257933D02*
X849786Y2184715D01*
X849786Y2184715D02*
X864334Y2147698D01*
X864334Y2147698D02*
X878042Y2110691D01*
X878042Y2110691D02*
X890815Y2073903D01*
X890815Y2073903D02*
X902559Y2037545D01*
X902559Y2037545D02*
X913179Y2001830D01*
X913179Y2001830D02*
X922580Y1966966D01*
X922580Y1966966D02*
X937114Y1905312D01*
X937114Y1905312D02*
X949808Y1841788D01*
X949808Y1841788D02*
X960658Y1776666D01*
X960658Y1776666D02*
X969663Y1710214D01*
X969663Y1710214D02*
X976820Y1642704D01*
X976820Y1642704D02*
X982126Y1574405D01*
X982126Y1574405D02*
X985579Y1505587D01*
X985579Y1505587D02*
X987175Y1436522D01*
X987175Y1436522D02*
X986915Y1367479D01*
X986915Y1367479D02*
X984791Y1298728D01*
X984791Y1298728D02*
X980804Y1230540D01*
X980804Y1230540D02*
X974950Y1163185D01*
X974950Y1163185D02*
X967227Y1096932D01*
X967227Y1096932D02*
X957632Y1032053D01*
X957632Y1032053D02*
X946163Y968817D01*
X946163Y968817D02*
X932817Y907495D01*
X932817Y907495D02*
X921662Y865268D01*
X921662Y865268D02*
X909065Y826012D01*
X909065Y826012D02*
X895443Y790547D01*
X895443Y790547D02*
X881213Y759693D01*
X881213Y759693D02*
X866793Y734268D01*
X866793Y734268D02*
X859642Y723848D01*
X859642Y723848D02*
X852600Y715093D01*
X852600Y715093D02*
X845719Y708105D01*
X845719Y708105D02*
X839051Y702987D01*
X839051Y702987D02*
X832648Y699841D01*
X832648Y699841D02*
X826563Y698770D01*
X826563Y698770D02*
X821910Y697637D01*
X821910Y697637D02*
X816309Y694552D01*
X816309Y694552D02*
X810465Y689987D01*
X810465Y689987D02*
X805083Y684412D01*
X805083Y684412D02*
X802179Y680247D01*
X802179Y680247D02*
X801359Y676883D01*
X801359Y676883D02*
X802983Y674206D01*
X802983Y674206D02*
X807424Y672101D01*
X807424Y672101D02*
X815050Y670454D01*
X815050Y670454D02*
X826229Y669150D01*
X826229Y669150D02*
X860721Y667112D01*
X860721Y667112D02*
X928272Y664170D01*
X928272Y664170D02*
X931147Y593944D01*
X931147Y593944D02*
X933241Y554293D01*
X933241Y554293D02*
X934715Y542032D01*
X934715Y542032D02*
X936854Y533876D01*
X936854Y533876D02*
X939941Y529123D01*
X939941Y529123D02*
X944262Y527070D01*
X944262Y527070D02*
X950100Y527014D01*
X950100Y527014D02*
X957740Y528252D01*
X957740Y528252D02*
X965116Y529112D01*
X965116Y529112D02*
X971615Y528202D01*
X971615Y528202D02*
X977752Y524896D01*
X977752Y524896D02*
X984041Y518557D01*
X984041Y518557D02*
X990995Y508551D01*
X990995Y508551D02*
X999128Y494244D01*
X999128Y494244D02*
X1020988Y450189D01*
X1020988Y450189D02*
X1034006Y420768D01*
X1034006Y420768D02*
X1045537Y390010D01*
X1045537Y390010D02*
X1055582Y357910D01*
X1055582Y357910D02*
X1064140Y324460D01*
X1064140Y324460D02*
X1071212Y289653D01*
X1071212Y289653D02*
X1076799Y253482D01*
X1076799Y253482D02*
X1080900Y215939D01*
X1080900Y215939D02*
X1083517Y177019D01*
X1083517Y177019D02*
X1084649Y136714D01*
X1084649Y136714D02*
X1084299Y95016D01*
X1084299Y95016D02*
X1082463Y51919D01*
X1082463Y51919D02*
X1079143Y7416D01*
X1079143Y7416D02*
X1074340Y-38500D01*
X1074340Y-38500D02*
X1068054Y-85837D01*
X1068054Y-85837D02*
X1060285Y-134602D01*
X1060285Y-134602D02*
X1051034Y-184800D01*
X1051034Y-184800D02*
X1040364Y-242965D01*
X1040364Y-242965D02*
X1037701Y-265081D01*
X1037701Y-265081D02*
X1036821Y-285928D01*
X1036821Y-285928D02*
X1037731Y-308036D01*
X1037731Y-308036D02*
X1040424Y-333936D01*
X1040424Y-333936D02*
X1051175Y-407237D01*
X1051175Y-407237D02*
X1074530Y-563133D01*
X1074530Y-563133D02*
X1081854Y-618974D01*
X1081854Y-618974D02*
X1086693Y-664818D01*
X1086693Y-664818D02*
X1089361Y-704221D01*
X1089361Y-704221D02*
X1090171Y-740740D01*
X1090171Y-740740D02*
X1089431Y-777931D01*
X1089431Y-777931D02*
X1087463Y-819350D01*
X1087463Y-819350D02*
X1075447Y-1036231D01*
X1075447Y-1036231D02*
X1069975Y-1135092D01*
X1069975Y-1135092D02*
X1127306Y-1308098D01*
X1127306Y-1308098D02*
X1158848Y-1405559D01*
X1158848Y-1405559D02*
X1168930Y-1440126D01*
X1168930Y-1440126D02*
X1175927Y-1468543D01*
X1175927Y-1468543D02*
X1180371Y-1493277D01*
X1180371Y-1493277D02*
X1182793Y-1516799D01*
X1182793Y-1516799D02*
X1183723Y-1541577D01*
X1183723Y-1541577D02*
X1183695Y-1570079D01*
X1183695Y-1570079D02*
X1182066Y-1608190D01*
X1182066Y-1608190D02*
X1178169Y-1649821D01*
X1178169Y-1649821D02*
X1172354Y-1693123D01*
X1172354Y-1693123D02*
X1164971Y-1736249D01*
X1164971Y-1736249D02*
X1156372Y-1777353D01*
X1156372Y-1777353D02*
X1146906Y-1814588D01*
X1146906Y-1814588D02*
X1136924Y-1846105D01*
X1136924Y-1846105D02*
X1131849Y-1859143D01*
X1131849Y-1859143D02*
X1126777Y-1870059D01*
X1126777Y-1870059D02*
X1121995Y-1877750D01*
X1121995Y-1877750D02*
X1115281Y-1886184D01*
X1115281Y-1886184D02*
X1106805Y-1895210D01*
X1106805Y-1895210D02*
X1096739Y-1904674D01*
X1096739Y-1904674D02*
X1072518Y-1924309D01*
X1072518Y-1924309D02*
X1043989Y-1943867D01*
X1043989Y-1943867D02*
X997784Y-1972134D01*
X997784Y-1972134D02*
X977739Y-1983311D01*
X977739Y-1983311D02*
X959268Y-1992535D01*
X959268Y-1992535D02*
X942025Y-1999820D01*
X942025Y-1999820D02*
X925662Y-2005178D01*
X925662Y-2005178D02*
X909830Y-2008623D01*
X909830Y-2008623D02*
X894183Y-2010168D01*
X894183Y-2010168D02*
X878373Y-2009828D01*
X878373Y-2009828D02*
X862052Y-2007614D01*
X862052Y-2007614D02*
X844873Y-2003540D01*
X844873Y-2003540D02*
X826488Y-1997619D01*
X826488Y-1997619D02*
X806549Y-1989865D01*
X806549Y-1989865D02*
X784710Y-1980291D01*
X784710Y-1980291D02*
X733937Y-1955737D01*
X733937Y-1955737D02*
X683707Y-1931355D01*
X683707Y-1931355D02*
X638255Y-1911240D01*
X638255Y-1911240D02*
X595200Y-1894720D01*
X595200Y-1894720D02*
X552161Y-1881124D01*
X552161Y-1881124D02*
X506754Y-1869780D01*
X506754Y-1869780D02*
X456599Y-1860016D01*
X456599Y-1860016D02*
X399312Y-1851160D01*
X399312Y-1851160D02*
X332513Y-1842541D01*
X332513Y-1842541D02*
X270962Y-1834406D01*
X270962Y-1834406D02*
X217041Y-1825712D01*
X217041Y-1825712D02*
X170276Y-1816322D01*
X170276Y-1816322D02*
X130195Y-1806098D01*
X130195Y-1806098D02*
X96325Y-1794904D01*
X96325Y-1794904D02*
X81572Y-1788901D01*
X81572Y-1788901D02*
X68193Y-1782604D01*
X68193Y-1782604D02*
X56131Y-1775995D01*
X56131Y-1775995D02*
X45326Y-1769058D01*
X45326Y-1769058D02*
X35719Y-1761776D01*
X35719Y-1761776D02*
X27251Y-1754132D01*
X27251Y-1754132D02*
X15968Y-1740698D01*
X15968Y-1740698D02*
X2977Y-1721639D01*
X2977Y-1721639D02*
X-10731Y-1698853D01*
X-10731Y-1698853D02*
X-24168Y-1674241D01*
X-24168Y-1674241D02*
X-36342Y-1649702D01*
X-36342Y-1649702D02*
X-46265Y-1627136D01*
X-46265Y-1627136D02*
X-52947Y-1608441D01*
X-52947Y-1608441D02*
X-54763Y-1601139D01*
X-54763Y-1601139D02*
X-55393Y-1595518D01*
X-55393Y-1595518D02*
X-56113Y-1591637D01*
X-56113Y-1591637D02*
X-58182Y-1585991D01*
X-58182Y-1585991D02*
X-65780Y-1570478D01*
X-65780Y-1570478D02*
X-77023Y-1551127D01*
X-77023Y-1551127D02*
X-90750Y-1530084D01*
X-90750Y-1530084D02*
X-126101Y-1478754D01*
X-126101Y-1478754D02*
X-231626Y-1451476D01*
X-231626Y-1451476D02*
X-271552Y-1440746D01*
X-271552Y-1440746D02*
X-305978Y-1430565D01*
X-305978Y-1430565D02*
X-335391Y-1420726D01*
X-335391Y-1420726D02*
X-360281Y-1411020D01*
X-360281Y-1411020D02*
X-381136Y-1401239D01*
X-381136Y-1401239D02*
X-398443Y-1391176D01*
X-398443Y-1391176D02*
X-412692Y-1380623D01*
X-412692Y-1380623D02*
X-424369Y-1369371D01*
X-424369Y-1369371D02*
X-433645Y-1360691D01*
X-433645Y-1360691D02*
X-445583Y-1351785D01*
X-445583Y-1351785D02*
X-458645Y-1343698D01*
X-458645Y-1343698D02*
X-471290Y-1337477D01*
X-471290Y-1337477D02*
X-480418Y-1333945D01*
X-480418Y-1333945D02*
X-488106Y-1331815D01*
X-488106Y-1331815D02*
X-494970Y-1331295D01*
X-494970Y-1331295D02*
X-501625Y-1332592D01*
X-501625Y-1332592D02*
X-508688Y-1335913D01*
X-508688Y-1335913D02*
X-516775Y-1341466D01*
X-516775Y-1341466D02*
X-538485Y-1360095D01*
X-538485Y-1360095D02*
X-554377Y-1373020D01*
X-554377Y-1373020D02*
X-572776Y-1385361D01*
X-572776Y-1385361D02*
X-593624Y-1397092D01*
X-593624Y-1397092D02*
X-616863Y-1408190D01*
X-616863Y-1408190D02*
X-642438Y-1418628D01*
X-642438Y-1418628D02*
X-670289Y-1428381D01*
X-670289Y-1428381D02*
X-700361Y-1437424D01*
X-700361Y-1437424D02*
X-732595Y-1445732D01*
X-732595Y-1445732D02*
X-753980Y-1451262D01*
X-753980Y-1451262D02*
X-771549Y-1456967D01*
X-771549Y-1456967D02*
X-785910Y-1463314D01*
X-785910Y-1463314D02*
X-797673Y-1470769D01*
X-797673Y-1470769D02*
X-807447Y-1479798D01*
X-807447Y-1479798D02*
X-815842Y-1490868D01*
X-815842Y-1490868D02*
X-823467Y-1504445D01*
X-823467Y-1504445D02*
X-830931Y-1520995D01*
X-830931Y-1520995D02*
X-842798Y-1545358D01*
X-842798Y-1545358D02*
X-863026Y-1582712D01*
X-863026Y-1582712D02*
X-888783Y-1627972D01*
X-888783Y-1627972D02*
X-917236Y-1676047D01*
X-917236Y-1676047D02*
X-948691Y-1725800D01*
X-948691Y-1725800D02*
X-979591Y-1770100D01*
X-979591Y-1770100D02*
X-1009604Y-1808601D01*
X-1009604Y-1808601D02*
X-1024174Y-1825569D01*
X-1024174Y-1825569D02*
X-1038397Y-1840957D01*
X-1038397Y-1840957D02*
X-1052232Y-1854723D01*
X-1052232Y-1854723D02*
X-1065638Y-1866823D01*
X-1065638Y-1866823D02*
X-1078572Y-1877215D01*
X-1078572Y-1877215D02*
X-1090994Y-1885854D01*
X-1090994Y-1885854D02*
X-1102861Y-1892697D01*
X-1102861Y-1892697D02*
X-1114131Y-1897702D01*
X-1114131Y-1897702D02*
X-1124765Y-1900825D01*
X-1124765Y-1900825D02*
X-1134719Y-1902023D01*
X-1134719Y-1902023D02*
X-1162285Y-1903390D01*
X-1162285Y-1903390D02*
X-1182411Y-1905652D01*
X-1182411Y-1905652D02*
X-1216103Y-1909833D01*
X-1216103Y-1909833D02*
X-1276283Y-1915852D01*
X-1276283Y-1915852D02*
X-1307540Y-1919418D01*
X-1307540Y-1919418D02*
X-1338811Y-1924381D01*
X-1338811Y-1924381D02*
X-1370616Y-1930881D01*
X-1370616Y-1930881D02*
X-1403476Y-1939059D01*
X-1403476Y-1939059D02*
X-1437911Y-1949056D01*
X-1437911Y-1949056D02*
X-1474441Y-1961012D01*
X-1474441Y-1961012D02*
X-1513586Y-1975068D01*
X-1513586Y-1975068D02*
X-1555868Y-1991365D01*
X-1555868Y-1991365D02*
X-1580061Y-2000551D01*
X-1580061Y-2000551D02*
X-1601464Y-2007717D01*
X-1601464Y-2007717D02*
X-1620614Y-2012943D01*
X-1620614Y-2012943D02*
X-1638051Y-2016307D01*
X-1638051Y-2016307D02*
X-1654313Y-2017888D01*
X-1654313Y-2017888D02*
X-1669937Y-2017768D01*
X-1669937Y-2017768D02*
X-1685463Y-2016021D01*
X-1685463Y-2016021D02*
X-1701413Y-2012726D01*
D11*
X-1854148Y-2334372D02*
X-1854148Y-2134372D01*
X-1854148Y-2134372D02*
X-1806529Y-2134372D01*
X-1806529Y-2134372D02*
X-1777957Y-2143896D01*
X-1777957Y-2143896D02*
X-1758910Y-2162943D01*
X-1758910Y-2162943D02*
X-1749386Y-2181991D01*
X-1749386Y-2181991D02*
X-1739862Y-2220086D01*
X-1739862Y-2220086D02*
X-1739862Y-2248658D01*
X-1739862Y-2248658D02*
X-1749386Y-2286753D01*
X-1749386Y-2286753D02*
X-1758910Y-2305800D01*
X-1758910Y-2305800D02*
X-1777957Y-2324848D01*
X-1777957Y-2324848D02*
X-1806529Y-2334372D01*
X-1806529Y-2334372D02*
X-1854148Y-2334372D01*
X-1654148Y-2334372D02*
X-1654148Y-2201039D01*
X-1654148Y-2239134D02*
X-1644624Y-2220086D01*
X-1644624Y-2220086D02*
X-1635100Y-2210562D01*
X-1635100Y-2210562D02*
X-1616053Y-2201039D01*
X-1616053Y-2201039D02*
X-1597005Y-2201039D01*
X-1530338Y-2334372D02*
X-1530338Y-2201039D01*
X-1530338Y-2134372D02*
X-1539862Y-2143896D01*
X-1539862Y-2143896D02*
X-1530338Y-2153420D01*
X-1530338Y-2153420D02*
X-1520814Y-2143896D01*
X-1520814Y-2143896D02*
X-1530338Y-2134372D01*
X-1530338Y-2134372D02*
X-1530338Y-2153420D01*
X-1406529Y-2334372D02*
X-1425576Y-2324848D01*
X-1425576Y-2324848D02*
X-1435100Y-2305800D01*
X-1435100Y-2305800D02*
X-1435100Y-2134372D01*
X-1301767Y-2334372D02*
X-1320815Y-2324848D01*
X-1320815Y-2324848D02*
X-1330338Y-2305800D01*
X-1330338Y-2305800D02*
X-1330338Y-2134372D01*
X-1073195Y-2334372D02*
X-1073195Y-2134372D01*
X-1073195Y-2134372D02*
X-1006529Y-2277229D01*
X-1006529Y-2277229D02*
X-939862Y-2134372D01*
X-939862Y-2134372D02*
X-939862Y-2334372D01*
X-758910Y-2334372D02*
X-758910Y-2229610D01*
X-758910Y-2229610D02*
X-768433Y-2210562D01*
X-768433Y-2210562D02*
X-787481Y-2201039D01*
X-787481Y-2201039D02*
X-825576Y-2201039D01*
X-825576Y-2201039D02*
X-844624Y-2210562D01*
X-758910Y-2324848D02*
X-777957Y-2334372D01*
X-777957Y-2334372D02*
X-825576Y-2334372D01*
X-825576Y-2334372D02*
X-844624Y-2324848D01*
X-844624Y-2324848D02*
X-854148Y-2305800D01*
X-854148Y-2305800D02*
X-854148Y-2286753D01*
X-854148Y-2286753D02*
X-844624Y-2267705D01*
X-844624Y-2267705D02*
X-825576Y-2258181D01*
X-825576Y-2258181D02*
X-777957Y-2258181D01*
X-777957Y-2258181D02*
X-758910Y-2248658D01*
X-663672Y-2201039D02*
X-663672Y-2401039D01*
X-663672Y-2210562D02*
X-644624Y-2201039D01*
X-644624Y-2201039D02*
X-606529Y-2201039D01*
X-606529Y-2201039D02*
X-587481Y-2210562D01*
X-587481Y-2210562D02*
X-577957Y-2220086D01*
X-577957Y-2220086D02*
X-568434Y-2239134D01*
X-568434Y-2239134D02*
X-568434Y-2296277D01*
X-568434Y-2296277D02*
X-577957Y-2315324D01*
X-577957Y-2315324D02*
X-587481Y-2324848D01*
X-587481Y-2324848D02*
X-606529Y-2334372D01*
X-606529Y-2334372D02*
X-644624Y-2334372D01*
X-644624Y-2334372D02*
X-663672Y-2324848D01*
X-482719Y-2315324D02*
X-473195Y-2324848D01*
X-473195Y-2324848D02*
X-482719Y-2334372D01*
X-482719Y-2334372D02*
X-492243Y-2324848D01*
X-492243Y-2324848D02*
X-482719Y-2315324D01*
X-482719Y-2315324D02*
X-482719Y-2334372D01*
X-482719Y-2210562D02*
X-473195Y-2220086D01*
X-473195Y-2220086D02*
X-482719Y-2229610D01*
X-482719Y-2229610D02*
X-492243Y-2220086D01*
X-492243Y-2220086D02*
X-482719Y-2210562D01*
X-482719Y-2210562D02*
X-482719Y-2229610D01*
M02*
