G04 #@! TF.GenerationSoftware,KiCad,Pcbnew,(5.1.2)-1*
G04 #@! TF.CreationDate,2019-09-13T22:49:14-05:00*
G04 #@! TF.ProjectId,keanu-homeboy,6b65616e-752d-4686-9f6d-65626f792e6b,rev?*
G04 #@! TF.SameCoordinates,Original*
G04 #@! TF.FileFunction,Copper,L2,Bot*
G04 #@! TF.FilePolarity,Positive*
%FSLAX46Y46*%
G04 Gerber Fmt 4.6, Leading zero omitted, Abs format (unit mm)*
G04 Created by KiCad (PCBNEW (5.1.2)-1) date 2019-09-13 22:49:14*
%MOMM*%
%LPD*%
G04 APERTURE LIST*
%ADD10C,3.000000*%
%ADD11C,1.727200*%
%ADD12O,1.727200X1.727200*%
%ADD13R,1.727200X1.727200*%
%ADD14R,8.000000X5.560000*%
%ADD15R,2.600000X5.560000*%
%ADD16C,0.100000*%
%ADD17C,1.250000*%
%ADD18C,1.400000*%
%ADD19C,0.250000*%
%ADD20C,0.254000*%
G04 APERTURE END LIST*
D10*
X-4655820Y27063700D03*
D11*
X-12476480Y-13944600D03*
X-12476480Y-16484600D03*
D12*
X-15016480Y-13944600D03*
X-15016480Y-16484600D03*
X-17556480Y-13944600D03*
D13*
X-17556480Y-16484600D03*
D14*
X-4820619Y-2322908D03*
D15*
X7084381Y-2322908D03*
X-16725619Y-2322908D03*
D16*
G36*
X-9175216Y13405536D02*
G01*
X-9150947Y13401936D01*
X-9127149Y13395975D01*
X-9104049Y13387710D01*
X-9081871Y13377220D01*
X-9060827Y13364607D01*
X-9041122Y13349993D01*
X-9022943Y13333517D01*
X-9006467Y13315338D01*
X-8991853Y13295633D01*
X-8979240Y13274589D01*
X-8968750Y13252411D01*
X-8960485Y13229311D01*
X-8954524Y13205513D01*
X-8950924Y13181244D01*
X-8949720Y13156740D01*
X-8949720Y12406740D01*
X-8950924Y12382236D01*
X-8954524Y12357967D01*
X-8960485Y12334169D01*
X-8968750Y12311069D01*
X-8979240Y12288891D01*
X-8991853Y12267847D01*
X-9006467Y12248142D01*
X-9022943Y12229963D01*
X-9041122Y12213487D01*
X-9060827Y12198873D01*
X-9081871Y12186260D01*
X-9104049Y12175770D01*
X-9127149Y12167505D01*
X-9150947Y12161544D01*
X-9175216Y12157944D01*
X-9199720Y12156740D01*
X-10449720Y12156740D01*
X-10474224Y12157944D01*
X-10498493Y12161544D01*
X-10522291Y12167505D01*
X-10545391Y12175770D01*
X-10567569Y12186260D01*
X-10588613Y12198873D01*
X-10608318Y12213487D01*
X-10626497Y12229963D01*
X-10642973Y12248142D01*
X-10657587Y12267847D01*
X-10670200Y12288891D01*
X-10680690Y12311069D01*
X-10688955Y12334169D01*
X-10694916Y12357967D01*
X-10698516Y12382236D01*
X-10699720Y12406740D01*
X-10699720Y13156740D01*
X-10698516Y13181244D01*
X-10694916Y13205513D01*
X-10688955Y13229311D01*
X-10680690Y13252411D01*
X-10670200Y13274589D01*
X-10657587Y13295633D01*
X-10642973Y13315338D01*
X-10626497Y13333517D01*
X-10608318Y13349993D01*
X-10588613Y13364607D01*
X-10567569Y13377220D01*
X-10545391Y13387710D01*
X-10522291Y13395975D01*
X-10498493Y13401936D01*
X-10474224Y13405536D01*
X-10449720Y13406740D01*
X-9199720Y13406740D01*
X-9175216Y13405536D01*
X-9175216Y13405536D01*
G37*
D17*
X-9824720Y12781740D03*
D16*
G36*
X-9175216Y10605536D02*
G01*
X-9150947Y10601936D01*
X-9127149Y10595975D01*
X-9104049Y10587710D01*
X-9081871Y10577220D01*
X-9060827Y10564607D01*
X-9041122Y10549993D01*
X-9022943Y10533517D01*
X-9006467Y10515338D01*
X-8991853Y10495633D01*
X-8979240Y10474589D01*
X-8968750Y10452411D01*
X-8960485Y10429311D01*
X-8954524Y10405513D01*
X-8950924Y10381244D01*
X-8949720Y10356740D01*
X-8949720Y9606740D01*
X-8950924Y9582236D01*
X-8954524Y9557967D01*
X-8960485Y9534169D01*
X-8968750Y9511069D01*
X-8979240Y9488891D01*
X-8991853Y9467847D01*
X-9006467Y9448142D01*
X-9022943Y9429963D01*
X-9041122Y9413487D01*
X-9060827Y9398873D01*
X-9081871Y9386260D01*
X-9104049Y9375770D01*
X-9127149Y9367505D01*
X-9150947Y9361544D01*
X-9175216Y9357944D01*
X-9199720Y9356740D01*
X-10449720Y9356740D01*
X-10474224Y9357944D01*
X-10498493Y9361544D01*
X-10522291Y9367505D01*
X-10545391Y9375770D01*
X-10567569Y9386260D01*
X-10588613Y9398873D01*
X-10608318Y9413487D01*
X-10626497Y9429963D01*
X-10642973Y9448142D01*
X-10657587Y9467847D01*
X-10670200Y9488891D01*
X-10680690Y9511069D01*
X-10688955Y9534169D01*
X-10694916Y9557967D01*
X-10698516Y9582236D01*
X-10699720Y9606740D01*
X-10699720Y10356740D01*
X-10698516Y10381244D01*
X-10694916Y10405513D01*
X-10688955Y10429311D01*
X-10680690Y10452411D01*
X-10670200Y10474589D01*
X-10657587Y10495633D01*
X-10642973Y10515338D01*
X-10626497Y10533517D01*
X-10608318Y10549993D01*
X-10588613Y10564607D01*
X-10567569Y10577220D01*
X-10545391Y10587710D01*
X-10522291Y10595975D01*
X-10498493Y10601936D01*
X-10474224Y10605536D01*
X-10449720Y10606740D01*
X-9199720Y10606740D01*
X-9175216Y10605536D01*
X-9175216Y10605536D01*
G37*
D17*
X-9824720Y9981740D03*
D16*
G36*
X-8337016Y21291776D02*
G01*
X-8312747Y21288176D01*
X-8288949Y21282215D01*
X-8265849Y21273950D01*
X-8243671Y21263460D01*
X-8222627Y21250847D01*
X-8202922Y21236233D01*
X-8184743Y21219757D01*
X-8168267Y21201578D01*
X-8153653Y21181873D01*
X-8141040Y21160829D01*
X-8130550Y21138651D01*
X-8122285Y21115551D01*
X-8116324Y21091753D01*
X-8112724Y21067484D01*
X-8111520Y21042980D01*
X-8111520Y20292980D01*
X-8112724Y20268476D01*
X-8116324Y20244207D01*
X-8122285Y20220409D01*
X-8130550Y20197309D01*
X-8141040Y20175131D01*
X-8153653Y20154087D01*
X-8168267Y20134382D01*
X-8184743Y20116203D01*
X-8202922Y20099727D01*
X-8222627Y20085113D01*
X-8243671Y20072500D01*
X-8265849Y20062010D01*
X-8288949Y20053745D01*
X-8312747Y20047784D01*
X-8337016Y20044184D01*
X-8361520Y20042980D01*
X-9611520Y20042980D01*
X-9636024Y20044184D01*
X-9660293Y20047784D01*
X-9684091Y20053745D01*
X-9707191Y20062010D01*
X-9729369Y20072500D01*
X-9750413Y20085113D01*
X-9770118Y20099727D01*
X-9788297Y20116203D01*
X-9804773Y20134382D01*
X-9819387Y20154087D01*
X-9832000Y20175131D01*
X-9842490Y20197309D01*
X-9850755Y20220409D01*
X-9856716Y20244207D01*
X-9860316Y20268476D01*
X-9861520Y20292980D01*
X-9861520Y21042980D01*
X-9860316Y21067484D01*
X-9856716Y21091753D01*
X-9850755Y21115551D01*
X-9842490Y21138651D01*
X-9832000Y21160829D01*
X-9819387Y21181873D01*
X-9804773Y21201578D01*
X-9788297Y21219757D01*
X-9770118Y21236233D01*
X-9750413Y21250847D01*
X-9729369Y21263460D01*
X-9707191Y21273950D01*
X-9684091Y21282215D01*
X-9660293Y21288176D01*
X-9636024Y21291776D01*
X-9611520Y21292980D01*
X-8361520Y21292980D01*
X-8337016Y21291776D01*
X-8337016Y21291776D01*
G37*
D17*
X-8986520Y20667980D03*
D16*
G36*
X-8337016Y24091776D02*
G01*
X-8312747Y24088176D01*
X-8288949Y24082215D01*
X-8265849Y24073950D01*
X-8243671Y24063460D01*
X-8222627Y24050847D01*
X-8202922Y24036233D01*
X-8184743Y24019757D01*
X-8168267Y24001578D01*
X-8153653Y23981873D01*
X-8141040Y23960829D01*
X-8130550Y23938651D01*
X-8122285Y23915551D01*
X-8116324Y23891753D01*
X-8112724Y23867484D01*
X-8111520Y23842980D01*
X-8111520Y23092980D01*
X-8112724Y23068476D01*
X-8116324Y23044207D01*
X-8122285Y23020409D01*
X-8130550Y22997309D01*
X-8141040Y22975131D01*
X-8153653Y22954087D01*
X-8168267Y22934382D01*
X-8184743Y22916203D01*
X-8202922Y22899727D01*
X-8222627Y22885113D01*
X-8243671Y22872500D01*
X-8265849Y22862010D01*
X-8288949Y22853745D01*
X-8312747Y22847784D01*
X-8337016Y22844184D01*
X-8361520Y22842980D01*
X-9611520Y22842980D01*
X-9636024Y22844184D01*
X-9660293Y22847784D01*
X-9684091Y22853745D01*
X-9707191Y22862010D01*
X-9729369Y22872500D01*
X-9750413Y22885113D01*
X-9770118Y22899727D01*
X-9788297Y22916203D01*
X-9804773Y22934382D01*
X-9819387Y22954087D01*
X-9832000Y22975131D01*
X-9842490Y22997309D01*
X-9850755Y23020409D01*
X-9856716Y23044207D01*
X-9860316Y23068476D01*
X-9861520Y23092980D01*
X-9861520Y23842980D01*
X-9860316Y23867484D01*
X-9856716Y23891753D01*
X-9850755Y23915551D01*
X-9842490Y23938651D01*
X-9832000Y23960829D01*
X-9819387Y23981873D01*
X-9804773Y24001578D01*
X-9788297Y24019757D01*
X-9770118Y24036233D01*
X-9750413Y24050847D01*
X-9729369Y24063460D01*
X-9707191Y24073950D01*
X-9684091Y24082215D01*
X-9660293Y24088176D01*
X-9636024Y24091776D01*
X-9611520Y24092980D01*
X-8361520Y24092980D01*
X-8337016Y24091776D01*
X-8337016Y24091776D01*
G37*
D17*
X-8986520Y23467980D03*
D16*
G36*
X1289584Y24091776D02*
G01*
X1313853Y24088176D01*
X1337651Y24082215D01*
X1360751Y24073950D01*
X1382929Y24063460D01*
X1403973Y24050847D01*
X1423678Y24036233D01*
X1441857Y24019757D01*
X1458333Y24001578D01*
X1472947Y23981873D01*
X1485560Y23960829D01*
X1496050Y23938651D01*
X1504315Y23915551D01*
X1510276Y23891753D01*
X1513876Y23867484D01*
X1515080Y23842980D01*
X1515080Y23092980D01*
X1513876Y23068476D01*
X1510276Y23044207D01*
X1504315Y23020409D01*
X1496050Y22997309D01*
X1485560Y22975131D01*
X1472947Y22954087D01*
X1458333Y22934382D01*
X1441857Y22916203D01*
X1423678Y22899727D01*
X1403973Y22885113D01*
X1382929Y22872500D01*
X1360751Y22862010D01*
X1337651Y22853745D01*
X1313853Y22847784D01*
X1289584Y22844184D01*
X1265080Y22842980D01*
X15080Y22842980D01*
X-9424Y22844184D01*
X-33693Y22847784D01*
X-57491Y22853745D01*
X-80591Y22862010D01*
X-102769Y22872500D01*
X-123813Y22885113D01*
X-143518Y22899727D01*
X-161697Y22916203D01*
X-178173Y22934382D01*
X-192787Y22954087D01*
X-205400Y22975131D01*
X-215890Y22997309D01*
X-224155Y23020409D01*
X-230116Y23044207D01*
X-233716Y23068476D01*
X-234920Y23092980D01*
X-234920Y23842980D01*
X-233716Y23867484D01*
X-230116Y23891753D01*
X-224155Y23915551D01*
X-215890Y23938651D01*
X-205400Y23960829D01*
X-192787Y23981873D01*
X-178173Y24001578D01*
X-161697Y24019757D01*
X-143518Y24036233D01*
X-123813Y24050847D01*
X-102769Y24063460D01*
X-80591Y24073950D01*
X-57491Y24082215D01*
X-33693Y24088176D01*
X-9424Y24091776D01*
X15080Y24092980D01*
X1265080Y24092980D01*
X1289584Y24091776D01*
X1289584Y24091776D01*
G37*
D17*
X640080Y23467980D03*
D16*
G36*
X1289584Y21291776D02*
G01*
X1313853Y21288176D01*
X1337651Y21282215D01*
X1360751Y21273950D01*
X1382929Y21263460D01*
X1403973Y21250847D01*
X1423678Y21236233D01*
X1441857Y21219757D01*
X1458333Y21201578D01*
X1472947Y21181873D01*
X1485560Y21160829D01*
X1496050Y21138651D01*
X1504315Y21115551D01*
X1510276Y21091753D01*
X1513876Y21067484D01*
X1515080Y21042980D01*
X1515080Y20292980D01*
X1513876Y20268476D01*
X1510276Y20244207D01*
X1504315Y20220409D01*
X1496050Y20197309D01*
X1485560Y20175131D01*
X1472947Y20154087D01*
X1458333Y20134382D01*
X1441857Y20116203D01*
X1423678Y20099727D01*
X1403973Y20085113D01*
X1382929Y20072500D01*
X1360751Y20062010D01*
X1337651Y20053745D01*
X1313853Y20047784D01*
X1289584Y20044184D01*
X1265080Y20042980D01*
X15080Y20042980D01*
X-9424Y20044184D01*
X-33693Y20047784D01*
X-57491Y20053745D01*
X-80591Y20062010D01*
X-102769Y20072500D01*
X-123813Y20085113D01*
X-143518Y20099727D01*
X-161697Y20116203D01*
X-178173Y20134382D01*
X-192787Y20154087D01*
X-205400Y20175131D01*
X-215890Y20197309D01*
X-224155Y20220409D01*
X-230116Y20244207D01*
X-233716Y20268476D01*
X-234920Y20292980D01*
X-234920Y21042980D01*
X-233716Y21067484D01*
X-230116Y21091753D01*
X-224155Y21115551D01*
X-215890Y21138651D01*
X-205400Y21160829D01*
X-192787Y21181873D01*
X-178173Y21201578D01*
X-161697Y21219757D01*
X-143518Y21236233D01*
X-123813Y21250847D01*
X-102769Y21263460D01*
X-80591Y21273950D01*
X-57491Y21282215D01*
X-33693Y21288176D01*
X-9424Y21291776D01*
X15080Y21292980D01*
X1265080Y21292980D01*
X1289584Y21291776D01*
X1289584Y21291776D01*
G37*
D17*
X640080Y20667980D03*
D16*
G36*
X1695984Y10605536D02*
G01*
X1720253Y10601936D01*
X1744051Y10595975D01*
X1767151Y10587710D01*
X1789329Y10577220D01*
X1810373Y10564607D01*
X1830078Y10549993D01*
X1848257Y10533517D01*
X1864733Y10515338D01*
X1879347Y10495633D01*
X1891960Y10474589D01*
X1902450Y10452411D01*
X1910715Y10429311D01*
X1916676Y10405513D01*
X1920276Y10381244D01*
X1921480Y10356740D01*
X1921480Y9606740D01*
X1920276Y9582236D01*
X1916676Y9557967D01*
X1910715Y9534169D01*
X1902450Y9511069D01*
X1891960Y9488891D01*
X1879347Y9467847D01*
X1864733Y9448142D01*
X1848257Y9429963D01*
X1830078Y9413487D01*
X1810373Y9398873D01*
X1789329Y9386260D01*
X1767151Y9375770D01*
X1744051Y9367505D01*
X1720253Y9361544D01*
X1695984Y9357944D01*
X1671480Y9356740D01*
X421480Y9356740D01*
X396976Y9357944D01*
X372707Y9361544D01*
X348909Y9367505D01*
X325809Y9375770D01*
X303631Y9386260D01*
X282587Y9398873D01*
X262882Y9413487D01*
X244703Y9429963D01*
X228227Y9448142D01*
X213613Y9467847D01*
X201000Y9488891D01*
X190510Y9511069D01*
X182245Y9534169D01*
X176284Y9557967D01*
X172684Y9582236D01*
X171480Y9606740D01*
X171480Y10356740D01*
X172684Y10381244D01*
X176284Y10405513D01*
X182245Y10429311D01*
X190510Y10452411D01*
X201000Y10474589D01*
X213613Y10495633D01*
X228227Y10515338D01*
X244703Y10533517D01*
X262882Y10549993D01*
X282587Y10564607D01*
X303631Y10577220D01*
X325809Y10587710D01*
X348909Y10595975D01*
X372707Y10601936D01*
X396976Y10605536D01*
X421480Y10606740D01*
X1671480Y10606740D01*
X1695984Y10605536D01*
X1695984Y10605536D01*
G37*
D17*
X1046480Y9981740D03*
D16*
G36*
X1695984Y13405536D02*
G01*
X1720253Y13401936D01*
X1744051Y13395975D01*
X1767151Y13387710D01*
X1789329Y13377220D01*
X1810373Y13364607D01*
X1830078Y13349993D01*
X1848257Y13333517D01*
X1864733Y13315338D01*
X1879347Y13295633D01*
X1891960Y13274589D01*
X1902450Y13252411D01*
X1910715Y13229311D01*
X1916676Y13205513D01*
X1920276Y13181244D01*
X1921480Y13156740D01*
X1921480Y12406740D01*
X1920276Y12382236D01*
X1916676Y12357967D01*
X1910715Y12334169D01*
X1902450Y12311069D01*
X1891960Y12288891D01*
X1879347Y12267847D01*
X1864733Y12248142D01*
X1848257Y12229963D01*
X1830078Y12213487D01*
X1810373Y12198873D01*
X1789329Y12186260D01*
X1767151Y12175770D01*
X1744051Y12167505D01*
X1720253Y12161544D01*
X1695984Y12157944D01*
X1671480Y12156740D01*
X421480Y12156740D01*
X396976Y12157944D01*
X372707Y12161544D01*
X348909Y12167505D01*
X325809Y12175770D01*
X303631Y12186260D01*
X282587Y12198873D01*
X262882Y12213487D01*
X244703Y12229963D01*
X228227Y12248142D01*
X213613Y12267847D01*
X201000Y12288891D01*
X190510Y12311069D01*
X182245Y12334169D01*
X176284Y12357967D01*
X172684Y12382236D01*
X171480Y12406740D01*
X171480Y13156740D01*
X172684Y13181244D01*
X176284Y13205513D01*
X182245Y13229311D01*
X190510Y13252411D01*
X201000Y13274589D01*
X213613Y13295633D01*
X228227Y13315338D01*
X244703Y13333517D01*
X262882Y13349993D01*
X282587Y13364607D01*
X303631Y13377220D01*
X325809Y13387710D01*
X348909Y13395975D01*
X372707Y13401936D01*
X396976Y13405536D01*
X421480Y13406740D01*
X1671480Y13406740D01*
X1695984Y13405536D01*
X1695984Y13405536D01*
G37*
D17*
X1046480Y12781740D03*
D16*
G36*
X-5218295Y14100536D02*
G01*
X-5194027Y14096936D01*
X-5170228Y14090975D01*
X-5147129Y14082710D01*
X-5124950Y14072220D01*
X-5103907Y14059608D01*
X-5084201Y14044993D01*
X-5066023Y14028517D01*
X-5049547Y14010339D01*
X-5034932Y13990633D01*
X-5022320Y13969590D01*
X-5011830Y13947411D01*
X-5003565Y13924312D01*
X-4997604Y13900513D01*
X-4994004Y13876245D01*
X-4992800Y13851741D01*
X-4992800Y12951739D01*
X-4994004Y12927235D01*
X-4997604Y12902967D01*
X-5003565Y12879168D01*
X-5011830Y12856069D01*
X-5022320Y12833890D01*
X-5034932Y12812847D01*
X-5049547Y12793141D01*
X-5066023Y12774963D01*
X-5084201Y12758487D01*
X-5103907Y12743872D01*
X-5124950Y12731260D01*
X-5147129Y12720770D01*
X-5170228Y12712505D01*
X-5194027Y12706544D01*
X-5218295Y12702944D01*
X-5242799Y12701740D01*
X-6542801Y12701740D01*
X-6567305Y12702944D01*
X-6591573Y12706544D01*
X-6615372Y12712505D01*
X-6638471Y12720770D01*
X-6660650Y12731260D01*
X-6681693Y12743872D01*
X-6701399Y12758487D01*
X-6719577Y12774963D01*
X-6736053Y12793141D01*
X-6750668Y12812847D01*
X-6763280Y12833890D01*
X-6773770Y12856069D01*
X-6782035Y12879168D01*
X-6787996Y12902967D01*
X-6791596Y12927235D01*
X-6792800Y12951739D01*
X-6792800Y13851741D01*
X-6791596Y13876245D01*
X-6787996Y13900513D01*
X-6782035Y13924312D01*
X-6773770Y13947411D01*
X-6763280Y13969590D01*
X-6750668Y13990633D01*
X-6736053Y14010339D01*
X-6719577Y14028517D01*
X-6701399Y14044993D01*
X-6681693Y14059608D01*
X-6660650Y14072220D01*
X-6638471Y14082710D01*
X-6615372Y14090975D01*
X-6591573Y14096936D01*
X-6567305Y14100536D01*
X-6542801Y14101740D01*
X-5242799Y14101740D01*
X-5218295Y14100536D01*
X-5218295Y14100536D01*
G37*
D18*
X-5892800Y13401740D03*
D16*
G36*
X-5218295Y10100536D02*
G01*
X-5194027Y10096936D01*
X-5170228Y10090975D01*
X-5147129Y10082710D01*
X-5124950Y10072220D01*
X-5103907Y10059608D01*
X-5084201Y10044993D01*
X-5066023Y10028517D01*
X-5049547Y10010339D01*
X-5034932Y9990633D01*
X-5022320Y9969590D01*
X-5011830Y9947411D01*
X-5003565Y9924312D01*
X-4997604Y9900513D01*
X-4994004Y9876245D01*
X-4992800Y9851741D01*
X-4992800Y8951739D01*
X-4994004Y8927235D01*
X-4997604Y8902967D01*
X-5003565Y8879168D01*
X-5011830Y8856069D01*
X-5022320Y8833890D01*
X-5034932Y8812847D01*
X-5049547Y8793141D01*
X-5066023Y8774963D01*
X-5084201Y8758487D01*
X-5103907Y8743872D01*
X-5124950Y8731260D01*
X-5147129Y8720770D01*
X-5170228Y8712505D01*
X-5194027Y8706544D01*
X-5218295Y8702944D01*
X-5242799Y8701740D01*
X-6542801Y8701740D01*
X-6567305Y8702944D01*
X-6591573Y8706544D01*
X-6615372Y8712505D01*
X-6638471Y8720770D01*
X-6660650Y8731260D01*
X-6681693Y8743872D01*
X-6701399Y8758487D01*
X-6719577Y8774963D01*
X-6736053Y8793141D01*
X-6750668Y8812847D01*
X-6763280Y8833890D01*
X-6773770Y8856069D01*
X-6782035Y8879168D01*
X-6787996Y8902967D01*
X-6791596Y8927235D01*
X-6792800Y8951739D01*
X-6792800Y9851741D01*
X-6791596Y9876245D01*
X-6787996Y9900513D01*
X-6782035Y9924312D01*
X-6773770Y9947411D01*
X-6763280Y9969590D01*
X-6750668Y9990633D01*
X-6736053Y10010339D01*
X-6719577Y10028517D01*
X-6701399Y10044993D01*
X-6681693Y10059608D01*
X-6660650Y10072220D01*
X-6638471Y10082710D01*
X-6615372Y10090975D01*
X-6591573Y10096936D01*
X-6567305Y10100536D01*
X-6542801Y10101740D01*
X-5242799Y10101740D01*
X-5218295Y10100536D01*
X-5218295Y10100536D01*
G37*
D18*
X-5892800Y9401740D03*
D16*
G36*
X-2353175Y10100536D02*
G01*
X-2328907Y10096936D01*
X-2305108Y10090975D01*
X-2282009Y10082710D01*
X-2259830Y10072220D01*
X-2238787Y10059608D01*
X-2219081Y10044993D01*
X-2200903Y10028517D01*
X-2184427Y10010339D01*
X-2169812Y9990633D01*
X-2157200Y9969590D01*
X-2146710Y9947411D01*
X-2138445Y9924312D01*
X-2132484Y9900513D01*
X-2128884Y9876245D01*
X-2127680Y9851741D01*
X-2127680Y8951739D01*
X-2128884Y8927235D01*
X-2132484Y8902967D01*
X-2138445Y8879168D01*
X-2146710Y8856069D01*
X-2157200Y8833890D01*
X-2169812Y8812847D01*
X-2184427Y8793141D01*
X-2200903Y8774963D01*
X-2219081Y8758487D01*
X-2238787Y8743872D01*
X-2259830Y8731260D01*
X-2282009Y8720770D01*
X-2305108Y8712505D01*
X-2328907Y8706544D01*
X-2353175Y8702944D01*
X-2377679Y8701740D01*
X-3677681Y8701740D01*
X-3702185Y8702944D01*
X-3726453Y8706544D01*
X-3750252Y8712505D01*
X-3773351Y8720770D01*
X-3795530Y8731260D01*
X-3816573Y8743872D01*
X-3836279Y8758487D01*
X-3854457Y8774963D01*
X-3870933Y8793141D01*
X-3885548Y8812847D01*
X-3898160Y8833890D01*
X-3908650Y8856069D01*
X-3916915Y8879168D01*
X-3922876Y8902967D01*
X-3926476Y8927235D01*
X-3927680Y8951739D01*
X-3927680Y9851741D01*
X-3926476Y9876245D01*
X-3922876Y9900513D01*
X-3916915Y9924312D01*
X-3908650Y9947411D01*
X-3898160Y9969590D01*
X-3885548Y9990633D01*
X-3870933Y10010339D01*
X-3854457Y10028517D01*
X-3836279Y10044993D01*
X-3816573Y10059608D01*
X-3795530Y10072220D01*
X-3773351Y10082710D01*
X-3750252Y10090975D01*
X-3726453Y10096936D01*
X-3702185Y10100536D01*
X-3677681Y10101740D01*
X-2377679Y10101740D01*
X-2353175Y10100536D01*
X-2353175Y10100536D01*
G37*
D18*
X-3027680Y9401740D03*
D16*
G36*
X-2353175Y14100536D02*
G01*
X-2328907Y14096936D01*
X-2305108Y14090975D01*
X-2282009Y14082710D01*
X-2259830Y14072220D01*
X-2238787Y14059608D01*
X-2219081Y14044993D01*
X-2200903Y14028517D01*
X-2184427Y14010339D01*
X-2169812Y13990633D01*
X-2157200Y13969590D01*
X-2146710Y13947411D01*
X-2138445Y13924312D01*
X-2132484Y13900513D01*
X-2128884Y13876245D01*
X-2127680Y13851741D01*
X-2127680Y12951739D01*
X-2128884Y12927235D01*
X-2132484Y12902967D01*
X-2138445Y12879168D01*
X-2146710Y12856069D01*
X-2157200Y12833890D01*
X-2169812Y12812847D01*
X-2184427Y12793141D01*
X-2200903Y12774963D01*
X-2219081Y12758487D01*
X-2238787Y12743872D01*
X-2259830Y12731260D01*
X-2282009Y12720770D01*
X-2305108Y12712505D01*
X-2328907Y12706544D01*
X-2353175Y12702944D01*
X-2377679Y12701740D01*
X-3677681Y12701740D01*
X-3702185Y12702944D01*
X-3726453Y12706544D01*
X-3750252Y12712505D01*
X-3773351Y12720770D01*
X-3795530Y12731260D01*
X-3816573Y12743872D01*
X-3836279Y12758487D01*
X-3854457Y12774963D01*
X-3870933Y12793141D01*
X-3885548Y12812847D01*
X-3898160Y12833890D01*
X-3908650Y12856069D01*
X-3916915Y12879168D01*
X-3922876Y12902967D01*
X-3926476Y12927235D01*
X-3927680Y12951739D01*
X-3927680Y13851741D01*
X-3926476Y13876245D01*
X-3922876Y13900513D01*
X-3916915Y13924312D01*
X-3908650Y13947411D01*
X-3898160Y13969590D01*
X-3885548Y13990633D01*
X-3870933Y14010339D01*
X-3854457Y14028517D01*
X-3836279Y14044993D01*
X-3816573Y14059608D01*
X-3795530Y14072220D01*
X-3773351Y14082710D01*
X-3750252Y14090975D01*
X-3726453Y14096936D01*
X-3702185Y14100536D01*
X-3677681Y14101740D01*
X-2377679Y14101740D01*
X-2353175Y14100536D01*
X-2353175Y14100536D01*
G37*
D18*
X-3027680Y13401740D03*
D19*
X-6480971Y9401740D02*
X-5892800Y9401740D01*
X-16725619Y-2322908D02*
X-16725619Y-842908D01*
X-4892800Y9401740D02*
X-3027680Y9401740D01*
X-5892800Y9401740D02*
X-4892800Y9401740D01*
X-971620Y7345680D02*
X-3027680Y9401740D01*
X2661920Y7345680D02*
X-971620Y7345680D01*
X7086600Y2921000D02*
X2661920Y7345680D01*
X7086600Y-840689D02*
X7086600Y2921000D01*
X7084381Y-2322908D02*
X7084381Y-842908D01*
X7084381Y-842908D02*
X7086600Y-840689D01*
X-17556480Y-3153769D02*
X-16725619Y-2322908D01*
X-17556480Y-13944600D02*
X-17556480Y-3153769D01*
X-8967789Y-15133201D02*
X-6626028Y-12791440D01*
X-17556480Y-13944600D02*
X-16367879Y-15133201D01*
X-16367879Y-15133201D02*
X-8967789Y-15133201D01*
X-6626028Y-12791440D02*
X1064260Y-12791440D01*
X7084381Y-6771319D02*
X7084381Y-2322908D01*
X1064260Y-12791440D02*
X7084381Y-6771319D01*
X-7750880Y9401740D02*
X-5892800Y9401740D01*
X-16725619Y707092D02*
X-16718280Y714431D01*
X-16725619Y-2322908D02*
X-16725619Y707092D01*
X-16718280Y2763520D02*
X-12240260Y7241540D01*
X-16718280Y714431D02*
X-16718280Y2763520D01*
X-12240260Y7241540D02*
X-9911080Y7241540D01*
X-9911080Y7241540D02*
X-7750880Y9401740D01*
X-9312800Y9981740D02*
X-9824720Y9981740D01*
X-5892800Y13401740D02*
X-9312800Y9981740D01*
X-5892800Y17574260D02*
X-8986520Y20667980D01*
X-5892800Y13401740D02*
X-5892800Y17574260D01*
X71480Y9981740D02*
X1046480Y9981740D01*
X-407680Y9981740D02*
X71480Y9981740D01*
X-3027680Y12601740D02*
X-407680Y9981740D01*
X-3027680Y13401740D02*
X-3027680Y12601740D01*
X-3027680Y17000220D02*
X640080Y20667980D01*
X-3027680Y13401740D02*
X-3027680Y17000220D01*
D20*
G36*
X-15443521Y6397086D02*
G01*
X-15294486Y6395762D01*
X-15152577Y6393733D01*
X-15020808Y6390977D01*
X-14964284Y6389455D01*
X-14747458Y6382733D01*
X-14554564Y6375824D01*
X-14385083Y6368653D01*
X-14236995Y6361087D01*
X-14197973Y6358628D01*
X-17229282Y3327319D01*
X-17258280Y3303521D01*
X-17282078Y3274523D01*
X-17282079Y3274522D01*
X-17353254Y3187796D01*
X-17423826Y3055766D01*
X-17438139Y3008580D01*
X-17467282Y2912506D01*
X-17476004Y2823952D01*
X-17481956Y2763520D01*
X-17478279Y2726188D01*
X-17478280Y1095164D01*
X-18025619Y1095164D01*
X-18150101Y1082904D01*
X-18269799Y1046594D01*
X-18380113Y987629D01*
X-18476804Y908277D01*
X-18556156Y811586D01*
X-18615121Y701272D01*
X-18651431Y581574D01*
X-18663691Y457092D01*
X-18663691Y-5102908D01*
X-18651431Y-5227390D01*
X-18615121Y-5347088D01*
X-18556156Y-5457402D01*
X-18476804Y-5554093D01*
X-18380113Y-5633445D01*
X-18316479Y-5667458D01*
X-18316480Y-12651584D01*
X-18393086Y-12692531D01*
X-18621277Y-12879803D01*
X-18808549Y-13107994D01*
X-18947705Y-13368336D01*
X-19033396Y-13650823D01*
X-19062331Y-13944600D01*
X-19033396Y-14238377D01*
X-18947705Y-14520864D01*
X-18808549Y-14781206D01*
X-18621277Y-15009397D01*
X-18613215Y-15016014D01*
X-18664260Y-15031498D01*
X-18774574Y-15090463D01*
X-18871265Y-15169815D01*
X-18950617Y-15266506D01*
X-19009582Y-15376820D01*
X-19045892Y-15496518D01*
X-19058152Y-15621000D01*
X-19055080Y-16198850D01*
X-18896330Y-16357600D01*
X-17683480Y-16357600D01*
X-17683480Y-16337600D01*
X-17429480Y-16337600D01*
X-17429480Y-16357600D01*
X-17409480Y-16357600D01*
X-17409480Y-16611600D01*
X-17429480Y-16611600D01*
X-17429480Y-17824450D01*
X-17270730Y-17983200D01*
X-16692880Y-17986272D01*
X-16568398Y-17974012D01*
X-16448700Y-17937702D01*
X-16338386Y-17878737D01*
X-16241695Y-17799385D01*
X-16162343Y-17702694D01*
X-16103378Y-17592380D01*
X-16087894Y-17541335D01*
X-16081277Y-17549397D01*
X-15853086Y-17736669D01*
X-15592744Y-17875825D01*
X-15310257Y-17961516D01*
X-15090099Y-17983200D01*
X-14942861Y-17983200D01*
X-14722703Y-17961516D01*
X-14440216Y-17875825D01*
X-14179874Y-17736669D01*
X-13951683Y-17549397D01*
X-13764411Y-17321206D01*
X-13744597Y-17284137D01*
X-13640519Y-17439902D01*
X-13431782Y-17648639D01*
X-13186333Y-17812642D01*
X-12913605Y-17925610D01*
X-12624079Y-17983200D01*
X-12328881Y-17983200D01*
X-12039355Y-17925610D01*
X-11766627Y-17812642D01*
X-11521178Y-17648639D01*
X-11312441Y-17439902D01*
X-11148438Y-17194453D01*
X-11035470Y-16921725D01*
X-10977880Y-16632199D01*
X-10977880Y-16337001D01*
X-11035470Y-16047475D01*
X-11099373Y-15893201D01*
X-9456022Y-15893201D01*
X-9480279Y-15935824D01*
X-9756734Y-16402935D01*
X-10057613Y-16878849D01*
X-10347328Y-17294196D01*
X-10626305Y-17652069D01*
X-10753284Y-17799948D01*
X-10877279Y-17934099D01*
X-10993664Y-18049900D01*
X-11100745Y-18146554D01*
X-11196271Y-18223297D01*
X-11277249Y-18279617D01*
X-11339562Y-18315549D01*
X-11377868Y-18332560D01*
X-11386038Y-18334959D01*
X-11405149Y-18337259D01*
X-11644528Y-18349130D01*
X-11665915Y-18349424D01*
X-11678125Y-18350796D01*
X-11690380Y-18351404D01*
X-11711512Y-18354549D01*
X-11871119Y-18372487D01*
X-11875082Y-18372587D01*
X-11904570Y-18376246D01*
X-11934054Y-18379560D01*
X-11937926Y-18380386D01*
X-12237337Y-18417541D01*
X-12802264Y-18474043D01*
X-12807044Y-18474117D01*
X-12835789Y-18477396D01*
X-12864480Y-18480266D01*
X-12869152Y-18481203D01*
X-13134553Y-18511481D01*
X-13149542Y-18512370D01*
X-13167948Y-18515291D01*
X-13186476Y-18517405D01*
X-13201165Y-18520563D01*
X-13477221Y-18564376D01*
X-13492304Y-18565941D01*
X-13510446Y-18569649D01*
X-13528714Y-18572548D01*
X-13543370Y-18576377D01*
X-13824574Y-18633848D01*
X-13838945Y-18635957D01*
X-13857540Y-18640585D01*
X-13876286Y-18644416D01*
X-13890143Y-18648699D01*
X-14180404Y-18720938D01*
X-14193431Y-18723367D01*
X-14213044Y-18729061D01*
X-14232845Y-18733989D01*
X-14245320Y-18738431D01*
X-14548913Y-18826570D01*
X-14560213Y-18829075D01*
X-14581187Y-18835940D01*
X-14602402Y-18842099D01*
X-14613158Y-18846404D01*
X-14934779Y-18951672D01*
X-14944238Y-18954053D01*
X-14966750Y-18962136D01*
X-14989467Y-18969572D01*
X-14998389Y-18973498D01*
X-15343161Y-19097299D01*
X-15350824Y-19099417D01*
X-15374852Y-19108678D01*
X-15399027Y-19117359D01*
X-15406193Y-19120758D01*
X-15803424Y-19273865D01*
X-16031010Y-19360277D01*
X-16213713Y-19421449D01*
X-16361407Y-19461754D01*
X-16478749Y-19484392D01*
X-16573722Y-19493626D01*
X-16658336Y-19492976D01*
X-16746954Y-19483005D01*
X-16828783Y-19466133D01*
X-16847894Y-19459328D01*
X-16852820Y-19458605D01*
X-16857532Y-19457003D01*
X-16871533Y-19455153D01*
X-16910881Y-19443546D01*
X-17009258Y-19408127D01*
X-17302942Y-19285243D01*
X-17650554Y-19122811D01*
X-18016976Y-18938204D01*
X-18364493Y-18750841D01*
X-18653636Y-18582006D01*
X-18812315Y-18476834D01*
X-18832309Y-18428053D01*
X-18950346Y-18078090D01*
X-19085357Y-17612165D01*
X-19153987Y-17348200D01*
X-19058152Y-17348200D01*
X-19045892Y-17472682D01*
X-19009582Y-17592380D01*
X-18950617Y-17702694D01*
X-18871265Y-17799385D01*
X-18774574Y-17878737D01*
X-18664260Y-17937702D01*
X-18544562Y-17974012D01*
X-18420080Y-17986272D01*
X-17842230Y-17983200D01*
X-17683480Y-17824450D01*
X-17683480Y-16611600D01*
X-18896330Y-16611600D01*
X-19055080Y-16770350D01*
X-19058152Y-17348200D01*
X-19153987Y-17348200D01*
X-19223070Y-17082500D01*
X-19350029Y-16542070D01*
X-19453459Y-16043461D01*
X-19521720Y-15637198D01*
X-19537223Y-15504112D01*
X-19541237Y-15427714D01*
X-19532017Y-15243407D01*
X-19504707Y-15025991D01*
X-19465355Y-14823455D01*
X-19417418Y-14655908D01*
X-19374756Y-14528584D01*
X-19368850Y-14513552D01*
X-19364071Y-14496693D01*
X-19358507Y-14480087D01*
X-19354904Y-14464353D01*
X-19318610Y-14336319D01*
X-19313026Y-14319641D01*
X-19309441Y-14303972D01*
X-19305058Y-14288510D01*
X-19301943Y-14271203D01*
X-19271261Y-14137098D01*
X-19266436Y-14119692D01*
X-19263766Y-14104341D01*
X-19260287Y-14089136D01*
X-19258002Y-14071205D01*
X-19233444Y-13930018D01*
X-19229611Y-13912785D01*
X-19227687Y-13896918D01*
X-19224944Y-13881150D01*
X-19223636Y-13863521D01*
X-19205519Y-13714131D01*
X-19202721Y-13697918D01*
X-19201471Y-13680754D01*
X-19199399Y-13663670D01*
X-19199029Y-13647222D01*
X-19187432Y-13488004D01*
X-19185544Y-13473285D01*
X-19184990Y-13454471D01*
X-19183623Y-13435699D01*
X-19184001Y-13420866D01*
X-19178967Y-13249869D01*
X-19177814Y-13237131D01*
X-19177978Y-13216259D01*
X-19177364Y-13195396D01*
X-19178243Y-13182638D01*
X-19179737Y-12992606D01*
X-19179038Y-12976978D01*
X-19180001Y-12958984D01*
X-19180143Y-12940965D01*
X-19181799Y-12925410D01*
X-19207850Y-12438788D01*
X-19207827Y-12423981D01*
X-19209648Y-12405193D01*
X-19210656Y-12386370D01*
X-19212890Y-12371750D01*
X-19269730Y-11785410D01*
X-19269977Y-11775949D01*
X-19272975Y-11751936D01*
X-19275310Y-11727854D01*
X-19277142Y-11718571D01*
X-19365178Y-11013546D01*
X-19365422Y-11007832D01*
X-19369340Y-10980214D01*
X-19372805Y-10952463D01*
X-19374070Y-10946871D01*
X-19494091Y-10100789D01*
X-19494134Y-10099837D01*
X-19498818Y-10067464D01*
X-19503408Y-10035107D01*
X-19503634Y-10034182D01*
X-19624702Y-9197430D01*
X-19715396Y-8509843D01*
X-19772700Y-7960604D01*
X-19799206Y-7504824D01*
X-19798026Y-7091160D01*
X-19770382Y-6663640D01*
X-19715620Y-6169399D01*
X-19637201Y-5589729D01*
X-19636277Y-5585606D01*
X-19632691Y-5556399D01*
X-19628746Y-5527234D01*
X-19628593Y-5523010D01*
X-19573137Y-5071273D01*
X-19570747Y-5058274D01*
X-19569039Y-5037892D01*
X-19566548Y-5017603D01*
X-19566231Y-5004396D01*
X-19529569Y-4566964D01*
X-19527533Y-4552404D01*
X-19526760Y-4533453D01*
X-19525177Y-4514562D01*
X-19525391Y-4499869D01*
X-19508470Y-4084889D01*
X-19506976Y-4068490D01*
X-19507101Y-4051316D01*
X-19506401Y-4034137D01*
X-19507347Y-4017678D01*
X-19510213Y-3625419D01*
X-19509534Y-3606681D01*
X-19510459Y-3591768D01*
X-19510568Y-3576858D01*
X-19512539Y-3558244D01*
X-19535463Y-3188678D01*
X-19536029Y-3167219D01*
X-19537546Y-3155100D01*
X-19538301Y-3142931D01*
X-19541719Y-3121769D01*
X-19585160Y-2774763D01*
X-19587608Y-2750072D01*
X-19589332Y-2741434D01*
X-19590428Y-2732680D01*
X-19595916Y-2708450D01*
X-19660736Y-2383696D01*
X-19666028Y-2355181D01*
X-19667315Y-2350735D01*
X-19668220Y-2346199D01*
X-19676653Y-2318466D01*
X-19757977Y-2037438D01*
X-19760396Y-2026431D01*
X-19767333Y-2005108D01*
X-19773554Y-1983609D01*
X-19777725Y-1973162D01*
X-19871316Y-1685464D01*
X-19961747Y-1378284D01*
X-20044910Y-1065189D01*
X-20120417Y-748521D01*
X-20187941Y-430448D01*
X-20247155Y-113299D01*
X-20297782Y200754D01*
X-20339560Y509348D01*
X-20372256Y810204D01*
X-20395659Y1100854D01*
X-20409642Y1378902D01*
X-20414129Y1641656D01*
X-20409186Y1886237D01*
X-20395023Y2109468D01*
X-20372283Y2307921D01*
X-20343369Y2471035D01*
X-20293000Y2652803D01*
X-20215295Y2857946D01*
X-20115402Y3073452D01*
X-20003813Y3277995D01*
X-19893336Y3450699D01*
X-19796787Y3575602D01*
X-19792750Y3576875D01*
X-19780330Y3582179D01*
X-19767640Y3586735D01*
X-19749412Y3595381D01*
X-19699751Y3616587D01*
X-19689396Y3623670D01*
X-19673649Y3631317D01*
X-19646078Y3644395D01*
X-19643374Y3646020D01*
X-19640530Y3647401D01*
X-19614459Y3663395D01*
X-19559400Y3696479D01*
X-19557053Y3698611D01*
X-19465425Y3754821D01*
X-19440223Y3769854D01*
X-19436799Y3772382D01*
X-19433169Y3774609D01*
X-19409768Y3792341D01*
X-19249313Y3910816D01*
X-19229527Y3924592D01*
X-19222269Y3930785D01*
X-19214595Y3936451D01*
X-19196700Y3952601D01*
X-19052039Y4076031D01*
X-19047467Y4079327D01*
X-19026492Y4097828D01*
X-19005149Y4116039D01*
X-19001229Y4120112D01*
X-18857342Y4247031D01*
X-18703472Y4373021D01*
X-18580342Y4465567D01*
X-18561288Y4477812D01*
X-18594733Y4448234D01*
X-18595748Y4447327D01*
X-18675146Y4375577D01*
X-18676465Y4374368D01*
X-18743420Y4312126D01*
X-18745364Y4310280D01*
X-18797981Y4259255D01*
X-18801418Y4255792D01*
X-18837798Y4217694D01*
X-18844957Y4209523D01*
X-18861357Y4189108D01*
X-18874542Y4169081D01*
X-18891332Y4137427D01*
X-18900786Y4114396D01*
X-18905565Y4089963D01*
X-18905859Y4069511D01*
X-18904811Y4053713D01*
X-18900737Y4029152D01*
X-18891948Y4005858D01*
X-18878785Y3984727D01*
X-18861751Y3966569D01*
X-18841503Y3952084D01*
X-18818818Y3941827D01*
X-18784043Y3935259D01*
X-18766418Y3934432D01*
X-18741554Y3935708D01*
X-18713053Y3943474D01*
X-18680112Y3956730D01*
X-18665230Y3963875D01*
X-18618235Y3990327D01*
X-18611442Y3994435D01*
X-18551654Y4033196D01*
X-18547659Y4035895D01*
X-18476339Y4086077D01*
X-18473602Y4088059D01*
X-18392012Y4148776D01*
X-18389931Y4150358D01*
X-18299331Y4220723D01*
X-18297621Y4222074D01*
X-18199273Y4301199D01*
X-18197780Y4302419D01*
X-18092946Y4389417D01*
X-18091577Y4390570D01*
X-17981517Y4484555D01*
X-17980219Y4485678D01*
X-17868286Y4583909D01*
X-17722880Y4708279D01*
X-17591039Y4811066D01*
X-17472540Y4892968D01*
X-17368743Y4953720D01*
X-17281814Y4993260D01*
X-17215153Y5012473D01*
X-17172874Y5015236D01*
X-17154138Y5010514D01*
X-17142256Y5001645D01*
X-17131977Y4986600D01*
X-17113682Y4951478D01*
X-17100071Y4930632D01*
X-17082655Y4912841D01*
X-17062103Y4898790D01*
X-17039205Y4889018D01*
X-17014840Y4883901D01*
X-16989945Y4883636D01*
X-16965477Y4888233D01*
X-16942375Y4897515D01*
X-16921529Y4911126D01*
X-16903738Y4928542D01*
X-16889687Y4949094D01*
X-16878668Y4976205D01*
X-16868100Y5014305D01*
X-16865630Y5024976D01*
X-16859140Y5059790D01*
X-16857867Y5068157D01*
X-16851324Y5123516D01*
X-16850939Y5127240D01*
X-16844658Y5198295D01*
X-16844472Y5200656D01*
X-16838769Y5282555D01*
X-16838652Y5284436D01*
X-16833841Y5372329D01*
X-16833755Y5374133D01*
X-16830151Y5463169D01*
X-16830085Y5465211D01*
X-16828005Y5550538D01*
X-16827971Y5552591D01*
X-16827588Y5599266D01*
X-16825936Y5707211D01*
X-16821442Y5819080D01*
X-16814465Y5931950D01*
X-16805405Y6041753D01*
X-16794706Y6144079D01*
X-16782843Y6234664D01*
X-16770523Y6308245D01*
X-16758864Y6359271D01*
X-16757446Y6363514D01*
X-16740618Y6367363D01*
X-16683854Y6374941D01*
X-16666797Y6376775D01*
X-16612408Y6381032D01*
X-16534699Y6384949D01*
X-16436311Y6388440D01*
X-16320960Y6391426D01*
X-16191783Y6393871D01*
X-16051473Y6395753D01*
X-15903878Y6397034D01*
X-15751120Y6397700D01*
X-15596786Y6397725D01*
X-15443521Y6397086D01*
X-15443521Y6397086D01*
G37*
X-15443521Y6397086D02*
X-15294486Y6395762D01*
X-15152577Y6393733D01*
X-15020808Y6390977D01*
X-14964284Y6389455D01*
X-14747458Y6382733D01*
X-14554564Y6375824D01*
X-14385083Y6368653D01*
X-14236995Y6361087D01*
X-14197973Y6358628D01*
X-17229282Y3327319D01*
X-17258280Y3303521D01*
X-17282078Y3274523D01*
X-17282079Y3274522D01*
X-17353254Y3187796D01*
X-17423826Y3055766D01*
X-17438139Y3008580D01*
X-17467282Y2912506D01*
X-17476004Y2823952D01*
X-17481956Y2763520D01*
X-17478279Y2726188D01*
X-17478280Y1095164D01*
X-18025619Y1095164D01*
X-18150101Y1082904D01*
X-18269799Y1046594D01*
X-18380113Y987629D01*
X-18476804Y908277D01*
X-18556156Y811586D01*
X-18615121Y701272D01*
X-18651431Y581574D01*
X-18663691Y457092D01*
X-18663691Y-5102908D01*
X-18651431Y-5227390D01*
X-18615121Y-5347088D01*
X-18556156Y-5457402D01*
X-18476804Y-5554093D01*
X-18380113Y-5633445D01*
X-18316479Y-5667458D01*
X-18316480Y-12651584D01*
X-18393086Y-12692531D01*
X-18621277Y-12879803D01*
X-18808549Y-13107994D01*
X-18947705Y-13368336D01*
X-19033396Y-13650823D01*
X-19062331Y-13944600D01*
X-19033396Y-14238377D01*
X-18947705Y-14520864D01*
X-18808549Y-14781206D01*
X-18621277Y-15009397D01*
X-18613215Y-15016014D01*
X-18664260Y-15031498D01*
X-18774574Y-15090463D01*
X-18871265Y-15169815D01*
X-18950617Y-15266506D01*
X-19009582Y-15376820D01*
X-19045892Y-15496518D01*
X-19058152Y-15621000D01*
X-19055080Y-16198850D01*
X-18896330Y-16357600D01*
X-17683480Y-16357600D01*
X-17683480Y-16337600D01*
X-17429480Y-16337600D01*
X-17429480Y-16357600D01*
X-17409480Y-16357600D01*
X-17409480Y-16611600D01*
X-17429480Y-16611600D01*
X-17429480Y-17824450D01*
X-17270730Y-17983200D01*
X-16692880Y-17986272D01*
X-16568398Y-17974012D01*
X-16448700Y-17937702D01*
X-16338386Y-17878737D01*
X-16241695Y-17799385D01*
X-16162343Y-17702694D01*
X-16103378Y-17592380D01*
X-16087894Y-17541335D01*
X-16081277Y-17549397D01*
X-15853086Y-17736669D01*
X-15592744Y-17875825D01*
X-15310257Y-17961516D01*
X-15090099Y-17983200D01*
X-14942861Y-17983200D01*
X-14722703Y-17961516D01*
X-14440216Y-17875825D01*
X-14179874Y-17736669D01*
X-13951683Y-17549397D01*
X-13764411Y-17321206D01*
X-13744597Y-17284137D01*
X-13640519Y-17439902D01*
X-13431782Y-17648639D01*
X-13186333Y-17812642D01*
X-12913605Y-17925610D01*
X-12624079Y-17983200D01*
X-12328881Y-17983200D01*
X-12039355Y-17925610D01*
X-11766627Y-17812642D01*
X-11521178Y-17648639D01*
X-11312441Y-17439902D01*
X-11148438Y-17194453D01*
X-11035470Y-16921725D01*
X-10977880Y-16632199D01*
X-10977880Y-16337001D01*
X-11035470Y-16047475D01*
X-11099373Y-15893201D01*
X-9456022Y-15893201D01*
X-9480279Y-15935824D01*
X-9756734Y-16402935D01*
X-10057613Y-16878849D01*
X-10347328Y-17294196D01*
X-10626305Y-17652069D01*
X-10753284Y-17799948D01*
X-10877279Y-17934099D01*
X-10993664Y-18049900D01*
X-11100745Y-18146554D01*
X-11196271Y-18223297D01*
X-11277249Y-18279617D01*
X-11339562Y-18315549D01*
X-11377868Y-18332560D01*
X-11386038Y-18334959D01*
X-11405149Y-18337259D01*
X-11644528Y-18349130D01*
X-11665915Y-18349424D01*
X-11678125Y-18350796D01*
X-11690380Y-18351404D01*
X-11711512Y-18354549D01*
X-11871119Y-18372487D01*
X-11875082Y-18372587D01*
X-11904570Y-18376246D01*
X-11934054Y-18379560D01*
X-11937926Y-18380386D01*
X-12237337Y-18417541D01*
X-12802264Y-18474043D01*
X-12807044Y-18474117D01*
X-12835789Y-18477396D01*
X-12864480Y-18480266D01*
X-12869152Y-18481203D01*
X-13134553Y-18511481D01*
X-13149542Y-18512370D01*
X-13167948Y-18515291D01*
X-13186476Y-18517405D01*
X-13201165Y-18520563D01*
X-13477221Y-18564376D01*
X-13492304Y-18565941D01*
X-13510446Y-18569649D01*
X-13528714Y-18572548D01*
X-13543370Y-18576377D01*
X-13824574Y-18633848D01*
X-13838945Y-18635957D01*
X-13857540Y-18640585D01*
X-13876286Y-18644416D01*
X-13890143Y-18648699D01*
X-14180404Y-18720938D01*
X-14193431Y-18723367D01*
X-14213044Y-18729061D01*
X-14232845Y-18733989D01*
X-14245320Y-18738431D01*
X-14548913Y-18826570D01*
X-14560213Y-18829075D01*
X-14581187Y-18835940D01*
X-14602402Y-18842099D01*
X-14613158Y-18846404D01*
X-14934779Y-18951672D01*
X-14944238Y-18954053D01*
X-14966750Y-18962136D01*
X-14989467Y-18969572D01*
X-14998389Y-18973498D01*
X-15343161Y-19097299D01*
X-15350824Y-19099417D01*
X-15374852Y-19108678D01*
X-15399027Y-19117359D01*
X-15406193Y-19120758D01*
X-15803424Y-19273865D01*
X-16031010Y-19360277D01*
X-16213713Y-19421449D01*
X-16361407Y-19461754D01*
X-16478749Y-19484392D01*
X-16573722Y-19493626D01*
X-16658336Y-19492976D01*
X-16746954Y-19483005D01*
X-16828783Y-19466133D01*
X-16847894Y-19459328D01*
X-16852820Y-19458605D01*
X-16857532Y-19457003D01*
X-16871533Y-19455153D01*
X-16910881Y-19443546D01*
X-17009258Y-19408127D01*
X-17302942Y-19285243D01*
X-17650554Y-19122811D01*
X-18016976Y-18938204D01*
X-18364493Y-18750841D01*
X-18653636Y-18582006D01*
X-18812315Y-18476834D01*
X-18832309Y-18428053D01*
X-18950346Y-18078090D01*
X-19085357Y-17612165D01*
X-19153987Y-17348200D01*
X-19058152Y-17348200D01*
X-19045892Y-17472682D01*
X-19009582Y-17592380D01*
X-18950617Y-17702694D01*
X-18871265Y-17799385D01*
X-18774574Y-17878737D01*
X-18664260Y-17937702D01*
X-18544562Y-17974012D01*
X-18420080Y-17986272D01*
X-17842230Y-17983200D01*
X-17683480Y-17824450D01*
X-17683480Y-16611600D01*
X-18896330Y-16611600D01*
X-19055080Y-16770350D01*
X-19058152Y-17348200D01*
X-19153987Y-17348200D01*
X-19223070Y-17082500D01*
X-19350029Y-16542070D01*
X-19453459Y-16043461D01*
X-19521720Y-15637198D01*
X-19537223Y-15504112D01*
X-19541237Y-15427714D01*
X-19532017Y-15243407D01*
X-19504707Y-15025991D01*
X-19465355Y-14823455D01*
X-19417418Y-14655908D01*
X-19374756Y-14528584D01*
X-19368850Y-14513552D01*
X-19364071Y-14496693D01*
X-19358507Y-14480087D01*
X-19354904Y-14464353D01*
X-19318610Y-14336319D01*
X-19313026Y-14319641D01*
X-19309441Y-14303972D01*
X-19305058Y-14288510D01*
X-19301943Y-14271203D01*
X-19271261Y-14137098D01*
X-19266436Y-14119692D01*
X-19263766Y-14104341D01*
X-19260287Y-14089136D01*
X-19258002Y-14071205D01*
X-19233444Y-13930018D01*
X-19229611Y-13912785D01*
X-19227687Y-13896918D01*
X-19224944Y-13881150D01*
X-19223636Y-13863521D01*
X-19205519Y-13714131D01*
X-19202721Y-13697918D01*
X-19201471Y-13680754D01*
X-19199399Y-13663670D01*
X-19199029Y-13647222D01*
X-19187432Y-13488004D01*
X-19185544Y-13473285D01*
X-19184990Y-13454471D01*
X-19183623Y-13435699D01*
X-19184001Y-13420866D01*
X-19178967Y-13249869D01*
X-19177814Y-13237131D01*
X-19177978Y-13216259D01*
X-19177364Y-13195396D01*
X-19178243Y-13182638D01*
X-19179737Y-12992606D01*
X-19179038Y-12976978D01*
X-19180001Y-12958984D01*
X-19180143Y-12940965D01*
X-19181799Y-12925410D01*
X-19207850Y-12438788D01*
X-19207827Y-12423981D01*
X-19209648Y-12405193D01*
X-19210656Y-12386370D01*
X-19212890Y-12371750D01*
X-19269730Y-11785410D01*
X-19269977Y-11775949D01*
X-19272975Y-11751936D01*
X-19275310Y-11727854D01*
X-19277142Y-11718571D01*
X-19365178Y-11013546D01*
X-19365422Y-11007832D01*
X-19369340Y-10980214D01*
X-19372805Y-10952463D01*
X-19374070Y-10946871D01*
X-19494091Y-10100789D01*
X-19494134Y-10099837D01*
X-19498818Y-10067464D01*
X-19503408Y-10035107D01*
X-19503634Y-10034182D01*
X-19624702Y-9197430D01*
X-19715396Y-8509843D01*
X-19772700Y-7960604D01*
X-19799206Y-7504824D01*
X-19798026Y-7091160D01*
X-19770382Y-6663640D01*
X-19715620Y-6169399D01*
X-19637201Y-5589729D01*
X-19636277Y-5585606D01*
X-19632691Y-5556399D01*
X-19628746Y-5527234D01*
X-19628593Y-5523010D01*
X-19573137Y-5071273D01*
X-19570747Y-5058274D01*
X-19569039Y-5037892D01*
X-19566548Y-5017603D01*
X-19566231Y-5004396D01*
X-19529569Y-4566964D01*
X-19527533Y-4552404D01*
X-19526760Y-4533453D01*
X-19525177Y-4514562D01*
X-19525391Y-4499869D01*
X-19508470Y-4084889D01*
X-19506976Y-4068490D01*
X-19507101Y-4051316D01*
X-19506401Y-4034137D01*
X-19507347Y-4017678D01*
X-19510213Y-3625419D01*
X-19509534Y-3606681D01*
X-19510459Y-3591768D01*
X-19510568Y-3576858D01*
X-19512539Y-3558244D01*
X-19535463Y-3188678D01*
X-19536029Y-3167219D01*
X-19537546Y-3155100D01*
X-19538301Y-3142931D01*
X-19541719Y-3121769D01*
X-19585160Y-2774763D01*
X-19587608Y-2750072D01*
X-19589332Y-2741434D01*
X-19590428Y-2732680D01*
X-19595916Y-2708450D01*
X-19660736Y-2383696D01*
X-19666028Y-2355181D01*
X-19667315Y-2350735D01*
X-19668220Y-2346199D01*
X-19676653Y-2318466D01*
X-19757977Y-2037438D01*
X-19760396Y-2026431D01*
X-19767333Y-2005108D01*
X-19773554Y-1983609D01*
X-19777725Y-1973162D01*
X-19871316Y-1685464D01*
X-19961747Y-1378284D01*
X-20044910Y-1065189D01*
X-20120417Y-748521D01*
X-20187941Y-430448D01*
X-20247155Y-113299D01*
X-20297782Y200754D01*
X-20339560Y509348D01*
X-20372256Y810204D01*
X-20395659Y1100854D01*
X-20409642Y1378902D01*
X-20414129Y1641656D01*
X-20409186Y1886237D01*
X-20395023Y2109468D01*
X-20372283Y2307921D01*
X-20343369Y2471035D01*
X-20293000Y2652803D01*
X-20215295Y2857946D01*
X-20115402Y3073452D01*
X-20003813Y3277995D01*
X-19893336Y3450699D01*
X-19796787Y3575602D01*
X-19792750Y3576875D01*
X-19780330Y3582179D01*
X-19767640Y3586735D01*
X-19749412Y3595381D01*
X-19699751Y3616587D01*
X-19689396Y3623670D01*
X-19673649Y3631317D01*
X-19646078Y3644395D01*
X-19643374Y3646020D01*
X-19640530Y3647401D01*
X-19614459Y3663395D01*
X-19559400Y3696479D01*
X-19557053Y3698611D01*
X-19465425Y3754821D01*
X-19440223Y3769854D01*
X-19436799Y3772382D01*
X-19433169Y3774609D01*
X-19409768Y3792341D01*
X-19249313Y3910816D01*
X-19229527Y3924592D01*
X-19222269Y3930785D01*
X-19214595Y3936451D01*
X-19196700Y3952601D01*
X-19052039Y4076031D01*
X-19047467Y4079327D01*
X-19026492Y4097828D01*
X-19005149Y4116039D01*
X-19001229Y4120112D01*
X-18857342Y4247031D01*
X-18703472Y4373021D01*
X-18580342Y4465567D01*
X-18561288Y4477812D01*
X-18594733Y4448234D01*
X-18595748Y4447327D01*
X-18675146Y4375577D01*
X-18676465Y4374368D01*
X-18743420Y4312126D01*
X-18745364Y4310280D01*
X-18797981Y4259255D01*
X-18801418Y4255792D01*
X-18837798Y4217694D01*
X-18844957Y4209523D01*
X-18861357Y4189108D01*
X-18874542Y4169081D01*
X-18891332Y4137427D01*
X-18900786Y4114396D01*
X-18905565Y4089963D01*
X-18905859Y4069511D01*
X-18904811Y4053713D01*
X-18900737Y4029152D01*
X-18891948Y4005858D01*
X-18878785Y3984727D01*
X-18861751Y3966569D01*
X-18841503Y3952084D01*
X-18818818Y3941827D01*
X-18784043Y3935259D01*
X-18766418Y3934432D01*
X-18741554Y3935708D01*
X-18713053Y3943474D01*
X-18680112Y3956730D01*
X-18665230Y3963875D01*
X-18618235Y3990327D01*
X-18611442Y3994435D01*
X-18551654Y4033196D01*
X-18547659Y4035895D01*
X-18476339Y4086077D01*
X-18473602Y4088059D01*
X-18392012Y4148776D01*
X-18389931Y4150358D01*
X-18299331Y4220723D01*
X-18297621Y4222074D01*
X-18199273Y4301199D01*
X-18197780Y4302419D01*
X-18092946Y4389417D01*
X-18091577Y4390570D01*
X-17981517Y4484555D01*
X-17980219Y4485678D01*
X-17868286Y4583909D01*
X-17722880Y4708279D01*
X-17591039Y4811066D01*
X-17472540Y4892968D01*
X-17368743Y4953720D01*
X-17281814Y4993260D01*
X-17215153Y5012473D01*
X-17172874Y5015236D01*
X-17154138Y5010514D01*
X-17142256Y5001645D01*
X-17131977Y4986600D01*
X-17113682Y4951478D01*
X-17100071Y4930632D01*
X-17082655Y4912841D01*
X-17062103Y4898790D01*
X-17039205Y4889018D01*
X-17014840Y4883901D01*
X-16989945Y4883636D01*
X-16965477Y4888233D01*
X-16942375Y4897515D01*
X-16921529Y4911126D01*
X-16903738Y4928542D01*
X-16889687Y4949094D01*
X-16878668Y4976205D01*
X-16868100Y5014305D01*
X-16865630Y5024976D01*
X-16859140Y5059790D01*
X-16857867Y5068157D01*
X-16851324Y5123516D01*
X-16850939Y5127240D01*
X-16844658Y5198295D01*
X-16844472Y5200656D01*
X-16838769Y5282555D01*
X-16838652Y5284436D01*
X-16833841Y5372329D01*
X-16833755Y5374133D01*
X-16830151Y5463169D01*
X-16830085Y5465211D01*
X-16828005Y5550538D01*
X-16827971Y5552591D01*
X-16827588Y5599266D01*
X-16825936Y5707211D01*
X-16821442Y5819080D01*
X-16814465Y5931950D01*
X-16805405Y6041753D01*
X-16794706Y6144079D01*
X-16782843Y6234664D01*
X-16770523Y6308245D01*
X-16758864Y6359271D01*
X-16757446Y6363514D01*
X-16740618Y6367363D01*
X-16683854Y6374941D01*
X-16666797Y6376775D01*
X-16612408Y6381032D01*
X-16534699Y6384949D01*
X-16436311Y6388440D01*
X-16320960Y6391426D01*
X-16191783Y6393871D01*
X-16051473Y6395753D01*
X-15903878Y6397034D01*
X-15751120Y6397700D01*
X-15596786Y6397725D01*
X-15443521Y6397086D01*
G36*
X-7363272Y8611889D02*
G01*
X-7281205Y8458353D01*
X-7170762Y8323778D01*
X-7036187Y8213335D01*
X-6882651Y8131268D01*
X-6716055Y8080732D01*
X-6542801Y8063668D01*
X-5242799Y8063668D01*
X-5069545Y8080732D01*
X-4902949Y8131268D01*
X-4749413Y8213335D01*
X-4614838Y8323778D01*
X-4504395Y8458353D01*
X-4460240Y8540961D01*
X-4416085Y8458353D01*
X-4305642Y8323778D01*
X-4171067Y8213335D01*
X-4017531Y8131268D01*
X-3850935Y8080732D01*
X-3677681Y8063668D01*
X-2764409Y8063668D01*
X-1535420Y6834678D01*
X-1511621Y6805679D01*
X-1482623Y6781881D01*
X-1395897Y6710706D01*
X-1266679Y6641637D01*
X-1263867Y6640134D01*
X-1120606Y6596677D01*
X-1008953Y6585680D01*
X-1008943Y6585680D01*
X-971620Y6582004D01*
X-934297Y6585680D01*
X2347119Y6585680D01*
X6326601Y2606196D01*
X6326601Y1095164D01*
X5784381Y1095164D01*
X5659899Y1082904D01*
X5540201Y1046594D01*
X5429887Y987629D01*
X5333196Y908277D01*
X5253844Y811586D01*
X5194879Y701272D01*
X5158569Y581574D01*
X5146309Y457092D01*
X5146309Y-5102908D01*
X5158569Y-5227390D01*
X5194879Y-5347088D01*
X5253844Y-5457402D01*
X5333196Y-5554093D01*
X5429887Y-5633445D01*
X5540201Y-5692410D01*
X5659899Y-5728720D01*
X5784381Y-5740980D01*
X6324381Y-5740980D01*
X6324381Y-6456517D01*
X749459Y-12031440D01*
X-6588706Y-12031440D01*
X-6626029Y-12027764D01*
X-6663352Y-12031440D01*
X-6663361Y-12031440D01*
X-6775014Y-12042437D01*
X-6918275Y-12085894D01*
X-7050304Y-12156466D01*
X-7166029Y-12251439D01*
X-7189827Y-12280437D01*
X-9282590Y-14373201D01*
X-11033774Y-14373201D01*
X-10977880Y-14092199D01*
X-10977880Y-13797001D01*
X-11035470Y-13507475D01*
X-11148438Y-13234747D01*
X-11312441Y-12989298D01*
X-11521178Y-12780561D01*
X-11766627Y-12616558D01*
X-12039355Y-12503590D01*
X-12328881Y-12446000D01*
X-12624079Y-12446000D01*
X-12913605Y-12503590D01*
X-13186333Y-12616558D01*
X-13431782Y-12780561D01*
X-13640519Y-12989298D01*
X-13744597Y-13145063D01*
X-13764411Y-13107994D01*
X-13951683Y-12879803D01*
X-14179874Y-12692531D01*
X-14440216Y-12553375D01*
X-14722703Y-12467684D01*
X-14942861Y-12446000D01*
X-15090099Y-12446000D01*
X-15310257Y-12467684D01*
X-15592744Y-12553375D01*
X-15853086Y-12692531D01*
X-16081277Y-12879803D01*
X-16268549Y-13107994D01*
X-16286480Y-13141540D01*
X-16304411Y-13107994D01*
X-16491683Y-12879803D01*
X-16719874Y-12692531D01*
X-16796480Y-12651584D01*
X-16796480Y-5740980D01*
X-15425619Y-5740980D01*
X-15301137Y-5728720D01*
X-15181439Y-5692410D01*
X-15071125Y-5633445D01*
X-14974434Y-5554093D01*
X-14895082Y-5457402D01*
X-14836117Y-5347088D01*
X-14799807Y-5227390D01*
X-14787547Y-5102908D01*
X-9458691Y-5102908D01*
X-9446431Y-5227390D01*
X-9410121Y-5347088D01*
X-9351156Y-5457402D01*
X-9271804Y-5554093D01*
X-9175113Y-5633445D01*
X-9064799Y-5692410D01*
X-8945101Y-5728720D01*
X-8820619Y-5740980D01*
X-5106369Y-5737908D01*
X-4947619Y-5579158D01*
X-4947619Y-2449908D01*
X-4693619Y-2449908D01*
X-4693619Y-5579158D01*
X-4534869Y-5737908D01*
X-820619Y-5740980D01*
X-696137Y-5728720D01*
X-576439Y-5692410D01*
X-466125Y-5633445D01*
X-369434Y-5554093D01*
X-290082Y-5457402D01*
X-231117Y-5347088D01*
X-194807Y-5227390D01*
X-182547Y-5102908D01*
X-185619Y-2608658D01*
X-344369Y-2449908D01*
X-4693619Y-2449908D01*
X-4947619Y-2449908D01*
X-9296869Y-2449908D01*
X-9455619Y-2608658D01*
X-9458691Y-5102908D01*
X-14787547Y-5102908D01*
X-14787547Y457092D01*
X-9458691Y457092D01*
X-9455619Y-2037158D01*
X-9296869Y-2195908D01*
X-4947619Y-2195908D01*
X-4947619Y933342D01*
X-4693619Y933342D01*
X-4693619Y-2195908D01*
X-344369Y-2195908D01*
X-185619Y-2037158D01*
X-182547Y457092D01*
X-194807Y581574D01*
X-231117Y701272D01*
X-290082Y811586D01*
X-369434Y908277D01*
X-466125Y987629D01*
X-576439Y1046594D01*
X-696137Y1082904D01*
X-820619Y1095164D01*
X-4534869Y1092092D01*
X-4693619Y933342D01*
X-4947619Y933342D01*
X-5106369Y1092092D01*
X-8820619Y1095164D01*
X-8945101Y1082904D01*
X-9064799Y1046594D01*
X-9175113Y987629D01*
X-9271804Y908277D01*
X-9351156Y811586D01*
X-9410121Y701272D01*
X-9446431Y581574D01*
X-9458691Y457092D01*
X-14787547Y457092D01*
X-14799807Y581574D01*
X-14836117Y701272D01*
X-14895082Y811586D01*
X-14974434Y908277D01*
X-15071125Y987629D01*
X-15181439Y1046594D01*
X-15301137Y1082904D01*
X-15425619Y1095164D01*
X-15958280Y1095164D01*
X-15958280Y2448719D01*
X-11925458Y6481540D01*
X-9948402Y6481540D01*
X-9911080Y6477864D01*
X-9873758Y6481540D01*
X-9873747Y6481540D01*
X-9762094Y6492537D01*
X-9618833Y6535994D01*
X-9486804Y6606566D01*
X-9371079Y6701539D01*
X-9347276Y6730543D01*
X-7436078Y8641740D01*
X-7372327Y8641740D01*
X-7363272Y8611889D01*
X-7363272Y8611889D01*
G37*
X-7363272Y8611889D02*
X-7281205Y8458353D01*
X-7170762Y8323778D01*
X-7036187Y8213335D01*
X-6882651Y8131268D01*
X-6716055Y8080732D01*
X-6542801Y8063668D01*
X-5242799Y8063668D01*
X-5069545Y8080732D01*
X-4902949Y8131268D01*
X-4749413Y8213335D01*
X-4614838Y8323778D01*
X-4504395Y8458353D01*
X-4460240Y8540961D01*
X-4416085Y8458353D01*
X-4305642Y8323778D01*
X-4171067Y8213335D01*
X-4017531Y8131268D01*
X-3850935Y8080732D01*
X-3677681Y8063668D01*
X-2764409Y8063668D01*
X-1535420Y6834678D01*
X-1511621Y6805679D01*
X-1482623Y6781881D01*
X-1395897Y6710706D01*
X-1266679Y6641637D01*
X-1263867Y6640134D01*
X-1120606Y6596677D01*
X-1008953Y6585680D01*
X-1008943Y6585680D01*
X-971620Y6582004D01*
X-934297Y6585680D01*
X2347119Y6585680D01*
X6326601Y2606196D01*
X6326601Y1095164D01*
X5784381Y1095164D01*
X5659899Y1082904D01*
X5540201Y1046594D01*
X5429887Y987629D01*
X5333196Y908277D01*
X5253844Y811586D01*
X5194879Y701272D01*
X5158569Y581574D01*
X5146309Y457092D01*
X5146309Y-5102908D01*
X5158569Y-5227390D01*
X5194879Y-5347088D01*
X5253844Y-5457402D01*
X5333196Y-5554093D01*
X5429887Y-5633445D01*
X5540201Y-5692410D01*
X5659899Y-5728720D01*
X5784381Y-5740980D01*
X6324381Y-5740980D01*
X6324381Y-6456517D01*
X749459Y-12031440D01*
X-6588706Y-12031440D01*
X-6626029Y-12027764D01*
X-6663352Y-12031440D01*
X-6663361Y-12031440D01*
X-6775014Y-12042437D01*
X-6918275Y-12085894D01*
X-7050304Y-12156466D01*
X-7166029Y-12251439D01*
X-7189827Y-12280437D01*
X-9282590Y-14373201D01*
X-11033774Y-14373201D01*
X-10977880Y-14092199D01*
X-10977880Y-13797001D01*
X-11035470Y-13507475D01*
X-11148438Y-13234747D01*
X-11312441Y-12989298D01*
X-11521178Y-12780561D01*
X-11766627Y-12616558D01*
X-12039355Y-12503590D01*
X-12328881Y-12446000D01*
X-12624079Y-12446000D01*
X-12913605Y-12503590D01*
X-13186333Y-12616558D01*
X-13431782Y-12780561D01*
X-13640519Y-12989298D01*
X-13744597Y-13145063D01*
X-13764411Y-13107994D01*
X-13951683Y-12879803D01*
X-14179874Y-12692531D01*
X-14440216Y-12553375D01*
X-14722703Y-12467684D01*
X-14942861Y-12446000D01*
X-15090099Y-12446000D01*
X-15310257Y-12467684D01*
X-15592744Y-12553375D01*
X-15853086Y-12692531D01*
X-16081277Y-12879803D01*
X-16268549Y-13107994D01*
X-16286480Y-13141540D01*
X-16304411Y-13107994D01*
X-16491683Y-12879803D01*
X-16719874Y-12692531D01*
X-16796480Y-12651584D01*
X-16796480Y-5740980D01*
X-15425619Y-5740980D01*
X-15301137Y-5728720D01*
X-15181439Y-5692410D01*
X-15071125Y-5633445D01*
X-14974434Y-5554093D01*
X-14895082Y-5457402D01*
X-14836117Y-5347088D01*
X-14799807Y-5227390D01*
X-14787547Y-5102908D01*
X-9458691Y-5102908D01*
X-9446431Y-5227390D01*
X-9410121Y-5347088D01*
X-9351156Y-5457402D01*
X-9271804Y-5554093D01*
X-9175113Y-5633445D01*
X-9064799Y-5692410D01*
X-8945101Y-5728720D01*
X-8820619Y-5740980D01*
X-5106369Y-5737908D01*
X-4947619Y-5579158D01*
X-4947619Y-2449908D01*
X-4693619Y-2449908D01*
X-4693619Y-5579158D01*
X-4534869Y-5737908D01*
X-820619Y-5740980D01*
X-696137Y-5728720D01*
X-576439Y-5692410D01*
X-466125Y-5633445D01*
X-369434Y-5554093D01*
X-290082Y-5457402D01*
X-231117Y-5347088D01*
X-194807Y-5227390D01*
X-182547Y-5102908D01*
X-185619Y-2608658D01*
X-344369Y-2449908D01*
X-4693619Y-2449908D01*
X-4947619Y-2449908D01*
X-9296869Y-2449908D01*
X-9455619Y-2608658D01*
X-9458691Y-5102908D01*
X-14787547Y-5102908D01*
X-14787547Y457092D01*
X-9458691Y457092D01*
X-9455619Y-2037158D01*
X-9296869Y-2195908D01*
X-4947619Y-2195908D01*
X-4947619Y933342D01*
X-4693619Y933342D01*
X-4693619Y-2195908D01*
X-344369Y-2195908D01*
X-185619Y-2037158D01*
X-182547Y457092D01*
X-194807Y581574D01*
X-231117Y701272D01*
X-290082Y811586D01*
X-369434Y908277D01*
X-466125Y987629D01*
X-576439Y1046594D01*
X-696137Y1082904D01*
X-820619Y1095164D01*
X-4534869Y1092092D01*
X-4693619Y933342D01*
X-4947619Y933342D01*
X-5106369Y1092092D01*
X-8820619Y1095164D01*
X-8945101Y1082904D01*
X-9064799Y1046594D01*
X-9175113Y987629D01*
X-9271804Y908277D01*
X-9351156Y811586D01*
X-9410121Y701272D01*
X-9446431Y581574D01*
X-9458691Y457092D01*
X-14787547Y457092D01*
X-14799807Y581574D01*
X-14836117Y701272D01*
X-14895082Y811586D01*
X-14974434Y908277D01*
X-15071125Y987629D01*
X-15181439Y1046594D01*
X-15301137Y1082904D01*
X-15425619Y1095164D01*
X-15958280Y1095164D01*
X-15958280Y2448719D01*
X-11925458Y6481540D01*
X-9948402Y6481540D01*
X-9911080Y6477864D01*
X-9873758Y6481540D01*
X-9873747Y6481540D01*
X-9762094Y6492537D01*
X-9618833Y6535994D01*
X-9486804Y6606566D01*
X-9371079Y6701539D01*
X-9347276Y6730543D01*
X-7436078Y8641740D01*
X-7372327Y8641740D01*
X-7363272Y8611889D01*
G36*
X-6790820Y27273979D02*
G01*
X-6790820Y26853421D01*
X-6708773Y26440944D01*
X-6547832Y26052398D01*
X-6314183Y25702717D01*
X-6016803Y25405337D01*
X-5667122Y25171688D01*
X-5278576Y25010747D01*
X-4866099Y24928700D01*
X-4445541Y24928700D01*
X-4033064Y25010747D01*
X-3644518Y25171688D01*
X-3294837Y25405337D01*
X-2997457Y25702717D01*
X-2763808Y26052398D01*
X-2602867Y26440944D01*
X-2520820Y26853421D01*
X-2520820Y27273979D01*
X-2543872Y27389868D01*
X-2332999Y27361597D01*
X-2332569Y27361540D01*
X-2050211Y27324666D01*
X-2049985Y27324637D01*
X-1957047Y27312669D01*
X-1861391Y27299862D01*
X-1770257Y27286686D01*
X-1687552Y27273790D01*
X-1618060Y27261964D01*
X-1567489Y27252221D01*
X-1545706Y27246926D01*
X-1491698Y27225484D01*
X-1425844Y27189170D01*
X-1345890Y27135112D01*
X-1250790Y27061626D01*
X-1175367Y26998580D01*
X-1142900Y26969458D01*
X-1093213Y26922980D01*
X-1028518Y26861235D01*
X-950959Y26786318D01*
X-862648Y26700318D01*
X-765024Y26604674D01*
X-659884Y26501169D01*
X-549541Y26392102D01*
X-435059Y26278539D01*
X-318829Y26162857D01*
X-202158Y26046360D01*
X-86957Y25930949D01*
X25192Y25818200D01*
X131998Y25710401D01*
X232471Y25608525D01*
X323967Y25515226D01*
X405451Y25431519D01*
X474686Y25359647D01*
X530089Y25301191D01*
X547654Y25282313D01*
X758565Y25049874D01*
X948759Y24831600D01*
X1034306Y24728546D01*
X925830Y24727980D01*
X767080Y24569230D01*
X767080Y23594980D01*
X787080Y23594980D01*
X787080Y23340980D01*
X767080Y23340980D01*
X767080Y22366730D01*
X925830Y22207980D01*
X1515080Y22204908D01*
X1639562Y22217168D01*
X1759260Y22253478D01*
X1869574Y22312443D01*
X1966265Y22391795D01*
X2045617Y22488486D01*
X2104582Y22598800D01*
X2140892Y22718498D01*
X2151944Y22830710D01*
X2188191Y22775705D01*
X2189893Y22773189D01*
X2217380Y22733574D01*
X2325321Y22571008D01*
X2430601Y22396410D01*
X2532750Y22211507D01*
X2630325Y22019553D01*
X2721862Y21823922D01*
X2805958Y21627917D01*
X2881223Y21434876D01*
X2946308Y21248123D01*
X2999815Y21071249D01*
X3040439Y20907893D01*
X3067263Y20760397D01*
X3074131Y20704159D01*
X3088998Y20582372D01*
X3089900Y20576233D01*
X3109647Y20461424D01*
X3111071Y20454353D01*
X3137093Y20341766D01*
X3138944Y20334693D01*
X3172635Y20219573D01*
X3174626Y20213366D01*
X3217382Y20090958D01*
X3219191Y20086099D01*
X3272406Y19951648D01*
X3273831Y19948197D01*
X3338900Y19796947D01*
X3339458Y19795668D01*
X3340910Y19792392D01*
X3395791Y19667243D01*
X3439999Y19562311D01*
X3474510Y19474112D01*
X3500352Y19399309D01*
X3518849Y19334067D01*
X3531503Y19273863D01*
X3539681Y19213552D01*
X3544366Y19147979D01*
X3546284Y19072370D01*
X3546420Y19031861D01*
X3545010Y18951989D01*
X3541308Y18856811D01*
X3535810Y18756633D01*
X3529037Y18661975D01*
X3526197Y18629143D01*
X3526112Y18628107D01*
X3512639Y18455917D01*
X3512365Y18451364D01*
X3505944Y18299190D01*
X3505835Y18292823D01*
X3506925Y18156155D01*
X3507250Y18148034D01*
X3516312Y18022358D01*
X3517329Y18013051D01*
X3534822Y17893855D01*
X3536575Y17884411D01*
X3562958Y17767182D01*
X3565160Y17758758D01*
X3600894Y17638985D01*
X3602890Y17632865D01*
X3639608Y17529275D01*
X3680208Y17414021D01*
X3709287Y17313627D01*
X3728668Y17220333D01*
X3739512Y17127312D01*
X3742471Y17027448D01*
X3737704Y16914110D01*
X3725230Y16781166D01*
X3717407Y16715663D01*
X3703482Y16599865D01*
X3703324Y16598482D01*
X3690569Y16481625D01*
X3690420Y16480185D01*
X3678674Y16359873D01*
X3678544Y16358457D01*
X3667651Y16232292D01*
X3667544Y16230977D01*
X3657345Y16096563D01*
X3657262Y16095395D01*
X3647599Y15950333D01*
X3647536Y15949338D01*
X3638250Y15791231D01*
X3638205Y15790410D01*
X3629139Y15616861D01*
X3629106Y15616204D01*
X3620102Y15424815D01*
X3620079Y15424304D01*
X3610978Y15212679D01*
X3610962Y15212290D01*
X3601606Y14978030D01*
X3601599Y14977852D01*
X3600144Y14940090D01*
X3589970Y14693162D01*
X3579150Y14469757D01*
X3567381Y14267734D01*
X3554367Y14085041D01*
X3539822Y13919586D01*
X3523462Y13769201D01*
X3505013Y13631755D01*
X3484199Y13505016D01*
X3460721Y13386660D01*
X3434275Y13274396D01*
X3404486Y13165757D01*
X3370952Y13058324D01*
X3333192Y12949554D01*
X3302310Y12866921D01*
X3302136Y12866451D01*
X3255801Y12740960D01*
X3254409Y12736990D01*
X3215625Y12620180D01*
X3214006Y12614928D01*
X3182021Y12502552D01*
X3180434Y12496394D01*
X3154495Y12384207D01*
X3153188Y12377806D01*
X3132543Y12261561D01*
X3131634Y12255637D01*
X3115531Y12131089D01*
X3114992Y12126167D01*
X3102677Y11989069D01*
X3102398Y11985349D01*
X3093121Y11831457D01*
X3092992Y11828887D01*
X3086000Y11653953D01*
X3085966Y11653011D01*
X3085879Y11650333D01*
X3080427Y11494230D01*
X3074487Y11361247D01*
X3067257Y11247510D01*
X3058025Y11149764D01*
X3046134Y11064328D01*
X3030888Y10987043D01*
X3011428Y10913400D01*
X2986595Y10838646D01*
X2955116Y10758419D01*
X2915805Y10668801D01*
X2867728Y10566340D01*
X2809993Y10447483D01*
X2809363Y10446197D01*
X2808575Y10444560D01*
X2738458Y10296157D01*
X2736550Y10291920D01*
X2680224Y10160458D01*
X2677919Y10154694D01*
X2634057Y10036704D01*
X2631556Y10029284D01*
X2598831Y9921297D01*
X2596859Y9914015D01*
X2581156Y9848382D01*
X2566383Y9793483D01*
X2559552Y9773127D01*
X2559552Y10356740D01*
X2542488Y10529994D01*
X2491952Y10696590D01*
X2409885Y10850126D01*
X2299442Y10984702D01*
X2164866Y11095145D01*
X2011330Y11177212D01*
X1844734Y11227748D01*
X1671480Y11244812D01*
X421480Y11244812D01*
X248226Y11227748D01*
X81630Y11177212D01*
X-71906Y11095145D01*
X-206482Y10984702D01*
X-264791Y10913652D01*
X-1507879Y12156740D01*
X-466592Y12156740D01*
X-454332Y12032258D01*
X-418022Y11912560D01*
X-359057Y11802246D01*
X-279705Y11705555D01*
X-183014Y11626203D01*
X-72700Y11567238D01*
X46998Y11530928D01*
X171480Y11518668D01*
X760730Y11521740D01*
X919480Y11680490D01*
X919480Y12654740D01*
X1173480Y12654740D01*
X1173480Y11680490D01*
X1332230Y11521740D01*
X1921480Y11518668D01*
X2045962Y11530928D01*
X2165660Y11567238D01*
X2275974Y11626203D01*
X2372665Y11705555D01*
X2452017Y11802246D01*
X2510982Y11912560D01*
X2547292Y12032258D01*
X2559552Y12156740D01*
X2556480Y12495990D01*
X2397730Y12654740D01*
X1173480Y12654740D01*
X919480Y12654740D01*
X-304770Y12654740D01*
X-463520Y12495990D01*
X-466592Y12156740D01*
X-1507879Y12156740D01*
X-1716001Y12364862D01*
X-1639275Y12458353D01*
X-1557208Y12611889D01*
X-1506672Y12778485D01*
X-1489608Y12951739D01*
X-1489608Y13406740D01*
X-466592Y13406740D01*
X-463520Y13067490D01*
X-304770Y12908740D01*
X919480Y12908740D01*
X919480Y13882990D01*
X1173480Y13882990D01*
X1173480Y12908740D01*
X2397730Y12908740D01*
X2556480Y13067490D01*
X2559552Y13406740D01*
X2547292Y13531222D01*
X2510982Y13650920D01*
X2452017Y13761234D01*
X2372665Y13857925D01*
X2275974Y13937277D01*
X2165660Y13996242D01*
X2045962Y14032552D01*
X1921480Y14044812D01*
X1332230Y14041740D01*
X1173480Y13882990D01*
X919480Y13882990D01*
X760730Y14041740D01*
X171480Y14044812D01*
X46998Y14032552D01*
X-72700Y13996242D01*
X-183014Y13937277D01*
X-279705Y13857925D01*
X-359057Y13761234D01*
X-418022Y13650920D01*
X-454332Y13531222D01*
X-466592Y13406740D01*
X-1489608Y13406740D01*
X-1489608Y13851741D01*
X-1506672Y14024995D01*
X-1557208Y14191591D01*
X-1639275Y14345127D01*
X-1749718Y14479702D01*
X-1884293Y14590145D01*
X-2037829Y14672212D01*
X-2204425Y14722748D01*
X-2267680Y14728978D01*
X-2267680Y16685419D01*
X451810Y19404908D01*
X1265080Y19404908D01*
X1438334Y19421972D01*
X1604930Y19472508D01*
X1758466Y19554575D01*
X1893042Y19665018D01*
X2003485Y19799594D01*
X2085552Y19953130D01*
X2136088Y20119726D01*
X2153152Y20292980D01*
X2153152Y21042980D01*
X2136088Y21216234D01*
X2085552Y21382830D01*
X2003485Y21536366D01*
X1893042Y21670942D01*
X1758466Y21781385D01*
X1604930Y21863452D01*
X1438334Y21913988D01*
X1265080Y21931052D01*
X15080Y21931052D01*
X-158174Y21913988D01*
X-324770Y21863452D01*
X-478306Y21781385D01*
X-612882Y21670942D01*
X-723325Y21536366D01*
X-805392Y21382830D01*
X-855928Y21216234D01*
X-872992Y21042980D01*
X-872992Y20292980D01*
X-867319Y20235383D01*
X-3538682Y17564019D01*
X-3567680Y17540221D01*
X-3591478Y17511223D01*
X-3591479Y17511222D01*
X-3662654Y17424496D01*
X-3733226Y17292466D01*
X-3776682Y17149205D01*
X-3791356Y17000220D01*
X-3787679Y16962888D01*
X-3787680Y14728978D01*
X-3850935Y14722748D01*
X-4017531Y14672212D01*
X-4171067Y14590145D01*
X-4305642Y14479702D01*
X-4416085Y14345127D01*
X-4460240Y14262519D01*
X-4504395Y14345127D01*
X-4614838Y14479702D01*
X-4749413Y14590145D01*
X-4902949Y14672212D01*
X-5069545Y14722748D01*
X-5132800Y14728978D01*
X-5132800Y17536935D01*
X-5129124Y17574260D01*
X-5132800Y17611585D01*
X-5132800Y17611593D01*
X-5143797Y17723246D01*
X-5187254Y17866507D01*
X-5257826Y17998536D01*
X-5352799Y18114261D01*
X-5381797Y18138059D01*
X-7479121Y20235382D01*
X-7473448Y20292980D01*
X-7473448Y21042980D01*
X-7490512Y21216234D01*
X-7541048Y21382830D01*
X-7623115Y21536366D01*
X-7733558Y21670942D01*
X-7868134Y21781385D01*
X-8021670Y21863452D01*
X-8188266Y21913988D01*
X-8361520Y21931052D01*
X-9611520Y21931052D01*
X-9784774Y21913988D01*
X-9951370Y21863452D01*
X-10104906Y21781385D01*
X-10239482Y21670942D01*
X-10349925Y21536366D01*
X-10431992Y21382830D01*
X-10482528Y21216234D01*
X-10499592Y21042980D01*
X-10499592Y20292980D01*
X-10482528Y20119726D01*
X-10431992Y19953130D01*
X-10349925Y19799594D01*
X-10239482Y19665018D01*
X-10104906Y19554575D01*
X-9951370Y19472508D01*
X-9784774Y19421972D01*
X-9611520Y19404908D01*
X-8798249Y19404908D01*
X-6652799Y17259457D01*
X-6652800Y14728978D01*
X-6716055Y14722748D01*
X-6882651Y14672212D01*
X-7036187Y14590145D01*
X-7170762Y14479702D01*
X-7281205Y14345127D01*
X-7363272Y14191591D01*
X-7413808Y14024995D01*
X-7430872Y13851741D01*
X-7430872Y12951739D01*
X-7429682Y12939660D01*
X-8322469Y12046873D01*
X-8311648Y12156740D01*
X-8314720Y12495990D01*
X-8473470Y12654740D01*
X-9697720Y12654740D01*
X-9697720Y11680490D01*
X-9538970Y11521740D01*
X-8949720Y11518668D01*
X-8839853Y11529489D01*
X-9131271Y11238070D01*
X-9199720Y11244812D01*
X-10449720Y11244812D01*
X-10622974Y11227748D01*
X-10789570Y11177212D01*
X-10943106Y11095145D01*
X-11077682Y10984702D01*
X-11188125Y10850126D01*
X-11270192Y10696590D01*
X-11320728Y10529994D01*
X-11337792Y10356740D01*
X-11337792Y9606740D01*
X-11320728Y9433486D01*
X-11270192Y9266890D01*
X-11188125Y9113354D01*
X-11077682Y8978778D01*
X-10943106Y8868335D01*
X-10789570Y8786268D01*
X-10622974Y8735732D01*
X-10449720Y8718668D01*
X-9508753Y8718668D01*
X-10225881Y8001540D01*
X-11060994Y8001540D01*
X-11058359Y8005317D01*
X-11047323Y8031505D01*
X-11043970Y8042877D01*
X-11039303Y8067332D01*
X-11039473Y8091991D01*
X-11041670Y8113019D01*
X-11046671Y8137408D01*
X-11057305Y8162108D01*
X-11070058Y8184769D01*
X-11090070Y8211415D01*
X-11115412Y8237251D01*
X-11128943Y8249212D01*
X-11168906Y8279764D01*
X-11176811Y8285343D01*
X-11233428Y8322156D01*
X-11237923Y8324947D01*
X-11313226Y8369561D01*
X-11315744Y8371014D01*
X-11411766Y8424973D01*
X-11412616Y8425447D01*
X-11419610Y8429307D01*
X-11524732Y8489047D01*
X-11606029Y8539426D01*
X-11665565Y8581641D01*
X-11705229Y8616002D01*
X-11728443Y8642778D01*
X-11741804Y8665675D01*
X-11747961Y8682370D01*
X-11751490Y8695709D01*
X-11753755Y8708390D01*
X-11755023Y8724918D01*
X-11754955Y8752492D01*
X-11752807Y8795171D01*
X-11748246Y8855759D01*
X-11741178Y8937155D01*
X-11736972Y8983629D01*
X-11736968Y8983671D01*
X-11725644Y9109246D01*
X-11725606Y9109676D01*
X-11716639Y9213042D01*
X-11716570Y9213868D01*
X-11709817Y9298095D01*
X-11709709Y9299550D01*
X-11705032Y9367705D01*
X-11704891Y9370094D01*
X-11702149Y9425247D01*
X-11702020Y9428888D01*
X-11701071Y9474107D01*
X-11701064Y9479106D01*
X-11701769Y9517459D01*
X-11702009Y9523260D01*
X-11704227Y9557817D01*
X-11704675Y9563084D01*
X-11708265Y9596913D01*
X-11708565Y9599489D01*
X-11710003Y9610828D01*
X-11710727Y9615760D01*
X-11722004Y9683317D01*
X-11724982Y9696676D01*
X-11741374Y9755171D01*
X-11748120Y9773616D01*
X-11772107Y9826193D01*
X-11782823Y9845175D01*
X-11816884Y9894976D01*
X-11828678Y9909731D01*
X-11875296Y9959898D01*
X-11884938Y9969233D01*
X-11946592Y10022909D01*
X-11953010Y10028139D01*
X-12032181Y10088466D01*
X-12035654Y10091020D01*
X-12118653Y10149921D01*
X-12265374Y10256358D01*
X-12389751Y10355725D01*
X-12492348Y10447906D01*
X-12572066Y10531197D01*
X-12627801Y10602972D01*
X-12659578Y10659736D01*
X-12670045Y10693672D01*
X-12670445Y10698627D01*
X-12669723Y10704265D01*
X-12665865Y10715064D01*
X-12653647Y10736353D01*
X-12628895Y10769079D01*
X-12589530Y10812936D01*
X-12534480Y10867973D01*
X-12462869Y10934814D01*
X-12373646Y11014573D01*
X-12265652Y11108595D01*
X-12226718Y11142112D01*
X-11969543Y11363040D01*
X-11952339Y11381036D01*
X-11938977Y11402042D01*
X-11929970Y11425252D01*
X-11925300Y11459419D01*
X-11925497Y12013057D01*
X-11925498Y12013416D01*
X-11925954Y12156740D01*
X-11337792Y12156740D01*
X-11325532Y12032258D01*
X-11289222Y11912560D01*
X-11230257Y11802246D01*
X-11150905Y11705555D01*
X-11054214Y11626203D01*
X-10943900Y11567238D01*
X-10824202Y11530928D01*
X-10699720Y11518668D01*
X-10110470Y11521740D01*
X-9951720Y11680490D01*
X-9951720Y12654740D01*
X-11175970Y12654740D01*
X-11334720Y12495990D01*
X-11337792Y12156740D01*
X-11925954Y12156740D01*
X-11926158Y12220715D01*
X-11926164Y12221688D01*
X-11928163Y12406050D01*
X-11928187Y12407460D01*
X-11931784Y12571326D01*
X-11931842Y12573287D01*
X-11937297Y12719095D01*
X-11937422Y12721723D01*
X-11944996Y12851915D01*
X-11945239Y12855301D01*
X-11955191Y12972317D01*
X-11955616Y12976497D01*
X-11968208Y13082777D01*
X-11968884Y13087665D01*
X-11984373Y13185648D01*
X-11985340Y13191015D01*
X-12003989Y13283143D01*
X-12005220Y13288604D01*
X-12027288Y13377316D01*
X-12028671Y13382419D01*
X-12035808Y13406740D01*
X-11337792Y13406740D01*
X-11334720Y13067490D01*
X-11175970Y12908740D01*
X-9951720Y12908740D01*
X-9951720Y13882990D01*
X-9697720Y13882990D01*
X-9697720Y12908740D01*
X-8473470Y12908740D01*
X-8314720Y13067490D01*
X-8311648Y13406740D01*
X-8323908Y13531222D01*
X-8360218Y13650920D01*
X-8419183Y13761234D01*
X-8498535Y13857925D01*
X-8595226Y13937277D01*
X-8705540Y13996242D01*
X-8825238Y14032552D01*
X-8949720Y14044812D01*
X-9538970Y14041740D01*
X-9697720Y13882990D01*
X-9951720Y13882990D01*
X-10110470Y14041740D01*
X-10699720Y14044812D01*
X-10824202Y14032552D01*
X-10943900Y13996242D01*
X-11054214Y13937277D01*
X-11150905Y13857925D01*
X-11230257Y13761234D01*
X-11289222Y13650920D01*
X-11325532Y13531222D01*
X-11337792Y13406740D01*
X-12035808Y13406740D01*
X-12054418Y13470155D01*
X-12055777Y13474497D01*
X-12085463Y13563698D01*
X-12086276Y13566062D01*
X-12096220Y13594088D01*
X-12119096Y13667620D01*
X-12138928Y13753145D01*
X-12156379Y13855065D01*
X-12171266Y13974560D01*
X-12183513Y14112806D01*
X-12193111Y14270865D01*
X-12200115Y14450095D01*
X-12204602Y14651797D01*
X-12206664Y14877370D01*
X-12206831Y14972806D01*
X-12202107Y15434241D01*
X-12188208Y15915698D01*
X-12165343Y16414405D01*
X-12133746Y16926857D01*
X-12093635Y17449873D01*
X-12045250Y17980002D01*
X-11988802Y18514149D01*
X-11924512Y19049041D01*
X-11919154Y19090852D01*
X-11891289Y19302284D01*
X-11864814Y19491854D01*
X-11838986Y19663778D01*
X-11813172Y19821544D01*
X-11786610Y19969469D01*
X-11758604Y20111438D01*
X-11728423Y20251492D01*
X-11695283Y20393850D01*
X-11658439Y20542505D01*
X-11650443Y20573796D01*
X-11608615Y20731901D01*
X-11567369Y20878561D01*
X-11527522Y21011254D01*
X-11490061Y21126917D01*
X-11456140Y21222164D01*
X-11426476Y21295077D01*
X-11424697Y21298996D01*
X-11405753Y21334715D01*
X-11374694Y21386176D01*
X-11335289Y21446919D01*
X-11291901Y21509927D01*
X-11273965Y21534832D01*
X-11273909Y21534908D01*
X-11147163Y21711178D01*
X-11145929Y21712926D01*
X-11031427Y21877965D01*
X-11030027Y21880026D01*
X-10928578Y22032555D01*
X-10926934Y22035092D01*
X-10839345Y22173834D01*
X-10837334Y22177128D01*
X-10764416Y22300804D01*
X-10761844Y22305381D01*
X-10704403Y22412713D01*
X-10701058Y22419432D01*
X-10661791Y22504539D01*
X-10658708Y22511809D01*
X-10629483Y22587137D01*
X-10626864Y22594560D01*
X-10604589Y22664555D01*
X-10601958Y22674094D01*
X-10585258Y22745364D01*
X-10583463Y22754533D01*
X-10570966Y22833689D01*
X-10570084Y22840451D01*
X-10560415Y22934103D01*
X-10560103Y22937585D01*
X-10554831Y23007414D01*
X-10537643Y23173046D01*
X-10509260Y23322474D01*
X-10496520Y23367105D01*
X-10496520Y23340978D01*
X-10337772Y23340978D01*
X-10496520Y23182230D01*
X-10499592Y22842980D01*
X-10487332Y22718498D01*
X-10451022Y22598800D01*
X-10392057Y22488486D01*
X-10312705Y22391795D01*
X-10216014Y22312443D01*
X-10105700Y22253478D01*
X-9986002Y22217168D01*
X-9861520Y22204908D01*
X-9272270Y22207980D01*
X-9113520Y22366730D01*
X-9113520Y23340980D01*
X-8859520Y23340980D01*
X-8859520Y22366730D01*
X-8700770Y22207980D01*
X-8111520Y22204908D01*
X-7987038Y22217168D01*
X-7867340Y22253478D01*
X-7757026Y22312443D01*
X-7660335Y22391795D01*
X-7580983Y22488486D01*
X-7522018Y22598800D01*
X-7485708Y22718498D01*
X-7473448Y22842980D01*
X-872992Y22842980D01*
X-860732Y22718498D01*
X-824422Y22598800D01*
X-765457Y22488486D01*
X-686105Y22391795D01*
X-589414Y22312443D01*
X-479100Y22253478D01*
X-359402Y22217168D01*
X-234920Y22204908D01*
X354330Y22207980D01*
X513080Y22366730D01*
X513080Y23340980D01*
X-711170Y23340980D01*
X-869920Y23182230D01*
X-872992Y22842980D01*
X-7473448Y22842980D01*
X-7476520Y23182230D01*
X-7635270Y23340980D01*
X-8859520Y23340980D01*
X-9113520Y23340980D01*
X-9133520Y23340980D01*
X-9133520Y23594980D01*
X-9113520Y23594980D01*
X-9113520Y24569230D01*
X-8859520Y24569230D01*
X-8859520Y23594980D01*
X-7635270Y23594980D01*
X-7476520Y23753730D01*
X-7473448Y24092980D01*
X-872992Y24092980D01*
X-869920Y23753730D01*
X-711170Y23594980D01*
X513080Y23594980D01*
X513080Y24569230D01*
X354330Y24727980D01*
X-234920Y24731052D01*
X-359402Y24718792D01*
X-479100Y24682482D01*
X-589414Y24623517D01*
X-686105Y24544165D01*
X-765457Y24447474D01*
X-824422Y24337160D01*
X-860732Y24217462D01*
X-872992Y24092980D01*
X-7473448Y24092980D01*
X-7485708Y24217462D01*
X-7522018Y24337160D01*
X-7580983Y24447474D01*
X-7660335Y24544165D01*
X-7757026Y24623517D01*
X-7867340Y24682482D01*
X-7987038Y24718792D01*
X-8111520Y24731052D01*
X-8700770Y24727980D01*
X-8859520Y24569230D01*
X-9113520Y24569230D01*
X-9272270Y24727980D01*
X-9810981Y24730789D01*
X-9796342Y24755330D01*
X-9775307Y24788425D01*
X-9616612Y25003764D01*
X-9439863Y25205762D01*
X-9247251Y25392025D01*
X-9152555Y25472659D01*
X-9080647Y25532102D01*
X-9079349Y25533190D01*
X-9006001Y25595489D01*
X-9004680Y25596627D01*
X-8929326Y25662431D01*
X-8928056Y25663555D01*
X-8849435Y25734085D01*
X-8848267Y25735146D01*
X-8765117Y25811624D01*
X-8764082Y25812586D01*
X-8675142Y25896235D01*
X-8674253Y25897079D01*
X-8578262Y25989122D01*
X-8577519Y25989841D01*
X-8473214Y26091499D01*
X-8472603Y26092098D01*
X-8358723Y26204595D01*
X-8358230Y26205085D01*
X-8233514Y26329642D01*
X-8233122Y26330035D01*
X-8096307Y26467874D01*
X-8095999Y26468185D01*
X-7945826Y26620530D01*
X-7945588Y26620772D01*
X-7780793Y26788845D01*
X-7780613Y26789029D01*
X-7599935Y26974051D01*
X-7599847Y26974142D01*
X-7554877Y27020285D01*
X-7440021Y27136213D01*
X-7339216Y27233483D01*
X-7249408Y27314785D01*
X-7167852Y27382567D01*
X-7091585Y27439487D01*
X-7017295Y27488401D01*
X-6940336Y27532758D01*
X-6928996Y27538808D01*
X-6808033Y27596436D01*
X-6720542Y27627289D01*
X-6790820Y27273979D01*
X-6790820Y27273979D01*
G37*
X-6790820Y27273979D02*
X-6790820Y26853421D01*
X-6708773Y26440944D01*
X-6547832Y26052398D01*
X-6314183Y25702717D01*
X-6016803Y25405337D01*
X-5667122Y25171688D01*
X-5278576Y25010747D01*
X-4866099Y24928700D01*
X-4445541Y24928700D01*
X-4033064Y25010747D01*
X-3644518Y25171688D01*
X-3294837Y25405337D01*
X-2997457Y25702717D01*
X-2763808Y26052398D01*
X-2602867Y26440944D01*
X-2520820Y26853421D01*
X-2520820Y27273979D01*
X-2543872Y27389868D01*
X-2332999Y27361597D01*
X-2332569Y27361540D01*
X-2050211Y27324666D01*
X-2049985Y27324637D01*
X-1957047Y27312669D01*
X-1861391Y27299862D01*
X-1770257Y27286686D01*
X-1687552Y27273790D01*
X-1618060Y27261964D01*
X-1567489Y27252221D01*
X-1545706Y27246926D01*
X-1491698Y27225484D01*
X-1425844Y27189170D01*
X-1345890Y27135112D01*
X-1250790Y27061626D01*
X-1175367Y26998580D01*
X-1142900Y26969458D01*
X-1093213Y26922980D01*
X-1028518Y26861235D01*
X-950959Y26786318D01*
X-862648Y26700318D01*
X-765024Y26604674D01*
X-659884Y26501169D01*
X-549541Y26392102D01*
X-435059Y26278539D01*
X-318829Y26162857D01*
X-202158Y26046360D01*
X-86957Y25930949D01*
X25192Y25818200D01*
X131998Y25710401D01*
X232471Y25608525D01*
X323967Y25515226D01*
X405451Y25431519D01*
X474686Y25359647D01*
X530089Y25301191D01*
X547654Y25282313D01*
X758565Y25049874D01*
X948759Y24831600D01*
X1034306Y24728546D01*
X925830Y24727980D01*
X767080Y24569230D01*
X767080Y23594980D01*
X787080Y23594980D01*
X787080Y23340980D01*
X767080Y23340980D01*
X767080Y22366730D01*
X925830Y22207980D01*
X1515080Y22204908D01*
X1639562Y22217168D01*
X1759260Y22253478D01*
X1869574Y22312443D01*
X1966265Y22391795D01*
X2045617Y22488486D01*
X2104582Y22598800D01*
X2140892Y22718498D01*
X2151944Y22830710D01*
X2188191Y22775705D01*
X2189893Y22773189D01*
X2217380Y22733574D01*
X2325321Y22571008D01*
X2430601Y22396410D01*
X2532750Y22211507D01*
X2630325Y22019553D01*
X2721862Y21823922D01*
X2805958Y21627917D01*
X2881223Y21434876D01*
X2946308Y21248123D01*
X2999815Y21071249D01*
X3040439Y20907893D01*
X3067263Y20760397D01*
X3074131Y20704159D01*
X3088998Y20582372D01*
X3089900Y20576233D01*
X3109647Y20461424D01*
X3111071Y20454353D01*
X3137093Y20341766D01*
X3138944Y20334693D01*
X3172635Y20219573D01*
X3174626Y20213366D01*
X3217382Y20090958D01*
X3219191Y20086099D01*
X3272406Y19951648D01*
X3273831Y19948197D01*
X3338900Y19796947D01*
X3339458Y19795668D01*
X3340910Y19792392D01*
X3395791Y19667243D01*
X3439999Y19562311D01*
X3474510Y19474112D01*
X3500352Y19399309D01*
X3518849Y19334067D01*
X3531503Y19273863D01*
X3539681Y19213552D01*
X3544366Y19147979D01*
X3546284Y19072370D01*
X3546420Y19031861D01*
X3545010Y18951989D01*
X3541308Y18856811D01*
X3535810Y18756633D01*
X3529037Y18661975D01*
X3526197Y18629143D01*
X3526112Y18628107D01*
X3512639Y18455917D01*
X3512365Y18451364D01*
X3505944Y18299190D01*
X3505835Y18292823D01*
X3506925Y18156155D01*
X3507250Y18148034D01*
X3516312Y18022358D01*
X3517329Y18013051D01*
X3534822Y17893855D01*
X3536575Y17884411D01*
X3562958Y17767182D01*
X3565160Y17758758D01*
X3600894Y17638985D01*
X3602890Y17632865D01*
X3639608Y17529275D01*
X3680208Y17414021D01*
X3709287Y17313627D01*
X3728668Y17220333D01*
X3739512Y17127312D01*
X3742471Y17027448D01*
X3737704Y16914110D01*
X3725230Y16781166D01*
X3717407Y16715663D01*
X3703482Y16599865D01*
X3703324Y16598482D01*
X3690569Y16481625D01*
X3690420Y16480185D01*
X3678674Y16359873D01*
X3678544Y16358457D01*
X3667651Y16232292D01*
X3667544Y16230977D01*
X3657345Y16096563D01*
X3657262Y16095395D01*
X3647599Y15950333D01*
X3647536Y15949338D01*
X3638250Y15791231D01*
X3638205Y15790410D01*
X3629139Y15616861D01*
X3629106Y15616204D01*
X3620102Y15424815D01*
X3620079Y15424304D01*
X3610978Y15212679D01*
X3610962Y15212290D01*
X3601606Y14978030D01*
X3601599Y14977852D01*
X3600144Y14940090D01*
X3589970Y14693162D01*
X3579150Y14469757D01*
X3567381Y14267734D01*
X3554367Y14085041D01*
X3539822Y13919586D01*
X3523462Y13769201D01*
X3505013Y13631755D01*
X3484199Y13505016D01*
X3460721Y13386660D01*
X3434275Y13274396D01*
X3404486Y13165757D01*
X3370952Y13058324D01*
X3333192Y12949554D01*
X3302310Y12866921D01*
X3302136Y12866451D01*
X3255801Y12740960D01*
X3254409Y12736990D01*
X3215625Y12620180D01*
X3214006Y12614928D01*
X3182021Y12502552D01*
X3180434Y12496394D01*
X3154495Y12384207D01*
X3153188Y12377806D01*
X3132543Y12261561D01*
X3131634Y12255637D01*
X3115531Y12131089D01*
X3114992Y12126167D01*
X3102677Y11989069D01*
X3102398Y11985349D01*
X3093121Y11831457D01*
X3092992Y11828887D01*
X3086000Y11653953D01*
X3085966Y11653011D01*
X3085879Y11650333D01*
X3080427Y11494230D01*
X3074487Y11361247D01*
X3067257Y11247510D01*
X3058025Y11149764D01*
X3046134Y11064328D01*
X3030888Y10987043D01*
X3011428Y10913400D01*
X2986595Y10838646D01*
X2955116Y10758419D01*
X2915805Y10668801D01*
X2867728Y10566340D01*
X2809993Y10447483D01*
X2809363Y10446197D01*
X2808575Y10444560D01*
X2738458Y10296157D01*
X2736550Y10291920D01*
X2680224Y10160458D01*
X2677919Y10154694D01*
X2634057Y10036704D01*
X2631556Y10029284D01*
X2598831Y9921297D01*
X2596859Y9914015D01*
X2581156Y9848382D01*
X2566383Y9793483D01*
X2559552Y9773127D01*
X2559552Y10356740D01*
X2542488Y10529994D01*
X2491952Y10696590D01*
X2409885Y10850126D01*
X2299442Y10984702D01*
X2164866Y11095145D01*
X2011330Y11177212D01*
X1844734Y11227748D01*
X1671480Y11244812D01*
X421480Y11244812D01*
X248226Y11227748D01*
X81630Y11177212D01*
X-71906Y11095145D01*
X-206482Y10984702D01*
X-264791Y10913652D01*
X-1507879Y12156740D01*
X-466592Y12156740D01*
X-454332Y12032258D01*
X-418022Y11912560D01*
X-359057Y11802246D01*
X-279705Y11705555D01*
X-183014Y11626203D01*
X-72700Y11567238D01*
X46998Y11530928D01*
X171480Y11518668D01*
X760730Y11521740D01*
X919480Y11680490D01*
X919480Y12654740D01*
X1173480Y12654740D01*
X1173480Y11680490D01*
X1332230Y11521740D01*
X1921480Y11518668D01*
X2045962Y11530928D01*
X2165660Y11567238D01*
X2275974Y11626203D01*
X2372665Y11705555D01*
X2452017Y11802246D01*
X2510982Y11912560D01*
X2547292Y12032258D01*
X2559552Y12156740D01*
X2556480Y12495990D01*
X2397730Y12654740D01*
X1173480Y12654740D01*
X919480Y12654740D01*
X-304770Y12654740D01*
X-463520Y12495990D01*
X-466592Y12156740D01*
X-1507879Y12156740D01*
X-1716001Y12364862D01*
X-1639275Y12458353D01*
X-1557208Y12611889D01*
X-1506672Y12778485D01*
X-1489608Y12951739D01*
X-1489608Y13406740D01*
X-466592Y13406740D01*
X-463520Y13067490D01*
X-304770Y12908740D01*
X919480Y12908740D01*
X919480Y13882990D01*
X1173480Y13882990D01*
X1173480Y12908740D01*
X2397730Y12908740D01*
X2556480Y13067490D01*
X2559552Y13406740D01*
X2547292Y13531222D01*
X2510982Y13650920D01*
X2452017Y13761234D01*
X2372665Y13857925D01*
X2275974Y13937277D01*
X2165660Y13996242D01*
X2045962Y14032552D01*
X1921480Y14044812D01*
X1332230Y14041740D01*
X1173480Y13882990D01*
X919480Y13882990D01*
X760730Y14041740D01*
X171480Y14044812D01*
X46998Y14032552D01*
X-72700Y13996242D01*
X-183014Y13937277D01*
X-279705Y13857925D01*
X-359057Y13761234D01*
X-418022Y13650920D01*
X-454332Y13531222D01*
X-466592Y13406740D01*
X-1489608Y13406740D01*
X-1489608Y13851741D01*
X-1506672Y14024995D01*
X-1557208Y14191591D01*
X-1639275Y14345127D01*
X-1749718Y14479702D01*
X-1884293Y14590145D01*
X-2037829Y14672212D01*
X-2204425Y14722748D01*
X-2267680Y14728978D01*
X-2267680Y16685419D01*
X451810Y19404908D01*
X1265080Y19404908D01*
X1438334Y19421972D01*
X1604930Y19472508D01*
X1758466Y19554575D01*
X1893042Y19665018D01*
X2003485Y19799594D01*
X2085552Y19953130D01*
X2136088Y20119726D01*
X2153152Y20292980D01*
X2153152Y21042980D01*
X2136088Y21216234D01*
X2085552Y21382830D01*
X2003485Y21536366D01*
X1893042Y21670942D01*
X1758466Y21781385D01*
X1604930Y21863452D01*
X1438334Y21913988D01*
X1265080Y21931052D01*
X15080Y21931052D01*
X-158174Y21913988D01*
X-324770Y21863452D01*
X-478306Y21781385D01*
X-612882Y21670942D01*
X-723325Y21536366D01*
X-805392Y21382830D01*
X-855928Y21216234D01*
X-872992Y21042980D01*
X-872992Y20292980D01*
X-867319Y20235383D01*
X-3538682Y17564019D01*
X-3567680Y17540221D01*
X-3591478Y17511223D01*
X-3591479Y17511222D01*
X-3662654Y17424496D01*
X-3733226Y17292466D01*
X-3776682Y17149205D01*
X-3791356Y17000220D01*
X-3787679Y16962888D01*
X-3787680Y14728978D01*
X-3850935Y14722748D01*
X-4017531Y14672212D01*
X-4171067Y14590145D01*
X-4305642Y14479702D01*
X-4416085Y14345127D01*
X-4460240Y14262519D01*
X-4504395Y14345127D01*
X-4614838Y14479702D01*
X-4749413Y14590145D01*
X-4902949Y14672212D01*
X-5069545Y14722748D01*
X-5132800Y14728978D01*
X-5132800Y17536935D01*
X-5129124Y17574260D01*
X-5132800Y17611585D01*
X-5132800Y17611593D01*
X-5143797Y17723246D01*
X-5187254Y17866507D01*
X-5257826Y17998536D01*
X-5352799Y18114261D01*
X-5381797Y18138059D01*
X-7479121Y20235382D01*
X-7473448Y20292980D01*
X-7473448Y21042980D01*
X-7490512Y21216234D01*
X-7541048Y21382830D01*
X-7623115Y21536366D01*
X-7733558Y21670942D01*
X-7868134Y21781385D01*
X-8021670Y21863452D01*
X-8188266Y21913988D01*
X-8361520Y21931052D01*
X-9611520Y21931052D01*
X-9784774Y21913988D01*
X-9951370Y21863452D01*
X-10104906Y21781385D01*
X-10239482Y21670942D01*
X-10349925Y21536366D01*
X-10431992Y21382830D01*
X-10482528Y21216234D01*
X-10499592Y21042980D01*
X-10499592Y20292980D01*
X-10482528Y20119726D01*
X-10431992Y19953130D01*
X-10349925Y19799594D01*
X-10239482Y19665018D01*
X-10104906Y19554575D01*
X-9951370Y19472508D01*
X-9784774Y19421972D01*
X-9611520Y19404908D01*
X-8798249Y19404908D01*
X-6652799Y17259457D01*
X-6652800Y14728978D01*
X-6716055Y14722748D01*
X-6882651Y14672212D01*
X-7036187Y14590145D01*
X-7170762Y14479702D01*
X-7281205Y14345127D01*
X-7363272Y14191591D01*
X-7413808Y14024995D01*
X-7430872Y13851741D01*
X-7430872Y12951739D01*
X-7429682Y12939660D01*
X-8322469Y12046873D01*
X-8311648Y12156740D01*
X-8314720Y12495990D01*
X-8473470Y12654740D01*
X-9697720Y12654740D01*
X-9697720Y11680490D01*
X-9538970Y11521740D01*
X-8949720Y11518668D01*
X-8839853Y11529489D01*
X-9131271Y11238070D01*
X-9199720Y11244812D01*
X-10449720Y11244812D01*
X-10622974Y11227748D01*
X-10789570Y11177212D01*
X-10943106Y11095145D01*
X-11077682Y10984702D01*
X-11188125Y10850126D01*
X-11270192Y10696590D01*
X-11320728Y10529994D01*
X-11337792Y10356740D01*
X-11337792Y9606740D01*
X-11320728Y9433486D01*
X-11270192Y9266890D01*
X-11188125Y9113354D01*
X-11077682Y8978778D01*
X-10943106Y8868335D01*
X-10789570Y8786268D01*
X-10622974Y8735732D01*
X-10449720Y8718668D01*
X-9508753Y8718668D01*
X-10225881Y8001540D01*
X-11060994Y8001540D01*
X-11058359Y8005317D01*
X-11047323Y8031505D01*
X-11043970Y8042877D01*
X-11039303Y8067332D01*
X-11039473Y8091991D01*
X-11041670Y8113019D01*
X-11046671Y8137408D01*
X-11057305Y8162108D01*
X-11070058Y8184769D01*
X-11090070Y8211415D01*
X-11115412Y8237251D01*
X-11128943Y8249212D01*
X-11168906Y8279764D01*
X-11176811Y8285343D01*
X-11233428Y8322156D01*
X-11237923Y8324947D01*
X-11313226Y8369561D01*
X-11315744Y8371014D01*
X-11411766Y8424973D01*
X-11412616Y8425447D01*
X-11419610Y8429307D01*
X-11524732Y8489047D01*
X-11606029Y8539426D01*
X-11665565Y8581641D01*
X-11705229Y8616002D01*
X-11728443Y8642778D01*
X-11741804Y8665675D01*
X-11747961Y8682370D01*
X-11751490Y8695709D01*
X-11753755Y8708390D01*
X-11755023Y8724918D01*
X-11754955Y8752492D01*
X-11752807Y8795171D01*
X-11748246Y8855759D01*
X-11741178Y8937155D01*
X-11736972Y8983629D01*
X-11736968Y8983671D01*
X-11725644Y9109246D01*
X-11725606Y9109676D01*
X-11716639Y9213042D01*
X-11716570Y9213868D01*
X-11709817Y9298095D01*
X-11709709Y9299550D01*
X-11705032Y9367705D01*
X-11704891Y9370094D01*
X-11702149Y9425247D01*
X-11702020Y9428888D01*
X-11701071Y9474107D01*
X-11701064Y9479106D01*
X-11701769Y9517459D01*
X-11702009Y9523260D01*
X-11704227Y9557817D01*
X-11704675Y9563084D01*
X-11708265Y9596913D01*
X-11708565Y9599489D01*
X-11710003Y9610828D01*
X-11710727Y9615760D01*
X-11722004Y9683317D01*
X-11724982Y9696676D01*
X-11741374Y9755171D01*
X-11748120Y9773616D01*
X-11772107Y9826193D01*
X-11782823Y9845175D01*
X-11816884Y9894976D01*
X-11828678Y9909731D01*
X-11875296Y9959898D01*
X-11884938Y9969233D01*
X-11946592Y10022909D01*
X-11953010Y10028139D01*
X-12032181Y10088466D01*
X-12035654Y10091020D01*
X-12118653Y10149921D01*
X-12265374Y10256358D01*
X-12389751Y10355725D01*
X-12492348Y10447906D01*
X-12572066Y10531197D01*
X-12627801Y10602972D01*
X-12659578Y10659736D01*
X-12670045Y10693672D01*
X-12670445Y10698627D01*
X-12669723Y10704265D01*
X-12665865Y10715064D01*
X-12653647Y10736353D01*
X-12628895Y10769079D01*
X-12589530Y10812936D01*
X-12534480Y10867973D01*
X-12462869Y10934814D01*
X-12373646Y11014573D01*
X-12265652Y11108595D01*
X-12226718Y11142112D01*
X-11969543Y11363040D01*
X-11952339Y11381036D01*
X-11938977Y11402042D01*
X-11929970Y11425252D01*
X-11925300Y11459419D01*
X-11925497Y12013057D01*
X-11925498Y12013416D01*
X-11925954Y12156740D01*
X-11337792Y12156740D01*
X-11325532Y12032258D01*
X-11289222Y11912560D01*
X-11230257Y11802246D01*
X-11150905Y11705555D01*
X-11054214Y11626203D01*
X-10943900Y11567238D01*
X-10824202Y11530928D01*
X-10699720Y11518668D01*
X-10110470Y11521740D01*
X-9951720Y11680490D01*
X-9951720Y12654740D01*
X-11175970Y12654740D01*
X-11334720Y12495990D01*
X-11337792Y12156740D01*
X-11925954Y12156740D01*
X-11926158Y12220715D01*
X-11926164Y12221688D01*
X-11928163Y12406050D01*
X-11928187Y12407460D01*
X-11931784Y12571326D01*
X-11931842Y12573287D01*
X-11937297Y12719095D01*
X-11937422Y12721723D01*
X-11944996Y12851915D01*
X-11945239Y12855301D01*
X-11955191Y12972317D01*
X-11955616Y12976497D01*
X-11968208Y13082777D01*
X-11968884Y13087665D01*
X-11984373Y13185648D01*
X-11985340Y13191015D01*
X-12003989Y13283143D01*
X-12005220Y13288604D01*
X-12027288Y13377316D01*
X-12028671Y13382419D01*
X-12035808Y13406740D01*
X-11337792Y13406740D01*
X-11334720Y13067490D01*
X-11175970Y12908740D01*
X-9951720Y12908740D01*
X-9951720Y13882990D01*
X-9697720Y13882990D01*
X-9697720Y12908740D01*
X-8473470Y12908740D01*
X-8314720Y13067490D01*
X-8311648Y13406740D01*
X-8323908Y13531222D01*
X-8360218Y13650920D01*
X-8419183Y13761234D01*
X-8498535Y13857925D01*
X-8595226Y13937277D01*
X-8705540Y13996242D01*
X-8825238Y14032552D01*
X-8949720Y14044812D01*
X-9538970Y14041740D01*
X-9697720Y13882990D01*
X-9951720Y13882990D01*
X-10110470Y14041740D01*
X-10699720Y14044812D01*
X-10824202Y14032552D01*
X-10943900Y13996242D01*
X-11054214Y13937277D01*
X-11150905Y13857925D01*
X-11230257Y13761234D01*
X-11289222Y13650920D01*
X-11325532Y13531222D01*
X-11337792Y13406740D01*
X-12035808Y13406740D01*
X-12054418Y13470155D01*
X-12055777Y13474497D01*
X-12085463Y13563698D01*
X-12086276Y13566062D01*
X-12096220Y13594088D01*
X-12119096Y13667620D01*
X-12138928Y13753145D01*
X-12156379Y13855065D01*
X-12171266Y13974560D01*
X-12183513Y14112806D01*
X-12193111Y14270865D01*
X-12200115Y14450095D01*
X-12204602Y14651797D01*
X-12206664Y14877370D01*
X-12206831Y14972806D01*
X-12202107Y15434241D01*
X-12188208Y15915698D01*
X-12165343Y16414405D01*
X-12133746Y16926857D01*
X-12093635Y17449873D01*
X-12045250Y17980002D01*
X-11988802Y18514149D01*
X-11924512Y19049041D01*
X-11919154Y19090852D01*
X-11891289Y19302284D01*
X-11864814Y19491854D01*
X-11838986Y19663778D01*
X-11813172Y19821544D01*
X-11786610Y19969469D01*
X-11758604Y20111438D01*
X-11728423Y20251492D01*
X-11695283Y20393850D01*
X-11658439Y20542505D01*
X-11650443Y20573796D01*
X-11608615Y20731901D01*
X-11567369Y20878561D01*
X-11527522Y21011254D01*
X-11490061Y21126917D01*
X-11456140Y21222164D01*
X-11426476Y21295077D01*
X-11424697Y21298996D01*
X-11405753Y21334715D01*
X-11374694Y21386176D01*
X-11335289Y21446919D01*
X-11291901Y21509927D01*
X-11273965Y21534832D01*
X-11273909Y21534908D01*
X-11147163Y21711178D01*
X-11145929Y21712926D01*
X-11031427Y21877965D01*
X-11030027Y21880026D01*
X-10928578Y22032555D01*
X-10926934Y22035092D01*
X-10839345Y22173834D01*
X-10837334Y22177128D01*
X-10764416Y22300804D01*
X-10761844Y22305381D01*
X-10704403Y22412713D01*
X-10701058Y22419432D01*
X-10661791Y22504539D01*
X-10658708Y22511809D01*
X-10629483Y22587137D01*
X-10626864Y22594560D01*
X-10604589Y22664555D01*
X-10601958Y22674094D01*
X-10585258Y22745364D01*
X-10583463Y22754533D01*
X-10570966Y22833689D01*
X-10570084Y22840451D01*
X-10560415Y22934103D01*
X-10560103Y22937585D01*
X-10554831Y23007414D01*
X-10537643Y23173046D01*
X-10509260Y23322474D01*
X-10496520Y23367105D01*
X-10496520Y23340978D01*
X-10337772Y23340978D01*
X-10496520Y23182230D01*
X-10499592Y22842980D01*
X-10487332Y22718498D01*
X-10451022Y22598800D01*
X-10392057Y22488486D01*
X-10312705Y22391795D01*
X-10216014Y22312443D01*
X-10105700Y22253478D01*
X-9986002Y22217168D01*
X-9861520Y22204908D01*
X-9272270Y22207980D01*
X-9113520Y22366730D01*
X-9113520Y23340980D01*
X-8859520Y23340980D01*
X-8859520Y22366730D01*
X-8700770Y22207980D01*
X-8111520Y22204908D01*
X-7987038Y22217168D01*
X-7867340Y22253478D01*
X-7757026Y22312443D01*
X-7660335Y22391795D01*
X-7580983Y22488486D01*
X-7522018Y22598800D01*
X-7485708Y22718498D01*
X-7473448Y22842980D01*
X-872992Y22842980D01*
X-860732Y22718498D01*
X-824422Y22598800D01*
X-765457Y22488486D01*
X-686105Y22391795D01*
X-589414Y22312443D01*
X-479100Y22253478D01*
X-359402Y22217168D01*
X-234920Y22204908D01*
X354330Y22207980D01*
X513080Y22366730D01*
X513080Y23340980D01*
X-711170Y23340980D01*
X-869920Y23182230D01*
X-872992Y22842980D01*
X-7473448Y22842980D01*
X-7476520Y23182230D01*
X-7635270Y23340980D01*
X-8859520Y23340980D01*
X-9113520Y23340980D01*
X-9133520Y23340980D01*
X-9133520Y23594980D01*
X-9113520Y23594980D01*
X-9113520Y24569230D01*
X-8859520Y24569230D01*
X-8859520Y23594980D01*
X-7635270Y23594980D01*
X-7476520Y23753730D01*
X-7473448Y24092980D01*
X-872992Y24092980D01*
X-869920Y23753730D01*
X-711170Y23594980D01*
X513080Y23594980D01*
X513080Y24569230D01*
X354330Y24727980D01*
X-234920Y24731052D01*
X-359402Y24718792D01*
X-479100Y24682482D01*
X-589414Y24623517D01*
X-686105Y24544165D01*
X-765457Y24447474D01*
X-824422Y24337160D01*
X-860732Y24217462D01*
X-872992Y24092980D01*
X-7473448Y24092980D01*
X-7485708Y24217462D01*
X-7522018Y24337160D01*
X-7580983Y24447474D01*
X-7660335Y24544165D01*
X-7757026Y24623517D01*
X-7867340Y24682482D01*
X-7987038Y24718792D01*
X-8111520Y24731052D01*
X-8700770Y24727980D01*
X-8859520Y24569230D01*
X-9113520Y24569230D01*
X-9272270Y24727980D01*
X-9810981Y24730789D01*
X-9796342Y24755330D01*
X-9775307Y24788425D01*
X-9616612Y25003764D01*
X-9439863Y25205762D01*
X-9247251Y25392025D01*
X-9152555Y25472659D01*
X-9080647Y25532102D01*
X-9079349Y25533190D01*
X-9006001Y25595489D01*
X-9004680Y25596627D01*
X-8929326Y25662431D01*
X-8928056Y25663555D01*
X-8849435Y25734085D01*
X-8848267Y25735146D01*
X-8765117Y25811624D01*
X-8764082Y25812586D01*
X-8675142Y25896235D01*
X-8674253Y25897079D01*
X-8578262Y25989122D01*
X-8577519Y25989841D01*
X-8473214Y26091499D01*
X-8472603Y26092098D01*
X-8358723Y26204595D01*
X-8358230Y26205085D01*
X-8233514Y26329642D01*
X-8233122Y26330035D01*
X-8096307Y26467874D01*
X-8095999Y26468185D01*
X-7945826Y26620530D01*
X-7945588Y26620772D01*
X-7780793Y26788845D01*
X-7780613Y26789029D01*
X-7599935Y26974051D01*
X-7599847Y26974142D01*
X-7554877Y27020285D01*
X-7440021Y27136213D01*
X-7339216Y27233483D01*
X-7249408Y27314785D01*
X-7167852Y27382567D01*
X-7091585Y27439487D01*
X-7017295Y27488401D01*
X-6940336Y27532758D01*
X-6928996Y27538808D01*
X-6808033Y27596436D01*
X-6720542Y27627289D01*
X-6790820Y27273979D01*
M02*
