G04 #@! TF.GenerationSoftware,KiCad,Pcbnew,8.0.4*
G04 #@! TF.CreationDate,2024-07-21T19:03:04-05:00*
G04 #@! TF.ProjectId,keanu-homeboy,6b65616e-752d-4686-9f6d-65626f792e6b,rev?*
G04 #@! TF.SameCoordinates,Original*
G04 #@! TF.FileFunction,Copper,L1,Top*
G04 #@! TF.FilePolarity,Positive*
%FSLAX46Y46*%
G04 Gerber Fmt 4.6, Leading zero omitted, Abs format (unit mm)*
G04 Created by KiCad (PCBNEW 8.0.4) date 2024-07-21 19:03:04*
%MOMM*%
%LPD*%
G01*
G04 APERTURE LIST*
G04 #@! TA.AperFunction,EtchedComponent*
%ADD10C,0.010000*%
G04 #@! TD*
G04 #@! TA.AperFunction,ComponentPad*
%ADD11O,1.727200X1.727200*%
G04 #@! TD*
G04 #@! TA.AperFunction,ComponentPad*
%ADD12R,1.727200X1.727200*%
G04 #@! TD*
G04 #@! TA.AperFunction,ComponentPad*
%ADD13C,1.727200*%
G04 #@! TD*
G04 APERTURE END LIST*
D10*
X-12513506Y-6470987D02*
X-12466520Y-6472802D01*
X-12431314Y-6477301D01*
X-12401082Y-6485690D01*
X-12369014Y-6499175D01*
X-12340621Y-6512886D01*
X-12295983Y-6537360D01*
X-12258994Y-6562145D01*
X-12237155Y-6582172D01*
X-12236288Y-6583416D01*
X-12211083Y-6634382D01*
X-12186700Y-6707670D01*
X-12163760Y-6800204D01*
X-12142884Y-6908906D01*
X-12124692Y-7030701D01*
X-12109807Y-7162510D01*
X-12102704Y-7245350D01*
X-12090959Y-7377499D01*
X-12077099Y-7493226D01*
X-12061485Y-7590265D01*
X-12044480Y-7666349D01*
X-12027240Y-7717439D01*
X-12004251Y-7756661D01*
X-11981292Y-7771676D01*
X-11958744Y-7763676D01*
X-11936984Y-7733853D01*
X-11916391Y-7683397D01*
X-11897344Y-7613500D01*
X-11880222Y-7525354D01*
X-11865402Y-7420149D01*
X-11853264Y-7299077D01*
X-11844185Y-7163330D01*
X-11842904Y-7137400D01*
X-11835659Y-7002236D01*
X-11827206Y-6890047D01*
X-11816752Y-6798410D01*
X-11803503Y-6724903D01*
X-11786663Y-6667103D01*
X-11765438Y-6622589D01*
X-11739035Y-6588937D01*
X-11706658Y-6563726D01*
X-11667513Y-6544533D01*
X-11645900Y-6536685D01*
X-11574717Y-6517666D01*
X-11486650Y-6501306D01*
X-11390165Y-6488660D01*
X-11293726Y-6480784D01*
X-11205800Y-6478730D01*
X-11185135Y-6479290D01*
X-11125848Y-6482272D01*
X-11086442Y-6486322D01*
X-11061397Y-6492657D01*
X-11045195Y-6502497D01*
X-11036114Y-6512176D01*
X-11021224Y-6540028D01*
X-11007626Y-6585571D01*
X-10995297Y-6649370D01*
X-10984212Y-6731992D01*
X-10974348Y-6834003D01*
X-10965683Y-6955967D01*
X-10958192Y-7098451D01*
X-10951853Y-7262020D01*
X-10946642Y-7447241D01*
X-10942535Y-7654678D01*
X-10939510Y-7884898D01*
X-10937544Y-8138466D01*
X-10936611Y-8415949D01*
X-10936690Y-8717911D01*
X-10937206Y-8908978D01*
X-10941050Y-10001107D01*
X-11099800Y-10035715D01*
X-11210814Y-10058941D01*
X-11301062Y-10075440D01*
X-11374152Y-10085627D01*
X-11433693Y-10089918D01*
X-11483295Y-10088725D01*
X-11519215Y-10083923D01*
X-11595973Y-10059747D01*
X-11659576Y-10017568D01*
X-11711186Y-9955943D01*
X-11751965Y-9873427D01*
X-11783074Y-9768576D01*
X-11786927Y-9751076D01*
X-11794893Y-9708326D01*
X-11801574Y-9659877D01*
X-11807219Y-9602309D01*
X-11812074Y-9532199D01*
X-11816385Y-9446129D01*
X-11820400Y-9340675D01*
X-11823401Y-9245600D01*
X-11828140Y-9104575D01*
X-11833359Y-8987451D01*
X-11839184Y-8892729D01*
X-11845742Y-8818911D01*
X-11853162Y-8764501D01*
X-11861569Y-8727999D01*
X-11868758Y-8711217D01*
X-11885851Y-8698911D01*
X-11905613Y-8710226D01*
X-11926352Y-8743759D01*
X-11935969Y-8766835D01*
X-11954510Y-8825472D01*
X-11974651Y-8906720D01*
X-11996494Y-9011100D01*
X-12020140Y-9139138D01*
X-12045691Y-9291354D01*
X-12073247Y-9468273D01*
X-12077952Y-9499600D01*
X-12092551Y-9595731D01*
X-12106979Y-9687959D01*
X-12120536Y-9772004D01*
X-12132518Y-9843587D01*
X-12142225Y-9898429D01*
X-12148761Y-9931400D01*
X-12176281Y-10022403D01*
X-12213482Y-10091160D01*
X-12261749Y-10139434D01*
X-12322466Y-10168985D01*
X-12339033Y-10173484D01*
X-12384170Y-10180943D01*
X-12445091Y-10186710D01*
X-12514227Y-10190536D01*
X-12584009Y-10192175D01*
X-12646867Y-10191377D01*
X-12695231Y-10187897D01*
X-12709307Y-10185596D01*
X-12774878Y-10166561D01*
X-12826295Y-10141550D01*
X-12858928Y-10113078D01*
X-12866021Y-10100430D01*
X-12874322Y-10065539D01*
X-12882098Y-10007190D01*
X-12889333Y-9927319D01*
X-12896014Y-9827861D01*
X-12902128Y-9710754D01*
X-12907659Y-9577933D01*
X-12912595Y-9431334D01*
X-12916921Y-9272894D01*
X-12920624Y-9104550D01*
X-12923690Y-8928236D01*
X-12926105Y-8745890D01*
X-12927855Y-8559448D01*
X-12928926Y-8370846D01*
X-12929304Y-8182020D01*
X-12928976Y-7994906D01*
X-12927928Y-7811441D01*
X-12926145Y-7633561D01*
X-12923615Y-7463202D01*
X-12920323Y-7302301D01*
X-12916255Y-7152793D01*
X-12911397Y-7016615D01*
X-12905736Y-6895703D01*
X-12899258Y-6791993D01*
X-12891949Y-6707422D01*
X-12890395Y-6693058D01*
X-12880033Y-6624375D01*
X-12864867Y-6575135D01*
X-12841627Y-6539429D01*
X-12807042Y-6511346D01*
X-12781831Y-6496921D01*
X-12756049Y-6485319D01*
X-12727488Y-6477654D01*
X-12690271Y-6473163D01*
X-12638521Y-6471086D01*
X-12579083Y-6470650D01*
X-12513506Y-6470987D01*
G04 #@! TA.AperFunction,EtchedComponent*
G36*
X-12513506Y-6470987D02*
G01*
X-12466520Y-6472802D01*
X-12431314Y-6477301D01*
X-12401082Y-6485690D01*
X-12369014Y-6499175D01*
X-12340621Y-6512886D01*
X-12295983Y-6537360D01*
X-12258994Y-6562145D01*
X-12237155Y-6582172D01*
X-12236288Y-6583416D01*
X-12211083Y-6634382D01*
X-12186700Y-6707670D01*
X-12163760Y-6800204D01*
X-12142884Y-6908906D01*
X-12124692Y-7030701D01*
X-12109807Y-7162510D01*
X-12102704Y-7245350D01*
X-12090959Y-7377499D01*
X-12077099Y-7493226D01*
X-12061485Y-7590265D01*
X-12044480Y-7666349D01*
X-12027240Y-7717439D01*
X-12004251Y-7756661D01*
X-11981292Y-7771676D01*
X-11958744Y-7763676D01*
X-11936984Y-7733853D01*
X-11916391Y-7683397D01*
X-11897344Y-7613500D01*
X-11880222Y-7525354D01*
X-11865402Y-7420149D01*
X-11853264Y-7299077D01*
X-11844185Y-7163330D01*
X-11842904Y-7137400D01*
X-11835659Y-7002236D01*
X-11827206Y-6890047D01*
X-11816752Y-6798410D01*
X-11803503Y-6724903D01*
X-11786663Y-6667103D01*
X-11765438Y-6622589D01*
X-11739035Y-6588937D01*
X-11706658Y-6563726D01*
X-11667513Y-6544533D01*
X-11645900Y-6536685D01*
X-11574717Y-6517666D01*
X-11486650Y-6501306D01*
X-11390165Y-6488660D01*
X-11293726Y-6480784D01*
X-11205800Y-6478730D01*
X-11185135Y-6479290D01*
X-11125848Y-6482272D01*
X-11086442Y-6486322D01*
X-11061397Y-6492657D01*
X-11045195Y-6502497D01*
X-11036114Y-6512176D01*
X-11021224Y-6540028D01*
X-11007626Y-6585571D01*
X-10995297Y-6649370D01*
X-10984212Y-6731992D01*
X-10974348Y-6834003D01*
X-10965683Y-6955967D01*
X-10958192Y-7098451D01*
X-10951853Y-7262020D01*
X-10946642Y-7447241D01*
X-10942535Y-7654678D01*
X-10939510Y-7884898D01*
X-10937544Y-8138466D01*
X-10936611Y-8415949D01*
X-10936690Y-8717911D01*
X-10937206Y-8908978D01*
X-10941050Y-10001107D01*
X-11099800Y-10035715D01*
X-11210814Y-10058941D01*
X-11301062Y-10075440D01*
X-11374152Y-10085627D01*
X-11433693Y-10089918D01*
X-11483295Y-10088725D01*
X-11519215Y-10083923D01*
X-11595973Y-10059747D01*
X-11659576Y-10017568D01*
X-11711186Y-9955943D01*
X-11751965Y-9873427D01*
X-11783074Y-9768576D01*
X-11786927Y-9751076D01*
X-11794893Y-9708326D01*
X-11801574Y-9659877D01*
X-11807219Y-9602309D01*
X-11812074Y-9532199D01*
X-11816385Y-9446129D01*
X-11820400Y-9340675D01*
X-11823401Y-9245600D01*
X-11828140Y-9104575D01*
X-11833359Y-8987451D01*
X-11839184Y-8892729D01*
X-11845742Y-8818911D01*
X-11853162Y-8764501D01*
X-11861569Y-8727999D01*
X-11868758Y-8711217D01*
X-11885851Y-8698911D01*
X-11905613Y-8710226D01*
X-11926352Y-8743759D01*
X-11935969Y-8766835D01*
X-11954510Y-8825472D01*
X-11974651Y-8906720D01*
X-11996494Y-9011100D01*
X-12020140Y-9139138D01*
X-12045691Y-9291354D01*
X-12073247Y-9468273D01*
X-12077952Y-9499600D01*
X-12092551Y-9595731D01*
X-12106979Y-9687959D01*
X-12120536Y-9772004D01*
X-12132518Y-9843587D01*
X-12142225Y-9898429D01*
X-12148761Y-9931400D01*
X-12176281Y-10022403D01*
X-12213482Y-10091160D01*
X-12261749Y-10139434D01*
X-12322466Y-10168985D01*
X-12339033Y-10173484D01*
X-12384170Y-10180943D01*
X-12445091Y-10186710D01*
X-12514227Y-10190536D01*
X-12584009Y-10192175D01*
X-12646867Y-10191377D01*
X-12695231Y-10187897D01*
X-12709307Y-10185596D01*
X-12774878Y-10166561D01*
X-12826295Y-10141550D01*
X-12858928Y-10113078D01*
X-12866021Y-10100430D01*
X-12874322Y-10065539D01*
X-12882098Y-10007190D01*
X-12889333Y-9927319D01*
X-12896014Y-9827861D01*
X-12902128Y-9710754D01*
X-12907659Y-9577933D01*
X-12912595Y-9431334D01*
X-12916921Y-9272894D01*
X-12920624Y-9104550D01*
X-12923690Y-8928236D01*
X-12926105Y-8745890D01*
X-12927855Y-8559448D01*
X-12928926Y-8370846D01*
X-12929304Y-8182020D01*
X-12928976Y-7994906D01*
X-12927928Y-7811441D01*
X-12926145Y-7633561D01*
X-12923615Y-7463202D01*
X-12920323Y-7302301D01*
X-12916255Y-7152793D01*
X-12911397Y-7016615D01*
X-12905736Y-6895703D01*
X-12899258Y-6791993D01*
X-12891949Y-6707422D01*
X-12890395Y-6693058D01*
X-12880033Y-6624375D01*
X-12864867Y-6575135D01*
X-12841627Y-6539429D01*
X-12807042Y-6511346D01*
X-12781831Y-6496921D01*
X-12756049Y-6485319D01*
X-12727488Y-6477654D01*
X-12690271Y-6473163D01*
X-12638521Y-6471086D01*
X-12579083Y-6470650D01*
X-12513506Y-6470987D01*
G37*
G04 #@! TD.AperFunction*
X-10241923Y-6512091D02*
X-10229255Y-6515252D01*
X-10170935Y-6528962D01*
X-10111720Y-6540067D01*
X-10048181Y-6548814D01*
X-9976889Y-6555448D01*
X-9894412Y-6560216D01*
X-9797321Y-6563364D01*
X-9682185Y-6565137D01*
X-9545575Y-6565781D01*
X-9524494Y-6565795D01*
X-9387205Y-6566406D01*
X-9272784Y-6568589D01*
X-9178715Y-6572993D01*
X-9102484Y-6580268D01*
X-9041575Y-6591062D01*
X-8993474Y-6606023D01*
X-8955663Y-6625800D01*
X-8925630Y-6651043D01*
X-8900857Y-6682399D01*
X-8878830Y-6720517D01*
X-8872039Y-6734069D01*
X-8851617Y-6790144D01*
X-8832816Y-6871350D01*
X-8815650Y-6977469D01*
X-8800138Y-7108281D01*
X-8786296Y-7263569D01*
X-8774139Y-7443114D01*
X-8763686Y-7646698D01*
X-8754953Y-7874101D01*
X-8747956Y-8125106D01*
X-8742712Y-8399495D01*
X-8742127Y-8439150D01*
X-8739902Y-8673600D01*
X-8740137Y-8889336D01*
X-8742790Y-9085569D01*
X-8747822Y-9261509D01*
X-8755191Y-9416365D01*
X-8764856Y-9549350D01*
X-8776778Y-9659672D01*
X-8790915Y-9746542D01*
X-8807226Y-9809171D01*
X-8813536Y-9825435D01*
X-8857104Y-9894366D01*
X-8923688Y-9957555D01*
X-9011411Y-10014294D01*
X-9118392Y-10063878D01*
X-9242755Y-10105601D01*
X-9382619Y-10138757D01*
X-9536106Y-10162640D01*
X-9701338Y-10176544D01*
X-9753600Y-10178685D01*
X-9826842Y-10179794D01*
X-9900152Y-10178885D01*
X-9965105Y-10176181D01*
X-10013274Y-10171905D01*
X-10013950Y-10171813D01*
X-10151197Y-10145958D01*
X-10273463Y-10108667D01*
X-10378662Y-10060993D01*
X-10464710Y-10003989D01*
X-10529519Y-9938709D01*
X-10556330Y-9897883D01*
X-10571304Y-9867153D01*
X-10583913Y-9832764D01*
X-10594825Y-9791137D01*
X-10604710Y-9738686D01*
X-10614239Y-9671832D01*
X-10624080Y-9586990D01*
X-10634903Y-9480578D01*
X-10635524Y-9474200D01*
X-10660312Y-9190092D01*
X-10681526Y-8887415D01*
X-10698859Y-8572785D01*
X-10711668Y-8260931D01*
X-9853151Y-8260931D01*
X-9852402Y-8458883D01*
X-9849201Y-8643669D01*
X-9843634Y-8813303D01*
X-9835785Y-8965798D01*
X-9825741Y-9099167D01*
X-9813585Y-9211423D01*
X-9799404Y-9300580D01*
X-9797553Y-9309710D01*
X-9783754Y-9342620D01*
X-9759699Y-9374791D01*
X-9732074Y-9399120D01*
X-9707565Y-9408506D01*
X-9704807Y-9408231D01*
X-9687342Y-9395274D01*
X-9666419Y-9366624D01*
X-9655801Y-9347200D01*
X-9637653Y-9295968D01*
X-9621431Y-9222274D01*
X-9607188Y-9128986D01*
X-9594974Y-9018973D01*
X-9584840Y-8895104D01*
X-9576837Y-8760246D01*
X-9571015Y-8617268D01*
X-9567426Y-8469039D01*
X-9566120Y-8318427D01*
X-9567149Y-8168301D01*
X-9570563Y-8021529D01*
X-9576414Y-7880979D01*
X-9584751Y-7749520D01*
X-9595627Y-7630020D01*
X-9609091Y-7525349D01*
X-9622172Y-7452251D01*
X-9642727Y-7372313D01*
X-9665755Y-7317383D01*
X-9691647Y-7287150D01*
X-9720794Y-7281307D01*
X-9753588Y-7299545D01*
X-9780064Y-7327900D01*
X-9794356Y-7348773D01*
X-9806448Y-7374070D01*
X-9816563Y-7406049D01*
X-9824923Y-7446969D01*
X-9831751Y-7499089D01*
X-9837269Y-7564668D01*
X-9841700Y-7645965D01*
X-9845267Y-7745238D01*
X-9848191Y-7864748D01*
X-9850695Y-8006753D01*
X-9851365Y-8051800D01*
X-9853151Y-8260931D01*
X-10711668Y-8260931D01*
X-10712001Y-8252824D01*
X-10720645Y-7934149D01*
X-10724480Y-7623379D01*
X-10724643Y-7562850D01*
X-10724590Y-7421628D01*
X-10723940Y-7303001D01*
X-10722415Y-7204165D01*
X-10719737Y-7122315D01*
X-10715627Y-7054647D01*
X-10709809Y-6998359D01*
X-10702004Y-6950645D01*
X-10691934Y-6908703D01*
X-10679322Y-6869728D01*
X-10663889Y-6830917D01*
X-10648715Y-6796768D01*
X-10617918Y-6738999D01*
X-10578131Y-6677739D01*
X-10534385Y-6619690D01*
X-10491712Y-6571557D01*
X-10456881Y-6541208D01*
X-10408538Y-6513293D01*
X-10361673Y-6499715D01*
X-10308673Y-6499603D01*
X-10241923Y-6512091D01*
G04 #@! TA.AperFunction,EtchedComponent*
G36*
X-10241923Y-6512091D02*
G01*
X-10229255Y-6515252D01*
X-10170935Y-6528962D01*
X-10111720Y-6540067D01*
X-10048181Y-6548814D01*
X-9976889Y-6555448D01*
X-9894412Y-6560216D01*
X-9797321Y-6563364D01*
X-9682185Y-6565137D01*
X-9545575Y-6565781D01*
X-9524494Y-6565795D01*
X-9387205Y-6566406D01*
X-9272784Y-6568589D01*
X-9178715Y-6572993D01*
X-9102484Y-6580268D01*
X-9041575Y-6591062D01*
X-8993474Y-6606023D01*
X-8955663Y-6625800D01*
X-8925630Y-6651043D01*
X-8900857Y-6682399D01*
X-8878830Y-6720517D01*
X-8872039Y-6734069D01*
X-8851617Y-6790144D01*
X-8832816Y-6871350D01*
X-8815650Y-6977469D01*
X-8800138Y-7108281D01*
X-8786296Y-7263569D01*
X-8774139Y-7443114D01*
X-8763686Y-7646698D01*
X-8754953Y-7874101D01*
X-8747956Y-8125106D01*
X-8742712Y-8399495D01*
X-8742127Y-8439150D01*
X-8739902Y-8673600D01*
X-8740137Y-8889336D01*
X-8742790Y-9085569D01*
X-8747822Y-9261509D01*
X-8755191Y-9416365D01*
X-8764856Y-9549350D01*
X-8776778Y-9659672D01*
X-8790915Y-9746542D01*
X-8807226Y-9809171D01*
X-8813536Y-9825435D01*
X-8857104Y-9894366D01*
X-8923688Y-9957555D01*
X-9011411Y-10014294D01*
X-9118392Y-10063878D01*
X-9242755Y-10105601D01*
X-9382619Y-10138757D01*
X-9536106Y-10162640D01*
X-9701338Y-10176544D01*
X-9753600Y-10178685D01*
X-9826842Y-10179794D01*
X-9900152Y-10178885D01*
X-9965105Y-10176181D01*
X-10013274Y-10171905D01*
X-10013950Y-10171813D01*
X-10151197Y-10145958D01*
X-10273463Y-10108667D01*
X-10378662Y-10060993D01*
X-10464710Y-10003989D01*
X-10529519Y-9938709D01*
X-10556330Y-9897883D01*
X-10571304Y-9867153D01*
X-10583913Y-9832764D01*
X-10594825Y-9791137D01*
X-10604710Y-9738686D01*
X-10614239Y-9671832D01*
X-10624080Y-9586990D01*
X-10634903Y-9480578D01*
X-10635524Y-9474200D01*
X-10660312Y-9190092D01*
X-10681526Y-8887415D01*
X-10698859Y-8572785D01*
X-10711668Y-8260931D01*
X-9853151Y-8260931D01*
X-9852402Y-8458883D01*
X-9849201Y-8643669D01*
X-9843634Y-8813303D01*
X-9835785Y-8965798D01*
X-9825741Y-9099167D01*
X-9813585Y-9211423D01*
X-9799404Y-9300580D01*
X-9797553Y-9309710D01*
X-9783754Y-9342620D01*
X-9759699Y-9374791D01*
X-9732074Y-9399120D01*
X-9707565Y-9408506D01*
X-9704807Y-9408231D01*
X-9687342Y-9395274D01*
X-9666419Y-9366624D01*
X-9655801Y-9347200D01*
X-9637653Y-9295968D01*
X-9621431Y-9222274D01*
X-9607188Y-9128986D01*
X-9594974Y-9018973D01*
X-9584840Y-8895104D01*
X-9576837Y-8760246D01*
X-9571015Y-8617268D01*
X-9567426Y-8469039D01*
X-9566120Y-8318427D01*
X-9567149Y-8168301D01*
X-9570563Y-8021529D01*
X-9576414Y-7880979D01*
X-9584751Y-7749520D01*
X-9595627Y-7630020D01*
X-9609091Y-7525349D01*
X-9622172Y-7452251D01*
X-9642727Y-7372313D01*
X-9665755Y-7317383D01*
X-9691647Y-7287150D01*
X-9720794Y-7281307D01*
X-9753588Y-7299545D01*
X-9780064Y-7327900D01*
X-9794356Y-7348773D01*
X-9806448Y-7374070D01*
X-9816563Y-7406049D01*
X-9824923Y-7446969D01*
X-9831751Y-7499089D01*
X-9837269Y-7564668D01*
X-9841700Y-7645965D01*
X-9845267Y-7745238D01*
X-9848191Y-7864748D01*
X-9850695Y-8006753D01*
X-9851365Y-8051800D01*
X-9853151Y-8260931D01*
X-10711668Y-8260931D01*
X-10712001Y-8252824D01*
X-10720645Y-7934149D01*
X-10724480Y-7623379D01*
X-10724643Y-7562850D01*
X-10724590Y-7421628D01*
X-10723940Y-7303001D01*
X-10722415Y-7204165D01*
X-10719737Y-7122315D01*
X-10715627Y-7054647D01*
X-10709809Y-6998359D01*
X-10702004Y-6950645D01*
X-10691934Y-6908703D01*
X-10679322Y-6869728D01*
X-10663889Y-6830917D01*
X-10648715Y-6796768D01*
X-10617918Y-6738999D01*
X-10578131Y-6677739D01*
X-10534385Y-6619690D01*
X-10491712Y-6571557D01*
X-10456881Y-6541208D01*
X-10408538Y-6513293D01*
X-10361673Y-6499715D01*
X-10308673Y-6499603D01*
X-10241923Y-6512091D01*
G37*
G04 #@! TD.AperFunction*
X-4125446Y-6508140D02*
X-4026941Y-6517430D01*
X-3944031Y-6532602D01*
X-3879853Y-6553984D01*
X-3843082Y-6576661D01*
X-3812545Y-6616875D01*
X-3784335Y-6682102D01*
X-3758568Y-6772055D01*
X-3750603Y-6807200D01*
X-3742926Y-6847582D01*
X-3737080Y-6890639D01*
X-3732841Y-6940470D01*
X-3729988Y-7001171D01*
X-3728297Y-7076839D01*
X-3727545Y-7171571D01*
X-3727450Y-7232650D01*
X-3727831Y-7344519D01*
X-3729303Y-7434254D01*
X-3732357Y-7505114D01*
X-3737489Y-7560359D01*
X-3745189Y-7603247D01*
X-3755952Y-7637038D01*
X-3770270Y-7664990D01*
X-3788636Y-7690363D01*
X-3798427Y-7701892D01*
X-3849694Y-7742872D01*
X-3918938Y-7772422D01*
X-4000541Y-7788513D01*
X-4044950Y-7790882D01*
X-4113281Y-7783965D01*
X-4173906Y-7760611D01*
X-4230981Y-7718297D01*
X-4288666Y-7654497D01*
X-4305159Y-7632891D01*
X-4368584Y-7554129D01*
X-4425048Y-7498169D01*
X-4474132Y-7465309D01*
X-4515418Y-7455846D01*
X-4541524Y-7464619D01*
X-4562425Y-7484761D01*
X-4576767Y-7515163D01*
X-4585423Y-7559816D01*
X-4589270Y-7622707D01*
X-4589533Y-7683500D01*
X-4584284Y-7795249D01*
X-4571325Y-7889040D01*
X-4551099Y-7962865D01*
X-4524048Y-8014720D01*
X-4513970Y-8026400D01*
X-4498177Y-8040732D01*
X-4481545Y-8049760D01*
X-4458287Y-8054502D01*
X-4422616Y-8055973D01*
X-4368744Y-8055190D01*
X-4352417Y-8054779D01*
X-4267654Y-8055755D01*
X-4202529Y-8065125D01*
X-4152057Y-8085052D01*
X-4111250Y-8117702D01*
X-4075123Y-8165240D01*
X-4066776Y-8178800D01*
X-4028570Y-8253101D01*
X-3997917Y-8333021D01*
X-3975786Y-8413566D01*
X-3963144Y-8489744D01*
X-3960958Y-8556560D01*
X-3970198Y-8609021D01*
X-3979596Y-8628602D01*
X-4004750Y-8658677D01*
X-4038206Y-8681861D01*
X-4083580Y-8699273D01*
X-4144488Y-8712030D01*
X-4224545Y-8721250D01*
X-4295455Y-8726291D01*
X-4391451Y-8733077D01*
X-4465135Y-8742746D01*
X-4519438Y-8758434D01*
X-4557293Y-8783276D01*
X-4581629Y-8820408D01*
X-4595378Y-8872965D01*
X-4601472Y-8944084D01*
X-4602841Y-9036900D01*
X-4602815Y-9055100D01*
X-4601130Y-9151503D01*
X-4596152Y-9226691D01*
X-4587160Y-9284717D01*
X-4573436Y-9329636D01*
X-4554260Y-9365500D01*
X-4545636Y-9377292D01*
X-4516538Y-9403919D01*
X-4485285Y-9410798D01*
X-4450463Y-9397085D01*
X-4410664Y-9361931D01*
X-4364475Y-9304492D01*
X-4323243Y-9243888D01*
X-4272275Y-9170167D01*
X-4226246Y-9116968D01*
X-4180546Y-9081275D01*
X-4130566Y-9060074D01*
X-4071698Y-9050347D01*
X-4024963Y-9048750D01*
X-3946298Y-9054945D01*
X-3885379Y-9075629D01*
X-3837226Y-9113947D01*
X-3796858Y-9173044D01*
X-3782344Y-9201987D01*
X-3754159Y-9276004D01*
X-3728614Y-9369039D01*
X-3706623Y-9474770D01*
X-3689101Y-9586874D01*
X-3676960Y-9699029D01*
X-3671115Y-9804912D01*
X-3672479Y-9898201D01*
X-3676047Y-9937317D01*
X-3684460Y-9981013D01*
X-3699384Y-10016883D01*
X-3723320Y-10046003D01*
X-3758773Y-10069449D01*
X-3808246Y-10088296D01*
X-3874243Y-10103621D01*
X-3959266Y-10116501D01*
X-4065820Y-10128010D01*
X-4133850Y-10134090D01*
X-4190211Y-10137615D01*
X-4265574Y-10140469D01*
X-4355708Y-10142652D01*
X-4456381Y-10144162D01*
X-4563362Y-10145001D01*
X-4672420Y-10145168D01*
X-4779321Y-10144663D01*
X-4879835Y-10143487D01*
X-4969730Y-10141638D01*
X-5044773Y-10139116D01*
X-5100734Y-10135923D01*
X-5119931Y-10134110D01*
X-5206379Y-10122659D01*
X-5271350Y-10110522D01*
X-5318763Y-10096528D01*
X-5352537Y-10079504D01*
X-5376590Y-10058277D01*
X-5377667Y-10057015D01*
X-5396248Y-10029683D01*
X-5412741Y-9993498D01*
X-5427249Y-9947079D01*
X-5439876Y-9889044D01*
X-5450727Y-9818013D01*
X-5459907Y-9732604D01*
X-5467521Y-9631436D01*
X-5473672Y-9513127D01*
X-5478465Y-9376297D01*
X-5482005Y-9219564D01*
X-5484396Y-9041546D01*
X-5485743Y-8840863D01*
X-5486151Y-8623300D01*
X-5485363Y-8361119D01*
X-5483035Y-8115424D01*
X-5479210Y-7887013D01*
X-5473932Y-7676680D01*
X-5467245Y-7485223D01*
X-5459193Y-7313437D01*
X-5449821Y-7162121D01*
X-5439171Y-7032069D01*
X-5427288Y-6924079D01*
X-5414216Y-6838947D01*
X-5399999Y-6777469D01*
X-5384681Y-6740442D01*
X-5382061Y-6736751D01*
X-5341101Y-6700899D01*
X-5278092Y-6667014D01*
X-5196171Y-6635422D01*
X-5098475Y-6606450D01*
X-4988141Y-6580423D01*
X-4868305Y-6557670D01*
X-4742106Y-6538515D01*
X-4612680Y-6523284D01*
X-4483164Y-6512306D01*
X-4356695Y-6505904D01*
X-4236410Y-6504407D01*
X-4125446Y-6508140D01*
G04 #@! TA.AperFunction,EtchedComponent*
G36*
X-4125446Y-6508140D02*
G01*
X-4026941Y-6517430D01*
X-3944031Y-6532602D01*
X-3879853Y-6553984D01*
X-3843082Y-6576661D01*
X-3812545Y-6616875D01*
X-3784335Y-6682102D01*
X-3758568Y-6772055D01*
X-3750603Y-6807200D01*
X-3742926Y-6847582D01*
X-3737080Y-6890639D01*
X-3732841Y-6940470D01*
X-3729988Y-7001171D01*
X-3728297Y-7076839D01*
X-3727545Y-7171571D01*
X-3727450Y-7232650D01*
X-3727831Y-7344519D01*
X-3729303Y-7434254D01*
X-3732357Y-7505114D01*
X-3737489Y-7560359D01*
X-3745189Y-7603247D01*
X-3755952Y-7637038D01*
X-3770270Y-7664990D01*
X-3788636Y-7690363D01*
X-3798427Y-7701892D01*
X-3849694Y-7742872D01*
X-3918938Y-7772422D01*
X-4000541Y-7788513D01*
X-4044950Y-7790882D01*
X-4113281Y-7783965D01*
X-4173906Y-7760611D01*
X-4230981Y-7718297D01*
X-4288666Y-7654497D01*
X-4305159Y-7632891D01*
X-4368584Y-7554129D01*
X-4425048Y-7498169D01*
X-4474132Y-7465309D01*
X-4515418Y-7455846D01*
X-4541524Y-7464619D01*
X-4562425Y-7484761D01*
X-4576767Y-7515163D01*
X-4585423Y-7559816D01*
X-4589270Y-7622707D01*
X-4589533Y-7683500D01*
X-4584284Y-7795249D01*
X-4571325Y-7889040D01*
X-4551099Y-7962865D01*
X-4524048Y-8014720D01*
X-4513970Y-8026400D01*
X-4498177Y-8040732D01*
X-4481545Y-8049760D01*
X-4458287Y-8054502D01*
X-4422616Y-8055973D01*
X-4368744Y-8055190D01*
X-4352417Y-8054779D01*
X-4267654Y-8055755D01*
X-4202529Y-8065125D01*
X-4152057Y-8085052D01*
X-4111250Y-8117702D01*
X-4075123Y-8165240D01*
X-4066776Y-8178800D01*
X-4028570Y-8253101D01*
X-3997917Y-8333021D01*
X-3975786Y-8413566D01*
X-3963144Y-8489744D01*
X-3960958Y-8556560D01*
X-3970198Y-8609021D01*
X-3979596Y-8628602D01*
X-4004750Y-8658677D01*
X-4038206Y-8681861D01*
X-4083580Y-8699273D01*
X-4144488Y-8712030D01*
X-4224545Y-8721250D01*
X-4295455Y-8726291D01*
X-4391451Y-8733077D01*
X-4465135Y-8742746D01*
X-4519438Y-8758434D01*
X-4557293Y-8783276D01*
X-4581629Y-8820408D01*
X-4595378Y-8872965D01*
X-4601472Y-8944084D01*
X-4602841Y-9036900D01*
X-4602815Y-9055100D01*
X-4601130Y-9151503D01*
X-4596152Y-9226691D01*
X-4587160Y-9284717D01*
X-4573436Y-9329636D01*
X-4554260Y-9365500D01*
X-4545636Y-9377292D01*
X-4516538Y-9403919D01*
X-4485285Y-9410798D01*
X-4450463Y-9397085D01*
X-4410664Y-9361931D01*
X-4364475Y-9304492D01*
X-4323243Y-9243888D01*
X-4272275Y-9170167D01*
X-4226246Y-9116968D01*
X-4180546Y-9081275D01*
X-4130566Y-9060074D01*
X-4071698Y-9050347D01*
X-4024963Y-9048750D01*
X-3946298Y-9054945D01*
X-3885379Y-9075629D01*
X-3837226Y-9113947D01*
X-3796858Y-9173044D01*
X-3782344Y-9201987D01*
X-3754159Y-9276004D01*
X-3728614Y-9369039D01*
X-3706623Y-9474770D01*
X-3689101Y-9586874D01*
X-3676960Y-9699029D01*
X-3671115Y-9804912D01*
X-3672479Y-9898201D01*
X-3676047Y-9937317D01*
X-3684460Y-9981013D01*
X-3699384Y-10016883D01*
X-3723320Y-10046003D01*
X-3758773Y-10069449D01*
X-3808246Y-10088296D01*
X-3874243Y-10103621D01*
X-3959266Y-10116501D01*
X-4065820Y-10128010D01*
X-4133850Y-10134090D01*
X-4190211Y-10137615D01*
X-4265574Y-10140469D01*
X-4355708Y-10142652D01*
X-4456381Y-10144162D01*
X-4563362Y-10145001D01*
X-4672420Y-10145168D01*
X-4779321Y-10144663D01*
X-4879835Y-10143487D01*
X-4969730Y-10141638D01*
X-5044773Y-10139116D01*
X-5100734Y-10135923D01*
X-5119931Y-10134110D01*
X-5206379Y-10122659D01*
X-5271350Y-10110522D01*
X-5318763Y-10096528D01*
X-5352537Y-10079504D01*
X-5376590Y-10058277D01*
X-5377667Y-10057015D01*
X-5396248Y-10029683D01*
X-5412741Y-9993498D01*
X-5427249Y-9947079D01*
X-5439876Y-9889044D01*
X-5450727Y-9818013D01*
X-5459907Y-9732604D01*
X-5467521Y-9631436D01*
X-5473672Y-9513127D01*
X-5478465Y-9376297D01*
X-5482005Y-9219564D01*
X-5484396Y-9041546D01*
X-5485743Y-8840863D01*
X-5486151Y-8623300D01*
X-5485363Y-8361119D01*
X-5483035Y-8115424D01*
X-5479210Y-7887013D01*
X-5473932Y-7676680D01*
X-5467245Y-7485223D01*
X-5459193Y-7313437D01*
X-5449821Y-7162121D01*
X-5439171Y-7032069D01*
X-5427288Y-6924079D01*
X-5414216Y-6838947D01*
X-5399999Y-6777469D01*
X-5384681Y-6740442D01*
X-5382061Y-6736751D01*
X-5341101Y-6700899D01*
X-5278092Y-6667014D01*
X-5196171Y-6635422D01*
X-5098475Y-6606450D01*
X-4988141Y-6580423D01*
X-4868305Y-6557670D01*
X-4742106Y-6538515D01*
X-4612680Y-6523284D01*
X-4483164Y-6512306D01*
X-4356695Y-6505904D01*
X-4236410Y-6504407D01*
X-4125446Y-6508140D01*
G37*
G04 #@! TD.AperFunction*
X-8064500Y-6559651D02*
X-7964444Y-6560468D01*
X-7884429Y-6563065D01*
X-7819138Y-6567801D01*
X-7763251Y-6575037D01*
X-7721600Y-6582898D01*
X-7659667Y-6596601D01*
X-7609672Y-6609858D01*
X-7568018Y-6625337D01*
X-7531108Y-6645707D01*
X-7495346Y-6673635D01*
X-7457135Y-6711789D01*
X-7412878Y-6762839D01*
X-7358980Y-6829451D01*
X-7315835Y-6883925D01*
X-7261380Y-6951944D01*
X-7209239Y-7015392D01*
X-7162407Y-7070752D01*
X-7123879Y-7114511D01*
X-7096650Y-7143150D01*
X-7089373Y-7149768D01*
X-7026554Y-7190805D01*
X-6966427Y-7207683D01*
X-6908573Y-7200185D01*
X-6852571Y-7168095D01*
X-6798001Y-7111198D01*
X-6744442Y-7029278D01*
X-6705248Y-6952494D01*
X-6651674Y-6852235D01*
X-6593121Y-6773015D01*
X-6525632Y-6710493D01*
X-6445247Y-6660328D01*
X-6433357Y-6654347D01*
X-6376280Y-6630686D01*
X-6308170Y-6608906D01*
X-6238454Y-6591488D01*
X-6176561Y-6580917D01*
X-6146800Y-6578891D01*
X-6072093Y-6590629D01*
X-6003634Y-6624258D01*
X-5967144Y-6655353D01*
X-5940603Y-6688386D01*
X-5916878Y-6729648D01*
X-5895868Y-6780386D01*
X-5877474Y-6841848D01*
X-5861594Y-6915282D01*
X-5848129Y-7001936D01*
X-5836978Y-7103057D01*
X-5828040Y-7219894D01*
X-5821214Y-7353694D01*
X-5816401Y-7505705D01*
X-5813500Y-7677176D01*
X-5812409Y-7869353D01*
X-5813030Y-8083485D01*
X-5815260Y-8320820D01*
X-5817841Y-8509000D01*
X-5821524Y-8736251D01*
X-5825346Y-8939525D01*
X-5829419Y-9120244D01*
X-5833856Y-9279832D01*
X-5838769Y-9419711D01*
X-5844271Y-9541303D01*
X-5850475Y-9646032D01*
X-5857494Y-9735320D01*
X-5865439Y-9810590D01*
X-5874424Y-9873264D01*
X-5884562Y-9924766D01*
X-5895964Y-9966518D01*
X-5908745Y-9999943D01*
X-5923016Y-10026464D01*
X-5938889Y-10047503D01*
X-5939752Y-10048463D01*
X-5971481Y-10069479D01*
X-6019534Y-10085446D01*
X-6076460Y-10095632D01*
X-6134805Y-10099302D01*
X-6187118Y-10095724D01*
X-6225945Y-10084165D01*
X-6235575Y-10077563D01*
X-6257812Y-10042451D01*
X-6273817Y-9983407D01*
X-6283456Y-9901156D01*
X-6286596Y-9800599D01*
X-6290021Y-9681476D01*
X-6300159Y-9586743D01*
X-6317095Y-9516274D01*
X-6340917Y-9469938D01*
X-6371711Y-9447607D01*
X-6409562Y-9449151D01*
X-6454558Y-9474443D01*
X-6486389Y-9502292D01*
X-6514379Y-9533323D01*
X-6551685Y-9579886D01*
X-6593849Y-9636173D01*
X-6636414Y-9696374D01*
X-6645108Y-9709150D01*
X-6713366Y-9807536D01*
X-6772639Y-9886655D01*
X-6825740Y-9949732D01*
X-6875483Y-9999995D01*
X-6924680Y-10040670D01*
X-6949169Y-10057897D01*
X-7017646Y-10095246D01*
X-7077292Y-10109530D01*
X-7129384Y-10100986D01*
X-7143750Y-10093994D01*
X-7207741Y-10049953D01*
X-7270805Y-9990282D01*
X-7334823Y-9912716D01*
X-7401675Y-9814991D01*
X-7468957Y-9702414D01*
X-7527625Y-9604341D01*
X-7579487Y-9528747D01*
X-7624132Y-9476177D01*
X-7660033Y-9447765D01*
X-7685917Y-9442328D01*
X-7710283Y-9455674D01*
X-7733847Y-9489126D01*
X-7757326Y-9544010D01*
X-7781436Y-9621650D01*
X-7805204Y-9716084D01*
X-7828257Y-9808680D01*
X-7850430Y-9879032D01*
X-7874450Y-9930037D01*
X-7903042Y-9964595D01*
X-7938930Y-9985603D01*
X-7984841Y-9995961D01*
X-8043499Y-9998565D01*
X-8070394Y-9998106D01*
X-8141393Y-9994511D01*
X-8221196Y-9987979D01*
X-8293574Y-9979858D01*
X-8299450Y-9979056D01*
X-8413750Y-9963150D01*
X-8454734Y-9124950D01*
X-8464900Y-8907164D01*
X-8474071Y-8690811D01*
X-8482219Y-8477620D01*
X-8489317Y-8269325D01*
X-8495337Y-8067655D01*
X-8500252Y-7874343D01*
X-8504035Y-7691120D01*
X-8506658Y-7519718D01*
X-8508094Y-7361867D01*
X-8508315Y-7219300D01*
X-8507295Y-7093749D01*
X-8505005Y-6986943D01*
X-8501418Y-6900616D01*
X-8496508Y-6836498D01*
X-8491466Y-6801670D01*
X-8473776Y-6728808D01*
X-8453758Y-6675952D01*
X-8428121Y-6637725D01*
X-8393575Y-6608751D01*
X-8362737Y-6591300D01*
X-8339235Y-6580085D01*
X-8317122Y-6571878D01*
X-8292005Y-6566214D01*
X-8259491Y-6562624D01*
X-8215184Y-6560645D01*
X-8154691Y-6559808D01*
X-8073619Y-6559648D01*
X-8064500Y-6559651D01*
G04 #@! TA.AperFunction,EtchedComponent*
G36*
X-8064500Y-6559651D02*
G01*
X-7964444Y-6560468D01*
X-7884429Y-6563065D01*
X-7819138Y-6567801D01*
X-7763251Y-6575037D01*
X-7721600Y-6582898D01*
X-7659667Y-6596601D01*
X-7609672Y-6609858D01*
X-7568018Y-6625337D01*
X-7531108Y-6645707D01*
X-7495346Y-6673635D01*
X-7457135Y-6711789D01*
X-7412878Y-6762839D01*
X-7358980Y-6829451D01*
X-7315835Y-6883925D01*
X-7261380Y-6951944D01*
X-7209239Y-7015392D01*
X-7162407Y-7070752D01*
X-7123879Y-7114511D01*
X-7096650Y-7143150D01*
X-7089373Y-7149768D01*
X-7026554Y-7190805D01*
X-6966427Y-7207683D01*
X-6908573Y-7200185D01*
X-6852571Y-7168095D01*
X-6798001Y-7111198D01*
X-6744442Y-7029278D01*
X-6705248Y-6952494D01*
X-6651674Y-6852235D01*
X-6593121Y-6773015D01*
X-6525632Y-6710493D01*
X-6445247Y-6660328D01*
X-6433357Y-6654347D01*
X-6376280Y-6630686D01*
X-6308170Y-6608906D01*
X-6238454Y-6591488D01*
X-6176561Y-6580917D01*
X-6146800Y-6578891D01*
X-6072093Y-6590629D01*
X-6003634Y-6624258D01*
X-5967144Y-6655353D01*
X-5940603Y-6688386D01*
X-5916878Y-6729648D01*
X-5895868Y-6780386D01*
X-5877474Y-6841848D01*
X-5861594Y-6915282D01*
X-5848129Y-7001936D01*
X-5836978Y-7103057D01*
X-5828040Y-7219894D01*
X-5821214Y-7353694D01*
X-5816401Y-7505705D01*
X-5813500Y-7677176D01*
X-5812409Y-7869353D01*
X-5813030Y-8083485D01*
X-5815260Y-8320820D01*
X-5817841Y-8509000D01*
X-5821524Y-8736251D01*
X-5825346Y-8939525D01*
X-5829419Y-9120244D01*
X-5833856Y-9279832D01*
X-5838769Y-9419711D01*
X-5844271Y-9541303D01*
X-5850475Y-9646032D01*
X-5857494Y-9735320D01*
X-5865439Y-9810590D01*
X-5874424Y-9873264D01*
X-5884562Y-9924766D01*
X-5895964Y-9966518D01*
X-5908745Y-9999943D01*
X-5923016Y-10026464D01*
X-5938889Y-10047503D01*
X-5939752Y-10048463D01*
X-5971481Y-10069479D01*
X-6019534Y-10085446D01*
X-6076460Y-10095632D01*
X-6134805Y-10099302D01*
X-6187118Y-10095724D01*
X-6225945Y-10084165D01*
X-6235575Y-10077563D01*
X-6257812Y-10042451D01*
X-6273817Y-9983407D01*
X-6283456Y-9901156D01*
X-6286596Y-9800599D01*
X-6290021Y-9681476D01*
X-6300159Y-9586743D01*
X-6317095Y-9516274D01*
X-6340917Y-9469938D01*
X-6371711Y-9447607D01*
X-6409562Y-9449151D01*
X-6454558Y-9474443D01*
X-6486389Y-9502292D01*
X-6514379Y-9533323D01*
X-6551685Y-9579886D01*
X-6593849Y-9636173D01*
X-6636414Y-9696374D01*
X-6645108Y-9709150D01*
X-6713366Y-9807536D01*
X-6772639Y-9886655D01*
X-6825740Y-9949732D01*
X-6875483Y-9999995D01*
X-6924680Y-10040670D01*
X-6949169Y-10057897D01*
X-7017646Y-10095246D01*
X-7077292Y-10109530D01*
X-7129384Y-10100986D01*
X-7143750Y-10093994D01*
X-7207741Y-10049953D01*
X-7270805Y-9990282D01*
X-7334823Y-9912716D01*
X-7401675Y-9814991D01*
X-7468957Y-9702414D01*
X-7527625Y-9604341D01*
X-7579487Y-9528747D01*
X-7624132Y-9476177D01*
X-7660033Y-9447765D01*
X-7685917Y-9442328D01*
X-7710283Y-9455674D01*
X-7733847Y-9489126D01*
X-7757326Y-9544010D01*
X-7781436Y-9621650D01*
X-7805204Y-9716084D01*
X-7828257Y-9808680D01*
X-7850430Y-9879032D01*
X-7874450Y-9930037D01*
X-7903042Y-9964595D01*
X-7938930Y-9985603D01*
X-7984841Y-9995961D01*
X-8043499Y-9998565D01*
X-8070394Y-9998106D01*
X-8141393Y-9994511D01*
X-8221196Y-9987979D01*
X-8293574Y-9979858D01*
X-8299450Y-9979056D01*
X-8413750Y-9963150D01*
X-8454734Y-9124950D01*
X-8464900Y-8907164D01*
X-8474071Y-8690811D01*
X-8482219Y-8477620D01*
X-8489317Y-8269325D01*
X-8495337Y-8067655D01*
X-8500252Y-7874343D01*
X-8504035Y-7691120D01*
X-8506658Y-7519718D01*
X-8508094Y-7361867D01*
X-8508315Y-7219300D01*
X-8507295Y-7093749D01*
X-8505005Y-6986943D01*
X-8501418Y-6900616D01*
X-8496508Y-6836498D01*
X-8491466Y-6801670D01*
X-8473776Y-6728808D01*
X-8453758Y-6675952D01*
X-8428121Y-6637725D01*
X-8393575Y-6608751D01*
X-8362737Y-6591300D01*
X-8339235Y-6580085D01*
X-8317122Y-6571878D01*
X-8292005Y-6566214D01*
X-8259491Y-6562624D01*
X-8215184Y-6560645D01*
X-8154691Y-6559808D01*
X-8073619Y-6559648D01*
X-8064500Y-6559651D01*
G37*
G04 #@! TD.AperFunction*
X-1985659Y-6456922D02*
X-1896387Y-6463043D01*
X-1823703Y-6473258D01*
X-1765419Y-6488171D01*
X-1719347Y-6508388D01*
X-1683297Y-6534512D01*
X-1655081Y-6567147D01*
X-1632509Y-6606898D01*
X-1613393Y-6654369D01*
X-1608518Y-6668656D01*
X-1592049Y-6724908D01*
X-1573630Y-6798656D01*
X-1554455Y-6883877D01*
X-1535719Y-6974550D01*
X-1518616Y-7064651D01*
X-1504342Y-7148157D01*
X-1494090Y-7219047D01*
X-1489084Y-7270750D01*
X-1490217Y-7373488D01*
X-1502388Y-7491869D01*
X-1524515Y-7619213D01*
X-1555515Y-7748842D01*
X-1580004Y-7831457D01*
X-1616102Y-7946869D01*
X-1643334Y-8041876D01*
X-1662219Y-8119673D01*
X-1673278Y-8183457D01*
X-1677029Y-8236424D01*
X-1673994Y-8281772D01*
X-1664693Y-8322695D01*
X-1661494Y-8332479D01*
X-1647553Y-8364094D01*
X-1624297Y-8408285D01*
X-1596331Y-8456386D01*
X-1591302Y-8464550D01*
X-1539037Y-8562484D01*
X-1498922Y-8670067D01*
X-1470254Y-8790526D01*
X-1452336Y-8927090D01*
X-1444466Y-9082987D01*
X-1443957Y-9144000D01*
X-1449829Y-9319150D01*
X-1467327Y-9475222D01*
X-1496969Y-9615979D01*
X-1518842Y-9688848D01*
X-1566752Y-9802808D01*
X-1628174Y-9896095D01*
X-1704907Y-9970301D01*
X-1798749Y-10027022D01*
X-1911501Y-10067851D01*
X-1959908Y-10079580D01*
X-1996405Y-10084627D01*
X-2054577Y-10089254D01*
X-2130701Y-10093403D01*
X-2221055Y-10097021D01*
X-2321914Y-10100050D01*
X-2429558Y-10102436D01*
X-2540262Y-10104122D01*
X-2650305Y-10105053D01*
X-2755963Y-10105173D01*
X-2853514Y-10104425D01*
X-2939235Y-10102756D01*
X-3009403Y-10100108D01*
X-3060296Y-10096426D01*
X-3063260Y-10096103D01*
X-3149267Y-10084246D01*
X-3213834Y-10069957D01*
X-3260889Y-10052102D01*
X-3294359Y-10029550D01*
X-3294536Y-10029390D01*
X-3325577Y-10001250D01*
X-3352197Y-9244157D01*
X-2627269Y-9244157D01*
X-2621148Y-9308570D01*
X-2604640Y-9354314D01*
X-2590092Y-9373308D01*
X-2552482Y-9395372D01*
X-2511553Y-9395359D01*
X-2475193Y-9373920D01*
X-2466118Y-9363075D01*
X-2431801Y-9300574D01*
X-2401862Y-9218306D01*
X-2377545Y-9121708D01*
X-2360092Y-9016218D01*
X-2350746Y-8907273D01*
X-2349500Y-8852672D01*
X-2352223Y-8766806D01*
X-2360766Y-8704026D01*
X-2375692Y-8662565D01*
X-2397564Y-8640659D01*
X-2418623Y-8636000D01*
X-2451543Y-8648185D01*
X-2484790Y-8682771D01*
X-2517203Y-8736799D01*
X-2547625Y-8807315D01*
X-2574898Y-8891360D01*
X-2597863Y-8985978D01*
X-2615362Y-9088213D01*
X-2623376Y-9158658D01*
X-2627269Y-9244157D01*
X-3352197Y-9244157D01*
X-3358398Y-9067800D01*
X-3367564Y-8805914D01*
X-3375791Y-8568036D01*
X-3383110Y-8352793D01*
X-3389551Y-8158811D01*
X-3395144Y-7984716D01*
X-3399920Y-7829134D01*
X-3403908Y-7690693D01*
X-3407141Y-7568019D01*
X-3409647Y-7459738D01*
X-3409738Y-7454900D01*
X-2622514Y-7454900D01*
X-2620056Y-7569015D01*
X-2612487Y-7659970D01*
X-2599447Y-7729554D01*
X-2580574Y-7779558D01*
X-2555508Y-7811772D01*
X-2549692Y-7816257D01*
X-2522079Y-7831725D01*
X-2498009Y-7832512D01*
X-2470235Y-7817016D01*
X-2440885Y-7792183D01*
X-2408105Y-7755944D01*
X-2374573Y-7708575D01*
X-2355123Y-7674708D01*
X-2337691Y-7638093D01*
X-2326777Y-7606541D01*
X-2320951Y-7572157D01*
X-2318784Y-7527046D01*
X-2318754Y-7473950D01*
X-2326060Y-7370600D01*
X-2345317Y-7275790D01*
X-2375053Y-7193155D01*
X-2413798Y-7126330D01*
X-2460080Y-7078952D01*
X-2484546Y-7064183D01*
X-2514440Y-7051172D01*
X-2532459Y-7051051D01*
X-2549609Y-7065684D01*
X-2559339Y-7076840D01*
X-2582535Y-7113528D01*
X-2600008Y-7164399D01*
X-2612193Y-7232040D01*
X-2619522Y-7319041D01*
X-2622426Y-7427988D01*
X-2622514Y-7454900D01*
X-3409738Y-7454900D01*
X-3411458Y-7364476D01*
X-3412604Y-7280860D01*
X-3413115Y-7207517D01*
X-3413021Y-7143072D01*
X-3412354Y-7086153D01*
X-3411144Y-7035386D01*
X-3409421Y-6989397D01*
X-3407215Y-6946813D01*
X-3405872Y-6925334D01*
X-3397078Y-6814546D01*
X-3386541Y-6726559D01*
X-3373670Y-6658799D01*
X-3357873Y-6608695D01*
X-3338557Y-6573671D01*
X-3320720Y-6555208D01*
X-3284033Y-6535906D01*
X-3225466Y-6518725D01*
X-3144527Y-6503615D01*
X-3040727Y-6490525D01*
X-2913576Y-6479404D01*
X-2762584Y-6470201D01*
X-2587261Y-6462866D01*
X-2387117Y-6457347D01*
X-2374900Y-6457085D01*
X-2222727Y-6454547D01*
X-2093710Y-6454292D01*
X-1985659Y-6456922D01*
G04 #@! TA.AperFunction,EtchedComponent*
G36*
X-1985659Y-6456922D02*
G01*
X-1896387Y-6463043D01*
X-1823703Y-6473258D01*
X-1765419Y-6488171D01*
X-1719347Y-6508388D01*
X-1683297Y-6534512D01*
X-1655081Y-6567147D01*
X-1632509Y-6606898D01*
X-1613393Y-6654369D01*
X-1608518Y-6668656D01*
X-1592049Y-6724908D01*
X-1573630Y-6798656D01*
X-1554455Y-6883877D01*
X-1535719Y-6974550D01*
X-1518616Y-7064651D01*
X-1504342Y-7148157D01*
X-1494090Y-7219047D01*
X-1489084Y-7270750D01*
X-1490217Y-7373488D01*
X-1502388Y-7491869D01*
X-1524515Y-7619213D01*
X-1555515Y-7748842D01*
X-1580004Y-7831457D01*
X-1616102Y-7946869D01*
X-1643334Y-8041876D01*
X-1662219Y-8119673D01*
X-1673278Y-8183457D01*
X-1677029Y-8236424D01*
X-1673994Y-8281772D01*
X-1664693Y-8322695D01*
X-1661494Y-8332479D01*
X-1647553Y-8364094D01*
X-1624297Y-8408285D01*
X-1596331Y-8456386D01*
X-1591302Y-8464550D01*
X-1539037Y-8562484D01*
X-1498922Y-8670067D01*
X-1470254Y-8790526D01*
X-1452336Y-8927090D01*
X-1444466Y-9082987D01*
X-1443957Y-9144000D01*
X-1449829Y-9319150D01*
X-1467327Y-9475222D01*
X-1496969Y-9615979D01*
X-1518842Y-9688848D01*
X-1566752Y-9802808D01*
X-1628174Y-9896095D01*
X-1704907Y-9970301D01*
X-1798749Y-10027022D01*
X-1911501Y-10067851D01*
X-1959908Y-10079580D01*
X-1996405Y-10084627D01*
X-2054577Y-10089254D01*
X-2130701Y-10093403D01*
X-2221055Y-10097021D01*
X-2321914Y-10100050D01*
X-2429558Y-10102436D01*
X-2540262Y-10104122D01*
X-2650305Y-10105053D01*
X-2755963Y-10105173D01*
X-2853514Y-10104425D01*
X-2939235Y-10102756D01*
X-3009403Y-10100108D01*
X-3060296Y-10096426D01*
X-3063260Y-10096103D01*
X-3149267Y-10084246D01*
X-3213834Y-10069957D01*
X-3260889Y-10052102D01*
X-3294359Y-10029550D01*
X-3294536Y-10029390D01*
X-3325577Y-10001250D01*
X-3352197Y-9244157D01*
X-2627269Y-9244157D01*
X-2621148Y-9308570D01*
X-2604640Y-9354314D01*
X-2590092Y-9373308D01*
X-2552482Y-9395372D01*
X-2511553Y-9395359D01*
X-2475193Y-9373920D01*
X-2466118Y-9363075D01*
X-2431801Y-9300574D01*
X-2401862Y-9218306D01*
X-2377545Y-9121708D01*
X-2360092Y-9016218D01*
X-2350746Y-8907273D01*
X-2349500Y-8852672D01*
X-2352223Y-8766806D01*
X-2360766Y-8704026D01*
X-2375692Y-8662565D01*
X-2397564Y-8640659D01*
X-2418623Y-8636000D01*
X-2451543Y-8648185D01*
X-2484790Y-8682771D01*
X-2517203Y-8736799D01*
X-2547625Y-8807315D01*
X-2574898Y-8891360D01*
X-2597863Y-8985978D01*
X-2615362Y-9088213D01*
X-2623376Y-9158658D01*
X-2627269Y-9244157D01*
X-3352197Y-9244157D01*
X-3358398Y-9067800D01*
X-3367564Y-8805914D01*
X-3375791Y-8568036D01*
X-3383110Y-8352793D01*
X-3389551Y-8158811D01*
X-3395144Y-7984716D01*
X-3399920Y-7829134D01*
X-3403908Y-7690693D01*
X-3407141Y-7568019D01*
X-3409647Y-7459738D01*
X-3409738Y-7454900D01*
X-2622514Y-7454900D01*
X-2620056Y-7569015D01*
X-2612487Y-7659970D01*
X-2599447Y-7729554D01*
X-2580574Y-7779558D01*
X-2555508Y-7811772D01*
X-2549692Y-7816257D01*
X-2522079Y-7831725D01*
X-2498009Y-7832512D01*
X-2470235Y-7817016D01*
X-2440885Y-7792183D01*
X-2408105Y-7755944D01*
X-2374573Y-7708575D01*
X-2355123Y-7674708D01*
X-2337691Y-7638093D01*
X-2326777Y-7606541D01*
X-2320951Y-7572157D01*
X-2318784Y-7527046D01*
X-2318754Y-7473950D01*
X-2326060Y-7370600D01*
X-2345317Y-7275790D01*
X-2375053Y-7193155D01*
X-2413798Y-7126330D01*
X-2460080Y-7078952D01*
X-2484546Y-7064183D01*
X-2514440Y-7051172D01*
X-2532459Y-7051051D01*
X-2549609Y-7065684D01*
X-2559339Y-7076840D01*
X-2582535Y-7113528D01*
X-2600008Y-7164399D01*
X-2612193Y-7232040D01*
X-2619522Y-7319041D01*
X-2622426Y-7427988D01*
X-2622514Y-7454900D01*
X-3409738Y-7454900D01*
X-3411458Y-7364476D01*
X-3412604Y-7280860D01*
X-3413115Y-7207517D01*
X-3413021Y-7143072D01*
X-3412354Y-7086153D01*
X-3411144Y-7035386D01*
X-3409421Y-6989397D01*
X-3407215Y-6946813D01*
X-3405872Y-6925334D01*
X-3397078Y-6814546D01*
X-3386541Y-6726559D01*
X-3373670Y-6658799D01*
X-3357873Y-6608695D01*
X-3338557Y-6573671D01*
X-3320720Y-6555208D01*
X-3284033Y-6535906D01*
X-3225466Y-6518725D01*
X-3144527Y-6503615D01*
X-3040727Y-6490525D01*
X-2913576Y-6479404D01*
X-2762584Y-6470201D01*
X-2587261Y-6462866D01*
X-2387117Y-6457347D01*
X-2374900Y-6457085D01*
X-2222727Y-6454547D01*
X-2093710Y-6454292D01*
X-1985659Y-6456922D01*
G37*
G04 #@! TD.AperFunction*
X163387Y-6366187D02*
X177800Y-6366531D01*
X305561Y-6371061D01*
X411213Y-6378168D01*
X497981Y-6388630D01*
X569091Y-6403223D01*
X627769Y-6422725D01*
X677243Y-6447913D01*
X720737Y-6479562D01*
X746939Y-6503582D01*
X784770Y-6546093D01*
X817513Y-6594972D01*
X845399Y-6651956D01*
X868655Y-6718782D01*
X887511Y-6797187D01*
X902196Y-6888910D01*
X912938Y-6995687D01*
X919966Y-7119256D01*
X923509Y-7261354D01*
X923797Y-7423719D01*
X921058Y-7608088D01*
X916339Y-7789442D01*
X906286Y-8095220D01*
X895274Y-8375914D01*
X883273Y-8631823D01*
X870256Y-8863245D01*
X856194Y-9070479D01*
X841058Y-9253824D01*
X824820Y-9413578D01*
X807451Y-9550040D01*
X788923Y-9663509D01*
X769206Y-9754283D01*
X748273Y-9822662D01*
X726095Y-9868944D01*
X715992Y-9882320D01*
X679320Y-9912075D01*
X626309Y-9937425D01*
X555433Y-9958678D01*
X465163Y-9976138D01*
X353973Y-9990111D01*
X220335Y-10000902D01*
X88900Y-10007761D01*
X-28339Y-10012418D01*
X-127064Y-10015566D01*
X-214117Y-10017205D01*
X-296341Y-10017334D01*
X-380576Y-10015954D01*
X-473666Y-10013064D01*
X-582452Y-10008665D01*
X-603250Y-10007755D01*
X-708670Y-10001191D01*
X-792230Y-9991298D01*
X-857349Y-9977247D01*
X-907443Y-9958208D01*
X-945929Y-9933353D01*
X-958965Y-9921471D01*
X-989063Y-9885891D01*
X-1015938Y-9841720D01*
X-1039799Y-9787476D01*
X-1060854Y-9721676D01*
X-1079311Y-9642839D01*
X-1095379Y-9549481D01*
X-1109266Y-9440121D01*
X-1121180Y-9313277D01*
X-1131330Y-9167466D01*
X-1139924Y-9001206D01*
X-1147170Y-8813015D01*
X-1153276Y-8601411D01*
X-1155079Y-8526106D01*
X-1158584Y-8327784D01*
X-1160176Y-8127062D01*
X-1160159Y-8112929D01*
X-251633Y-8112929D01*
X-251115Y-8243601D01*
X-249908Y-8375432D01*
X-248049Y-8504762D01*
X-245573Y-8627931D01*
X-242517Y-8741281D01*
X-238915Y-8841152D01*
X-234804Y-8923887D01*
X-230221Y-8985825D01*
X-228969Y-8997950D01*
X-219110Y-9079400D01*
X-209802Y-9138752D01*
X-199992Y-9179258D01*
X-188628Y-9204166D01*
X-174657Y-9216730D01*
X-157026Y-9220199D01*
X-157005Y-9220200D01*
X-123374Y-9214693D01*
X-84690Y-9201258D01*
X-80862Y-9199497D01*
X-41167Y-9172278D01*
X-7142Y-9130377D01*
X21295Y-9072841D01*
X44224Y-8998721D01*
X61728Y-8907065D01*
X73888Y-8796921D01*
X80784Y-8667339D01*
X82500Y-8517368D01*
X79116Y-8346056D01*
X70713Y-8152452D01*
X57373Y-7935605D01*
X43429Y-7747639D01*
X30892Y-7604436D01*
X17552Y-7484797D01*
X2980Y-7386890D01*
X-13255Y-7308882D01*
X-31583Y-7248942D01*
X-52434Y-7205235D01*
X-76240Y-7175930D01*
X-93708Y-7163625D01*
X-123255Y-7151675D01*
X-148200Y-7151295D01*
X-169134Y-7164236D01*
X-186648Y-7192250D01*
X-201333Y-7237088D01*
X-213780Y-7300502D01*
X-224580Y-7384244D01*
X-234324Y-7490066D01*
X-242637Y-7604994D01*
X-246101Y-7674994D01*
X-248696Y-7764446D01*
X-250459Y-7869692D01*
X-251426Y-7987072D01*
X-251633Y-8112929D01*
X-1160159Y-8112929D01*
X-1159934Y-7926763D01*
X-1157938Y-7729714D01*
X-1154267Y-7538738D01*
X-1149000Y-7356661D01*
X-1142217Y-7186309D01*
X-1133996Y-7030505D01*
X-1124417Y-6892076D01*
X-1113560Y-6773846D01*
X-1103609Y-6692900D01*
X-1089787Y-6614556D01*
X-1072472Y-6557056D01*
X-1049192Y-6515862D01*
X-1017474Y-6486438D01*
X-980166Y-6466485D01*
X-915501Y-6444842D01*
X-828421Y-6425234D01*
X-721845Y-6407916D01*
X-598697Y-6393138D01*
X-461898Y-6381153D01*
X-314368Y-6372214D01*
X-159030Y-6366571D01*
X1196Y-6364478D01*
X163387Y-6366187D01*
G04 #@! TA.AperFunction,EtchedComponent*
G36*
X163387Y-6366187D02*
G01*
X177800Y-6366531D01*
X305561Y-6371061D01*
X411213Y-6378168D01*
X497981Y-6388630D01*
X569091Y-6403223D01*
X627769Y-6422725D01*
X677243Y-6447913D01*
X720737Y-6479562D01*
X746939Y-6503582D01*
X784770Y-6546093D01*
X817513Y-6594972D01*
X845399Y-6651956D01*
X868655Y-6718782D01*
X887511Y-6797187D01*
X902196Y-6888910D01*
X912938Y-6995687D01*
X919966Y-7119256D01*
X923509Y-7261354D01*
X923797Y-7423719D01*
X921058Y-7608088D01*
X916339Y-7789442D01*
X906286Y-8095220D01*
X895274Y-8375914D01*
X883273Y-8631823D01*
X870256Y-8863245D01*
X856194Y-9070479D01*
X841058Y-9253824D01*
X824820Y-9413578D01*
X807451Y-9550040D01*
X788923Y-9663509D01*
X769206Y-9754283D01*
X748273Y-9822662D01*
X726095Y-9868944D01*
X715992Y-9882320D01*
X679320Y-9912075D01*
X626309Y-9937425D01*
X555433Y-9958678D01*
X465163Y-9976138D01*
X353973Y-9990111D01*
X220335Y-10000902D01*
X88900Y-10007761D01*
X-28339Y-10012418D01*
X-127064Y-10015566D01*
X-214117Y-10017205D01*
X-296341Y-10017334D01*
X-380576Y-10015954D01*
X-473666Y-10013064D01*
X-582452Y-10008665D01*
X-603250Y-10007755D01*
X-708670Y-10001191D01*
X-792230Y-9991298D01*
X-857349Y-9977247D01*
X-907443Y-9958208D01*
X-945929Y-9933353D01*
X-958965Y-9921471D01*
X-989063Y-9885891D01*
X-1015938Y-9841720D01*
X-1039799Y-9787476D01*
X-1060854Y-9721676D01*
X-1079311Y-9642839D01*
X-1095379Y-9549481D01*
X-1109266Y-9440121D01*
X-1121180Y-9313277D01*
X-1131330Y-9167466D01*
X-1139924Y-9001206D01*
X-1147170Y-8813015D01*
X-1153276Y-8601411D01*
X-1155079Y-8526106D01*
X-1158584Y-8327784D01*
X-1160176Y-8127062D01*
X-1160159Y-8112929D01*
X-251633Y-8112929D01*
X-251115Y-8243601D01*
X-249908Y-8375432D01*
X-248049Y-8504762D01*
X-245573Y-8627931D01*
X-242517Y-8741281D01*
X-238915Y-8841152D01*
X-234804Y-8923887D01*
X-230221Y-8985825D01*
X-228969Y-8997950D01*
X-219110Y-9079400D01*
X-209802Y-9138752D01*
X-199992Y-9179258D01*
X-188628Y-9204166D01*
X-174657Y-9216730D01*
X-157026Y-9220199D01*
X-157005Y-9220200D01*
X-123374Y-9214693D01*
X-84690Y-9201258D01*
X-80862Y-9199497D01*
X-41167Y-9172278D01*
X-7142Y-9130377D01*
X21295Y-9072841D01*
X44224Y-8998721D01*
X61728Y-8907065D01*
X73888Y-8796921D01*
X80784Y-8667339D01*
X82500Y-8517368D01*
X79116Y-8346056D01*
X70713Y-8152452D01*
X57373Y-7935605D01*
X43429Y-7747639D01*
X30892Y-7604436D01*
X17552Y-7484797D01*
X2980Y-7386890D01*
X-13255Y-7308882D01*
X-31583Y-7248942D01*
X-52434Y-7205235D01*
X-76240Y-7175930D01*
X-93708Y-7163625D01*
X-123255Y-7151675D01*
X-148200Y-7151295D01*
X-169134Y-7164236D01*
X-186648Y-7192250D01*
X-201333Y-7237088D01*
X-213780Y-7300502D01*
X-224580Y-7384244D01*
X-234324Y-7490066D01*
X-242637Y-7604994D01*
X-246101Y-7674994D01*
X-248696Y-7764446D01*
X-250459Y-7869692D01*
X-251426Y-7987072D01*
X-251633Y-8112929D01*
X-1160159Y-8112929D01*
X-1159934Y-7926763D01*
X-1157938Y-7729714D01*
X-1154267Y-7538738D01*
X-1149000Y-7356661D01*
X-1142217Y-7186309D01*
X-1133996Y-7030505D01*
X-1124417Y-6892076D01*
X-1113560Y-6773846D01*
X-1103609Y-6692900D01*
X-1089787Y-6614556D01*
X-1072472Y-6557056D01*
X-1049192Y-6515862D01*
X-1017474Y-6486438D01*
X-980166Y-6466485D01*
X-915501Y-6444842D01*
X-828421Y-6425234D01*
X-721845Y-6407916D01*
X-598697Y-6393138D01*
X-461898Y-6381153D01*
X-314368Y-6372214D01*
X-159030Y-6366571D01*
X1196Y-6364478D01*
X163387Y-6366187D01*
G37*
G04 #@! TD.AperFunction*
X3880943Y-6191517D02*
X3914197Y-6198108D01*
X3965276Y-6222260D01*
X3997523Y-6262027D01*
X4012074Y-6319095D01*
X4013200Y-6345072D01*
X4010014Y-6388012D01*
X3999858Y-6436975D01*
X3981827Y-6493959D01*
X3955019Y-6560957D01*
X3918533Y-6639965D01*
X3871465Y-6732980D01*
X3812914Y-6841995D01*
X3741976Y-6969007D01*
X3689254Y-7061366D01*
X3621776Y-7179340D01*
X3562474Y-7285174D01*
X3510755Y-7381383D01*
X3466021Y-7470484D01*
X3427679Y-7554991D01*
X3395132Y-7637421D01*
X3367786Y-7720290D01*
X3345046Y-7806112D01*
X3326316Y-7897405D01*
X3311001Y-7996683D01*
X3298506Y-8106463D01*
X3288235Y-8229260D01*
X3279594Y-8367591D01*
X3271987Y-8523969D01*
X3264819Y-8700913D01*
X3258114Y-8883650D01*
X3251434Y-9068083D01*
X3245485Y-9228223D01*
X3240217Y-9365164D01*
X3235583Y-9480001D01*
X3231532Y-9573828D01*
X3228015Y-9647740D01*
X3224984Y-9702832D01*
X3222390Y-9740198D01*
X3220183Y-9760933D01*
X3218579Y-9766300D01*
X3205593Y-9768685D01*
X3170321Y-9775497D01*
X3115391Y-9786219D01*
X3043430Y-9800336D01*
X2957069Y-9817332D01*
X2858933Y-9836690D01*
X2751652Y-9857894D01*
X2701102Y-9867900D01*
X2555553Y-9896448D01*
X2432601Y-9919847D01*
X2330021Y-9938338D01*
X2245589Y-9952162D01*
X2177080Y-9961560D01*
X2122269Y-9966774D01*
X2078933Y-9968044D01*
X2044846Y-9965611D01*
X2017785Y-9959718D01*
X1995523Y-9950606D01*
X1986296Y-9945407D01*
X1964757Y-9929364D01*
X1945882Y-9908215D01*
X1929606Y-9880551D01*
X1915864Y-9844963D01*
X1904592Y-9800043D01*
X1895726Y-9744383D01*
X1889201Y-9676574D01*
X1884953Y-9595207D01*
X1882918Y-9498875D01*
X1883031Y-9386168D01*
X1885228Y-9255678D01*
X1889445Y-9105997D01*
X1895616Y-8935716D01*
X1903679Y-8743427D01*
X1913568Y-8527721D01*
X1917628Y-8442702D01*
X1943155Y-7912854D01*
X1724888Y-7490202D01*
X1636859Y-7319087D01*
X1560285Y-7168697D01*
X1494466Y-7037456D01*
X1438698Y-6923787D01*
X1392281Y-6826115D01*
X1354513Y-6742862D01*
X1324693Y-6672452D01*
X1302118Y-6613309D01*
X1286088Y-6563857D01*
X1275901Y-6522518D01*
X1270855Y-6487716D01*
X1270000Y-6468061D01*
X1279223Y-6412511D01*
X1307592Y-6368918D01*
X1356152Y-6336663D01*
X1425952Y-6315123D01*
X1518039Y-6303675D01*
X1549400Y-6302142D01*
X1621191Y-6301001D01*
X1679542Y-6304170D01*
X1736229Y-6312901D01*
X1803027Y-6328447D01*
X1807377Y-6329563D01*
X1973210Y-6380731D01*
X2118734Y-6444115D01*
X2246627Y-6521126D01*
X2359567Y-6613176D01*
X2376724Y-6629685D01*
X2423630Y-6677488D01*
X2455385Y-6714836D01*
X2476238Y-6747670D01*
X2490440Y-6781929D01*
X2494199Y-6793915D01*
X2505772Y-6838966D01*
X2513164Y-6879432D01*
X2514600Y-6896850D01*
X2523970Y-6934752D01*
X2550049Y-6954311D01*
X2587460Y-6953745D01*
X2632643Y-6930674D01*
X2682009Y-6882777D01*
X2735600Y-6810000D01*
X2793455Y-6712291D01*
X2840026Y-6621886D01*
X2885602Y-6531917D01*
X2925026Y-6462009D01*
X2961175Y-6408482D01*
X2996927Y-6367655D01*
X3035159Y-6335848D01*
X3078747Y-6309380D01*
X3088105Y-6304533D01*
X3148011Y-6280259D01*
X3226626Y-6257412D01*
X3318951Y-6236636D01*
X3419988Y-6218574D01*
X3524740Y-6203870D01*
X3628209Y-6193169D01*
X3725398Y-6187114D01*
X3811308Y-6186349D01*
X3880943Y-6191517D01*
G04 #@! TA.AperFunction,EtchedComponent*
G36*
X3880943Y-6191517D02*
G01*
X3914197Y-6198108D01*
X3965276Y-6222260D01*
X3997523Y-6262027D01*
X4012074Y-6319095D01*
X4013200Y-6345072D01*
X4010014Y-6388012D01*
X3999858Y-6436975D01*
X3981827Y-6493959D01*
X3955019Y-6560957D01*
X3918533Y-6639965D01*
X3871465Y-6732980D01*
X3812914Y-6841995D01*
X3741976Y-6969007D01*
X3689254Y-7061366D01*
X3621776Y-7179340D01*
X3562474Y-7285174D01*
X3510755Y-7381383D01*
X3466021Y-7470484D01*
X3427679Y-7554991D01*
X3395132Y-7637421D01*
X3367786Y-7720290D01*
X3345046Y-7806112D01*
X3326316Y-7897405D01*
X3311001Y-7996683D01*
X3298506Y-8106463D01*
X3288235Y-8229260D01*
X3279594Y-8367591D01*
X3271987Y-8523969D01*
X3264819Y-8700913D01*
X3258114Y-8883650D01*
X3251434Y-9068083D01*
X3245485Y-9228223D01*
X3240217Y-9365164D01*
X3235583Y-9480001D01*
X3231532Y-9573828D01*
X3228015Y-9647740D01*
X3224984Y-9702832D01*
X3222390Y-9740198D01*
X3220183Y-9760933D01*
X3218579Y-9766300D01*
X3205593Y-9768685D01*
X3170321Y-9775497D01*
X3115391Y-9786219D01*
X3043430Y-9800336D01*
X2957069Y-9817332D01*
X2858933Y-9836690D01*
X2751652Y-9857894D01*
X2701102Y-9867900D01*
X2555553Y-9896448D01*
X2432601Y-9919847D01*
X2330021Y-9938338D01*
X2245589Y-9952162D01*
X2177080Y-9961560D01*
X2122269Y-9966774D01*
X2078933Y-9968044D01*
X2044846Y-9965611D01*
X2017785Y-9959718D01*
X1995523Y-9950606D01*
X1986296Y-9945407D01*
X1964757Y-9929364D01*
X1945882Y-9908215D01*
X1929606Y-9880551D01*
X1915864Y-9844963D01*
X1904592Y-9800043D01*
X1895726Y-9744383D01*
X1889201Y-9676574D01*
X1884953Y-9595207D01*
X1882918Y-9498875D01*
X1883031Y-9386168D01*
X1885228Y-9255678D01*
X1889445Y-9105997D01*
X1895616Y-8935716D01*
X1903679Y-8743427D01*
X1913568Y-8527721D01*
X1917628Y-8442702D01*
X1943155Y-7912854D01*
X1724888Y-7490202D01*
X1636859Y-7319087D01*
X1560285Y-7168697D01*
X1494466Y-7037456D01*
X1438698Y-6923787D01*
X1392281Y-6826115D01*
X1354513Y-6742862D01*
X1324693Y-6672452D01*
X1302118Y-6613309D01*
X1286088Y-6563857D01*
X1275901Y-6522518D01*
X1270855Y-6487716D01*
X1270000Y-6468061D01*
X1279223Y-6412511D01*
X1307592Y-6368918D01*
X1356152Y-6336663D01*
X1425952Y-6315123D01*
X1518039Y-6303675D01*
X1549400Y-6302142D01*
X1621191Y-6301001D01*
X1679542Y-6304170D01*
X1736229Y-6312901D01*
X1803027Y-6328447D01*
X1807377Y-6329563D01*
X1973210Y-6380731D01*
X2118734Y-6444115D01*
X2246627Y-6521126D01*
X2359567Y-6613176D01*
X2376724Y-6629685D01*
X2423630Y-6677488D01*
X2455385Y-6714836D01*
X2476238Y-6747670D01*
X2490440Y-6781929D01*
X2494199Y-6793915D01*
X2505772Y-6838966D01*
X2513164Y-6879432D01*
X2514600Y-6896850D01*
X2523970Y-6934752D01*
X2550049Y-6954311D01*
X2587460Y-6953745D01*
X2632643Y-6930674D01*
X2682009Y-6882777D01*
X2735600Y-6810000D01*
X2793455Y-6712291D01*
X2840026Y-6621886D01*
X2885602Y-6531917D01*
X2925026Y-6462009D01*
X2961175Y-6408482D01*
X2996927Y-6367655D01*
X3035159Y-6335848D01*
X3078747Y-6309380D01*
X3088105Y-6304533D01*
X3148011Y-6280259D01*
X3226626Y-6257412D01*
X3318951Y-6236636D01*
X3419988Y-6218574D01*
X3524740Y-6203870D01*
X3628209Y-6193169D01*
X3725398Y-6187114D01*
X3811308Y-6186349D01*
X3880943Y-6191517D01*
G37*
G04 #@! TD.AperFunction*
X-2048633Y-5381965D02*
X-1959034Y-5385498D01*
X-1891342Y-5391319D01*
X-1845075Y-5399425D01*
X-1838630Y-5401234D01*
X-1786295Y-5421576D01*
X-1755560Y-5447017D01*
X-1742631Y-5483155D01*
X-1743714Y-5535589D01*
X-1744268Y-5540448D01*
X-1759426Y-5606304D01*
X-1786239Y-5659222D01*
X-1821766Y-5693768D01*
X-1829441Y-5697892D01*
X-1858673Y-5705969D01*
X-1911224Y-5714258D01*
X-1985014Y-5722684D01*
X-2077966Y-5731170D01*
X-2187999Y-5739640D01*
X-2313035Y-5748017D01*
X-2450994Y-5756225D01*
X-2599797Y-5764187D01*
X-2757365Y-5771827D01*
X-2921619Y-5779069D01*
X-3090479Y-5785836D01*
X-3261867Y-5792051D01*
X-3433703Y-5797639D01*
X-3603908Y-5802523D01*
X-3770403Y-5806626D01*
X-3931109Y-5809873D01*
X-4083946Y-5812186D01*
X-4226835Y-5813489D01*
X-4357698Y-5813707D01*
X-4474455Y-5812761D01*
X-4575026Y-5810577D01*
X-4657334Y-5807077D01*
X-4705350Y-5803587D01*
X-4797153Y-5789984D01*
X-4875301Y-5768250D01*
X-4937987Y-5739898D01*
X-4983403Y-5706442D01*
X-5009742Y-5669396D01*
X-5015196Y-5630274D01*
X-4997959Y-5590589D01*
X-4981575Y-5572241D01*
X-4956843Y-5551054D01*
X-4929082Y-5532786D01*
X-4896187Y-5517146D01*
X-4856054Y-5503842D01*
X-4806577Y-5492580D01*
X-4745652Y-5483070D01*
X-4671173Y-5475017D01*
X-4581037Y-5468131D01*
X-4473138Y-5462119D01*
X-4345372Y-5456688D01*
X-4195633Y-5451546D01*
X-4089400Y-5448333D01*
X-3967206Y-5444509D01*
X-3826093Y-5439645D01*
X-3672509Y-5433989D01*
X-3512905Y-5427794D01*
X-3353728Y-5421307D01*
X-3201428Y-5414779D01*
X-3073400Y-5408975D01*
X-2842191Y-5398719D01*
X-2635792Y-5390768D01*
X-2453721Y-5385121D01*
X-2295494Y-5381773D01*
X-2160626Y-5380722D01*
X-2048633Y-5381965D01*
G04 #@! TA.AperFunction,EtchedComponent*
G36*
X-2048633Y-5381965D02*
G01*
X-1959034Y-5385498D01*
X-1891342Y-5391319D01*
X-1845075Y-5399425D01*
X-1838630Y-5401234D01*
X-1786295Y-5421576D01*
X-1755560Y-5447017D01*
X-1742631Y-5483155D01*
X-1743714Y-5535589D01*
X-1744268Y-5540448D01*
X-1759426Y-5606304D01*
X-1786239Y-5659222D01*
X-1821766Y-5693768D01*
X-1829441Y-5697892D01*
X-1858673Y-5705969D01*
X-1911224Y-5714258D01*
X-1985014Y-5722684D01*
X-2077966Y-5731170D01*
X-2187999Y-5739640D01*
X-2313035Y-5748017D01*
X-2450994Y-5756225D01*
X-2599797Y-5764187D01*
X-2757365Y-5771827D01*
X-2921619Y-5779069D01*
X-3090479Y-5785836D01*
X-3261867Y-5792051D01*
X-3433703Y-5797639D01*
X-3603908Y-5802523D01*
X-3770403Y-5806626D01*
X-3931109Y-5809873D01*
X-4083946Y-5812186D01*
X-4226835Y-5813489D01*
X-4357698Y-5813707D01*
X-4474455Y-5812761D01*
X-4575026Y-5810577D01*
X-4657334Y-5807077D01*
X-4705350Y-5803587D01*
X-4797153Y-5789984D01*
X-4875301Y-5768250D01*
X-4937987Y-5739898D01*
X-4983403Y-5706442D01*
X-5009742Y-5669396D01*
X-5015196Y-5630274D01*
X-4997959Y-5590589D01*
X-4981575Y-5572241D01*
X-4956843Y-5551054D01*
X-4929082Y-5532786D01*
X-4896187Y-5517146D01*
X-4856054Y-5503842D01*
X-4806577Y-5492580D01*
X-4745652Y-5483070D01*
X-4671173Y-5475017D01*
X-4581037Y-5468131D01*
X-4473138Y-5462119D01*
X-4345372Y-5456688D01*
X-4195633Y-5451546D01*
X-4089400Y-5448333D01*
X-3967206Y-5444509D01*
X-3826093Y-5439645D01*
X-3672509Y-5433989D01*
X-3512905Y-5427794D01*
X-3353728Y-5421307D01*
X-3201428Y-5414779D01*
X-3073400Y-5408975D01*
X-2842191Y-5398719D01*
X-2635792Y-5390768D01*
X-2453721Y-5385121D01*
X-2295494Y-5381773D01*
X-2160626Y-5380722D01*
X-2048633Y-5381965D01*
G37*
G04 #@! TD.AperFunction*
X-3386062Y-3015693D02*
X-3334300Y-3025504D01*
X-3291867Y-3041526D01*
X-3257586Y-3066254D01*
X-3230283Y-3102181D01*
X-3208783Y-3151802D01*
X-3191910Y-3217609D01*
X-3178489Y-3302099D01*
X-3167346Y-3407764D01*
X-3160339Y-3494742D01*
X-3156772Y-3556195D01*
X-3153461Y-3638577D01*
X-3150506Y-3737416D01*
X-3148011Y-3848241D01*
X-3146077Y-3966581D01*
X-3144806Y-4087965D01*
X-3144311Y-4197350D01*
X-3144404Y-4341815D01*
X-3145283Y-4463508D01*
X-3147183Y-4565054D01*
X-3150343Y-4649074D01*
X-3154999Y-4718191D01*
X-3161388Y-4775027D01*
X-3169747Y-4822207D01*
X-3180313Y-4862352D01*
X-3193323Y-4898086D01*
X-3209014Y-4932031D01*
X-3211040Y-4936015D01*
X-3245150Y-4991529D01*
X-3283048Y-5026393D01*
X-3331694Y-5045157D01*
X-3388344Y-5051936D01*
X-3440161Y-5052832D01*
X-3479267Y-5047332D01*
X-3518052Y-5032929D01*
X-3543222Y-5020567D01*
X-3601595Y-4983287D01*
X-3644989Y-4936890D01*
X-3676674Y-4876431D01*
X-3699918Y-4796963D01*
X-3704067Y-4777230D01*
X-3723141Y-4702276D01*
X-3746630Y-4643549D01*
X-3772977Y-4604129D01*
X-3800042Y-4587201D01*
X-3829639Y-4593945D01*
X-3865613Y-4622831D01*
X-3906327Y-4671901D01*
X-3950146Y-4739194D01*
X-3993386Y-4818672D01*
X-4042644Y-4910769D01*
X-4087519Y-4980626D01*
X-4129344Y-5028005D01*
X-4169451Y-5052667D01*
X-4209173Y-5054373D01*
X-4249843Y-5032887D01*
X-4292792Y-4987968D01*
X-4339354Y-4919379D01*
X-4390860Y-4826881D01*
X-4434454Y-4739782D01*
X-4536180Y-4529766D01*
X-4621726Y-4731858D01*
X-4674403Y-4854247D01*
X-4719548Y-4954146D01*
X-4758150Y-5032993D01*
X-4791195Y-5092224D01*
X-4819670Y-5133280D01*
X-4844562Y-5157598D01*
X-4866858Y-5166616D01*
X-4887546Y-5161773D01*
X-4906097Y-5146210D01*
X-4935422Y-5101245D01*
X-4962464Y-5035498D01*
X-4985522Y-4953583D01*
X-4996091Y-4902200D01*
X-5006980Y-4837863D01*
X-5016263Y-4772903D01*
X-5024060Y-4704743D01*
X-5030493Y-4630806D01*
X-5035684Y-4548514D01*
X-5039753Y-4455293D01*
X-5042822Y-4348564D01*
X-5045012Y-4225752D01*
X-5046444Y-4084279D01*
X-5047239Y-3921569D01*
X-5047464Y-3810000D01*
X-5048250Y-3143250D01*
X-4902200Y-3128211D01*
X-4828576Y-3121716D01*
X-4749620Y-3116509D01*
X-4677102Y-3113293D01*
X-4641850Y-3112615D01*
X-4575848Y-3114565D01*
X-4519706Y-3122636D01*
X-4470818Y-3139113D01*
X-4426579Y-3166277D01*
X-4384383Y-3206411D01*
X-4341625Y-3261799D01*
X-4295698Y-3334723D01*
X-4243996Y-3427465D01*
X-4210889Y-3490177D01*
X-4171867Y-3564818D01*
X-4142688Y-3619479D01*
X-4121522Y-3656741D01*
X-4106540Y-3679182D01*
X-4095911Y-3689382D01*
X-4087803Y-3689919D01*
X-4080388Y-3683372D01*
X-4076914Y-3678965D01*
X-4063108Y-3659680D01*
X-4037874Y-3623308D01*
X-4003952Y-3573842D01*
X-3964082Y-3515277D01*
X-3927141Y-3460698D01*
X-3843882Y-3340763D01*
X-3769875Y-3242148D01*
X-3703267Y-3163331D01*
X-3642207Y-3102788D01*
X-3584841Y-3058996D01*
X-3529318Y-3030432D01*
X-3473786Y-3015572D01*
X-3416392Y-3012893D01*
X-3386062Y-3015693D01*
G04 #@! TA.AperFunction,EtchedComponent*
G36*
X-3386062Y-3015693D02*
G01*
X-3334300Y-3025504D01*
X-3291867Y-3041526D01*
X-3257586Y-3066254D01*
X-3230283Y-3102181D01*
X-3208783Y-3151802D01*
X-3191910Y-3217609D01*
X-3178489Y-3302099D01*
X-3167346Y-3407764D01*
X-3160339Y-3494742D01*
X-3156772Y-3556195D01*
X-3153461Y-3638577D01*
X-3150506Y-3737416D01*
X-3148011Y-3848241D01*
X-3146077Y-3966581D01*
X-3144806Y-4087965D01*
X-3144311Y-4197350D01*
X-3144404Y-4341815D01*
X-3145283Y-4463508D01*
X-3147183Y-4565054D01*
X-3150343Y-4649074D01*
X-3154999Y-4718191D01*
X-3161388Y-4775027D01*
X-3169747Y-4822207D01*
X-3180313Y-4862352D01*
X-3193323Y-4898086D01*
X-3209014Y-4932031D01*
X-3211040Y-4936015D01*
X-3245150Y-4991529D01*
X-3283048Y-5026393D01*
X-3331694Y-5045157D01*
X-3388344Y-5051936D01*
X-3440161Y-5052832D01*
X-3479267Y-5047332D01*
X-3518052Y-5032929D01*
X-3543222Y-5020567D01*
X-3601595Y-4983287D01*
X-3644989Y-4936890D01*
X-3676674Y-4876431D01*
X-3699918Y-4796963D01*
X-3704067Y-4777230D01*
X-3723141Y-4702276D01*
X-3746630Y-4643549D01*
X-3772977Y-4604129D01*
X-3800042Y-4587201D01*
X-3829639Y-4593945D01*
X-3865613Y-4622831D01*
X-3906327Y-4671901D01*
X-3950146Y-4739194D01*
X-3993386Y-4818672D01*
X-4042644Y-4910769D01*
X-4087519Y-4980626D01*
X-4129344Y-5028005D01*
X-4169451Y-5052667D01*
X-4209173Y-5054373D01*
X-4249843Y-5032887D01*
X-4292792Y-4987968D01*
X-4339354Y-4919379D01*
X-4390860Y-4826881D01*
X-4434454Y-4739782D01*
X-4536180Y-4529766D01*
X-4621726Y-4731858D01*
X-4674403Y-4854247D01*
X-4719548Y-4954146D01*
X-4758150Y-5032993D01*
X-4791195Y-5092224D01*
X-4819670Y-5133280D01*
X-4844562Y-5157598D01*
X-4866858Y-5166616D01*
X-4887546Y-5161773D01*
X-4906097Y-5146210D01*
X-4935422Y-5101245D01*
X-4962464Y-5035498D01*
X-4985522Y-4953583D01*
X-4996091Y-4902200D01*
X-5006980Y-4837863D01*
X-5016263Y-4772903D01*
X-5024060Y-4704743D01*
X-5030493Y-4630806D01*
X-5035684Y-4548514D01*
X-5039753Y-4455293D01*
X-5042822Y-4348564D01*
X-5045012Y-4225752D01*
X-5046444Y-4084279D01*
X-5047239Y-3921569D01*
X-5047464Y-3810000D01*
X-5048250Y-3143250D01*
X-4902200Y-3128211D01*
X-4828576Y-3121716D01*
X-4749620Y-3116509D01*
X-4677102Y-3113293D01*
X-4641850Y-3112615D01*
X-4575848Y-3114565D01*
X-4519706Y-3122636D01*
X-4470818Y-3139113D01*
X-4426579Y-3166277D01*
X-4384383Y-3206411D01*
X-4341625Y-3261799D01*
X-4295698Y-3334723D01*
X-4243996Y-3427465D01*
X-4210889Y-3490177D01*
X-4171867Y-3564818D01*
X-4142688Y-3619479D01*
X-4121522Y-3656741D01*
X-4106540Y-3679182D01*
X-4095911Y-3689382D01*
X-4087803Y-3689919D01*
X-4080388Y-3683372D01*
X-4076914Y-3678965D01*
X-4063108Y-3659680D01*
X-4037874Y-3623308D01*
X-4003952Y-3573842D01*
X-3964082Y-3515277D01*
X-3927141Y-3460698D01*
X-3843882Y-3340763D01*
X-3769875Y-3242148D01*
X-3703267Y-3163331D01*
X-3642207Y-3102788D01*
X-3584841Y-3058996D01*
X-3529318Y-3030432D01*
X-3473786Y-3015572D01*
X-3416392Y-3012893D01*
X-3386062Y-3015693D01*
G37*
G04 #@! TD.AperFunction*
X-6616700Y-3027056D02*
X-6504377Y-3038032D01*
X-6413769Y-3057818D01*
X-6342358Y-3087617D01*
X-6287624Y-3128633D01*
X-6247048Y-3182071D01*
X-6232695Y-3210588D01*
X-6216760Y-3260494D01*
X-6205069Y-3324997D01*
X-6197643Y-3398684D01*
X-6194504Y-3476141D01*
X-6195672Y-3551955D01*
X-6201170Y-3620712D01*
X-6211018Y-3676999D01*
X-6225238Y-3715401D01*
X-6230669Y-3722976D01*
X-6276129Y-3757601D01*
X-6339072Y-3777886D01*
X-6421675Y-3784529D01*
X-6422618Y-3784529D01*
X-6514027Y-3778783D01*
X-6584230Y-3761022D01*
X-6634925Y-3730205D01*
X-6667811Y-3685293D01*
X-6684587Y-3625247D01*
X-6684738Y-3624126D01*
X-6700016Y-3566878D01*
X-6726951Y-3523175D01*
X-6762083Y-3497462D01*
X-6787218Y-3492500D01*
X-6819077Y-3502562D01*
X-6841984Y-3533437D01*
X-6856337Y-3586158D01*
X-6862532Y-3661757D01*
X-6862859Y-3689350D01*
X-6857110Y-3792711D01*
X-6840387Y-3877427D01*
X-6813164Y-3941792D01*
X-6782070Y-3979274D01*
X-6761512Y-3995137D01*
X-6740060Y-4006985D01*
X-6712986Y-4015952D01*
X-6675562Y-4023172D01*
X-6623061Y-4029781D01*
X-6550755Y-4036911D01*
X-6536224Y-4038250D01*
X-6420124Y-4055570D01*
X-6324704Y-4085391D01*
X-6248357Y-4129419D01*
X-6189478Y-4189359D01*
X-6146458Y-4266917D01*
X-6117693Y-4363798D01*
X-6101576Y-4481707D01*
X-6100155Y-4501228D01*
X-6098944Y-4617252D01*
X-6110554Y-4722565D01*
X-6134133Y-4814125D01*
X-6168829Y-4888890D01*
X-6213788Y-4943818D01*
X-6227249Y-4954617D01*
X-6284431Y-4986825D01*
X-6362651Y-5017042D01*
X-6457555Y-5043912D01*
X-6564789Y-5066080D01*
X-6606930Y-5072850D01*
X-6687543Y-5082034D01*
X-6780416Y-5088098D01*
X-6879190Y-5091041D01*
X-6977505Y-5090865D01*
X-7069002Y-5087569D01*
X-7147323Y-5081154D01*
X-7200900Y-5072800D01*
X-7292134Y-5042337D01*
X-7364715Y-4994869D01*
X-7418060Y-4931064D01*
X-7451586Y-4851588D01*
X-7464085Y-4771881D01*
X-7465688Y-4718370D01*
X-7461907Y-4679849D01*
X-7451100Y-4646183D01*
X-7439943Y-4622902D01*
X-7396836Y-4562221D01*
X-7342250Y-4524009D01*
X-7276822Y-4508414D01*
X-7201191Y-4515582D01*
X-7115995Y-4545659D01*
X-7112000Y-4547529D01*
X-7056567Y-4578028D01*
X-6998024Y-4616835D01*
X-6959600Y-4646783D01*
X-6895623Y-4701075D01*
X-6848306Y-4737575D01*
X-6815557Y-4755621D01*
X-6795285Y-4754552D01*
X-6785397Y-4733706D01*
X-6783801Y-4692423D01*
X-6788404Y-4630042D01*
X-6792053Y-4593831D01*
X-6804657Y-4489669D01*
X-6820122Y-4407582D01*
X-6841298Y-4344243D01*
X-6871038Y-4296328D01*
X-6912191Y-4260511D01*
X-6967608Y-4233466D01*
X-7040141Y-4211868D01*
X-7132640Y-4192392D01*
X-7136879Y-4191594D01*
X-7185551Y-4180753D01*
X-7228775Y-4168202D01*
X-7252831Y-4158665D01*
X-7327241Y-4106448D01*
X-7384483Y-4035924D01*
X-7424495Y-3947564D01*
X-7447212Y-3841841D01*
X-7452572Y-3719226D01*
X-7440509Y-3580191D01*
X-7410961Y-3425207D01*
X-7371582Y-3279739D01*
X-7341431Y-3198273D01*
X-7305803Y-3138402D01*
X-7261785Y-3096449D01*
X-7206466Y-3068740D01*
X-7203694Y-3067779D01*
X-7161834Y-3057750D01*
X-7099919Y-3048414D01*
X-7023289Y-3040140D01*
X-6937288Y-3033300D01*
X-6847257Y-3028265D01*
X-6758538Y-3025404D01*
X-6676474Y-3025089D01*
X-6616700Y-3027056D01*
G04 #@! TA.AperFunction,EtchedComponent*
G36*
X-6616700Y-3027056D02*
G01*
X-6504377Y-3038032D01*
X-6413769Y-3057818D01*
X-6342358Y-3087617D01*
X-6287624Y-3128633D01*
X-6247048Y-3182071D01*
X-6232695Y-3210588D01*
X-6216760Y-3260494D01*
X-6205069Y-3324997D01*
X-6197643Y-3398684D01*
X-6194504Y-3476141D01*
X-6195672Y-3551955D01*
X-6201170Y-3620712D01*
X-6211018Y-3676999D01*
X-6225238Y-3715401D01*
X-6230669Y-3722976D01*
X-6276129Y-3757601D01*
X-6339072Y-3777886D01*
X-6421675Y-3784529D01*
X-6422618Y-3784529D01*
X-6514027Y-3778783D01*
X-6584230Y-3761022D01*
X-6634925Y-3730205D01*
X-6667811Y-3685293D01*
X-6684587Y-3625247D01*
X-6684738Y-3624126D01*
X-6700016Y-3566878D01*
X-6726951Y-3523175D01*
X-6762083Y-3497462D01*
X-6787218Y-3492500D01*
X-6819077Y-3502562D01*
X-6841984Y-3533437D01*
X-6856337Y-3586158D01*
X-6862532Y-3661757D01*
X-6862859Y-3689350D01*
X-6857110Y-3792711D01*
X-6840387Y-3877427D01*
X-6813164Y-3941792D01*
X-6782070Y-3979274D01*
X-6761512Y-3995137D01*
X-6740060Y-4006985D01*
X-6712986Y-4015952D01*
X-6675562Y-4023172D01*
X-6623061Y-4029781D01*
X-6550755Y-4036911D01*
X-6536224Y-4038250D01*
X-6420124Y-4055570D01*
X-6324704Y-4085391D01*
X-6248357Y-4129419D01*
X-6189478Y-4189359D01*
X-6146458Y-4266917D01*
X-6117693Y-4363798D01*
X-6101576Y-4481707D01*
X-6100155Y-4501228D01*
X-6098944Y-4617252D01*
X-6110554Y-4722565D01*
X-6134133Y-4814125D01*
X-6168829Y-4888890D01*
X-6213788Y-4943818D01*
X-6227249Y-4954617D01*
X-6284431Y-4986825D01*
X-6362651Y-5017042D01*
X-6457555Y-5043912D01*
X-6564789Y-5066080D01*
X-6606930Y-5072850D01*
X-6687543Y-5082034D01*
X-6780416Y-5088098D01*
X-6879190Y-5091041D01*
X-6977505Y-5090865D01*
X-7069002Y-5087569D01*
X-7147323Y-5081154D01*
X-7200900Y-5072800D01*
X-7292134Y-5042337D01*
X-7364715Y-4994869D01*
X-7418060Y-4931064D01*
X-7451586Y-4851588D01*
X-7464085Y-4771881D01*
X-7465688Y-4718370D01*
X-7461907Y-4679849D01*
X-7451100Y-4646183D01*
X-7439943Y-4622902D01*
X-7396836Y-4562221D01*
X-7342250Y-4524009D01*
X-7276822Y-4508414D01*
X-7201191Y-4515582D01*
X-7115995Y-4545659D01*
X-7112000Y-4547529D01*
X-7056567Y-4578028D01*
X-6998024Y-4616835D01*
X-6959600Y-4646783D01*
X-6895623Y-4701075D01*
X-6848306Y-4737575D01*
X-6815557Y-4755621D01*
X-6795285Y-4754552D01*
X-6785397Y-4733706D01*
X-6783801Y-4692423D01*
X-6788404Y-4630042D01*
X-6792053Y-4593831D01*
X-6804657Y-4489669D01*
X-6820122Y-4407582D01*
X-6841298Y-4344243D01*
X-6871038Y-4296328D01*
X-6912191Y-4260511D01*
X-6967608Y-4233466D01*
X-7040141Y-4211868D01*
X-7132640Y-4192392D01*
X-7136879Y-4191594D01*
X-7185551Y-4180753D01*
X-7228775Y-4168202D01*
X-7252831Y-4158665D01*
X-7327241Y-4106448D01*
X-7384483Y-4035924D01*
X-7424495Y-3947564D01*
X-7447212Y-3841841D01*
X-7452572Y-3719226D01*
X-7440509Y-3580191D01*
X-7410961Y-3425207D01*
X-7371582Y-3279739D01*
X-7341431Y-3198273D01*
X-7305803Y-3138402D01*
X-7261785Y-3096449D01*
X-7206466Y-3068740D01*
X-7203694Y-3067779D01*
X-7161834Y-3057750D01*
X-7099919Y-3048414D01*
X-7023289Y-3040140D01*
X-6937288Y-3033300D01*
X-6847257Y-3028265D01*
X-6758538Y-3025404D01*
X-6676474Y-3025089D01*
X-6616700Y-3027056D01*
G37*
G04 #@! TD.AperFunction*
X-8037330Y-3073656D02*
X-7943923Y-3089354D01*
X-7859824Y-3114383D01*
X-7789101Y-3147256D01*
X-7735820Y-3186488D01*
X-7706242Y-3225800D01*
X-7690826Y-3272532D01*
X-7678357Y-3342298D01*
X-7668988Y-3432885D01*
X-7662873Y-3542081D01*
X-7660164Y-3667674D01*
X-7661016Y-3807452D01*
X-7662223Y-3860800D01*
X-7669074Y-4044631D01*
X-7679306Y-4216024D01*
X-7692673Y-4373062D01*
X-7708929Y-4513828D01*
X-7727828Y-4636402D01*
X-7749124Y-4738867D01*
X-7772569Y-4819306D01*
X-7790860Y-4862934D01*
X-7839856Y-4935956D01*
X-7903804Y-4995774D01*
X-7977889Y-5039832D01*
X-8057298Y-5065571D01*
X-8137217Y-5070436D01*
X-8171634Y-5065230D01*
X-8230056Y-5042538D01*
X-8283036Y-5005059D01*
X-8321204Y-4959635D01*
X-8324600Y-4953484D01*
X-8342612Y-4904558D01*
X-8358811Y-4831802D01*
X-8373070Y-4736729D01*
X-8385267Y-4620854D01*
X-8395276Y-4485688D01*
X-8402973Y-4332746D01*
X-8408234Y-4163542D01*
X-8410934Y-3979589D01*
X-8411274Y-3898900D01*
X-8410346Y-3720971D01*
X-8407052Y-3567770D01*
X-8401351Y-3438730D01*
X-8393204Y-3333284D01*
X-8382570Y-3250866D01*
X-8369409Y-3190910D01*
X-8358813Y-3162300D01*
X-8328690Y-3120366D01*
X-8283264Y-3091563D01*
X-8219810Y-3074746D01*
X-8135978Y-3068774D01*
X-8037330Y-3073656D01*
G04 #@! TA.AperFunction,EtchedComponent*
G36*
X-8037330Y-3073656D02*
G01*
X-7943923Y-3089354D01*
X-7859824Y-3114383D01*
X-7789101Y-3147256D01*
X-7735820Y-3186488D01*
X-7706242Y-3225800D01*
X-7690826Y-3272532D01*
X-7678357Y-3342298D01*
X-7668988Y-3432885D01*
X-7662873Y-3542081D01*
X-7660164Y-3667674D01*
X-7661016Y-3807452D01*
X-7662223Y-3860800D01*
X-7669074Y-4044631D01*
X-7679306Y-4216024D01*
X-7692673Y-4373062D01*
X-7708929Y-4513828D01*
X-7727828Y-4636402D01*
X-7749124Y-4738867D01*
X-7772569Y-4819306D01*
X-7790860Y-4862934D01*
X-7839856Y-4935956D01*
X-7903804Y-4995774D01*
X-7977889Y-5039832D01*
X-8057298Y-5065571D01*
X-8137217Y-5070436D01*
X-8171634Y-5065230D01*
X-8230056Y-5042538D01*
X-8283036Y-5005059D01*
X-8321204Y-4959635D01*
X-8324600Y-4953484D01*
X-8342612Y-4904558D01*
X-8358811Y-4831802D01*
X-8373070Y-4736729D01*
X-8385267Y-4620854D01*
X-8395276Y-4485688D01*
X-8402973Y-4332746D01*
X-8408234Y-4163542D01*
X-8410934Y-3979589D01*
X-8411274Y-3898900D01*
X-8410346Y-3720971D01*
X-8407052Y-3567770D01*
X-8401351Y-3438730D01*
X-8393204Y-3333284D01*
X-8382570Y-3250866D01*
X-8369409Y-3190910D01*
X-8358813Y-3162300D01*
X-8328690Y-3120366D01*
X-8283264Y-3091563D01*
X-8219810Y-3074746D01*
X-8135978Y-3068774D01*
X-8037330Y-3073656D01*
G37*
G04 #@! TD.AperFunction*
X-1377495Y-3005066D02*
X-1323579Y-3015855D01*
X-1284422Y-3030584D01*
X-1270139Y-3041483D01*
X-1268526Y-3052702D01*
X-1274141Y-3075774D01*
X-1287813Y-3112710D01*
X-1310371Y-3165524D01*
X-1342645Y-3236229D01*
X-1385465Y-3326837D01*
X-1401856Y-3361042D01*
X-1443343Y-3448047D01*
X-1483255Y-3532967D01*
X-1519593Y-3611453D01*
X-1550356Y-3679156D01*
X-1573542Y-3731727D01*
X-1584991Y-3759200D01*
X-1640919Y-3913122D01*
X-1692396Y-4078374D01*
X-1736808Y-4245534D01*
X-1771542Y-4405180D01*
X-1784068Y-4476750D01*
X-1803110Y-4593153D01*
X-1820016Y-4687129D01*
X-1835704Y-4761466D01*
X-1851090Y-4818953D01*
X-1867089Y-4862379D01*
X-1884619Y-4894533D01*
X-1904595Y-4918203D01*
X-1927934Y-4936177D01*
X-1936758Y-4941464D01*
X-1969016Y-4952630D01*
X-2019297Y-4962038D01*
X-2080247Y-4968976D01*
X-2144510Y-4972728D01*
X-2204731Y-4972583D01*
X-2235200Y-4970401D01*
X-2302353Y-4962416D01*
X-2349745Y-4954490D01*
X-2382968Y-4945137D01*
X-2407613Y-4932871D01*
X-2424833Y-4920030D01*
X-2451290Y-4890918D01*
X-2469362Y-4853161D01*
X-2479504Y-4803377D01*
X-2482170Y-4738185D01*
X-2477814Y-4654203D01*
X-2470525Y-4579673D01*
X-2458551Y-4450882D01*
X-2453591Y-4335616D01*
X-2456448Y-4228886D01*
X-2467925Y-4125702D01*
X-2488825Y-4021076D01*
X-2519952Y-3910018D01*
X-2562107Y-3787538D01*
X-2616095Y-3648648D01*
X-2623184Y-3631189D01*
X-2668515Y-3516672D01*
X-2703181Y-3421023D01*
X-2728215Y-3340565D01*
X-2744652Y-3271620D01*
X-2753526Y-3210513D01*
X-2755900Y-3159380D01*
X-2750627Y-3093286D01*
X-2733940Y-3049557D01*
X-2704538Y-3027381D01*
X-2661119Y-3025948D01*
X-2602383Y-3044448D01*
X-2584347Y-3052466D01*
X-2545492Y-3073258D01*
X-2501992Y-3102193D01*
X-2451368Y-3141309D01*
X-2391138Y-3192639D01*
X-2318822Y-3258219D01*
X-2231940Y-3340085D01*
X-2220618Y-3350907D01*
X-2170386Y-3398648D01*
X-2126708Y-3439519D01*
X-2092791Y-3470572D01*
X-2071839Y-3488857D01*
X-2066681Y-3492500D01*
X-2057994Y-3482453D01*
X-2038113Y-3454803D01*
X-2009626Y-3413282D01*
X-1975119Y-3361624D01*
X-1958499Y-3336344D01*
X-1886448Y-3232992D01*
X-1818942Y-3151682D01*
X-1752991Y-3090201D01*
X-1685601Y-3046333D01*
X-1613781Y-3017866D01*
X-1534539Y-3002586D01*
X-1503797Y-2999898D01*
X-1439718Y-2999364D01*
X-1377495Y-3005066D01*
G04 #@! TA.AperFunction,EtchedComponent*
G36*
X-1377495Y-3005066D02*
G01*
X-1323579Y-3015855D01*
X-1284422Y-3030584D01*
X-1270139Y-3041483D01*
X-1268526Y-3052702D01*
X-1274141Y-3075774D01*
X-1287813Y-3112710D01*
X-1310371Y-3165524D01*
X-1342645Y-3236229D01*
X-1385465Y-3326837D01*
X-1401856Y-3361042D01*
X-1443343Y-3448047D01*
X-1483255Y-3532967D01*
X-1519593Y-3611453D01*
X-1550356Y-3679156D01*
X-1573542Y-3731727D01*
X-1584991Y-3759200D01*
X-1640919Y-3913122D01*
X-1692396Y-4078374D01*
X-1736808Y-4245534D01*
X-1771542Y-4405180D01*
X-1784068Y-4476750D01*
X-1803110Y-4593153D01*
X-1820016Y-4687129D01*
X-1835704Y-4761466D01*
X-1851090Y-4818953D01*
X-1867089Y-4862379D01*
X-1884619Y-4894533D01*
X-1904595Y-4918203D01*
X-1927934Y-4936177D01*
X-1936758Y-4941464D01*
X-1969016Y-4952630D01*
X-2019297Y-4962038D01*
X-2080247Y-4968976D01*
X-2144510Y-4972728D01*
X-2204731Y-4972583D01*
X-2235200Y-4970401D01*
X-2302353Y-4962416D01*
X-2349745Y-4954490D01*
X-2382968Y-4945137D01*
X-2407613Y-4932871D01*
X-2424833Y-4920030D01*
X-2451290Y-4890918D01*
X-2469362Y-4853161D01*
X-2479504Y-4803377D01*
X-2482170Y-4738185D01*
X-2477814Y-4654203D01*
X-2470525Y-4579673D01*
X-2458551Y-4450882D01*
X-2453591Y-4335616D01*
X-2456448Y-4228886D01*
X-2467925Y-4125702D01*
X-2488825Y-4021076D01*
X-2519952Y-3910018D01*
X-2562107Y-3787538D01*
X-2616095Y-3648648D01*
X-2623184Y-3631189D01*
X-2668515Y-3516672D01*
X-2703181Y-3421023D01*
X-2728215Y-3340565D01*
X-2744652Y-3271620D01*
X-2753526Y-3210513D01*
X-2755900Y-3159380D01*
X-2750627Y-3093286D01*
X-2733940Y-3049557D01*
X-2704538Y-3027381D01*
X-2661119Y-3025948D01*
X-2602383Y-3044448D01*
X-2584347Y-3052466D01*
X-2545492Y-3073258D01*
X-2501992Y-3102193D01*
X-2451368Y-3141309D01*
X-2391138Y-3192639D01*
X-2318822Y-3258219D01*
X-2231940Y-3340085D01*
X-2220618Y-3350907D01*
X-2170386Y-3398648D01*
X-2126708Y-3439519D01*
X-2092791Y-3470572D01*
X-2071839Y-3488857D01*
X-2066681Y-3492500D01*
X-2057994Y-3482453D01*
X-2038113Y-3454803D01*
X-2009626Y-3413282D01*
X-1975119Y-3361624D01*
X-1958499Y-3336344D01*
X-1886448Y-3232992D01*
X-1818942Y-3151682D01*
X-1752991Y-3090201D01*
X-1685601Y-3046333D01*
X-1613781Y-3017866D01*
X-1534539Y-3002586D01*
X-1503797Y-2999898D01*
X-1439718Y-2999364D01*
X-1377495Y-3005066D01*
G37*
G04 #@! TD.AperFunction*
X6171998Y5980105D02*
X6170781Y5812055D01*
X6167310Y5668432D01*
X6161521Y5548359D01*
X6153352Y5450956D01*
X6142738Y5375346D01*
X6129614Y5320651D01*
X6122617Y5302046D01*
X6098772Y5260268D01*
X6065780Y5227567D01*
X6018102Y5199664D01*
X5958417Y5175250D01*
X5933733Y5165619D01*
X5911420Y5154796D01*
X5891358Y5141517D01*
X5873427Y5124516D01*
X5857509Y5102531D01*
X5843483Y5074296D01*
X5831231Y5038547D01*
X5820631Y4994020D01*
X5811566Y4939449D01*
X5803915Y4873571D01*
X5797559Y4795121D01*
X5792377Y4702834D01*
X5788252Y4595447D01*
X5785062Y4471695D01*
X5782689Y4330312D01*
X5781013Y4170036D01*
X5779914Y3989600D01*
X5779273Y3787742D01*
X5778970Y3563196D01*
X5778885Y3314698D01*
X5778884Y3276600D01*
X5778985Y3031435D01*
X5779335Y2810253D01*
X5780002Y2611641D01*
X5781052Y2434182D01*
X5782555Y2276463D01*
X5784575Y2137067D01*
X5787182Y2014580D01*
X5790442Y1907587D01*
X5794422Y1814672D01*
X5799190Y1734421D01*
X5804813Y1665418D01*
X5811359Y1606248D01*
X5818895Y1555496D01*
X5827487Y1511747D01*
X5837204Y1473587D01*
X5848112Y1439599D01*
X5860280Y1408368D01*
X5868638Y1389437D01*
X5896304Y1344047D01*
X5939877Y1289600D01*
X5994180Y1231206D01*
X6054036Y1173976D01*
X6114269Y1123020D01*
X6169704Y1083447D01*
X6191250Y1070953D01*
X6270185Y1032218D01*
X6341365Y1004640D01*
X6412198Y986541D01*
X6490092Y976244D01*
X6582458Y972070D01*
X6629400Y971741D01*
X6704388Y972217D01*
X6760407Y973997D01*
X6803878Y977881D01*
X6841228Y984671D01*
X6878881Y995164D01*
X6915150Y1007325D01*
X7007918Y1044778D01*
X7090656Y1089879D01*
X7164030Y1144165D01*
X7228704Y1209174D01*
X7285344Y1286440D01*
X7334615Y1377503D01*
X7377182Y1483897D01*
X7413709Y1607161D01*
X7444863Y1748830D01*
X7471309Y1910442D01*
X7493711Y2093534D01*
X7512735Y2299641D01*
X7520823Y2406650D01*
X7524038Y2465173D01*
X7526926Y2543989D01*
X7529485Y2640729D01*
X7531715Y2753022D01*
X7533616Y2878498D01*
X7535186Y3014786D01*
X7536427Y3159515D01*
X7537336Y3310317D01*
X7537913Y3464819D01*
X7538158Y3620651D01*
X7538071Y3775444D01*
X7537651Y3926826D01*
X7536897Y4072428D01*
X7535810Y4209879D01*
X7534387Y4336808D01*
X7532629Y4450845D01*
X7530536Y4549619D01*
X7528107Y4630761D01*
X7525341Y4691899D01*
X7522238Y4730663D01*
X7521323Y4737100D01*
X7499775Y4831332D01*
X7467762Y4910308D01*
X7421361Y4980706D01*
X7356650Y5049205D01*
X7317970Y5083340D01*
X7245465Y5147428D01*
X7190894Y5203296D01*
X7150456Y5255869D01*
X7120354Y5310073D01*
X7097238Y5369460D01*
X7089509Y5394207D01*
X7083275Y5418811D01*
X7078332Y5446374D01*
X7074478Y5479998D01*
X7071510Y5522786D01*
X7069226Y5577839D01*
X7067424Y5648260D01*
X7065900Y5737149D01*
X7064453Y5847610D01*
X7064103Y5876925D01*
X7059120Y6299200D01*
X8940800Y6299200D01*
X8940499Y5984875D01*
X8939291Y5829509D01*
X8936048Y5690134D01*
X8930871Y5568582D01*
X8923865Y5466685D01*
X8915130Y5386275D01*
X8904770Y5329183D01*
X8903514Y5324325D01*
X8883015Y5269533D01*
X8853692Y5234766D01*
X8810062Y5214870D01*
X8780680Y5208811D01*
X8702737Y5188927D01*
X8641886Y5157187D01*
X8601290Y5115366D01*
X8595187Y5104582D01*
X8587687Y5085148D01*
X8580882Y5057538D01*
X8574722Y5020451D01*
X8569154Y4972582D01*
X8564127Y4912627D01*
X8559590Y4839283D01*
X8555491Y4751247D01*
X8551778Y4647214D01*
X8548400Y4525881D01*
X8545306Y4385945D01*
X8542443Y4226101D01*
X8539761Y4045046D01*
X8537207Y3841477D01*
X8534730Y3614090D01*
X8534207Y3562350D01*
X8532370Y3392221D01*
X8530313Y3225941D01*
X8528080Y3065746D01*
X8525712Y2913870D01*
X8523253Y2772549D01*
X8520745Y2644018D01*
X8518231Y2530511D01*
X8515754Y2434263D01*
X8513356Y2357510D01*
X8511080Y2302487D01*
X8509702Y2279650D01*
X8485537Y2007365D01*
X8455827Y1758638D01*
X8420152Y1532150D01*
X8378092Y1326584D01*
X8329226Y1140620D01*
X8273134Y972939D01*
X8209396Y822223D01*
X8137591Y687151D01*
X8057300Y566407D01*
X7968100Y458669D01*
X7910780Y400342D01*
X7826009Y324583D01*
X7743101Y262800D01*
X7652597Y208554D01*
X7563420Y163933D01*
X7409482Y102878D01*
X7234645Y54253D01*
X7038662Y18026D01*
X6821286Y-5836D01*
X6582266Y-17365D01*
X6321356Y-16592D01*
X6199747Y-12372D01*
X6007672Y-2694D01*
X5838264Y8912D01*
X5688825Y23072D01*
X5556655Y40407D01*
X5439057Y61543D01*
X5333331Y87101D01*
X5236778Y117706D01*
X5146699Y153980D01*
X5060396Y196549D01*
X4975170Y246034D01*
X4916149Y284157D01*
X4773391Y387677D01*
X4653089Y493310D01*
X4552350Y604801D01*
X4468280Y725898D01*
X4397989Y860349D01*
X4338584Y1011900D01*
X4326739Y1047750D01*
X4300465Y1135314D01*
X4276322Y1228232D01*
X4254157Y1328023D01*
X4233821Y1436206D01*
X4215161Y1554299D01*
X4198029Y1683821D01*
X4182271Y1826290D01*
X4167738Y1983225D01*
X4154278Y2156145D01*
X4141741Y2346567D01*
X4129976Y2556010D01*
X4118831Y2785993D01*
X4108156Y3038035D01*
X4097800Y3313653D01*
X4095750Y3371850D01*
X4087753Y3595885D01*
X4080184Y3796024D01*
X4072933Y3973769D01*
X4065891Y4130618D01*
X4058950Y4268071D01*
X4052000Y4387629D01*
X4044933Y4490791D01*
X4037641Y4579055D01*
X4030013Y4653924D01*
X4021941Y4716895D01*
X4013316Y4769468D01*
X4004030Y4813144D01*
X3993974Y4849421D01*
X3987021Y4869616D01*
X3966474Y4913994D01*
X3943247Y4948490D01*
X3929832Y4961054D01*
X3905277Y4970942D01*
X3861975Y4982499D01*
X3806375Y4994183D01*
X3753992Y5003104D01*
X3608593Y5025209D01*
X3601865Y4935130D01*
X3601052Y4913102D01*
X3600047Y4867006D01*
X3598866Y4798172D01*
X3597524Y4707930D01*
X3596035Y4597612D01*
X3594415Y4468548D01*
X3592678Y4322068D01*
X3590840Y4159504D01*
X3588914Y3982185D01*
X3586916Y3791443D01*
X3584862Y3588608D01*
X3582764Y3375010D01*
X3580640Y3151980D01*
X3578502Y2920850D01*
X3576367Y2682949D01*
X3575170Y2546350D01*
X3573039Y2304791D01*
X3570895Y2069002D01*
X3568753Y1840334D01*
X3566627Y1620136D01*
X3564534Y1409759D01*
X3562488Y1210550D01*
X3560504Y1023860D01*
X3558598Y851039D01*
X3556783Y693435D01*
X3555076Y552398D01*
X3553491Y429278D01*
X3552044Y325424D01*
X3550749Y242185D01*
X3549622Y180912D01*
X3548677Y142953D01*
X3548245Y132566D01*
X3541288Y17482D01*
X3164469Y2185D01*
X2981931Y-4643D01*
X2822894Y-9161D01*
X2685544Y-11156D01*
X2568067Y-10412D01*
X2468651Y-6717D01*
X2385482Y145D01*
X2316747Y10386D01*
X2260633Y24223D01*
X2215326Y41867D01*
X2179014Y63534D01*
X2149882Y89437D01*
X2126119Y119792D01*
X2122615Y125199D01*
X2095808Y169817D01*
X2057987Y236198D01*
X2009625Y323450D01*
X1951197Y430682D01*
X1883177Y557003D01*
X1806040Y701523D01*
X1720260Y863351D01*
X1626311Y1041595D01*
X1524667Y1235365D01*
X1415803Y1443770D01*
X1300194Y1665919D01*
X1218967Y1822450D01*
X1103229Y2045072D01*
X998003Y2245982D01*
X902637Y2426284D01*
X816476Y2587079D01*
X738867Y2729471D01*
X669155Y2854562D01*
X606687Y2963455D01*
X550808Y3057252D01*
X500866Y3137055D01*
X456206Y3203968D01*
X416174Y3259092D01*
X380117Y3303531D01*
X347380Y3338386D01*
X317311Y3364761D01*
X295115Y3380262D01*
X249175Y3397458D01*
X193976Y3402371D01*
X139433Y3395453D01*
X95464Y3377152D01*
X87253Y3370822D01*
X66500Y3348029D01*
X48139Y3317676D01*
X31984Y3278151D01*
X17847Y3227844D01*
X5540Y3165143D01*
X-5122Y3088438D01*
X-14328Y2996117D01*
X-22265Y2886569D01*
X-29119Y2758184D01*
X-35078Y2609351D01*
X-40328Y2438458D01*
X-45058Y2243895D01*
X-45385Y2228850D01*
X-47952Y2032769D01*
X-46491Y1860248D01*
X-40755Y1709730D01*
X-30497Y1579657D01*
X-15470Y1468473D01*
X4573Y1374621D01*
X29879Y1296542D01*
X60695Y1232681D01*
X97268Y1181481D01*
X125140Y1153461D01*
X154834Y1132046D01*
X200825Y1104256D01*
X256223Y1074080D01*
X300929Y1051740D01*
X360705Y1021751D01*
X408911Y992905D01*
X446784Y962114D01*
X475562Y926294D01*
X496482Y882357D01*
X510781Y827217D01*
X519696Y757788D01*
X524465Y670985D01*
X526325Y563721D01*
X526560Y488950D01*
X525240Y358809D01*
X520766Y251401D01*
X512502Y164185D01*
X499814Y94619D01*
X482065Y40163D01*
X458622Y-1726D01*
X428848Y-33589D01*
X392109Y-57967D01*
X389523Y-59323D01*
X359165Y-69416D01*
X309801Y-77957D01*
X241000Y-84945D01*
X152326Y-90374D01*
X43347Y-94243D01*
X-86372Y-96548D01*
X-237264Y-97286D01*
X-409763Y-96453D01*
X-604303Y-94047D01*
X-821317Y-90064D01*
X-1061239Y-84501D01*
X-1324503Y-77355D01*
X-1611543Y-68622D01*
X-1922792Y-58300D01*
X-2258684Y-46384D01*
X-2482850Y-38069D01*
X-2640422Y-32141D01*
X-2790785Y-26494D01*
X-2931988Y-21202D01*
X-3062079Y-16337D01*
X-3179107Y-11973D01*
X-3281121Y-8181D01*
X-3366169Y-5035D01*
X-3432299Y-2607D01*
X-3477560Y-969D01*
X-3500001Y-194D01*
X-3502025Y-141D01*
X-3507278Y5633D01*
X-3511321Y24426D01*
X-3514279Y58603D01*
X-3516276Y110530D01*
X-3517437Y182572D01*
X-3517885Y277095D01*
X-3517900Y302468D01*
X-3517071Y435723D01*
X-3513817Y546514D01*
X-3506992Y637744D01*
X-3495448Y712317D01*
X-3478038Y773138D01*
X-3453615Y823109D01*
X-3421031Y865135D01*
X-3379140Y902118D01*
X-3326793Y936964D01*
X-3262845Y972575D01*
X-3250611Y978979D01*
X-3194327Y1011642D01*
X-3138127Y1049845D01*
X-3092347Y1086440D01*
X-3084282Y1093972D01*
X-3017863Y1174220D01*
X-2971238Y1264127D01*
X-2945323Y1359556D01*
X-2941033Y1456366D01*
X-2959283Y1550417D01*
X-2974673Y1589823D01*
X-3019561Y1668811D01*
X-3077554Y1736011D01*
X-3150782Y1792639D01*
X-3241374Y1839913D01*
X-3351461Y1879050D01*
X-3483173Y1911268D01*
X-3563091Y1926057D01*
X-3645969Y1936591D01*
X-3747980Y1944200D01*
X-3863024Y1948887D01*
X-3985005Y1950653D01*
X-4107823Y1949499D01*
X-4225381Y1945429D01*
X-4331579Y1938443D01*
X-4420320Y1928543D01*
X-4437910Y1925806D01*
X-4572691Y1899590D01*
X-4684860Y1868939D01*
X-4777023Y1832449D01*
X-4851785Y1788714D01*
X-4911752Y1736329D01*
X-4959532Y1673889D01*
X-4982970Y1631945D01*
X-5021666Y1527000D01*
X-5035738Y1418214D01*
X-5025204Y1307894D01*
X-4990084Y1198351D01*
X-4979141Y1174750D01*
X-4945375Y1115329D01*
X-4905341Y1065769D01*
X-4854114Y1021600D01*
X-4786768Y978350D01*
X-4727245Y946150D01*
X-4667410Y913779D01*
X-4619970Y882840D01*
X-4583504Y849922D01*
X-4556589Y811613D01*
X-4537803Y764500D01*
X-4525723Y705170D01*
X-4518926Y630213D01*
X-4515991Y536216D01*
X-4515470Y438150D01*
X-4516696Y324867D01*
X-4520632Y233341D01*
X-4527928Y160012D01*
X-4539232Y101321D01*
X-4555193Y53709D01*
X-4576462Y13616D01*
X-4598305Y-16132D01*
X-4618614Y-37507D01*
X-4642476Y-54408D01*
X-4673329Y-67613D01*
X-4714609Y-77900D01*
X-4769754Y-86048D01*
X-4842201Y-92835D01*
X-4935387Y-99041D01*
X-4974076Y-101249D01*
X-5031147Y-104357D01*
X-5081996Y-106900D01*
X-5129484Y-108877D01*
X-5176470Y-110284D01*
X-5225812Y-111122D01*
X-5280371Y-111387D01*
X-5343004Y-111078D01*
X-5416571Y-110194D01*
X-5503931Y-108731D01*
X-5607944Y-106689D01*
X-5731468Y-104065D01*
X-5877362Y-100857D01*
X-5886450Y-100656D01*
X-6007232Y-98188D01*
X-6152009Y-95593D01*
X-6319376Y-92887D01*
X-6507929Y-90086D01*
X-6716265Y-87204D01*
X-6942978Y-84257D01*
X-7186663Y-81261D01*
X-7445918Y-78232D01*
X-7719336Y-75184D01*
X-8005514Y-72134D01*
X-8303047Y-69096D01*
X-8610531Y-66087D01*
X-8926561Y-63122D01*
X-9249733Y-60215D01*
X-9578642Y-57384D01*
X-9911884Y-54643D01*
X-10248055Y-52008D01*
X-10394950Y-50898D01*
X-10613395Y-49236D01*
X-10832385Y-47515D01*
X-11049760Y-45752D01*
X-11263361Y-43969D01*
X-11471026Y-42185D01*
X-11670596Y-40419D01*
X-11859910Y-38691D01*
X-12036807Y-37022D01*
X-12199128Y-35430D01*
X-12344711Y-33935D01*
X-12471396Y-32558D01*
X-12577024Y-31317D01*
X-12659432Y-30233D01*
X-12660096Y-30224D01*
X-13210742Y-22359D01*
X-13204425Y347596D01*
X-13201233Y488451D01*
X-13196450Y606839D01*
X-13189426Y705675D01*
X-13179511Y787877D01*
X-13166054Y856358D01*
X-13148406Y914036D01*
X-13125915Y963825D01*
X-13097931Y1008641D01*
X-13063805Y1051401D01*
X-13042168Y1075112D01*
X-12989254Y1140322D01*
X-12948524Y1209228D01*
X-12923150Y1275565D01*
X-12916025Y1324257D01*
X-12924217Y1370619D01*
X-12948133Y1434055D01*
X-12986492Y1512772D01*
X-13038013Y1604977D01*
X-13101415Y1708875D01*
X-13175417Y1822672D01*
X-13258739Y1944577D01*
X-13350099Y2072794D01*
X-13448216Y2205530D01*
X-13551811Y2340991D01*
X-13659602Y2477385D01*
X-13770307Y2612916D01*
X-13882647Y2745793D01*
X-13995340Y2874220D01*
X-14107106Y2996405D01*
X-14119772Y3009900D01*
X-14233318Y3130550D01*
X-14022342Y3343802D01*
X-12509500Y3343802D01*
X-12503665Y3304219D01*
X-12485573Y3253138D01*
X-12454344Y3188863D01*
X-12409097Y3109694D01*
X-12348952Y3013935D01*
X-12299952Y2939754D01*
X-12212036Y2811865D01*
X-12115886Y2677721D01*
X-12013005Y2539070D01*
X-11904893Y2397659D01*
X-11793052Y2255234D01*
X-11678983Y2113543D01*
X-11564187Y1974334D01*
X-11450166Y1839352D01*
X-11338421Y1710347D01*
X-11230453Y1589063D01*
X-11127763Y1477250D01*
X-11031854Y1376653D01*
X-10944225Y1289021D01*
X-10866378Y1216099D01*
X-10799816Y1159636D01*
X-10746038Y1121379D01*
X-10729480Y1112085D01*
X-10662093Y1087589D01*
X-10596303Y1081092D01*
X-10537870Y1092447D01*
X-10496056Y1118065D01*
X-10481443Y1134130D01*
X-10468116Y1154424D01*
X-10455994Y1180171D01*
X-10444995Y1212594D01*
X-10435039Y1252915D01*
X-10426045Y1302357D01*
X-10417933Y1362142D01*
X-10410620Y1433495D01*
X-10404027Y1517636D01*
X-10398072Y1615790D01*
X-10392674Y1729178D01*
X-10387753Y1859024D01*
X-10383228Y2006551D01*
X-10379018Y2172980D01*
X-10375042Y2359535D01*
X-10371219Y2567439D01*
X-10367469Y2797914D01*
X-10363710Y3052183D01*
X-10362518Y3136900D01*
X-10359316Y3385867D01*
X-10357032Y3610729D01*
X-10355726Y3812771D01*
X-10355458Y3993274D01*
X-10356286Y4153520D01*
X-10358271Y4294792D01*
X-10361472Y4418371D01*
X-10365949Y4525540D01*
X-10371760Y4617582D01*
X-10378967Y4695777D01*
X-10387628Y4761410D01*
X-10397802Y4815761D01*
X-10409550Y4860113D01*
X-10422931Y4895748D01*
X-10438005Y4923948D01*
X-10446063Y4935489D01*
X-10476460Y4968196D01*
X-10509642Y4994066D01*
X-10515627Y4997464D01*
X-10571277Y5019149D01*
X-10643309Y5037032D01*
X-10722789Y5049360D01*
X-10800781Y5054380D01*
X-10805923Y5054413D01*
X-10860938Y5052819D01*
X-10902339Y5045967D01*
X-10941786Y5031146D01*
X-10972331Y5015726D01*
X-11046871Y4969969D01*
X-11136181Y4904405D01*
X-11239728Y4819496D01*
X-11356977Y4715706D01*
X-11487394Y4593500D01*
X-11630446Y4453342D01*
X-11697613Y4385740D01*
X-11838632Y4240198D01*
X-11968789Y4100768D01*
X-12087170Y3968621D01*
X-12192864Y3844930D01*
X-12284957Y3730864D01*
X-12362537Y3627596D01*
X-12424691Y3536295D01*
X-12470507Y3458135D01*
X-12499072Y3394285D01*
X-12509473Y3345917D01*
X-12509500Y3343802D01*
X-14022342Y3343802D01*
X-13736534Y3632692D01*
X-13556728Y3815441D01*
X-13395401Y3981542D01*
X-13252198Y4131390D01*
X-13126763Y4265380D01*
X-13018741Y4383907D01*
X-12927776Y4487364D01*
X-12853514Y4576148D01*
X-12795599Y4650651D01*
X-12753676Y4711270D01*
X-12732479Y4747930D01*
X-12718864Y4781540D01*
X-12719567Y4809011D01*
X-12726030Y4827520D01*
X-12750850Y4866152D01*
X-12793689Y4911003D01*
X-12849463Y4957739D01*
X-12913086Y5002026D01*
X-12967917Y5033668D01*
X-13023846Y5064354D01*
X-13070404Y5094784D01*
X-13108443Y5127553D01*
X-13138811Y5165254D01*
X-13162358Y5210483D01*
X-13179934Y5265834D01*
X-13192390Y5333902D01*
X-13200573Y5417281D01*
X-13205335Y5518566D01*
X-13207526Y5640352D01*
X-13208000Y5766719D01*
X-13208000Y6096000D01*
X-6079624Y6096000D01*
X-6087510Y5915025D01*
X-6089185Y5871070D01*
X-6091397Y5804374D01*
X-6094072Y5717591D01*
X-6097134Y5613372D01*
X-6100509Y5494371D01*
X-6104123Y5363240D01*
X-6107900Y5222631D01*
X-6111765Y5075198D01*
X-6115645Y4923592D01*
X-6117258Y4859402D01*
X-6139119Y3984753D01*
X-6381085Y3992902D01*
X-6509577Y3997347D01*
X-6615056Y4001347D01*
X-6699902Y4005128D01*
X-6766493Y4008915D01*
X-6817208Y4012933D01*
X-6854425Y4017407D01*
X-6880524Y4022562D01*
X-6897883Y4028624D01*
X-6908880Y4035817D01*
X-6915317Y4043462D01*
X-6937206Y4091927D01*
X-6955181Y4163408D01*
X-6968837Y4255765D01*
X-6977771Y4366857D01*
X-6978292Y4376954D01*
X-6989841Y4524572D01*
X-7009631Y4649883D01*
X-7039102Y4755053D01*
X-7079694Y4842248D01*
X-7132845Y4913633D01*
X-7199996Y4971373D01*
X-7282586Y5017635D01*
X-7382054Y5054584D01*
X-7439233Y5070410D01*
X-7481887Y5080368D01*
X-7522618Y5087674D01*
X-7566520Y5092715D01*
X-7618687Y5095879D01*
X-7684214Y5097552D01*
X-7768195Y5098121D01*
X-7804150Y5098130D01*
X-7898025Y5097645D01*
X-7971763Y5096108D01*
X-8030616Y5093131D01*
X-8079840Y5088325D01*
X-8124688Y5081301D01*
X-8170413Y5071668D01*
X-8174638Y5070686D01*
X-8265187Y5046121D01*
X-8353405Y5016005D01*
X-8432948Y4982876D01*
X-8497470Y4949272D01*
X-8526175Y4930059D01*
X-8571889Y4884672D01*
X-8607582Y4824911D01*
X-8633683Y4748917D01*
X-8650621Y4654834D01*
X-8658826Y4540802D01*
X-8658727Y4404965D01*
X-8657256Y4362450D01*
X-8646261Y4217591D01*
X-8625472Y4093640D01*
X-8593975Y3987708D01*
X-8550856Y3896906D01*
X-8495203Y3818345D01*
X-8479631Y3800721D01*
X-8424296Y3747075D01*
X-8366534Y3705976D01*
X-8301573Y3675567D01*
X-8224642Y3653988D01*
X-8130969Y3639382D01*
X-8045924Y3631822D01*
X-7972132Y3625935D01*
X-7919258Y3619610D01*
X-7882821Y3612043D01*
X-7858340Y3602430D01*
X-7849074Y3596525D01*
X-7832964Y3583496D01*
X-7819550Y3568875D01*
X-7808561Y3550315D01*
X-7799725Y3525468D01*
X-7792771Y3491987D01*
X-7787428Y3447525D01*
X-7783425Y3389733D01*
X-7780490Y3316266D01*
X-7778352Y3224775D01*
X-7776740Y3112912D01*
X-7775382Y2978331D01*
X-7775194Y2957202D01*
X-7770640Y2440954D01*
X-8041395Y2435434D01*
X-8150254Y2432574D01*
X-8237421Y2428315D01*
X-8306599Y2421739D01*
X-8361493Y2411931D01*
X-8405805Y2397972D01*
X-8443239Y2378947D01*
X-8477499Y2353938D01*
X-8512287Y2322029D01*
X-8516561Y2317805D01*
X-8559410Y2267675D01*
X-8592646Y2210099D01*
X-8617996Y2140480D01*
X-8637190Y2054217D01*
X-8650188Y1962394D01*
X-8655983Y1889772D01*
X-8658741Y1803362D01*
X-8658642Y1709911D01*
X-8655866Y1616165D01*
X-8650595Y1528872D01*
X-8643007Y1454779D01*
X-8635425Y1409700D01*
X-8604736Y1311294D01*
X-8559386Y1232864D01*
X-8497922Y1172693D01*
X-8418889Y1129060D01*
X-8388779Y1118023D01*
X-8338423Y1103456D01*
X-8283290Y1091823D01*
X-8220854Y1083028D01*
X-8148593Y1076975D01*
X-8063981Y1073569D01*
X-7964493Y1072714D01*
X-7847607Y1074316D01*
X-7710796Y1078278D01*
X-7551536Y1084505D01*
X-7528558Y1085497D01*
X-7419887Y1090444D01*
X-7319274Y1095427D01*
X-7229523Y1100276D01*
X-7153436Y1104822D01*
X-7093815Y1108896D01*
X-7053462Y1112330D01*
X-7035180Y1114952D01*
X-7034449Y1115327D01*
X-7031588Y1129981D01*
X-7027825Y1166284D01*
X-7023445Y1220510D01*
X-7018736Y1288937D01*
X-7013987Y1367839D01*
X-7011706Y1409700D01*
X-7003308Y1556191D01*
X-6994484Y1679782D01*
X-6984725Y1782974D01*
X-6973516Y1868267D01*
X-6960346Y1938162D01*
X-6944703Y1995160D01*
X-6926075Y2041760D01*
X-6903948Y2080463D01*
X-6877812Y2113770D01*
X-6864638Y2127631D01*
X-6827029Y2159374D01*
X-6782401Y2185074D01*
X-6728507Y2204985D01*
X-6663098Y2219363D01*
X-6583926Y2228462D01*
X-6488743Y2232537D01*
X-6375301Y2231844D01*
X-6241352Y2226637D01*
X-6084648Y2217171D01*
X-6078601Y2216757D01*
X-5991494Y2211209D01*
X-5912788Y2207023D01*
X-5846022Y2204318D01*
X-5794734Y2203218D01*
X-5762464Y2203842D01*
X-5752766Y2205610D01*
X-5747813Y2218956D01*
X-5736254Y2254557D01*
X-5718722Y2310323D01*
X-5695846Y2384163D01*
X-5668258Y2473986D01*
X-5636588Y2577700D01*
X-5601469Y2693213D01*
X-5563531Y2818436D01*
X-5523404Y2951277D01*
X-5481721Y3089644D01*
X-5439112Y3231446D01*
X-5431609Y3256482D01*
X-4504169Y3256482D01*
X-4502964Y3184544D01*
X-4491200Y3125862D01*
X-4468144Y3076860D01*
X-4433066Y3033964D01*
X-4385233Y2993597D01*
X-4383233Y2992123D01*
X-4265667Y2920743D01*
X-4140209Y2872450D01*
X-4009618Y2847825D01*
X-3876654Y2847450D01*
X-3774832Y2863948D01*
X-3664030Y2900616D01*
X-3565755Y2956661D01*
X-3490340Y3019346D01*
X-3450003Y3059656D01*
X-3416746Y3098407D01*
X-3390541Y3137903D01*
X-3371362Y3180450D01*
X-3359184Y3228352D01*
X-3353980Y3283914D01*
X-3355725Y3349442D01*
X-3364392Y3427240D01*
X-3379955Y3519614D01*
X-3402387Y3628867D01*
X-3431664Y3757306D01*
X-3467759Y3907236D01*
X-3479741Y3956050D01*
X-3521690Y4122560D01*
X-3560040Y4265645D01*
X-3595564Y4386899D01*
X-3629036Y4487918D01*
X-3661229Y4570296D01*
X-3692917Y4635630D01*
X-3724873Y4685513D01*
X-3744100Y4706507D01*
X-2324026Y4706507D01*
X-2322285Y4637708D01*
X-2316868Y4564079D01*
X-2307353Y4483651D01*
X-2293320Y4394452D01*
X-2274347Y4294510D01*
X-2250011Y4181856D01*
X-2219893Y4054517D01*
X-2183570Y3910523D01*
X-2140621Y3747903D01*
X-2090625Y3564685D01*
X-2044545Y3399376D01*
X-1998058Y3233292D01*
X-1957571Y3087227D01*
X-1921947Y2956819D01*
X-1890052Y2837710D01*
X-1860749Y2725539D01*
X-1832904Y2615948D01*
X-1805380Y2504576D01*
X-1777043Y2387063D01*
X-1746757Y2259051D01*
X-1739674Y2228850D01*
X-1704055Y2083877D01*
X-1665899Y1941415D01*
X-1626230Y1804574D01*
X-1586073Y1676465D01*
X-1546451Y1560197D01*
X-1508389Y1458881D01*
X-1472912Y1375626D01*
X-1441042Y1313543D01*
X-1434914Y1303502D01*
X-1397339Y1256014D01*
X-1350032Y1222248D01*
X-1330197Y1212331D01*
X-1264774Y1189180D01*
X-1202666Y1180493D01*
X-1149488Y1186334D01*
X-1110858Y1206772D01*
X-1107960Y1209675D01*
X-1091761Y1230409D01*
X-1077124Y1257194D01*
X-1063936Y1291407D01*
X-1052082Y1334426D01*
X-1041450Y1387629D01*
X-1031924Y1452393D01*
X-1023392Y1530095D01*
X-1015738Y1622114D01*
X-1008851Y1729827D01*
X-1002615Y1854611D01*
X-996916Y1997844D01*
X-991641Y2160904D01*
X-986677Y2345168D01*
X-981908Y2552013D01*
X-977222Y2782818D01*
X-977007Y2794000D01*
X-974284Y2953937D01*
X-971963Y3126196D01*
X-970079Y3305439D01*
X-968666Y3486328D01*
X-967758Y3663524D01*
X-967390Y3831691D01*
X-967594Y3985489D01*
X-968406Y4119581D01*
X-968481Y4127500D01*
X-970118Y4287408D01*
X-972037Y4424088D01*
X-974750Y4539710D01*
X-978769Y4636445D01*
X-984608Y4716464D01*
X-992778Y4781937D01*
X-1003793Y4835035D01*
X-1018164Y4877929D01*
X-1036403Y4912790D01*
X-1059025Y4941787D01*
X-1086540Y4967093D01*
X-1119462Y4990876D01*
X-1158302Y5015309D01*
X-1181357Y5029200D01*
X-1278251Y5093013D01*
X-1365119Y5161292D01*
X-1437098Y5229881D01*
X-1485973Y5289655D01*
X-1539223Y5345533D01*
X-1606898Y5382163D01*
X-1684503Y5397240D01*
X-1696483Y5397500D01*
X-1765781Y5388698D01*
X-1822208Y5360649D01*
X-1869862Y5310892D01*
X-1888790Y5282020D01*
X-1944455Y5201492D01*
X-2006786Y5139341D01*
X-2083262Y5088841D01*
X-2129024Y5065911D01*
X-2198847Y5028094D01*
X-2250784Y4985607D01*
X-2287047Y4934374D01*
X-2309847Y4870318D01*
X-2321398Y4789363D01*
X-2324026Y4706507D01*
X-3744100Y4706507D01*
X-3757872Y4721543D01*
X-3792686Y4745312D01*
X-3830089Y4758417D01*
X-3870831Y4762453D01*
X-3941293Y4750438D01*
X-4009094Y4714192D01*
X-4074289Y4653600D01*
X-4136931Y4568545D01*
X-4197074Y4458913D01*
X-4254772Y4324589D01*
X-4310077Y4165456D01*
X-4363044Y3981400D01*
X-4413726Y3772304D01*
X-4462176Y3538055D01*
X-4477827Y3454430D01*
X-4495546Y3345252D01*
X-4504169Y3256482D01*
X-5431609Y3256482D01*
X-5396208Y3374592D01*
X-5353641Y3516991D01*
X-5312041Y3656552D01*
X-5272039Y3791183D01*
X-5234267Y3918793D01*
X-5199355Y4037292D01*
X-5176634Y4114800D01*
X-5133578Y4266416D01*
X-5097494Y4402669D01*
X-5068839Y4521619D01*
X-5048074Y4621325D01*
X-5035655Y4699849D01*
X-5033453Y4720929D01*
X-5031123Y4794504D01*
X-5040481Y4853203D01*
X-5064487Y4903514D01*
X-5106103Y4951928D01*
X-5160105Y4998483D01*
X-5245675Y5068286D01*
X-5312294Y5127711D01*
X-5362334Y5180180D01*
X-5398167Y5229116D01*
X-5422166Y5277943D01*
X-5436703Y5330084D01*
X-5444150Y5388960D01*
X-5445444Y5410200D01*
X-5445268Y5458629D01*
X-5441479Y5527271D01*
X-5434586Y5611279D01*
X-5425097Y5705802D01*
X-5413522Y5805992D01*
X-5400369Y5906999D01*
X-5386147Y6003975D01*
X-5377699Y6055932D01*
X-5370497Y6098413D01*
X-3977474Y6092187D01*
X-3741914Y6091070D01*
X-3530001Y6089906D01*
X-3339985Y6088652D01*
X-3170111Y6087265D01*
X-3018629Y6085700D01*
X-2883786Y6083915D01*
X-2763829Y6081865D01*
X-2657007Y6079508D01*
X-2561567Y6076801D01*
X-2475757Y6073699D01*
X-2397825Y6070159D01*
X-2326018Y6066138D01*
X-2258585Y6061592D01*
X-2193774Y6056478D01*
X-2129831Y6050753D01*
X-2070100Y6044891D01*
X-2007303Y6037768D01*
X-1963000Y6030211D01*
X-1930330Y6020287D01*
X-1902430Y6006062D01*
X-1880664Y5991518D01*
X-1813357Y5958554D01*
X-1735445Y5944915D01*
X-1652515Y5950357D01*
X-1570150Y5974631D01*
X-1507565Y6008008D01*
X-1444881Y6038663D01*
X-1365711Y6057064D01*
X-1364275Y6057271D01*
X-1275151Y6067509D01*
X-1162329Y6076072D01*
X-1025558Y6082968D01*
X-864588Y6088204D01*
X-679165Y6091787D01*
X-469040Y6093724D01*
X-233962Y6094023D01*
X-89143Y6093465D01*
X602764Y6089650D01*
X874116Y5600700D01*
X1044300Y5292376D01*
X1204420Y4998670D01*
X1358095Y4712800D01*
X1508943Y4427984D01*
X1660583Y4137441D01*
X1816633Y3834389D01*
X1819365Y3829050D01*
X1888889Y3693356D01*
X1948256Y3577964D01*
X1998760Y3480506D01*
X2041697Y3398613D01*
X2078362Y3329917D01*
X2110049Y3272048D01*
X2138052Y3222638D01*
X2163668Y3179317D01*
X2188191Y3139717D01*
X2212914Y3101469D01*
X2235864Y3067050D01*
X2298925Y2980641D01*
X2357323Y2916672D01*
X2413565Y2873216D01*
X2470157Y2848346D01*
X2529604Y2840133D01*
X2530919Y2840125D01*
X2574767Y2843414D01*
X2605324Y2856309D01*
X2624292Y2872520D01*
X2638473Y2887788D01*
X2650661Y2904438D01*
X2661026Y2924439D01*
X2669736Y2949760D01*
X2676959Y2982367D01*
X2682863Y3024230D01*
X2687617Y3077317D01*
X2691389Y3143597D01*
X2694347Y3225037D01*
X2696661Y3323607D01*
X2698497Y3441274D01*
X2700025Y3580007D01*
X2701413Y3741773D01*
X2701691Y3777405D01*
X2702916Y3968059D01*
X2703361Y4135105D01*
X2702888Y4280329D01*
X2701361Y4405514D01*
X2698641Y4512447D01*
X2694592Y4602910D01*
X2689075Y4678689D01*
X2681955Y4741569D01*
X2673092Y4793333D01*
X2662350Y4835767D01*
X2649592Y4870655D01*
X2634679Y4899782D01*
X2617475Y4924932D01*
X2612890Y4930696D01*
X2590052Y4950943D01*
X2550527Y4978456D01*
X2500389Y5009226D01*
X2458755Y5032413D01*
X2402183Y5063472D01*
X2355397Y5092724D01*
X2317417Y5122904D01*
X2287264Y5156748D01*
X2263958Y5196990D01*
X2246520Y5246366D01*
X2233970Y5307611D01*
X2225331Y5383460D01*
X2219621Y5476648D01*
X2215861Y5589910D01*
X2213212Y5718175D01*
X2206456Y6096000D01*
X2566903Y6096126D01*
X2756896Y6097338D01*
X2923284Y6100950D01*
X3067762Y6107135D01*
X3192026Y6116065D01*
X3297773Y6127916D01*
X3386699Y6142859D01*
X3460501Y6161070D01*
X3520874Y6182721D01*
X3549917Y6196661D01*
X3580205Y6210801D01*
X3616206Y6223488D01*
X3659359Y6234810D01*
X3711102Y6244855D01*
X3772876Y6253710D01*
X3846119Y6261461D01*
X3932271Y6268197D01*
X4032772Y6274005D01*
X4149059Y6278972D01*
X4282574Y6283185D01*
X4434754Y6286732D01*
X4607040Y6289700D01*
X4800870Y6292176D01*
X5017684Y6294248D01*
X5178425Y6295466D01*
X6172200Y6302359D01*
X6171998Y5980105D01*
G04 #@! TA.AperFunction,EtchedComponent*
G36*
X6171998Y5980105D02*
G01*
X6170781Y5812055D01*
X6167310Y5668432D01*
X6161521Y5548359D01*
X6153352Y5450956D01*
X6142738Y5375346D01*
X6129614Y5320651D01*
X6122617Y5302046D01*
X6098772Y5260268D01*
X6065780Y5227567D01*
X6018102Y5199664D01*
X5958417Y5175250D01*
X5933733Y5165619D01*
X5911420Y5154796D01*
X5891358Y5141517D01*
X5873427Y5124516D01*
X5857509Y5102531D01*
X5843483Y5074296D01*
X5831231Y5038547D01*
X5820631Y4994020D01*
X5811566Y4939449D01*
X5803915Y4873571D01*
X5797559Y4795121D01*
X5792377Y4702834D01*
X5788252Y4595447D01*
X5785062Y4471695D01*
X5782689Y4330312D01*
X5781013Y4170036D01*
X5779914Y3989600D01*
X5779273Y3787742D01*
X5778970Y3563196D01*
X5778885Y3314698D01*
X5778884Y3276600D01*
X5778985Y3031435D01*
X5779335Y2810253D01*
X5780002Y2611641D01*
X5781052Y2434182D01*
X5782555Y2276463D01*
X5784575Y2137067D01*
X5787182Y2014580D01*
X5790442Y1907587D01*
X5794422Y1814672D01*
X5799190Y1734421D01*
X5804813Y1665418D01*
X5811359Y1606248D01*
X5818895Y1555496D01*
X5827487Y1511747D01*
X5837204Y1473587D01*
X5848112Y1439599D01*
X5860280Y1408368D01*
X5868638Y1389437D01*
X5896304Y1344047D01*
X5939877Y1289600D01*
X5994180Y1231206D01*
X6054036Y1173976D01*
X6114269Y1123020D01*
X6169704Y1083447D01*
X6191250Y1070953D01*
X6270185Y1032218D01*
X6341365Y1004640D01*
X6412198Y986541D01*
X6490092Y976244D01*
X6582458Y972070D01*
X6629400Y971741D01*
X6704388Y972217D01*
X6760407Y973997D01*
X6803878Y977881D01*
X6841228Y984671D01*
X6878881Y995164D01*
X6915150Y1007325D01*
X7007918Y1044778D01*
X7090656Y1089879D01*
X7164030Y1144165D01*
X7228704Y1209174D01*
X7285344Y1286440D01*
X7334615Y1377503D01*
X7377182Y1483897D01*
X7413709Y1607161D01*
X7444863Y1748830D01*
X7471309Y1910442D01*
X7493711Y2093534D01*
X7512735Y2299641D01*
X7520823Y2406650D01*
X7524038Y2465173D01*
X7526926Y2543989D01*
X7529485Y2640729D01*
X7531715Y2753022D01*
X7533616Y2878498D01*
X7535186Y3014786D01*
X7536427Y3159515D01*
X7537336Y3310317D01*
X7537913Y3464819D01*
X7538158Y3620651D01*
X7538071Y3775444D01*
X7537651Y3926826D01*
X7536897Y4072428D01*
X7535810Y4209879D01*
X7534387Y4336808D01*
X7532629Y4450845D01*
X7530536Y4549619D01*
X7528107Y4630761D01*
X7525341Y4691899D01*
X7522238Y4730663D01*
X7521323Y4737100D01*
X7499775Y4831332D01*
X7467762Y4910308D01*
X7421361Y4980706D01*
X7356650Y5049205D01*
X7317970Y5083340D01*
X7245465Y5147428D01*
X7190894Y5203296D01*
X7150456Y5255869D01*
X7120354Y5310073D01*
X7097238Y5369460D01*
X7089509Y5394207D01*
X7083275Y5418811D01*
X7078332Y5446374D01*
X7074478Y5479998D01*
X7071510Y5522786D01*
X7069226Y5577839D01*
X7067424Y5648260D01*
X7065900Y5737149D01*
X7064453Y5847610D01*
X7064103Y5876925D01*
X7059120Y6299200D01*
X8940800Y6299200D01*
X8940499Y5984875D01*
X8939291Y5829509D01*
X8936048Y5690134D01*
X8930871Y5568582D01*
X8923865Y5466685D01*
X8915130Y5386275D01*
X8904770Y5329183D01*
X8903514Y5324325D01*
X8883015Y5269533D01*
X8853692Y5234766D01*
X8810062Y5214870D01*
X8780680Y5208811D01*
X8702737Y5188927D01*
X8641886Y5157187D01*
X8601290Y5115366D01*
X8595187Y5104582D01*
X8587687Y5085148D01*
X8580882Y5057538D01*
X8574722Y5020451D01*
X8569154Y4972582D01*
X8564127Y4912627D01*
X8559590Y4839283D01*
X8555491Y4751247D01*
X8551778Y4647214D01*
X8548400Y4525881D01*
X8545306Y4385945D01*
X8542443Y4226101D01*
X8539761Y4045046D01*
X8537207Y3841477D01*
X8534730Y3614090D01*
X8534207Y3562350D01*
X8532370Y3392221D01*
X8530313Y3225941D01*
X8528080Y3065746D01*
X8525712Y2913870D01*
X8523253Y2772549D01*
X8520745Y2644018D01*
X8518231Y2530511D01*
X8515754Y2434263D01*
X8513356Y2357510D01*
X8511080Y2302487D01*
X8509702Y2279650D01*
X8485537Y2007365D01*
X8455827Y1758638D01*
X8420152Y1532150D01*
X8378092Y1326584D01*
X8329226Y1140620D01*
X8273134Y972939D01*
X8209396Y822223D01*
X8137591Y687151D01*
X8057300Y566407D01*
X7968100Y458669D01*
X7910780Y400342D01*
X7826009Y324583D01*
X7743101Y262800D01*
X7652597Y208554D01*
X7563420Y163933D01*
X7409482Y102878D01*
X7234645Y54253D01*
X7038662Y18026D01*
X6821286Y-5836D01*
X6582266Y-17365D01*
X6321356Y-16592D01*
X6199747Y-12372D01*
X6007672Y-2694D01*
X5838264Y8912D01*
X5688825Y23072D01*
X5556655Y40407D01*
X5439057Y61543D01*
X5333331Y87101D01*
X5236778Y117706D01*
X5146699Y153980D01*
X5060396Y196549D01*
X4975170Y246034D01*
X4916149Y284157D01*
X4773391Y387677D01*
X4653089Y493310D01*
X4552350Y604801D01*
X4468280Y725898D01*
X4397989Y860349D01*
X4338584Y1011900D01*
X4326739Y1047750D01*
X4300465Y1135314D01*
X4276322Y1228232D01*
X4254157Y1328023D01*
X4233821Y1436206D01*
X4215161Y1554299D01*
X4198029Y1683821D01*
X4182271Y1826290D01*
X4167738Y1983225D01*
X4154278Y2156145D01*
X4141741Y2346567D01*
X4129976Y2556010D01*
X4118831Y2785993D01*
X4108156Y3038035D01*
X4097800Y3313653D01*
X4095750Y3371850D01*
X4087753Y3595885D01*
X4080184Y3796024D01*
X4072933Y3973769D01*
X4065891Y4130618D01*
X4058950Y4268071D01*
X4052000Y4387629D01*
X4044933Y4490791D01*
X4037641Y4579055D01*
X4030013Y4653924D01*
X4021941Y4716895D01*
X4013316Y4769468D01*
X4004030Y4813144D01*
X3993974Y4849421D01*
X3987021Y4869616D01*
X3966474Y4913994D01*
X3943247Y4948490D01*
X3929832Y4961054D01*
X3905277Y4970942D01*
X3861975Y4982499D01*
X3806375Y4994183D01*
X3753992Y5003104D01*
X3608593Y5025209D01*
X3601865Y4935130D01*
X3601052Y4913102D01*
X3600047Y4867006D01*
X3598866Y4798172D01*
X3597524Y4707930D01*
X3596035Y4597612D01*
X3594415Y4468548D01*
X3592678Y4322068D01*
X3590840Y4159504D01*
X3588914Y3982185D01*
X3586916Y3791443D01*
X3584862Y3588608D01*
X3582764Y3375010D01*
X3580640Y3151980D01*
X3578502Y2920850D01*
X3576367Y2682949D01*
X3575170Y2546350D01*
X3573039Y2304791D01*
X3570895Y2069002D01*
X3568753Y1840334D01*
X3566627Y1620136D01*
X3564534Y1409759D01*
X3562488Y1210550D01*
X3560504Y1023860D01*
X3558598Y851039D01*
X3556783Y693435D01*
X3555076Y552398D01*
X3553491Y429278D01*
X3552044Y325424D01*
X3550749Y242185D01*
X3549622Y180912D01*
X3548677Y142953D01*
X3548245Y132566D01*
X3541288Y17482D01*
X3164469Y2185D01*
X2981931Y-4643D01*
X2822894Y-9161D01*
X2685544Y-11156D01*
X2568067Y-10412D01*
X2468651Y-6717D01*
X2385482Y145D01*
X2316747Y10386D01*
X2260633Y24223D01*
X2215326Y41867D01*
X2179014Y63534D01*
X2149882Y89437D01*
X2126119Y119792D01*
X2122615Y125199D01*
X2095808Y169817D01*
X2057987Y236198D01*
X2009625Y323450D01*
X1951197Y430682D01*
X1883177Y557003D01*
X1806040Y701523D01*
X1720260Y863351D01*
X1626311Y1041595D01*
X1524667Y1235365D01*
X1415803Y1443770D01*
X1300194Y1665919D01*
X1218967Y1822450D01*
X1103229Y2045072D01*
X998003Y2245982D01*
X902637Y2426284D01*
X816476Y2587079D01*
X738867Y2729471D01*
X669155Y2854562D01*
X606687Y2963455D01*
X550808Y3057252D01*
X500866Y3137055D01*
X456206Y3203968D01*
X416174Y3259092D01*
X380117Y3303531D01*
X347380Y3338386D01*
X317311Y3364761D01*
X295115Y3380262D01*
X249175Y3397458D01*
X193976Y3402371D01*
X139433Y3395453D01*
X95464Y3377152D01*
X87253Y3370822D01*
X66500Y3348029D01*
X48139Y3317676D01*
X31984Y3278151D01*
X17847Y3227844D01*
X5540Y3165143D01*
X-5122Y3088438D01*
X-14328Y2996117D01*
X-22265Y2886569D01*
X-29119Y2758184D01*
X-35078Y2609351D01*
X-40328Y2438458D01*
X-45058Y2243895D01*
X-45385Y2228850D01*
X-47952Y2032769D01*
X-46491Y1860248D01*
X-40755Y1709730D01*
X-30497Y1579657D01*
X-15470Y1468473D01*
X4573Y1374621D01*
X29879Y1296542D01*
X60695Y1232681D01*
X97268Y1181481D01*
X125140Y1153461D01*
X154834Y1132046D01*
X200825Y1104256D01*
X256223Y1074080D01*
X300929Y1051740D01*
X360705Y1021751D01*
X408911Y992905D01*
X446784Y962114D01*
X475562Y926294D01*
X496482Y882357D01*
X510781Y827217D01*
X519696Y757788D01*
X524465Y670985D01*
X526325Y563721D01*
X526560Y488950D01*
X525240Y358809D01*
X520766Y251401D01*
X512502Y164185D01*
X499814Y94619D01*
X482065Y40163D01*
X458622Y-1726D01*
X428848Y-33589D01*
X392109Y-57967D01*
X389523Y-59323D01*
X359165Y-69416D01*
X309801Y-77957D01*
X241000Y-84945D01*
X152326Y-90374D01*
X43347Y-94243D01*
X-86372Y-96548D01*
X-237264Y-97286D01*
X-409763Y-96453D01*
X-604303Y-94047D01*
X-821317Y-90064D01*
X-1061239Y-84501D01*
X-1324503Y-77355D01*
X-1611543Y-68622D01*
X-1922792Y-58300D01*
X-2258684Y-46384D01*
X-2482850Y-38069D01*
X-2640422Y-32141D01*
X-2790785Y-26494D01*
X-2931988Y-21202D01*
X-3062079Y-16337D01*
X-3179107Y-11973D01*
X-3281121Y-8181D01*
X-3366169Y-5035D01*
X-3432299Y-2607D01*
X-3477560Y-969D01*
X-3500001Y-194D01*
X-3502025Y-141D01*
X-3507278Y5633D01*
X-3511321Y24426D01*
X-3514279Y58603D01*
X-3516276Y110530D01*
X-3517437Y182572D01*
X-3517885Y277095D01*
X-3517900Y302468D01*
X-3517071Y435723D01*
X-3513817Y546514D01*
X-3506992Y637744D01*
X-3495448Y712317D01*
X-3478038Y773138D01*
X-3453615Y823109D01*
X-3421031Y865135D01*
X-3379140Y902118D01*
X-3326793Y936964D01*
X-3262845Y972575D01*
X-3250611Y978979D01*
X-3194327Y1011642D01*
X-3138127Y1049845D01*
X-3092347Y1086440D01*
X-3084282Y1093972D01*
X-3017863Y1174220D01*
X-2971238Y1264127D01*
X-2945323Y1359556D01*
X-2941033Y1456366D01*
X-2959283Y1550417D01*
X-2974673Y1589823D01*
X-3019561Y1668811D01*
X-3077554Y1736011D01*
X-3150782Y1792639D01*
X-3241374Y1839913D01*
X-3351461Y1879050D01*
X-3483173Y1911268D01*
X-3563091Y1926057D01*
X-3645969Y1936591D01*
X-3747980Y1944200D01*
X-3863024Y1948887D01*
X-3985005Y1950653D01*
X-4107823Y1949499D01*
X-4225381Y1945429D01*
X-4331579Y1938443D01*
X-4420320Y1928543D01*
X-4437910Y1925806D01*
X-4572691Y1899590D01*
X-4684860Y1868939D01*
X-4777023Y1832449D01*
X-4851785Y1788714D01*
X-4911752Y1736329D01*
X-4959532Y1673889D01*
X-4982970Y1631945D01*
X-5021666Y1527000D01*
X-5035738Y1418214D01*
X-5025204Y1307894D01*
X-4990084Y1198351D01*
X-4979141Y1174750D01*
X-4945375Y1115329D01*
X-4905341Y1065769D01*
X-4854114Y1021600D01*
X-4786768Y978350D01*
X-4727245Y946150D01*
X-4667410Y913779D01*
X-4619970Y882840D01*
X-4583504Y849922D01*
X-4556589Y811613D01*
X-4537803Y764500D01*
X-4525723Y705170D01*
X-4518926Y630213D01*
X-4515991Y536216D01*
X-4515470Y438150D01*
X-4516696Y324867D01*
X-4520632Y233341D01*
X-4527928Y160012D01*
X-4539232Y101321D01*
X-4555193Y53709D01*
X-4576462Y13616D01*
X-4598305Y-16132D01*
X-4618614Y-37507D01*
X-4642476Y-54408D01*
X-4673329Y-67613D01*
X-4714609Y-77900D01*
X-4769754Y-86048D01*
X-4842201Y-92835D01*
X-4935387Y-99041D01*
X-4974076Y-101249D01*
X-5031147Y-104357D01*
X-5081996Y-106900D01*
X-5129484Y-108877D01*
X-5176470Y-110284D01*
X-5225812Y-111122D01*
X-5280371Y-111387D01*
X-5343004Y-111078D01*
X-5416571Y-110194D01*
X-5503931Y-108731D01*
X-5607944Y-106689D01*
X-5731468Y-104065D01*
X-5877362Y-100857D01*
X-5886450Y-100656D01*
X-6007232Y-98188D01*
X-6152009Y-95593D01*
X-6319376Y-92887D01*
X-6507929Y-90086D01*
X-6716265Y-87204D01*
X-6942978Y-84257D01*
X-7186663Y-81261D01*
X-7445918Y-78232D01*
X-7719336Y-75184D01*
X-8005514Y-72134D01*
X-8303047Y-69096D01*
X-8610531Y-66087D01*
X-8926561Y-63122D01*
X-9249733Y-60215D01*
X-9578642Y-57384D01*
X-9911884Y-54643D01*
X-10248055Y-52008D01*
X-10394950Y-50898D01*
X-10613395Y-49236D01*
X-10832385Y-47515D01*
X-11049760Y-45752D01*
X-11263361Y-43969D01*
X-11471026Y-42185D01*
X-11670596Y-40419D01*
X-11859910Y-38691D01*
X-12036807Y-37022D01*
X-12199128Y-35430D01*
X-12344711Y-33935D01*
X-12471396Y-32558D01*
X-12577024Y-31317D01*
X-12659432Y-30233D01*
X-12660096Y-30224D01*
X-13210742Y-22359D01*
X-13204425Y347596D01*
X-13201233Y488451D01*
X-13196450Y606839D01*
X-13189426Y705675D01*
X-13179511Y787877D01*
X-13166054Y856358D01*
X-13148406Y914036D01*
X-13125915Y963825D01*
X-13097931Y1008641D01*
X-13063805Y1051401D01*
X-13042168Y1075112D01*
X-12989254Y1140322D01*
X-12948524Y1209228D01*
X-12923150Y1275565D01*
X-12916025Y1324257D01*
X-12924217Y1370619D01*
X-12948133Y1434055D01*
X-12986492Y1512772D01*
X-13038013Y1604977D01*
X-13101415Y1708875D01*
X-13175417Y1822672D01*
X-13258739Y1944577D01*
X-13350099Y2072794D01*
X-13448216Y2205530D01*
X-13551811Y2340991D01*
X-13659602Y2477385D01*
X-13770307Y2612916D01*
X-13882647Y2745793D01*
X-13995340Y2874220D01*
X-14107106Y2996405D01*
X-14119772Y3009900D01*
X-14233318Y3130550D01*
X-14022342Y3343802D01*
X-12509500Y3343802D01*
X-12503665Y3304219D01*
X-12485573Y3253138D01*
X-12454344Y3188863D01*
X-12409097Y3109694D01*
X-12348952Y3013935D01*
X-12299952Y2939754D01*
X-12212036Y2811865D01*
X-12115886Y2677721D01*
X-12013005Y2539070D01*
X-11904893Y2397659D01*
X-11793052Y2255234D01*
X-11678983Y2113543D01*
X-11564187Y1974334D01*
X-11450166Y1839352D01*
X-11338421Y1710347D01*
X-11230453Y1589063D01*
X-11127763Y1477250D01*
X-11031854Y1376653D01*
X-10944225Y1289021D01*
X-10866378Y1216099D01*
X-10799816Y1159636D01*
X-10746038Y1121379D01*
X-10729480Y1112085D01*
X-10662093Y1087589D01*
X-10596303Y1081092D01*
X-10537870Y1092447D01*
X-10496056Y1118065D01*
X-10481443Y1134130D01*
X-10468116Y1154424D01*
X-10455994Y1180171D01*
X-10444995Y1212594D01*
X-10435039Y1252915D01*
X-10426045Y1302357D01*
X-10417933Y1362142D01*
X-10410620Y1433495D01*
X-10404027Y1517636D01*
X-10398072Y1615790D01*
X-10392674Y1729178D01*
X-10387753Y1859024D01*
X-10383228Y2006551D01*
X-10379018Y2172980D01*
X-10375042Y2359535D01*
X-10371219Y2567439D01*
X-10367469Y2797914D01*
X-10363710Y3052183D01*
X-10362518Y3136900D01*
X-10359316Y3385867D01*
X-10357032Y3610729D01*
X-10355726Y3812771D01*
X-10355458Y3993274D01*
X-10356286Y4153520D01*
X-10358271Y4294792D01*
X-10361472Y4418371D01*
X-10365949Y4525540D01*
X-10371760Y4617582D01*
X-10378967Y4695777D01*
X-10387628Y4761410D01*
X-10397802Y4815761D01*
X-10409550Y4860113D01*
X-10422931Y4895748D01*
X-10438005Y4923948D01*
X-10446063Y4935489D01*
X-10476460Y4968196D01*
X-10509642Y4994066D01*
X-10515627Y4997464D01*
X-10571277Y5019149D01*
X-10643309Y5037032D01*
X-10722789Y5049360D01*
X-10800781Y5054380D01*
X-10805923Y5054413D01*
X-10860938Y5052819D01*
X-10902339Y5045967D01*
X-10941786Y5031146D01*
X-10972331Y5015726D01*
X-11046871Y4969969D01*
X-11136181Y4904405D01*
X-11239728Y4819496D01*
X-11356977Y4715706D01*
X-11487394Y4593500D01*
X-11630446Y4453342D01*
X-11697613Y4385740D01*
X-11838632Y4240198D01*
X-11968789Y4100768D01*
X-12087170Y3968621D01*
X-12192864Y3844930D01*
X-12284957Y3730864D01*
X-12362537Y3627596D01*
X-12424691Y3536295D01*
X-12470507Y3458135D01*
X-12499072Y3394285D01*
X-12509473Y3345917D01*
X-12509500Y3343802D01*
X-14022342Y3343802D01*
X-13736534Y3632692D01*
X-13556728Y3815441D01*
X-13395401Y3981542D01*
X-13252198Y4131390D01*
X-13126763Y4265380D01*
X-13018741Y4383907D01*
X-12927776Y4487364D01*
X-12853514Y4576148D01*
X-12795599Y4650651D01*
X-12753676Y4711270D01*
X-12732479Y4747930D01*
X-12718864Y4781540D01*
X-12719567Y4809011D01*
X-12726030Y4827520D01*
X-12750850Y4866152D01*
X-12793689Y4911003D01*
X-12849463Y4957739D01*
X-12913086Y5002026D01*
X-12967917Y5033668D01*
X-13023846Y5064354D01*
X-13070404Y5094784D01*
X-13108443Y5127553D01*
X-13138811Y5165254D01*
X-13162358Y5210483D01*
X-13179934Y5265834D01*
X-13192390Y5333902D01*
X-13200573Y5417281D01*
X-13205335Y5518566D01*
X-13207526Y5640352D01*
X-13208000Y5766719D01*
X-13208000Y6096000D01*
X-6079624Y6096000D01*
X-6087510Y5915025D01*
X-6089185Y5871070D01*
X-6091397Y5804374D01*
X-6094072Y5717591D01*
X-6097134Y5613372D01*
X-6100509Y5494371D01*
X-6104123Y5363240D01*
X-6107900Y5222631D01*
X-6111765Y5075198D01*
X-6115645Y4923592D01*
X-6117258Y4859402D01*
X-6139119Y3984753D01*
X-6381085Y3992902D01*
X-6509577Y3997347D01*
X-6615056Y4001347D01*
X-6699902Y4005128D01*
X-6766493Y4008915D01*
X-6817208Y4012933D01*
X-6854425Y4017407D01*
X-6880524Y4022562D01*
X-6897883Y4028624D01*
X-6908880Y4035817D01*
X-6915317Y4043462D01*
X-6937206Y4091927D01*
X-6955181Y4163408D01*
X-6968837Y4255765D01*
X-6977771Y4366857D01*
X-6978292Y4376954D01*
X-6989841Y4524572D01*
X-7009631Y4649883D01*
X-7039102Y4755053D01*
X-7079694Y4842248D01*
X-7132845Y4913633D01*
X-7199996Y4971373D01*
X-7282586Y5017635D01*
X-7382054Y5054584D01*
X-7439233Y5070410D01*
X-7481887Y5080368D01*
X-7522618Y5087674D01*
X-7566520Y5092715D01*
X-7618687Y5095879D01*
X-7684214Y5097552D01*
X-7768195Y5098121D01*
X-7804150Y5098130D01*
X-7898025Y5097645D01*
X-7971763Y5096108D01*
X-8030616Y5093131D01*
X-8079840Y5088325D01*
X-8124688Y5081301D01*
X-8170413Y5071668D01*
X-8174638Y5070686D01*
X-8265187Y5046121D01*
X-8353405Y5016005D01*
X-8432948Y4982876D01*
X-8497470Y4949272D01*
X-8526175Y4930059D01*
X-8571889Y4884672D01*
X-8607582Y4824911D01*
X-8633683Y4748917D01*
X-8650621Y4654834D01*
X-8658826Y4540802D01*
X-8658727Y4404965D01*
X-8657256Y4362450D01*
X-8646261Y4217591D01*
X-8625472Y4093640D01*
X-8593975Y3987708D01*
X-8550856Y3896906D01*
X-8495203Y3818345D01*
X-8479631Y3800721D01*
X-8424296Y3747075D01*
X-8366534Y3705976D01*
X-8301573Y3675567D01*
X-8224642Y3653988D01*
X-8130969Y3639382D01*
X-8045924Y3631822D01*
X-7972132Y3625935D01*
X-7919258Y3619610D01*
X-7882821Y3612043D01*
X-7858340Y3602430D01*
X-7849074Y3596525D01*
X-7832964Y3583496D01*
X-7819550Y3568875D01*
X-7808561Y3550315D01*
X-7799725Y3525468D01*
X-7792771Y3491987D01*
X-7787428Y3447525D01*
X-7783425Y3389733D01*
X-7780490Y3316266D01*
X-7778352Y3224775D01*
X-7776740Y3112912D01*
X-7775382Y2978331D01*
X-7775194Y2957202D01*
X-7770640Y2440954D01*
X-8041395Y2435434D01*
X-8150254Y2432574D01*
X-8237421Y2428315D01*
X-8306599Y2421739D01*
X-8361493Y2411931D01*
X-8405805Y2397972D01*
X-8443239Y2378947D01*
X-8477499Y2353938D01*
X-8512287Y2322029D01*
X-8516561Y2317805D01*
X-8559410Y2267675D01*
X-8592646Y2210099D01*
X-8617996Y2140480D01*
X-8637190Y2054217D01*
X-8650188Y1962394D01*
X-8655983Y1889772D01*
X-8658741Y1803362D01*
X-8658642Y1709911D01*
X-8655866Y1616165D01*
X-8650595Y1528872D01*
X-8643007Y1454779D01*
X-8635425Y1409700D01*
X-8604736Y1311294D01*
X-8559386Y1232864D01*
X-8497922Y1172693D01*
X-8418889Y1129060D01*
X-8388779Y1118023D01*
X-8338423Y1103456D01*
X-8283290Y1091823D01*
X-8220854Y1083028D01*
X-8148593Y1076975D01*
X-8063981Y1073569D01*
X-7964493Y1072714D01*
X-7847607Y1074316D01*
X-7710796Y1078278D01*
X-7551536Y1084505D01*
X-7528558Y1085497D01*
X-7419887Y1090444D01*
X-7319274Y1095427D01*
X-7229523Y1100276D01*
X-7153436Y1104822D01*
X-7093815Y1108896D01*
X-7053462Y1112330D01*
X-7035180Y1114952D01*
X-7034449Y1115327D01*
X-7031588Y1129981D01*
X-7027825Y1166284D01*
X-7023445Y1220510D01*
X-7018736Y1288937D01*
X-7013987Y1367839D01*
X-7011706Y1409700D01*
X-7003308Y1556191D01*
X-6994484Y1679782D01*
X-6984725Y1782974D01*
X-6973516Y1868267D01*
X-6960346Y1938162D01*
X-6944703Y1995160D01*
X-6926075Y2041760D01*
X-6903948Y2080463D01*
X-6877812Y2113770D01*
X-6864638Y2127631D01*
X-6827029Y2159374D01*
X-6782401Y2185074D01*
X-6728507Y2204985D01*
X-6663098Y2219363D01*
X-6583926Y2228462D01*
X-6488743Y2232537D01*
X-6375301Y2231844D01*
X-6241352Y2226637D01*
X-6084648Y2217171D01*
X-6078601Y2216757D01*
X-5991494Y2211209D01*
X-5912788Y2207023D01*
X-5846022Y2204318D01*
X-5794734Y2203218D01*
X-5762464Y2203842D01*
X-5752766Y2205610D01*
X-5747813Y2218956D01*
X-5736254Y2254557D01*
X-5718722Y2310323D01*
X-5695846Y2384163D01*
X-5668258Y2473986D01*
X-5636588Y2577700D01*
X-5601469Y2693213D01*
X-5563531Y2818436D01*
X-5523404Y2951277D01*
X-5481721Y3089644D01*
X-5439112Y3231446D01*
X-5431609Y3256482D01*
X-4504169Y3256482D01*
X-4502964Y3184544D01*
X-4491200Y3125862D01*
X-4468144Y3076860D01*
X-4433066Y3033964D01*
X-4385233Y2993597D01*
X-4383233Y2992123D01*
X-4265667Y2920743D01*
X-4140209Y2872450D01*
X-4009618Y2847825D01*
X-3876654Y2847450D01*
X-3774832Y2863948D01*
X-3664030Y2900616D01*
X-3565755Y2956661D01*
X-3490340Y3019346D01*
X-3450003Y3059656D01*
X-3416746Y3098407D01*
X-3390541Y3137903D01*
X-3371362Y3180450D01*
X-3359184Y3228352D01*
X-3353980Y3283914D01*
X-3355725Y3349442D01*
X-3364392Y3427240D01*
X-3379955Y3519614D01*
X-3402387Y3628867D01*
X-3431664Y3757306D01*
X-3467759Y3907236D01*
X-3479741Y3956050D01*
X-3521690Y4122560D01*
X-3560040Y4265645D01*
X-3595564Y4386899D01*
X-3629036Y4487918D01*
X-3661229Y4570296D01*
X-3692917Y4635630D01*
X-3724873Y4685513D01*
X-3744100Y4706507D01*
X-2324026Y4706507D01*
X-2322285Y4637708D01*
X-2316868Y4564079D01*
X-2307353Y4483651D01*
X-2293320Y4394452D01*
X-2274347Y4294510D01*
X-2250011Y4181856D01*
X-2219893Y4054517D01*
X-2183570Y3910523D01*
X-2140621Y3747903D01*
X-2090625Y3564685D01*
X-2044545Y3399376D01*
X-1998058Y3233292D01*
X-1957571Y3087227D01*
X-1921947Y2956819D01*
X-1890052Y2837710D01*
X-1860749Y2725539D01*
X-1832904Y2615948D01*
X-1805380Y2504576D01*
X-1777043Y2387063D01*
X-1746757Y2259051D01*
X-1739674Y2228850D01*
X-1704055Y2083877D01*
X-1665899Y1941415D01*
X-1626230Y1804574D01*
X-1586073Y1676465D01*
X-1546451Y1560197D01*
X-1508389Y1458881D01*
X-1472912Y1375626D01*
X-1441042Y1313543D01*
X-1434914Y1303502D01*
X-1397339Y1256014D01*
X-1350032Y1222248D01*
X-1330197Y1212331D01*
X-1264774Y1189180D01*
X-1202666Y1180493D01*
X-1149488Y1186334D01*
X-1110858Y1206772D01*
X-1107960Y1209675D01*
X-1091761Y1230409D01*
X-1077124Y1257194D01*
X-1063936Y1291407D01*
X-1052082Y1334426D01*
X-1041450Y1387629D01*
X-1031924Y1452393D01*
X-1023392Y1530095D01*
X-1015738Y1622114D01*
X-1008851Y1729827D01*
X-1002615Y1854611D01*
X-996916Y1997844D01*
X-991641Y2160904D01*
X-986677Y2345168D01*
X-981908Y2552013D01*
X-977222Y2782818D01*
X-977007Y2794000D01*
X-974284Y2953937D01*
X-971963Y3126196D01*
X-970079Y3305439D01*
X-968666Y3486328D01*
X-967758Y3663524D01*
X-967390Y3831691D01*
X-967594Y3985489D01*
X-968406Y4119581D01*
X-968481Y4127500D01*
X-970118Y4287408D01*
X-972037Y4424088D01*
X-974750Y4539710D01*
X-978769Y4636445D01*
X-984608Y4716464D01*
X-992778Y4781937D01*
X-1003793Y4835035D01*
X-1018164Y4877929D01*
X-1036403Y4912790D01*
X-1059025Y4941787D01*
X-1086540Y4967093D01*
X-1119462Y4990876D01*
X-1158302Y5015309D01*
X-1181357Y5029200D01*
X-1278251Y5093013D01*
X-1365119Y5161292D01*
X-1437098Y5229881D01*
X-1485973Y5289655D01*
X-1539223Y5345533D01*
X-1606898Y5382163D01*
X-1684503Y5397240D01*
X-1696483Y5397500D01*
X-1765781Y5388698D01*
X-1822208Y5360649D01*
X-1869862Y5310892D01*
X-1888790Y5282020D01*
X-1944455Y5201492D01*
X-2006786Y5139341D01*
X-2083262Y5088841D01*
X-2129024Y5065911D01*
X-2198847Y5028094D01*
X-2250784Y4985607D01*
X-2287047Y4934374D01*
X-2309847Y4870318D01*
X-2321398Y4789363D01*
X-2324026Y4706507D01*
X-3744100Y4706507D01*
X-3757872Y4721543D01*
X-3792686Y4745312D01*
X-3830089Y4758417D01*
X-3870831Y4762453D01*
X-3941293Y4750438D01*
X-4009094Y4714192D01*
X-4074289Y4653600D01*
X-4136931Y4568545D01*
X-4197074Y4458913D01*
X-4254772Y4324589D01*
X-4310077Y4165456D01*
X-4363044Y3981400D01*
X-4413726Y3772304D01*
X-4462176Y3538055D01*
X-4477827Y3454430D01*
X-4495546Y3345252D01*
X-4504169Y3256482D01*
X-5431609Y3256482D01*
X-5396208Y3374592D01*
X-5353641Y3516991D01*
X-5312041Y3656552D01*
X-5272039Y3791183D01*
X-5234267Y3918793D01*
X-5199355Y4037292D01*
X-5176634Y4114800D01*
X-5133578Y4266416D01*
X-5097494Y4402669D01*
X-5068839Y4521619D01*
X-5048074Y4621325D01*
X-5035655Y4699849D01*
X-5033453Y4720929D01*
X-5031123Y4794504D01*
X-5040481Y4853203D01*
X-5064487Y4903514D01*
X-5106103Y4951928D01*
X-5160105Y4998483D01*
X-5245675Y5068286D01*
X-5312294Y5127711D01*
X-5362334Y5180180D01*
X-5398167Y5229116D01*
X-5422166Y5277943D01*
X-5436703Y5330084D01*
X-5444150Y5388960D01*
X-5445444Y5410200D01*
X-5445268Y5458629D01*
X-5441479Y5527271D01*
X-5434586Y5611279D01*
X-5425097Y5705802D01*
X-5413522Y5805992D01*
X-5400369Y5906999D01*
X-5386147Y6003975D01*
X-5377699Y6055932D01*
X-5370497Y6098413D01*
X-3977474Y6092187D01*
X-3741914Y6091070D01*
X-3530001Y6089906D01*
X-3339985Y6088652D01*
X-3170111Y6087265D01*
X-3018629Y6085700D01*
X-2883786Y6083915D01*
X-2763829Y6081865D01*
X-2657007Y6079508D01*
X-2561567Y6076801D01*
X-2475757Y6073699D01*
X-2397825Y6070159D01*
X-2326018Y6066138D01*
X-2258585Y6061592D01*
X-2193774Y6056478D01*
X-2129831Y6050753D01*
X-2070100Y6044891D01*
X-2007303Y6037768D01*
X-1963000Y6030211D01*
X-1930330Y6020287D01*
X-1902430Y6006062D01*
X-1880664Y5991518D01*
X-1813357Y5958554D01*
X-1735445Y5944915D01*
X-1652515Y5950357D01*
X-1570150Y5974631D01*
X-1507565Y6008008D01*
X-1444881Y6038663D01*
X-1365711Y6057064D01*
X-1364275Y6057271D01*
X-1275151Y6067509D01*
X-1162329Y6076072D01*
X-1025558Y6082968D01*
X-864588Y6088204D01*
X-679165Y6091787D01*
X-469040Y6093724D01*
X-233962Y6094023D01*
X-89143Y6093465D01*
X602764Y6089650D01*
X874116Y5600700D01*
X1044300Y5292376D01*
X1204420Y4998670D01*
X1358095Y4712800D01*
X1508943Y4427984D01*
X1660583Y4137441D01*
X1816633Y3834389D01*
X1819365Y3829050D01*
X1888889Y3693356D01*
X1948256Y3577964D01*
X1998760Y3480506D01*
X2041697Y3398613D01*
X2078362Y3329917D01*
X2110049Y3272048D01*
X2138052Y3222638D01*
X2163668Y3179317D01*
X2188191Y3139717D01*
X2212914Y3101469D01*
X2235864Y3067050D01*
X2298925Y2980641D01*
X2357323Y2916672D01*
X2413565Y2873216D01*
X2470157Y2848346D01*
X2529604Y2840133D01*
X2530919Y2840125D01*
X2574767Y2843414D01*
X2605324Y2856309D01*
X2624292Y2872520D01*
X2638473Y2887788D01*
X2650661Y2904438D01*
X2661026Y2924439D01*
X2669736Y2949760D01*
X2676959Y2982367D01*
X2682863Y3024230D01*
X2687617Y3077317D01*
X2691389Y3143597D01*
X2694347Y3225037D01*
X2696661Y3323607D01*
X2698497Y3441274D01*
X2700025Y3580007D01*
X2701413Y3741773D01*
X2701691Y3777405D01*
X2702916Y3968059D01*
X2703361Y4135105D01*
X2702888Y4280329D01*
X2701361Y4405514D01*
X2698641Y4512447D01*
X2694592Y4602910D01*
X2689075Y4678689D01*
X2681955Y4741569D01*
X2673092Y4793333D01*
X2662350Y4835767D01*
X2649592Y4870655D01*
X2634679Y4899782D01*
X2617475Y4924932D01*
X2612890Y4930696D01*
X2590052Y4950943D01*
X2550527Y4978456D01*
X2500389Y5009226D01*
X2458755Y5032413D01*
X2402183Y5063472D01*
X2355397Y5092724D01*
X2317417Y5122904D01*
X2287264Y5156748D01*
X2263958Y5196990D01*
X2246520Y5246366D01*
X2233970Y5307611D01*
X2225331Y5383460D01*
X2219621Y5476648D01*
X2215861Y5589910D01*
X2213212Y5718175D01*
X2206456Y6096000D01*
X2566903Y6096126D01*
X2756896Y6097338D01*
X2923284Y6100950D01*
X3067762Y6107135D01*
X3192026Y6116065D01*
X3297773Y6127916D01*
X3386699Y6142859D01*
X3460501Y6161070D01*
X3520874Y6182721D01*
X3549917Y6196661D01*
X3580205Y6210801D01*
X3616206Y6223488D01*
X3659359Y6234810D01*
X3711102Y6244855D01*
X3772876Y6253710D01*
X3846119Y6261461D01*
X3932271Y6268197D01*
X4032772Y6274005D01*
X4149059Y6278972D01*
X4282574Y6283185D01*
X4434754Y6286732D01*
X4607040Y6289700D01*
X4800870Y6292176D01*
X5017684Y6294248D01*
X5178425Y6295466D01*
X6172200Y6302359D01*
X6171998Y5980105D01*
G37*
G04 #@! TD.AperFunction*
X-13995505Y5826125D02*
X-13996984Y5677840D01*
X-14001382Y5553383D01*
X-14008827Y5451336D01*
X-14019445Y5370283D01*
X-14033362Y5308806D01*
X-14044623Y5277802D01*
X-14068614Y5235976D01*
X-14104050Y5195138D01*
X-14153567Y5153244D01*
X-14219804Y5108251D01*
X-14305398Y5058115D01*
X-14379987Y5017951D01*
X-14579600Y4913228D01*
X-14579507Y3075739D01*
X-14579413Y1238250D01*
X-14404882Y1139063D01*
X-14311920Y1085363D01*
X-14238674Y1040816D01*
X-14182129Y1003243D01*
X-14139271Y970462D01*
X-14107084Y940293D01*
X-14082555Y910554D01*
X-14076168Y901285D01*
X-14057595Y870970D01*
X-14042518Y839812D01*
X-14030509Y804721D01*
X-14021136Y762604D01*
X-14013969Y710372D01*
X-14008579Y644930D01*
X-14004534Y563189D01*
X-14001405Y462057D01*
X-13998906Y346075D01*
X-13991866Y-25400D01*
X-16662400Y-25400D01*
X-16662202Y365125D01*
X-16661888Y504010D01*
X-16660323Y620082D01*
X-16656344Y715930D01*
X-16648788Y794141D01*
X-16636491Y857304D01*
X-16618292Y908007D01*
X-16593026Y948836D01*
X-16559530Y982380D01*
X-16516641Y1011228D01*
X-16463197Y1037965D01*
X-16398033Y1065182D01*
X-16336852Y1088973D01*
X-16180004Y1149350D01*
X-16179846Y4921250D01*
X-16333272Y4990066D01*
X-16418612Y5029589D01*
X-16483796Y5063300D01*
X-16532570Y5093981D01*
X-16568679Y5124415D01*
X-16595869Y5157382D01*
X-16617885Y5195666D01*
X-16622231Y5204706D01*
X-16656050Y5276850D01*
X-16664268Y6096000D01*
X-13995400Y6096000D01*
X-13995505Y5826125D01*
G04 #@! TA.AperFunction,EtchedComponent*
G36*
X-13995505Y5826125D02*
G01*
X-13996984Y5677840D01*
X-14001382Y5553383D01*
X-14008827Y5451336D01*
X-14019445Y5370283D01*
X-14033362Y5308806D01*
X-14044623Y5277802D01*
X-14068614Y5235976D01*
X-14104050Y5195138D01*
X-14153567Y5153244D01*
X-14219804Y5108251D01*
X-14305398Y5058115D01*
X-14379987Y5017951D01*
X-14579600Y4913228D01*
X-14579507Y3075739D01*
X-14579413Y1238250D01*
X-14404882Y1139063D01*
X-14311920Y1085363D01*
X-14238674Y1040816D01*
X-14182129Y1003243D01*
X-14139271Y970462D01*
X-14107084Y940293D01*
X-14082555Y910554D01*
X-14076168Y901285D01*
X-14057595Y870970D01*
X-14042518Y839812D01*
X-14030509Y804721D01*
X-14021136Y762604D01*
X-14013969Y710372D01*
X-14008579Y644930D01*
X-14004534Y563189D01*
X-14001405Y462057D01*
X-13998906Y346075D01*
X-13991866Y-25400D01*
X-16662400Y-25400D01*
X-16662202Y365125D01*
X-16661888Y504010D01*
X-16660323Y620082D01*
X-16656344Y715930D01*
X-16648788Y794141D01*
X-16636491Y857304D01*
X-16618292Y908007D01*
X-16593026Y948836D01*
X-16559530Y982380D01*
X-16516641Y1011228D01*
X-16463197Y1037965D01*
X-16398033Y1065182D01*
X-16336852Y1088973D01*
X-16180004Y1149350D01*
X-16179846Y4921250D01*
X-16333272Y4990066D01*
X-16418612Y5029589D01*
X-16483796Y5063300D01*
X-16532570Y5093981D01*
X-16568679Y5124415D01*
X-16595869Y5157382D01*
X-16617885Y5195666D01*
X-16622231Y5204706D01*
X-16656050Y5276850D01*
X-16664268Y6096000D01*
X-13995400Y6096000D01*
X-13995505Y5826125D01*
G37*
G04 #@! TD.AperFunction*
D11*
X-17226280Y-13843000D03*
D12*
X-17226280Y-16383000D03*
D11*
X-14686280Y-13843000D03*
X-14686280Y-16383000D03*
D13*
X-12146280Y-13843000D03*
X-12146280Y-16383000D03*
M02*
