G04 #@! TF.GenerationSoftware,KiCad,Pcbnew,(5.1.2)-1*
G04 #@! TF.CreationDate,2019-07-11T20:21:29-05:00*
G04 #@! TF.ProjectId,keanu-homeboy,6b65616e-752d-4686-9f6d-65626f792e6b,rev?*
G04 #@! TF.SameCoordinates,Original*
G04 #@! TF.FileFunction,Legend,Bot*
G04 #@! TF.FilePolarity,Positive*
%FSLAX46Y46*%
G04 Gerber Fmt 4.6, Leading zero omitted, Abs format (unit mm)*
G04 Created by KiCad (PCBNEW (5.1.2)-1) date 2019-07-11 20:21:29*
%MOMM*%
%LPD*%
G04 APERTURE LIST*
%ADD10C,0.010000*%
%ADD11C,0.120000*%
%ADD12C,0.700000*%
%ADD13C,0.150000*%
G04 APERTURE END LIST*
D10*
G36*
X-9690100Y26729584D02*
G01*
X-9538600Y26716040D01*
X-9407825Y26689440D01*
X-9298075Y26649915D01*
X-9209648Y26597596D01*
X-9142843Y26532612D01*
X-9106643Y26474683D01*
X-9089748Y26420980D01*
X-9081176Y26352607D01*
X-9081332Y26279032D01*
X-9090627Y26209720D01*
X-9094539Y26193750D01*
X-9117358Y26146415D01*
X-9157451Y26096507D01*
X-9208327Y26050408D01*
X-9263491Y26014499D01*
X-9288452Y26003186D01*
X-9347753Y25980539D01*
X-9277375Y25951935D01*
X-9199298Y25913571D01*
X-9141957Y25869076D01*
X-9100799Y25814659D01*
X-9091600Y25797221D01*
X-9070304Y25734435D01*
X-9058320Y25658395D01*
X-9056526Y25579808D01*
X-9065801Y25509378D01*
X-9067447Y25502912D01*
X-9097259Y25438128D01*
X-9149303Y25376418D01*
X-9220420Y25320187D01*
X-9307451Y25271836D01*
X-9407238Y25233770D01*
X-9429750Y25227245D01*
X-9484277Y25216711D01*
X-9557689Y25208750D01*
X-9643594Y25203473D01*
X-9735597Y25200989D01*
X-9827303Y25201408D01*
X-9912320Y25204840D01*
X-9984252Y25211396D01*
X-10019560Y25217095D01*
X-10129141Y25247673D01*
X-10227329Y25291332D01*
X-10310751Y25345844D01*
X-10376032Y25408982D01*
X-10419800Y25478518D01*
X-10421544Y25482550D01*
X-10438492Y25546687D01*
X-10443198Y25622262D01*
X-10435943Y25698616D01*
X-10432556Y25710509D01*
X-9912150Y25710509D01*
X-9910665Y25666338D01*
X-9910533Y25665742D01*
X-9894894Y25606406D01*
X-9877937Y25566380D01*
X-9856533Y25539634D01*
X-9838016Y25526065D01*
X-9787271Y25507181D01*
X-9728529Y25502816D01*
X-9674383Y25513568D01*
X-9664700Y25517839D01*
X-9630196Y25548125D01*
X-9605094Y25595659D01*
X-9590443Y25653704D01*
X-9587294Y25715521D01*
X-9596698Y25774371D01*
X-9617540Y25820397D01*
X-9658590Y25860524D01*
X-9711342Y25882559D01*
X-9769031Y25885847D01*
X-9824892Y25869736D01*
X-9862055Y25844027D01*
X-9884876Y25810271D01*
X-9902564Y25762126D01*
X-9912150Y25710509D01*
X-10432556Y25710509D01*
X-10417007Y25765088D01*
X-10413954Y25771912D01*
X-10373060Y25834854D01*
X-10315147Y25892673D01*
X-10248492Y25937940D01*
X-10209591Y25955339D01*
X-10148887Y25976899D01*
X-10214769Y26012910D01*
X-10294827Y26065644D01*
X-10351812Y26125280D01*
X-10387823Y26195317D01*
X-10404957Y26279250D01*
X-10405090Y26282650D01*
X-9893300Y26282650D01*
X-9884039Y26213981D01*
X-9857341Y26162055D01*
X-9814831Y26128545D01*
X-9758139Y26115121D01*
X-9730860Y26115840D01*
X-9689913Y26124563D01*
X-9655891Y26139954D01*
X-9649732Y26144624D01*
X-9612152Y26192114D01*
X-9593461Y26246646D01*
X-9592154Y26303311D01*
X-9606724Y26357205D01*
X-9635664Y26403420D01*
X-9677467Y26437050D01*
X-9730627Y26453189D01*
X-9744706Y26453913D01*
X-9802503Y26442982D01*
X-9848130Y26411452D01*
X-9879076Y26362219D01*
X-9892831Y26298175D01*
X-9893300Y26282650D01*
X-10405090Y26282650D01*
X-10407091Y26333450D01*
X-10404576Y26389041D01*
X-10395871Y26431818D01*
X-10377984Y26474163D01*
X-10368991Y26491192D01*
X-10315135Y26563726D01*
X-10240114Y26623812D01*
X-10145137Y26671025D01*
X-10031414Y26704941D01*
X-9900153Y26725135D01*
X-9752565Y26731183D01*
X-9690100Y26729584D01*
X-9690100Y26729584D01*
G37*
X-9690100Y26729584D02*
X-9538600Y26716040D01*
X-9407825Y26689440D01*
X-9298075Y26649915D01*
X-9209648Y26597596D01*
X-9142843Y26532612D01*
X-9106643Y26474683D01*
X-9089748Y26420980D01*
X-9081176Y26352607D01*
X-9081332Y26279032D01*
X-9090627Y26209720D01*
X-9094539Y26193750D01*
X-9117358Y26146415D01*
X-9157451Y26096507D01*
X-9208327Y26050408D01*
X-9263491Y26014499D01*
X-9288452Y26003186D01*
X-9347753Y25980539D01*
X-9277375Y25951935D01*
X-9199298Y25913571D01*
X-9141957Y25869076D01*
X-9100799Y25814659D01*
X-9091600Y25797221D01*
X-9070304Y25734435D01*
X-9058320Y25658395D01*
X-9056526Y25579808D01*
X-9065801Y25509378D01*
X-9067447Y25502912D01*
X-9097259Y25438128D01*
X-9149303Y25376418D01*
X-9220420Y25320187D01*
X-9307451Y25271836D01*
X-9407238Y25233770D01*
X-9429750Y25227245D01*
X-9484277Y25216711D01*
X-9557689Y25208750D01*
X-9643594Y25203473D01*
X-9735597Y25200989D01*
X-9827303Y25201408D01*
X-9912320Y25204840D01*
X-9984252Y25211396D01*
X-10019560Y25217095D01*
X-10129141Y25247673D01*
X-10227329Y25291332D01*
X-10310751Y25345844D01*
X-10376032Y25408982D01*
X-10419800Y25478518D01*
X-10421544Y25482550D01*
X-10438492Y25546687D01*
X-10443198Y25622262D01*
X-10435943Y25698616D01*
X-10432556Y25710509D01*
X-9912150Y25710509D01*
X-9910665Y25666338D01*
X-9910533Y25665742D01*
X-9894894Y25606406D01*
X-9877937Y25566380D01*
X-9856533Y25539634D01*
X-9838016Y25526065D01*
X-9787271Y25507181D01*
X-9728529Y25502816D01*
X-9674383Y25513568D01*
X-9664700Y25517839D01*
X-9630196Y25548125D01*
X-9605094Y25595659D01*
X-9590443Y25653704D01*
X-9587294Y25715521D01*
X-9596698Y25774371D01*
X-9617540Y25820397D01*
X-9658590Y25860524D01*
X-9711342Y25882559D01*
X-9769031Y25885847D01*
X-9824892Y25869736D01*
X-9862055Y25844027D01*
X-9884876Y25810271D01*
X-9902564Y25762126D01*
X-9912150Y25710509D01*
X-10432556Y25710509D01*
X-10417007Y25765088D01*
X-10413954Y25771912D01*
X-10373060Y25834854D01*
X-10315147Y25892673D01*
X-10248492Y25937940D01*
X-10209591Y25955339D01*
X-10148887Y25976899D01*
X-10214769Y26012910D01*
X-10294827Y26065644D01*
X-10351812Y26125280D01*
X-10387823Y26195317D01*
X-10404957Y26279250D01*
X-10405090Y26282650D01*
X-9893300Y26282650D01*
X-9884039Y26213981D01*
X-9857341Y26162055D01*
X-9814831Y26128545D01*
X-9758139Y26115121D01*
X-9730860Y26115840D01*
X-9689913Y26124563D01*
X-9655891Y26139954D01*
X-9649732Y26144624D01*
X-9612152Y26192114D01*
X-9593461Y26246646D01*
X-9592154Y26303311D01*
X-9606724Y26357205D01*
X-9635664Y26403420D01*
X-9677467Y26437050D01*
X-9730627Y26453189D01*
X-9744706Y26453913D01*
X-9802503Y26442982D01*
X-9848130Y26411452D01*
X-9879076Y26362219D01*
X-9892831Y26298175D01*
X-9893300Y26282650D01*
X-10405090Y26282650D01*
X-10407091Y26333450D01*
X-10404576Y26389041D01*
X-10395871Y26431818D01*
X-10377984Y26474163D01*
X-10368991Y26491192D01*
X-10315135Y26563726D01*
X-10240114Y26623812D01*
X-10145137Y26671025D01*
X-10031414Y26704941D01*
X-9900153Y26725135D01*
X-9752565Y26731183D01*
X-9690100Y26729584D01*
G36*
X5625474Y26712223D02*
G01*
X5723922Y26704251D01*
X5808095Y26691164D01*
X5835650Y26684626D01*
X5969871Y26638641D01*
X6083865Y26577991D01*
X6178846Y26501625D01*
X6256030Y26408492D01*
X6316632Y26297540D01*
X6334573Y26253170D01*
X6352993Y26185639D01*
X6366084Y26100861D01*
X6373509Y26006497D01*
X6374933Y25910203D01*
X6370017Y25819640D01*
X6358425Y25742466D01*
X6357263Y25737371D01*
X6315613Y25610638D01*
X6254075Y25499599D01*
X6173016Y25404622D01*
X6072802Y25326072D01*
X5953800Y25264316D01*
X5848350Y25228091D01*
X5796293Y25217885D01*
X5725324Y25209942D01*
X5641838Y25204402D01*
X5552235Y25201408D01*
X5462911Y25201099D01*
X5380264Y25203618D01*
X5310692Y25209105D01*
X5270500Y25215347D01*
X5128946Y25256117D01*
X5005089Y25314057D01*
X4899603Y25388534D01*
X4813166Y25478911D01*
X4746454Y25584554D01*
X4700141Y25704826D01*
X4685929Y25764607D01*
X4677094Y25835008D01*
X4674047Y25919609D01*
X4674694Y25944871D01*
X5199464Y25944871D01*
X5207075Y25862101D01*
X5224506Y25782308D01*
X5249818Y25721971D01*
X5285824Y25675659D01*
X5316838Y25650119D01*
X5378427Y25619536D01*
X5454647Y25601129D01*
X5537525Y25595489D01*
X5619086Y25603211D01*
X5686174Y25622654D01*
X5749185Y25660839D01*
X5796116Y25716527D01*
X5827443Y25790681D01*
X5843642Y25884266D01*
X5846287Y25946100D01*
X5842765Y26035671D01*
X5830210Y26106265D01*
X5807189Y26163145D01*
X5774790Y26208736D01*
X5716528Y26259224D01*
X5645907Y26290524D01*
X5559857Y26303848D01*
X5532011Y26304523D01*
X5437734Y26298121D01*
X5363031Y26277891D01*
X5305249Y26242298D01*
X5261734Y26189808D01*
X5234606Y26132456D01*
X5207311Y26036853D01*
X5199464Y25944871D01*
X4674694Y25944871D01*
X4676376Y26010459D01*
X4683669Y26099607D01*
X4695512Y26179101D01*
X4710520Y26238200D01*
X4763515Y26355335D01*
X4836933Y26458289D01*
X4929363Y26545856D01*
X5039395Y26616834D01*
X5165617Y26670018D01*
X5241456Y26691255D01*
X5320742Y26704596D01*
X5416257Y26712480D01*
X5520377Y26714995D01*
X5625474Y26712223D01*
X5625474Y26712223D01*
G37*
X5625474Y26712223D02*
X5723922Y26704251D01*
X5808095Y26691164D01*
X5835650Y26684626D01*
X5969871Y26638641D01*
X6083865Y26577991D01*
X6178846Y26501625D01*
X6256030Y26408492D01*
X6316632Y26297540D01*
X6334573Y26253170D01*
X6352993Y26185639D01*
X6366084Y26100861D01*
X6373509Y26006497D01*
X6374933Y25910203D01*
X6370017Y25819640D01*
X6358425Y25742466D01*
X6357263Y25737371D01*
X6315613Y25610638D01*
X6254075Y25499599D01*
X6173016Y25404622D01*
X6072802Y25326072D01*
X5953800Y25264316D01*
X5848350Y25228091D01*
X5796293Y25217885D01*
X5725324Y25209942D01*
X5641838Y25204402D01*
X5552235Y25201408D01*
X5462911Y25201099D01*
X5380264Y25203618D01*
X5310692Y25209105D01*
X5270500Y25215347D01*
X5128946Y25256117D01*
X5005089Y25314057D01*
X4899603Y25388534D01*
X4813166Y25478911D01*
X4746454Y25584554D01*
X4700141Y25704826D01*
X4685929Y25764607D01*
X4677094Y25835008D01*
X4674047Y25919609D01*
X4674694Y25944871D01*
X5199464Y25944871D01*
X5207075Y25862101D01*
X5224506Y25782308D01*
X5249818Y25721971D01*
X5285824Y25675659D01*
X5316838Y25650119D01*
X5378427Y25619536D01*
X5454647Y25601129D01*
X5537525Y25595489D01*
X5619086Y25603211D01*
X5686174Y25622654D01*
X5749185Y25660839D01*
X5796116Y25716527D01*
X5827443Y25790681D01*
X5843642Y25884266D01*
X5846287Y25946100D01*
X5842765Y26035671D01*
X5830210Y26106265D01*
X5807189Y26163145D01*
X5774790Y26208736D01*
X5716528Y26259224D01*
X5645907Y26290524D01*
X5559857Y26303848D01*
X5532011Y26304523D01*
X5437734Y26298121D01*
X5363031Y26277891D01*
X5305249Y26242298D01*
X5261734Y26189808D01*
X5234606Y26132456D01*
X5207311Y26036853D01*
X5199464Y25944871D01*
X4674694Y25944871D01*
X4676376Y26010459D01*
X4683669Y26099607D01*
X4695512Y26179101D01*
X4710520Y26238200D01*
X4763515Y26355335D01*
X4836933Y26458289D01*
X4929363Y26545856D01*
X5039395Y26616834D01*
X5165617Y26670018D01*
X5241456Y26691255D01*
X5320742Y26704596D01*
X5416257Y26712480D01*
X5520377Y26714995D01*
X5625474Y26712223D01*
G36*
X-10904987Y26263059D02*
G01*
X-10502900Y25818017D01*
X-10502900Y25501600D01*
X-11303000Y25501600D01*
X-11303000Y25222200D01*
X-11671300Y25222200D01*
X-11671300Y25501600D01*
X-11925300Y25501600D01*
X-11925300Y25819100D01*
X-11671300Y25819100D01*
X-11671300Y26050241D01*
X-11303000Y26050241D01*
X-11303000Y25819100D01*
X-11112500Y25819100D01*
X-11046206Y25819562D01*
X-10989945Y25820834D01*
X-10948108Y25822748D01*
X-10925085Y25825133D01*
X-10922000Y25826450D01*
X-10929764Y25837178D01*
X-10951219Y25863969D01*
X-10983612Y25903530D01*
X-11024187Y25952566D01*
X-11070191Y26007784D01*
X-11118869Y26065889D01*
X-11167467Y26123587D01*
X-11213231Y26177585D01*
X-11253407Y26224588D01*
X-11285240Y26261303D01*
X-11292304Y26269316D01*
X-11295685Y26261228D01*
X-11298626Y26231454D01*
X-11300947Y26183706D01*
X-11302465Y26121697D01*
X-11303000Y26050241D01*
X-11671300Y26050241D01*
X-11671300Y26708100D01*
X-11307073Y26708100D01*
X-10904987Y26263059D01*
X-10904987Y26263059D01*
G37*
X-10904987Y26263059D02*
X-10502900Y25818017D01*
X-10502900Y25501600D01*
X-11303000Y25501600D01*
X-11303000Y25222200D01*
X-11671300Y25222200D01*
X-11671300Y25501600D01*
X-11925300Y25501600D01*
X-11925300Y25819100D01*
X-11671300Y25819100D01*
X-11671300Y26050241D01*
X-11303000Y26050241D01*
X-11303000Y25819100D01*
X-11112500Y25819100D01*
X-11046206Y25819562D01*
X-10989945Y25820834D01*
X-10948108Y25822748D01*
X-10925085Y25825133D01*
X-10922000Y25826450D01*
X-10929764Y25837178D01*
X-10951219Y25863969D01*
X-10983612Y25903530D01*
X-11024187Y25952566D01*
X-11070191Y26007784D01*
X-11118869Y26065889D01*
X-11167467Y26123587D01*
X-11213231Y26177585D01*
X-11253407Y26224588D01*
X-11285240Y26261303D01*
X-11292304Y26269316D01*
X-11295685Y26261228D01*
X-11298626Y26231454D01*
X-11300947Y26183706D01*
X-11302465Y26121697D01*
X-11303000Y26050241D01*
X-11671300Y26050241D01*
X-11671300Y26708100D01*
X-11307073Y26708100D01*
X-10904987Y26263059D01*
G36*
X-4191000Y26263600D02*
G01*
X-4660900Y26263600D01*
X-4660900Y25222200D01*
X-5143500Y25222200D01*
X-5143500Y26263600D01*
X-5524500Y26263600D01*
X-5524500Y25222200D01*
X-6057900Y25222200D01*
X-6058393Y25466675D01*
X-6058885Y25711150D01*
X-6296518Y25466229D01*
X-6534150Y25221308D01*
X-7219950Y25222056D01*
X-7905750Y25222803D01*
X-7980683Y25253609D01*
X-8062866Y25298013D01*
X-8123364Y25355255D01*
X-8162872Y25426397D01*
X-8182086Y25512504D01*
X-8184274Y25565100D01*
X-8174404Y25656846D01*
X-8145966Y25748204D01*
X-8097767Y25841334D01*
X-8028615Y25938395D01*
X-7937317Y26041545D01*
X-7900212Y26079186D01*
X-7856588Y26124056D01*
X-7820551Y26164270D01*
X-7795592Y26195702D01*
X-7785204Y26214225D01*
X-7785100Y26215264D01*
X-7787790Y26229968D01*
X-7797678Y26241409D01*
X-7817498Y26249981D01*
X-7849980Y26256077D01*
X-7897856Y26260090D01*
X-7963858Y26262414D01*
X-8050717Y26263441D01*
X-8120816Y26263600D01*
X-8407400Y26263600D01*
X-8407400Y26708100D01*
X-7914406Y26708100D01*
X-7776517Y26707955D01*
X-7661527Y26707301D01*
X-7566936Y26705813D01*
X-7490243Y26703163D01*
X-7428948Y26699025D01*
X-7380550Y26693073D01*
X-7342548Y26684980D01*
X-7312444Y26674420D01*
X-7287735Y26661067D01*
X-7265922Y26644594D01*
X-7244504Y26624674D01*
X-7239829Y26620029D01*
X-7192603Y26555905D01*
X-7161017Y26476805D01*
X-7146103Y26388532D01*
X-7148892Y26296890D01*
X-7167822Y26215058D01*
X-7203272Y26136674D01*
X-7258319Y26049459D01*
X-7330400Y25956993D01*
X-7416950Y25862852D01*
X-7428689Y25851115D01*
X-7472313Y25806245D01*
X-7508350Y25766031D01*
X-7533309Y25734599D01*
X-7543697Y25716076D01*
X-7543800Y25715037D01*
X-7541997Y25702346D01*
X-7534989Y25692073D01*
X-7520382Y25683968D01*
X-7495780Y25677777D01*
X-7458788Y25673249D01*
X-7407009Y25670132D01*
X-7338050Y25668175D01*
X-7249514Y25667125D01*
X-7139006Y25666731D01*
X-7084093Y25666700D01*
X-6673516Y25666700D01*
X-6565832Y25804578D01*
X-6638509Y25825706D01*
X-6746936Y25867209D01*
X-6836010Y25922683D01*
X-6904579Y25991241D01*
X-6948015Y26063867D01*
X-6966357Y26125093D01*
X-6974890Y26191206D01*
X-6539608Y26191206D01*
X-6536974Y26148733D01*
X-6528785Y26116613D01*
X-6511935Y26093411D01*
X-6483320Y26077689D01*
X-6439837Y26068011D01*
X-6378382Y26062940D01*
X-6295849Y26061041D01*
X-6257925Y26060851D01*
X-6057900Y26060400D01*
X-6057900Y26339800D01*
X-6247803Y26339800D01*
X-6334408Y26338669D01*
X-6402610Y26335387D01*
X-6449925Y26330123D01*
X-6471005Y26324628D01*
X-6508577Y26294292D01*
X-6532404Y26246735D01*
X-6539608Y26191206D01*
X-6974890Y26191206D01*
X-6976121Y26200739D01*
X-6976897Y26281173D01*
X-6968274Y26356763D01*
X-6961682Y26385002D01*
X-6925847Y26467765D01*
X-6868385Y26543682D01*
X-6792855Y26609216D01*
X-6702812Y26660829D01*
X-6670990Y26674026D01*
X-6658433Y26678673D01*
X-6645796Y26682775D01*
X-6631481Y26686369D01*
X-6613889Y26689495D01*
X-6591422Y26692193D01*
X-6562481Y26694500D01*
X-6525468Y26696457D01*
X-6478784Y26698103D01*
X-6420831Y26699476D01*
X-6350010Y26700615D01*
X-6264722Y26701560D01*
X-6163370Y26702350D01*
X-6044354Y26703023D01*
X-5906077Y26703620D01*
X-5746939Y26704178D01*
X-5565341Y26704737D01*
X-5394325Y26705236D01*
X-4191000Y26708722D01*
X-4191000Y26263600D01*
X-4191000Y26263600D01*
G37*
X-4191000Y26263600D02*
X-4660900Y26263600D01*
X-4660900Y25222200D01*
X-5143500Y25222200D01*
X-5143500Y26263600D01*
X-5524500Y26263600D01*
X-5524500Y25222200D01*
X-6057900Y25222200D01*
X-6058393Y25466675D01*
X-6058885Y25711150D01*
X-6296518Y25466229D01*
X-6534150Y25221308D01*
X-7219950Y25222056D01*
X-7905750Y25222803D01*
X-7980683Y25253609D01*
X-8062866Y25298013D01*
X-8123364Y25355255D01*
X-8162872Y25426397D01*
X-8182086Y25512504D01*
X-8184274Y25565100D01*
X-8174404Y25656846D01*
X-8145966Y25748204D01*
X-8097767Y25841334D01*
X-8028615Y25938395D01*
X-7937317Y26041545D01*
X-7900212Y26079186D01*
X-7856588Y26124056D01*
X-7820551Y26164270D01*
X-7795592Y26195702D01*
X-7785204Y26214225D01*
X-7785100Y26215264D01*
X-7787790Y26229968D01*
X-7797678Y26241409D01*
X-7817498Y26249981D01*
X-7849980Y26256077D01*
X-7897856Y26260090D01*
X-7963858Y26262414D01*
X-8050717Y26263441D01*
X-8120816Y26263600D01*
X-8407400Y26263600D01*
X-8407400Y26708100D01*
X-7914406Y26708100D01*
X-7776517Y26707955D01*
X-7661527Y26707301D01*
X-7566936Y26705813D01*
X-7490243Y26703163D01*
X-7428948Y26699025D01*
X-7380550Y26693073D01*
X-7342548Y26684980D01*
X-7312444Y26674420D01*
X-7287735Y26661067D01*
X-7265922Y26644594D01*
X-7244504Y26624674D01*
X-7239829Y26620029D01*
X-7192603Y26555905D01*
X-7161017Y26476805D01*
X-7146103Y26388532D01*
X-7148892Y26296890D01*
X-7167822Y26215058D01*
X-7203272Y26136674D01*
X-7258319Y26049459D01*
X-7330400Y25956993D01*
X-7416950Y25862852D01*
X-7428689Y25851115D01*
X-7472313Y25806245D01*
X-7508350Y25766031D01*
X-7533309Y25734599D01*
X-7543697Y25716076D01*
X-7543800Y25715037D01*
X-7541997Y25702346D01*
X-7534989Y25692073D01*
X-7520382Y25683968D01*
X-7495780Y25677777D01*
X-7458788Y25673249D01*
X-7407009Y25670132D01*
X-7338050Y25668175D01*
X-7249514Y25667125D01*
X-7139006Y25666731D01*
X-7084093Y25666700D01*
X-6673516Y25666700D01*
X-6565832Y25804578D01*
X-6638509Y25825706D01*
X-6746936Y25867209D01*
X-6836010Y25922683D01*
X-6904579Y25991241D01*
X-6948015Y26063867D01*
X-6966357Y26125093D01*
X-6974890Y26191206D01*
X-6539608Y26191206D01*
X-6536974Y26148733D01*
X-6528785Y26116613D01*
X-6511935Y26093411D01*
X-6483320Y26077689D01*
X-6439837Y26068011D01*
X-6378382Y26062940D01*
X-6295849Y26061041D01*
X-6257925Y26060851D01*
X-6057900Y26060400D01*
X-6057900Y26339800D01*
X-6247803Y26339800D01*
X-6334408Y26338669D01*
X-6402610Y26335387D01*
X-6449925Y26330123D01*
X-6471005Y26324628D01*
X-6508577Y26294292D01*
X-6532404Y26246735D01*
X-6539608Y26191206D01*
X-6974890Y26191206D01*
X-6976121Y26200739D01*
X-6976897Y26281173D01*
X-6968274Y26356763D01*
X-6961682Y26385002D01*
X-6925847Y26467765D01*
X-6868385Y26543682D01*
X-6792855Y26609216D01*
X-6702812Y26660829D01*
X-6670990Y26674026D01*
X-6658433Y26678673D01*
X-6645796Y26682775D01*
X-6631481Y26686369D01*
X-6613889Y26689495D01*
X-6591422Y26692193D01*
X-6562481Y26694500D01*
X-6525468Y26696457D01*
X-6478784Y26698103D01*
X-6420831Y26699476D01*
X-6350010Y26700615D01*
X-6264722Y26701560D01*
X-6163370Y26702350D01*
X-6044354Y26703023D01*
X-5906077Y26703620D01*
X-5746939Y26704178D01*
X-5565341Y26704737D01*
X-5394325Y26705236D01*
X-4191000Y26708722D01*
X-4191000Y26263600D01*
G36*
X-2743200Y25222200D02*
G01*
X-3200400Y25222200D01*
X-3200400Y25628600D01*
X-2743200Y25628600D01*
X-2743200Y25222200D01*
X-2743200Y25222200D01*
G37*
X-2743200Y25222200D02*
X-3200400Y25222200D01*
X-3200400Y25628600D01*
X-2743200Y25628600D01*
X-2743200Y25222200D01*
G36*
X-1251840Y26239628D02*
G01*
X-1574800Y25771155D01*
X-1574800Y25222200D01*
X-2070100Y25222200D01*
X-2070100Y25769855D01*
X-2351403Y26178653D01*
X-2415590Y26271853D01*
X-2476904Y26360732D01*
X-2533469Y26442584D01*
X-2583413Y26514703D01*
X-2624861Y26574383D01*
X-2655939Y26618920D01*
X-2674773Y26645607D01*
X-2676334Y26647775D01*
X-2719964Y26708100D01*
X-2127250Y26707652D01*
X-2038350Y26572261D01*
X-1996651Y26509238D01*
X-1952393Y26443140D01*
X-1911406Y26382636D01*
X-1884542Y26343586D01*
X-1819633Y26250301D01*
X-1668642Y26479148D01*
X-1517650Y26707994D01*
X-1223265Y26708047D01*
X-928879Y26708100D01*
X-1251840Y26239628D01*
X-1251840Y26239628D01*
G37*
X-1251840Y26239628D02*
X-1574800Y25771155D01*
X-1574800Y25222200D01*
X-2070100Y25222200D01*
X-2070100Y25769855D01*
X-2351403Y26178653D01*
X-2415590Y26271853D01*
X-2476904Y26360732D01*
X-2533469Y26442584D01*
X-2583413Y26514703D01*
X-2624861Y26574383D01*
X-2655939Y26618920D01*
X-2674773Y26645607D01*
X-2676334Y26647775D01*
X-2719964Y26708100D01*
X-2127250Y26707652D01*
X-2038350Y26572261D01*
X-1996651Y26509238D01*
X-1952393Y26443140D01*
X-1911406Y26382636D01*
X-1884542Y26343586D01*
X-1819633Y26250301D01*
X-1668642Y26479148D01*
X-1517650Y26707994D01*
X-1223265Y26708047D01*
X-928879Y26708100D01*
X-1251840Y26239628D01*
G36*
X863600Y26263600D02*
G01*
X558800Y26263600D01*
X558800Y25222200D01*
X-28575Y25223347D01*
X-187400Y25223915D01*
X-322405Y25224977D01*
X-435165Y25226576D01*
X-527258Y25228751D01*
X-600258Y25231544D01*
X-655742Y25234996D01*
X-695286Y25239147D01*
X-706912Y25240998D01*
X-813619Y25270145D01*
X-900735Y25315102D01*
X-967935Y25375502D01*
X-1014890Y25450979D01*
X-1041272Y25541165D01*
X-1047355Y25622250D01*
X-1039589Y25673979D01*
X-498285Y25673979D01*
X-494272Y25627377D01*
X-469845Y25583800D01*
X-425593Y25549019D01*
X-398053Y25536775D01*
X-364926Y25527880D01*
X-321799Y25521813D01*
X-264255Y25518051D01*
X-187881Y25516072D01*
X-142875Y25515600D01*
X38100Y25514300D01*
X38100Y25793700D01*
X-155575Y25793630D01*
X-227103Y25792784D01*
X-293133Y25790504D01*
X-347844Y25787100D01*
X-385413Y25782880D01*
X-394644Y25780949D01*
X-447790Y25755862D01*
X-482564Y25718506D01*
X-498285Y25673979D01*
X-1039589Y25673979D01*
X-1034745Y25706240D01*
X-999286Y25783488D01*
X-943189Y25851392D01*
X-868667Y25907346D01*
X-777932Y25948747D01*
X-766983Y25952324D01*
X-694480Y25975129D01*
X-769515Y26009345D01*
X-817170Y26033728D01*
X-861965Y26061008D01*
X-886382Y26078978D01*
X-939218Y26139757D01*
X-972865Y26214266D01*
X-979802Y26257923D01*
X-413216Y26257923D01*
X-410748Y26210134D01*
X-386928Y26163125D01*
X-377845Y26152475D01*
X-366361Y26141558D01*
X-352766Y26133842D01*
X-332771Y26128775D01*
X-302087Y26125802D01*
X-256428Y26124370D01*
X-191504Y26123926D01*
X-156537Y26123900D01*
X38100Y26123900D01*
X38100Y26352500D01*
X-140331Y26352500D01*
X-219470Y26351744D01*
X-277426Y26349220D01*
X-318380Y26344549D01*
X-346511Y26337352D01*
X-356777Y26332842D01*
X-395001Y26300742D01*
X-413216Y26257923D01*
X-979802Y26257923D01*
X-986239Y26298424D01*
X-978255Y26388145D01*
X-973660Y26407704D01*
X-940708Y26497348D01*
X-892131Y26568989D01*
X-825340Y26625436D01*
X-737742Y26669496D01*
X-729042Y26672840D01*
X-712948Y26678711D01*
X-696909Y26683719D01*
X-678836Y26687945D01*
X-656641Y26691471D01*
X-628235Y26694377D01*
X-591530Y26696744D01*
X-544438Y26698655D01*
X-484869Y26700189D01*
X-410736Y26701427D01*
X-319950Y26702452D01*
X-210423Y26703344D01*
X-80066Y26704185D01*
X73210Y26705054D01*
X104775Y26705228D01*
X863600Y26709391D01*
X863600Y26263600D01*
X863600Y26263600D01*
G37*
X863600Y26263600D02*
X558800Y26263600D01*
X558800Y25222200D01*
X-28575Y25223347D01*
X-187400Y25223915D01*
X-322405Y25224977D01*
X-435165Y25226576D01*
X-527258Y25228751D01*
X-600258Y25231544D01*
X-655742Y25234996D01*
X-695286Y25239147D01*
X-706912Y25240998D01*
X-813619Y25270145D01*
X-900735Y25315102D01*
X-967935Y25375502D01*
X-1014890Y25450979D01*
X-1041272Y25541165D01*
X-1047355Y25622250D01*
X-1039589Y25673979D01*
X-498285Y25673979D01*
X-494272Y25627377D01*
X-469845Y25583800D01*
X-425593Y25549019D01*
X-398053Y25536775D01*
X-364926Y25527880D01*
X-321799Y25521813D01*
X-264255Y25518051D01*
X-187881Y25516072D01*
X-142875Y25515600D01*
X38100Y25514300D01*
X38100Y25793700D01*
X-155575Y25793630D01*
X-227103Y25792784D01*
X-293133Y25790504D01*
X-347844Y25787100D01*
X-385413Y25782880D01*
X-394644Y25780949D01*
X-447790Y25755862D01*
X-482564Y25718506D01*
X-498285Y25673979D01*
X-1039589Y25673979D01*
X-1034745Y25706240D01*
X-999286Y25783488D01*
X-943189Y25851392D01*
X-868667Y25907346D01*
X-777932Y25948747D01*
X-766983Y25952324D01*
X-694480Y25975129D01*
X-769515Y26009345D01*
X-817170Y26033728D01*
X-861965Y26061008D01*
X-886382Y26078978D01*
X-939218Y26139757D01*
X-972865Y26214266D01*
X-979802Y26257923D01*
X-413216Y26257923D01*
X-410748Y26210134D01*
X-386928Y26163125D01*
X-377845Y26152475D01*
X-366361Y26141558D01*
X-352766Y26133842D01*
X-332771Y26128775D01*
X-302087Y26125802D01*
X-256428Y26124370D01*
X-191504Y26123926D01*
X-156537Y26123900D01*
X38100Y26123900D01*
X38100Y26352500D01*
X-140331Y26352500D01*
X-219470Y26351744D01*
X-277426Y26349220D01*
X-318380Y26344549D01*
X-346511Y26337352D01*
X-356777Y26332842D01*
X-395001Y26300742D01*
X-413216Y26257923D01*
X-979802Y26257923D01*
X-986239Y26298424D01*
X-978255Y26388145D01*
X-973660Y26407704D01*
X-940708Y26497348D01*
X-892131Y26568989D01*
X-825340Y26625436D01*
X-737742Y26669496D01*
X-729042Y26672840D01*
X-712948Y26678711D01*
X-696909Y26683719D01*
X-678836Y26687945D01*
X-656641Y26691471D01*
X-628235Y26694377D01*
X-591530Y26696744D01*
X-544438Y26698655D01*
X-484869Y26700189D01*
X-410736Y26701427D01*
X-319950Y26702452D01*
X-210423Y26703344D01*
X-80066Y26704185D01*
X73210Y26705054D01*
X104775Y26705228D01*
X863600Y26709391D01*
X863600Y26263600D01*
G36*
X4597400Y25222200D02*
G01*
X4064000Y25222200D01*
X4063380Y25466675D01*
X4062761Y25711150D01*
X3825255Y25466430D01*
X3587750Y25221710D01*
X2502514Y25222200D01*
X2499032Y25434609D01*
X2495550Y25647017D01*
X2139950Y25223609D01*
X1838025Y25222905D01*
X1536100Y25222200D01*
X1543050Y25660350D01*
X1767769Y25663816D01*
X1992488Y25667281D01*
X2109611Y25808789D01*
X2151317Y25860090D01*
X2186469Y25905062D01*
X2212162Y25939854D01*
X2225489Y25960612D01*
X2226707Y25964074D01*
X2219350Y25977119D01*
X2198441Y26008058D01*
X2165703Y26054494D01*
X2122861Y26114029D01*
X2071638Y26184264D01*
X2013760Y26262803D01*
X1957891Y26337952D01*
X1895633Y26421496D01*
X1838474Y26498462D01*
X1788127Y26566522D01*
X1746309Y26623345D01*
X1714733Y26666602D01*
X1695115Y26693963D01*
X1689100Y26703077D01*
X1701147Y26704647D01*
X1734678Y26706016D01*
X1785779Y26707103D01*
X1850534Y26707825D01*
X1925026Y26708100D01*
X2168086Y26708100D01*
X2495550Y26239618D01*
X2502460Y26708100D01*
X2997200Y26708100D01*
X2997200Y25666700D01*
X3448050Y25667782D01*
X3495675Y25729565D01*
X3520703Y25763011D01*
X3537952Y25787930D01*
X3543300Y25797854D01*
X3532310Y25805015D01*
X3503969Y25816650D01*
X3476625Y25826171D01*
X3369152Y25869999D01*
X3283188Y25924744D01*
X3216606Y25992018D01*
X3177275Y26053245D01*
X3159805Y26090245D01*
X3149567Y26124965D01*
X3144777Y26166549D01*
X3144568Y26177271D01*
X3582472Y26177271D01*
X3591278Y26129355D01*
X3611127Y26091628D01*
X3635190Y26073402D01*
X3657563Y26069483D01*
X3700129Y26066461D01*
X3757690Y26064548D01*
X3825048Y26063953D01*
X3860800Y26064218D01*
X4057650Y26066750D01*
X4057650Y26333450D01*
X3858701Y26336943D01*
X3783312Y26338105D01*
X3728939Y26338200D01*
X3691207Y26336735D01*
X3665739Y26333222D01*
X3648159Y26327170D01*
X3634089Y26318089D01*
X3625295Y26310795D01*
X3599184Y26275128D01*
X3585008Y26228241D01*
X3582472Y26177271D01*
X3144568Y26177271D01*
X3143649Y26224142D01*
X3143652Y26225500D01*
X3145760Y26284086D01*
X3151129Y26340758D01*
X3158681Y26384765D01*
X3160215Y26390600D01*
X3196609Y26473154D01*
X3255008Y26548129D01*
X3332456Y26612652D01*
X3425996Y26663850D01*
X3452268Y26674503D01*
X3470865Y26681173D01*
X3489847Y26686684D01*
X3511787Y26691168D01*
X3539261Y26694758D01*
X3574844Y26697584D01*
X3621111Y26699777D01*
X3680638Y26701470D01*
X3755998Y26702793D01*
X3849768Y26703878D01*
X3964521Y26704856D01*
X4060825Y26705563D01*
X4597400Y26709376D01*
X4597400Y25222200D01*
X4597400Y25222200D01*
G37*
X4597400Y25222200D02*
X4064000Y25222200D01*
X4063380Y25466675D01*
X4062761Y25711150D01*
X3825255Y25466430D01*
X3587750Y25221710D01*
X2502514Y25222200D01*
X2499032Y25434609D01*
X2495550Y25647017D01*
X2139950Y25223609D01*
X1838025Y25222905D01*
X1536100Y25222200D01*
X1543050Y25660350D01*
X1767769Y25663816D01*
X1992488Y25667281D01*
X2109611Y25808789D01*
X2151317Y25860090D01*
X2186469Y25905062D01*
X2212162Y25939854D01*
X2225489Y25960612D01*
X2226707Y25964074D01*
X2219350Y25977119D01*
X2198441Y26008058D01*
X2165703Y26054494D01*
X2122861Y26114029D01*
X2071638Y26184264D01*
X2013760Y26262803D01*
X1957891Y26337952D01*
X1895633Y26421496D01*
X1838474Y26498462D01*
X1788127Y26566522D01*
X1746309Y26623345D01*
X1714733Y26666602D01*
X1695115Y26693963D01*
X1689100Y26703077D01*
X1701147Y26704647D01*
X1734678Y26706016D01*
X1785779Y26707103D01*
X1850534Y26707825D01*
X1925026Y26708100D01*
X2168086Y26708100D01*
X2495550Y26239618D01*
X2502460Y26708100D01*
X2997200Y26708100D01*
X2997200Y25666700D01*
X3448050Y25667782D01*
X3495675Y25729565D01*
X3520703Y25763011D01*
X3537952Y25787930D01*
X3543300Y25797854D01*
X3532310Y25805015D01*
X3503969Y25816650D01*
X3476625Y25826171D01*
X3369152Y25869999D01*
X3283188Y25924744D01*
X3216606Y25992018D01*
X3177275Y26053245D01*
X3159805Y26090245D01*
X3149567Y26124965D01*
X3144777Y26166549D01*
X3144568Y26177271D01*
X3582472Y26177271D01*
X3591278Y26129355D01*
X3611127Y26091628D01*
X3635190Y26073402D01*
X3657563Y26069483D01*
X3700129Y26066461D01*
X3757690Y26064548D01*
X3825048Y26063953D01*
X3860800Y26064218D01*
X4057650Y26066750D01*
X4057650Y26333450D01*
X3858701Y26336943D01*
X3783312Y26338105D01*
X3728939Y26338200D01*
X3691207Y26336735D01*
X3665739Y26333222D01*
X3648159Y26327170D01*
X3634089Y26318089D01*
X3625295Y26310795D01*
X3599184Y26275128D01*
X3585008Y26228241D01*
X3582472Y26177271D01*
X3144568Y26177271D01*
X3143649Y26224142D01*
X3143652Y26225500D01*
X3145760Y26284086D01*
X3151129Y26340758D01*
X3158681Y26384765D01*
X3160215Y26390600D01*
X3196609Y26473154D01*
X3255008Y26548129D01*
X3332456Y26612652D01*
X3425996Y26663850D01*
X3452268Y26674503D01*
X3470865Y26681173D01*
X3489847Y26686684D01*
X3511787Y26691168D01*
X3539261Y26694758D01*
X3574844Y26697584D01*
X3621111Y26699777D01*
X3680638Y26701470D01*
X3755998Y26702793D01*
X3849768Y26703878D01*
X3964521Y26704856D01*
X4060825Y26705563D01*
X4597400Y26709376D01*
X4597400Y25222200D01*
G36*
X9677400Y26263600D02*
G01*
X9207500Y26263600D01*
X9207500Y25222200D01*
X8712200Y25222200D01*
X8712200Y26263600D01*
X8260267Y26263600D01*
X8102058Y25742920D01*
X7943850Y25222240D01*
X7699864Y25222220D01*
X7455879Y25222200D01*
X7443336Y25269825D01*
X7436326Y25297200D01*
X7424461Y25344363D01*
X7408956Y25406440D01*
X7391031Y25478557D01*
X7372752Y25552400D01*
X7353996Y25627501D01*
X7336698Y25695239D01*
X7321989Y25751298D01*
X7311003Y25791361D01*
X7304872Y25811113D01*
X7304832Y25811211D01*
X7298710Y25813090D01*
X7288774Y25796329D01*
X7274406Y25759366D01*
X7254985Y25700640D01*
X7234333Y25633411D01*
X7210982Y25555760D01*
X7187354Y25477236D01*
X7165649Y25405145D01*
X7148065Y25346790D01*
X7142087Y25326975D01*
X7110462Y25222200D01*
X6622874Y25222200D01*
X6437247Y25965150D01*
X6251619Y26708100D01*
X6494484Y26708080D01*
X6737350Y26708059D01*
X6799635Y26412805D01*
X6817553Y26328493D01*
X6834135Y26251637D01*
X6848549Y26186010D01*
X6859958Y26135386D01*
X6867530Y26103538D01*
X6869916Y26094918D01*
X6876050Y26099253D01*
X6888723Y26126683D01*
X6907449Y26175892D01*
X6931742Y26245566D01*
X6961115Y26334389D01*
X6979027Y26390193D01*
X7080142Y26708100D01*
X7530616Y26708100D01*
X7539359Y26673175D01*
X7545168Y26651187D01*
X7556661Y26608685D01*
X7572756Y26549635D01*
X7592369Y26478006D01*
X7614418Y26397766D01*
X7626871Y26352558D01*
X7705640Y26066866D01*
X7790570Y26333508D01*
X7816465Y26414807D01*
X7840709Y26490920D01*
X7861904Y26557464D01*
X7878655Y26610053D01*
X7889565Y26644303D01*
X7891682Y26650950D01*
X7907864Y26701750D01*
X8792632Y26705012D01*
X9677400Y26708273D01*
X9677400Y26263600D01*
X9677400Y26263600D01*
G37*
X9677400Y26263600D02*
X9207500Y26263600D01*
X9207500Y25222200D01*
X8712200Y25222200D01*
X8712200Y26263600D01*
X8260267Y26263600D01*
X8102058Y25742920D01*
X7943850Y25222240D01*
X7699864Y25222220D01*
X7455879Y25222200D01*
X7443336Y25269825D01*
X7436326Y25297200D01*
X7424461Y25344363D01*
X7408956Y25406440D01*
X7391031Y25478557D01*
X7372752Y25552400D01*
X7353996Y25627501D01*
X7336698Y25695239D01*
X7321989Y25751298D01*
X7311003Y25791361D01*
X7304872Y25811113D01*
X7304832Y25811211D01*
X7298710Y25813090D01*
X7288774Y25796329D01*
X7274406Y25759366D01*
X7254985Y25700640D01*
X7234333Y25633411D01*
X7210982Y25555760D01*
X7187354Y25477236D01*
X7165649Y25405145D01*
X7148065Y25346790D01*
X7142087Y25326975D01*
X7110462Y25222200D01*
X6622874Y25222200D01*
X6437247Y25965150D01*
X6251619Y26708100D01*
X6494484Y26708080D01*
X6737350Y26708059D01*
X6799635Y26412805D01*
X6817553Y26328493D01*
X6834135Y26251637D01*
X6848549Y26186010D01*
X6859958Y26135386D01*
X6867530Y26103538D01*
X6869916Y26094918D01*
X6876050Y26099253D01*
X6888723Y26126683D01*
X6907449Y26175892D01*
X6931742Y26245566D01*
X6961115Y26334389D01*
X6979027Y26390193D01*
X7080142Y26708100D01*
X7530616Y26708100D01*
X7539359Y26673175D01*
X7545168Y26651187D01*
X7556661Y26608685D01*
X7572756Y26549635D01*
X7592369Y26478006D01*
X7614418Y26397766D01*
X7626871Y26352558D01*
X7705640Y26066866D01*
X7790570Y26333508D01*
X7816465Y26414807D01*
X7840709Y26490920D01*
X7861904Y26557464D01*
X7878655Y26610053D01*
X7889565Y26644303D01*
X7891682Y26650950D01*
X7907864Y26701750D01*
X8792632Y26705012D01*
X9677400Y26708273D01*
X9677400Y26263600D01*
G36*
X11215102Y26006425D02*
G01*
X11216105Y25304750D01*
X11385180Y25809575D01*
X11864921Y25809575D01*
X11868302Y25803387D01*
X11885533Y25798928D01*
X11919379Y25795977D01*
X11972608Y25794312D01*
X12047986Y25793712D01*
X12063263Y25793700D01*
X12267443Y25793700D01*
X12215932Y25936575D01*
X12188566Y26012612D01*
X12157484Y26099183D01*
X12127490Y26182893D01*
X12113070Y26223225D01*
X12092620Y26277631D01*
X12074415Y26320836D01*
X12060380Y26348616D01*
X12052440Y26356752D01*
X12052245Y26356575D01*
X12045623Y26341906D01*
X12032441Y26306754D01*
X12013994Y26254788D01*
X11991577Y26189680D01*
X11966483Y26115100D01*
X11956766Y26085800D01*
X11931130Y26008278D01*
X11907992Y25938462D01*
X11888604Y25880116D01*
X11874217Y25837004D01*
X11866081Y25812889D01*
X11864921Y25809575D01*
X11385180Y25809575D01*
X11451110Y26006425D01*
X11686116Y26708100D01*
X12941300Y26708100D01*
X12941300Y26263600D01*
X12576095Y26263600D01*
X12745793Y25746075D01*
X12781606Y25636793D01*
X12814857Y25535209D01*
X12844732Y25443813D01*
X12870421Y25365094D01*
X12891112Y25301539D01*
X12905994Y25255638D01*
X12914254Y25229878D01*
X12915695Y25225123D01*
X12903675Y25224263D01*
X12869952Y25223798D01*
X12818220Y25223730D01*
X12752172Y25224059D01*
X12675501Y25224783D01*
X12647434Y25225123D01*
X12378969Y25228550D01*
X12334159Y25359010D01*
X12289348Y25489469D01*
X12067568Y25486010D01*
X11845787Y25482550D01*
X11800238Y25352375D01*
X11754690Y25222200D01*
X10668548Y25222200D01*
X10665099Y25463514D01*
X10661650Y25704827D01*
X10204450Y25223793D01*
X9902525Y25222997D01*
X9600600Y25222200D01*
X9607550Y25660350D01*
X9828871Y25663835D01*
X9901931Y25665624D01*
X9966493Y25668411D01*
X10018128Y25671908D01*
X10052405Y25675827D01*
X10064431Y25679137D01*
X10079559Y25695677D01*
X10102877Y25725243D01*
X10118935Y25747021D01*
X10159200Y25803089D01*
X10073875Y25830819D01*
X9968286Y25875524D01*
X9881835Y25934315D01*
X9815776Y26006081D01*
X9771362Y26089708D01*
X9766507Y26103626D01*
X9756222Y26158294D01*
X9754960Y26193738D01*
X10194471Y26193738D01*
X10196011Y26149324D01*
X10202605Y26121248D01*
X10217217Y26100532D01*
X10228743Y26089880D01*
X10242864Y26078801D01*
X10258228Y26070910D01*
X10279166Y26065669D01*
X10310012Y26062538D01*
X10355099Y26060977D01*
X10418758Y26060448D01*
X10465508Y26060400D01*
X10668000Y26060400D01*
X10668000Y26339800D01*
X10274700Y26339800D01*
X10234586Y26303958D01*
X10211576Y26280784D01*
X10199553Y26257894D01*
X10195034Y26225720D01*
X10194471Y26193738D01*
X9754960Y26193738D01*
X9753749Y26227709D01*
X9758394Y26302683D01*
X9769462Y26374030D01*
X9786259Y26432563D01*
X9792423Y26446475D01*
X9830827Y26505014D01*
X9884961Y26563916D01*
X9946600Y26615089D01*
X9992708Y26643483D01*
X10024076Y26658792D01*
X10054494Y26671482D01*
X10086643Y26681798D01*
X10123201Y26689983D01*
X10166847Y26696280D01*
X10220260Y26700935D01*
X10286119Y26704190D01*
X10367102Y26706290D01*
X10465889Y26707479D01*
X10585159Y26708000D01*
X10702418Y26708100D01*
X11214100Y26708100D01*
X11215102Y26006425D01*
X11215102Y26006425D01*
G37*
X11215102Y26006425D02*
X11216105Y25304750D01*
X11385180Y25809575D01*
X11864921Y25809575D01*
X11868302Y25803387D01*
X11885533Y25798928D01*
X11919379Y25795977D01*
X11972608Y25794312D01*
X12047986Y25793712D01*
X12063263Y25793700D01*
X12267443Y25793700D01*
X12215932Y25936575D01*
X12188566Y26012612D01*
X12157484Y26099183D01*
X12127490Y26182893D01*
X12113070Y26223225D01*
X12092620Y26277631D01*
X12074415Y26320836D01*
X12060380Y26348616D01*
X12052440Y26356752D01*
X12052245Y26356575D01*
X12045623Y26341906D01*
X12032441Y26306754D01*
X12013994Y26254788D01*
X11991577Y26189680D01*
X11966483Y26115100D01*
X11956766Y26085800D01*
X11931130Y26008278D01*
X11907992Y25938462D01*
X11888604Y25880116D01*
X11874217Y25837004D01*
X11866081Y25812889D01*
X11864921Y25809575D01*
X11385180Y25809575D01*
X11451110Y26006425D01*
X11686116Y26708100D01*
X12941300Y26708100D01*
X12941300Y26263600D01*
X12576095Y26263600D01*
X12745793Y25746075D01*
X12781606Y25636793D01*
X12814857Y25535209D01*
X12844732Y25443813D01*
X12870421Y25365094D01*
X12891112Y25301539D01*
X12905994Y25255638D01*
X12914254Y25229878D01*
X12915695Y25225123D01*
X12903675Y25224263D01*
X12869952Y25223798D01*
X12818220Y25223730D01*
X12752172Y25224059D01*
X12675501Y25224783D01*
X12647434Y25225123D01*
X12378969Y25228550D01*
X12334159Y25359010D01*
X12289348Y25489469D01*
X12067568Y25486010D01*
X11845787Y25482550D01*
X11800238Y25352375D01*
X11754690Y25222200D01*
X10668548Y25222200D01*
X10665099Y25463514D01*
X10661650Y25704827D01*
X10204450Y25223793D01*
X9902525Y25222997D01*
X9600600Y25222200D01*
X9607550Y25660350D01*
X9828871Y25663835D01*
X9901931Y25665624D01*
X9966493Y25668411D01*
X10018128Y25671908D01*
X10052405Y25675827D01*
X10064431Y25679137D01*
X10079559Y25695677D01*
X10102877Y25725243D01*
X10118935Y25747021D01*
X10159200Y25803089D01*
X10073875Y25830819D01*
X9968286Y25875524D01*
X9881835Y25934315D01*
X9815776Y26006081D01*
X9771362Y26089708D01*
X9766507Y26103626D01*
X9756222Y26158294D01*
X9754960Y26193738D01*
X10194471Y26193738D01*
X10196011Y26149324D01*
X10202605Y26121248D01*
X10217217Y26100532D01*
X10228743Y26089880D01*
X10242864Y26078801D01*
X10258228Y26070910D01*
X10279166Y26065669D01*
X10310012Y26062538D01*
X10355099Y26060977D01*
X10418758Y26060448D01*
X10465508Y26060400D01*
X10668000Y26060400D01*
X10668000Y26339800D01*
X10274700Y26339800D01*
X10234586Y26303958D01*
X10211576Y26280784D01*
X10199553Y26257894D01*
X10195034Y26225720D01*
X10194471Y26193738D01*
X9754960Y26193738D01*
X9753749Y26227709D01*
X9758394Y26302683D01*
X9769462Y26374030D01*
X9786259Y26432563D01*
X9792423Y26446475D01*
X9830827Y26505014D01*
X9884961Y26563916D01*
X9946600Y26615089D01*
X9992708Y26643483D01*
X10024076Y26658792D01*
X10054494Y26671482D01*
X10086643Y26681798D01*
X10123201Y26689983D01*
X10166847Y26696280D01*
X10220260Y26700935D01*
X10286119Y26704190D01*
X10367102Y26706290D01*
X10465889Y26707479D01*
X10585159Y26708000D01*
X10702418Y26708100D01*
X11214100Y26708100D01*
X11215102Y26006425D01*
G36*
X-8632825Y25981260D02*
G01*
X-8337550Y25977850D01*
X-8334036Y25790525D01*
X-8330521Y25603200D01*
X-8928100Y25603200D01*
X-8928100Y25984669D01*
X-8632825Y25981260D01*
X-8632825Y25981260D01*
G37*
X-8632825Y25981260D02*
X-8337550Y25977850D01*
X-8334036Y25790525D01*
X-8330521Y25603200D01*
X-8928100Y25603200D01*
X-8928100Y25984669D01*
X-8632825Y25981260D01*
G36*
X-2743200Y25920700D02*
G01*
X-3200400Y25920700D01*
X-3200400Y26327100D01*
X-2743200Y26327100D01*
X-2743200Y25920700D01*
X-2743200Y25920700D01*
G37*
X-2743200Y25920700D02*
X-3200400Y25920700D01*
X-3200400Y26327100D01*
X-2743200Y26327100D01*
X-2743200Y25920700D01*
D11*
X-13471780Y27444900D02*
X-13471780Y31329900D01*
X-13471780Y31329900D02*
X-11201780Y31329900D01*
X-11201780Y31329900D02*
X-11201780Y27444900D01*
X-22414500Y2554860D02*
X-18529500Y2554860D01*
X-22414500Y284860D02*
X-22414500Y2554860D01*
X-18529500Y284860D02*
X-22414500Y284860D01*
X-8646244Y591140D02*
X-7442116Y591140D01*
X-8646244Y2411140D02*
X-7442116Y2411140D01*
D12*
X-22540000Y-35936000D02*
X-27366000Y-35936000D01*
X-12720360Y-35885200D02*
X-17460000Y-35885200D01*
X-27366000Y-35936000D02*
X-27366000Y-44318000D01*
X-27366000Y-44318000D02*
X-12634000Y-44318000D01*
X-12634000Y-44318000D02*
X-12634000Y-35936000D01*
D11*
X19362220Y2662300D02*
X15477220Y2662300D01*
X15477220Y2662300D02*
X15477220Y4932300D01*
X15477220Y4932300D02*
X19362220Y4932300D01*
X15653640Y29272500D02*
X15653640Y25387500D01*
X13383640Y29272500D02*
X15653640Y29272500D01*
X13383640Y25387500D02*
X13383640Y29272500D01*
X8228332Y2312080D02*
X6005828Y2312080D01*
X8228332Y492080D02*
X6005828Y492080D01*
D13*
X-13704399Y29782995D02*
X-14704399Y29782995D01*
X-14704399Y29544900D01*
X-14656780Y29402042D01*
X-14561541Y29306804D01*
X-14466303Y29259185D01*
X-14275827Y29211566D01*
X-14132970Y29211566D01*
X-13942494Y29259185D01*
X-13847256Y29306804D01*
X-13752018Y29402042D01*
X-13704399Y29544900D01*
X-13704399Y29782995D01*
X-13704399Y28259185D02*
X-13704399Y28830614D01*
X-13704399Y28544900D02*
X-14704399Y28544900D01*
X-14561541Y28640138D01*
X-14466303Y28735376D01*
X-14418684Y28830614D01*
X-19391404Y-852520D02*
X-19391404Y147479D01*
X-19629500Y147479D01*
X-19772357Y99860D01*
X-19867595Y4621D01*
X-19915214Y-90616D01*
X-19962833Y-281092D01*
X-19962833Y-423949D01*
X-19915214Y-614425D01*
X-19867595Y-709663D01*
X-19772357Y-804901D01*
X-19629500Y-852520D01*
X-19391404Y-852520D01*
X-20343785Y52240D02*
X-20391404Y99860D01*
X-20486642Y147479D01*
X-20724738Y147479D01*
X-20819976Y99860D01*
X-20867595Y52240D01*
X-20915214Y-42997D01*
X-20915214Y-138235D01*
X-20867595Y-281092D01*
X-20296166Y-852520D01*
X-20915214Y-852520D01*
X-7877513Y-771240D02*
X-7544180Y-295050D01*
X-7306084Y-771240D02*
X-7306084Y228759D01*
X-7687037Y228759D01*
X-7782275Y181140D01*
X-7829894Y133520D01*
X-7877513Y38282D01*
X-7877513Y-104574D01*
X-7829894Y-199812D01*
X-7782275Y-247431D01*
X-7687037Y-295050D01*
X-7306084Y-295050D01*
X-8829894Y-771240D02*
X-8258465Y-771240D01*
X-8544180Y-771240D02*
X-8544180Y228759D01*
X-8448941Y85901D01*
X-8353703Y-9336D01*
X-8258465Y-56955D01*
X-19190476Y-33610380D02*
X-19857142Y-34610380D01*
X-19857142Y-33610380D02*
X-19190476Y-34610380D01*
X-20761904Y-34610380D02*
X-20190476Y-34610380D01*
X-20476190Y-34610380D02*
X-20476190Y-33610380D01*
X-20380952Y-33753238D01*
X-20285714Y-33848476D01*
X-20190476Y-33896095D01*
X-21540000Y-36795285D02*
X-21790000Y-37545285D01*
X-22040000Y-36795285D01*
X-22718571Y-37473857D02*
X-22682857Y-37509571D01*
X-22575714Y-37545285D01*
X-22504285Y-37545285D01*
X-22397142Y-37509571D01*
X-22325714Y-37438142D01*
X-22290000Y-37366714D01*
X-22254285Y-37223857D01*
X-22254285Y-37116714D01*
X-22290000Y-36973857D01*
X-22325714Y-36902428D01*
X-22397142Y-36831000D01*
X-22504285Y-36795285D01*
X-22575714Y-36795285D01*
X-22682857Y-36831000D01*
X-22718571Y-36866714D01*
X-23468571Y-37473857D02*
X-23432857Y-37509571D01*
X-23325714Y-37545285D01*
X-23254285Y-37545285D01*
X-23147142Y-37509571D01*
X-23075714Y-37438142D01*
X-23040000Y-37366714D01*
X-23004285Y-37223857D01*
X-23004285Y-37116714D01*
X-23040000Y-36973857D01*
X-23075714Y-36902428D01*
X-23147142Y-36831000D01*
X-23254285Y-36795285D01*
X-23325714Y-36795285D01*
X-23432857Y-36831000D01*
X-23468571Y-36866714D01*
X-19089285Y-37509571D02*
X-19196428Y-37545285D01*
X-19375000Y-37545285D01*
X-19446428Y-37509571D01*
X-19482142Y-37473857D01*
X-19517857Y-37402428D01*
X-19517857Y-37331000D01*
X-19482142Y-37259571D01*
X-19446428Y-37223857D01*
X-19375000Y-37188142D01*
X-19232142Y-37152428D01*
X-19160714Y-37116714D01*
X-19125000Y-37081000D01*
X-19089285Y-37009571D01*
X-19089285Y-36938142D01*
X-19125000Y-36866714D01*
X-19160714Y-36831000D01*
X-19232142Y-36795285D01*
X-19410714Y-36795285D01*
X-19517857Y-36831000D01*
X-19839285Y-37545285D02*
X-19839285Y-36795285D01*
X-20017857Y-36795285D01*
X-20125000Y-36831000D01*
X-20196428Y-36902428D01*
X-20232142Y-36973857D01*
X-20267857Y-37116714D01*
X-20267857Y-37223857D01*
X-20232142Y-37366714D01*
X-20196428Y-37438142D01*
X-20125000Y-37509571D01*
X-20017857Y-37545285D01*
X-19839285Y-37545285D01*
X-20553571Y-37331000D02*
X-20910714Y-37331000D01*
X-20482142Y-37545285D02*
X-20732142Y-36795285D01*
X-20982142Y-37545285D01*
X-14955857Y-36831000D02*
X-14884428Y-36795285D01*
X-14777285Y-36795285D01*
X-14670142Y-36831000D01*
X-14598714Y-36902428D01*
X-14563000Y-36973857D01*
X-14527285Y-37116714D01*
X-14527285Y-37223857D01*
X-14563000Y-37366714D01*
X-14598714Y-37438142D01*
X-14670142Y-37509571D01*
X-14777285Y-37545285D01*
X-14848714Y-37545285D01*
X-14955857Y-37509571D01*
X-14991571Y-37473857D01*
X-14991571Y-37223857D01*
X-14848714Y-37223857D01*
X-15313000Y-37545285D02*
X-15313000Y-36795285D01*
X-15598714Y-36795285D01*
X-15670142Y-36831000D01*
X-15705857Y-36866714D01*
X-15741571Y-36938142D01*
X-15741571Y-37045285D01*
X-15705857Y-37116714D01*
X-15670142Y-37152428D01*
X-15598714Y-37188142D01*
X-15313000Y-37188142D01*
X-16063000Y-37545285D02*
X-16063000Y-36795285D01*
X-16563000Y-36795285D02*
X-16705857Y-36795285D01*
X-16777285Y-36831000D01*
X-16848714Y-36902428D01*
X-16884428Y-37045285D01*
X-16884428Y-37295285D01*
X-16848714Y-37438142D01*
X-16777285Y-37509571D01*
X-16705857Y-37545285D01*
X-16563000Y-37545285D01*
X-16491571Y-37509571D01*
X-16420142Y-37438142D01*
X-16384428Y-37295285D01*
X-16384428Y-37045285D01*
X-16420142Y-36902428D01*
X-16491571Y-36831000D01*
X-16563000Y-36795285D01*
X-17598714Y-37545285D02*
X-17170142Y-37545285D01*
X-17384428Y-37545285D02*
X-17384428Y-36795285D01*
X-17313000Y-36902428D01*
X-17241571Y-36973857D01*
X-17170142Y-37009571D01*
X-21968571Y-42673000D02*
X-21897142Y-42637285D01*
X-21790000Y-42637285D01*
X-21682857Y-42673000D01*
X-21611428Y-42744428D01*
X-21575714Y-42815857D01*
X-21540000Y-42958714D01*
X-21540000Y-43065857D01*
X-21575714Y-43208714D01*
X-21611428Y-43280142D01*
X-21682857Y-43351571D01*
X-21790000Y-43387285D01*
X-21861428Y-43387285D01*
X-21968571Y-43351571D01*
X-22004285Y-43315857D01*
X-22004285Y-43065857D01*
X-21861428Y-43065857D01*
X-22325714Y-43387285D02*
X-22325714Y-42637285D01*
X-22754285Y-43387285D01*
X-22754285Y-42637285D01*
X-23111428Y-43387285D02*
X-23111428Y-42637285D01*
X-23290000Y-42637285D01*
X-23397142Y-42673000D01*
X-23468571Y-42744428D01*
X-23504285Y-42815857D01*
X-23540000Y-42958714D01*
X-23540000Y-43065857D01*
X-23504285Y-43208714D01*
X-23468571Y-43280142D01*
X-23397142Y-43351571D01*
X-23290000Y-43387285D01*
X-23111428Y-43387285D01*
X-19107142Y-43351571D02*
X-19214285Y-43387285D01*
X-19392857Y-43387285D01*
X-19464285Y-43351571D01*
X-19500000Y-43315857D01*
X-19535714Y-43244428D01*
X-19535714Y-43173000D01*
X-19500000Y-43101571D01*
X-19464285Y-43065857D01*
X-19392857Y-43030142D01*
X-19250000Y-42994428D01*
X-19178571Y-42958714D01*
X-19142857Y-42923000D01*
X-19107142Y-42851571D01*
X-19107142Y-42780142D01*
X-19142857Y-42708714D01*
X-19178571Y-42673000D01*
X-19250000Y-42637285D01*
X-19428571Y-42637285D01*
X-19535714Y-42673000D01*
X-20285714Y-43315857D02*
X-20250000Y-43351571D01*
X-20142857Y-43387285D01*
X-20071428Y-43387285D01*
X-19964285Y-43351571D01*
X-19892857Y-43280142D01*
X-19857142Y-43208714D01*
X-19821428Y-43065857D01*
X-19821428Y-42958714D01*
X-19857142Y-42815857D01*
X-19892857Y-42744428D01*
X-19964285Y-42673000D01*
X-20071428Y-42637285D01*
X-20142857Y-42637285D01*
X-20250000Y-42673000D01*
X-20285714Y-42708714D01*
X-20964285Y-43387285D02*
X-20607142Y-43387285D01*
X-20607142Y-42637285D01*
X-14955857Y-42673000D02*
X-14884428Y-42637285D01*
X-14777285Y-42637285D01*
X-14670142Y-42673000D01*
X-14598714Y-42744428D01*
X-14563000Y-42815857D01*
X-14527285Y-42958714D01*
X-14527285Y-43065857D01*
X-14563000Y-43208714D01*
X-14598714Y-43280142D01*
X-14670142Y-43351571D01*
X-14777285Y-43387285D01*
X-14848714Y-43387285D01*
X-14955857Y-43351571D01*
X-14991571Y-43315857D01*
X-14991571Y-43065857D01*
X-14848714Y-43065857D01*
X-15313000Y-43387285D02*
X-15313000Y-42637285D01*
X-15598714Y-42637285D01*
X-15670142Y-42673000D01*
X-15705857Y-42708714D01*
X-15741571Y-42780142D01*
X-15741571Y-42887285D01*
X-15705857Y-42958714D01*
X-15670142Y-42994428D01*
X-15598714Y-43030142D01*
X-15313000Y-43030142D01*
X-16063000Y-43387285D02*
X-16063000Y-42637285D01*
X-16563000Y-42637285D02*
X-16705857Y-42637285D01*
X-16777285Y-42673000D01*
X-16848714Y-42744428D01*
X-16884428Y-42887285D01*
X-16884428Y-43137285D01*
X-16848714Y-43280142D01*
X-16777285Y-43351571D01*
X-16705857Y-43387285D01*
X-16563000Y-43387285D01*
X-16491571Y-43351571D01*
X-16420142Y-43280142D01*
X-16384428Y-43137285D01*
X-16384428Y-42887285D01*
X-16420142Y-42744428D01*
X-16491571Y-42673000D01*
X-16563000Y-42637285D01*
X-17170142Y-42708714D02*
X-17205857Y-42673000D01*
X-17277285Y-42637285D01*
X-17455857Y-42637285D01*
X-17527285Y-42673000D01*
X-17563000Y-42708714D01*
X-17598714Y-42780142D01*
X-17598714Y-42851571D01*
X-17563000Y-42958714D01*
X-17134428Y-43387285D01*
X-17598714Y-43387285D01*
X18500315Y1524919D02*
X18500315Y2524919D01*
X18262220Y2524919D01*
X18119362Y2477300D01*
X18024124Y2382061D01*
X17976505Y2286823D01*
X17928886Y2096347D01*
X17928886Y1953490D01*
X17976505Y1763014D01*
X18024124Y1667776D01*
X18119362Y1572538D01*
X18262220Y1524919D01*
X18500315Y1524919D01*
X17595553Y2524919D02*
X16976505Y2524919D01*
X17309839Y2143966D01*
X17166981Y2143966D01*
X17071743Y2096347D01*
X17024124Y2048728D01*
X16976505Y1953490D01*
X16976505Y1715395D01*
X17024124Y1620157D01*
X17071743Y1572538D01*
X17166981Y1524919D01*
X17452696Y1524919D01*
X17547934Y1572538D01*
X17595553Y1620157D01*
X13151020Y27725595D02*
X12151020Y27725595D01*
X12151020Y27487500D01*
X12198640Y27344642D01*
X12293878Y27249404D01*
X12389116Y27201785D01*
X12579592Y27154166D01*
X12722449Y27154166D01*
X12912925Y27201785D01*
X13008163Y27249404D01*
X13103401Y27344642D01*
X13151020Y27487500D01*
X13151020Y27725595D01*
X12484354Y26297023D02*
X13151020Y26297023D01*
X12103401Y26535119D02*
X12817687Y26773214D01*
X12817687Y26154166D01*
X7283746Y2799699D02*
X7617080Y3275889D01*
X7855175Y2799699D02*
X7855175Y3799699D01*
X7474222Y3799699D01*
X7378984Y3752080D01*
X7331365Y3704460D01*
X7283746Y3609222D01*
X7283746Y3466365D01*
X7331365Y3371127D01*
X7378984Y3323508D01*
X7474222Y3275889D01*
X7855175Y3275889D01*
X6902794Y3704460D02*
X6855175Y3752080D01*
X6759937Y3799699D01*
X6521841Y3799699D01*
X6426603Y3752080D01*
X6378984Y3704460D01*
X6331365Y3609222D01*
X6331365Y3513984D01*
X6378984Y3371127D01*
X6950413Y2799699D01*
X6331365Y2799699D01*
M02*
