G04 #@! TF.GenerationSoftware,KiCad,Pcbnew,(5.1.2)-1*
G04 #@! TF.CreationDate,2019-07-11T20:21:29-05:00*
G04 #@! TF.ProjectId,keanu-homeboy,6b65616e-752d-4686-9f6d-65626f792e6b,rev?*
G04 #@! TF.SameCoordinates,Original*
G04 #@! TF.FileFunction,Copper,L1,Top*
G04 #@! TF.FilePolarity,Positive*
%FSLAX46Y46*%
G04 Gerber Fmt 4.6, Leading zero omitted, Abs format (unit mm)*
G04 Created by KiCad (PCBNEW (5.1.2)-1) date 2019-07-11 20:21:29*
%MOMM*%
%LPD*%
G04 APERTURE LIST*
%ADD10C,0.010000*%
%ADD11C,1.727200*%
%ADD12O,1.727200X1.727200*%
%ADD13R,1.727200X1.727200*%
G04 APERTURE END LIST*
D10*
G36*
X-15436162Y-22532940D02*
G01*
X-15301527Y-22554263D01*
X-15181728Y-22590046D01*
X-15073147Y-22641235D01*
X-15020634Y-22673772D01*
X-14975862Y-22707846D01*
X-14935255Y-22745559D01*
X-14908574Y-22777450D01*
X-14869364Y-22850814D01*
X-14831983Y-22948139D01*
X-14796700Y-23068031D01*
X-14763788Y-23209098D01*
X-14733517Y-23369948D01*
X-14706157Y-23549188D01*
X-14681980Y-23745426D01*
X-14661257Y-23957270D01*
X-14649174Y-24110950D01*
X-14632201Y-24316619D01*
X-14612260Y-24499267D01*
X-14589421Y-24658542D01*
X-14563754Y-24794091D01*
X-14535331Y-24905561D01*
X-14504221Y-24992600D01*
X-14470495Y-25054856D01*
X-14456468Y-25072543D01*
X-14424300Y-25094791D01*
X-14391237Y-25092495D01*
X-14357984Y-25066459D01*
X-14325252Y-25017489D01*
X-14293747Y-24946390D01*
X-14264177Y-24853966D01*
X-14264159Y-24853900D01*
X-14241316Y-24761677D01*
X-14220940Y-24658713D01*
X-14202763Y-24542733D01*
X-14186519Y-24411461D01*
X-14171939Y-24262619D01*
X-14158755Y-24093933D01*
X-14146702Y-23903125D01*
X-14141735Y-23812500D01*
X-14132408Y-23642941D01*
X-14123380Y-23496557D01*
X-14114376Y-23371128D01*
X-14105124Y-23264434D01*
X-14095350Y-23174258D01*
X-14084780Y-23098379D01*
X-14073142Y-23034579D01*
X-14060162Y-22980637D01*
X-14045566Y-22934336D01*
X-14029082Y-22893455D01*
X-14028310Y-22891750D01*
X-13987399Y-22818048D01*
X-13937611Y-22762687D01*
X-13872244Y-22718701D01*
X-13851741Y-22708205D01*
X-13775529Y-22677529D01*
X-13678632Y-22648647D01*
X-13565742Y-22622228D01*
X-13441549Y-22598942D01*
X-13310745Y-22579457D01*
X-13178020Y-22564443D01*
X-13048064Y-22554568D01*
X-12925570Y-22550502D01*
X-12815227Y-22552914D01*
X-12780475Y-22555401D01*
X-12698964Y-22564264D01*
X-12638637Y-22575777D01*
X-12595291Y-22591748D01*
X-12564724Y-22613986D01*
X-12542734Y-22644300D01*
X-12534399Y-22661326D01*
X-12514216Y-22719859D01*
X-12495232Y-22801621D01*
X-12477425Y-22906846D01*
X-12460775Y-23035767D01*
X-12445261Y-23188618D01*
X-12430863Y-23365631D01*
X-12417559Y-23567039D01*
X-12405330Y-23793077D01*
X-12394155Y-24043977D01*
X-12384012Y-24319972D01*
X-12381920Y-24384000D01*
X-12380116Y-24451809D01*
X-12378356Y-24540091D01*
X-12376646Y-24647383D01*
X-12374990Y-24772224D01*
X-12373392Y-24913149D01*
X-12371855Y-25068697D01*
X-12370385Y-25237405D01*
X-12368984Y-25417811D01*
X-12367658Y-25608452D01*
X-12366410Y-25807866D01*
X-12365244Y-26014589D01*
X-12364165Y-26227160D01*
X-12363177Y-26444117D01*
X-12362283Y-26663995D01*
X-12361488Y-26885334D01*
X-12360796Y-27106670D01*
X-12360211Y-27326541D01*
X-12359737Y-27543484D01*
X-12359379Y-27756038D01*
X-12359140Y-27962738D01*
X-12359024Y-28162123D01*
X-12359036Y-28352731D01*
X-12359180Y-28533099D01*
X-12359459Y-28701763D01*
X-12359878Y-28857263D01*
X-12360442Y-28998134D01*
X-12361153Y-29122915D01*
X-12362017Y-29230144D01*
X-12363037Y-29318357D01*
X-12364218Y-29386092D01*
X-12365563Y-29431887D01*
X-12367077Y-29454278D01*
X-12367672Y-29456334D01*
X-12383390Y-29461269D01*
X-12420191Y-29470661D01*
X-12474318Y-29483662D01*
X-12542016Y-29499428D01*
X-12619525Y-29517111D01*
X-12703091Y-29535866D01*
X-12788956Y-29554846D01*
X-12873362Y-29573205D01*
X-12952554Y-29590097D01*
X-13022773Y-29604676D01*
X-13055600Y-29611281D01*
X-13111755Y-29620438D01*
X-13181705Y-29629018D01*
X-13253855Y-29635682D01*
X-13284736Y-29637745D01*
X-13424650Y-29637789D01*
X-13548587Y-29620603D01*
X-13657413Y-29585379D01*
X-13751995Y-29531312D01*
X-13833198Y-29457597D01*
X-13901888Y-29363426D01*
X-13958932Y-29247995D01*
X-14005195Y-29110497D01*
X-14041543Y-28950127D01*
X-14045139Y-28930111D01*
X-14056590Y-28861008D01*
X-14066453Y-28792197D01*
X-14074911Y-28720826D01*
X-14082143Y-28644043D01*
X-14088330Y-28558998D01*
X-14093654Y-28462838D01*
X-14098296Y-28352712D01*
X-14102436Y-28225769D01*
X-14106255Y-28079157D01*
X-14109935Y-27910024D01*
X-14109971Y-27908250D01*
X-14113474Y-27746895D01*
X-14117070Y-27608357D01*
X-14120912Y-27490052D01*
X-14125155Y-27389395D01*
X-14129955Y-27303804D01*
X-14135466Y-27230694D01*
X-14141843Y-27167482D01*
X-14149240Y-27111583D01*
X-14157812Y-27060416D01*
X-14162083Y-27038300D01*
X-14180006Y-26967826D01*
X-14200325Y-26922399D01*
X-14222877Y-26901795D01*
X-14247497Y-26905792D01*
X-14274021Y-26934164D01*
X-14302284Y-26986689D01*
X-14332122Y-27063143D01*
X-14363371Y-27163303D01*
X-14395866Y-27286944D01*
X-14419506Y-27388420D01*
X-14438953Y-27478400D01*
X-14457901Y-27571919D01*
X-14476816Y-27671741D01*
X-14496164Y-27780630D01*
X-14516409Y-27901353D01*
X-14538018Y-28036672D01*
X-14561456Y-28189354D01*
X-14587190Y-28362161D01*
X-14610820Y-28524200D01*
X-14640934Y-28729331D01*
X-14668840Y-28910775D01*
X-14695305Y-29070071D01*
X-14721097Y-29208758D01*
X-14746982Y-29328373D01*
X-14773727Y-29430455D01*
X-14802099Y-29516543D01*
X-14832866Y-29588175D01*
X-14866793Y-29646890D01*
X-14904649Y-29694227D01*
X-14947200Y-29731722D01*
X-14995212Y-29760916D01*
X-15049454Y-29783347D01*
X-15110692Y-29800553D01*
X-15179693Y-29814072D01*
X-15257224Y-29825443D01*
X-15259691Y-29825767D01*
X-15372516Y-29837098D01*
X-15491521Y-29842956D01*
X-15609895Y-29843403D01*
X-15720824Y-29838499D01*
X-15817496Y-29828306D01*
X-15862635Y-29820359D01*
X-15956713Y-29795152D01*
X-16037353Y-29762807D01*
X-16099958Y-29725387D01*
X-16126528Y-29701815D01*
X-16140753Y-29679259D01*
X-16154078Y-29642606D01*
X-16166545Y-29591117D01*
X-16178195Y-29524055D01*
X-16189070Y-29440683D01*
X-16199211Y-29340263D01*
X-16208659Y-29222057D01*
X-16217456Y-29085328D01*
X-16225643Y-28929339D01*
X-16233262Y-28753351D01*
X-16240354Y-28556628D01*
X-16246961Y-28338432D01*
X-16253124Y-28098025D01*
X-16258884Y-27834671D01*
X-16264282Y-27547630D01*
X-16269361Y-27236166D01*
X-16270938Y-27130375D01*
X-16274497Y-26847329D01*
X-16276980Y-26562033D01*
X-16278421Y-26276028D01*
X-16278848Y-25990856D01*
X-16278294Y-25708059D01*
X-16276789Y-25429177D01*
X-16274364Y-25155754D01*
X-16271049Y-24889330D01*
X-16266876Y-24631447D01*
X-16261876Y-24383646D01*
X-16256080Y-24147470D01*
X-16249518Y-23924460D01*
X-16242221Y-23716157D01*
X-16234220Y-23524104D01*
X-16225546Y-23349841D01*
X-16216231Y-23194910D01*
X-16206304Y-23060853D01*
X-16195797Y-22949212D01*
X-16185504Y-22866666D01*
X-16171331Y-22789585D01*
X-16152254Y-22731820D01*
X-16124369Y-22687304D01*
X-16083766Y-22649973D01*
X-16026540Y-22613761D01*
X-16020373Y-22610311D01*
X-15939113Y-22572621D01*
X-15849889Y-22546506D01*
X-15747839Y-22531004D01*
X-15628099Y-22525156D01*
X-15589250Y-22525130D01*
X-15436162Y-22532940D01*
X-15436162Y-22532940D01*
G37*
X-15436162Y-22532940D02*
X-15301527Y-22554263D01*
X-15181728Y-22590046D01*
X-15073147Y-22641235D01*
X-15020634Y-22673772D01*
X-14975862Y-22707846D01*
X-14935255Y-22745559D01*
X-14908574Y-22777450D01*
X-14869364Y-22850814D01*
X-14831983Y-22948139D01*
X-14796700Y-23068031D01*
X-14763788Y-23209098D01*
X-14733517Y-23369948D01*
X-14706157Y-23549188D01*
X-14681980Y-23745426D01*
X-14661257Y-23957270D01*
X-14649174Y-24110950D01*
X-14632201Y-24316619D01*
X-14612260Y-24499267D01*
X-14589421Y-24658542D01*
X-14563754Y-24794091D01*
X-14535331Y-24905561D01*
X-14504221Y-24992600D01*
X-14470495Y-25054856D01*
X-14456468Y-25072543D01*
X-14424300Y-25094791D01*
X-14391237Y-25092495D01*
X-14357984Y-25066459D01*
X-14325252Y-25017489D01*
X-14293747Y-24946390D01*
X-14264177Y-24853966D01*
X-14264159Y-24853900D01*
X-14241316Y-24761677D01*
X-14220940Y-24658713D01*
X-14202763Y-24542733D01*
X-14186519Y-24411461D01*
X-14171939Y-24262619D01*
X-14158755Y-24093933D01*
X-14146702Y-23903125D01*
X-14141735Y-23812500D01*
X-14132408Y-23642941D01*
X-14123380Y-23496557D01*
X-14114376Y-23371128D01*
X-14105124Y-23264434D01*
X-14095350Y-23174258D01*
X-14084780Y-23098379D01*
X-14073142Y-23034579D01*
X-14060162Y-22980637D01*
X-14045566Y-22934336D01*
X-14029082Y-22893455D01*
X-14028310Y-22891750D01*
X-13987399Y-22818048D01*
X-13937611Y-22762687D01*
X-13872244Y-22718701D01*
X-13851741Y-22708205D01*
X-13775529Y-22677529D01*
X-13678632Y-22648647D01*
X-13565742Y-22622228D01*
X-13441549Y-22598942D01*
X-13310745Y-22579457D01*
X-13178020Y-22564443D01*
X-13048064Y-22554568D01*
X-12925570Y-22550502D01*
X-12815227Y-22552914D01*
X-12780475Y-22555401D01*
X-12698964Y-22564264D01*
X-12638637Y-22575777D01*
X-12595291Y-22591748D01*
X-12564724Y-22613986D01*
X-12542734Y-22644300D01*
X-12534399Y-22661326D01*
X-12514216Y-22719859D01*
X-12495232Y-22801621D01*
X-12477425Y-22906846D01*
X-12460775Y-23035767D01*
X-12445261Y-23188618D01*
X-12430863Y-23365631D01*
X-12417559Y-23567039D01*
X-12405330Y-23793077D01*
X-12394155Y-24043977D01*
X-12384012Y-24319972D01*
X-12381920Y-24384000D01*
X-12380116Y-24451809D01*
X-12378356Y-24540091D01*
X-12376646Y-24647383D01*
X-12374990Y-24772224D01*
X-12373392Y-24913149D01*
X-12371855Y-25068697D01*
X-12370385Y-25237405D01*
X-12368984Y-25417811D01*
X-12367658Y-25608452D01*
X-12366410Y-25807866D01*
X-12365244Y-26014589D01*
X-12364165Y-26227160D01*
X-12363177Y-26444117D01*
X-12362283Y-26663995D01*
X-12361488Y-26885334D01*
X-12360796Y-27106670D01*
X-12360211Y-27326541D01*
X-12359737Y-27543484D01*
X-12359379Y-27756038D01*
X-12359140Y-27962738D01*
X-12359024Y-28162123D01*
X-12359036Y-28352731D01*
X-12359180Y-28533099D01*
X-12359459Y-28701763D01*
X-12359878Y-28857263D01*
X-12360442Y-28998134D01*
X-12361153Y-29122915D01*
X-12362017Y-29230144D01*
X-12363037Y-29318357D01*
X-12364218Y-29386092D01*
X-12365563Y-29431887D01*
X-12367077Y-29454278D01*
X-12367672Y-29456334D01*
X-12383390Y-29461269D01*
X-12420191Y-29470661D01*
X-12474318Y-29483662D01*
X-12542016Y-29499428D01*
X-12619525Y-29517111D01*
X-12703091Y-29535866D01*
X-12788956Y-29554846D01*
X-12873362Y-29573205D01*
X-12952554Y-29590097D01*
X-13022773Y-29604676D01*
X-13055600Y-29611281D01*
X-13111755Y-29620438D01*
X-13181705Y-29629018D01*
X-13253855Y-29635682D01*
X-13284736Y-29637745D01*
X-13424650Y-29637789D01*
X-13548587Y-29620603D01*
X-13657413Y-29585379D01*
X-13751995Y-29531312D01*
X-13833198Y-29457597D01*
X-13901888Y-29363426D01*
X-13958932Y-29247995D01*
X-14005195Y-29110497D01*
X-14041543Y-28950127D01*
X-14045139Y-28930111D01*
X-14056590Y-28861008D01*
X-14066453Y-28792197D01*
X-14074911Y-28720826D01*
X-14082143Y-28644043D01*
X-14088330Y-28558998D01*
X-14093654Y-28462838D01*
X-14098296Y-28352712D01*
X-14102436Y-28225769D01*
X-14106255Y-28079157D01*
X-14109935Y-27910024D01*
X-14109971Y-27908250D01*
X-14113474Y-27746895D01*
X-14117070Y-27608357D01*
X-14120912Y-27490052D01*
X-14125155Y-27389395D01*
X-14129955Y-27303804D01*
X-14135466Y-27230694D01*
X-14141843Y-27167482D01*
X-14149240Y-27111583D01*
X-14157812Y-27060416D01*
X-14162083Y-27038300D01*
X-14180006Y-26967826D01*
X-14200325Y-26922399D01*
X-14222877Y-26901795D01*
X-14247497Y-26905792D01*
X-14274021Y-26934164D01*
X-14302284Y-26986689D01*
X-14332122Y-27063143D01*
X-14363371Y-27163303D01*
X-14395866Y-27286944D01*
X-14419506Y-27388420D01*
X-14438953Y-27478400D01*
X-14457901Y-27571919D01*
X-14476816Y-27671741D01*
X-14496164Y-27780630D01*
X-14516409Y-27901353D01*
X-14538018Y-28036672D01*
X-14561456Y-28189354D01*
X-14587190Y-28362161D01*
X-14610820Y-28524200D01*
X-14640934Y-28729331D01*
X-14668840Y-28910775D01*
X-14695305Y-29070071D01*
X-14721097Y-29208758D01*
X-14746982Y-29328373D01*
X-14773727Y-29430455D01*
X-14802099Y-29516543D01*
X-14832866Y-29588175D01*
X-14866793Y-29646890D01*
X-14904649Y-29694227D01*
X-14947200Y-29731722D01*
X-14995212Y-29760916D01*
X-15049454Y-29783347D01*
X-15110692Y-29800553D01*
X-15179693Y-29814072D01*
X-15257224Y-29825443D01*
X-15259691Y-29825767D01*
X-15372516Y-29837098D01*
X-15491521Y-29842956D01*
X-15609895Y-29843403D01*
X-15720824Y-29838499D01*
X-15817496Y-29828306D01*
X-15862635Y-29820359D01*
X-15956713Y-29795152D01*
X-16037353Y-29762807D01*
X-16099958Y-29725387D01*
X-16126528Y-29701815D01*
X-16140753Y-29679259D01*
X-16154078Y-29642606D01*
X-16166545Y-29591117D01*
X-16178195Y-29524055D01*
X-16189070Y-29440683D01*
X-16199211Y-29340263D01*
X-16208659Y-29222057D01*
X-16217456Y-29085328D01*
X-16225643Y-28929339D01*
X-16233262Y-28753351D01*
X-16240354Y-28556628D01*
X-16246961Y-28338432D01*
X-16253124Y-28098025D01*
X-16258884Y-27834671D01*
X-16264282Y-27547630D01*
X-16269361Y-27236166D01*
X-16270938Y-27130375D01*
X-16274497Y-26847329D01*
X-16276980Y-26562033D01*
X-16278421Y-26276028D01*
X-16278848Y-25990856D01*
X-16278294Y-25708059D01*
X-16276789Y-25429177D01*
X-16274364Y-25155754D01*
X-16271049Y-24889330D01*
X-16266876Y-24631447D01*
X-16261876Y-24383646D01*
X-16256080Y-24147470D01*
X-16249518Y-23924460D01*
X-16242221Y-23716157D01*
X-16234220Y-23524104D01*
X-16225546Y-23349841D01*
X-16216231Y-23194910D01*
X-16206304Y-23060853D01*
X-16195797Y-22949212D01*
X-16185504Y-22866666D01*
X-16171331Y-22789585D01*
X-16152254Y-22731820D01*
X-16124369Y-22687304D01*
X-16083766Y-22649973D01*
X-16026540Y-22613761D01*
X-16020373Y-22610311D01*
X-15939113Y-22572621D01*
X-15849889Y-22546506D01*
X-15747839Y-22531004D01*
X-15628099Y-22525156D01*
X-15589250Y-22525130D01*
X-15436162Y-22532940D01*
G36*
X-11068476Y-22604480D02*
G01*
X-11035893Y-22612332D01*
X-10924785Y-22641559D01*
X-10828537Y-22663805D01*
X-10738166Y-22680847D01*
X-10644689Y-22694462D01*
X-10584976Y-22701549D01*
X-10379487Y-22719870D01*
X-10154889Y-22731649D01*
X-9916654Y-22736736D01*
X-9670255Y-22734980D01*
X-9525000Y-22730738D01*
X-9337959Y-22725003D01*
X-9174085Y-22722931D01*
X-9031367Y-22724840D01*
X-8907796Y-22731045D01*
X-8801359Y-22741864D01*
X-8710047Y-22757615D01*
X-8631847Y-22778614D01*
X-8564749Y-22805178D01*
X-8506743Y-22837625D01*
X-8455817Y-22876271D01*
X-8426450Y-22903957D01*
X-8367555Y-22970183D01*
X-8322802Y-23036976D01*
X-8288768Y-23111221D01*
X-8262025Y-23199805D01*
X-8248122Y-23262363D01*
X-8225705Y-23388733D01*
X-8204385Y-23539048D01*
X-8184235Y-23711874D01*
X-8165329Y-23905776D01*
X-8147740Y-24119321D01*
X-8131543Y-24351073D01*
X-8116811Y-24599599D01*
X-8103617Y-24863465D01*
X-8092036Y-25141235D01*
X-8082142Y-25431475D01*
X-8074008Y-25732752D01*
X-8067707Y-26043631D01*
X-8063315Y-26362678D01*
X-8060904Y-26688458D01*
X-8060434Y-26911300D01*
X-8061053Y-27200114D01*
X-8062947Y-27464640D01*
X-8066195Y-27705958D01*
X-8070876Y-27925152D01*
X-8077068Y-28123304D01*
X-8084850Y-28301496D01*
X-8094300Y-28460811D01*
X-8105497Y-28602331D01*
X-8118520Y-28727139D01*
X-8133446Y-28836316D01*
X-8150356Y-28930946D01*
X-8169327Y-29012111D01*
X-8190437Y-29080894D01*
X-8213766Y-29138376D01*
X-8223515Y-29158028D01*
X-8285812Y-29252428D01*
X-8370337Y-29343102D01*
X-8473945Y-29427471D01*
X-8593492Y-29502958D01*
X-8718952Y-29564092D01*
X-8831003Y-29606516D01*
X-8963812Y-29648180D01*
X-9112741Y-29687952D01*
X-9273150Y-29724700D01*
X-9440401Y-29757292D01*
X-9609855Y-29784595D01*
X-9639300Y-29788733D01*
X-9704821Y-29795746D01*
X-9789333Y-29801800D01*
X-9887688Y-29806795D01*
X-9994736Y-29810629D01*
X-10105330Y-29813202D01*
X-10214320Y-29814413D01*
X-10316556Y-29814160D01*
X-10406891Y-29812343D01*
X-10480174Y-29808860D01*
X-10514240Y-29805883D01*
X-10696535Y-29778714D01*
X-10870105Y-29739561D01*
X-11032526Y-29689487D01*
X-11181376Y-29629557D01*
X-11314229Y-29560835D01*
X-11428663Y-29484385D01*
X-11522254Y-29401270D01*
X-11573144Y-29340958D01*
X-11605929Y-29293430D01*
X-11633789Y-29245559D01*
X-11657498Y-29194308D01*
X-11677833Y-29136642D01*
X-11695569Y-29069523D01*
X-11711480Y-28989915D01*
X-11726343Y-28894781D01*
X-11740933Y-28781086D01*
X-11756025Y-28645792D01*
X-11759777Y-28610061D01*
X-11778623Y-28418246D01*
X-11797170Y-28208730D01*
X-11815314Y-27983834D01*
X-11832951Y-27745878D01*
X-11849975Y-27497184D01*
X-11866282Y-27240072D01*
X-11881766Y-26976864D01*
X-11896322Y-26709880D01*
X-11909847Y-26441442D01*
X-11922233Y-26173870D01*
X-11931379Y-25956901D01*
X-10246480Y-25956901D01*
X-10244688Y-26206450D01*
X-10242342Y-26412374D01*
X-10239674Y-26596005D01*
X-10236570Y-26760449D01*
X-10232914Y-26908813D01*
X-10228592Y-27044201D01*
X-10223487Y-27169721D01*
X-10217485Y-27288478D01*
X-10210472Y-27403579D01*
X-10202331Y-27518129D01*
X-10192947Y-27635235D01*
X-10190794Y-27660600D01*
X-10178573Y-27793468D01*
X-10166283Y-27903776D01*
X-10153217Y-27994355D01*
X-10138666Y-28068038D01*
X-10121922Y-28127656D01*
X-10102279Y-28176040D01*
X-10079028Y-28216023D01*
X-10051462Y-28250437D01*
X-10040544Y-28261810D01*
X-9995303Y-28296998D01*
X-9954459Y-28307369D01*
X-9917445Y-28293014D01*
X-9906676Y-28283575D01*
X-9871429Y-28235355D01*
X-9839238Y-28164080D01*
X-9810048Y-28069447D01*
X-9783803Y-27951152D01*
X-9760448Y-27808892D01*
X-9739928Y-27642365D01*
X-9722186Y-27451265D01*
X-9707169Y-27235292D01*
X-9703517Y-27171650D01*
X-9695529Y-27000896D01*
X-9689332Y-26814636D01*
X-9684904Y-26616730D01*
X-9682222Y-26411042D01*
X-9681262Y-26201434D01*
X-9682003Y-25991767D01*
X-9684422Y-25785903D01*
X-9688496Y-25587706D01*
X-9694202Y-25401036D01*
X-9701517Y-25229756D01*
X-9710419Y-25077728D01*
X-9716296Y-24999950D01*
X-9734879Y-24807579D01*
X-9756588Y-24638487D01*
X-9781349Y-24492975D01*
X-9809087Y-24371343D01*
X-9839725Y-24273889D01*
X-9873189Y-24200916D01*
X-9909403Y-24152722D01*
X-9932942Y-24135552D01*
X-9959830Y-24123895D01*
X-9981793Y-24123914D01*
X-10011121Y-24136211D01*
X-10018012Y-24139714D01*
X-10070330Y-24179224D01*
X-10116680Y-24238498D01*
X-10153628Y-24312030D01*
X-10177741Y-24394309D01*
X-10178201Y-24396700D01*
X-10195165Y-24505130D01*
X-10209734Y-24638666D01*
X-10221902Y-24797125D01*
X-10231661Y-24980325D01*
X-10239005Y-25188085D01*
X-10243927Y-25420223D01*
X-10246421Y-25676555D01*
X-10246480Y-25956901D01*
X-11931379Y-25956901D01*
X-11933378Y-25909486D01*
X-11943175Y-25650610D01*
X-11951520Y-25399564D01*
X-11958308Y-25158668D01*
X-11963434Y-24930244D01*
X-11966794Y-24716612D01*
X-11968281Y-24520094D01*
X-11967791Y-24343010D01*
X-11965220Y-24187682D01*
X-11962989Y-24115296D01*
X-11954105Y-23927648D01*
X-11941552Y-23762079D01*
X-11924398Y-23615419D01*
X-11901707Y-23484493D01*
X-11872547Y-23366129D01*
X-11835983Y-23257156D01*
X-11791081Y-23154401D01*
X-11736907Y-23054690D01*
X-11672527Y-22954853D01*
X-11597007Y-22851715D01*
X-11587287Y-22839141D01*
X-11526417Y-22765476D01*
X-11470833Y-22709642D01*
X-11414718Y-22666623D01*
X-11352261Y-22631402D01*
X-11339395Y-22625270D01*
X-11258591Y-22600280D01*
X-11166103Y-22593257D01*
X-11068476Y-22604480D01*
X-11068476Y-22604480D01*
G37*
X-11068476Y-22604480D02*
X-11035893Y-22612332D01*
X-10924785Y-22641559D01*
X-10828537Y-22663805D01*
X-10738166Y-22680847D01*
X-10644689Y-22694462D01*
X-10584976Y-22701549D01*
X-10379487Y-22719870D01*
X-10154889Y-22731649D01*
X-9916654Y-22736736D01*
X-9670255Y-22734980D01*
X-9525000Y-22730738D01*
X-9337959Y-22725003D01*
X-9174085Y-22722931D01*
X-9031367Y-22724840D01*
X-8907796Y-22731045D01*
X-8801359Y-22741864D01*
X-8710047Y-22757615D01*
X-8631847Y-22778614D01*
X-8564749Y-22805178D01*
X-8506743Y-22837625D01*
X-8455817Y-22876271D01*
X-8426450Y-22903957D01*
X-8367555Y-22970183D01*
X-8322802Y-23036976D01*
X-8288768Y-23111221D01*
X-8262025Y-23199805D01*
X-8248122Y-23262363D01*
X-8225705Y-23388733D01*
X-8204385Y-23539048D01*
X-8184235Y-23711874D01*
X-8165329Y-23905776D01*
X-8147740Y-24119321D01*
X-8131543Y-24351073D01*
X-8116811Y-24599599D01*
X-8103617Y-24863465D01*
X-8092036Y-25141235D01*
X-8082142Y-25431475D01*
X-8074008Y-25732752D01*
X-8067707Y-26043631D01*
X-8063315Y-26362678D01*
X-8060904Y-26688458D01*
X-8060434Y-26911300D01*
X-8061053Y-27200114D01*
X-8062947Y-27464640D01*
X-8066195Y-27705958D01*
X-8070876Y-27925152D01*
X-8077068Y-28123304D01*
X-8084850Y-28301496D01*
X-8094300Y-28460811D01*
X-8105497Y-28602331D01*
X-8118520Y-28727139D01*
X-8133446Y-28836316D01*
X-8150356Y-28930946D01*
X-8169327Y-29012111D01*
X-8190437Y-29080894D01*
X-8213766Y-29138376D01*
X-8223515Y-29158028D01*
X-8285812Y-29252428D01*
X-8370337Y-29343102D01*
X-8473945Y-29427471D01*
X-8593492Y-29502958D01*
X-8718952Y-29564092D01*
X-8831003Y-29606516D01*
X-8963812Y-29648180D01*
X-9112741Y-29687952D01*
X-9273150Y-29724700D01*
X-9440401Y-29757292D01*
X-9609855Y-29784595D01*
X-9639300Y-29788733D01*
X-9704821Y-29795746D01*
X-9789333Y-29801800D01*
X-9887688Y-29806795D01*
X-9994736Y-29810629D01*
X-10105330Y-29813202D01*
X-10214320Y-29814413D01*
X-10316556Y-29814160D01*
X-10406891Y-29812343D01*
X-10480174Y-29808860D01*
X-10514240Y-29805883D01*
X-10696535Y-29778714D01*
X-10870105Y-29739561D01*
X-11032526Y-29689487D01*
X-11181376Y-29629557D01*
X-11314229Y-29560835D01*
X-11428663Y-29484385D01*
X-11522254Y-29401270D01*
X-11573144Y-29340958D01*
X-11605929Y-29293430D01*
X-11633789Y-29245559D01*
X-11657498Y-29194308D01*
X-11677833Y-29136642D01*
X-11695569Y-29069523D01*
X-11711480Y-28989915D01*
X-11726343Y-28894781D01*
X-11740933Y-28781086D01*
X-11756025Y-28645792D01*
X-11759777Y-28610061D01*
X-11778623Y-28418246D01*
X-11797170Y-28208730D01*
X-11815314Y-27983834D01*
X-11832951Y-27745878D01*
X-11849975Y-27497184D01*
X-11866282Y-27240072D01*
X-11881766Y-26976864D01*
X-11896322Y-26709880D01*
X-11909847Y-26441442D01*
X-11922233Y-26173870D01*
X-11931379Y-25956901D01*
X-10246480Y-25956901D01*
X-10244688Y-26206450D01*
X-10242342Y-26412374D01*
X-10239674Y-26596005D01*
X-10236570Y-26760449D01*
X-10232914Y-26908813D01*
X-10228592Y-27044201D01*
X-10223487Y-27169721D01*
X-10217485Y-27288478D01*
X-10210472Y-27403579D01*
X-10202331Y-27518129D01*
X-10192947Y-27635235D01*
X-10190794Y-27660600D01*
X-10178573Y-27793468D01*
X-10166283Y-27903776D01*
X-10153217Y-27994355D01*
X-10138666Y-28068038D01*
X-10121922Y-28127656D01*
X-10102279Y-28176040D01*
X-10079028Y-28216023D01*
X-10051462Y-28250437D01*
X-10040544Y-28261810D01*
X-9995303Y-28296998D01*
X-9954459Y-28307369D01*
X-9917445Y-28293014D01*
X-9906676Y-28283575D01*
X-9871429Y-28235355D01*
X-9839238Y-28164080D01*
X-9810048Y-28069447D01*
X-9783803Y-27951152D01*
X-9760448Y-27808892D01*
X-9739928Y-27642365D01*
X-9722186Y-27451265D01*
X-9707169Y-27235292D01*
X-9703517Y-27171650D01*
X-9695529Y-27000896D01*
X-9689332Y-26814636D01*
X-9684904Y-26616730D01*
X-9682222Y-26411042D01*
X-9681262Y-26201434D01*
X-9682003Y-25991767D01*
X-9684422Y-25785903D01*
X-9688496Y-25587706D01*
X-9694202Y-25401036D01*
X-9701517Y-25229756D01*
X-9710419Y-25077728D01*
X-9716296Y-24999950D01*
X-9734879Y-24807579D01*
X-9756588Y-24638487D01*
X-9781349Y-24492975D01*
X-9809087Y-24371343D01*
X-9839725Y-24273889D01*
X-9873189Y-24200916D01*
X-9909403Y-24152722D01*
X-9932942Y-24135552D01*
X-9959830Y-24123895D01*
X-9981793Y-24123914D01*
X-10011121Y-24136211D01*
X-10018012Y-24139714D01*
X-10070330Y-24179224D01*
X-10116680Y-24238498D01*
X-10153628Y-24312030D01*
X-10177741Y-24394309D01*
X-10178201Y-24396700D01*
X-10195165Y-24505130D01*
X-10209734Y-24638666D01*
X-10221902Y-24797125D01*
X-10231661Y-24980325D01*
X-10239005Y-25188085D01*
X-10243927Y-25420223D01*
X-10246421Y-25676555D01*
X-10246480Y-25956901D01*
X-11931379Y-25956901D01*
X-11933378Y-25909486D01*
X-11943175Y-25650610D01*
X-11951520Y-25399564D01*
X-11958308Y-25158668D01*
X-11963434Y-24930244D01*
X-11966794Y-24716612D01*
X-11968281Y-24520094D01*
X-11967791Y-24343010D01*
X-11965220Y-24187682D01*
X-11962989Y-24115296D01*
X-11954105Y-23927648D01*
X-11941552Y-23762079D01*
X-11924398Y-23615419D01*
X-11901707Y-23484493D01*
X-11872547Y-23366129D01*
X-11835983Y-23257156D01*
X-11791081Y-23154401D01*
X-11736907Y-23054690D01*
X-11672527Y-22954853D01*
X-11597007Y-22851715D01*
X-11587287Y-22839141D01*
X-11526417Y-22765476D01*
X-11470833Y-22709642D01*
X-11414718Y-22666623D01*
X-11352261Y-22631402D01*
X-11339395Y-22625270D01*
X-11258591Y-22600280D01*
X-11166103Y-22593257D01*
X-11068476Y-22604480D01*
G36*
X869026Y-22613338D02*
G01*
X979561Y-22616343D01*
X1077068Y-22620900D01*
X1157507Y-22627011D01*
X1216837Y-22634678D01*
X1219200Y-22635106D01*
X1340960Y-22661486D01*
X1437580Y-22691018D01*
X1509126Y-22723725D01*
X1544201Y-22748414D01*
X1590473Y-22803079D01*
X1632571Y-22881254D01*
X1670228Y-22981350D01*
X1703176Y-23101779D01*
X1731148Y-23240952D01*
X1753877Y-23397281D01*
X1771094Y-23569179D01*
X1782533Y-23755055D01*
X1787927Y-23953323D01*
X1787006Y-24162393D01*
X1786481Y-24187150D01*
X1781269Y-24351034D01*
X1773268Y-24491743D01*
X1761812Y-24611413D01*
X1746240Y-24712180D01*
X1725887Y-24796178D01*
X1700090Y-24865544D01*
X1668185Y-24922413D01*
X1629508Y-24968922D01*
X1583397Y-25007205D01*
X1529186Y-25039399D01*
X1520291Y-25043846D01*
X1414360Y-25086948D01*
X1303914Y-25116076D01*
X1193961Y-25130839D01*
X1089513Y-25130845D01*
X995577Y-25115700D01*
X927103Y-25090301D01*
X867722Y-25056776D01*
X814368Y-25018060D01*
X762657Y-24970014D01*
X708206Y-24908503D01*
X646632Y-24829387D01*
X637183Y-24816657D01*
X553486Y-24708180D01*
X478636Y-24621763D01*
X411244Y-24556222D01*
X349919Y-24510371D01*
X293273Y-24483024D01*
X239915Y-24472996D01*
X234201Y-24472900D01*
X192738Y-24480017D01*
X157976Y-24505150D01*
X153704Y-24509603D01*
X129456Y-24540269D01*
X111220Y-24576045D01*
X98021Y-24621166D01*
X88883Y-24679868D01*
X82833Y-24756386D01*
X79622Y-24831363D01*
X78835Y-24969377D01*
X85259Y-25103283D01*
X98327Y-25228915D01*
X117475Y-25342108D01*
X142140Y-25438697D01*
X171755Y-25514516D01*
X172408Y-25515820D01*
X205115Y-25569823D01*
X243771Y-25610031D01*
X291753Y-25637594D01*
X352437Y-25653663D01*
X429201Y-25659387D01*
X525422Y-25655917D01*
X572306Y-25652008D01*
X650347Y-25645607D01*
X709326Y-25643184D01*
X755267Y-25644739D01*
X794196Y-25650270D01*
X802271Y-25651988D01*
X884532Y-25678343D01*
X958099Y-25719536D01*
X1024432Y-25777367D01*
X1084993Y-25853636D01*
X1141242Y-25950142D01*
X1194640Y-26068684D01*
X1239878Y-26191036D01*
X1274699Y-26299227D01*
X1298920Y-26390439D01*
X1313711Y-26470199D01*
X1320239Y-26544037D01*
X1320800Y-26573642D01*
X1314698Y-26664463D01*
X1294899Y-26737553D01*
X1259162Y-26797850D01*
X1205244Y-26850295D01*
X1190052Y-26861754D01*
X1147339Y-26888403D01*
X1097594Y-26910539D01*
X1037978Y-26928685D01*
X965648Y-26943367D01*
X877765Y-26955109D01*
X771487Y-26964436D01*
X643973Y-26971872D01*
X577850Y-26974783D01*
X495020Y-26978701D01*
X418117Y-26983384D01*
X351751Y-26988468D01*
X300529Y-26993591D01*
X269060Y-26998391D01*
X265206Y-26999379D01*
X192872Y-27031823D01*
X136773Y-27081603D01*
X95847Y-27150134D01*
X69030Y-27238829D01*
X63994Y-27266900D01*
X59196Y-27312751D01*
X55537Y-27378541D01*
X53018Y-27458836D01*
X51645Y-27548200D01*
X51418Y-27641198D01*
X52342Y-27732394D01*
X54419Y-27816354D01*
X57652Y-27887641D01*
X62044Y-27940822D01*
X63628Y-27952700D01*
X86981Y-28072563D01*
X116598Y-28167843D01*
X152521Y-28238578D01*
X194787Y-28284809D01*
X243438Y-28306578D01*
X298512Y-28303925D01*
X360050Y-28276890D01*
X372120Y-28269236D01*
X424668Y-28225538D01*
X481936Y-28160605D01*
X544720Y-28073421D01*
X613813Y-27962970D01*
X619871Y-27952700D01*
X695468Y-27837911D01*
X774166Y-27746755D01*
X857975Y-27677487D01*
X948907Y-27628364D01*
X1021843Y-27603987D01*
X1128258Y-27586671D01*
X1236590Y-27587644D01*
X1341302Y-27605855D01*
X1436855Y-27640253D01*
X1517712Y-27689786D01*
X1530730Y-27700623D01*
X1581527Y-27753863D01*
X1628086Y-27821633D01*
X1670944Y-27905488D01*
X1710639Y-28006979D01*
X1747706Y-28127661D01*
X1782683Y-28269086D01*
X1816107Y-28432807D01*
X1848366Y-28619450D01*
X1856773Y-28685227D01*
X1863948Y-28767259D01*
X1869759Y-28860418D01*
X1874072Y-28959576D01*
X1876754Y-29059606D01*
X1877673Y-29155383D01*
X1876695Y-29241778D01*
X1873686Y-29313665D01*
X1868515Y-29365916D01*
X1867849Y-29370010D01*
X1850027Y-29451643D01*
X1826973Y-29512306D01*
X1796189Y-29556280D01*
X1755181Y-29587848D01*
X1734832Y-29598200D01*
X1660695Y-29625197D01*
X1561929Y-29650112D01*
X1439224Y-29672866D01*
X1293272Y-29693380D01*
X1124765Y-29711574D01*
X934394Y-29727370D01*
X722849Y-29740688D01*
X490823Y-29751449D01*
X356656Y-29756188D01*
X241233Y-29759804D01*
X145963Y-29762578D01*
X65613Y-29764503D01*
X-5052Y-29765576D01*
X-71264Y-29765790D01*
X-138258Y-29765141D01*
X-211265Y-29763624D01*
X-295521Y-29761234D01*
X-396258Y-29757965D01*
X-472650Y-29755380D01*
X-676613Y-29746593D01*
X-856055Y-29734880D01*
X-1011701Y-29720113D01*
X-1144275Y-29702167D01*
X-1254502Y-29680915D01*
X-1343106Y-29656231D01*
X-1410812Y-29627988D01*
X-1458344Y-29596061D01*
X-1472969Y-29580914D01*
X-1503964Y-29534459D01*
X-1531753Y-29473446D01*
X-1556603Y-29396450D01*
X-1578776Y-29302044D01*
X-1598539Y-29188801D01*
X-1616154Y-29055297D01*
X-1631888Y-28900103D01*
X-1646003Y-28721795D01*
X-1653582Y-28606750D01*
X-1656279Y-28548847D01*
X-1658748Y-28467560D01*
X-1660987Y-28364902D01*
X-1662998Y-28242889D01*
X-1664778Y-28103533D01*
X-1666330Y-27948850D01*
X-1667651Y-27780854D01*
X-1668743Y-27601558D01*
X-1669604Y-27412978D01*
X-1670235Y-27217127D01*
X-1670636Y-27016020D01*
X-1670806Y-26811671D01*
X-1670746Y-26606095D01*
X-1670455Y-26401305D01*
X-1669933Y-26199316D01*
X-1669179Y-26002142D01*
X-1668194Y-25811797D01*
X-1666978Y-25630296D01*
X-1665530Y-25459654D01*
X-1663851Y-25301883D01*
X-1661939Y-25158999D01*
X-1659795Y-25033016D01*
X-1657419Y-24925948D01*
X-1654811Y-24839809D01*
X-1653877Y-24815800D01*
X-1642191Y-24549810D01*
X-1630342Y-24308269D01*
X-1618254Y-24090230D01*
X-1605855Y-23894740D01*
X-1593068Y-23720850D01*
X-1579819Y-23567611D01*
X-1566034Y-23434072D01*
X-1551638Y-23319284D01*
X-1536557Y-23222297D01*
X-1523314Y-23153935D01*
X-1503939Y-23095557D01*
X-1470653Y-23048415D01*
X-1462171Y-23039635D01*
X-1397280Y-22988092D01*
X-1308132Y-22938068D01*
X-1195840Y-22889857D01*
X-1061517Y-22843753D01*
X-906276Y-22800048D01*
X-731231Y-22759038D01*
X-537494Y-22721015D01*
X-326179Y-22686272D01*
X-98399Y-22655104D01*
X69850Y-22635613D01*
X158462Y-22627803D01*
X262327Y-22621533D01*
X377404Y-22616804D01*
X499652Y-22613618D01*
X625032Y-22611978D01*
X749503Y-22611884D01*
X869026Y-22613338D01*
X869026Y-22613338D01*
G37*
X869026Y-22613338D02*
X979561Y-22616343D01*
X1077068Y-22620900D01*
X1157507Y-22627011D01*
X1216837Y-22634678D01*
X1219200Y-22635106D01*
X1340960Y-22661486D01*
X1437580Y-22691018D01*
X1509126Y-22723725D01*
X1544201Y-22748414D01*
X1590473Y-22803079D01*
X1632571Y-22881254D01*
X1670228Y-22981350D01*
X1703176Y-23101779D01*
X1731148Y-23240952D01*
X1753877Y-23397281D01*
X1771094Y-23569179D01*
X1782533Y-23755055D01*
X1787927Y-23953323D01*
X1787006Y-24162393D01*
X1786481Y-24187150D01*
X1781269Y-24351034D01*
X1773268Y-24491743D01*
X1761812Y-24611413D01*
X1746240Y-24712180D01*
X1725887Y-24796178D01*
X1700090Y-24865544D01*
X1668185Y-24922413D01*
X1629508Y-24968922D01*
X1583397Y-25007205D01*
X1529186Y-25039399D01*
X1520291Y-25043846D01*
X1414360Y-25086948D01*
X1303914Y-25116076D01*
X1193961Y-25130839D01*
X1089513Y-25130845D01*
X995577Y-25115700D01*
X927103Y-25090301D01*
X867722Y-25056776D01*
X814368Y-25018060D01*
X762657Y-24970014D01*
X708206Y-24908503D01*
X646632Y-24829387D01*
X637183Y-24816657D01*
X553486Y-24708180D01*
X478636Y-24621763D01*
X411244Y-24556222D01*
X349919Y-24510371D01*
X293273Y-24483024D01*
X239915Y-24472996D01*
X234201Y-24472900D01*
X192738Y-24480017D01*
X157976Y-24505150D01*
X153704Y-24509603D01*
X129456Y-24540269D01*
X111220Y-24576045D01*
X98021Y-24621166D01*
X88883Y-24679868D01*
X82833Y-24756386D01*
X79622Y-24831363D01*
X78835Y-24969377D01*
X85259Y-25103283D01*
X98327Y-25228915D01*
X117475Y-25342108D01*
X142140Y-25438697D01*
X171755Y-25514516D01*
X172408Y-25515820D01*
X205115Y-25569823D01*
X243771Y-25610031D01*
X291753Y-25637594D01*
X352437Y-25653663D01*
X429201Y-25659387D01*
X525422Y-25655917D01*
X572306Y-25652008D01*
X650347Y-25645607D01*
X709326Y-25643184D01*
X755267Y-25644739D01*
X794196Y-25650270D01*
X802271Y-25651988D01*
X884532Y-25678343D01*
X958099Y-25719536D01*
X1024432Y-25777367D01*
X1084993Y-25853636D01*
X1141242Y-25950142D01*
X1194640Y-26068684D01*
X1239878Y-26191036D01*
X1274699Y-26299227D01*
X1298920Y-26390439D01*
X1313711Y-26470199D01*
X1320239Y-26544037D01*
X1320800Y-26573642D01*
X1314698Y-26664463D01*
X1294899Y-26737553D01*
X1259162Y-26797850D01*
X1205244Y-26850295D01*
X1190052Y-26861754D01*
X1147339Y-26888403D01*
X1097594Y-26910539D01*
X1037978Y-26928685D01*
X965648Y-26943367D01*
X877765Y-26955109D01*
X771487Y-26964436D01*
X643973Y-26971872D01*
X577850Y-26974783D01*
X495020Y-26978701D01*
X418117Y-26983384D01*
X351751Y-26988468D01*
X300529Y-26993591D01*
X269060Y-26998391D01*
X265206Y-26999379D01*
X192872Y-27031823D01*
X136773Y-27081603D01*
X95847Y-27150134D01*
X69030Y-27238829D01*
X63994Y-27266900D01*
X59196Y-27312751D01*
X55537Y-27378541D01*
X53018Y-27458836D01*
X51645Y-27548200D01*
X51418Y-27641198D01*
X52342Y-27732394D01*
X54419Y-27816354D01*
X57652Y-27887641D01*
X62044Y-27940822D01*
X63628Y-27952700D01*
X86981Y-28072563D01*
X116598Y-28167843D01*
X152521Y-28238578D01*
X194787Y-28284809D01*
X243438Y-28306578D01*
X298512Y-28303925D01*
X360050Y-28276890D01*
X372120Y-28269236D01*
X424668Y-28225538D01*
X481936Y-28160605D01*
X544720Y-28073421D01*
X613813Y-27962970D01*
X619871Y-27952700D01*
X695468Y-27837911D01*
X774166Y-27746755D01*
X857975Y-27677487D01*
X948907Y-27628364D01*
X1021843Y-27603987D01*
X1128258Y-27586671D01*
X1236590Y-27587644D01*
X1341302Y-27605855D01*
X1436855Y-27640253D01*
X1517712Y-27689786D01*
X1530730Y-27700623D01*
X1581527Y-27753863D01*
X1628086Y-27821633D01*
X1670944Y-27905488D01*
X1710639Y-28006979D01*
X1747706Y-28127661D01*
X1782683Y-28269086D01*
X1816107Y-28432807D01*
X1848366Y-28619450D01*
X1856773Y-28685227D01*
X1863948Y-28767259D01*
X1869759Y-28860418D01*
X1874072Y-28959576D01*
X1876754Y-29059606D01*
X1877673Y-29155383D01*
X1876695Y-29241778D01*
X1873686Y-29313665D01*
X1868515Y-29365916D01*
X1867849Y-29370010D01*
X1850027Y-29451643D01*
X1826973Y-29512306D01*
X1796189Y-29556280D01*
X1755181Y-29587848D01*
X1734832Y-29598200D01*
X1660695Y-29625197D01*
X1561929Y-29650112D01*
X1439224Y-29672866D01*
X1293272Y-29693380D01*
X1124765Y-29711574D01*
X934394Y-29727370D01*
X722849Y-29740688D01*
X490823Y-29751449D01*
X356656Y-29756188D01*
X241233Y-29759804D01*
X145963Y-29762578D01*
X65613Y-29764503D01*
X-5052Y-29765576D01*
X-71264Y-29765790D01*
X-138258Y-29765141D01*
X-211265Y-29763624D01*
X-295521Y-29761234D01*
X-396258Y-29757965D01*
X-472650Y-29755380D01*
X-676613Y-29746593D01*
X-856055Y-29734880D01*
X-1011701Y-29720113D01*
X-1144275Y-29702167D01*
X-1254502Y-29680915D01*
X-1343106Y-29656231D01*
X-1410812Y-29627988D01*
X-1458344Y-29596061D01*
X-1472969Y-29580914D01*
X-1503964Y-29534459D01*
X-1531753Y-29473446D01*
X-1556603Y-29396450D01*
X-1578776Y-29302044D01*
X-1598539Y-29188801D01*
X-1616154Y-29055297D01*
X-1631888Y-28900103D01*
X-1646003Y-28721795D01*
X-1653582Y-28606750D01*
X-1656279Y-28548847D01*
X-1658748Y-28467560D01*
X-1660987Y-28364902D01*
X-1662998Y-28242889D01*
X-1664778Y-28103533D01*
X-1666330Y-27948850D01*
X-1667651Y-27780854D01*
X-1668743Y-27601558D01*
X-1669604Y-27412978D01*
X-1670235Y-27217127D01*
X-1670636Y-27016020D01*
X-1670806Y-26811671D01*
X-1670746Y-26606095D01*
X-1670455Y-26401305D01*
X-1669933Y-26199316D01*
X-1669179Y-26002142D01*
X-1668194Y-25811797D01*
X-1666978Y-25630296D01*
X-1665530Y-25459654D01*
X-1663851Y-25301883D01*
X-1661939Y-25158999D01*
X-1659795Y-25033016D01*
X-1657419Y-24925948D01*
X-1654811Y-24839809D01*
X-1653877Y-24815800D01*
X-1642191Y-24549810D01*
X-1630342Y-24308269D01*
X-1618254Y-24090230D01*
X-1605855Y-23894740D01*
X-1593068Y-23720850D01*
X-1579819Y-23567611D01*
X-1566034Y-23434072D01*
X-1551638Y-23319284D01*
X-1536557Y-23222297D01*
X-1523314Y-23153935D01*
X-1503939Y-23095557D01*
X-1470653Y-23048415D01*
X-1462171Y-23039635D01*
X-1397280Y-22988092D01*
X-1308132Y-22938068D01*
X-1195840Y-22889857D01*
X-1061517Y-22843753D01*
X-906276Y-22800048D01*
X-731231Y-22759038D01*
X-537494Y-22721015D01*
X-326179Y-22686272D01*
X-98399Y-22655104D01*
X69850Y-22635613D01*
X158462Y-22627803D01*
X262327Y-22621533D01*
X377404Y-22616804D01*
X499652Y-22613618D01*
X625032Y-22611978D01*
X749503Y-22611884D01*
X869026Y-22613338D01*
G36*
X-6612352Y-22711129D02*
G01*
X-6401791Y-22720076D01*
X-6213757Y-22737215D01*
X-6046636Y-22762832D01*
X-5898816Y-22797210D01*
X-5768684Y-22840638D01*
X-5692550Y-22873984D01*
X-5671832Y-22884576D01*
X-5652064Y-22896430D01*
X-5631780Y-22911230D01*
X-5609515Y-22930656D01*
X-5583803Y-22956393D01*
X-5553178Y-22990123D01*
X-5516176Y-23033527D01*
X-5471330Y-23088289D01*
X-5417175Y-23156091D01*
X-5352245Y-23238615D01*
X-5275076Y-23337545D01*
X-5184201Y-23454562D01*
X-5162690Y-23482300D01*
X-5077289Y-23591055D01*
X-5004051Y-23681019D01*
X-4940856Y-23754402D01*
X-4885584Y-23813416D01*
X-4836112Y-23860273D01*
X-4790322Y-23897182D01*
X-4746093Y-23926357D01*
X-4726145Y-23937545D01*
X-4638023Y-23974890D01*
X-4556079Y-23988663D01*
X-4478114Y-23978483D01*
X-4401934Y-23943969D01*
X-4325341Y-23884741D01*
X-4304318Y-23864476D01*
X-4250437Y-23805441D01*
X-4201571Y-23740205D01*
X-4154985Y-23664266D01*
X-4107942Y-23573123D01*
X-4057706Y-23462275D01*
X-4052665Y-23450550D01*
X-3992021Y-23324368D01*
X-3925837Y-23218361D01*
X-3850475Y-23127371D01*
X-3774306Y-23056158D01*
X-3646355Y-22961701D01*
X-3509696Y-22886480D01*
X-3360497Y-22828814D01*
X-3194928Y-22787019D01*
X-3138299Y-22776794D01*
X-3010123Y-22762241D01*
X-2896845Y-22764146D01*
X-2797371Y-22783476D01*
X-2710607Y-22821198D01*
X-2635461Y-22878279D01*
X-2570836Y-22955687D01*
X-2515641Y-23054388D01*
X-2468781Y-23175351D01*
X-2429162Y-23319542D01*
X-2407354Y-23423129D01*
X-2392257Y-23513927D01*
X-2377232Y-23626420D01*
X-2362682Y-23756901D01*
X-2349015Y-23901666D01*
X-2336635Y-24057010D01*
X-2334148Y-24091900D01*
X-2330063Y-24167257D01*
X-2326589Y-24266126D01*
X-2323714Y-24386628D01*
X-2321424Y-24526880D01*
X-2319706Y-24685004D01*
X-2318548Y-24859119D01*
X-2317936Y-25047344D01*
X-2317857Y-25247800D01*
X-2318299Y-25458606D01*
X-2319247Y-25677881D01*
X-2320690Y-25903746D01*
X-2322615Y-26134320D01*
X-2325007Y-26367723D01*
X-2327854Y-26602075D01*
X-2331144Y-26835495D01*
X-2334863Y-27066103D01*
X-2338998Y-27292019D01*
X-2343536Y-27511362D01*
X-2348464Y-27722253D01*
X-2353769Y-27922810D01*
X-2359439Y-28111154D01*
X-2362632Y-28206700D01*
X-2370939Y-28424218D01*
X-2380043Y-28617803D01*
X-2390175Y-28788917D01*
X-2401565Y-28939021D01*
X-2414445Y-29069575D01*
X-2429046Y-29182041D01*
X-2445598Y-29277880D01*
X-2464332Y-29358553D01*
X-2485480Y-29425520D01*
X-2509271Y-29480244D01*
X-2535938Y-29524186D01*
X-2565710Y-29558805D01*
X-2578078Y-29569982D01*
X-2625450Y-29599730D01*
X-2691289Y-29623938D01*
X-2777948Y-29643306D01*
X-2868797Y-29656374D01*
X-2963243Y-29663485D01*
X-3038013Y-29659467D01*
X-3096598Y-29643602D01*
X-3142488Y-29615171D01*
X-3161658Y-29596140D01*
X-3184659Y-29568905D01*
X-3198542Y-29550459D01*
X-3200400Y-29546727D01*
X-3203412Y-29532604D01*
X-3211231Y-29501316D01*
X-3220004Y-29467794D01*
X-3227423Y-29429337D01*
X-3234008Y-29372083D01*
X-3239872Y-29294458D01*
X-3245131Y-29194891D01*
X-3249898Y-29071806D01*
X-3250781Y-29044900D01*
X-3256722Y-28895126D01*
X-3264448Y-28768733D01*
X-3274380Y-28663740D01*
X-3286936Y-28578163D01*
X-3302537Y-28510021D01*
X-3321600Y-28457331D01*
X-3344546Y-28418111D01*
X-3371795Y-28390379D01*
X-3391952Y-28377606D01*
X-3435153Y-28365295D01*
X-3483089Y-28371266D01*
X-3536444Y-28396172D01*
X-3595909Y-28440666D01*
X-3662168Y-28505399D01*
X-3735911Y-28591024D01*
X-3817823Y-28698193D01*
X-3908592Y-28827559D01*
X-3981208Y-28936950D01*
X-4059531Y-29054797D01*
X-4129530Y-29154340D01*
X-4194556Y-29239832D01*
X-4257962Y-29315526D01*
X-4323100Y-29385675D01*
X-4376699Y-29438734D01*
X-4477163Y-29529231D01*
X-4567711Y-29597901D01*
X-4650170Y-29645440D01*
X-4726369Y-29672544D01*
X-4798135Y-29679908D01*
X-4867296Y-29668228D01*
X-4921250Y-29646013D01*
X-5006914Y-29594879D01*
X-5090630Y-29530077D01*
X-5173805Y-29449931D01*
X-5257845Y-29352760D01*
X-5344157Y-29236885D01*
X-5434147Y-29100627D01*
X-5529222Y-28942308D01*
X-5568417Y-28873450D01*
X-5647974Y-28735970D01*
X-5719472Y-28621608D01*
X-5783659Y-28529659D01*
X-5841283Y-28459415D01*
X-5893090Y-28410172D01*
X-5939829Y-28381221D01*
X-5982248Y-28371859D01*
X-6021093Y-28381377D01*
X-6057112Y-28409070D01*
X-6058471Y-28410510D01*
X-6076550Y-28432403D01*
X-6093496Y-28459221D01*
X-6110067Y-28493363D01*
X-6127019Y-28537226D01*
X-6145108Y-28593206D01*
X-6165091Y-28663703D01*
X-6187723Y-28751112D01*
X-6213762Y-28857832D01*
X-6243963Y-28986260D01*
X-6254599Y-29032200D01*
X-6287541Y-29155458D01*
X-6324508Y-29255250D01*
X-6366609Y-29333344D01*
X-6414953Y-29391506D01*
X-6470649Y-29431502D01*
X-6517193Y-29450426D01*
X-6562815Y-29459684D01*
X-6623926Y-29464368D01*
X-6702302Y-29464418D01*
X-6799720Y-29459775D01*
X-6917954Y-29450380D01*
X-7058780Y-29436174D01*
X-7107874Y-29430719D01*
X-7414898Y-29395964D01*
X-7422481Y-29293457D01*
X-7423953Y-29268816D01*
X-7426497Y-29220710D01*
X-7430021Y-29151048D01*
X-7434437Y-29061739D01*
X-7439655Y-28954690D01*
X-7445585Y-28831812D01*
X-7452140Y-28695011D01*
X-7459228Y-28546197D01*
X-7466760Y-28387279D01*
X-7474648Y-28220164D01*
X-7482802Y-28046763D01*
X-7491131Y-27868983D01*
X-7499548Y-27688733D01*
X-7507962Y-27507921D01*
X-7516284Y-27328457D01*
X-7524425Y-27152249D01*
X-7532295Y-26981205D01*
X-7539805Y-26817234D01*
X-7546865Y-26662245D01*
X-7553387Y-26518146D01*
X-7559279Y-26386846D01*
X-7564454Y-26270254D01*
X-7568822Y-26170278D01*
X-7569180Y-26162000D01*
X-7581371Y-25852054D01*
X-7592177Y-25520853D01*
X-7601487Y-25172509D01*
X-7609188Y-24811134D01*
X-7614637Y-24479250D01*
X-7617252Y-24235880D01*
X-7617699Y-24016555D01*
X-7615732Y-23819992D01*
X-7611106Y-23644910D01*
X-7603578Y-23490025D01*
X-7592902Y-23354056D01*
X-7578833Y-23235719D01*
X-7561127Y-23133734D01*
X-7539539Y-23046817D01*
X-7513825Y-22973686D01*
X-7483739Y-22913059D01*
X-7449037Y-22863653D01*
X-7409475Y-22824187D01*
X-7364806Y-22793377D01*
X-7314788Y-22769942D01*
X-7286573Y-22760241D01*
X-7210609Y-22740967D01*
X-7121761Y-22726413D01*
X-7017514Y-22716394D01*
X-6895350Y-22710728D01*
X-6752751Y-22709232D01*
X-6612352Y-22711129D01*
X-6612352Y-22711129D01*
G37*
X-6612352Y-22711129D02*
X-6401791Y-22720076D01*
X-6213757Y-22737215D01*
X-6046636Y-22762832D01*
X-5898816Y-22797210D01*
X-5768684Y-22840638D01*
X-5692550Y-22873984D01*
X-5671832Y-22884576D01*
X-5652064Y-22896430D01*
X-5631780Y-22911230D01*
X-5609515Y-22930656D01*
X-5583803Y-22956393D01*
X-5553178Y-22990123D01*
X-5516176Y-23033527D01*
X-5471330Y-23088289D01*
X-5417175Y-23156091D01*
X-5352245Y-23238615D01*
X-5275076Y-23337545D01*
X-5184201Y-23454562D01*
X-5162690Y-23482300D01*
X-5077289Y-23591055D01*
X-5004051Y-23681019D01*
X-4940856Y-23754402D01*
X-4885584Y-23813416D01*
X-4836112Y-23860273D01*
X-4790322Y-23897182D01*
X-4746093Y-23926357D01*
X-4726145Y-23937545D01*
X-4638023Y-23974890D01*
X-4556079Y-23988663D01*
X-4478114Y-23978483D01*
X-4401934Y-23943969D01*
X-4325341Y-23884741D01*
X-4304318Y-23864476D01*
X-4250437Y-23805441D01*
X-4201571Y-23740205D01*
X-4154985Y-23664266D01*
X-4107942Y-23573123D01*
X-4057706Y-23462275D01*
X-4052665Y-23450550D01*
X-3992021Y-23324368D01*
X-3925837Y-23218361D01*
X-3850475Y-23127371D01*
X-3774306Y-23056158D01*
X-3646355Y-22961701D01*
X-3509696Y-22886480D01*
X-3360497Y-22828814D01*
X-3194928Y-22787019D01*
X-3138299Y-22776794D01*
X-3010123Y-22762241D01*
X-2896845Y-22764146D01*
X-2797371Y-22783476D01*
X-2710607Y-22821198D01*
X-2635461Y-22878279D01*
X-2570836Y-22955687D01*
X-2515641Y-23054388D01*
X-2468781Y-23175351D01*
X-2429162Y-23319542D01*
X-2407354Y-23423129D01*
X-2392257Y-23513927D01*
X-2377232Y-23626420D01*
X-2362682Y-23756901D01*
X-2349015Y-23901666D01*
X-2336635Y-24057010D01*
X-2334148Y-24091900D01*
X-2330063Y-24167257D01*
X-2326589Y-24266126D01*
X-2323714Y-24386628D01*
X-2321424Y-24526880D01*
X-2319706Y-24685004D01*
X-2318548Y-24859119D01*
X-2317936Y-25047344D01*
X-2317857Y-25247800D01*
X-2318299Y-25458606D01*
X-2319247Y-25677881D01*
X-2320690Y-25903746D01*
X-2322615Y-26134320D01*
X-2325007Y-26367723D01*
X-2327854Y-26602075D01*
X-2331144Y-26835495D01*
X-2334863Y-27066103D01*
X-2338998Y-27292019D01*
X-2343536Y-27511362D01*
X-2348464Y-27722253D01*
X-2353769Y-27922810D01*
X-2359439Y-28111154D01*
X-2362632Y-28206700D01*
X-2370939Y-28424218D01*
X-2380043Y-28617803D01*
X-2390175Y-28788917D01*
X-2401565Y-28939021D01*
X-2414445Y-29069575D01*
X-2429046Y-29182041D01*
X-2445598Y-29277880D01*
X-2464332Y-29358553D01*
X-2485480Y-29425520D01*
X-2509271Y-29480244D01*
X-2535938Y-29524186D01*
X-2565710Y-29558805D01*
X-2578078Y-29569982D01*
X-2625450Y-29599730D01*
X-2691289Y-29623938D01*
X-2777948Y-29643306D01*
X-2868797Y-29656374D01*
X-2963243Y-29663485D01*
X-3038013Y-29659467D01*
X-3096598Y-29643602D01*
X-3142488Y-29615171D01*
X-3161658Y-29596140D01*
X-3184659Y-29568905D01*
X-3198542Y-29550459D01*
X-3200400Y-29546727D01*
X-3203412Y-29532604D01*
X-3211231Y-29501316D01*
X-3220004Y-29467794D01*
X-3227423Y-29429337D01*
X-3234008Y-29372083D01*
X-3239872Y-29294458D01*
X-3245131Y-29194891D01*
X-3249898Y-29071806D01*
X-3250781Y-29044900D01*
X-3256722Y-28895126D01*
X-3264448Y-28768733D01*
X-3274380Y-28663740D01*
X-3286936Y-28578163D01*
X-3302537Y-28510021D01*
X-3321600Y-28457331D01*
X-3344546Y-28418111D01*
X-3371795Y-28390379D01*
X-3391952Y-28377606D01*
X-3435153Y-28365295D01*
X-3483089Y-28371266D01*
X-3536444Y-28396172D01*
X-3595909Y-28440666D01*
X-3662168Y-28505399D01*
X-3735911Y-28591024D01*
X-3817823Y-28698193D01*
X-3908592Y-28827559D01*
X-3981208Y-28936950D01*
X-4059531Y-29054797D01*
X-4129530Y-29154340D01*
X-4194556Y-29239832D01*
X-4257962Y-29315526D01*
X-4323100Y-29385675D01*
X-4376699Y-29438734D01*
X-4477163Y-29529231D01*
X-4567711Y-29597901D01*
X-4650170Y-29645440D01*
X-4726369Y-29672544D01*
X-4798135Y-29679908D01*
X-4867296Y-29668228D01*
X-4921250Y-29646013D01*
X-5006914Y-29594879D01*
X-5090630Y-29530077D01*
X-5173805Y-29449931D01*
X-5257845Y-29352760D01*
X-5344157Y-29236885D01*
X-5434147Y-29100627D01*
X-5529222Y-28942308D01*
X-5568417Y-28873450D01*
X-5647974Y-28735970D01*
X-5719472Y-28621608D01*
X-5783659Y-28529659D01*
X-5841283Y-28459415D01*
X-5893090Y-28410172D01*
X-5939829Y-28381221D01*
X-5982248Y-28371859D01*
X-6021093Y-28381377D01*
X-6057112Y-28409070D01*
X-6058471Y-28410510D01*
X-6076550Y-28432403D01*
X-6093496Y-28459221D01*
X-6110067Y-28493363D01*
X-6127019Y-28537226D01*
X-6145108Y-28593206D01*
X-6165091Y-28663703D01*
X-6187723Y-28751112D01*
X-6213762Y-28857832D01*
X-6243963Y-28986260D01*
X-6254599Y-29032200D01*
X-6287541Y-29155458D01*
X-6324508Y-29255250D01*
X-6366609Y-29333344D01*
X-6414953Y-29391506D01*
X-6470649Y-29431502D01*
X-6517193Y-29450426D01*
X-6562815Y-29459684D01*
X-6623926Y-29464368D01*
X-6702302Y-29464418D01*
X-6799720Y-29459775D01*
X-6917954Y-29450380D01*
X-7058780Y-29436174D01*
X-7107874Y-29430719D01*
X-7414898Y-29395964D01*
X-7422481Y-29293457D01*
X-7423953Y-29268816D01*
X-7426497Y-29220710D01*
X-7430021Y-29151048D01*
X-7434437Y-29061739D01*
X-7439655Y-28954690D01*
X-7445585Y-28831812D01*
X-7452140Y-28695011D01*
X-7459228Y-28546197D01*
X-7466760Y-28387279D01*
X-7474648Y-28220164D01*
X-7482802Y-28046763D01*
X-7491131Y-27868983D01*
X-7499548Y-27688733D01*
X-7507962Y-27507921D01*
X-7516284Y-27328457D01*
X-7524425Y-27152249D01*
X-7532295Y-26981205D01*
X-7539805Y-26817234D01*
X-7546865Y-26662245D01*
X-7553387Y-26518146D01*
X-7559279Y-26386846D01*
X-7564454Y-26270254D01*
X-7568822Y-26170278D01*
X-7569180Y-26162000D01*
X-7581371Y-25852054D01*
X-7592177Y-25520853D01*
X-7601487Y-25172509D01*
X-7609188Y-24811134D01*
X-7614637Y-24479250D01*
X-7617252Y-24235880D01*
X-7617699Y-24016555D01*
X-7615732Y-23819992D01*
X-7611106Y-23644910D01*
X-7603578Y-23490025D01*
X-7592902Y-23354056D01*
X-7578833Y-23235719D01*
X-7561127Y-23133734D01*
X-7539539Y-23046817D01*
X-7513825Y-22973686D01*
X-7483739Y-22913059D01*
X-7449037Y-22863653D01*
X-7409475Y-22824187D01*
X-7364806Y-22793377D01*
X-7314788Y-22769942D01*
X-7286573Y-22760241D01*
X-7210609Y-22740967D01*
X-7121761Y-22726413D01*
X-7017514Y-22716394D01*
X-6895350Y-22710728D01*
X-6752751Y-22709232D01*
X-6612352Y-22711129D01*
G36*
X4869778Y-22516069D02*
G01*
X4996487Y-22516788D01*
X5113585Y-22517968D01*
X5218231Y-22519609D01*
X5307587Y-22521714D01*
X5378811Y-22524283D01*
X5429063Y-22527318D01*
X5446925Y-22529214D01*
X5567421Y-22553524D01*
X5667451Y-22590284D01*
X5749338Y-22640727D01*
X5815405Y-22706086D01*
X5837971Y-22736754D01*
X5860949Y-22774061D01*
X5882695Y-22816711D01*
X5903836Y-22866905D01*
X5925003Y-22926845D01*
X5946823Y-22998735D01*
X5969926Y-23084776D01*
X5994940Y-23187171D01*
X6022496Y-23308122D01*
X6053221Y-23449832D01*
X6085351Y-23602950D01*
X6107674Y-23710930D01*
X6125340Y-23798076D01*
X6138892Y-23868414D01*
X6148876Y-23925971D01*
X6155835Y-23974772D01*
X6160313Y-24018846D01*
X6162855Y-24062219D01*
X6164006Y-24108917D01*
X6164308Y-24162967D01*
X6164314Y-24187150D01*
X6159765Y-24340474D01*
X6145770Y-24496703D01*
X6121683Y-24659183D01*
X6086856Y-24831261D01*
X6040646Y-25016286D01*
X5982404Y-25217604D01*
X5938841Y-25355550D01*
X5901313Y-25471765D01*
X5871115Y-25567454D01*
X5847458Y-25646156D01*
X5829551Y-25711411D01*
X5816604Y-25766760D01*
X5807827Y-25815742D01*
X5802431Y-25861897D01*
X5799625Y-25908767D01*
X5798618Y-25959890D01*
X5798542Y-25984200D01*
X5800088Y-26065485D01*
X5806149Y-26131858D01*
X5818828Y-26190097D01*
X5840228Y-26246982D01*
X5872453Y-26309290D01*
X5917605Y-26383803D01*
X5927198Y-26398925D01*
X5998746Y-26516507D01*
X6055761Y-26623742D01*
X6101299Y-26728247D01*
X6138414Y-26837637D01*
X6170165Y-26959528D01*
X6190650Y-27055447D01*
X6211342Y-27165409D01*
X6227168Y-27265833D01*
X6238698Y-27363132D01*
X6246503Y-27463726D01*
X6251151Y-27574030D01*
X6253214Y-27700460D01*
X6253449Y-27762200D01*
X6252303Y-27911458D01*
X6248173Y-28042038D01*
X6240472Y-28160548D01*
X6228614Y-28273597D01*
X6212012Y-28387793D01*
X6190078Y-28509744D01*
X6184540Y-28537961D01*
X6140922Y-28727760D01*
X6089541Y-28894768D01*
X6029307Y-29040703D01*
X5959132Y-29167280D01*
X5877928Y-29276217D01*
X5784605Y-29369231D01*
X5678076Y-29448037D01*
X5568950Y-29508750D01*
X5476608Y-29548865D01*
X5377110Y-29582353D01*
X5266961Y-29609938D01*
X5142666Y-29632343D01*
X5000731Y-29650293D01*
X4837662Y-29664513D01*
X4806950Y-29666655D01*
X4748750Y-29669543D01*
X4668730Y-29671986D01*
X4570372Y-29673986D01*
X4457157Y-29675544D01*
X4332570Y-29676664D01*
X4200091Y-29677347D01*
X4063204Y-29677596D01*
X3925392Y-29677412D01*
X3790135Y-29676799D01*
X3660919Y-29675758D01*
X3541223Y-29674291D01*
X3434532Y-29672402D01*
X3344328Y-29670091D01*
X3274092Y-29667361D01*
X3244850Y-29665655D01*
X3074761Y-29650761D01*
X2929383Y-29631539D01*
X2808785Y-29608005D01*
X2713038Y-29580176D01*
X2642212Y-29548067D01*
X2607210Y-29522787D01*
X2562364Y-29481689D01*
X2544781Y-28980719D01*
X2541322Y-28882444D01*
X2537059Y-28761844D01*
X2532076Y-28621228D01*
X2526455Y-28462905D01*
X2520278Y-28289182D01*
X2513628Y-28102368D01*
X2507326Y-27925472D01*
X3927806Y-27925472D01*
X3928849Y-28028922D01*
X3939577Y-28112669D01*
X3960320Y-28178732D01*
X3991406Y-28229130D01*
X4008934Y-28247306D01*
X4062052Y-28279896D01*
X4120134Y-28288698D01*
X4178548Y-28273443D01*
X4203700Y-28258663D01*
X4246899Y-28215913D01*
X4287776Y-28151840D01*
X4325898Y-28069609D01*
X4360836Y-27972382D01*
X4392160Y-27863324D01*
X4419437Y-27745597D01*
X4442239Y-27622366D01*
X4460134Y-27496794D01*
X4472691Y-27372044D01*
X4479481Y-27251281D01*
X4480073Y-27137667D01*
X4474036Y-27034366D01*
X4460939Y-26944542D01*
X4440352Y-26871358D01*
X4411844Y-26817978D01*
X4401407Y-26806021D01*
X4373570Y-26790728D01*
X4336669Y-26784301D01*
X4336142Y-26784300D01*
X4290739Y-26796619D01*
X4244558Y-26832159D01*
X4198436Y-26888790D01*
X4153213Y-26964384D01*
X4109726Y-27056812D01*
X4068813Y-27163947D01*
X4031313Y-27283659D01*
X3998062Y-27413821D01*
X3969900Y-27552303D01*
X3947664Y-27696976D01*
X3936121Y-27800300D01*
X3927806Y-27925472D01*
X2507326Y-27925472D01*
X2506588Y-27904772D01*
X2499239Y-27698702D01*
X2491665Y-27486466D01*
X2483948Y-27270372D01*
X2476170Y-27052730D01*
X2468415Y-26835848D01*
X2460764Y-26622033D01*
X2453299Y-26413595D01*
X2446105Y-26212841D01*
X2439262Y-26022081D01*
X2432854Y-25843622D01*
X2426963Y-25679774D01*
X2421672Y-25532844D01*
X2417063Y-25405140D01*
X2413218Y-25298972D01*
X2411119Y-25241250D01*
X2407210Y-25119353D01*
X2403834Y-24984414D01*
X2400991Y-24839087D01*
X2398681Y-24686023D01*
X2396906Y-24527877D01*
X2396334Y-24453850D01*
X3931472Y-24453850D01*
X3932738Y-24593722D01*
X3936949Y-24711632D01*
X3944517Y-24810888D01*
X3955855Y-24894800D01*
X3971373Y-24966679D01*
X3991483Y-25029834D01*
X4008119Y-25069762D01*
X4046803Y-25141428D01*
X4086976Y-25188490D01*
X4130464Y-25211739D01*
X4179092Y-25211971D01*
X4234686Y-25189977D01*
X4255802Y-25177383D01*
X4303649Y-25136982D01*
X4354306Y-25077536D01*
X4404495Y-25004661D01*
X4450939Y-24923972D01*
X4490360Y-24841084D01*
X4519480Y-24761612D01*
X4533598Y-24701500D01*
X4545205Y-24579071D01*
X4543732Y-24452565D01*
X4530265Y-24325333D01*
X4505891Y-24200727D01*
X4471693Y-24082098D01*
X4428758Y-23972799D01*
X4378172Y-23876181D01*
X4321018Y-23795596D01*
X4258383Y-23734395D01*
X4210669Y-23704296D01*
X4154539Y-23681732D01*
X4114763Y-23676764D01*
X4109652Y-23677713D01*
X4076731Y-23698393D01*
X4044535Y-23742638D01*
X4013870Y-23808613D01*
X3985541Y-23894483D01*
X3960355Y-23998414D01*
X3953447Y-24033295D01*
X3945650Y-24081626D01*
X3939800Y-24135650D01*
X3935679Y-24199560D01*
X3933067Y-24277547D01*
X3931746Y-24373805D01*
X3931472Y-24453850D01*
X2396334Y-24453850D01*
X2395665Y-24367300D01*
X2394959Y-24206947D01*
X2394790Y-24049469D01*
X2395158Y-23897520D01*
X2396063Y-23753752D01*
X2397505Y-23620820D01*
X2399487Y-23501374D01*
X2402008Y-23398070D01*
X2405069Y-23313559D01*
X2408671Y-23250494D01*
X2410625Y-23228300D01*
X2424473Y-23110403D01*
X2439336Y-23013746D01*
X2456128Y-22934167D01*
X2475761Y-22867504D01*
X2499151Y-22809597D01*
X2505445Y-22796500D01*
X2529840Y-22750769D01*
X2552221Y-22720819D01*
X2579966Y-22698829D01*
X2616200Y-22679090D01*
X2673055Y-22657190D01*
X2753539Y-22636012D01*
X2855885Y-22615784D01*
X2978327Y-22596736D01*
X3119098Y-22579096D01*
X3276432Y-22563094D01*
X3448562Y-22548959D01*
X3633722Y-22536920D01*
X3765550Y-22530076D01*
X3850946Y-22526717D01*
X3952293Y-22523805D01*
X4066752Y-22521342D01*
X4191481Y-22519329D01*
X4323640Y-22517768D01*
X4460390Y-22516660D01*
X4598890Y-22516007D01*
X4736299Y-22515809D01*
X4869778Y-22516069D01*
X4869778Y-22516069D01*
G37*
X4869778Y-22516069D02*
X4996487Y-22516788D01*
X5113585Y-22517968D01*
X5218231Y-22519609D01*
X5307587Y-22521714D01*
X5378811Y-22524283D01*
X5429063Y-22527318D01*
X5446925Y-22529214D01*
X5567421Y-22553524D01*
X5667451Y-22590284D01*
X5749338Y-22640727D01*
X5815405Y-22706086D01*
X5837971Y-22736754D01*
X5860949Y-22774061D01*
X5882695Y-22816711D01*
X5903836Y-22866905D01*
X5925003Y-22926845D01*
X5946823Y-22998735D01*
X5969926Y-23084776D01*
X5994940Y-23187171D01*
X6022496Y-23308122D01*
X6053221Y-23449832D01*
X6085351Y-23602950D01*
X6107674Y-23710930D01*
X6125340Y-23798076D01*
X6138892Y-23868414D01*
X6148876Y-23925971D01*
X6155835Y-23974772D01*
X6160313Y-24018846D01*
X6162855Y-24062219D01*
X6164006Y-24108917D01*
X6164308Y-24162967D01*
X6164314Y-24187150D01*
X6159765Y-24340474D01*
X6145770Y-24496703D01*
X6121683Y-24659183D01*
X6086856Y-24831261D01*
X6040646Y-25016286D01*
X5982404Y-25217604D01*
X5938841Y-25355550D01*
X5901313Y-25471765D01*
X5871115Y-25567454D01*
X5847458Y-25646156D01*
X5829551Y-25711411D01*
X5816604Y-25766760D01*
X5807827Y-25815742D01*
X5802431Y-25861897D01*
X5799625Y-25908767D01*
X5798618Y-25959890D01*
X5798542Y-25984200D01*
X5800088Y-26065485D01*
X5806149Y-26131858D01*
X5818828Y-26190097D01*
X5840228Y-26246982D01*
X5872453Y-26309290D01*
X5917605Y-26383803D01*
X5927198Y-26398925D01*
X5998746Y-26516507D01*
X6055761Y-26623742D01*
X6101299Y-26728247D01*
X6138414Y-26837637D01*
X6170165Y-26959528D01*
X6190650Y-27055447D01*
X6211342Y-27165409D01*
X6227168Y-27265833D01*
X6238698Y-27363132D01*
X6246503Y-27463726D01*
X6251151Y-27574030D01*
X6253214Y-27700460D01*
X6253449Y-27762200D01*
X6252303Y-27911458D01*
X6248173Y-28042038D01*
X6240472Y-28160548D01*
X6228614Y-28273597D01*
X6212012Y-28387793D01*
X6190078Y-28509744D01*
X6184540Y-28537961D01*
X6140922Y-28727760D01*
X6089541Y-28894768D01*
X6029307Y-29040703D01*
X5959132Y-29167280D01*
X5877928Y-29276217D01*
X5784605Y-29369231D01*
X5678076Y-29448037D01*
X5568950Y-29508750D01*
X5476608Y-29548865D01*
X5377110Y-29582353D01*
X5266961Y-29609938D01*
X5142666Y-29632343D01*
X5000731Y-29650293D01*
X4837662Y-29664513D01*
X4806950Y-29666655D01*
X4748750Y-29669543D01*
X4668730Y-29671986D01*
X4570372Y-29673986D01*
X4457157Y-29675544D01*
X4332570Y-29676664D01*
X4200091Y-29677347D01*
X4063204Y-29677596D01*
X3925392Y-29677412D01*
X3790135Y-29676799D01*
X3660919Y-29675758D01*
X3541223Y-29674291D01*
X3434532Y-29672402D01*
X3344328Y-29670091D01*
X3274092Y-29667361D01*
X3244850Y-29665655D01*
X3074761Y-29650761D01*
X2929383Y-29631539D01*
X2808785Y-29608005D01*
X2713038Y-29580176D01*
X2642212Y-29548067D01*
X2607210Y-29522787D01*
X2562364Y-29481689D01*
X2544781Y-28980719D01*
X2541322Y-28882444D01*
X2537059Y-28761844D01*
X2532076Y-28621228D01*
X2526455Y-28462905D01*
X2520278Y-28289182D01*
X2513628Y-28102368D01*
X2507326Y-27925472D01*
X3927806Y-27925472D01*
X3928849Y-28028922D01*
X3939577Y-28112669D01*
X3960320Y-28178732D01*
X3991406Y-28229130D01*
X4008934Y-28247306D01*
X4062052Y-28279896D01*
X4120134Y-28288698D01*
X4178548Y-28273443D01*
X4203700Y-28258663D01*
X4246899Y-28215913D01*
X4287776Y-28151840D01*
X4325898Y-28069609D01*
X4360836Y-27972382D01*
X4392160Y-27863324D01*
X4419437Y-27745597D01*
X4442239Y-27622366D01*
X4460134Y-27496794D01*
X4472691Y-27372044D01*
X4479481Y-27251281D01*
X4480073Y-27137667D01*
X4474036Y-27034366D01*
X4460939Y-26944542D01*
X4440352Y-26871358D01*
X4411844Y-26817978D01*
X4401407Y-26806021D01*
X4373570Y-26790728D01*
X4336669Y-26784301D01*
X4336142Y-26784300D01*
X4290739Y-26796619D01*
X4244558Y-26832159D01*
X4198436Y-26888790D01*
X4153213Y-26964384D01*
X4109726Y-27056812D01*
X4068813Y-27163947D01*
X4031313Y-27283659D01*
X3998062Y-27413821D01*
X3969900Y-27552303D01*
X3947664Y-27696976D01*
X3936121Y-27800300D01*
X3927806Y-27925472D01*
X2507326Y-27925472D01*
X2506588Y-27904772D01*
X2499239Y-27698702D01*
X2491665Y-27486466D01*
X2483948Y-27270372D01*
X2476170Y-27052730D01*
X2468415Y-26835848D01*
X2460764Y-26622033D01*
X2453299Y-26413595D01*
X2446105Y-26212841D01*
X2439262Y-26022081D01*
X2432854Y-25843622D01*
X2426963Y-25679774D01*
X2421672Y-25532844D01*
X2417063Y-25405140D01*
X2413218Y-25298972D01*
X2411119Y-25241250D01*
X2407210Y-25119353D01*
X2403834Y-24984414D01*
X2400991Y-24839087D01*
X2398681Y-24686023D01*
X2396906Y-24527877D01*
X2396334Y-24453850D01*
X3931472Y-24453850D01*
X3932738Y-24593722D01*
X3936949Y-24711632D01*
X3944517Y-24810888D01*
X3955855Y-24894800D01*
X3971373Y-24966679D01*
X3991483Y-25029834D01*
X4008119Y-25069762D01*
X4046803Y-25141428D01*
X4086976Y-25188490D01*
X4130464Y-25211739D01*
X4179092Y-25211971D01*
X4234686Y-25189977D01*
X4255802Y-25177383D01*
X4303649Y-25136982D01*
X4354306Y-25077536D01*
X4404495Y-25004661D01*
X4450939Y-24923972D01*
X4490360Y-24841084D01*
X4519480Y-24761612D01*
X4533598Y-24701500D01*
X4545205Y-24579071D01*
X4543732Y-24452565D01*
X4530265Y-24325333D01*
X4505891Y-24200727D01*
X4471693Y-24082098D01*
X4428758Y-23972799D01*
X4378172Y-23876181D01*
X4321018Y-23795596D01*
X4258383Y-23734395D01*
X4210669Y-23704296D01*
X4154539Y-23681732D01*
X4114763Y-23676764D01*
X4109652Y-23677713D01*
X4076731Y-23698393D01*
X4044535Y-23742638D01*
X4013870Y-23808613D01*
X3985541Y-23894483D01*
X3960355Y-23998414D01*
X3953447Y-24033295D01*
X3945650Y-24081626D01*
X3939800Y-24135650D01*
X3935679Y-24199560D01*
X3933067Y-24277547D01*
X3931746Y-24373805D01*
X3931472Y-24453850D01*
X2396334Y-24453850D01*
X2395665Y-24367300D01*
X2394959Y-24206947D01*
X2394790Y-24049469D01*
X2395158Y-23897520D01*
X2396063Y-23753752D01*
X2397505Y-23620820D01*
X2399487Y-23501374D01*
X2402008Y-23398070D01*
X2405069Y-23313559D01*
X2408671Y-23250494D01*
X2410625Y-23228300D01*
X2424473Y-23110403D01*
X2439336Y-23013746D01*
X2456128Y-22934167D01*
X2475761Y-22867504D01*
X2499151Y-22809597D01*
X2505445Y-22796500D01*
X2529840Y-22750769D01*
X2552221Y-22720819D01*
X2579966Y-22698829D01*
X2616200Y-22679090D01*
X2673055Y-22657190D01*
X2753539Y-22636012D01*
X2855885Y-22615784D01*
X2978327Y-22596736D01*
X3119098Y-22579096D01*
X3276432Y-22563094D01*
X3448562Y-22548959D01*
X3633722Y-22536920D01*
X3765550Y-22530076D01*
X3850946Y-22526717D01*
X3952293Y-22523805D01*
X4066752Y-22521342D01*
X4191481Y-22519329D01*
X4323640Y-22517768D01*
X4460390Y-22516660D01*
X4598890Y-22516007D01*
X4736299Y-22515809D01*
X4869778Y-22516069D01*
G36*
X9292799Y-22329511D02*
G01*
X9466058Y-22332233D01*
X9626904Y-22337527D01*
X9772257Y-22345463D01*
X9899037Y-22356112D01*
X10004164Y-22369543D01*
X10019103Y-22372012D01*
X10176676Y-22406668D01*
X10314438Y-22453895D01*
X10433698Y-22515085D01*
X10535769Y-22591632D01*
X10621961Y-22684929D01*
X10693585Y-22796369D01*
X10751953Y-22927347D01*
X10798377Y-23079254D01*
X10830965Y-23234650D01*
X10843969Y-23312348D01*
X10854960Y-23385527D01*
X10864100Y-23457180D01*
X10871548Y-23530303D01*
X10877465Y-23607889D01*
X10882011Y-23692932D01*
X10885346Y-23788428D01*
X10887632Y-23897370D01*
X10889027Y-24022752D01*
X10889693Y-24167570D01*
X10889791Y-24333200D01*
X10889523Y-24470645D01*
X10888878Y-24600590D01*
X10887781Y-24725845D01*
X10886158Y-24849224D01*
X10883934Y-24973539D01*
X10881036Y-25101603D01*
X10877389Y-25236229D01*
X10872919Y-25380229D01*
X10867550Y-25536417D01*
X10861210Y-25707604D01*
X10853824Y-25896603D01*
X10845317Y-26106227D01*
X10838786Y-26263600D01*
X10823394Y-26606106D01*
X10806627Y-26930461D01*
X10788544Y-27236053D01*
X10769208Y-27522272D01*
X10748680Y-27788505D01*
X10727021Y-28034144D01*
X10704292Y-28258576D01*
X10680555Y-28461192D01*
X10655870Y-28641379D01*
X10630299Y-28798528D01*
X10603903Y-28932028D01*
X10576744Y-29041267D01*
X10553043Y-29114750D01*
X10521790Y-29177628D01*
X10476734Y-29233450D01*
X10416627Y-29282620D01*
X10340225Y-29325546D01*
X10246281Y-29362632D01*
X10133550Y-29394284D01*
X10000784Y-29420906D01*
X9846739Y-29442906D01*
X9670167Y-29460688D01*
X9469823Y-29474658D01*
X9442450Y-29476189D01*
X9373898Y-29479072D01*
X9284336Y-29481515D01*
X9177158Y-29483522D01*
X9055757Y-29485094D01*
X8923528Y-29486233D01*
X8783864Y-29486940D01*
X8640158Y-29487218D01*
X8495805Y-29487068D01*
X8354197Y-29486493D01*
X8218729Y-29485494D01*
X8092795Y-29484073D01*
X7979787Y-29482232D01*
X7883101Y-29479973D01*
X7806128Y-29477297D01*
X7767059Y-29475259D01*
X7622010Y-29462873D01*
X7499456Y-29445002D01*
X7396873Y-29420547D01*
X7311735Y-29388408D01*
X7241521Y-29347485D01*
X7183704Y-29296678D01*
X7135762Y-29234887D01*
X7108715Y-29188343D01*
X7070968Y-29112354D01*
X7038252Y-29037200D01*
X7009938Y-28959927D01*
X6985396Y-28877582D01*
X6963996Y-28787211D01*
X6945109Y-28685860D01*
X6928105Y-28570577D01*
X6912355Y-28438407D01*
X6897229Y-28286397D01*
X6883929Y-28133814D01*
X6868488Y-27935358D01*
X6854965Y-27734414D01*
X6843284Y-27528516D01*
X6833369Y-27315200D01*
X6825142Y-27092002D01*
X6818527Y-26856458D01*
X6813447Y-26606102D01*
X6809826Y-26338472D01*
X6807587Y-26051102D01*
X6806908Y-25825487D01*
X8575915Y-25825487D01*
X8576188Y-26041835D01*
X8578239Y-26257215D01*
X8582053Y-26469417D01*
X8587619Y-26676235D01*
X8594925Y-26875461D01*
X8603958Y-27064887D01*
X8614707Y-27242306D01*
X8627158Y-27405509D01*
X8641300Y-27552289D01*
X8657121Y-27680438D01*
X8674607Y-27787748D01*
X8693747Y-27872012D01*
X8694587Y-27875014D01*
X8713891Y-27943378D01*
X8781942Y-27936355D01*
X8834721Y-27926957D01*
X8888300Y-27911465D01*
X8906907Y-27904156D01*
X8975863Y-27863045D01*
X9036033Y-27803970D01*
X9087999Y-27725717D01*
X9132348Y-27627073D01*
X9169663Y-27506826D01*
X9200528Y-27363762D01*
X9217029Y-27260641D01*
X9226588Y-27171817D01*
X9233543Y-27060357D01*
X9238014Y-26928879D01*
X9240123Y-26780000D01*
X9239989Y-26616337D01*
X9237733Y-26440508D01*
X9233477Y-26255130D01*
X9227339Y-26062821D01*
X9219442Y-25866199D01*
X9209905Y-25667880D01*
X9198849Y-25470482D01*
X9186394Y-25276623D01*
X9172662Y-25088920D01*
X9157772Y-24909991D01*
X9141846Y-24742452D01*
X9125003Y-24588922D01*
X9107365Y-24452018D01*
X9089052Y-24334358D01*
X9079978Y-24285081D01*
X9050556Y-24159017D01*
X9016213Y-24057232D01*
X8976446Y-23978993D01*
X8930753Y-23923566D01*
X8878632Y-23890217D01*
X8819579Y-23878213D01*
X8801530Y-23878591D01*
X8764413Y-23883125D01*
X8742535Y-23894737D01*
X8725743Y-23919860D01*
X8720774Y-23929774D01*
X8707718Y-23963863D01*
X8692773Y-24014118D01*
X8678477Y-24071690D01*
X8673582Y-24094424D01*
X8655417Y-24199035D01*
X8639150Y-24324754D01*
X8624770Y-24469374D01*
X8612265Y-24630687D01*
X8601623Y-24806485D01*
X8592830Y-24994561D01*
X8585875Y-25192707D01*
X8580746Y-25398716D01*
X8577430Y-25610378D01*
X8575915Y-25825487D01*
X6806908Y-25825487D01*
X6806654Y-25741528D01*
X6806616Y-25648780D01*
X6807640Y-25304205D01*
X6810600Y-24977867D01*
X6815462Y-24670288D01*
X6822193Y-24381987D01*
X6830760Y-24113485D01*
X6841127Y-23865302D01*
X6853262Y-23637960D01*
X6867131Y-23431977D01*
X6882700Y-23247875D01*
X6899935Y-23086174D01*
X6918802Y-22947394D01*
X6939268Y-22832055D01*
X6961299Y-22740679D01*
X6984860Y-22673785D01*
X7001766Y-22642507D01*
X7043554Y-22599786D01*
X7108886Y-22558769D01*
X7195927Y-22520167D01*
X7302841Y-22484691D01*
X7427792Y-22453052D01*
X7555173Y-22428270D01*
X7683145Y-22409142D01*
X7829506Y-22391882D01*
X7991176Y-22376561D01*
X8165077Y-22363249D01*
X8348126Y-22352017D01*
X8537244Y-22342935D01*
X8729350Y-22336073D01*
X8921365Y-22331501D01*
X9110208Y-22329291D01*
X9292799Y-22329511D01*
X9292799Y-22329511D01*
G37*
X9292799Y-22329511D02*
X9466058Y-22332233D01*
X9626904Y-22337527D01*
X9772257Y-22345463D01*
X9899037Y-22356112D01*
X10004164Y-22369543D01*
X10019103Y-22372012D01*
X10176676Y-22406668D01*
X10314438Y-22453895D01*
X10433698Y-22515085D01*
X10535769Y-22591632D01*
X10621961Y-22684929D01*
X10693585Y-22796369D01*
X10751953Y-22927347D01*
X10798377Y-23079254D01*
X10830965Y-23234650D01*
X10843969Y-23312348D01*
X10854960Y-23385527D01*
X10864100Y-23457180D01*
X10871548Y-23530303D01*
X10877465Y-23607889D01*
X10882011Y-23692932D01*
X10885346Y-23788428D01*
X10887632Y-23897370D01*
X10889027Y-24022752D01*
X10889693Y-24167570D01*
X10889791Y-24333200D01*
X10889523Y-24470645D01*
X10888878Y-24600590D01*
X10887781Y-24725845D01*
X10886158Y-24849224D01*
X10883934Y-24973539D01*
X10881036Y-25101603D01*
X10877389Y-25236229D01*
X10872919Y-25380229D01*
X10867550Y-25536417D01*
X10861210Y-25707604D01*
X10853824Y-25896603D01*
X10845317Y-26106227D01*
X10838786Y-26263600D01*
X10823394Y-26606106D01*
X10806627Y-26930461D01*
X10788544Y-27236053D01*
X10769208Y-27522272D01*
X10748680Y-27788505D01*
X10727021Y-28034144D01*
X10704292Y-28258576D01*
X10680555Y-28461192D01*
X10655870Y-28641379D01*
X10630299Y-28798528D01*
X10603903Y-28932028D01*
X10576744Y-29041267D01*
X10553043Y-29114750D01*
X10521790Y-29177628D01*
X10476734Y-29233450D01*
X10416627Y-29282620D01*
X10340225Y-29325546D01*
X10246281Y-29362632D01*
X10133550Y-29394284D01*
X10000784Y-29420906D01*
X9846739Y-29442906D01*
X9670167Y-29460688D01*
X9469823Y-29474658D01*
X9442450Y-29476189D01*
X9373898Y-29479072D01*
X9284336Y-29481515D01*
X9177158Y-29483522D01*
X9055757Y-29485094D01*
X8923528Y-29486233D01*
X8783864Y-29486940D01*
X8640158Y-29487218D01*
X8495805Y-29487068D01*
X8354197Y-29486493D01*
X8218729Y-29485494D01*
X8092795Y-29484073D01*
X7979787Y-29482232D01*
X7883101Y-29479973D01*
X7806128Y-29477297D01*
X7767059Y-29475259D01*
X7622010Y-29462873D01*
X7499456Y-29445002D01*
X7396873Y-29420547D01*
X7311735Y-29388408D01*
X7241521Y-29347485D01*
X7183704Y-29296678D01*
X7135762Y-29234887D01*
X7108715Y-29188343D01*
X7070968Y-29112354D01*
X7038252Y-29037200D01*
X7009938Y-28959927D01*
X6985396Y-28877582D01*
X6963996Y-28787211D01*
X6945109Y-28685860D01*
X6928105Y-28570577D01*
X6912355Y-28438407D01*
X6897229Y-28286397D01*
X6883929Y-28133814D01*
X6868488Y-27935358D01*
X6854965Y-27734414D01*
X6843284Y-27528516D01*
X6833369Y-27315200D01*
X6825142Y-27092002D01*
X6818527Y-26856458D01*
X6813447Y-26606102D01*
X6809826Y-26338472D01*
X6807587Y-26051102D01*
X6806908Y-25825487D01*
X8575915Y-25825487D01*
X8576188Y-26041835D01*
X8578239Y-26257215D01*
X8582053Y-26469417D01*
X8587619Y-26676235D01*
X8594925Y-26875461D01*
X8603958Y-27064887D01*
X8614707Y-27242306D01*
X8627158Y-27405509D01*
X8641300Y-27552289D01*
X8657121Y-27680438D01*
X8674607Y-27787748D01*
X8693747Y-27872012D01*
X8694587Y-27875014D01*
X8713891Y-27943378D01*
X8781942Y-27936355D01*
X8834721Y-27926957D01*
X8888300Y-27911465D01*
X8906907Y-27904156D01*
X8975863Y-27863045D01*
X9036033Y-27803970D01*
X9087999Y-27725717D01*
X9132348Y-27627073D01*
X9169663Y-27506826D01*
X9200528Y-27363762D01*
X9217029Y-27260641D01*
X9226588Y-27171817D01*
X9233543Y-27060357D01*
X9238014Y-26928879D01*
X9240123Y-26780000D01*
X9239989Y-26616337D01*
X9237733Y-26440508D01*
X9233477Y-26255130D01*
X9227339Y-26062821D01*
X9219442Y-25866199D01*
X9209905Y-25667880D01*
X9198849Y-25470482D01*
X9186394Y-25276623D01*
X9172662Y-25088920D01*
X9157772Y-24909991D01*
X9141846Y-24742452D01*
X9125003Y-24588922D01*
X9107365Y-24452018D01*
X9089052Y-24334358D01*
X9079978Y-24285081D01*
X9050556Y-24159017D01*
X9016213Y-24057232D01*
X8976446Y-23978993D01*
X8930753Y-23923566D01*
X8878632Y-23890217D01*
X8819579Y-23878213D01*
X8801530Y-23878591D01*
X8764413Y-23883125D01*
X8742535Y-23894737D01*
X8725743Y-23919860D01*
X8720774Y-23929774D01*
X8707718Y-23963863D01*
X8692773Y-24014118D01*
X8678477Y-24071690D01*
X8673582Y-24094424D01*
X8655417Y-24199035D01*
X8639150Y-24324754D01*
X8624770Y-24469374D01*
X8612265Y-24630687D01*
X8601623Y-24806485D01*
X8592830Y-24994561D01*
X8585875Y-25192707D01*
X8580746Y-25398716D01*
X8577430Y-25610378D01*
X8575915Y-25825487D01*
X6806908Y-25825487D01*
X6806654Y-25741528D01*
X6806616Y-25648780D01*
X6807640Y-25304205D01*
X6810600Y-24977867D01*
X6815462Y-24670288D01*
X6822193Y-24381987D01*
X6830760Y-24113485D01*
X6841127Y-23865302D01*
X6853262Y-23637960D01*
X6867131Y-23431977D01*
X6882700Y-23247875D01*
X6899935Y-23086174D01*
X6918802Y-22947394D01*
X6939268Y-22832055D01*
X6961299Y-22740679D01*
X6984860Y-22673785D01*
X7001766Y-22642507D01*
X7043554Y-22599786D01*
X7108886Y-22558769D01*
X7195927Y-22520167D01*
X7302841Y-22484691D01*
X7427792Y-22453052D01*
X7555173Y-22428270D01*
X7683145Y-22409142D01*
X7829506Y-22391882D01*
X7991176Y-22376561D01*
X8165077Y-22363249D01*
X8348126Y-22352017D01*
X8537244Y-22342935D01*
X8729350Y-22336073D01*
X8921365Y-22331501D01*
X9110208Y-22329291D01*
X9292799Y-22329511D01*
G36*
X16652159Y-21985974D02*
G01*
X16740713Y-22002266D01*
X16812753Y-22026976D01*
X16869540Y-22060167D01*
X16888873Y-22076395D01*
X16930390Y-22129221D01*
X16954929Y-22195067D01*
X16962451Y-22275019D01*
X16952921Y-22370164D01*
X16926301Y-22481589D01*
X16882553Y-22610379D01*
X16869459Y-22644100D01*
X16843687Y-22707539D01*
X16816666Y-22770623D01*
X16787306Y-22835422D01*
X16754512Y-22904005D01*
X16717194Y-22978444D01*
X16674257Y-23060808D01*
X16624611Y-23153169D01*
X16567163Y-23257596D01*
X16500820Y-23376161D01*
X16424491Y-23510933D01*
X16337081Y-23663983D01*
X16266420Y-23787100D01*
X16159720Y-23974118D01*
X16065781Y-24142143D01*
X15983597Y-24293529D01*
X15912161Y-24430628D01*
X15850469Y-24555794D01*
X15797514Y-24671378D01*
X15752291Y-24779734D01*
X15713793Y-24883216D01*
X15681015Y-24984175D01*
X15652951Y-25084965D01*
X15628594Y-25187939D01*
X15606940Y-25295450D01*
X15596285Y-25354666D01*
X15586287Y-25413996D01*
X15577015Y-25473265D01*
X15568385Y-25533902D01*
X15560311Y-25597334D01*
X15552706Y-25664989D01*
X15545487Y-25738294D01*
X15538567Y-25818677D01*
X15531861Y-25907565D01*
X15525283Y-26006387D01*
X15518747Y-26116569D01*
X15512169Y-26239540D01*
X15505463Y-26376728D01*
X15498544Y-26529559D01*
X15491325Y-26699461D01*
X15483721Y-26887862D01*
X15475648Y-27096190D01*
X15467018Y-27325873D01*
X15457748Y-27578337D01*
X15449555Y-27804810D01*
X15443339Y-27976444D01*
X15437310Y-28140740D01*
X15431539Y-28295937D01*
X15426093Y-28440276D01*
X15421041Y-28571998D01*
X15416454Y-28689343D01*
X15412398Y-28790553D01*
X15408945Y-28873867D01*
X15406162Y-28937527D01*
X15404119Y-28979772D01*
X15402884Y-28998844D01*
X15402706Y-28999789D01*
X15389755Y-29002814D01*
X15354170Y-29010262D01*
X15298244Y-29021678D01*
X15224272Y-29036611D01*
X15134547Y-29054606D01*
X15031362Y-29075212D01*
X14917012Y-29097976D01*
X14793790Y-29122444D01*
X14663990Y-29148163D01*
X14529906Y-29174682D01*
X14393831Y-29201546D01*
X14258059Y-29228303D01*
X14124884Y-29254500D01*
X13996600Y-29279684D01*
X13875499Y-29303403D01*
X13763877Y-29325202D01*
X13664026Y-29344630D01*
X13578240Y-29361234D01*
X13508814Y-29374560D01*
X13458040Y-29384156D01*
X13431889Y-29388932D01*
X13326992Y-29403617D01*
X13226847Y-29410570D01*
X13137395Y-29409661D01*
X13064576Y-29400761D01*
X13049687Y-29397278D01*
X12994917Y-29371721D01*
X12940529Y-29326956D01*
X12891789Y-29268700D01*
X12853962Y-29202673D01*
X12841761Y-29171518D01*
X12817784Y-29083478D01*
X12798453Y-28977298D01*
X12783713Y-28851961D01*
X12773509Y-28706453D01*
X12767784Y-28539759D01*
X12766484Y-28350864D01*
X12769552Y-28138754D01*
X12775078Y-27952700D01*
X12778009Y-27874258D01*
X12782017Y-27773339D01*
X12786975Y-27652837D01*
X12792759Y-27515645D01*
X12799242Y-27364657D01*
X12806300Y-27202767D01*
X12813807Y-27032869D01*
X12821636Y-26857858D01*
X12829664Y-26680627D01*
X12837764Y-26504070D01*
X12840041Y-26454853D01*
X12890354Y-25369757D01*
X12485388Y-24581603D01*
X12413758Y-24442091D01*
X12342468Y-24303046D01*
X12272868Y-24167111D01*
X12206307Y-24036931D01*
X12144134Y-23915150D01*
X12087699Y-23804411D01*
X12038352Y-23707358D01*
X11997440Y-23626635D01*
X11966315Y-23564886D01*
X11957658Y-23547597D01*
X11865512Y-23360134D01*
X11786565Y-23192845D01*
X11720466Y-23044426D01*
X11666864Y-22913567D01*
X11625405Y-22798962D01*
X11595739Y-22699304D01*
X11577514Y-22613285D01*
X11570377Y-22539597D01*
X11573978Y-22476935D01*
X11587964Y-22423989D01*
X11611983Y-22379454D01*
X11635735Y-22351418D01*
X11706601Y-22296766D01*
X11797668Y-22254652D01*
X11909616Y-22224857D01*
X12043127Y-22207162D01*
X12096750Y-22203705D01*
X12275605Y-22205802D01*
X12464603Y-22228177D01*
X12660212Y-22269703D01*
X12858899Y-22329252D01*
X13057132Y-22405699D01*
X13251380Y-22497914D01*
X13438111Y-22604773D01*
X13519150Y-22657610D01*
X13661488Y-22764100D01*
X13779401Y-22873904D01*
X13873749Y-22987929D01*
X13945393Y-23107084D01*
X13945674Y-23107650D01*
X13972945Y-23166735D01*
X13989763Y-23216175D01*
X13999435Y-23267670D01*
X14003918Y-23313721D01*
X14014900Y-23395588D01*
X14034152Y-23453920D01*
X14062432Y-23489444D01*
X14100496Y-23502887D01*
X14149099Y-23494977D01*
X14179301Y-23482420D01*
X14239804Y-23443549D01*
X14305898Y-23384276D01*
X14374767Y-23308167D01*
X14443597Y-23218787D01*
X14509571Y-23119703D01*
X14569873Y-23014481D01*
X14605595Y-22942550D01*
X14666898Y-22811943D01*
X14719411Y-22702849D01*
X14764134Y-22613344D01*
X14802069Y-22541503D01*
X14834216Y-22485401D01*
X14861574Y-22443115D01*
X14873992Y-22426267D01*
X14926319Y-22364940D01*
X14983357Y-22310813D01*
X15047355Y-22263028D01*
X15120559Y-22220729D01*
X15205216Y-22183059D01*
X15303574Y-22149163D01*
X15417879Y-22118184D01*
X15550379Y-22089265D01*
X15703321Y-22061551D01*
X15878951Y-22034184D01*
X15917465Y-22028611D01*
X16107537Y-22003744D01*
X16274779Y-21986985D01*
X16420455Y-21978396D01*
X16545827Y-21978038D01*
X16652159Y-21985974D01*
X16652159Y-21985974D01*
G37*
X16652159Y-21985974D02*
X16740713Y-22002266D01*
X16812753Y-22026976D01*
X16869540Y-22060167D01*
X16888873Y-22076395D01*
X16930390Y-22129221D01*
X16954929Y-22195067D01*
X16962451Y-22275019D01*
X16952921Y-22370164D01*
X16926301Y-22481589D01*
X16882553Y-22610379D01*
X16869459Y-22644100D01*
X16843687Y-22707539D01*
X16816666Y-22770623D01*
X16787306Y-22835422D01*
X16754512Y-22904005D01*
X16717194Y-22978444D01*
X16674257Y-23060808D01*
X16624611Y-23153169D01*
X16567163Y-23257596D01*
X16500820Y-23376161D01*
X16424491Y-23510933D01*
X16337081Y-23663983D01*
X16266420Y-23787100D01*
X16159720Y-23974118D01*
X16065781Y-24142143D01*
X15983597Y-24293529D01*
X15912161Y-24430628D01*
X15850469Y-24555794D01*
X15797514Y-24671378D01*
X15752291Y-24779734D01*
X15713793Y-24883216D01*
X15681015Y-24984175D01*
X15652951Y-25084965D01*
X15628594Y-25187939D01*
X15606940Y-25295450D01*
X15596285Y-25354666D01*
X15586287Y-25413996D01*
X15577015Y-25473265D01*
X15568385Y-25533902D01*
X15560311Y-25597334D01*
X15552706Y-25664989D01*
X15545487Y-25738294D01*
X15538567Y-25818677D01*
X15531861Y-25907565D01*
X15525283Y-26006387D01*
X15518747Y-26116569D01*
X15512169Y-26239540D01*
X15505463Y-26376728D01*
X15498544Y-26529559D01*
X15491325Y-26699461D01*
X15483721Y-26887862D01*
X15475648Y-27096190D01*
X15467018Y-27325873D01*
X15457748Y-27578337D01*
X15449555Y-27804810D01*
X15443339Y-27976444D01*
X15437310Y-28140740D01*
X15431539Y-28295937D01*
X15426093Y-28440276D01*
X15421041Y-28571998D01*
X15416454Y-28689343D01*
X15412398Y-28790553D01*
X15408945Y-28873867D01*
X15406162Y-28937527D01*
X15404119Y-28979772D01*
X15402884Y-28998844D01*
X15402706Y-28999789D01*
X15389755Y-29002814D01*
X15354170Y-29010262D01*
X15298244Y-29021678D01*
X15224272Y-29036611D01*
X15134547Y-29054606D01*
X15031362Y-29075212D01*
X14917012Y-29097976D01*
X14793790Y-29122444D01*
X14663990Y-29148163D01*
X14529906Y-29174682D01*
X14393831Y-29201546D01*
X14258059Y-29228303D01*
X14124884Y-29254500D01*
X13996600Y-29279684D01*
X13875499Y-29303403D01*
X13763877Y-29325202D01*
X13664026Y-29344630D01*
X13578240Y-29361234D01*
X13508814Y-29374560D01*
X13458040Y-29384156D01*
X13431889Y-29388932D01*
X13326992Y-29403617D01*
X13226847Y-29410570D01*
X13137395Y-29409661D01*
X13064576Y-29400761D01*
X13049687Y-29397278D01*
X12994917Y-29371721D01*
X12940529Y-29326956D01*
X12891789Y-29268700D01*
X12853962Y-29202673D01*
X12841761Y-29171518D01*
X12817784Y-29083478D01*
X12798453Y-28977298D01*
X12783713Y-28851961D01*
X12773509Y-28706453D01*
X12767784Y-28539759D01*
X12766484Y-28350864D01*
X12769552Y-28138754D01*
X12775078Y-27952700D01*
X12778009Y-27874258D01*
X12782017Y-27773339D01*
X12786975Y-27652837D01*
X12792759Y-27515645D01*
X12799242Y-27364657D01*
X12806300Y-27202767D01*
X12813807Y-27032869D01*
X12821636Y-26857858D01*
X12829664Y-26680627D01*
X12837764Y-26504070D01*
X12840041Y-26454853D01*
X12890354Y-25369757D01*
X12485388Y-24581603D01*
X12413758Y-24442091D01*
X12342468Y-24303046D01*
X12272868Y-24167111D01*
X12206307Y-24036931D01*
X12144134Y-23915150D01*
X12087699Y-23804411D01*
X12038352Y-23707358D01*
X11997440Y-23626635D01*
X11966315Y-23564886D01*
X11957658Y-23547597D01*
X11865512Y-23360134D01*
X11786565Y-23192845D01*
X11720466Y-23044426D01*
X11666864Y-22913567D01*
X11625405Y-22798962D01*
X11595739Y-22699304D01*
X11577514Y-22613285D01*
X11570377Y-22539597D01*
X11573978Y-22476935D01*
X11587964Y-22423989D01*
X11611983Y-22379454D01*
X11635735Y-22351418D01*
X11706601Y-22296766D01*
X11797668Y-22254652D01*
X11909616Y-22224857D01*
X12043127Y-22207162D01*
X12096750Y-22203705D01*
X12275605Y-22205802D01*
X12464603Y-22228177D01*
X12660212Y-22269703D01*
X12858899Y-22329252D01*
X13057132Y-22405699D01*
X13251380Y-22497914D01*
X13438111Y-22604773D01*
X13519150Y-22657610D01*
X13661488Y-22764100D01*
X13779401Y-22873904D01*
X13873749Y-22987929D01*
X13945393Y-23107084D01*
X13945674Y-23107650D01*
X13972945Y-23166735D01*
X13989763Y-23216175D01*
X13999435Y-23267670D01*
X14003918Y-23313721D01*
X14014900Y-23395588D01*
X14034152Y-23453920D01*
X14062432Y-23489444D01*
X14100496Y-23502887D01*
X14149099Y-23494977D01*
X14179301Y-23482420D01*
X14239804Y-23443549D01*
X14305898Y-23384276D01*
X14374767Y-23308167D01*
X14443597Y-23218787D01*
X14509571Y-23119703D01*
X14569873Y-23014481D01*
X14605595Y-22942550D01*
X14666898Y-22811943D01*
X14719411Y-22702849D01*
X14764134Y-22613344D01*
X14802069Y-22541503D01*
X14834216Y-22485401D01*
X14861574Y-22443115D01*
X14873992Y-22426267D01*
X14926319Y-22364940D01*
X14983357Y-22310813D01*
X15047355Y-22263028D01*
X15120559Y-22220729D01*
X15205216Y-22183059D01*
X15303574Y-22149163D01*
X15417879Y-22118184D01*
X15550379Y-22089265D01*
X15703321Y-22061551D01*
X15878951Y-22034184D01*
X15917465Y-22028611D01*
X16107537Y-22003744D01*
X16274779Y-21986985D01*
X16420455Y-21978396D01*
X16545827Y-21978038D01*
X16652159Y-21985974D01*
G36*
X5032270Y-20400097D02*
G01*
X5143438Y-20403454D01*
X5240334Y-20408768D01*
X5324064Y-20416071D01*
X5395737Y-20425396D01*
X5456459Y-20436773D01*
X5507338Y-20450236D01*
X5549481Y-20465816D01*
X5583996Y-20483546D01*
X5611990Y-20503456D01*
X5632087Y-20522781D01*
X5651286Y-20560149D01*
X5661041Y-20615264D01*
X5661784Y-20682472D01*
X5653949Y-20756121D01*
X5637970Y-20830557D01*
X5614280Y-20900125D01*
X5600962Y-20928838D01*
X5582330Y-20962281D01*
X5562491Y-20988775D01*
X5538074Y-21009581D01*
X5505710Y-21025962D01*
X5462026Y-21039178D01*
X5403653Y-21050493D01*
X5327220Y-21061167D01*
X5229357Y-21072463D01*
X5212348Y-21074319D01*
X5099092Y-21085729D01*
X4970097Y-21097037D01*
X4824533Y-21108288D01*
X4661569Y-21119525D01*
X4480377Y-21130791D01*
X4280126Y-21142131D01*
X4059987Y-21153588D01*
X3819130Y-21165207D01*
X3556726Y-21177030D01*
X3271944Y-21189103D01*
X2963955Y-21201468D01*
X2631930Y-21214170D01*
X2406650Y-21222488D01*
X2328830Y-21224902D01*
X2232427Y-21227194D01*
X2119650Y-21229354D01*
X1992713Y-21231373D01*
X1853825Y-21233240D01*
X1705200Y-21234944D01*
X1549047Y-21236477D01*
X1387579Y-21237826D01*
X1223006Y-21238984D01*
X1057541Y-21239938D01*
X893395Y-21240680D01*
X732779Y-21241199D01*
X577905Y-21241484D01*
X430984Y-21241527D01*
X294227Y-21241315D01*
X169846Y-21240841D01*
X60053Y-21240092D01*
X-32941Y-21239060D01*
X-106925Y-21237733D01*
X-159687Y-21236102D01*
X-186974Y-21234390D01*
X-303112Y-21216569D01*
X-414951Y-21188781D01*
X-517710Y-21152807D01*
X-606609Y-21110426D01*
X-676869Y-21063417D01*
X-698448Y-21043952D01*
X-741742Y-20987411D01*
X-759672Y-20929951D01*
X-752244Y-20871880D01*
X-719466Y-20813507D01*
X-692989Y-20783720D01*
X-619124Y-20725456D01*
X-522881Y-20675213D01*
X-406221Y-20633743D01*
X-271105Y-20601798D01*
X-181698Y-20587477D01*
X-146522Y-20584135D01*
X-89448Y-20580415D01*
X-13975Y-20576470D01*
X76401Y-20572456D01*
X178182Y-20568525D01*
X287871Y-20564833D01*
X401970Y-20561535D01*
X412750Y-20561251D01*
X562771Y-20557229D01*
X711264Y-20552994D01*
X860247Y-20548469D01*
X1011740Y-20543576D01*
X1167761Y-20538235D01*
X1330330Y-20532368D01*
X1501465Y-20525897D01*
X1683185Y-20518743D01*
X1877509Y-20510828D01*
X2086457Y-20502073D01*
X2312047Y-20492401D01*
X2556299Y-20481731D01*
X2821230Y-20469987D01*
X3108860Y-20457090D01*
X3206750Y-20452673D01*
X3496208Y-20439856D01*
X3761427Y-20428709D01*
X4003513Y-20419262D01*
X4223575Y-20411548D01*
X4422719Y-20405600D01*
X4602053Y-20401448D01*
X4762684Y-20399126D01*
X4905721Y-20398665D01*
X5032270Y-20400097D01*
X5032270Y-20400097D01*
G37*
X5032270Y-20400097D02*
X5143438Y-20403454D01*
X5240334Y-20408768D01*
X5324064Y-20416071D01*
X5395737Y-20425396D01*
X5456459Y-20436773D01*
X5507338Y-20450236D01*
X5549481Y-20465816D01*
X5583996Y-20483546D01*
X5611990Y-20503456D01*
X5632087Y-20522781D01*
X5651286Y-20560149D01*
X5661041Y-20615264D01*
X5661784Y-20682472D01*
X5653949Y-20756121D01*
X5637970Y-20830557D01*
X5614280Y-20900125D01*
X5600962Y-20928838D01*
X5582330Y-20962281D01*
X5562491Y-20988775D01*
X5538074Y-21009581D01*
X5505710Y-21025962D01*
X5462026Y-21039178D01*
X5403653Y-21050493D01*
X5327220Y-21061167D01*
X5229357Y-21072463D01*
X5212348Y-21074319D01*
X5099092Y-21085729D01*
X4970097Y-21097037D01*
X4824533Y-21108288D01*
X4661569Y-21119525D01*
X4480377Y-21130791D01*
X4280126Y-21142131D01*
X4059987Y-21153588D01*
X3819130Y-21165207D01*
X3556726Y-21177030D01*
X3271944Y-21189103D01*
X2963955Y-21201468D01*
X2631930Y-21214170D01*
X2406650Y-21222488D01*
X2328830Y-21224902D01*
X2232427Y-21227194D01*
X2119650Y-21229354D01*
X1992713Y-21231373D01*
X1853825Y-21233240D01*
X1705200Y-21234944D01*
X1549047Y-21236477D01*
X1387579Y-21237826D01*
X1223006Y-21238984D01*
X1057541Y-21239938D01*
X893395Y-21240680D01*
X732779Y-21241199D01*
X577905Y-21241484D01*
X430984Y-21241527D01*
X294227Y-21241315D01*
X169846Y-21240841D01*
X60053Y-21240092D01*
X-32941Y-21239060D01*
X-106925Y-21237733D01*
X-159687Y-21236102D01*
X-186974Y-21234390D01*
X-303112Y-21216569D01*
X-414951Y-21188781D01*
X-517710Y-21152807D01*
X-606609Y-21110426D01*
X-676869Y-21063417D01*
X-698448Y-21043952D01*
X-741742Y-20987411D01*
X-759672Y-20929951D01*
X-752244Y-20871880D01*
X-719466Y-20813507D01*
X-692989Y-20783720D01*
X-619124Y-20725456D01*
X-522881Y-20675213D01*
X-406221Y-20633743D01*
X-271105Y-20601798D01*
X-181698Y-20587477D01*
X-146522Y-20584135D01*
X-89448Y-20580415D01*
X-13975Y-20576470D01*
X76401Y-20572456D01*
X178182Y-20568525D01*
X287871Y-20564833D01*
X401970Y-20561535D01*
X412750Y-20561251D01*
X562771Y-20557229D01*
X711264Y-20552994D01*
X860247Y-20548469D01*
X1011740Y-20543576D01*
X1167761Y-20538235D01*
X1330330Y-20532368D01*
X1501465Y-20525897D01*
X1683185Y-20518743D01*
X1877509Y-20510828D01*
X2086457Y-20502073D01*
X2312047Y-20492401D01*
X2556299Y-20481731D01*
X2821230Y-20469987D01*
X3108860Y-20457090D01*
X3206750Y-20452673D01*
X3496208Y-20439856D01*
X3761427Y-20428709D01*
X4003513Y-20419262D01*
X4223575Y-20411548D01*
X4422719Y-20405600D01*
X4602053Y-20401448D01*
X4762684Y-20399126D01*
X4905721Y-20398665D01*
X5032270Y-20400097D01*
G36*
X2361334Y-15768276D02*
G01*
X2449055Y-15771238D01*
X2518413Y-15779567D01*
X2576172Y-15794910D01*
X2629097Y-15818917D01*
X2669276Y-15843329D01*
X2714148Y-15884871D01*
X2753472Y-15947026D01*
X2787486Y-16030590D01*
X2816425Y-16136357D01*
X2840526Y-16265123D01*
X2860024Y-16417683D01*
X2869233Y-16516350D01*
X2876969Y-16621113D01*
X2884739Y-16747496D01*
X2892391Y-16891717D01*
X2899774Y-17049997D01*
X2906739Y-17218555D01*
X2913133Y-17393611D01*
X2918806Y-17571384D01*
X2923608Y-17748094D01*
X2927386Y-17919960D01*
X2929035Y-18014950D01*
X2931341Y-18267361D01*
X2929916Y-18495713D01*
X2924543Y-18701100D01*
X2915010Y-18884619D01*
X2901102Y-19047365D01*
X2882605Y-19190432D01*
X2859305Y-19314918D01*
X2830989Y-19421916D01*
X2797441Y-19512524D01*
X2758448Y-19587835D01*
X2713796Y-19648945D01*
X2663271Y-19696951D01*
X2606659Y-19732947D01*
X2591935Y-19740015D01*
X2556040Y-19753540D01*
X2516812Y-19761502D01*
X2466403Y-19765013D01*
X2413000Y-19765366D01*
X2283070Y-19753834D01*
X2166991Y-19721909D01*
X2065649Y-19670102D01*
X1979929Y-19598922D01*
X1910716Y-19508876D01*
X1884905Y-19461751D01*
X1870576Y-19425007D01*
X1853675Y-19370029D01*
X1836090Y-19303589D01*
X1819711Y-19232460D01*
X1816100Y-19215100D01*
X1790436Y-19101821D01*
X1763886Y-19012176D01*
X1735460Y-18944399D01*
X1704168Y-18896723D01*
X1669021Y-18867382D01*
X1629030Y-18854610D01*
X1613693Y-18853727D01*
X1563946Y-18864449D01*
X1511957Y-18897017D01*
X1457225Y-18952032D01*
X1399254Y-19030095D01*
X1337543Y-19131808D01*
X1271594Y-19257772D01*
X1261546Y-19278301D01*
X1199751Y-19402020D01*
X1144890Y-19503789D01*
X1095514Y-19585633D01*
X1050172Y-19649579D01*
X1007416Y-19697654D01*
X965797Y-19731883D01*
X923866Y-19754294D01*
X920098Y-19755773D01*
X863045Y-19769242D01*
X809734Y-19762773D01*
X756277Y-19735049D01*
X698785Y-19684754D01*
X693096Y-19678883D01*
X659493Y-19641254D01*
X626248Y-19598191D01*
X591881Y-19547112D01*
X554915Y-19485434D01*
X513870Y-19410573D01*
X467268Y-19319949D01*
X413630Y-19210978D01*
X354805Y-19088100D01*
X314706Y-19003885D01*
X277825Y-18927112D01*
X245640Y-18860800D01*
X219627Y-18807968D01*
X201261Y-18771636D01*
X192020Y-18754822D01*
X191520Y-18754178D01*
X184322Y-18762755D01*
X168828Y-18791982D01*
X146362Y-18838996D01*
X118245Y-18900940D01*
X85800Y-18974952D01*
X50351Y-19058172D01*
X44687Y-19071678D01*
X-38895Y-19268003D01*
X-115240Y-19440236D01*
X-184465Y-19588598D01*
X-246692Y-19713307D01*
X-302040Y-19814584D01*
X-350628Y-19892647D01*
X-392576Y-19947716D01*
X-428004Y-19980011D01*
X-455322Y-19989800D01*
X-480596Y-19982971D01*
X-513799Y-19966038D01*
X-521997Y-19960787D01*
X-565113Y-19918474D01*
X-605580Y-19851772D01*
X-643141Y-19761578D01*
X-677539Y-19648791D01*
X-708517Y-19514308D01*
X-735817Y-19359028D01*
X-759182Y-19183848D01*
X-767898Y-19103182D01*
X-775583Y-19025722D01*
X-782417Y-18952857D01*
X-788459Y-18882600D01*
X-793768Y-18812963D01*
X-798402Y-18741957D01*
X-802422Y-18667595D01*
X-805884Y-18587889D01*
X-808849Y-18500851D01*
X-811374Y-18404493D01*
X-813520Y-18296827D01*
X-815344Y-18175865D01*
X-816905Y-18039620D01*
X-818263Y-17886103D01*
X-819476Y-17713327D01*
X-820603Y-17519304D01*
X-821703Y-17302045D01*
X-821801Y-17281525D01*
X-822768Y-17069727D01*
X-823516Y-16881981D01*
X-824033Y-16716941D01*
X-824307Y-16573258D01*
X-824327Y-16449585D01*
X-824081Y-16344576D01*
X-823557Y-16256883D01*
X-822743Y-16185160D01*
X-821629Y-16128058D01*
X-820202Y-16084231D01*
X-818450Y-16052331D01*
X-816363Y-16031012D01*
X-813927Y-16018927D01*
X-811132Y-16014727D01*
X-810805Y-16014689D01*
X-793993Y-16013475D01*
X-755449Y-16010064D01*
X-698715Y-16004788D01*
X-627331Y-15997981D01*
X-544839Y-15989976D01*
X-463550Y-15981977D01*
X-296417Y-15966839D01*
X-152372Y-15956949D01*
X-29651Y-15952331D01*
X73516Y-15953011D01*
X158896Y-15959014D01*
X228256Y-15970363D01*
X283364Y-15987085D01*
X296365Y-15992680D01*
X342836Y-16015958D01*
X385708Y-16041934D01*
X426317Y-16072482D01*
X466004Y-16109478D01*
X506105Y-16154796D01*
X547960Y-16210311D01*
X592907Y-16277898D01*
X642283Y-16359433D01*
X697427Y-16456789D01*
X759677Y-16571842D01*
X830373Y-16706467D01*
X894502Y-16830675D01*
X934821Y-16908850D01*
X971325Y-16979001D01*
X1002426Y-17038129D01*
X1026539Y-17083239D01*
X1042079Y-17111332D01*
X1047392Y-17119600D01*
X1055310Y-17109472D01*
X1075736Y-17080715D01*
X1106991Y-17035767D01*
X1147394Y-16977065D01*
X1195266Y-16907049D01*
X1248925Y-16828155D01*
X1290234Y-16767175D01*
X1383663Y-16629559D01*
X1464958Y-16511106D01*
X1535758Y-16409633D01*
X1597702Y-16322959D01*
X1652426Y-16248903D01*
X1701569Y-16185283D01*
X1746768Y-16129918D01*
X1789663Y-16080627D01*
X1831890Y-16035228D01*
X1865596Y-16000938D01*
X1923222Y-15945165D01*
X1970885Y-15903570D01*
X2015247Y-15871126D01*
X2062966Y-15842806D01*
X2101136Y-15823138D01*
X2214418Y-15767050D01*
X2361334Y-15768276D01*
X2361334Y-15768276D01*
G37*
X2361334Y-15768276D02*
X2449055Y-15771238D01*
X2518413Y-15779567D01*
X2576172Y-15794910D01*
X2629097Y-15818917D01*
X2669276Y-15843329D01*
X2714148Y-15884871D01*
X2753472Y-15947026D01*
X2787486Y-16030590D01*
X2816425Y-16136357D01*
X2840526Y-16265123D01*
X2860024Y-16417683D01*
X2869233Y-16516350D01*
X2876969Y-16621113D01*
X2884739Y-16747496D01*
X2892391Y-16891717D01*
X2899774Y-17049997D01*
X2906739Y-17218555D01*
X2913133Y-17393611D01*
X2918806Y-17571384D01*
X2923608Y-17748094D01*
X2927386Y-17919960D01*
X2929035Y-18014950D01*
X2931341Y-18267361D01*
X2929916Y-18495713D01*
X2924543Y-18701100D01*
X2915010Y-18884619D01*
X2901102Y-19047365D01*
X2882605Y-19190432D01*
X2859305Y-19314918D01*
X2830989Y-19421916D01*
X2797441Y-19512524D01*
X2758448Y-19587835D01*
X2713796Y-19648945D01*
X2663271Y-19696951D01*
X2606659Y-19732947D01*
X2591935Y-19740015D01*
X2556040Y-19753540D01*
X2516812Y-19761502D01*
X2466403Y-19765013D01*
X2413000Y-19765366D01*
X2283070Y-19753834D01*
X2166991Y-19721909D01*
X2065649Y-19670102D01*
X1979929Y-19598922D01*
X1910716Y-19508876D01*
X1884905Y-19461751D01*
X1870576Y-19425007D01*
X1853675Y-19370029D01*
X1836090Y-19303589D01*
X1819711Y-19232460D01*
X1816100Y-19215100D01*
X1790436Y-19101821D01*
X1763886Y-19012176D01*
X1735460Y-18944399D01*
X1704168Y-18896723D01*
X1669021Y-18867382D01*
X1629030Y-18854610D01*
X1613693Y-18853727D01*
X1563946Y-18864449D01*
X1511957Y-18897017D01*
X1457225Y-18952032D01*
X1399254Y-19030095D01*
X1337543Y-19131808D01*
X1271594Y-19257772D01*
X1261546Y-19278301D01*
X1199751Y-19402020D01*
X1144890Y-19503789D01*
X1095514Y-19585633D01*
X1050172Y-19649579D01*
X1007416Y-19697654D01*
X965797Y-19731883D01*
X923866Y-19754294D01*
X920098Y-19755773D01*
X863045Y-19769242D01*
X809734Y-19762773D01*
X756277Y-19735049D01*
X698785Y-19684754D01*
X693096Y-19678883D01*
X659493Y-19641254D01*
X626248Y-19598191D01*
X591881Y-19547112D01*
X554915Y-19485434D01*
X513870Y-19410573D01*
X467268Y-19319949D01*
X413630Y-19210978D01*
X354805Y-19088100D01*
X314706Y-19003885D01*
X277825Y-18927112D01*
X245640Y-18860800D01*
X219627Y-18807968D01*
X201261Y-18771636D01*
X192020Y-18754822D01*
X191520Y-18754178D01*
X184322Y-18762755D01*
X168828Y-18791982D01*
X146362Y-18838996D01*
X118245Y-18900940D01*
X85800Y-18974952D01*
X50351Y-19058172D01*
X44687Y-19071678D01*
X-38895Y-19268003D01*
X-115240Y-19440236D01*
X-184465Y-19588598D01*
X-246692Y-19713307D01*
X-302040Y-19814584D01*
X-350628Y-19892647D01*
X-392576Y-19947716D01*
X-428004Y-19980011D01*
X-455322Y-19989800D01*
X-480596Y-19982971D01*
X-513799Y-19966038D01*
X-521997Y-19960787D01*
X-565113Y-19918474D01*
X-605580Y-19851772D01*
X-643141Y-19761578D01*
X-677539Y-19648791D01*
X-708517Y-19514308D01*
X-735817Y-19359028D01*
X-759182Y-19183848D01*
X-767898Y-19103182D01*
X-775583Y-19025722D01*
X-782417Y-18952857D01*
X-788459Y-18882600D01*
X-793768Y-18812963D01*
X-798402Y-18741957D01*
X-802422Y-18667595D01*
X-805884Y-18587889D01*
X-808849Y-18500851D01*
X-811374Y-18404493D01*
X-813520Y-18296827D01*
X-815344Y-18175865D01*
X-816905Y-18039620D01*
X-818263Y-17886103D01*
X-819476Y-17713327D01*
X-820603Y-17519304D01*
X-821703Y-17302045D01*
X-821801Y-17281525D01*
X-822768Y-17069727D01*
X-823516Y-16881981D01*
X-824033Y-16716941D01*
X-824307Y-16573258D01*
X-824327Y-16449585D01*
X-824081Y-16344576D01*
X-823557Y-16256883D01*
X-822743Y-16185160D01*
X-821629Y-16128058D01*
X-820202Y-16084231D01*
X-818450Y-16052331D01*
X-816363Y-16031012D01*
X-813927Y-16018927D01*
X-811132Y-16014727D01*
X-810805Y-16014689D01*
X-793993Y-16013475D01*
X-755449Y-16010064D01*
X-698715Y-16004788D01*
X-627331Y-15997981D01*
X-544839Y-15989976D01*
X-463550Y-15981977D01*
X-296417Y-15966839D01*
X-152372Y-15956949D01*
X-29651Y-15952331D01*
X73516Y-15953011D01*
X158896Y-15959014D01*
X228256Y-15970363D01*
X283364Y-15987085D01*
X296365Y-15992680D01*
X342836Y-16015958D01*
X385708Y-16041934D01*
X426317Y-16072482D01*
X466004Y-16109478D01*
X506105Y-16154796D01*
X547960Y-16210311D01*
X592907Y-16277898D01*
X642283Y-16359433D01*
X697427Y-16456789D01*
X759677Y-16571842D01*
X830373Y-16706467D01*
X894502Y-16830675D01*
X934821Y-16908850D01*
X971325Y-16979001D01*
X1002426Y-17038129D01*
X1026539Y-17083239D01*
X1042079Y-17111332D01*
X1047392Y-17119600D01*
X1055310Y-17109472D01*
X1075736Y-17080715D01*
X1106991Y-17035767D01*
X1147394Y-16977065D01*
X1195266Y-16907049D01*
X1248925Y-16828155D01*
X1290234Y-16767175D01*
X1383663Y-16629559D01*
X1464958Y-16511106D01*
X1535758Y-16409633D01*
X1597702Y-16322959D01*
X1652426Y-16248903D01*
X1701569Y-16185283D01*
X1746768Y-16129918D01*
X1789663Y-16080627D01*
X1831890Y-16035228D01*
X1865596Y-16000938D01*
X1923222Y-15945165D01*
X1970885Y-15903570D01*
X2015247Y-15871126D01*
X2062966Y-15842806D01*
X2101136Y-15823138D01*
X2214418Y-15767050D01*
X2361334Y-15768276D01*
G36*
X-3943692Y-15788530D02*
G01*
X-3825303Y-15792175D01*
X-3723491Y-15799302D01*
X-3635355Y-15810242D01*
X-3557996Y-15825324D01*
X-3488512Y-15844876D01*
X-3424005Y-15869230D01*
X-3383217Y-15887863D01*
X-3292100Y-15946033D01*
X-3216348Y-16024331D01*
X-3156127Y-16122530D01*
X-3111604Y-16240407D01*
X-3105723Y-16261942D01*
X-3090240Y-16337654D01*
X-3078119Y-16429279D01*
X-3069450Y-16531567D01*
X-3064322Y-16639270D01*
X-3062825Y-16747136D01*
X-3065049Y-16849917D01*
X-3071085Y-16942363D01*
X-3081022Y-17019224D01*
X-3091952Y-17066324D01*
X-3120201Y-17132396D01*
X-3160722Y-17184277D01*
X-3215766Y-17223066D01*
X-3287584Y-17249860D01*
X-3378427Y-17265757D01*
X-3490544Y-17271857D01*
X-3513441Y-17272000D01*
X-3618467Y-17269615D01*
X-3704108Y-17261818D01*
X-3775986Y-17247644D01*
X-3839724Y-17226127D01*
X-3875195Y-17209894D01*
X-3937741Y-17170201D01*
X-3981882Y-17120755D01*
X-4010529Y-17057001D01*
X-4026589Y-16974384D01*
X-4026801Y-16972520D01*
X-4044175Y-16882572D01*
X-4073462Y-16808117D01*
X-4113021Y-16751445D01*
X-4161211Y-16714845D01*
X-4216391Y-16700606D01*
X-4221803Y-16700500D01*
X-4265486Y-16707960D01*
X-4300604Y-16732588D01*
X-4331106Y-16777754D01*
X-4343967Y-16804737D01*
X-4362585Y-16865952D01*
X-4374670Y-16946134D01*
X-4380383Y-17039747D01*
X-4379883Y-17141255D01*
X-4373329Y-17245123D01*
X-4360882Y-17345814D01*
X-4342701Y-17437794D01*
X-4323855Y-17502183D01*
X-4283200Y-17588700D01*
X-4228142Y-17655064D01*
X-4156404Y-17703341D01*
X-4066900Y-17735302D01*
X-4029204Y-17742232D01*
X-3972320Y-17749597D01*
X-3902434Y-17756739D01*
X-3825734Y-17762997D01*
X-3778250Y-17766097D01*
X-3661545Y-17774768D01*
X-3564168Y-17786609D01*
X-3480115Y-17802949D01*
X-3403380Y-17825114D01*
X-3327960Y-17854432D01*
X-3280834Y-17876010D01*
X-3189704Y-17928094D01*
X-3113604Y-17991079D01*
X-3050415Y-18067930D01*
X-2998018Y-18161610D01*
X-2954294Y-18275084D01*
X-2926905Y-18371050D01*
X-2897310Y-18515725D01*
X-2880068Y-18664282D01*
X-2874757Y-18813246D01*
X-2880951Y-18959145D01*
X-2898225Y-19098504D01*
X-2926157Y-19227851D01*
X-2964321Y-19343710D01*
X-3012293Y-19442609D01*
X-3067028Y-19518202D01*
X-3127168Y-19569978D01*
X-3210921Y-19619202D01*
X-3316579Y-19665330D01*
X-3442436Y-19707815D01*
X-3586783Y-19746112D01*
X-3747913Y-19779676D01*
X-3924119Y-19807960D01*
X-4007662Y-19818795D01*
X-4090480Y-19826915D01*
X-4189651Y-19833651D01*
X-4299459Y-19838879D01*
X-4414188Y-19842475D01*
X-4528122Y-19844316D01*
X-4635544Y-19844279D01*
X-4730739Y-19842240D01*
X-4807989Y-19838075D01*
X-4826000Y-19836474D01*
X-4916546Y-19824529D01*
X-5008879Y-19807195D01*
X-5096876Y-19786018D01*
X-5174410Y-19762549D01*
X-5235356Y-19738334D01*
X-5254999Y-19728041D01*
X-5347652Y-19660986D01*
X-5425067Y-19579296D01*
X-5486626Y-19486266D01*
X-5531706Y-19385185D01*
X-5559687Y-19279348D01*
X-5569949Y-19172045D01*
X-5561871Y-19066570D01*
X-5534833Y-18966213D01*
X-5488212Y-18874269D01*
X-5429583Y-18802013D01*
X-5354798Y-18740726D01*
X-5274895Y-18702735D01*
X-5186952Y-18687241D01*
X-5088042Y-18693442D01*
X-5055047Y-18699571D01*
X-4961841Y-18724543D01*
X-4871070Y-18760510D01*
X-4779116Y-18809571D01*
X-4682364Y-18873822D01*
X-4577196Y-18955363D01*
X-4497795Y-19022837D01*
X-4421198Y-19088491D01*
X-4360510Y-19136866D01*
X-4313761Y-19168722D01*
X-4278981Y-19184823D01*
X-4254201Y-19185929D01*
X-4237451Y-19172804D01*
X-4226761Y-19146209D01*
X-4223234Y-19129059D01*
X-4221379Y-19095331D01*
X-4222924Y-19041513D01*
X-4227374Y-18972615D01*
X-4234234Y-18893647D01*
X-4243011Y-18809617D01*
X-4253209Y-18725537D01*
X-4264334Y-18646415D01*
X-4275893Y-18577261D01*
X-4279573Y-18558201D01*
X-4310284Y-18439202D01*
X-4350711Y-18342127D01*
X-4402138Y-18264938D01*
X-4465849Y-18205599D01*
X-4523687Y-18170986D01*
X-4549050Y-18159360D01*
X-4576232Y-18148952D01*
X-4608766Y-18138902D01*
X-4650185Y-18128350D01*
X-4704023Y-18116435D01*
X-4773814Y-18102298D01*
X-4863092Y-18085077D01*
X-4923295Y-18073694D01*
X-5061428Y-18037104D01*
X-5181554Y-17982634D01*
X-5283880Y-17910111D01*
X-5368612Y-17819361D01*
X-5435954Y-17710211D01*
X-5479081Y-17604642D01*
X-5506321Y-17508530D01*
X-5524199Y-17409980D01*
X-5533426Y-17302596D01*
X-5534712Y-17179982D01*
X-5532948Y-17119600D01*
X-5525172Y-16995202D01*
X-5511068Y-16871374D01*
X-5489642Y-16742080D01*
X-5459904Y-16601285D01*
X-5423232Y-16452084D01*
X-5391710Y-16334973D01*
X-5360611Y-16232943D01*
X-5328010Y-16144914D01*
X-5291980Y-16069808D01*
X-5250594Y-16006545D01*
X-5201927Y-15954047D01*
X-5144051Y-15911235D01*
X-5075040Y-15877029D01*
X-4992967Y-15850351D01*
X-4895907Y-15830122D01*
X-4781932Y-15815263D01*
X-4649117Y-15804694D01*
X-4495534Y-15797336D01*
X-4319258Y-15792111D01*
X-4241800Y-15790374D01*
X-4081558Y-15788040D01*
X-3943692Y-15788530D01*
X-3943692Y-15788530D01*
G37*
X-3943692Y-15788530D02*
X-3825303Y-15792175D01*
X-3723491Y-15799302D01*
X-3635355Y-15810242D01*
X-3557996Y-15825324D01*
X-3488512Y-15844876D01*
X-3424005Y-15869230D01*
X-3383217Y-15887863D01*
X-3292100Y-15946033D01*
X-3216348Y-16024331D01*
X-3156127Y-16122530D01*
X-3111604Y-16240407D01*
X-3105723Y-16261942D01*
X-3090240Y-16337654D01*
X-3078119Y-16429279D01*
X-3069450Y-16531567D01*
X-3064322Y-16639270D01*
X-3062825Y-16747136D01*
X-3065049Y-16849917D01*
X-3071085Y-16942363D01*
X-3081022Y-17019224D01*
X-3091952Y-17066324D01*
X-3120201Y-17132396D01*
X-3160722Y-17184277D01*
X-3215766Y-17223066D01*
X-3287584Y-17249860D01*
X-3378427Y-17265757D01*
X-3490544Y-17271857D01*
X-3513441Y-17272000D01*
X-3618467Y-17269615D01*
X-3704108Y-17261818D01*
X-3775986Y-17247644D01*
X-3839724Y-17226127D01*
X-3875195Y-17209894D01*
X-3937741Y-17170201D01*
X-3981882Y-17120755D01*
X-4010529Y-17057001D01*
X-4026589Y-16974384D01*
X-4026801Y-16972520D01*
X-4044175Y-16882572D01*
X-4073462Y-16808117D01*
X-4113021Y-16751445D01*
X-4161211Y-16714845D01*
X-4216391Y-16700606D01*
X-4221803Y-16700500D01*
X-4265486Y-16707960D01*
X-4300604Y-16732588D01*
X-4331106Y-16777754D01*
X-4343967Y-16804737D01*
X-4362585Y-16865952D01*
X-4374670Y-16946134D01*
X-4380383Y-17039747D01*
X-4379883Y-17141255D01*
X-4373329Y-17245123D01*
X-4360882Y-17345814D01*
X-4342701Y-17437794D01*
X-4323855Y-17502183D01*
X-4283200Y-17588700D01*
X-4228142Y-17655064D01*
X-4156404Y-17703341D01*
X-4066900Y-17735302D01*
X-4029204Y-17742232D01*
X-3972320Y-17749597D01*
X-3902434Y-17756739D01*
X-3825734Y-17762997D01*
X-3778250Y-17766097D01*
X-3661545Y-17774768D01*
X-3564168Y-17786609D01*
X-3480115Y-17802949D01*
X-3403380Y-17825114D01*
X-3327960Y-17854432D01*
X-3280834Y-17876010D01*
X-3189704Y-17928094D01*
X-3113604Y-17991079D01*
X-3050415Y-18067930D01*
X-2998018Y-18161610D01*
X-2954294Y-18275084D01*
X-2926905Y-18371050D01*
X-2897310Y-18515725D01*
X-2880068Y-18664282D01*
X-2874757Y-18813246D01*
X-2880951Y-18959145D01*
X-2898225Y-19098504D01*
X-2926157Y-19227851D01*
X-2964321Y-19343710D01*
X-3012293Y-19442609D01*
X-3067028Y-19518202D01*
X-3127168Y-19569978D01*
X-3210921Y-19619202D01*
X-3316579Y-19665330D01*
X-3442436Y-19707815D01*
X-3586783Y-19746112D01*
X-3747913Y-19779676D01*
X-3924119Y-19807960D01*
X-4007662Y-19818795D01*
X-4090480Y-19826915D01*
X-4189651Y-19833651D01*
X-4299459Y-19838879D01*
X-4414188Y-19842475D01*
X-4528122Y-19844316D01*
X-4635544Y-19844279D01*
X-4730739Y-19842240D01*
X-4807989Y-19838075D01*
X-4826000Y-19836474D01*
X-4916546Y-19824529D01*
X-5008879Y-19807195D01*
X-5096876Y-19786018D01*
X-5174410Y-19762549D01*
X-5235356Y-19738334D01*
X-5254999Y-19728041D01*
X-5347652Y-19660986D01*
X-5425067Y-19579296D01*
X-5486626Y-19486266D01*
X-5531706Y-19385185D01*
X-5559687Y-19279348D01*
X-5569949Y-19172045D01*
X-5561871Y-19066570D01*
X-5534833Y-18966213D01*
X-5488212Y-18874269D01*
X-5429583Y-18802013D01*
X-5354798Y-18740726D01*
X-5274895Y-18702735D01*
X-5186952Y-18687241D01*
X-5088042Y-18693442D01*
X-5055047Y-18699571D01*
X-4961841Y-18724543D01*
X-4871070Y-18760510D01*
X-4779116Y-18809571D01*
X-4682364Y-18873822D01*
X-4577196Y-18955363D01*
X-4497795Y-19022837D01*
X-4421198Y-19088491D01*
X-4360510Y-19136866D01*
X-4313761Y-19168722D01*
X-4278981Y-19184823D01*
X-4254201Y-19185929D01*
X-4237451Y-19172804D01*
X-4226761Y-19146209D01*
X-4223234Y-19129059D01*
X-4221379Y-19095331D01*
X-4222924Y-19041513D01*
X-4227374Y-18972615D01*
X-4234234Y-18893647D01*
X-4243011Y-18809617D01*
X-4253209Y-18725537D01*
X-4264334Y-18646415D01*
X-4275893Y-18577261D01*
X-4279573Y-18558201D01*
X-4310284Y-18439202D01*
X-4350711Y-18342127D01*
X-4402138Y-18264938D01*
X-4465849Y-18205599D01*
X-4523687Y-18170986D01*
X-4549050Y-18159360D01*
X-4576232Y-18148952D01*
X-4608766Y-18138902D01*
X-4650185Y-18128350D01*
X-4704023Y-18116435D01*
X-4773814Y-18102298D01*
X-4863092Y-18085077D01*
X-4923295Y-18073694D01*
X-5061428Y-18037104D01*
X-5181554Y-17982634D01*
X-5283880Y-17910111D01*
X-5368612Y-17819361D01*
X-5435954Y-17710211D01*
X-5479081Y-17604642D01*
X-5506321Y-17508530D01*
X-5524199Y-17409980D01*
X-5533426Y-17302596D01*
X-5534712Y-17179982D01*
X-5532948Y-17119600D01*
X-5525172Y-16995202D01*
X-5511068Y-16871374D01*
X-5489642Y-16742080D01*
X-5459904Y-16601285D01*
X-5423232Y-16452084D01*
X-5391710Y-16334973D01*
X-5360611Y-16232943D01*
X-5328010Y-16144914D01*
X-5291980Y-16069808D01*
X-5250594Y-16006545D01*
X-5201927Y-15954047D01*
X-5144051Y-15911235D01*
X-5075040Y-15877029D01*
X-4992967Y-15850351D01*
X-4895907Y-15830122D01*
X-4781932Y-15815263D01*
X-4649117Y-15804694D01*
X-4495534Y-15797336D01*
X-4319258Y-15792111D01*
X-4241800Y-15790374D01*
X-4081558Y-15788040D01*
X-3943692Y-15788530D01*
G36*
X-6716341Y-15871793D02*
G01*
X-6697166Y-15873887D01*
X-6557909Y-15895560D01*
X-6428842Y-15926452D01*
X-6312547Y-15965415D01*
X-6211605Y-16011305D01*
X-6128600Y-16062975D01*
X-6066113Y-16119280D01*
X-6031308Y-16169438D01*
X-6010169Y-16221775D01*
X-5992162Y-16290461D01*
X-5977176Y-16376747D01*
X-5965099Y-16481882D01*
X-5955818Y-16607113D01*
X-5949222Y-16753691D01*
X-5945199Y-16922865D01*
X-5943637Y-17115884D01*
X-5943608Y-17148866D01*
X-5946236Y-17431500D01*
X-5953972Y-17707241D01*
X-5966610Y-17973624D01*
X-5983943Y-18228181D01*
X-6005765Y-18468446D01*
X-6031869Y-18691951D01*
X-6062048Y-18896231D01*
X-6096097Y-19078817D01*
X-6110759Y-19145250D01*
X-6155299Y-19290731D01*
X-6217372Y-19421532D01*
X-6295627Y-19535981D01*
X-6388716Y-19632412D01*
X-6495289Y-19709153D01*
X-6610350Y-19763230D01*
X-6685433Y-19783221D01*
X-6770566Y-19794439D01*
X-6857160Y-19796625D01*
X-6936626Y-19789514D01*
X-6994880Y-19774976D01*
X-7094317Y-19726044D01*
X-7175122Y-19660025D01*
X-7236855Y-19577374D01*
X-7277879Y-19482446D01*
X-7299962Y-19396676D01*
X-7320480Y-19287122D01*
X-7339322Y-19155359D01*
X-7356381Y-19002963D01*
X-7371547Y-18831506D01*
X-7384712Y-18642565D01*
X-7395767Y-18437713D01*
X-7404603Y-18218526D01*
X-7411111Y-17986577D01*
X-7415183Y-17743442D01*
X-7416709Y-17490695D01*
X-7416717Y-17473433D01*
X-7415662Y-17224932D01*
X-7412379Y-17000989D01*
X-7406813Y-16800855D01*
X-7398905Y-16623780D01*
X-7388600Y-16469015D01*
X-7375839Y-16335810D01*
X-7360567Y-16223418D01*
X-7342726Y-16131087D01*
X-7322259Y-16058070D01*
X-7306056Y-16017441D01*
X-7271630Y-15972438D01*
X-7215577Y-15934316D01*
X-7140910Y-15903786D01*
X-7050640Y-15881559D01*
X-6947781Y-15868344D01*
X-6835344Y-15864852D01*
X-6716341Y-15871793D01*
X-6716341Y-15871793D01*
G37*
X-6716341Y-15871793D02*
X-6697166Y-15873887D01*
X-6557909Y-15895560D01*
X-6428842Y-15926452D01*
X-6312547Y-15965415D01*
X-6211605Y-16011305D01*
X-6128600Y-16062975D01*
X-6066113Y-16119280D01*
X-6031308Y-16169438D01*
X-6010169Y-16221775D01*
X-5992162Y-16290461D01*
X-5977176Y-16376747D01*
X-5965099Y-16481882D01*
X-5955818Y-16607113D01*
X-5949222Y-16753691D01*
X-5945199Y-16922865D01*
X-5943637Y-17115884D01*
X-5943608Y-17148866D01*
X-5946236Y-17431500D01*
X-5953972Y-17707241D01*
X-5966610Y-17973624D01*
X-5983943Y-18228181D01*
X-6005765Y-18468446D01*
X-6031869Y-18691951D01*
X-6062048Y-18896231D01*
X-6096097Y-19078817D01*
X-6110759Y-19145250D01*
X-6155299Y-19290731D01*
X-6217372Y-19421532D01*
X-6295627Y-19535981D01*
X-6388716Y-19632412D01*
X-6495289Y-19709153D01*
X-6610350Y-19763230D01*
X-6685433Y-19783221D01*
X-6770566Y-19794439D01*
X-6857160Y-19796625D01*
X-6936626Y-19789514D01*
X-6994880Y-19774976D01*
X-7094317Y-19726044D01*
X-7175122Y-19660025D01*
X-7236855Y-19577374D01*
X-7277879Y-19482446D01*
X-7299962Y-19396676D01*
X-7320480Y-19287122D01*
X-7339322Y-19155359D01*
X-7356381Y-19002963D01*
X-7371547Y-18831506D01*
X-7384712Y-18642565D01*
X-7395767Y-18437713D01*
X-7404603Y-18218526D01*
X-7411111Y-17986577D01*
X-7415183Y-17743442D01*
X-7416709Y-17490695D01*
X-7416717Y-17473433D01*
X-7415662Y-17224932D01*
X-7412379Y-17000989D01*
X-7406813Y-16800855D01*
X-7398905Y-16623780D01*
X-7388600Y-16469015D01*
X-7375839Y-16335810D01*
X-7360567Y-16223418D01*
X-7342726Y-16131087D01*
X-7322259Y-16058070D01*
X-7306056Y-16017441D01*
X-7271630Y-15972438D01*
X-7215577Y-15934316D01*
X-7140910Y-15903786D01*
X-7050640Y-15881559D01*
X-6947781Y-15868344D01*
X-6835344Y-15864852D01*
X-6716341Y-15871793D01*
G36*
X6294764Y-15734036D02*
G01*
X6399488Y-15747984D01*
X6483934Y-15766570D01*
X6546907Y-15789344D01*
X6587215Y-15815855D01*
X6603662Y-15845652D01*
X6604000Y-15850814D01*
X6602480Y-15859778D01*
X6597467Y-15875231D01*
X6588275Y-15898644D01*
X6574222Y-15931485D01*
X6554624Y-15975224D01*
X6528797Y-16031332D01*
X6496058Y-16101278D01*
X6455722Y-16186532D01*
X6407107Y-16288564D01*
X6349529Y-16408844D01*
X6282304Y-16548842D01*
X6204748Y-16710027D01*
X6194047Y-16732250D01*
X6127706Y-16871433D01*
X6071203Y-16993563D01*
X6022349Y-17103958D01*
X5978955Y-17207939D01*
X5938833Y-17310823D01*
X5899794Y-17417931D01*
X5859649Y-17534581D01*
X5841337Y-17589500D01*
X5773429Y-17802572D01*
X5715794Y-18001762D01*
X5666602Y-18194839D01*
X5624023Y-18389570D01*
X5586225Y-18593722D01*
X5551378Y-18815064D01*
X5549531Y-18827750D01*
X5525621Y-18982606D01*
X5501833Y-19114163D01*
X5477333Y-19224504D01*
X5451289Y-19315712D01*
X5422864Y-19389870D01*
X5391227Y-19449062D01*
X5355542Y-19495369D01*
X5314975Y-19530876D01*
X5268693Y-19557665D01*
X5254837Y-19563788D01*
X5194418Y-19581612D01*
X5112223Y-19594538D01*
X5011430Y-19602396D01*
X4895220Y-19605017D01*
X4766772Y-19602231D01*
X4654550Y-19595794D01*
X4549924Y-19584776D01*
X4461094Y-19567002D01*
X4387227Y-19540774D01*
X4327487Y-19504396D01*
X4281042Y-19456168D01*
X4247056Y-19394395D01*
X4224696Y-19317378D01*
X4213127Y-19223419D01*
X4211516Y-19110823D01*
X4219028Y-18977889D01*
X4234829Y-18822922D01*
X4242834Y-18757900D01*
X4263488Y-18552571D01*
X4271176Y-18356004D01*
X4265307Y-18164576D01*
X4245290Y-17974659D01*
X4210534Y-17782629D01*
X4160449Y-17584860D01*
X4094443Y-17377727D01*
X4011926Y-17157605D01*
X3962400Y-17037050D01*
X3894069Y-16872307D01*
X3836639Y-16727503D01*
X3789311Y-16600032D01*
X3751286Y-16487286D01*
X3721764Y-16386661D01*
X3699945Y-16295549D01*
X3685030Y-16211345D01*
X3676219Y-16131444D01*
X3674083Y-16097250D01*
X3672210Y-16018886D01*
X3674518Y-15954065D01*
X3680790Y-15908267D01*
X3681747Y-15904502D01*
X3708182Y-15846255D01*
X3749663Y-15807503D01*
X3804951Y-15788248D01*
X3872806Y-15788493D01*
X3951989Y-15808241D01*
X4041261Y-15847494D01*
X4135312Y-15903537D01*
X4180082Y-15934489D01*
X4226679Y-15969304D01*
X4277239Y-16009863D01*
X4333892Y-16058044D01*
X4398773Y-16115727D01*
X4474015Y-16184790D01*
X4561750Y-16267113D01*
X4664112Y-16364575D01*
X4725524Y-16423491D01*
X5028187Y-16714450D01*
X5227597Y-16412200D01*
X5293670Y-16312933D01*
X5348929Y-16232116D01*
X5395795Y-16166520D01*
X5436690Y-16112918D01*
X5474038Y-16068079D01*
X5510260Y-16028776D01*
X5530579Y-16008350D01*
X5651797Y-15904041D01*
X5778230Y-15824362D01*
X5911180Y-15768846D01*
X6051949Y-15737025D01*
X6201837Y-15728431D01*
X6294764Y-15734036D01*
X6294764Y-15734036D01*
G37*
X6294764Y-15734036D02*
X6399488Y-15747984D01*
X6483934Y-15766570D01*
X6546907Y-15789344D01*
X6587215Y-15815855D01*
X6603662Y-15845652D01*
X6604000Y-15850814D01*
X6602480Y-15859778D01*
X6597467Y-15875231D01*
X6588275Y-15898644D01*
X6574222Y-15931485D01*
X6554624Y-15975224D01*
X6528797Y-16031332D01*
X6496058Y-16101278D01*
X6455722Y-16186532D01*
X6407107Y-16288564D01*
X6349529Y-16408844D01*
X6282304Y-16548842D01*
X6204748Y-16710027D01*
X6194047Y-16732250D01*
X6127706Y-16871433D01*
X6071203Y-16993563D01*
X6022349Y-17103958D01*
X5978955Y-17207939D01*
X5938833Y-17310823D01*
X5899794Y-17417931D01*
X5859649Y-17534581D01*
X5841337Y-17589500D01*
X5773429Y-17802572D01*
X5715794Y-18001762D01*
X5666602Y-18194839D01*
X5624023Y-18389570D01*
X5586225Y-18593722D01*
X5551378Y-18815064D01*
X5549531Y-18827750D01*
X5525621Y-18982606D01*
X5501833Y-19114163D01*
X5477333Y-19224504D01*
X5451289Y-19315712D01*
X5422864Y-19389870D01*
X5391227Y-19449062D01*
X5355542Y-19495369D01*
X5314975Y-19530876D01*
X5268693Y-19557665D01*
X5254837Y-19563788D01*
X5194418Y-19581612D01*
X5112223Y-19594538D01*
X5011430Y-19602396D01*
X4895220Y-19605017D01*
X4766772Y-19602231D01*
X4654550Y-19595794D01*
X4549924Y-19584776D01*
X4461094Y-19567002D01*
X4387227Y-19540774D01*
X4327487Y-19504396D01*
X4281042Y-19456168D01*
X4247056Y-19394395D01*
X4224696Y-19317378D01*
X4213127Y-19223419D01*
X4211516Y-19110823D01*
X4219028Y-18977889D01*
X4234829Y-18822922D01*
X4242834Y-18757900D01*
X4263488Y-18552571D01*
X4271176Y-18356004D01*
X4265307Y-18164576D01*
X4245290Y-17974659D01*
X4210534Y-17782629D01*
X4160449Y-17584860D01*
X4094443Y-17377727D01*
X4011926Y-17157605D01*
X3962400Y-17037050D01*
X3894069Y-16872307D01*
X3836639Y-16727503D01*
X3789311Y-16600032D01*
X3751286Y-16487286D01*
X3721764Y-16386661D01*
X3699945Y-16295549D01*
X3685030Y-16211345D01*
X3676219Y-16131444D01*
X3674083Y-16097250D01*
X3672210Y-16018886D01*
X3674518Y-15954065D01*
X3680790Y-15908267D01*
X3681747Y-15904502D01*
X3708182Y-15846255D01*
X3749663Y-15807503D01*
X3804951Y-15788248D01*
X3872806Y-15788493D01*
X3951989Y-15808241D01*
X4041261Y-15847494D01*
X4135312Y-15903537D01*
X4180082Y-15934489D01*
X4226679Y-15969304D01*
X4277239Y-16009863D01*
X4333892Y-16058044D01*
X4398773Y-16115727D01*
X4474015Y-16184790D01*
X4561750Y-16267113D01*
X4664112Y-16364575D01*
X4725524Y-16423491D01*
X5028187Y-16714450D01*
X5227597Y-16412200D01*
X5293670Y-16312933D01*
X5348929Y-16232116D01*
X5395795Y-16166520D01*
X5436690Y-16112918D01*
X5474038Y-16068079D01*
X5510260Y-16028776D01*
X5530579Y-16008350D01*
X5651797Y-15904041D01*
X5778230Y-15824362D01*
X5911180Y-15768846D01*
X6051949Y-15737025D01*
X6201837Y-15728431D01*
X6294764Y-15734036D01*
G36*
X26602947Y1704975D02*
G01*
X26601510Y1531640D01*
X26599990Y1381693D01*
X26598331Y1253120D01*
X26596476Y1143911D01*
X26594369Y1052051D01*
X26591954Y975529D01*
X26589175Y912333D01*
X26585975Y860449D01*
X26582299Y817866D01*
X26578089Y782572D01*
X26576955Y774700D01*
X26554948Y652288D01*
X26528667Y553684D01*
X26497310Y477534D01*
X26460079Y422486D01*
X26416174Y387185D01*
X26364793Y370279D01*
X26336748Y368300D01*
X26265293Y360161D01*
X26184167Y337991D01*
X26102199Y305164D01*
X26028221Y265053D01*
X25985554Y234141D01*
X25951855Y200965D01*
X25928164Y163804D01*
X25911595Y116085D01*
X25899266Y51234D01*
X25896435Y31026D01*
X25888387Y-34913D01*
X25880926Y-108180D01*
X25874023Y-189895D01*
X25867646Y-281177D01*
X25861767Y-383146D01*
X25856357Y-496920D01*
X25851385Y-623620D01*
X25846822Y-764365D01*
X25842638Y-920274D01*
X25838804Y-1092466D01*
X25835290Y-1282061D01*
X25832066Y-1490178D01*
X25829103Y-1717937D01*
X25826371Y-1966457D01*
X25823840Y-2236857D01*
X25821481Y-2530256D01*
X25819265Y-2847775D01*
X25818955Y-2895600D01*
X25817216Y-3159992D01*
X25815522Y-3400688D01*
X25813836Y-3619392D01*
X25812119Y-3817808D01*
X25810333Y-3997638D01*
X25808439Y-4160587D01*
X25806398Y-4308359D01*
X25804172Y-4442657D01*
X25801723Y-4565184D01*
X25799013Y-4677646D01*
X25796002Y-4781745D01*
X25792652Y-4879185D01*
X25788925Y-4971670D01*
X25784782Y-5060903D01*
X25780185Y-5148589D01*
X25775096Y-5236431D01*
X25769475Y-5326132D01*
X25763285Y-5419397D01*
X25761313Y-5448300D01*
X25728708Y-5854555D01*
X25688042Y-6237206D01*
X25638979Y-6596846D01*
X25581181Y-6934070D01*
X25514313Y-7249470D01*
X25438038Y-7543639D01*
X25352017Y-7817172D01*
X25255915Y-8070661D01*
X25149394Y-8304700D01*
X25032118Y-8519883D01*
X24903750Y-8716802D01*
X24763952Y-8896052D01*
X24612388Y-9058225D01*
X24448721Y-9203915D01*
X24272614Y-9333716D01*
X24083731Y-9448220D01*
X23881733Y-9548022D01*
X23666285Y-9633715D01*
X23437049Y-9705891D01*
X23327879Y-9734471D01*
X23094675Y-9785041D01*
X22845276Y-9825721D01*
X22578653Y-9856563D01*
X22293779Y-9877622D01*
X21989625Y-9888950D01*
X21665163Y-9890602D01*
X21319365Y-9882632D01*
X20951202Y-9865092D01*
X20891500Y-9861484D01*
X20642646Y-9844582D01*
X20416848Y-9825914D01*
X20211787Y-9804910D01*
X20025147Y-9780998D01*
X19854611Y-9753607D01*
X19697861Y-9722167D01*
X19552580Y-9686106D01*
X19416451Y-9644854D01*
X19287157Y-9597839D01*
X19162382Y-9544491D01*
X19039807Y-9484238D01*
X18917116Y-9416510D01*
X18800872Y-9346309D01*
X18607672Y-9218661D01*
X18432189Y-9087992D01*
X18273361Y-8952495D01*
X18130128Y-8810364D01*
X18001429Y-8659794D01*
X17886204Y-8498977D01*
X17783392Y-8326109D01*
X17691932Y-8139382D01*
X17610764Y-7936992D01*
X17538826Y-7717131D01*
X17475059Y-7477994D01*
X17418401Y-7217775D01*
X17367791Y-6934668D01*
X17361498Y-6895435D01*
X17341907Y-6766982D01*
X17323387Y-6635150D01*
X17305856Y-6498673D01*
X17289229Y-6356281D01*
X17273426Y-6206706D01*
X17258362Y-6048681D01*
X17243955Y-5880937D01*
X17230122Y-5702205D01*
X17216781Y-5511219D01*
X17203848Y-5306708D01*
X17191242Y-5087406D01*
X17178879Y-4852043D01*
X17166676Y-4599352D01*
X17154551Y-4328065D01*
X17142422Y-4036913D01*
X17130204Y-3724628D01*
X17117816Y-3389941D01*
X17105175Y-3031585D01*
X17100515Y-2895600D01*
X17090073Y-2595106D01*
X17079986Y-2318860D01*
X17070155Y-2065711D01*
X17060480Y-1834511D01*
X17050863Y-1624111D01*
X17041205Y-1433362D01*
X17031408Y-1261115D01*
X17021372Y-1106220D01*
X17011000Y-967529D01*
X17000192Y-843893D01*
X16988849Y-734162D01*
X16976872Y-637188D01*
X16964164Y-551821D01*
X16950625Y-476912D01*
X16936156Y-411314D01*
X16920659Y-353875D01*
X16904035Y-303448D01*
X16886185Y-258883D01*
X16871158Y-227079D01*
X16824778Y-158746D01*
X16763931Y-110620D01*
X16696480Y-83169D01*
X16668175Y-76788D01*
X16622245Y-68282D01*
X16563132Y-58306D01*
X16495278Y-47510D01*
X16423125Y-36546D01*
X16351116Y-26067D01*
X16283693Y-16725D01*
X16225298Y-9171D01*
X16180373Y-4058D01*
X16153360Y-2037D01*
X16147578Y-2600D01*
X16147177Y-15426D01*
X16146520Y-52784D01*
X16145617Y-113809D01*
X16144478Y-197632D01*
X16143113Y-303390D01*
X16141532Y-430214D01*
X16139744Y-577239D01*
X16137760Y-743599D01*
X16135589Y-928426D01*
X16133242Y-1130856D01*
X16130727Y-1350021D01*
X16128055Y-1585055D01*
X16125236Y-1835092D01*
X16122279Y-2099266D01*
X16119195Y-2376709D01*
X16115994Y-2666557D01*
X16112684Y-2967942D01*
X16109276Y-3279999D01*
X16105780Y-3601861D01*
X16102206Y-3932661D01*
X16098564Y-4271534D01*
X16094862Y-4617613D01*
X16091775Y-4907687D01*
X16088035Y-5259043D01*
X16084349Y-5603901D01*
X16080727Y-5941397D01*
X16077179Y-6270663D01*
X16073714Y-6590834D01*
X16070343Y-6901043D01*
X16067074Y-7200425D01*
X16063918Y-7488114D01*
X16060884Y-7763243D01*
X16057982Y-8024946D01*
X16055222Y-8272358D01*
X16052614Y-8504612D01*
X16050166Y-8720843D01*
X16047890Y-8920184D01*
X16045794Y-9101769D01*
X16043888Y-9264732D01*
X16042183Y-9408207D01*
X16040687Y-9531328D01*
X16039411Y-9633229D01*
X16038364Y-9713044D01*
X16037556Y-9769907D01*
X16036996Y-9802952D01*
X16036729Y-9811669D01*
X16023077Y-9813318D01*
X15986548Y-9815749D01*
X15929650Y-9818866D01*
X15854890Y-9822568D01*
X15764777Y-9826755D01*
X15661817Y-9831329D01*
X15548519Y-9836190D01*
X15427391Y-9841239D01*
X15300939Y-9846377D01*
X15171671Y-9851503D01*
X15042096Y-9856520D01*
X14914722Y-9861327D01*
X14792054Y-9865825D01*
X14676603Y-9869914D01*
X14570874Y-9873497D01*
X14477376Y-9876472D01*
X14398617Y-9878741D01*
X14337104Y-9880205D01*
X14295345Y-9880763D01*
X14292519Y-9880765D01*
X14093799Y-9877235D01*
X13914438Y-9867065D01*
X13755282Y-9850408D01*
X13617180Y-9827415D01*
X13500980Y-9798241D01*
X13407529Y-9763037D01*
X13337675Y-9721956D01*
X13317937Y-9705256D01*
X13296623Y-9680110D01*
X13266204Y-9636343D01*
X13226547Y-9573708D01*
X13177517Y-9491955D01*
X13118980Y-9390837D01*
X13050802Y-9270105D01*
X12972850Y-9129510D01*
X12884988Y-8968803D01*
X12787084Y-8787737D01*
X12679003Y-8586062D01*
X12560611Y-8363531D01*
X12431774Y-8119894D01*
X12292358Y-7854903D01*
X12142229Y-7568309D01*
X11981253Y-7259864D01*
X11809295Y-6929319D01*
X11626223Y-6576426D01*
X11518848Y-6369050D01*
X11440417Y-6217575D01*
X11361547Y-6065438D01*
X11283575Y-5915210D01*
X11207840Y-5769459D01*
X11135679Y-5630755D01*
X11068430Y-5501670D01*
X11007432Y-5384772D01*
X10954022Y-5282631D01*
X10909539Y-5197819D01*
X10875319Y-5132904D01*
X10874205Y-5130800D01*
X10736638Y-4872607D01*
X10609083Y-4636636D01*
X10490979Y-4422011D01*
X10381767Y-4227858D01*
X10280885Y-4053302D01*
X10187772Y-3897470D01*
X10101867Y-3759487D01*
X10022611Y-3638479D01*
X9949442Y-3533571D01*
X9881800Y-3443890D01*
X9819123Y-3368561D01*
X9760851Y-3306710D01*
X9706424Y-3257462D01*
X9655281Y-3219943D01*
X9644287Y-3213100D01*
X9599257Y-3188053D01*
X9562460Y-3174687D01*
X9521708Y-3169582D01*
X9487394Y-3169072D01*
X9401456Y-3175684D01*
X9327686Y-3195610D01*
X9265006Y-3230401D01*
X9212341Y-3281606D01*
X9168615Y-3350773D01*
X9132751Y-3439453D01*
X9103672Y-3549194D01*
X9080303Y-3681546D01*
X9068639Y-3771900D01*
X9058940Y-3869106D01*
X9049486Y-3988723D01*
X9040368Y-4127764D01*
X9031677Y-4283241D01*
X9023504Y-4452164D01*
X9015938Y-4631546D01*
X9009070Y-4818399D01*
X9002992Y-5009736D01*
X8997793Y-5202566D01*
X8993563Y-5393904D01*
X8990394Y-5580760D01*
X8988376Y-5760147D01*
X8987599Y-5929075D01*
X8988154Y-6084558D01*
X8990132Y-6223608D01*
X8992079Y-6299200D01*
X9001083Y-6511372D01*
X9014380Y-6700253D01*
X9032387Y-6867654D01*
X9055524Y-7015388D01*
X9084209Y-7145266D01*
X9118860Y-7259100D01*
X9159894Y-7358700D01*
X9207730Y-7445880D01*
X9262787Y-7522450D01*
X9278804Y-7541380D01*
X9335097Y-7598197D01*
X9401530Y-7650182D01*
X9482164Y-7699940D01*
X9581057Y-7750074D01*
X9657276Y-7784193D01*
X9723552Y-7813844D01*
X9787028Y-7844264D01*
X9841198Y-7872203D01*
X9879556Y-7894412D01*
X9884412Y-7897642D01*
X9952492Y-7955928D01*
X10007826Y-8029406D01*
X10051895Y-8120743D01*
X10086177Y-8232601D01*
X10096815Y-8280400D01*
X10100471Y-8309995D01*
X10104205Y-8361362D01*
X10107863Y-8430873D01*
X10111288Y-8514901D01*
X10114324Y-8609819D01*
X10116818Y-8712000D01*
X10117964Y-8773772D01*
X10119852Y-8954856D01*
X10119045Y-9113030D01*
X10115313Y-9250666D01*
X10108426Y-9370134D01*
X10098152Y-9473807D01*
X10084262Y-9564053D01*
X10066524Y-9643245D01*
X10044709Y-9713754D01*
X10020820Y-9773035D01*
X9979978Y-9850335D01*
X9933158Y-9910106D01*
X9876552Y-9954692D01*
X9806355Y-9986439D01*
X9718763Y-10007692D01*
X9620250Y-10019933D01*
X9535501Y-10025779D01*
X9427296Y-10030719D01*
X9297559Y-10034758D01*
X9148216Y-10037906D01*
X8981194Y-10040170D01*
X8798418Y-10041558D01*
X8601814Y-10042077D01*
X8393309Y-10041735D01*
X8174829Y-10040540D01*
X7948299Y-10038500D01*
X7715645Y-10035622D01*
X7478794Y-10031915D01*
X7239671Y-10027385D01*
X7000202Y-10022041D01*
X6762314Y-10015890D01*
X6527932Y-10008940D01*
X6477000Y-10007304D01*
X6366327Y-10003642D01*
X6239000Y-9999331D01*
X6096576Y-9994430D01*
X5940614Y-9988996D01*
X5772671Y-9983086D01*
X5594307Y-9976758D01*
X5407079Y-9970071D01*
X5212546Y-9963081D01*
X5012266Y-9955846D01*
X4807797Y-9948424D01*
X4600698Y-9940872D01*
X4392527Y-9933249D01*
X4184842Y-9925612D01*
X3979202Y-9918018D01*
X3777164Y-9910526D01*
X3580287Y-9903192D01*
X3390130Y-9896075D01*
X3208250Y-9889232D01*
X3036207Y-9882721D01*
X2875557Y-9876599D01*
X2727860Y-9870925D01*
X2594674Y-9865755D01*
X2477557Y-9861148D01*
X2378067Y-9857161D01*
X2297763Y-9853852D01*
X2238202Y-9851279D01*
X2200944Y-9849498D01*
X2187575Y-9848580D01*
X2181951Y-9834288D01*
X2177534Y-9797448D01*
X2174266Y-9740884D01*
X2172091Y-9667416D01*
X2170951Y-9579867D01*
X2170790Y-9481058D01*
X2171550Y-9373810D01*
X2173175Y-9260947D01*
X2175608Y-9145288D01*
X2178792Y-9029657D01*
X2182670Y-8916875D01*
X2187185Y-8809764D01*
X2192280Y-8711145D01*
X2197898Y-8623839D01*
X2203983Y-8550670D01*
X2210478Y-8494459D01*
X2215465Y-8465662D01*
X2245061Y-8360205D01*
X2285770Y-8268917D01*
X2340259Y-8188745D01*
X2411198Y-8116633D01*
X2501252Y-8049526D01*
X2613092Y-7984372D01*
X2654300Y-7963244D01*
X2817374Y-7871740D01*
X2956635Y-7771839D01*
X3072314Y-7663331D01*
X3164641Y-7546009D01*
X3219373Y-7450737D01*
X3261553Y-7358131D01*
X3289963Y-7277008D01*
X3306479Y-7198840D01*
X3312973Y-7115099D01*
X3311873Y-7029691D01*
X3296937Y-6890721D01*
X3263154Y-6765849D01*
X3208742Y-6651004D01*
X3131919Y-6542118D01*
X3067050Y-6470499D01*
X2977170Y-6388880D01*
X2878328Y-6318776D01*
X2766966Y-6258401D01*
X2639530Y-6205972D01*
X2492464Y-6159703D01*
X2400300Y-6135841D01*
X2235460Y-6099652D01*
X2067900Y-6070786D01*
X1893362Y-6048818D01*
X1707590Y-6033323D01*
X1506325Y-6023878D01*
X1285312Y-6020057D01*
X1237114Y-6019931D01*
X957408Y-6024954D01*
X695941Y-6040148D01*
X453573Y-6065369D01*
X231164Y-6100475D01*
X29573Y-6145322D01*
X-150341Y-6199767D01*
X-307716Y-6263667D01*
X-349250Y-6284066D01*
X-422056Y-6329995D01*
X-498011Y-6392624D01*
X-570239Y-6465314D01*
X-631865Y-6541427D01*
X-659426Y-6583485D01*
X-725142Y-6716992D01*
X-769243Y-6856356D01*
X-792432Y-6998931D01*
X-795413Y-7142070D01*
X-778887Y-7283127D01*
X-743558Y-7419456D01*
X-690128Y-7548410D01*
X-619299Y-7667343D01*
X-531775Y-7773608D01*
X-428258Y-7864560D01*
X-309451Y-7937551D01*
X-298450Y-7942948D01*
X-239972Y-7970825D01*
X-173147Y-8002300D01*
X-114300Y-8029698D01*
X-11535Y-8087937D01*
X70242Y-8159026D01*
X132935Y-8245288D01*
X178446Y-8349046D01*
X195154Y-8407400D01*
X209241Y-8482120D01*
X220617Y-8577380D01*
X229215Y-8688456D01*
X234971Y-8810626D01*
X237817Y-8939165D01*
X237686Y-9069351D01*
X234514Y-9196462D01*
X228233Y-9315774D01*
X218778Y-9422564D01*
X210303Y-9486900D01*
X183572Y-9623829D01*
X149178Y-9737672D01*
X106425Y-9829766D01*
X54615Y-9901450D01*
X-6949Y-9954065D01*
X-43778Y-9974679D01*
X-93326Y-9992363D01*
X-163499Y-10008012D01*
X-254936Y-10021676D01*
X-368275Y-10033407D01*
X-504153Y-10043256D01*
X-663208Y-10051276D01*
X-846080Y-10057518D01*
X-1053405Y-10062032D01*
X-1143000Y-10063361D01*
X-1268496Y-10064454D01*
X-1407122Y-10064720D01*
X-1551222Y-10064208D01*
X-1693140Y-10062964D01*
X-1825222Y-10061038D01*
X-1939811Y-10058476D01*
X-1943100Y-10058384D01*
X-2086727Y-10054642D01*
X-2255260Y-10050790D01*
X-2448205Y-10046835D01*
X-2665070Y-10042782D01*
X-2905360Y-10038636D01*
X-3168583Y-10034405D01*
X-3454243Y-10030092D01*
X-3761850Y-10025705D01*
X-4090907Y-10021248D01*
X-4440923Y-10016728D01*
X-4811403Y-10012150D01*
X-5201854Y-10007520D01*
X-5611782Y-10002844D01*
X-6040695Y-9998128D01*
X-6488097Y-9993377D01*
X-6953497Y-9988596D01*
X-7436400Y-9983793D01*
X-7936313Y-9978972D01*
X-8452742Y-9974140D01*
X-8985194Y-9969301D01*
X-9533175Y-9964462D01*
X-10096192Y-9959629D01*
X-10673751Y-9954807D01*
X-11214100Y-9950413D01*
X-11485560Y-9948228D01*
X-11766266Y-9945961D01*
X-12053700Y-9943631D01*
X-12345349Y-9941259D01*
X-12638695Y-9938867D01*
X-12931224Y-9936474D01*
X-13220419Y-9934102D01*
X-13503764Y-9931770D01*
X-13778745Y-9929501D01*
X-14042845Y-9927314D01*
X-14293548Y-9925230D01*
X-14528339Y-9923271D01*
X-14744702Y-9921455D01*
X-14940121Y-9919805D01*
X-15074900Y-9918659D01*
X-15269606Y-9917006D01*
X-15459168Y-9915417D01*
X-15641810Y-9913904D01*
X-15815757Y-9912482D01*
X-15979236Y-9911164D01*
X-16130471Y-9909965D01*
X-16267687Y-9908898D01*
X-16389109Y-9907977D01*
X-16492963Y-9907216D01*
X-16577474Y-9906629D01*
X-16640866Y-9906230D01*
X-16681365Y-9906033D01*
X-16690975Y-9906013D01*
X-16827500Y-9906000D01*
X-16827083Y-9451975D01*
X-16826050Y-9233913D01*
X-16823226Y-9039200D01*
X-16818390Y-8865835D01*
X-16811318Y-8711815D01*
X-16801790Y-8575137D01*
X-16789582Y-8453801D01*
X-16774473Y-8345804D01*
X-16756240Y-8249143D01*
X-16734662Y-8161817D01*
X-16709516Y-8081823D01*
X-16680580Y-8007160D01*
X-16662215Y-7966025D01*
X-16622851Y-7891873D01*
X-16577880Y-7830104D01*
X-16532553Y-7781734D01*
X-16437687Y-7678292D01*
X-16360413Y-7573099D01*
X-16301916Y-7468595D01*
X-16263381Y-7367220D01*
X-16245993Y-7271412D01*
X-16248576Y-7197167D01*
X-16263480Y-7140555D01*
X-16293424Y-7065700D01*
X-16337443Y-6974081D01*
X-16394569Y-6867177D01*
X-16463837Y-6746468D01*
X-16544280Y-6613431D01*
X-16634932Y-6469547D01*
X-16734827Y-6316294D01*
X-16842999Y-6155150D01*
X-16958481Y-5987596D01*
X-17080307Y-5815110D01*
X-17207511Y-5639171D01*
X-17339127Y-5461258D01*
X-17474188Y-5282851D01*
X-17611729Y-5105427D01*
X-17631719Y-5080000D01*
X-17725177Y-4962010D01*
X-17812664Y-4853156D01*
X-17896886Y-4750298D01*
X-17980552Y-4650300D01*
X-18066367Y-4550024D01*
X-18157039Y-4446332D01*
X-18255274Y-4336087D01*
X-18363780Y-4216151D01*
X-18485262Y-4083388D01*
X-18583692Y-3976569D01*
X-18834934Y-3704538D01*
X-18415053Y-3282956D01*
X-15461684Y-3282956D01*
X-15457992Y-3331376D01*
X-15442642Y-3385904D01*
X-15415245Y-3451871D01*
X-15376832Y-3531754D01*
X-15305571Y-3666155D01*
X-15216900Y-3817611D01*
X-15111436Y-3985287D01*
X-14989797Y-4168345D01*
X-14852601Y-4365948D01*
X-14700465Y-4577260D01*
X-14534008Y-4801444D01*
X-14353846Y-5037663D01*
X-14160598Y-5285080D01*
X-13954882Y-5542858D01*
X-13737315Y-5810161D01*
X-13508515Y-6086151D01*
X-13366790Y-6254750D01*
X-13167601Y-6488185D01*
X-12982298Y-6700511D01*
X-12810790Y-6891822D01*
X-12652984Y-7062216D01*
X-12508787Y-7211790D01*
X-12378108Y-7340641D01*
X-12260854Y-7448865D01*
X-12156934Y-7536558D01*
X-12110063Y-7572649D01*
X-12009734Y-7642008D01*
X-11920531Y-7691795D01*
X-11838708Y-7723029D01*
X-11760518Y-7736729D01*
X-11682216Y-7733913D01*
X-11600054Y-7715600D01*
X-11592719Y-7713345D01*
X-11553574Y-7697482D01*
X-11518017Y-7674790D01*
X-11485841Y-7644055D01*
X-11456836Y-7604060D01*
X-11430792Y-7553592D01*
X-11407501Y-7491435D01*
X-11386751Y-7416372D01*
X-11368335Y-7327190D01*
X-11352043Y-7222672D01*
X-11337666Y-7101604D01*
X-11324993Y-6962770D01*
X-11313816Y-6804955D01*
X-11303925Y-6626944D01*
X-11295110Y-6427521D01*
X-11287164Y-6205471D01*
X-11279875Y-5959579D01*
X-11277927Y-5886450D01*
X-11272782Y-5677777D01*
X-11267907Y-5457818D01*
X-11263310Y-5228112D01*
X-11259001Y-4990202D01*
X-11254988Y-4745630D01*
X-11251279Y-4495937D01*
X-11247884Y-4242664D01*
X-11244811Y-3987354D01*
X-11242068Y-3731548D01*
X-11239665Y-3476787D01*
X-11237611Y-3224614D01*
X-11235913Y-2976569D01*
X-11234580Y-2734195D01*
X-11233622Y-2499033D01*
X-11233047Y-2272625D01*
X-11232863Y-2056512D01*
X-11233080Y-1852236D01*
X-11233706Y-1661338D01*
X-11234749Y-1485361D01*
X-11236219Y-1325846D01*
X-11238124Y-1184334D01*
X-11240472Y-1062367D01*
X-11243273Y-961488D01*
X-11246536Y-883236D01*
X-11249464Y-838200D01*
X-11264368Y-679344D01*
X-11281362Y-543645D01*
X-11301427Y-428882D01*
X-11325541Y-332834D01*
X-11354684Y-253283D01*
X-11389836Y-188008D01*
X-11431977Y-134789D01*
X-11482086Y-91407D01*
X-11541143Y-55640D01*
X-11607807Y-26162D01*
X-11774977Y25798D01*
X-11948732Y54826D01*
X-12132197Y61439D01*
X-12135555Y61357D01*
X-12204173Y59326D01*
X-12253765Y56490D01*
X-12290700Y51627D01*
X-12321347Y43516D01*
X-12352078Y30933D01*
X-12389176Y12700D01*
X-12488391Y-43642D01*
X-12601377Y-118658D01*
X-12726599Y-210751D01*
X-12862520Y-318325D01*
X-13007604Y-439785D01*
X-13160313Y-573536D01*
X-13319113Y-717981D01*
X-13482465Y-871526D01*
X-13648834Y-1032573D01*
X-13816683Y-1199529D01*
X-13984476Y-1370796D01*
X-14150677Y-1544780D01*
X-14313748Y-1719885D01*
X-14472153Y-1894514D01*
X-14624357Y-2067074D01*
X-14768822Y-2235967D01*
X-14904012Y-2399598D01*
X-15028390Y-2556372D01*
X-15140421Y-2704692D01*
X-15238567Y-2842964D01*
X-15321292Y-2969592D01*
X-15387060Y-3082979D01*
X-15406684Y-3121047D01*
X-15435643Y-3183121D01*
X-15454106Y-3235314D01*
X-15461684Y-3282956D01*
X-18415053Y-3282956D01*
X-17948280Y-2814294D01*
X-17818441Y-2683794D01*
X-17690086Y-2554527D01*
X-17564821Y-2428125D01*
X-17444255Y-2306223D01*
X-17329994Y-2190450D01*
X-17223645Y-2082441D01*
X-17126815Y-1983828D01*
X-17041110Y-1896244D01*
X-16968139Y-1821320D01*
X-16909507Y-1760690D01*
X-16866821Y-1715986D01*
X-16858838Y-1707498D01*
X-16693193Y-1528936D01*
X-16540394Y-1360805D01*
X-16401146Y-1203952D01*
X-16276154Y-1059221D01*
X-16166121Y-927460D01*
X-16071752Y-809513D01*
X-15993753Y-706228D01*
X-15932827Y-618448D01*
X-15889679Y-547022D01*
X-15885078Y-538339D01*
X-15844802Y-460729D01*
X-15867886Y-400285D01*
X-15912927Y-315740D01*
X-15983113Y-231852D01*
X-16078191Y-148837D01*
X-16197909Y-66913D01*
X-16342016Y13702D01*
X-16356007Y20803D01*
X-16429671Y58834D01*
X-16486018Y90673D01*
X-16531004Y120309D01*
X-16570582Y151732D01*
X-16610706Y188930D01*
X-16618751Y196849D01*
X-16668427Y250091D01*
X-16706147Y301693D01*
X-16735146Y358148D01*
X-16758661Y425952D01*
X-16779927Y511601D01*
X-16783264Y527050D01*
X-16791808Y581153D01*
X-16799621Y658640D01*
X-16806624Y757507D01*
X-16812738Y875746D01*
X-16817886Y1011352D01*
X-16821987Y1162319D01*
X-16824964Y1326639D01*
X-16826737Y1502306D01*
X-16827236Y1647825D01*
X-16827500Y2108200D01*
X-2849251Y2108200D01*
X-2853892Y1971675D01*
X-2854756Y1943381D01*
X-2856242Y1891206D01*
X-2858309Y1816664D01*
X-2860918Y1721266D01*
X-2864029Y1606523D01*
X-2867599Y1473947D01*
X-2871590Y1325051D01*
X-2875961Y1161345D01*
X-2880671Y984341D01*
X-2885681Y795552D01*
X-2890948Y596489D01*
X-2896434Y388663D01*
X-2902098Y173587D01*
X-2907898Y-47228D01*
X-2909139Y-94513D01*
X-2914921Y-313829D01*
X-2920582Y-526182D01*
X-2926080Y-730188D01*
X-2931377Y-924463D01*
X-2936432Y-1107623D01*
X-2941205Y-1278287D01*
X-2945658Y-1435069D01*
X-2949749Y-1576586D01*
X-2953441Y-1701456D01*
X-2956691Y-1808295D01*
X-2959462Y-1895719D01*
X-2961713Y-1962344D01*
X-2963405Y-2006788D01*
X-2964497Y-2027667D01*
X-2964713Y-2029146D01*
X-2978251Y-2029996D01*
X-3014336Y-2029964D01*
X-3070132Y-2029136D01*
X-3142805Y-2027598D01*
X-3229520Y-2025435D01*
X-3327442Y-2022735D01*
X-3433736Y-2019583D01*
X-3545567Y-2016065D01*
X-3660101Y-2012268D01*
X-3774501Y-2008276D01*
X-3885934Y-2004176D01*
X-3991565Y-2000054D01*
X-4088558Y-1995997D01*
X-4152900Y-1993096D01*
X-4425950Y-1980311D01*
X-4461264Y-1945198D01*
X-4496728Y-1896367D01*
X-4527450Y-1824886D01*
X-4553516Y-1730322D01*
X-4575012Y-1612244D01*
X-4592027Y-1470218D01*
X-4604646Y-1303812D01*
X-4609542Y-1206500D01*
X-4618308Y-1049376D01*
X-4630772Y-913215D01*
X-4647853Y-793734D01*
X-4670474Y-686647D01*
X-4699555Y-587669D01*
X-4736018Y-492517D01*
X-4780783Y-396905D01*
X-4785651Y-387350D01*
X-4848947Y-283031D01*
X-4926100Y-191303D01*
X-5018588Y-111388D01*
X-5127888Y-42507D01*
X-5255479Y16118D01*
X-5402837Y65264D01*
X-5571441Y105711D01*
X-5762769Y138236D01*
X-5791200Y142167D01*
X-5863395Y149279D01*
X-5955397Y154345D01*
X-6061700Y157409D01*
X-6176798Y158515D01*
X-6295184Y157705D01*
X-6411351Y155021D01*
X-6519793Y150509D01*
X-6615003Y144209D01*
X-6691476Y136166D01*
X-6699250Y135068D01*
X-6871992Y106647D01*
X-7024778Y74337D01*
X-7162944Y36616D01*
X-7291822Y-8038D01*
X-7416748Y-61147D01*
X-7461250Y-82370D01*
X-7574730Y-143718D01*
X-7665781Y-207155D01*
X-7737321Y-276403D01*
X-7792268Y-355183D01*
X-7833542Y-447218D01*
X-7864060Y-556229D01*
X-7874666Y-609600D01*
X-7880427Y-655587D01*
X-7885440Y-722482D01*
X-7889642Y-805802D01*
X-7892968Y-901063D01*
X-7895354Y-1003782D01*
X-7896738Y-1109476D01*
X-7897054Y-1213663D01*
X-7896238Y-1311858D01*
X-7894227Y-1399578D01*
X-7890957Y-1472342D01*
X-7887585Y-1514926D01*
X-7859012Y-1717870D01*
X-7817310Y-1900163D01*
X-7762010Y-2063175D01*
X-7692642Y-2208277D01*
X-7608737Y-2336839D01*
X-7603927Y-2343150D01*
X-7511393Y-2446942D01*
X-7405333Y-2533318D01*
X-7280869Y-2606203D01*
X-7270750Y-2611190D01*
X-7193291Y-2646469D01*
X-7119787Y-2673929D01*
X-7044689Y-2694781D01*
X-6962448Y-2710234D01*
X-6867512Y-2721502D01*
X-6754334Y-2729794D01*
X-6718300Y-2731765D01*
X-6609858Y-2737892D01*
X-6523517Y-2744204D01*
X-6455980Y-2751250D01*
X-6403949Y-2759579D01*
X-6364129Y-2769738D01*
X-6333222Y-2782278D01*
X-6307932Y-2797746D01*
X-6303920Y-2800732D01*
X-6280525Y-2820351D01*
X-6259786Y-2842449D01*
X-6241546Y-2868585D01*
X-6225645Y-2900314D01*
X-6211926Y-2939195D01*
X-6200231Y-2986785D01*
X-6190401Y-3044640D01*
X-6182279Y-3114318D01*
X-6175705Y-3197375D01*
X-6170523Y-3295370D01*
X-6166573Y-3409858D01*
X-6163698Y-3542398D01*
X-6161739Y-3694545D01*
X-6160539Y-3867859D01*
X-6159938Y-4063894D01*
X-6159789Y-4219575D01*
X-6159500Y-5067300D01*
X-6588125Y-5067374D01*
X-6733596Y-5067915D01*
X-6856830Y-5069645D01*
X-6960973Y-5072812D01*
X-7049171Y-5077661D01*
X-7124571Y-5084440D01*
X-7190318Y-5093396D01*
X-7249558Y-5104773D01*
X-7305437Y-5118820D01*
X-7327900Y-5125346D01*
X-7453485Y-5174802D01*
X-7562240Y-5242758D01*
X-7654530Y-5329617D01*
X-7730719Y-5435781D01*
X-7791169Y-5561654D01*
X-7829463Y-5680671D01*
X-7845874Y-5746186D01*
X-7859262Y-5808091D01*
X-7869917Y-5869960D01*
X-7878130Y-5935365D01*
X-7884192Y-6007879D01*
X-7888394Y-6091077D01*
X-7891027Y-6188531D01*
X-7892381Y-6303814D01*
X-7892747Y-6440500D01*
X-7892739Y-6457950D01*
X-7892458Y-6581015D01*
X-7891716Y-6682047D01*
X-7890370Y-6764407D01*
X-7888277Y-6831459D01*
X-7885296Y-6886566D01*
X-7881283Y-6933092D01*
X-7876096Y-6974400D01*
X-7869592Y-7013853D01*
X-7869063Y-7016750D01*
X-7835200Y-7164740D01*
X-7790957Y-7291461D01*
X-7734469Y-7398714D01*
X-7663872Y-7488300D01*
X-7577303Y-7562023D01*
X-7472896Y-7621684D01*
X-7348788Y-7669086D01*
X-7203114Y-7706030D01*
X-7144482Y-7717215D01*
X-7064645Y-7727820D01*
X-6960090Y-7735845D01*
X-6831367Y-7741292D01*
X-6679028Y-7744160D01*
X-6503623Y-7744449D01*
X-6305703Y-7742161D01*
X-6085818Y-7737296D01*
X-5844519Y-7729854D01*
X-5582356Y-7719835D01*
X-5492750Y-7716024D01*
X-5355800Y-7709993D01*
X-5226291Y-7704155D01*
X-5106470Y-7698620D01*
X-4998583Y-7693499D01*
X-4904875Y-7688901D01*
X-4827593Y-7684937D01*
X-4768983Y-7681717D01*
X-4731290Y-7679351D01*
X-4716794Y-7677962D01*
X-4710142Y-7663424D01*
X-4703776Y-7626472D01*
X-4698101Y-7570091D01*
X-4694166Y-7510009D01*
X-4682004Y-7284503D01*
X-4670694Y-7082730D01*
X-4660041Y-6903042D01*
X-4649850Y-6743793D01*
X-4639928Y-6603338D01*
X-4630077Y-6480029D01*
X-4620105Y-6372222D01*
X-4609816Y-6278268D01*
X-4599014Y-6196523D01*
X-4587505Y-6125340D01*
X-4575095Y-6063072D01*
X-4561588Y-6008073D01*
X-4546789Y-5958697D01*
X-4530504Y-5913297D01*
X-4512538Y-5870228D01*
X-4495771Y-5834165D01*
X-4441638Y-5741521D01*
X-4375568Y-5665383D01*
X-4294586Y-5603555D01*
X-4195716Y-5553836D01*
X-4075981Y-5514027D01*
X-4055044Y-5508521D01*
X-4023296Y-5500752D01*
X-3993415Y-5494552D01*
X-3962141Y-5489754D01*
X-3926212Y-5486193D01*
X-3882365Y-5483704D01*
X-3827340Y-5482122D01*
X-3757874Y-5481282D01*
X-3670706Y-5481016D01*
X-3562575Y-5481162D01*
X-3517900Y-5481283D01*
X-3357350Y-5482470D01*
X-3211089Y-5485262D01*
X-3070797Y-5489988D01*
X-2928155Y-5496976D01*
X-2774845Y-5506553D01*
X-2648395Y-5515594D01*
X-2544918Y-5523142D01*
X-2449685Y-5529783D01*
X-2365604Y-5535337D01*
X-2295586Y-5539625D01*
X-2242538Y-5542467D01*
X-2209371Y-5543685D01*
X-2198949Y-5543282D01*
X-2194551Y-5530528D01*
X-2183372Y-5495028D01*
X-2165891Y-5438374D01*
X-2142586Y-5362161D01*
X-2113934Y-5267982D01*
X-2080414Y-5157431D01*
X-2042503Y-5032102D01*
X-2000680Y-4893588D01*
X-1955423Y-4743484D01*
X-1907209Y-4583383D01*
X-1856517Y-4414879D01*
X-1803824Y-4239565D01*
X-1749610Y-4059036D01*
X-1694350Y-3874885D01*
X-1638525Y-3688707D01*
X-1592221Y-3534165D01*
X243516Y-3534165D01*
X246337Y-3609943D01*
X255339Y-3674894D01*
X270416Y-3730962D01*
X291464Y-3780091D01*
X305202Y-3804301D01*
X356419Y-3870513D01*
X428000Y-3939178D01*
X515497Y-4007323D01*
X614461Y-4071975D01*
X720441Y-4130162D01*
X828990Y-4178912D01*
X908050Y-4207068D01*
X1093346Y-4253238D01*
X1276332Y-4274722D01*
X1459555Y-4271766D01*
X1517650Y-4265821D01*
X1694326Y-4233116D01*
X1859279Y-4180195D01*
X2010707Y-4107963D01*
X2146807Y-4017322D01*
X2265778Y-3909175D01*
X2296122Y-3875478D01*
X2366003Y-3791187D01*
X2419002Y-3718589D01*
X2457283Y-3652569D01*
X2483012Y-3588018D01*
X2498353Y-3519821D01*
X2505471Y-3442869D01*
X2506719Y-3378200D01*
X2505721Y-3320486D01*
X2502586Y-3261573D01*
X2496886Y-3199142D01*
X2488193Y-3130877D01*
X2476080Y-3054458D01*
X2460119Y-2967569D01*
X2439881Y-2867891D01*
X2414939Y-2753107D01*
X2384866Y-2620899D01*
X2349232Y-2468948D01*
X2307611Y-2294938D01*
X2303926Y-2279650D01*
X2243845Y-2033488D01*
X2187926Y-1811094D01*
X2135711Y-1611262D01*
X2086743Y-1432782D01*
X2040564Y-1274447D01*
X1996715Y-1135049D01*
X1954740Y-1013380D01*
X1914180Y-908233D01*
X1874578Y-818399D01*
X1835477Y-742671D01*
X1796417Y-679840D01*
X1756942Y-628700D01*
X1737569Y-609177D01*
X4527425Y-609177D01*
X4528458Y-708153D01*
X4531569Y-807636D01*
X4536716Y-902668D01*
X4543856Y-988291D01*
X4551131Y-1047750D01*
X4579676Y-1221695D01*
X4617245Y-1417677D01*
X4663471Y-1634129D01*
X4717988Y-1869487D01*
X4780429Y-2122186D01*
X4850428Y-2390662D01*
X4927619Y-2673349D01*
X4952563Y-2762250D01*
X5029277Y-3034316D01*
X5099296Y-3283359D01*
X5162989Y-3510755D01*
X5220723Y-3717878D01*
X5272867Y-3906104D01*
X5319790Y-4076808D01*
X5361860Y-4231365D01*
X5399444Y-4371151D01*
X5432912Y-4497540D01*
X5462631Y-4611908D01*
X5488970Y-4715631D01*
X5512296Y-4810083D01*
X5532980Y-4896639D01*
X5551387Y-4976676D01*
X5567888Y-5051568D01*
X5576627Y-5092700D01*
X5621578Y-5298600D01*
X5670589Y-5507488D01*
X5722901Y-5716862D01*
X5777751Y-5924217D01*
X5834381Y-6127053D01*
X5892028Y-6322866D01*
X5949932Y-6509153D01*
X6007333Y-6683412D01*
X6063470Y-6843140D01*
X6117582Y-6985834D01*
X6168908Y-7108993D01*
X6216688Y-7210112D01*
X6225129Y-7226300D01*
X6287046Y-7325497D01*
X6357658Y-7403387D01*
X6441163Y-7463662D01*
X6541758Y-7510012D01*
X6551846Y-7513645D01*
X6617266Y-7531263D01*
X6688177Y-7541435D01*
X6757052Y-7543857D01*
X6816365Y-7538222D01*
X6855455Y-7525956D01*
X6879106Y-7511734D01*
X6901460Y-7493882D01*
X6922564Y-7471667D01*
X6942465Y-7444357D01*
X6961210Y-7411219D01*
X6978846Y-7371522D01*
X6995420Y-7324533D01*
X7010980Y-7269520D01*
X7025571Y-7205749D01*
X7039242Y-7132490D01*
X7052038Y-7049009D01*
X7064008Y-6954574D01*
X7075198Y-6848453D01*
X7085655Y-6729913D01*
X7095426Y-6598223D01*
X7104558Y-6452649D01*
X7113098Y-6292460D01*
X7121093Y-6116923D01*
X7128591Y-5925305D01*
X7135637Y-5716875D01*
X7142279Y-5490900D01*
X7148565Y-5246647D01*
X7154541Y-4983385D01*
X7160253Y-4700381D01*
X7165750Y-4396902D01*
X7171078Y-4072217D01*
X7176284Y-3725592D01*
X7181415Y-3356296D01*
X7186517Y-2963596D01*
X7191640Y-2546760D01*
X7195394Y-2228850D01*
X7197129Y-2023298D01*
X7197560Y-1821377D01*
X7196739Y-1625571D01*
X7194719Y-1438360D01*
X7191551Y-1262228D01*
X7187288Y-1099657D01*
X7181982Y-953128D01*
X7175684Y-825123D01*
X7168446Y-718126D01*
X7162316Y-652071D01*
X7140027Y-497464D01*
X7109273Y-366701D01*
X7070014Y-259665D01*
X7022213Y-176240D01*
X6993644Y-141812D01*
X6962372Y-114477D01*
X6917731Y-82022D01*
X6868878Y-51060D01*
X6864350Y-48436D01*
X6753769Y15958D01*
X6661789Y71846D01*
X6584312Y122113D01*
X6517238Y169649D01*
X6456466Y217339D01*
X6397899Y268071D01*
X6345426Y317046D01*
X6297668Y365156D01*
X6251232Y415916D01*
X6212952Y461685D01*
X6197407Y482600D01*
X6117155Y581174D01*
X6028800Y656573D01*
X5933206Y708372D01*
X5831238Y736145D01*
X5723761Y739466D01*
X5684891Y734755D01*
X5593318Y711171D01*
X5514854Y670539D01*
X5446655Y610587D01*
X5385881Y529044D01*
X5351507Y468247D01*
X5314362Y401975D01*
X5276083Y348118D01*
X5228693Y296202D01*
X5197934Y266621D01*
X5158030Y230990D01*
X5118349Y199810D01*
X5074715Y170642D01*
X5022954Y141046D01*
X4958892Y108583D01*
X4878352Y70814D01*
X4809903Y39897D01*
X4725575Y-11540D01*
X4653948Y-84022D01*
X4596202Y-175961D01*
X4553515Y-285767D01*
X4544915Y-317500D01*
X4537215Y-364869D01*
X4531761Y-432577D01*
X4528512Y-515666D01*
X4527425Y-609177D01*
X1737569Y-609177D01*
X1716594Y-588041D01*
X1674914Y-556657D01*
X1644409Y-539414D01*
X1608220Y-525447D01*
X1564805Y-517618D01*
X1506340Y-514709D01*
X1485098Y-514613D01*
X1427265Y-515894D01*
X1384601Y-520854D01*
X1346918Y-531671D01*
X1304030Y-550523D01*
X1293857Y-555485D01*
X1204655Y-610735D01*
X1118133Y-687522D01*
X1034143Y-786190D01*
X952538Y-907089D01*
X873170Y-1050563D01*
X795891Y-1216960D01*
X720553Y-1406626D01*
X647010Y-1619908D01*
X575113Y-1857154D01*
X504715Y-2118709D01*
X435669Y-2404920D01*
X367825Y-2716134D01*
X362223Y-2743200D01*
X325769Y-2924786D01*
X296122Y-3083876D01*
X273178Y-3222414D01*
X256832Y-3342345D01*
X246979Y-3445614D01*
X243516Y-3534165D01*
X-1592221Y-3534165D01*
X-1582611Y-3502093D01*
X-1527087Y-3316640D01*
X-1472431Y-3133940D01*
X-1419120Y-2955586D01*
X-1367633Y-2783174D01*
X-1318448Y-2618296D01*
X-1272043Y-2462547D01*
X-1228895Y-2317519D01*
X-1189483Y-2184808D01*
X-1154285Y-2066006D01*
X-1123779Y-1962708D01*
X-1098442Y-1876507D01*
X-1078753Y-1808997D01*
X-1073464Y-1790700D01*
X-1012875Y-1578298D01*
X-960105Y-1388378D01*
X-914831Y-1219359D01*
X-876728Y-1069663D01*
X-845473Y-937711D01*
X-820743Y-821925D01*
X-802213Y-720725D01*
X-789561Y-632532D01*
X-782462Y-555768D01*
X-780594Y-488854D01*
X-783632Y-430211D01*
X-787860Y-397171D01*
X-798152Y-343485D01*
X-812047Y-296901D01*
X-832013Y-254277D01*
X-860515Y-212471D01*
X-900018Y-168342D01*
X-952989Y-118748D01*
X-1021894Y-60547D01*
X-1103317Y4755D01*
X-1220192Y99508D01*
X-1317199Y183949D01*
X-1396292Y260766D01*
X-1459424Y332646D01*
X-1508550Y402275D01*
X-1545623Y472341D01*
X-1572598Y545530D01*
X-1591427Y624529D01*
X-1601452Y689785D01*
X-1605535Y731712D01*
X-1607533Y778267D01*
X-1607253Y831691D01*
X-1604501Y894225D01*
X-1599084Y968109D01*
X-1590809Y1055585D01*
X-1579482Y1158893D01*
X-1564910Y1280274D01*
X-1546899Y1421968D01*
X-1525256Y1586218D01*
X-1521960Y1610880D01*
X-1455090Y2110509D01*
X945680Y2104262D01*
X1282980Y2103324D01*
X1596176Y2102311D01*
X1886563Y2101197D01*
X2155436Y2099955D01*
X2404090Y2098559D01*
X2633821Y2096981D01*
X2845923Y2095196D01*
X3041693Y2093175D01*
X3222425Y2090893D01*
X3389416Y2088322D01*
X3543959Y2085436D01*
X3687351Y2082208D01*
X3820887Y2078612D01*
X3945862Y2074619D01*
X4063571Y2070205D01*
X4175310Y2065342D01*
X4282375Y2060003D01*
X4386059Y2054161D01*
X4487660Y2047790D01*
X4588471Y2040863D01*
X4689789Y2033353D01*
X4792908Y2025234D01*
X4800600Y2024612D01*
X4930911Y2013637D01*
X5038639Y2003417D01*
X5126564Y1993365D01*
X5197468Y1982898D01*
X5254132Y1971430D01*
X5299336Y1958378D01*
X5335862Y1943156D01*
X5366490Y1925180D01*
X5394002Y1903866D01*
X5399965Y1898624D01*
X5471540Y1850854D01*
X5559586Y1819160D01*
X5660505Y1804051D01*
X5770694Y1806041D01*
X5886553Y1825641D01*
X5896378Y1828092D01*
X5969352Y1848872D01*
X6027111Y1871462D01*
X6079666Y1900622D01*
X6137030Y1941114D01*
X6142017Y1944902D01*
X6177512Y1968765D01*
X6217200Y1988065D01*
X6265108Y2003829D01*
X6325261Y2017082D01*
X6401687Y2028850D01*
X6498410Y2040160D01*
X6527800Y2043194D01*
X6633510Y2053221D01*
X6743230Y2062245D01*
X6858580Y2070308D01*
X6981185Y2077452D01*
X7112667Y2083719D01*
X7254648Y2089150D01*
X7408751Y2093789D01*
X7576599Y2097676D01*
X7759815Y2100853D01*
X7960021Y2103363D01*
X8178840Y2105248D01*
X8417895Y2106550D01*
X8678809Y2107310D01*
X8963204Y2107570D01*
X9017000Y2107567D01*
X10255250Y2107333D01*
X10699750Y1305443D01*
X10866836Y1003687D01*
X11022612Y721621D01*
X11168343Y456870D01*
X11305298Y207056D01*
X11434744Y-30195D01*
X11557947Y-257262D01*
X11676176Y-476519D01*
X11790696Y-690343D01*
X11902777Y-901110D01*
X12013684Y-1111197D01*
X12124685Y-1322980D01*
X12237047Y-1538835D01*
X12352038Y-1761138D01*
X12470924Y-1992267D01*
X12594974Y-2234596D01*
X12725453Y-2490502D01*
X12753871Y-2546350D01*
X12843217Y-2721727D01*
X12922333Y-2876384D01*
X12992305Y-3012341D01*
X13054222Y-3131617D01*
X13109168Y-3236231D01*
X13158232Y-3328203D01*
X13202499Y-3409553D01*
X13243058Y-3482300D01*
X13280994Y-3548463D01*
X13317394Y-3610062D01*
X13353346Y-3669117D01*
X13387661Y-3724047D01*
X13487989Y-3874573D01*
X13584322Y-4002220D01*
X13676255Y-4106535D01*
X13763381Y-4187062D01*
X13845295Y-4243348D01*
X13856075Y-4249138D01*
X13897008Y-4268304D01*
X13933975Y-4279207D01*
X13977217Y-4283982D01*
X14027150Y-4284816D01*
X14074249Y-4283406D01*
X14117101Y-4278730D01*
X14155903Y-4269652D01*
X14190855Y-4255033D01*
X14222156Y-4233735D01*
X14250006Y-4204619D01*
X14274602Y-4166547D01*
X14296145Y-4118381D01*
X14314833Y-4058983D01*
X14330866Y-3987214D01*
X14344442Y-3901937D01*
X14355761Y-3802012D01*
X14365022Y-3686302D01*
X14372423Y-3553669D01*
X14378164Y-3402973D01*
X14382445Y-3233077D01*
X14385463Y-3042843D01*
X14387418Y-2831132D01*
X14388510Y-2596806D01*
X14388937Y-2338727D01*
X14388965Y-2216150D01*
X14388721Y-1966409D01*
X14387976Y-1740624D01*
X14386635Y-1537354D01*
X14384604Y-1355159D01*
X14381789Y-1192597D01*
X14378096Y-1048227D01*
X14373431Y-920609D01*
X14367700Y-808302D01*
X14360809Y-709866D01*
X14352663Y-623858D01*
X14343169Y-548839D01*
X14332232Y-483368D01*
X14319759Y-426003D01*
X14305655Y-375304D01*
X14289826Y-329831D01*
X14272179Y-288142D01*
X14261628Y-266234D01*
X14234409Y-219029D01*
X14201244Y-176808D01*
X14158800Y-136945D01*
X14103740Y-96815D01*
X14032731Y-53796D01*
X13942437Y-5261D01*
X13907086Y12794D01*
X13800104Y69583D01*
X13714305Y121696D01*
X13646541Y171743D01*
X13593664Y222335D01*
X13552523Y276082D01*
X13521375Y332591D01*
X13502270Y376616D01*
X13485750Y423093D01*
X13471641Y474104D01*
X13459764Y531735D01*
X13449943Y598068D01*
X13442002Y675189D01*
X13435764Y765180D01*
X13431053Y870127D01*
X13427692Y992113D01*
X13425504Y1133222D01*
X13424313Y1295538D01*
X13423943Y1481146D01*
X13423943Y1482725D01*
X13423900Y2108200D01*
X14144625Y2108385D01*
X14350384Y2108751D01*
X14533232Y2109792D01*
X14695653Y2111592D01*
X14840128Y2114233D01*
X14969139Y2117799D01*
X15085171Y2122372D01*
X15190704Y2128037D01*
X15288221Y2134875D01*
X15380206Y2142970D01*
X15469140Y2152406D01*
X15472917Y2152841D01*
X15624567Y2172917D01*
X15752666Y2195557D01*
X15858976Y2221245D01*
X15945262Y2250461D01*
X16013285Y2283688D01*
X16053219Y2311398D01*
X16082685Y2329882D01*
X16124745Y2346452D01*
X16182225Y2361799D01*
X16257949Y2376611D01*
X16354741Y2391579D01*
X16414750Y2399707D01*
X16537720Y2414419D01*
X16671977Y2427861D01*
X16818511Y2440060D01*
X16978312Y2451044D01*
X17152370Y2460841D01*
X17341672Y2469477D01*
X17547210Y2476982D01*
X17769973Y2483381D01*
X18010951Y2488704D01*
X18271132Y2492976D01*
X18551507Y2496227D01*
X18853065Y2498483D01*
X19176796Y2499772D01*
X19523689Y2500122D01*
X19894735Y2499560D01*
X19989800Y2499285D01*
X21177250Y2495550D01*
X21175367Y1758950D01*
X21174687Y1574749D01*
X21173582Y1413840D01*
X21171945Y1274116D01*
X21169669Y1153471D01*
X21166648Y1049800D01*
X21162775Y960995D01*
X21157945Y884951D01*
X21152049Y819561D01*
X21144983Y762720D01*
X21136639Y712321D01*
X21126910Y666257D01*
X21118387Y632335D01*
X21084830Y534707D01*
X21040237Y457571D01*
X20981222Y397454D01*
X20904397Y350885D01*
X20808950Y315161D01*
X20756504Y298051D01*
X20706613Y279502D01*
X20672254Y264544D01*
X20627678Y234556D01*
X20588557Y191100D01*
X20554467Y132663D01*
X20524983Y57731D01*
X20499678Y-35208D01*
X20478129Y-147668D01*
X20459910Y-281161D01*
X20444596Y-437203D01*
X20433834Y-584200D01*
X20430546Y-649311D01*
X20427473Y-737911D01*
X20424615Y-848380D01*
X20421973Y-979099D01*
X20419547Y-1128448D01*
X20417337Y-1294808D01*
X20415343Y-1476559D01*
X20413565Y-1672081D01*
X20412003Y-1879756D01*
X20410658Y-2097963D01*
X20409530Y-2325083D01*
X20408618Y-2559498D01*
X20407924Y-2799586D01*
X20407446Y-3043730D01*
X20407186Y-3290308D01*
X20407143Y-3537703D01*
X20407317Y-3784293D01*
X20407710Y-4028461D01*
X20408320Y-4268586D01*
X20409148Y-4503049D01*
X20410194Y-4730230D01*
X20411459Y-4948510D01*
X20412942Y-5156270D01*
X20414643Y-5351889D01*
X20416563Y-5533749D01*
X20418703Y-5700230D01*
X20421061Y-5849712D01*
X20423638Y-5980577D01*
X20426435Y-6091204D01*
X20429451Y-6179974D01*
X20432687Y-6245267D01*
X20433317Y-6254750D01*
X20446877Y-6431113D01*
X20461626Y-6584781D01*
X20478350Y-6718456D01*
X20497838Y-6834841D01*
X20520875Y-6936636D01*
X20548248Y-7026545D01*
X20580744Y-7107268D01*
X20619151Y-7181508D01*
X20664254Y-7251967D01*
X20716841Y-7321347D01*
X20758199Y-7370344D01*
X20907717Y-7523353D01*
X21068927Y-7653834D01*
X21241558Y-7761665D01*
X21425340Y-7846724D01*
X21620004Y-7908891D01*
X21825279Y-7948044D01*
X22040895Y-7964061D01*
X22080313Y-7964478D01*
X22284719Y-7954864D01*
X22476009Y-7925044D01*
X22657329Y-7874326D01*
X22831824Y-7802018D01*
X22842963Y-7796575D01*
X22953356Y-7736430D01*
X23055594Y-7668331D01*
X23150008Y-7591258D01*
X23236927Y-7504192D01*
X23316679Y-7406111D01*
X23389594Y-7295997D01*
X23456002Y-7172828D01*
X23516231Y-7035584D01*
X23570610Y-6883246D01*
X23619470Y-6714793D01*
X23663138Y-6529205D01*
X23701945Y-6325462D01*
X23736219Y-6102543D01*
X23766289Y-5859429D01*
X23792486Y-5595098D01*
X23815138Y-5308532D01*
X23834573Y-4998710D01*
X23850727Y-4673600D01*
X23854832Y-4567401D01*
X23858820Y-4438642D01*
X23862660Y-4290160D01*
X23866318Y-4124795D01*
X23869761Y-3945386D01*
X23872956Y-3754772D01*
X23875870Y-3555791D01*
X23878470Y-3351282D01*
X23880723Y-3144084D01*
X23882596Y-2937037D01*
X23884056Y-2732978D01*
X23885070Y-2534748D01*
X23885605Y-2345184D01*
X23885627Y-2167125D01*
X23885105Y-2003411D01*
X23884004Y-1856881D01*
X23883758Y-1834007D01*
X23880877Y-1613115D01*
X23877402Y-1415839D01*
X23873204Y-1240403D01*
X23868154Y-1085026D01*
X23862121Y-947930D01*
X23854978Y-827337D01*
X23846592Y-721468D01*
X23836836Y-628544D01*
X23825580Y-546788D01*
X23812694Y-474419D01*
X23798048Y-409660D01*
X23781512Y-350732D01*
X23773976Y-327304D01*
X23745683Y-251142D01*
X23713511Y-184102D01*
X23674356Y-122218D01*
X23625112Y-61526D01*
X23562673Y1939D01*
X23483934Y72142D01*
X23418380Y126662D01*
X23301094Y228123D01*
X23205300Y324546D01*
X23128502Y419234D01*
X23068200Y515489D01*
X23021897Y616615D01*
X23000271Y679450D01*
X22986923Y724281D01*
X22975430Y767098D01*
X22965636Y810189D01*
X22957386Y855844D01*
X22950522Y906351D01*
X22944889Y963999D01*
X22940331Y1031075D01*
X22936691Y1109869D01*
X22933814Y1202670D01*
X22931543Y1311764D01*
X22929722Y1439443D01*
X22928195Y1587993D01*
X22926836Y1755775D01*
X22921258Y2501900D01*
X26609016Y2501900D01*
X26602947Y1704975D01*
X26602947Y1704975D01*
G37*
X26602947Y1704975D02*
X26601510Y1531640D01*
X26599990Y1381693D01*
X26598331Y1253120D01*
X26596476Y1143911D01*
X26594369Y1052051D01*
X26591954Y975529D01*
X26589175Y912333D01*
X26585975Y860449D01*
X26582299Y817866D01*
X26578089Y782572D01*
X26576955Y774700D01*
X26554948Y652288D01*
X26528667Y553684D01*
X26497310Y477534D01*
X26460079Y422486D01*
X26416174Y387185D01*
X26364793Y370279D01*
X26336748Y368300D01*
X26265293Y360161D01*
X26184167Y337991D01*
X26102199Y305164D01*
X26028221Y265053D01*
X25985554Y234141D01*
X25951855Y200965D01*
X25928164Y163804D01*
X25911595Y116085D01*
X25899266Y51234D01*
X25896435Y31026D01*
X25888387Y-34913D01*
X25880926Y-108180D01*
X25874023Y-189895D01*
X25867646Y-281177D01*
X25861767Y-383146D01*
X25856357Y-496920D01*
X25851385Y-623620D01*
X25846822Y-764365D01*
X25842638Y-920274D01*
X25838804Y-1092466D01*
X25835290Y-1282061D01*
X25832066Y-1490178D01*
X25829103Y-1717937D01*
X25826371Y-1966457D01*
X25823840Y-2236857D01*
X25821481Y-2530256D01*
X25819265Y-2847775D01*
X25818955Y-2895600D01*
X25817216Y-3159992D01*
X25815522Y-3400688D01*
X25813836Y-3619392D01*
X25812119Y-3817808D01*
X25810333Y-3997638D01*
X25808439Y-4160587D01*
X25806398Y-4308359D01*
X25804172Y-4442657D01*
X25801723Y-4565184D01*
X25799013Y-4677646D01*
X25796002Y-4781745D01*
X25792652Y-4879185D01*
X25788925Y-4971670D01*
X25784782Y-5060903D01*
X25780185Y-5148589D01*
X25775096Y-5236431D01*
X25769475Y-5326132D01*
X25763285Y-5419397D01*
X25761313Y-5448300D01*
X25728708Y-5854555D01*
X25688042Y-6237206D01*
X25638979Y-6596846D01*
X25581181Y-6934070D01*
X25514313Y-7249470D01*
X25438038Y-7543639D01*
X25352017Y-7817172D01*
X25255915Y-8070661D01*
X25149394Y-8304700D01*
X25032118Y-8519883D01*
X24903750Y-8716802D01*
X24763952Y-8896052D01*
X24612388Y-9058225D01*
X24448721Y-9203915D01*
X24272614Y-9333716D01*
X24083731Y-9448220D01*
X23881733Y-9548022D01*
X23666285Y-9633715D01*
X23437049Y-9705891D01*
X23327879Y-9734471D01*
X23094675Y-9785041D01*
X22845276Y-9825721D01*
X22578653Y-9856563D01*
X22293779Y-9877622D01*
X21989625Y-9888950D01*
X21665163Y-9890602D01*
X21319365Y-9882632D01*
X20951202Y-9865092D01*
X20891500Y-9861484D01*
X20642646Y-9844582D01*
X20416848Y-9825914D01*
X20211787Y-9804910D01*
X20025147Y-9780998D01*
X19854611Y-9753607D01*
X19697861Y-9722167D01*
X19552580Y-9686106D01*
X19416451Y-9644854D01*
X19287157Y-9597839D01*
X19162382Y-9544491D01*
X19039807Y-9484238D01*
X18917116Y-9416510D01*
X18800872Y-9346309D01*
X18607672Y-9218661D01*
X18432189Y-9087992D01*
X18273361Y-8952495D01*
X18130128Y-8810364D01*
X18001429Y-8659794D01*
X17886204Y-8498977D01*
X17783392Y-8326109D01*
X17691932Y-8139382D01*
X17610764Y-7936992D01*
X17538826Y-7717131D01*
X17475059Y-7477994D01*
X17418401Y-7217775D01*
X17367791Y-6934668D01*
X17361498Y-6895435D01*
X17341907Y-6766982D01*
X17323387Y-6635150D01*
X17305856Y-6498673D01*
X17289229Y-6356281D01*
X17273426Y-6206706D01*
X17258362Y-6048681D01*
X17243955Y-5880937D01*
X17230122Y-5702205D01*
X17216781Y-5511219D01*
X17203848Y-5306708D01*
X17191242Y-5087406D01*
X17178879Y-4852043D01*
X17166676Y-4599352D01*
X17154551Y-4328065D01*
X17142422Y-4036913D01*
X17130204Y-3724628D01*
X17117816Y-3389941D01*
X17105175Y-3031585D01*
X17100515Y-2895600D01*
X17090073Y-2595106D01*
X17079986Y-2318860D01*
X17070155Y-2065711D01*
X17060480Y-1834511D01*
X17050863Y-1624111D01*
X17041205Y-1433362D01*
X17031408Y-1261115D01*
X17021372Y-1106220D01*
X17011000Y-967529D01*
X17000192Y-843893D01*
X16988849Y-734162D01*
X16976872Y-637188D01*
X16964164Y-551821D01*
X16950625Y-476912D01*
X16936156Y-411314D01*
X16920659Y-353875D01*
X16904035Y-303448D01*
X16886185Y-258883D01*
X16871158Y-227079D01*
X16824778Y-158746D01*
X16763931Y-110620D01*
X16696480Y-83169D01*
X16668175Y-76788D01*
X16622245Y-68282D01*
X16563132Y-58306D01*
X16495278Y-47510D01*
X16423125Y-36546D01*
X16351116Y-26067D01*
X16283693Y-16725D01*
X16225298Y-9171D01*
X16180373Y-4058D01*
X16153360Y-2037D01*
X16147578Y-2600D01*
X16147177Y-15426D01*
X16146520Y-52784D01*
X16145617Y-113809D01*
X16144478Y-197632D01*
X16143113Y-303390D01*
X16141532Y-430214D01*
X16139744Y-577239D01*
X16137760Y-743599D01*
X16135589Y-928426D01*
X16133242Y-1130856D01*
X16130727Y-1350021D01*
X16128055Y-1585055D01*
X16125236Y-1835092D01*
X16122279Y-2099266D01*
X16119195Y-2376709D01*
X16115994Y-2666557D01*
X16112684Y-2967942D01*
X16109276Y-3279999D01*
X16105780Y-3601861D01*
X16102206Y-3932661D01*
X16098564Y-4271534D01*
X16094862Y-4617613D01*
X16091775Y-4907687D01*
X16088035Y-5259043D01*
X16084349Y-5603901D01*
X16080727Y-5941397D01*
X16077179Y-6270663D01*
X16073714Y-6590834D01*
X16070343Y-6901043D01*
X16067074Y-7200425D01*
X16063918Y-7488114D01*
X16060884Y-7763243D01*
X16057982Y-8024946D01*
X16055222Y-8272358D01*
X16052614Y-8504612D01*
X16050166Y-8720843D01*
X16047890Y-8920184D01*
X16045794Y-9101769D01*
X16043888Y-9264732D01*
X16042183Y-9408207D01*
X16040687Y-9531328D01*
X16039411Y-9633229D01*
X16038364Y-9713044D01*
X16037556Y-9769907D01*
X16036996Y-9802952D01*
X16036729Y-9811669D01*
X16023077Y-9813318D01*
X15986548Y-9815749D01*
X15929650Y-9818866D01*
X15854890Y-9822568D01*
X15764777Y-9826755D01*
X15661817Y-9831329D01*
X15548519Y-9836190D01*
X15427391Y-9841239D01*
X15300939Y-9846377D01*
X15171671Y-9851503D01*
X15042096Y-9856520D01*
X14914722Y-9861327D01*
X14792054Y-9865825D01*
X14676603Y-9869914D01*
X14570874Y-9873497D01*
X14477376Y-9876472D01*
X14398617Y-9878741D01*
X14337104Y-9880205D01*
X14295345Y-9880763D01*
X14292519Y-9880765D01*
X14093799Y-9877235D01*
X13914438Y-9867065D01*
X13755282Y-9850408D01*
X13617180Y-9827415D01*
X13500980Y-9798241D01*
X13407529Y-9763037D01*
X13337675Y-9721956D01*
X13317937Y-9705256D01*
X13296623Y-9680110D01*
X13266204Y-9636343D01*
X13226547Y-9573708D01*
X13177517Y-9491955D01*
X13118980Y-9390837D01*
X13050802Y-9270105D01*
X12972850Y-9129510D01*
X12884988Y-8968803D01*
X12787084Y-8787737D01*
X12679003Y-8586062D01*
X12560611Y-8363531D01*
X12431774Y-8119894D01*
X12292358Y-7854903D01*
X12142229Y-7568309D01*
X11981253Y-7259864D01*
X11809295Y-6929319D01*
X11626223Y-6576426D01*
X11518848Y-6369050D01*
X11440417Y-6217575D01*
X11361547Y-6065438D01*
X11283575Y-5915210D01*
X11207840Y-5769459D01*
X11135679Y-5630755D01*
X11068430Y-5501670D01*
X11007432Y-5384772D01*
X10954022Y-5282631D01*
X10909539Y-5197819D01*
X10875319Y-5132904D01*
X10874205Y-5130800D01*
X10736638Y-4872607D01*
X10609083Y-4636636D01*
X10490979Y-4422011D01*
X10381767Y-4227858D01*
X10280885Y-4053302D01*
X10187772Y-3897470D01*
X10101867Y-3759487D01*
X10022611Y-3638479D01*
X9949442Y-3533571D01*
X9881800Y-3443890D01*
X9819123Y-3368561D01*
X9760851Y-3306710D01*
X9706424Y-3257462D01*
X9655281Y-3219943D01*
X9644287Y-3213100D01*
X9599257Y-3188053D01*
X9562460Y-3174687D01*
X9521708Y-3169582D01*
X9487394Y-3169072D01*
X9401456Y-3175684D01*
X9327686Y-3195610D01*
X9265006Y-3230401D01*
X9212341Y-3281606D01*
X9168615Y-3350773D01*
X9132751Y-3439453D01*
X9103672Y-3549194D01*
X9080303Y-3681546D01*
X9068639Y-3771900D01*
X9058940Y-3869106D01*
X9049486Y-3988723D01*
X9040368Y-4127764D01*
X9031677Y-4283241D01*
X9023504Y-4452164D01*
X9015938Y-4631546D01*
X9009070Y-4818399D01*
X9002992Y-5009736D01*
X8997793Y-5202566D01*
X8993563Y-5393904D01*
X8990394Y-5580760D01*
X8988376Y-5760147D01*
X8987599Y-5929075D01*
X8988154Y-6084558D01*
X8990132Y-6223608D01*
X8992079Y-6299200D01*
X9001083Y-6511372D01*
X9014380Y-6700253D01*
X9032387Y-6867654D01*
X9055524Y-7015388D01*
X9084209Y-7145266D01*
X9118860Y-7259100D01*
X9159894Y-7358700D01*
X9207730Y-7445880D01*
X9262787Y-7522450D01*
X9278804Y-7541380D01*
X9335097Y-7598197D01*
X9401530Y-7650182D01*
X9482164Y-7699940D01*
X9581057Y-7750074D01*
X9657276Y-7784193D01*
X9723552Y-7813844D01*
X9787028Y-7844264D01*
X9841198Y-7872203D01*
X9879556Y-7894412D01*
X9884412Y-7897642D01*
X9952492Y-7955928D01*
X10007826Y-8029406D01*
X10051895Y-8120743D01*
X10086177Y-8232601D01*
X10096815Y-8280400D01*
X10100471Y-8309995D01*
X10104205Y-8361362D01*
X10107863Y-8430873D01*
X10111288Y-8514901D01*
X10114324Y-8609819D01*
X10116818Y-8712000D01*
X10117964Y-8773772D01*
X10119852Y-8954856D01*
X10119045Y-9113030D01*
X10115313Y-9250666D01*
X10108426Y-9370134D01*
X10098152Y-9473807D01*
X10084262Y-9564053D01*
X10066524Y-9643245D01*
X10044709Y-9713754D01*
X10020820Y-9773035D01*
X9979978Y-9850335D01*
X9933158Y-9910106D01*
X9876552Y-9954692D01*
X9806355Y-9986439D01*
X9718763Y-10007692D01*
X9620250Y-10019933D01*
X9535501Y-10025779D01*
X9427296Y-10030719D01*
X9297559Y-10034758D01*
X9148216Y-10037906D01*
X8981194Y-10040170D01*
X8798418Y-10041558D01*
X8601814Y-10042077D01*
X8393309Y-10041735D01*
X8174829Y-10040540D01*
X7948299Y-10038500D01*
X7715645Y-10035622D01*
X7478794Y-10031915D01*
X7239671Y-10027385D01*
X7000202Y-10022041D01*
X6762314Y-10015890D01*
X6527932Y-10008940D01*
X6477000Y-10007304D01*
X6366327Y-10003642D01*
X6239000Y-9999331D01*
X6096576Y-9994430D01*
X5940614Y-9988996D01*
X5772671Y-9983086D01*
X5594307Y-9976758D01*
X5407079Y-9970071D01*
X5212546Y-9963081D01*
X5012266Y-9955846D01*
X4807797Y-9948424D01*
X4600698Y-9940872D01*
X4392527Y-9933249D01*
X4184842Y-9925612D01*
X3979202Y-9918018D01*
X3777164Y-9910526D01*
X3580287Y-9903192D01*
X3390130Y-9896075D01*
X3208250Y-9889232D01*
X3036207Y-9882721D01*
X2875557Y-9876599D01*
X2727860Y-9870925D01*
X2594674Y-9865755D01*
X2477557Y-9861148D01*
X2378067Y-9857161D01*
X2297763Y-9853852D01*
X2238202Y-9851279D01*
X2200944Y-9849498D01*
X2187575Y-9848580D01*
X2181951Y-9834288D01*
X2177534Y-9797448D01*
X2174266Y-9740884D01*
X2172091Y-9667416D01*
X2170951Y-9579867D01*
X2170790Y-9481058D01*
X2171550Y-9373810D01*
X2173175Y-9260947D01*
X2175608Y-9145288D01*
X2178792Y-9029657D01*
X2182670Y-8916875D01*
X2187185Y-8809764D01*
X2192280Y-8711145D01*
X2197898Y-8623839D01*
X2203983Y-8550670D01*
X2210478Y-8494459D01*
X2215465Y-8465662D01*
X2245061Y-8360205D01*
X2285770Y-8268917D01*
X2340259Y-8188745D01*
X2411198Y-8116633D01*
X2501252Y-8049526D01*
X2613092Y-7984372D01*
X2654300Y-7963244D01*
X2817374Y-7871740D01*
X2956635Y-7771839D01*
X3072314Y-7663331D01*
X3164641Y-7546009D01*
X3219373Y-7450737D01*
X3261553Y-7358131D01*
X3289963Y-7277008D01*
X3306479Y-7198840D01*
X3312973Y-7115099D01*
X3311873Y-7029691D01*
X3296937Y-6890721D01*
X3263154Y-6765849D01*
X3208742Y-6651004D01*
X3131919Y-6542118D01*
X3067050Y-6470499D01*
X2977170Y-6388880D01*
X2878328Y-6318776D01*
X2766966Y-6258401D01*
X2639530Y-6205972D01*
X2492464Y-6159703D01*
X2400300Y-6135841D01*
X2235460Y-6099652D01*
X2067900Y-6070786D01*
X1893362Y-6048818D01*
X1707590Y-6033323D01*
X1506325Y-6023878D01*
X1285312Y-6020057D01*
X1237114Y-6019931D01*
X957408Y-6024954D01*
X695941Y-6040148D01*
X453573Y-6065369D01*
X231164Y-6100475D01*
X29573Y-6145322D01*
X-150341Y-6199767D01*
X-307716Y-6263667D01*
X-349250Y-6284066D01*
X-422056Y-6329995D01*
X-498011Y-6392624D01*
X-570239Y-6465314D01*
X-631865Y-6541427D01*
X-659426Y-6583485D01*
X-725142Y-6716992D01*
X-769243Y-6856356D01*
X-792432Y-6998931D01*
X-795413Y-7142070D01*
X-778887Y-7283127D01*
X-743558Y-7419456D01*
X-690128Y-7548410D01*
X-619299Y-7667343D01*
X-531775Y-7773608D01*
X-428258Y-7864560D01*
X-309451Y-7937551D01*
X-298450Y-7942948D01*
X-239972Y-7970825D01*
X-173147Y-8002300D01*
X-114300Y-8029698D01*
X-11535Y-8087937D01*
X70242Y-8159026D01*
X132935Y-8245288D01*
X178446Y-8349046D01*
X195154Y-8407400D01*
X209241Y-8482120D01*
X220617Y-8577380D01*
X229215Y-8688456D01*
X234971Y-8810626D01*
X237817Y-8939165D01*
X237686Y-9069351D01*
X234514Y-9196462D01*
X228233Y-9315774D01*
X218778Y-9422564D01*
X210303Y-9486900D01*
X183572Y-9623829D01*
X149178Y-9737672D01*
X106425Y-9829766D01*
X54615Y-9901450D01*
X-6949Y-9954065D01*
X-43778Y-9974679D01*
X-93326Y-9992363D01*
X-163499Y-10008012D01*
X-254936Y-10021676D01*
X-368275Y-10033407D01*
X-504153Y-10043256D01*
X-663208Y-10051276D01*
X-846080Y-10057518D01*
X-1053405Y-10062032D01*
X-1143000Y-10063361D01*
X-1268496Y-10064454D01*
X-1407122Y-10064720D01*
X-1551222Y-10064208D01*
X-1693140Y-10062964D01*
X-1825222Y-10061038D01*
X-1939811Y-10058476D01*
X-1943100Y-10058384D01*
X-2086727Y-10054642D01*
X-2255260Y-10050790D01*
X-2448205Y-10046835D01*
X-2665070Y-10042782D01*
X-2905360Y-10038636D01*
X-3168583Y-10034405D01*
X-3454243Y-10030092D01*
X-3761850Y-10025705D01*
X-4090907Y-10021248D01*
X-4440923Y-10016728D01*
X-4811403Y-10012150D01*
X-5201854Y-10007520D01*
X-5611782Y-10002844D01*
X-6040695Y-9998128D01*
X-6488097Y-9993377D01*
X-6953497Y-9988596D01*
X-7436400Y-9983793D01*
X-7936313Y-9978972D01*
X-8452742Y-9974140D01*
X-8985194Y-9969301D01*
X-9533175Y-9964462D01*
X-10096192Y-9959629D01*
X-10673751Y-9954807D01*
X-11214100Y-9950413D01*
X-11485560Y-9948228D01*
X-11766266Y-9945961D01*
X-12053700Y-9943631D01*
X-12345349Y-9941259D01*
X-12638695Y-9938867D01*
X-12931224Y-9936474D01*
X-13220419Y-9934102D01*
X-13503764Y-9931770D01*
X-13778745Y-9929501D01*
X-14042845Y-9927314D01*
X-14293548Y-9925230D01*
X-14528339Y-9923271D01*
X-14744702Y-9921455D01*
X-14940121Y-9919805D01*
X-15074900Y-9918659D01*
X-15269606Y-9917006D01*
X-15459168Y-9915417D01*
X-15641810Y-9913904D01*
X-15815757Y-9912482D01*
X-15979236Y-9911164D01*
X-16130471Y-9909965D01*
X-16267687Y-9908898D01*
X-16389109Y-9907977D01*
X-16492963Y-9907216D01*
X-16577474Y-9906629D01*
X-16640866Y-9906230D01*
X-16681365Y-9906033D01*
X-16690975Y-9906013D01*
X-16827500Y-9906000D01*
X-16827083Y-9451975D01*
X-16826050Y-9233913D01*
X-16823226Y-9039200D01*
X-16818390Y-8865835D01*
X-16811318Y-8711815D01*
X-16801790Y-8575137D01*
X-16789582Y-8453801D01*
X-16774473Y-8345804D01*
X-16756240Y-8249143D01*
X-16734662Y-8161817D01*
X-16709516Y-8081823D01*
X-16680580Y-8007160D01*
X-16662215Y-7966025D01*
X-16622851Y-7891873D01*
X-16577880Y-7830104D01*
X-16532553Y-7781734D01*
X-16437687Y-7678292D01*
X-16360413Y-7573099D01*
X-16301916Y-7468595D01*
X-16263381Y-7367220D01*
X-16245993Y-7271412D01*
X-16248576Y-7197167D01*
X-16263480Y-7140555D01*
X-16293424Y-7065700D01*
X-16337443Y-6974081D01*
X-16394569Y-6867177D01*
X-16463837Y-6746468D01*
X-16544280Y-6613431D01*
X-16634932Y-6469547D01*
X-16734827Y-6316294D01*
X-16842999Y-6155150D01*
X-16958481Y-5987596D01*
X-17080307Y-5815110D01*
X-17207511Y-5639171D01*
X-17339127Y-5461258D01*
X-17474188Y-5282851D01*
X-17611729Y-5105427D01*
X-17631719Y-5080000D01*
X-17725177Y-4962010D01*
X-17812664Y-4853156D01*
X-17896886Y-4750298D01*
X-17980552Y-4650300D01*
X-18066367Y-4550024D01*
X-18157039Y-4446332D01*
X-18255274Y-4336087D01*
X-18363780Y-4216151D01*
X-18485262Y-4083388D01*
X-18583692Y-3976569D01*
X-18834934Y-3704538D01*
X-18415053Y-3282956D01*
X-15461684Y-3282956D01*
X-15457992Y-3331376D01*
X-15442642Y-3385904D01*
X-15415245Y-3451871D01*
X-15376832Y-3531754D01*
X-15305571Y-3666155D01*
X-15216900Y-3817611D01*
X-15111436Y-3985287D01*
X-14989797Y-4168345D01*
X-14852601Y-4365948D01*
X-14700465Y-4577260D01*
X-14534008Y-4801444D01*
X-14353846Y-5037663D01*
X-14160598Y-5285080D01*
X-13954882Y-5542858D01*
X-13737315Y-5810161D01*
X-13508515Y-6086151D01*
X-13366790Y-6254750D01*
X-13167601Y-6488185D01*
X-12982298Y-6700511D01*
X-12810790Y-6891822D01*
X-12652984Y-7062216D01*
X-12508787Y-7211790D01*
X-12378108Y-7340641D01*
X-12260854Y-7448865D01*
X-12156934Y-7536558D01*
X-12110063Y-7572649D01*
X-12009734Y-7642008D01*
X-11920531Y-7691795D01*
X-11838708Y-7723029D01*
X-11760518Y-7736729D01*
X-11682216Y-7733913D01*
X-11600054Y-7715600D01*
X-11592719Y-7713345D01*
X-11553574Y-7697482D01*
X-11518017Y-7674790D01*
X-11485841Y-7644055D01*
X-11456836Y-7604060D01*
X-11430792Y-7553592D01*
X-11407501Y-7491435D01*
X-11386751Y-7416372D01*
X-11368335Y-7327190D01*
X-11352043Y-7222672D01*
X-11337666Y-7101604D01*
X-11324993Y-6962770D01*
X-11313816Y-6804955D01*
X-11303925Y-6626944D01*
X-11295110Y-6427521D01*
X-11287164Y-6205471D01*
X-11279875Y-5959579D01*
X-11277927Y-5886450D01*
X-11272782Y-5677777D01*
X-11267907Y-5457818D01*
X-11263310Y-5228112D01*
X-11259001Y-4990202D01*
X-11254988Y-4745630D01*
X-11251279Y-4495937D01*
X-11247884Y-4242664D01*
X-11244811Y-3987354D01*
X-11242068Y-3731548D01*
X-11239665Y-3476787D01*
X-11237611Y-3224614D01*
X-11235913Y-2976569D01*
X-11234580Y-2734195D01*
X-11233622Y-2499033D01*
X-11233047Y-2272625D01*
X-11232863Y-2056512D01*
X-11233080Y-1852236D01*
X-11233706Y-1661338D01*
X-11234749Y-1485361D01*
X-11236219Y-1325846D01*
X-11238124Y-1184334D01*
X-11240472Y-1062367D01*
X-11243273Y-961488D01*
X-11246536Y-883236D01*
X-11249464Y-838200D01*
X-11264368Y-679344D01*
X-11281362Y-543645D01*
X-11301427Y-428882D01*
X-11325541Y-332834D01*
X-11354684Y-253283D01*
X-11389836Y-188008D01*
X-11431977Y-134789D01*
X-11482086Y-91407D01*
X-11541143Y-55640D01*
X-11607807Y-26162D01*
X-11774977Y25798D01*
X-11948732Y54826D01*
X-12132197Y61439D01*
X-12135555Y61357D01*
X-12204173Y59326D01*
X-12253765Y56490D01*
X-12290700Y51627D01*
X-12321347Y43516D01*
X-12352078Y30933D01*
X-12389176Y12700D01*
X-12488391Y-43642D01*
X-12601377Y-118658D01*
X-12726599Y-210751D01*
X-12862520Y-318325D01*
X-13007604Y-439785D01*
X-13160313Y-573536D01*
X-13319113Y-717981D01*
X-13482465Y-871526D01*
X-13648834Y-1032573D01*
X-13816683Y-1199529D01*
X-13984476Y-1370796D01*
X-14150677Y-1544780D01*
X-14313748Y-1719885D01*
X-14472153Y-1894514D01*
X-14624357Y-2067074D01*
X-14768822Y-2235967D01*
X-14904012Y-2399598D01*
X-15028390Y-2556372D01*
X-15140421Y-2704692D01*
X-15238567Y-2842964D01*
X-15321292Y-2969592D01*
X-15387060Y-3082979D01*
X-15406684Y-3121047D01*
X-15435643Y-3183121D01*
X-15454106Y-3235314D01*
X-15461684Y-3282956D01*
X-18415053Y-3282956D01*
X-17948280Y-2814294D01*
X-17818441Y-2683794D01*
X-17690086Y-2554527D01*
X-17564821Y-2428125D01*
X-17444255Y-2306223D01*
X-17329994Y-2190450D01*
X-17223645Y-2082441D01*
X-17126815Y-1983828D01*
X-17041110Y-1896244D01*
X-16968139Y-1821320D01*
X-16909507Y-1760690D01*
X-16866821Y-1715986D01*
X-16858838Y-1707498D01*
X-16693193Y-1528936D01*
X-16540394Y-1360805D01*
X-16401146Y-1203952D01*
X-16276154Y-1059221D01*
X-16166121Y-927460D01*
X-16071752Y-809513D01*
X-15993753Y-706228D01*
X-15932827Y-618448D01*
X-15889679Y-547022D01*
X-15885078Y-538339D01*
X-15844802Y-460729D01*
X-15867886Y-400285D01*
X-15912927Y-315740D01*
X-15983113Y-231852D01*
X-16078191Y-148837D01*
X-16197909Y-66913D01*
X-16342016Y13702D01*
X-16356007Y20803D01*
X-16429671Y58834D01*
X-16486018Y90673D01*
X-16531004Y120309D01*
X-16570582Y151732D01*
X-16610706Y188930D01*
X-16618751Y196849D01*
X-16668427Y250091D01*
X-16706147Y301693D01*
X-16735146Y358148D01*
X-16758661Y425952D01*
X-16779927Y511601D01*
X-16783264Y527050D01*
X-16791808Y581153D01*
X-16799621Y658640D01*
X-16806624Y757507D01*
X-16812738Y875746D01*
X-16817886Y1011352D01*
X-16821987Y1162319D01*
X-16824964Y1326639D01*
X-16826737Y1502306D01*
X-16827236Y1647825D01*
X-16827500Y2108200D01*
X-2849251Y2108200D01*
X-2853892Y1971675D01*
X-2854756Y1943381D01*
X-2856242Y1891206D01*
X-2858309Y1816664D01*
X-2860918Y1721266D01*
X-2864029Y1606523D01*
X-2867599Y1473947D01*
X-2871590Y1325051D01*
X-2875961Y1161345D01*
X-2880671Y984341D01*
X-2885681Y795552D01*
X-2890948Y596489D01*
X-2896434Y388663D01*
X-2902098Y173587D01*
X-2907898Y-47228D01*
X-2909139Y-94513D01*
X-2914921Y-313829D01*
X-2920582Y-526182D01*
X-2926080Y-730188D01*
X-2931377Y-924463D01*
X-2936432Y-1107623D01*
X-2941205Y-1278287D01*
X-2945658Y-1435069D01*
X-2949749Y-1576586D01*
X-2953441Y-1701456D01*
X-2956691Y-1808295D01*
X-2959462Y-1895719D01*
X-2961713Y-1962344D01*
X-2963405Y-2006788D01*
X-2964497Y-2027667D01*
X-2964713Y-2029146D01*
X-2978251Y-2029996D01*
X-3014336Y-2029964D01*
X-3070132Y-2029136D01*
X-3142805Y-2027598D01*
X-3229520Y-2025435D01*
X-3327442Y-2022735D01*
X-3433736Y-2019583D01*
X-3545567Y-2016065D01*
X-3660101Y-2012268D01*
X-3774501Y-2008276D01*
X-3885934Y-2004176D01*
X-3991565Y-2000054D01*
X-4088558Y-1995997D01*
X-4152900Y-1993096D01*
X-4425950Y-1980311D01*
X-4461264Y-1945198D01*
X-4496728Y-1896367D01*
X-4527450Y-1824886D01*
X-4553516Y-1730322D01*
X-4575012Y-1612244D01*
X-4592027Y-1470218D01*
X-4604646Y-1303812D01*
X-4609542Y-1206500D01*
X-4618308Y-1049376D01*
X-4630772Y-913215D01*
X-4647853Y-793734D01*
X-4670474Y-686647D01*
X-4699555Y-587669D01*
X-4736018Y-492517D01*
X-4780783Y-396905D01*
X-4785651Y-387350D01*
X-4848947Y-283031D01*
X-4926100Y-191303D01*
X-5018588Y-111388D01*
X-5127888Y-42507D01*
X-5255479Y16118D01*
X-5402837Y65264D01*
X-5571441Y105711D01*
X-5762769Y138236D01*
X-5791200Y142167D01*
X-5863395Y149279D01*
X-5955397Y154345D01*
X-6061700Y157409D01*
X-6176798Y158515D01*
X-6295184Y157705D01*
X-6411351Y155021D01*
X-6519793Y150509D01*
X-6615003Y144209D01*
X-6691476Y136166D01*
X-6699250Y135068D01*
X-6871992Y106647D01*
X-7024778Y74337D01*
X-7162944Y36616D01*
X-7291822Y-8038D01*
X-7416748Y-61147D01*
X-7461250Y-82370D01*
X-7574730Y-143718D01*
X-7665781Y-207155D01*
X-7737321Y-276403D01*
X-7792268Y-355183D01*
X-7833542Y-447218D01*
X-7864060Y-556229D01*
X-7874666Y-609600D01*
X-7880427Y-655587D01*
X-7885440Y-722482D01*
X-7889642Y-805802D01*
X-7892968Y-901063D01*
X-7895354Y-1003782D01*
X-7896738Y-1109476D01*
X-7897054Y-1213663D01*
X-7896238Y-1311858D01*
X-7894227Y-1399578D01*
X-7890957Y-1472342D01*
X-7887585Y-1514926D01*
X-7859012Y-1717870D01*
X-7817310Y-1900163D01*
X-7762010Y-2063175D01*
X-7692642Y-2208277D01*
X-7608737Y-2336839D01*
X-7603927Y-2343150D01*
X-7511393Y-2446942D01*
X-7405333Y-2533318D01*
X-7280869Y-2606203D01*
X-7270750Y-2611190D01*
X-7193291Y-2646469D01*
X-7119787Y-2673929D01*
X-7044689Y-2694781D01*
X-6962448Y-2710234D01*
X-6867512Y-2721502D01*
X-6754334Y-2729794D01*
X-6718300Y-2731765D01*
X-6609858Y-2737892D01*
X-6523517Y-2744204D01*
X-6455980Y-2751250D01*
X-6403949Y-2759579D01*
X-6364129Y-2769738D01*
X-6333222Y-2782278D01*
X-6307932Y-2797746D01*
X-6303920Y-2800732D01*
X-6280525Y-2820351D01*
X-6259786Y-2842449D01*
X-6241546Y-2868585D01*
X-6225645Y-2900314D01*
X-6211926Y-2939195D01*
X-6200231Y-2986785D01*
X-6190401Y-3044640D01*
X-6182279Y-3114318D01*
X-6175705Y-3197375D01*
X-6170523Y-3295370D01*
X-6166573Y-3409858D01*
X-6163698Y-3542398D01*
X-6161739Y-3694545D01*
X-6160539Y-3867859D01*
X-6159938Y-4063894D01*
X-6159789Y-4219575D01*
X-6159500Y-5067300D01*
X-6588125Y-5067374D01*
X-6733596Y-5067915D01*
X-6856830Y-5069645D01*
X-6960973Y-5072812D01*
X-7049171Y-5077661D01*
X-7124571Y-5084440D01*
X-7190318Y-5093396D01*
X-7249558Y-5104773D01*
X-7305437Y-5118820D01*
X-7327900Y-5125346D01*
X-7453485Y-5174802D01*
X-7562240Y-5242758D01*
X-7654530Y-5329617D01*
X-7730719Y-5435781D01*
X-7791169Y-5561654D01*
X-7829463Y-5680671D01*
X-7845874Y-5746186D01*
X-7859262Y-5808091D01*
X-7869917Y-5869960D01*
X-7878130Y-5935365D01*
X-7884192Y-6007879D01*
X-7888394Y-6091077D01*
X-7891027Y-6188531D01*
X-7892381Y-6303814D01*
X-7892747Y-6440500D01*
X-7892739Y-6457950D01*
X-7892458Y-6581015D01*
X-7891716Y-6682047D01*
X-7890370Y-6764407D01*
X-7888277Y-6831459D01*
X-7885296Y-6886566D01*
X-7881283Y-6933092D01*
X-7876096Y-6974400D01*
X-7869592Y-7013853D01*
X-7869063Y-7016750D01*
X-7835200Y-7164740D01*
X-7790957Y-7291461D01*
X-7734469Y-7398714D01*
X-7663872Y-7488300D01*
X-7577303Y-7562023D01*
X-7472896Y-7621684D01*
X-7348788Y-7669086D01*
X-7203114Y-7706030D01*
X-7144482Y-7717215D01*
X-7064645Y-7727820D01*
X-6960090Y-7735845D01*
X-6831367Y-7741292D01*
X-6679028Y-7744160D01*
X-6503623Y-7744449D01*
X-6305703Y-7742161D01*
X-6085818Y-7737296D01*
X-5844519Y-7729854D01*
X-5582356Y-7719835D01*
X-5492750Y-7716024D01*
X-5355800Y-7709993D01*
X-5226291Y-7704155D01*
X-5106470Y-7698620D01*
X-4998583Y-7693499D01*
X-4904875Y-7688901D01*
X-4827593Y-7684937D01*
X-4768983Y-7681717D01*
X-4731290Y-7679351D01*
X-4716794Y-7677962D01*
X-4710142Y-7663424D01*
X-4703776Y-7626472D01*
X-4698101Y-7570091D01*
X-4694166Y-7510009D01*
X-4682004Y-7284503D01*
X-4670694Y-7082730D01*
X-4660041Y-6903042D01*
X-4649850Y-6743793D01*
X-4639928Y-6603338D01*
X-4630077Y-6480029D01*
X-4620105Y-6372222D01*
X-4609816Y-6278268D01*
X-4599014Y-6196523D01*
X-4587505Y-6125340D01*
X-4575095Y-6063072D01*
X-4561588Y-6008073D01*
X-4546789Y-5958697D01*
X-4530504Y-5913297D01*
X-4512538Y-5870228D01*
X-4495771Y-5834165D01*
X-4441638Y-5741521D01*
X-4375568Y-5665383D01*
X-4294586Y-5603555D01*
X-4195716Y-5553836D01*
X-4075981Y-5514027D01*
X-4055044Y-5508521D01*
X-4023296Y-5500752D01*
X-3993415Y-5494552D01*
X-3962141Y-5489754D01*
X-3926212Y-5486193D01*
X-3882365Y-5483704D01*
X-3827340Y-5482122D01*
X-3757874Y-5481282D01*
X-3670706Y-5481016D01*
X-3562575Y-5481162D01*
X-3517900Y-5481283D01*
X-3357350Y-5482470D01*
X-3211089Y-5485262D01*
X-3070797Y-5489988D01*
X-2928155Y-5496976D01*
X-2774845Y-5506553D01*
X-2648395Y-5515594D01*
X-2544918Y-5523142D01*
X-2449685Y-5529783D01*
X-2365604Y-5535337D01*
X-2295586Y-5539625D01*
X-2242538Y-5542467D01*
X-2209371Y-5543685D01*
X-2198949Y-5543282D01*
X-2194551Y-5530528D01*
X-2183372Y-5495028D01*
X-2165891Y-5438374D01*
X-2142586Y-5362161D01*
X-2113934Y-5267982D01*
X-2080414Y-5157431D01*
X-2042503Y-5032102D01*
X-2000680Y-4893588D01*
X-1955423Y-4743484D01*
X-1907209Y-4583383D01*
X-1856517Y-4414879D01*
X-1803824Y-4239565D01*
X-1749610Y-4059036D01*
X-1694350Y-3874885D01*
X-1638525Y-3688707D01*
X-1592221Y-3534165D01*
X243516Y-3534165D01*
X246337Y-3609943D01*
X255339Y-3674894D01*
X270416Y-3730962D01*
X291464Y-3780091D01*
X305202Y-3804301D01*
X356419Y-3870513D01*
X428000Y-3939178D01*
X515497Y-4007323D01*
X614461Y-4071975D01*
X720441Y-4130162D01*
X828990Y-4178912D01*
X908050Y-4207068D01*
X1093346Y-4253238D01*
X1276332Y-4274722D01*
X1459555Y-4271766D01*
X1517650Y-4265821D01*
X1694326Y-4233116D01*
X1859279Y-4180195D01*
X2010707Y-4107963D01*
X2146807Y-4017322D01*
X2265778Y-3909175D01*
X2296122Y-3875478D01*
X2366003Y-3791187D01*
X2419002Y-3718589D01*
X2457283Y-3652569D01*
X2483012Y-3588018D01*
X2498353Y-3519821D01*
X2505471Y-3442869D01*
X2506719Y-3378200D01*
X2505721Y-3320486D01*
X2502586Y-3261573D01*
X2496886Y-3199142D01*
X2488193Y-3130877D01*
X2476080Y-3054458D01*
X2460119Y-2967569D01*
X2439881Y-2867891D01*
X2414939Y-2753107D01*
X2384866Y-2620899D01*
X2349232Y-2468948D01*
X2307611Y-2294938D01*
X2303926Y-2279650D01*
X2243845Y-2033488D01*
X2187926Y-1811094D01*
X2135711Y-1611262D01*
X2086743Y-1432782D01*
X2040564Y-1274447D01*
X1996715Y-1135049D01*
X1954740Y-1013380D01*
X1914180Y-908233D01*
X1874578Y-818399D01*
X1835477Y-742671D01*
X1796417Y-679840D01*
X1756942Y-628700D01*
X1737569Y-609177D01*
X4527425Y-609177D01*
X4528458Y-708153D01*
X4531569Y-807636D01*
X4536716Y-902668D01*
X4543856Y-988291D01*
X4551131Y-1047750D01*
X4579676Y-1221695D01*
X4617245Y-1417677D01*
X4663471Y-1634129D01*
X4717988Y-1869487D01*
X4780429Y-2122186D01*
X4850428Y-2390662D01*
X4927619Y-2673349D01*
X4952563Y-2762250D01*
X5029277Y-3034316D01*
X5099296Y-3283359D01*
X5162989Y-3510755D01*
X5220723Y-3717878D01*
X5272867Y-3906104D01*
X5319790Y-4076808D01*
X5361860Y-4231365D01*
X5399444Y-4371151D01*
X5432912Y-4497540D01*
X5462631Y-4611908D01*
X5488970Y-4715631D01*
X5512296Y-4810083D01*
X5532980Y-4896639D01*
X5551387Y-4976676D01*
X5567888Y-5051568D01*
X5576627Y-5092700D01*
X5621578Y-5298600D01*
X5670589Y-5507488D01*
X5722901Y-5716862D01*
X5777751Y-5924217D01*
X5834381Y-6127053D01*
X5892028Y-6322866D01*
X5949932Y-6509153D01*
X6007333Y-6683412D01*
X6063470Y-6843140D01*
X6117582Y-6985834D01*
X6168908Y-7108993D01*
X6216688Y-7210112D01*
X6225129Y-7226300D01*
X6287046Y-7325497D01*
X6357658Y-7403387D01*
X6441163Y-7463662D01*
X6541758Y-7510012D01*
X6551846Y-7513645D01*
X6617266Y-7531263D01*
X6688177Y-7541435D01*
X6757052Y-7543857D01*
X6816365Y-7538222D01*
X6855455Y-7525956D01*
X6879106Y-7511734D01*
X6901460Y-7493882D01*
X6922564Y-7471667D01*
X6942465Y-7444357D01*
X6961210Y-7411219D01*
X6978846Y-7371522D01*
X6995420Y-7324533D01*
X7010980Y-7269520D01*
X7025571Y-7205749D01*
X7039242Y-7132490D01*
X7052038Y-7049009D01*
X7064008Y-6954574D01*
X7075198Y-6848453D01*
X7085655Y-6729913D01*
X7095426Y-6598223D01*
X7104558Y-6452649D01*
X7113098Y-6292460D01*
X7121093Y-6116923D01*
X7128591Y-5925305D01*
X7135637Y-5716875D01*
X7142279Y-5490900D01*
X7148565Y-5246647D01*
X7154541Y-4983385D01*
X7160253Y-4700381D01*
X7165750Y-4396902D01*
X7171078Y-4072217D01*
X7176284Y-3725592D01*
X7181415Y-3356296D01*
X7186517Y-2963596D01*
X7191640Y-2546760D01*
X7195394Y-2228850D01*
X7197129Y-2023298D01*
X7197560Y-1821377D01*
X7196739Y-1625571D01*
X7194719Y-1438360D01*
X7191551Y-1262228D01*
X7187288Y-1099657D01*
X7181982Y-953128D01*
X7175684Y-825123D01*
X7168446Y-718126D01*
X7162316Y-652071D01*
X7140027Y-497464D01*
X7109273Y-366701D01*
X7070014Y-259665D01*
X7022213Y-176240D01*
X6993644Y-141812D01*
X6962372Y-114477D01*
X6917731Y-82022D01*
X6868878Y-51060D01*
X6864350Y-48436D01*
X6753769Y15958D01*
X6661789Y71846D01*
X6584312Y122113D01*
X6517238Y169649D01*
X6456466Y217339D01*
X6397899Y268071D01*
X6345426Y317046D01*
X6297668Y365156D01*
X6251232Y415916D01*
X6212952Y461685D01*
X6197407Y482600D01*
X6117155Y581174D01*
X6028800Y656573D01*
X5933206Y708372D01*
X5831238Y736145D01*
X5723761Y739466D01*
X5684891Y734755D01*
X5593318Y711171D01*
X5514854Y670539D01*
X5446655Y610587D01*
X5385881Y529044D01*
X5351507Y468247D01*
X5314362Y401975D01*
X5276083Y348118D01*
X5228693Y296202D01*
X5197934Y266621D01*
X5158030Y230990D01*
X5118349Y199810D01*
X5074715Y170642D01*
X5022954Y141046D01*
X4958892Y108583D01*
X4878352Y70814D01*
X4809903Y39897D01*
X4725575Y-11540D01*
X4653948Y-84022D01*
X4596202Y-175961D01*
X4553515Y-285767D01*
X4544915Y-317500D01*
X4537215Y-364869D01*
X4531761Y-432577D01*
X4528512Y-515666D01*
X4527425Y-609177D01*
X1737569Y-609177D01*
X1716594Y-588041D01*
X1674914Y-556657D01*
X1644409Y-539414D01*
X1608220Y-525447D01*
X1564805Y-517618D01*
X1506340Y-514709D01*
X1485098Y-514613D01*
X1427265Y-515894D01*
X1384601Y-520854D01*
X1346918Y-531671D01*
X1304030Y-550523D01*
X1293857Y-555485D01*
X1204655Y-610735D01*
X1118133Y-687522D01*
X1034143Y-786190D01*
X952538Y-907089D01*
X873170Y-1050563D01*
X795891Y-1216960D01*
X720553Y-1406626D01*
X647010Y-1619908D01*
X575113Y-1857154D01*
X504715Y-2118709D01*
X435669Y-2404920D01*
X367825Y-2716134D01*
X362223Y-2743200D01*
X325769Y-2924786D01*
X296122Y-3083876D01*
X273178Y-3222414D01*
X256832Y-3342345D01*
X246979Y-3445614D01*
X243516Y-3534165D01*
X-1592221Y-3534165D01*
X-1582611Y-3502093D01*
X-1527087Y-3316640D01*
X-1472431Y-3133940D01*
X-1419120Y-2955586D01*
X-1367633Y-2783174D01*
X-1318448Y-2618296D01*
X-1272043Y-2462547D01*
X-1228895Y-2317519D01*
X-1189483Y-2184808D01*
X-1154285Y-2066006D01*
X-1123779Y-1962708D01*
X-1098442Y-1876507D01*
X-1078753Y-1808997D01*
X-1073464Y-1790700D01*
X-1012875Y-1578298D01*
X-960105Y-1388378D01*
X-914831Y-1219359D01*
X-876728Y-1069663D01*
X-845473Y-937711D01*
X-820743Y-821925D01*
X-802213Y-720725D01*
X-789561Y-632532D01*
X-782462Y-555768D01*
X-780594Y-488854D01*
X-783632Y-430211D01*
X-787860Y-397171D01*
X-798152Y-343485D01*
X-812047Y-296901D01*
X-832013Y-254277D01*
X-860515Y-212471D01*
X-900018Y-168342D01*
X-952989Y-118748D01*
X-1021894Y-60547D01*
X-1103317Y4755D01*
X-1220192Y99508D01*
X-1317199Y183949D01*
X-1396292Y260766D01*
X-1459424Y332646D01*
X-1508550Y402275D01*
X-1545623Y472341D01*
X-1572598Y545530D01*
X-1591427Y624529D01*
X-1601452Y689785D01*
X-1605535Y731712D01*
X-1607533Y778267D01*
X-1607253Y831691D01*
X-1604501Y894225D01*
X-1599084Y968109D01*
X-1590809Y1055585D01*
X-1579482Y1158893D01*
X-1564910Y1280274D01*
X-1546899Y1421968D01*
X-1525256Y1586218D01*
X-1521960Y1610880D01*
X-1455090Y2110509D01*
X945680Y2104262D01*
X1282980Y2103324D01*
X1596176Y2102311D01*
X1886563Y2101197D01*
X2155436Y2099955D01*
X2404090Y2098559D01*
X2633821Y2096981D01*
X2845923Y2095196D01*
X3041693Y2093175D01*
X3222425Y2090893D01*
X3389416Y2088322D01*
X3543959Y2085436D01*
X3687351Y2082208D01*
X3820887Y2078612D01*
X3945862Y2074619D01*
X4063571Y2070205D01*
X4175310Y2065342D01*
X4282375Y2060003D01*
X4386059Y2054161D01*
X4487660Y2047790D01*
X4588471Y2040863D01*
X4689789Y2033353D01*
X4792908Y2025234D01*
X4800600Y2024612D01*
X4930911Y2013637D01*
X5038639Y2003417D01*
X5126564Y1993365D01*
X5197468Y1982898D01*
X5254132Y1971430D01*
X5299336Y1958378D01*
X5335862Y1943156D01*
X5366490Y1925180D01*
X5394002Y1903866D01*
X5399965Y1898624D01*
X5471540Y1850854D01*
X5559586Y1819160D01*
X5660505Y1804051D01*
X5770694Y1806041D01*
X5886553Y1825641D01*
X5896378Y1828092D01*
X5969352Y1848872D01*
X6027111Y1871462D01*
X6079666Y1900622D01*
X6137030Y1941114D01*
X6142017Y1944902D01*
X6177512Y1968765D01*
X6217200Y1988065D01*
X6265108Y2003829D01*
X6325261Y2017082D01*
X6401687Y2028850D01*
X6498410Y2040160D01*
X6527800Y2043194D01*
X6633510Y2053221D01*
X6743230Y2062245D01*
X6858580Y2070308D01*
X6981185Y2077452D01*
X7112667Y2083719D01*
X7254648Y2089150D01*
X7408751Y2093789D01*
X7576599Y2097676D01*
X7759815Y2100853D01*
X7960021Y2103363D01*
X8178840Y2105248D01*
X8417895Y2106550D01*
X8678809Y2107310D01*
X8963204Y2107570D01*
X9017000Y2107567D01*
X10255250Y2107333D01*
X10699750Y1305443D01*
X10866836Y1003687D01*
X11022612Y721621D01*
X11168343Y456870D01*
X11305298Y207056D01*
X11434744Y-30195D01*
X11557947Y-257262D01*
X11676176Y-476519D01*
X11790696Y-690343D01*
X11902777Y-901110D01*
X12013684Y-1111197D01*
X12124685Y-1322980D01*
X12237047Y-1538835D01*
X12352038Y-1761138D01*
X12470924Y-1992267D01*
X12594974Y-2234596D01*
X12725453Y-2490502D01*
X12753871Y-2546350D01*
X12843217Y-2721727D01*
X12922333Y-2876384D01*
X12992305Y-3012341D01*
X13054222Y-3131617D01*
X13109168Y-3236231D01*
X13158232Y-3328203D01*
X13202499Y-3409553D01*
X13243058Y-3482300D01*
X13280994Y-3548463D01*
X13317394Y-3610062D01*
X13353346Y-3669117D01*
X13387661Y-3724047D01*
X13487989Y-3874573D01*
X13584322Y-4002220D01*
X13676255Y-4106535D01*
X13763381Y-4187062D01*
X13845295Y-4243348D01*
X13856075Y-4249138D01*
X13897008Y-4268304D01*
X13933975Y-4279207D01*
X13977217Y-4283982D01*
X14027150Y-4284816D01*
X14074249Y-4283406D01*
X14117101Y-4278730D01*
X14155903Y-4269652D01*
X14190855Y-4255033D01*
X14222156Y-4233735D01*
X14250006Y-4204619D01*
X14274602Y-4166547D01*
X14296145Y-4118381D01*
X14314833Y-4058983D01*
X14330866Y-3987214D01*
X14344442Y-3901937D01*
X14355761Y-3802012D01*
X14365022Y-3686302D01*
X14372423Y-3553669D01*
X14378164Y-3402973D01*
X14382445Y-3233077D01*
X14385463Y-3042843D01*
X14387418Y-2831132D01*
X14388510Y-2596806D01*
X14388937Y-2338727D01*
X14388965Y-2216150D01*
X14388721Y-1966409D01*
X14387976Y-1740624D01*
X14386635Y-1537354D01*
X14384604Y-1355159D01*
X14381789Y-1192597D01*
X14378096Y-1048227D01*
X14373431Y-920609D01*
X14367700Y-808302D01*
X14360809Y-709866D01*
X14352663Y-623858D01*
X14343169Y-548839D01*
X14332232Y-483368D01*
X14319759Y-426003D01*
X14305655Y-375304D01*
X14289826Y-329831D01*
X14272179Y-288142D01*
X14261628Y-266234D01*
X14234409Y-219029D01*
X14201244Y-176808D01*
X14158800Y-136945D01*
X14103740Y-96815D01*
X14032731Y-53796D01*
X13942437Y-5261D01*
X13907086Y12794D01*
X13800104Y69583D01*
X13714305Y121696D01*
X13646541Y171743D01*
X13593664Y222335D01*
X13552523Y276082D01*
X13521375Y332591D01*
X13502270Y376616D01*
X13485750Y423093D01*
X13471641Y474104D01*
X13459764Y531735D01*
X13449943Y598068D01*
X13442002Y675189D01*
X13435764Y765180D01*
X13431053Y870127D01*
X13427692Y992113D01*
X13425504Y1133222D01*
X13424313Y1295538D01*
X13423943Y1481146D01*
X13423943Y1482725D01*
X13423900Y2108200D01*
X14144625Y2108385D01*
X14350384Y2108751D01*
X14533232Y2109792D01*
X14695653Y2111592D01*
X14840128Y2114233D01*
X14969139Y2117799D01*
X15085171Y2122372D01*
X15190704Y2128037D01*
X15288221Y2134875D01*
X15380206Y2142970D01*
X15469140Y2152406D01*
X15472917Y2152841D01*
X15624567Y2172917D01*
X15752666Y2195557D01*
X15858976Y2221245D01*
X15945262Y2250461D01*
X16013285Y2283688D01*
X16053219Y2311398D01*
X16082685Y2329882D01*
X16124745Y2346452D01*
X16182225Y2361799D01*
X16257949Y2376611D01*
X16354741Y2391579D01*
X16414750Y2399707D01*
X16537720Y2414419D01*
X16671977Y2427861D01*
X16818511Y2440060D01*
X16978312Y2451044D01*
X17152370Y2460841D01*
X17341672Y2469477D01*
X17547210Y2476982D01*
X17769973Y2483381D01*
X18010951Y2488704D01*
X18271132Y2492976D01*
X18551507Y2496227D01*
X18853065Y2498483D01*
X19176796Y2499772D01*
X19523689Y2500122D01*
X19894735Y2499560D01*
X19989800Y2499285D01*
X21177250Y2495550D01*
X21175367Y1758950D01*
X21174687Y1574749D01*
X21173582Y1413840D01*
X21171945Y1274116D01*
X21169669Y1153471D01*
X21166648Y1049800D01*
X21162775Y960995D01*
X21157945Y884951D01*
X21152049Y819561D01*
X21144983Y762720D01*
X21136639Y712321D01*
X21126910Y666257D01*
X21118387Y632335D01*
X21084830Y534707D01*
X21040237Y457571D01*
X20981222Y397454D01*
X20904397Y350885D01*
X20808950Y315161D01*
X20756504Y298051D01*
X20706613Y279502D01*
X20672254Y264544D01*
X20627678Y234556D01*
X20588557Y191100D01*
X20554467Y132663D01*
X20524983Y57731D01*
X20499678Y-35208D01*
X20478129Y-147668D01*
X20459910Y-281161D01*
X20444596Y-437203D01*
X20433834Y-584200D01*
X20430546Y-649311D01*
X20427473Y-737911D01*
X20424615Y-848380D01*
X20421973Y-979099D01*
X20419547Y-1128448D01*
X20417337Y-1294808D01*
X20415343Y-1476559D01*
X20413565Y-1672081D01*
X20412003Y-1879756D01*
X20410658Y-2097963D01*
X20409530Y-2325083D01*
X20408618Y-2559498D01*
X20407924Y-2799586D01*
X20407446Y-3043730D01*
X20407186Y-3290308D01*
X20407143Y-3537703D01*
X20407317Y-3784293D01*
X20407710Y-4028461D01*
X20408320Y-4268586D01*
X20409148Y-4503049D01*
X20410194Y-4730230D01*
X20411459Y-4948510D01*
X20412942Y-5156270D01*
X20414643Y-5351889D01*
X20416563Y-5533749D01*
X20418703Y-5700230D01*
X20421061Y-5849712D01*
X20423638Y-5980577D01*
X20426435Y-6091204D01*
X20429451Y-6179974D01*
X20432687Y-6245267D01*
X20433317Y-6254750D01*
X20446877Y-6431113D01*
X20461626Y-6584781D01*
X20478350Y-6718456D01*
X20497838Y-6834841D01*
X20520875Y-6936636D01*
X20548248Y-7026545D01*
X20580744Y-7107268D01*
X20619151Y-7181508D01*
X20664254Y-7251967D01*
X20716841Y-7321347D01*
X20758199Y-7370344D01*
X20907717Y-7523353D01*
X21068927Y-7653834D01*
X21241558Y-7761665D01*
X21425340Y-7846724D01*
X21620004Y-7908891D01*
X21825279Y-7948044D01*
X22040895Y-7964061D01*
X22080313Y-7964478D01*
X22284719Y-7954864D01*
X22476009Y-7925044D01*
X22657329Y-7874326D01*
X22831824Y-7802018D01*
X22842963Y-7796575D01*
X22953356Y-7736430D01*
X23055594Y-7668331D01*
X23150008Y-7591258D01*
X23236927Y-7504192D01*
X23316679Y-7406111D01*
X23389594Y-7295997D01*
X23456002Y-7172828D01*
X23516231Y-7035584D01*
X23570610Y-6883246D01*
X23619470Y-6714793D01*
X23663138Y-6529205D01*
X23701945Y-6325462D01*
X23736219Y-6102543D01*
X23766289Y-5859429D01*
X23792486Y-5595098D01*
X23815138Y-5308532D01*
X23834573Y-4998710D01*
X23850727Y-4673600D01*
X23854832Y-4567401D01*
X23858820Y-4438642D01*
X23862660Y-4290160D01*
X23866318Y-4124795D01*
X23869761Y-3945386D01*
X23872956Y-3754772D01*
X23875870Y-3555791D01*
X23878470Y-3351282D01*
X23880723Y-3144084D01*
X23882596Y-2937037D01*
X23884056Y-2732978D01*
X23885070Y-2534748D01*
X23885605Y-2345184D01*
X23885627Y-2167125D01*
X23885105Y-2003411D01*
X23884004Y-1856881D01*
X23883758Y-1834007D01*
X23880877Y-1613115D01*
X23877402Y-1415839D01*
X23873204Y-1240403D01*
X23868154Y-1085026D01*
X23862121Y-947930D01*
X23854978Y-827337D01*
X23846592Y-721468D01*
X23836836Y-628544D01*
X23825580Y-546788D01*
X23812694Y-474419D01*
X23798048Y-409660D01*
X23781512Y-350732D01*
X23773976Y-327304D01*
X23745683Y-251142D01*
X23713511Y-184102D01*
X23674356Y-122218D01*
X23625112Y-61526D01*
X23562673Y1939D01*
X23483934Y72142D01*
X23418380Y126662D01*
X23301094Y228123D01*
X23205300Y324546D01*
X23128502Y419234D01*
X23068200Y515489D01*
X23021897Y616615D01*
X23000271Y679450D01*
X22986923Y724281D01*
X22975430Y767098D01*
X22965636Y810189D01*
X22957386Y855844D01*
X22950522Y906351D01*
X22944889Y963999D01*
X22940331Y1031075D01*
X22936691Y1109869D01*
X22933814Y1202670D01*
X22931543Y1311764D01*
X22929722Y1439443D01*
X22928195Y1587993D01*
X22926836Y1755775D01*
X22921258Y2501900D01*
X26609016Y2501900D01*
X26602947Y1704975D01*
G36*
X-18376936Y1508125D02*
G01*
X-18377245Y1371866D01*
X-18378118Y1243124D01*
X-18379503Y1124663D01*
X-18381347Y1019248D01*
X-18383598Y929643D01*
X-18386203Y858613D01*
X-18389110Y808920D01*
X-18390561Y793750D01*
X-18409323Y670166D01*
X-18434725Y567041D01*
X-18468706Y479876D01*
X-18513206Y404168D01*
X-18570162Y335417D01*
X-18601187Y304786D01*
X-18636075Y273934D01*
X-18675286Y243158D01*
X-18721265Y211004D01*
X-18776454Y176016D01*
X-18843300Y136738D01*
X-18924246Y91715D01*
X-19021737Y39490D01*
X-19138217Y-21391D01*
X-19218298Y-62712D01*
X-19519945Y-217798D01*
X-19516748Y-3818969D01*
X-19513550Y-7420141D01*
X-19174043Y-7614410D01*
X-19048666Y-7686605D01*
X-18943342Y-7748380D01*
X-18855725Y-7801298D01*
X-18783471Y-7846922D01*
X-18724236Y-7886814D01*
X-18675676Y-7922537D01*
X-18635445Y-7955652D01*
X-18601200Y-7987723D01*
X-18578940Y-8011037D01*
X-18522690Y-8081327D01*
X-18477908Y-8158221D01*
X-18443083Y-8245869D01*
X-18416703Y-8348422D01*
X-18397256Y-8470033D01*
X-18390818Y-8527526D01*
X-18387760Y-8571320D01*
X-18384975Y-8637643D01*
X-18382516Y-8723624D01*
X-18380436Y-8826393D01*
X-18378788Y-8943080D01*
X-18377624Y-9070813D01*
X-18376997Y-9206724D01*
X-18376900Y-9285905D01*
X-18376900Y-9906000D01*
X-23609300Y-9906000D01*
X-23609112Y-9293225D01*
X-23608616Y-9088637D01*
X-23607095Y-8907690D01*
X-23604295Y-8748635D01*
X-23599964Y-8609726D01*
X-23593852Y-8489213D01*
X-23585705Y-8385350D01*
X-23575271Y-8296388D01*
X-23562299Y-8220580D01*
X-23546537Y-8156178D01*
X-23527732Y-8101434D01*
X-23505632Y-8054600D01*
X-23479985Y-8013928D01*
X-23450540Y-7977672D01*
X-23417043Y-7944082D01*
X-23414155Y-7941435D01*
X-23385721Y-7916498D01*
X-23357352Y-7894455D01*
X-23325950Y-7873788D01*
X-23288413Y-7852980D01*
X-23241642Y-7830514D01*
X-23182537Y-7804874D01*
X-23107997Y-7774543D01*
X-23014923Y-7738004D01*
X-22936200Y-7707581D01*
X-22650450Y-7597562D01*
X-22647254Y-3902407D01*
X-22644058Y-207253D01*
X-22952054Y-65289D01*
X-23078323Y-5943D01*
X-23183288Y46411D01*
X-23269423Y93713D01*
X-23339200Y137907D01*
X-23395092Y180935D01*
X-23439573Y224739D01*
X-23475114Y271260D01*
X-23504190Y322441D01*
X-23529272Y380225D01*
X-23533514Y391370D01*
X-23546792Y429021D01*
X-23558222Y467249D01*
X-23567961Y508268D01*
X-23576168Y554293D01*
X-23583000Y607537D01*
X-23588616Y670214D01*
X-23593173Y744539D01*
X-23596829Y832726D01*
X-23599742Y936988D01*
X-23602070Y1059540D01*
X-23603972Y1202596D01*
X-23605604Y1368370D01*
X-23605929Y1406525D01*
X-23611792Y2108200D01*
X-18376900Y2108200D01*
X-18376936Y1508125D01*
X-18376936Y1508125D01*
G37*
X-18376936Y1508125D02*
X-18377245Y1371866D01*
X-18378118Y1243124D01*
X-18379503Y1124663D01*
X-18381347Y1019248D01*
X-18383598Y929643D01*
X-18386203Y858613D01*
X-18389110Y808920D01*
X-18390561Y793750D01*
X-18409323Y670166D01*
X-18434725Y567041D01*
X-18468706Y479876D01*
X-18513206Y404168D01*
X-18570162Y335417D01*
X-18601187Y304786D01*
X-18636075Y273934D01*
X-18675286Y243158D01*
X-18721265Y211004D01*
X-18776454Y176016D01*
X-18843300Y136738D01*
X-18924246Y91715D01*
X-19021737Y39490D01*
X-19138217Y-21391D01*
X-19218298Y-62712D01*
X-19519945Y-217798D01*
X-19516748Y-3818969D01*
X-19513550Y-7420141D01*
X-19174043Y-7614410D01*
X-19048666Y-7686605D01*
X-18943342Y-7748380D01*
X-18855725Y-7801298D01*
X-18783471Y-7846922D01*
X-18724236Y-7886814D01*
X-18675676Y-7922537D01*
X-18635445Y-7955652D01*
X-18601200Y-7987723D01*
X-18578940Y-8011037D01*
X-18522690Y-8081327D01*
X-18477908Y-8158221D01*
X-18443083Y-8245869D01*
X-18416703Y-8348422D01*
X-18397256Y-8470033D01*
X-18390818Y-8527526D01*
X-18387760Y-8571320D01*
X-18384975Y-8637643D01*
X-18382516Y-8723624D01*
X-18380436Y-8826393D01*
X-18378788Y-8943080D01*
X-18377624Y-9070813D01*
X-18376997Y-9206724D01*
X-18376900Y-9285905D01*
X-18376900Y-9906000D01*
X-23609300Y-9906000D01*
X-23609112Y-9293225D01*
X-23608616Y-9088637D01*
X-23607095Y-8907690D01*
X-23604295Y-8748635D01*
X-23599964Y-8609726D01*
X-23593852Y-8489213D01*
X-23585705Y-8385350D01*
X-23575271Y-8296388D01*
X-23562299Y-8220580D01*
X-23546537Y-8156178D01*
X-23527732Y-8101434D01*
X-23505632Y-8054600D01*
X-23479985Y-8013928D01*
X-23450540Y-7977672D01*
X-23417043Y-7944082D01*
X-23414155Y-7941435D01*
X-23385721Y-7916498D01*
X-23357352Y-7894455D01*
X-23325950Y-7873788D01*
X-23288413Y-7852980D01*
X-23241642Y-7830514D01*
X-23182537Y-7804874D01*
X-23107997Y-7774543D01*
X-23014923Y-7738004D01*
X-22936200Y-7707581D01*
X-22650450Y-7597562D01*
X-22647254Y-3902407D01*
X-22644058Y-207253D01*
X-22952054Y-65289D01*
X-23078323Y-5943D01*
X-23183288Y46411D01*
X-23269423Y93713D01*
X-23339200Y137907D01*
X-23395092Y180935D01*
X-23439573Y224739D01*
X-23475114Y271260D01*
X-23504190Y322441D01*
X-23529272Y380225D01*
X-23533514Y391370D01*
X-23546792Y429021D01*
X-23558222Y467249D01*
X-23567961Y508268D01*
X-23576168Y554293D01*
X-23583000Y607537D01*
X-23588616Y670214D01*
X-23593173Y744539D01*
X-23596829Y832726D01*
X-23599742Y936988D01*
X-23602070Y1059540D01*
X-23603972Y1202596D01*
X-23605604Y1368370D01*
X-23605929Y1406525D01*
X-23611792Y2108200D01*
X-18376900Y2108200D01*
X-18376936Y1508125D01*
D11*
X-17400000Y-38750000D03*
X-17400000Y-41290000D03*
D12*
X-19940000Y-38750000D03*
X-19940000Y-41290000D03*
X-22480000Y-38750000D03*
D13*
X-22480000Y-41290000D03*
M02*
