G04 #@! TF.GenerationSoftware,KiCad,Pcbnew,(5.1.2)-1*
G04 #@! TF.CreationDate,2019-07-11T20:21:29-05:00*
G04 #@! TF.ProjectId,keanu-homeboy,6b65616e-752d-4686-9f6d-65626f792e6b,rev?*
G04 #@! TF.SameCoordinates,Original*
G04 #@! TF.FileFunction,Copper,L2,Bot*
G04 #@! TF.FilePolarity,Positive*
%FSLAX46Y46*%
G04 Gerber Fmt 4.6, Leading zero omitted, Abs format (unit mm)*
G04 Created by KiCad (PCBNEW (5.1.2)-1) date 2019-07-11 20:21:29*
%MOMM*%
%LPD*%
G04 APERTURE LIST*
%ADD10C,0.100000*%
%ADD11C,1.250000*%
%ADD12C,1.727200*%
%ADD13O,1.727200X1.727200*%
%ADD14R,1.727200X1.727200*%
%ADD15C,1.400000*%
%ADD16C,0.250000*%
%ADD17C,0.254000*%
G04 APERTURE END LIST*
D10*
G36*
X-11687276Y31068696D02*
G01*
X-11663007Y31065096D01*
X-11639209Y31059135D01*
X-11616109Y31050870D01*
X-11593931Y31040380D01*
X-11572887Y31027767D01*
X-11553182Y31013153D01*
X-11535003Y30996677D01*
X-11518527Y30978498D01*
X-11503913Y30958793D01*
X-11491300Y30937749D01*
X-11480810Y30915571D01*
X-11472545Y30892471D01*
X-11466584Y30868673D01*
X-11462984Y30844404D01*
X-11461780Y30819900D01*
X-11461780Y30069900D01*
X-11462984Y30045396D01*
X-11466584Y30021127D01*
X-11472545Y29997329D01*
X-11480810Y29974229D01*
X-11491300Y29952051D01*
X-11503913Y29931007D01*
X-11518527Y29911302D01*
X-11535003Y29893123D01*
X-11553182Y29876647D01*
X-11572887Y29862033D01*
X-11593931Y29849420D01*
X-11616109Y29838930D01*
X-11639209Y29830665D01*
X-11663007Y29824704D01*
X-11687276Y29821104D01*
X-11711780Y29819900D01*
X-12961780Y29819900D01*
X-12986284Y29821104D01*
X-13010553Y29824704D01*
X-13034351Y29830665D01*
X-13057451Y29838930D01*
X-13079629Y29849420D01*
X-13100673Y29862033D01*
X-13120378Y29876647D01*
X-13138557Y29893123D01*
X-13155033Y29911302D01*
X-13169647Y29931007D01*
X-13182260Y29952051D01*
X-13192750Y29974229D01*
X-13201015Y29997329D01*
X-13206976Y30021127D01*
X-13210576Y30045396D01*
X-13211780Y30069900D01*
X-13211780Y30819900D01*
X-13210576Y30844404D01*
X-13206976Y30868673D01*
X-13201015Y30892471D01*
X-13192750Y30915571D01*
X-13182260Y30937749D01*
X-13169647Y30958793D01*
X-13155033Y30978498D01*
X-13138557Y30996677D01*
X-13120378Y31013153D01*
X-13100673Y31027767D01*
X-13079629Y31040380D01*
X-13057451Y31050870D01*
X-13034351Y31059135D01*
X-13010553Y31065096D01*
X-12986284Y31068696D01*
X-12961780Y31069900D01*
X-11711780Y31069900D01*
X-11687276Y31068696D01*
X-11687276Y31068696D01*
G37*
D11*
X-12336780Y30444900D03*
D10*
G36*
X-11687276Y28268696D02*
G01*
X-11663007Y28265096D01*
X-11639209Y28259135D01*
X-11616109Y28250870D01*
X-11593931Y28240380D01*
X-11572887Y28227767D01*
X-11553182Y28213153D01*
X-11535003Y28196677D01*
X-11518527Y28178498D01*
X-11503913Y28158793D01*
X-11491300Y28137749D01*
X-11480810Y28115571D01*
X-11472545Y28092471D01*
X-11466584Y28068673D01*
X-11462984Y28044404D01*
X-11461780Y28019900D01*
X-11461780Y27269900D01*
X-11462984Y27245396D01*
X-11466584Y27221127D01*
X-11472545Y27197329D01*
X-11480810Y27174229D01*
X-11491300Y27152051D01*
X-11503913Y27131007D01*
X-11518527Y27111302D01*
X-11535003Y27093123D01*
X-11553182Y27076647D01*
X-11572887Y27062033D01*
X-11593931Y27049420D01*
X-11616109Y27038930D01*
X-11639209Y27030665D01*
X-11663007Y27024704D01*
X-11687276Y27021104D01*
X-11711780Y27019900D01*
X-12961780Y27019900D01*
X-12986284Y27021104D01*
X-13010553Y27024704D01*
X-13034351Y27030665D01*
X-13057451Y27038930D01*
X-13079629Y27049420D01*
X-13100673Y27062033D01*
X-13120378Y27076647D01*
X-13138557Y27093123D01*
X-13155033Y27111302D01*
X-13169647Y27131007D01*
X-13182260Y27152051D01*
X-13192750Y27174229D01*
X-13201015Y27197329D01*
X-13206976Y27221127D01*
X-13210576Y27245396D01*
X-13211780Y27269900D01*
X-13211780Y28019900D01*
X-13210576Y28044404D01*
X-13206976Y28068673D01*
X-13201015Y28092471D01*
X-13192750Y28115571D01*
X-13182260Y28137749D01*
X-13169647Y28158793D01*
X-13155033Y28178498D01*
X-13138557Y28196677D01*
X-13120378Y28213153D01*
X-13100673Y28227767D01*
X-13079629Y28240380D01*
X-13057451Y28250870D01*
X-13034351Y28259135D01*
X-13010553Y28265096D01*
X-12986284Y28268696D01*
X-12961780Y28269900D01*
X-11711780Y28269900D01*
X-11687276Y28268696D01*
X-11687276Y28268696D01*
G37*
D11*
X-12336780Y27644900D03*
D10*
G36*
X-18329996Y2293656D02*
G01*
X-18305727Y2290056D01*
X-18281929Y2284095D01*
X-18258829Y2275830D01*
X-18236651Y2265340D01*
X-18215607Y2252727D01*
X-18195902Y2238113D01*
X-18177723Y2221637D01*
X-18161247Y2203458D01*
X-18146633Y2183753D01*
X-18134020Y2162709D01*
X-18123530Y2140531D01*
X-18115265Y2117431D01*
X-18109304Y2093633D01*
X-18105704Y2069364D01*
X-18104500Y2044860D01*
X-18104500Y794860D01*
X-18105704Y770356D01*
X-18109304Y746087D01*
X-18115265Y722289D01*
X-18123530Y699189D01*
X-18134020Y677011D01*
X-18146633Y655967D01*
X-18161247Y636262D01*
X-18177723Y618083D01*
X-18195902Y601607D01*
X-18215607Y586993D01*
X-18236651Y574380D01*
X-18258829Y563890D01*
X-18281929Y555625D01*
X-18305727Y549664D01*
X-18329996Y546064D01*
X-18354500Y544860D01*
X-19104500Y544860D01*
X-19129004Y546064D01*
X-19153273Y549664D01*
X-19177071Y555625D01*
X-19200171Y563890D01*
X-19222349Y574380D01*
X-19243393Y586993D01*
X-19263098Y601607D01*
X-19281277Y618083D01*
X-19297753Y636262D01*
X-19312367Y655967D01*
X-19324980Y677011D01*
X-19335470Y699189D01*
X-19343735Y722289D01*
X-19349696Y746087D01*
X-19353296Y770356D01*
X-19354500Y794860D01*
X-19354500Y2044860D01*
X-19353296Y2069364D01*
X-19349696Y2093633D01*
X-19343735Y2117431D01*
X-19335470Y2140531D01*
X-19324980Y2162709D01*
X-19312367Y2183753D01*
X-19297753Y2203458D01*
X-19281277Y2221637D01*
X-19263098Y2238113D01*
X-19243393Y2252727D01*
X-19222349Y2265340D01*
X-19200171Y2275830D01*
X-19177071Y2284095D01*
X-19153273Y2290056D01*
X-19129004Y2293656D01*
X-19104500Y2294860D01*
X-18354500Y2294860D01*
X-18329996Y2293656D01*
X-18329996Y2293656D01*
G37*
D11*
X-18729500Y1419860D03*
D10*
G36*
X-21129996Y2293656D02*
G01*
X-21105727Y2290056D01*
X-21081929Y2284095D01*
X-21058829Y2275830D01*
X-21036651Y2265340D01*
X-21015607Y2252727D01*
X-20995902Y2238113D01*
X-20977723Y2221637D01*
X-20961247Y2203458D01*
X-20946633Y2183753D01*
X-20934020Y2162709D01*
X-20923530Y2140531D01*
X-20915265Y2117431D01*
X-20909304Y2093633D01*
X-20905704Y2069364D01*
X-20904500Y2044860D01*
X-20904500Y794860D01*
X-20905704Y770356D01*
X-20909304Y746087D01*
X-20915265Y722289D01*
X-20923530Y699189D01*
X-20934020Y677011D01*
X-20946633Y655967D01*
X-20961247Y636262D01*
X-20977723Y618083D01*
X-20995902Y601607D01*
X-21015607Y586993D01*
X-21036651Y574380D01*
X-21058829Y563890D01*
X-21081929Y555625D01*
X-21105727Y549664D01*
X-21129996Y546064D01*
X-21154500Y544860D01*
X-21904500Y544860D01*
X-21929004Y546064D01*
X-21953273Y549664D01*
X-21977071Y555625D01*
X-22000171Y563890D01*
X-22022349Y574380D01*
X-22043393Y586993D01*
X-22063098Y601607D01*
X-22081277Y618083D01*
X-22097753Y636262D01*
X-22112367Y655967D01*
X-22124980Y677011D01*
X-22135470Y699189D01*
X-22143735Y722289D01*
X-22149696Y746087D01*
X-22153296Y770356D01*
X-22154500Y794860D01*
X-22154500Y2044860D01*
X-22153296Y2069364D01*
X-22149696Y2093633D01*
X-22143735Y2117431D01*
X-22135470Y2140531D01*
X-22124980Y2162709D01*
X-22112367Y2183753D01*
X-22097753Y2203458D01*
X-22081277Y2221637D01*
X-22063098Y2238113D01*
X-22043393Y2252727D01*
X-22022349Y2265340D01*
X-22000171Y2275830D01*
X-21977071Y2284095D01*
X-21953273Y2290056D01*
X-21929004Y2293656D01*
X-21904500Y2294860D01*
X-21154500Y2294860D01*
X-21129996Y2293656D01*
X-21129996Y2293656D01*
G37*
D11*
X-21529500Y1419860D03*
D10*
G36*
X-9044676Y2374936D02*
G01*
X-9020407Y2371336D01*
X-8996609Y2365375D01*
X-8973509Y2357110D01*
X-8951331Y2346620D01*
X-8930287Y2334007D01*
X-8910582Y2319393D01*
X-8892403Y2302917D01*
X-8875927Y2284738D01*
X-8861313Y2265033D01*
X-8848700Y2243989D01*
X-8838210Y2221811D01*
X-8829945Y2198711D01*
X-8823984Y2174913D01*
X-8820384Y2150644D01*
X-8819180Y2126140D01*
X-8819180Y876140D01*
X-8820384Y851636D01*
X-8823984Y827367D01*
X-8829945Y803569D01*
X-8838210Y780469D01*
X-8848700Y758291D01*
X-8861313Y737247D01*
X-8875927Y717542D01*
X-8892403Y699363D01*
X-8910582Y682887D01*
X-8930287Y668273D01*
X-8951331Y655660D01*
X-8973509Y645170D01*
X-8996609Y636905D01*
X-9020407Y630944D01*
X-9044676Y627344D01*
X-9069180Y626140D01*
X-9819180Y626140D01*
X-9843684Y627344D01*
X-9867953Y630944D01*
X-9891751Y636905D01*
X-9914851Y645170D01*
X-9937029Y655660D01*
X-9958073Y668273D01*
X-9977778Y682887D01*
X-9995957Y699363D01*
X-10012433Y717542D01*
X-10027047Y737247D01*
X-10039660Y758291D01*
X-10050150Y780469D01*
X-10058415Y803569D01*
X-10064376Y827367D01*
X-10067976Y851636D01*
X-10069180Y876140D01*
X-10069180Y2126140D01*
X-10067976Y2150644D01*
X-10064376Y2174913D01*
X-10058415Y2198711D01*
X-10050150Y2221811D01*
X-10039660Y2243989D01*
X-10027047Y2265033D01*
X-10012433Y2284738D01*
X-9995957Y2302917D01*
X-9977778Y2319393D01*
X-9958073Y2334007D01*
X-9937029Y2346620D01*
X-9914851Y2357110D01*
X-9891751Y2365375D01*
X-9867953Y2371336D01*
X-9843684Y2374936D01*
X-9819180Y2376140D01*
X-9069180Y2376140D01*
X-9044676Y2374936D01*
X-9044676Y2374936D01*
G37*
D11*
X-9444180Y1501140D03*
D10*
G36*
X-6244676Y2374936D02*
G01*
X-6220407Y2371336D01*
X-6196609Y2365375D01*
X-6173509Y2357110D01*
X-6151331Y2346620D01*
X-6130287Y2334007D01*
X-6110582Y2319393D01*
X-6092403Y2302917D01*
X-6075927Y2284738D01*
X-6061313Y2265033D01*
X-6048700Y2243989D01*
X-6038210Y2221811D01*
X-6029945Y2198711D01*
X-6023984Y2174913D01*
X-6020384Y2150644D01*
X-6019180Y2126140D01*
X-6019180Y876140D01*
X-6020384Y851636D01*
X-6023984Y827367D01*
X-6029945Y803569D01*
X-6038210Y780469D01*
X-6048700Y758291D01*
X-6061313Y737247D01*
X-6075927Y717542D01*
X-6092403Y699363D01*
X-6110582Y682887D01*
X-6130287Y668273D01*
X-6151331Y655660D01*
X-6173509Y645170D01*
X-6196609Y636905D01*
X-6220407Y630944D01*
X-6244676Y627344D01*
X-6269180Y626140D01*
X-7019180Y626140D01*
X-7043684Y627344D01*
X-7067953Y630944D01*
X-7091751Y636905D01*
X-7114851Y645170D01*
X-7137029Y655660D01*
X-7158073Y668273D01*
X-7177778Y682887D01*
X-7195957Y699363D01*
X-7212433Y717542D01*
X-7227047Y737247D01*
X-7239660Y758291D01*
X-7250150Y780469D01*
X-7258415Y803569D01*
X-7264376Y827367D01*
X-7267976Y851636D01*
X-7269180Y876140D01*
X-7269180Y2126140D01*
X-7267976Y2150644D01*
X-7264376Y2174913D01*
X-7258415Y2198711D01*
X-7250150Y2221811D01*
X-7239660Y2243989D01*
X-7227047Y2265033D01*
X-7212433Y2284738D01*
X-7195957Y2302917D01*
X-7177778Y2319393D01*
X-7158073Y2334007D01*
X-7137029Y2346620D01*
X-7114851Y2357110D01*
X-7091751Y2365375D01*
X-7067953Y2371336D01*
X-7043684Y2374936D01*
X-7019180Y2376140D01*
X-6269180Y2376140D01*
X-6244676Y2374936D01*
X-6244676Y2374936D01*
G37*
D11*
X-6644180Y1501140D03*
D12*
X-17400000Y-38750000D03*
X-17400000Y-41290000D03*
D13*
X-19940000Y-38750000D03*
X-19940000Y-41290000D03*
X-22480000Y-38750000D03*
D14*
X-22480000Y-41290000D03*
D10*
G36*
X16761724Y4671096D02*
G01*
X16785993Y4667496D01*
X16809791Y4661535D01*
X16832891Y4653270D01*
X16855069Y4642780D01*
X16876113Y4630167D01*
X16895818Y4615553D01*
X16913997Y4599077D01*
X16930473Y4580898D01*
X16945087Y4561193D01*
X16957700Y4540149D01*
X16968190Y4517971D01*
X16976455Y4494871D01*
X16982416Y4471073D01*
X16986016Y4446804D01*
X16987220Y4422300D01*
X16987220Y3172300D01*
X16986016Y3147796D01*
X16982416Y3123527D01*
X16976455Y3099729D01*
X16968190Y3076629D01*
X16957700Y3054451D01*
X16945087Y3033407D01*
X16930473Y3013702D01*
X16913997Y2995523D01*
X16895818Y2979047D01*
X16876113Y2964433D01*
X16855069Y2951820D01*
X16832891Y2941330D01*
X16809791Y2933065D01*
X16785993Y2927104D01*
X16761724Y2923504D01*
X16737220Y2922300D01*
X15987220Y2922300D01*
X15962716Y2923504D01*
X15938447Y2927104D01*
X15914649Y2933065D01*
X15891549Y2941330D01*
X15869371Y2951820D01*
X15848327Y2964433D01*
X15828622Y2979047D01*
X15810443Y2995523D01*
X15793967Y3013702D01*
X15779353Y3033407D01*
X15766740Y3054451D01*
X15756250Y3076629D01*
X15747985Y3099729D01*
X15742024Y3123527D01*
X15738424Y3147796D01*
X15737220Y3172300D01*
X15737220Y4422300D01*
X15738424Y4446804D01*
X15742024Y4471073D01*
X15747985Y4494871D01*
X15756250Y4517971D01*
X15766740Y4540149D01*
X15779353Y4561193D01*
X15793967Y4580898D01*
X15810443Y4599077D01*
X15828622Y4615553D01*
X15848327Y4630167D01*
X15869371Y4642780D01*
X15891549Y4653270D01*
X15914649Y4661535D01*
X15938447Y4667496D01*
X15962716Y4671096D01*
X15987220Y4672300D01*
X16737220Y4672300D01*
X16761724Y4671096D01*
X16761724Y4671096D01*
G37*
D11*
X16362220Y3797300D03*
D10*
G36*
X19561724Y4671096D02*
G01*
X19585993Y4667496D01*
X19609791Y4661535D01*
X19632891Y4653270D01*
X19655069Y4642780D01*
X19676113Y4630167D01*
X19695818Y4615553D01*
X19713997Y4599077D01*
X19730473Y4580898D01*
X19745087Y4561193D01*
X19757700Y4540149D01*
X19768190Y4517971D01*
X19776455Y4494871D01*
X19782416Y4471073D01*
X19786016Y4446804D01*
X19787220Y4422300D01*
X19787220Y3172300D01*
X19786016Y3147796D01*
X19782416Y3123527D01*
X19776455Y3099729D01*
X19768190Y3076629D01*
X19757700Y3054451D01*
X19745087Y3033407D01*
X19730473Y3013702D01*
X19713997Y2995523D01*
X19695818Y2979047D01*
X19676113Y2964433D01*
X19655069Y2951820D01*
X19632891Y2941330D01*
X19609791Y2933065D01*
X19585993Y2927104D01*
X19561724Y2923504D01*
X19537220Y2922300D01*
X18787220Y2922300D01*
X18762716Y2923504D01*
X18738447Y2927104D01*
X18714649Y2933065D01*
X18691549Y2941330D01*
X18669371Y2951820D01*
X18648327Y2964433D01*
X18628622Y2979047D01*
X18610443Y2995523D01*
X18593967Y3013702D01*
X18579353Y3033407D01*
X18566740Y3054451D01*
X18556250Y3076629D01*
X18547985Y3099729D01*
X18542024Y3123527D01*
X18538424Y3147796D01*
X18537220Y3172300D01*
X18537220Y4422300D01*
X18538424Y4446804D01*
X18542024Y4471073D01*
X18547985Y4494871D01*
X18556250Y4517971D01*
X18566740Y4540149D01*
X18579353Y4561193D01*
X18593967Y4580898D01*
X18610443Y4599077D01*
X18628622Y4615553D01*
X18648327Y4630167D01*
X18669371Y4642780D01*
X18691549Y4653270D01*
X18714649Y4661535D01*
X18738447Y4667496D01*
X18762716Y4671096D01*
X18787220Y4672300D01*
X19537220Y4672300D01*
X19561724Y4671096D01*
X19561724Y4671096D01*
G37*
D11*
X19162220Y3797300D03*
D10*
G36*
X15168144Y26211296D02*
G01*
X15192413Y26207696D01*
X15216211Y26201735D01*
X15239311Y26193470D01*
X15261489Y26182980D01*
X15282533Y26170367D01*
X15302238Y26155753D01*
X15320417Y26139277D01*
X15336893Y26121098D01*
X15351507Y26101393D01*
X15364120Y26080349D01*
X15374610Y26058171D01*
X15382875Y26035071D01*
X15388836Y26011273D01*
X15392436Y25987004D01*
X15393640Y25962500D01*
X15393640Y25212500D01*
X15392436Y25187996D01*
X15388836Y25163727D01*
X15382875Y25139929D01*
X15374610Y25116829D01*
X15364120Y25094651D01*
X15351507Y25073607D01*
X15336893Y25053902D01*
X15320417Y25035723D01*
X15302238Y25019247D01*
X15282533Y25004633D01*
X15261489Y24992020D01*
X15239311Y24981530D01*
X15216211Y24973265D01*
X15192413Y24967304D01*
X15168144Y24963704D01*
X15143640Y24962500D01*
X13893640Y24962500D01*
X13869136Y24963704D01*
X13844867Y24967304D01*
X13821069Y24973265D01*
X13797969Y24981530D01*
X13775791Y24992020D01*
X13754747Y25004633D01*
X13735042Y25019247D01*
X13716863Y25035723D01*
X13700387Y25053902D01*
X13685773Y25073607D01*
X13673160Y25094651D01*
X13662670Y25116829D01*
X13654405Y25139929D01*
X13648444Y25163727D01*
X13644844Y25187996D01*
X13643640Y25212500D01*
X13643640Y25962500D01*
X13644844Y25987004D01*
X13648444Y26011273D01*
X13654405Y26035071D01*
X13662670Y26058171D01*
X13673160Y26080349D01*
X13685773Y26101393D01*
X13700387Y26121098D01*
X13716863Y26139277D01*
X13735042Y26155753D01*
X13754747Y26170367D01*
X13775791Y26182980D01*
X13797969Y26193470D01*
X13821069Y26201735D01*
X13844867Y26207696D01*
X13869136Y26211296D01*
X13893640Y26212500D01*
X15143640Y26212500D01*
X15168144Y26211296D01*
X15168144Y26211296D01*
G37*
D11*
X14518640Y25587500D03*
D10*
G36*
X15168144Y29011296D02*
G01*
X15192413Y29007696D01*
X15216211Y29001735D01*
X15239311Y28993470D01*
X15261489Y28982980D01*
X15282533Y28970367D01*
X15302238Y28955753D01*
X15320417Y28939277D01*
X15336893Y28921098D01*
X15351507Y28901393D01*
X15364120Y28880349D01*
X15374610Y28858171D01*
X15382875Y28835071D01*
X15388836Y28811273D01*
X15392436Y28787004D01*
X15393640Y28762500D01*
X15393640Y28012500D01*
X15392436Y27987996D01*
X15388836Y27963727D01*
X15382875Y27939929D01*
X15374610Y27916829D01*
X15364120Y27894651D01*
X15351507Y27873607D01*
X15336893Y27853902D01*
X15320417Y27835723D01*
X15302238Y27819247D01*
X15282533Y27804633D01*
X15261489Y27792020D01*
X15239311Y27781530D01*
X15216211Y27773265D01*
X15192413Y27767304D01*
X15168144Y27763704D01*
X15143640Y27762500D01*
X13893640Y27762500D01*
X13869136Y27763704D01*
X13844867Y27767304D01*
X13821069Y27773265D01*
X13797969Y27781530D01*
X13775791Y27792020D01*
X13754747Y27804633D01*
X13735042Y27819247D01*
X13716863Y27835723D01*
X13700387Y27853902D01*
X13685773Y27873607D01*
X13673160Y27894651D01*
X13662670Y27916829D01*
X13654405Y27939929D01*
X13648444Y27963727D01*
X13644844Y27987996D01*
X13643640Y28012500D01*
X13643640Y28762500D01*
X13644844Y28787004D01*
X13648444Y28811273D01*
X13654405Y28835071D01*
X13662670Y28858171D01*
X13673160Y28880349D01*
X13685773Y28901393D01*
X13700387Y28921098D01*
X13716863Y28939277D01*
X13735042Y28955753D01*
X13754747Y28970367D01*
X13775791Y28982980D01*
X13797969Y28993470D01*
X13821069Y29001735D01*
X13844867Y29007696D01*
X13869136Y29011296D01*
X13893640Y29012500D01*
X15143640Y29012500D01*
X15168144Y29011296D01*
X15168144Y29011296D01*
G37*
D11*
X14518640Y28387500D03*
D10*
G36*
X9591585Y2300876D02*
G01*
X9615853Y2297276D01*
X9639652Y2291315D01*
X9662751Y2283050D01*
X9684930Y2272560D01*
X9705973Y2259948D01*
X9725679Y2245333D01*
X9743857Y2228857D01*
X9760333Y2210679D01*
X9774948Y2190973D01*
X9787560Y2169930D01*
X9798050Y2147751D01*
X9806315Y2124652D01*
X9812276Y2100853D01*
X9815876Y2076585D01*
X9817080Y2052081D01*
X9817080Y752079D01*
X9815876Y727575D01*
X9812276Y703307D01*
X9806315Y679508D01*
X9798050Y656409D01*
X9787560Y634230D01*
X9774948Y613187D01*
X9760333Y593481D01*
X9743857Y575303D01*
X9725679Y558827D01*
X9705973Y544212D01*
X9684930Y531600D01*
X9662751Y521110D01*
X9639652Y512845D01*
X9615853Y506884D01*
X9591585Y503284D01*
X9567081Y502080D01*
X8667079Y502080D01*
X8642575Y503284D01*
X8618307Y506884D01*
X8594508Y512845D01*
X8571409Y521110D01*
X8549230Y531600D01*
X8528187Y544212D01*
X8508481Y558827D01*
X8490303Y575303D01*
X8473827Y593481D01*
X8459212Y613187D01*
X8446600Y634230D01*
X8436110Y656409D01*
X8427845Y679508D01*
X8421884Y703307D01*
X8418284Y727575D01*
X8417080Y752079D01*
X8417080Y2052081D01*
X8418284Y2076585D01*
X8421884Y2100853D01*
X8427845Y2124652D01*
X8436110Y2147751D01*
X8446600Y2169930D01*
X8459212Y2190973D01*
X8473827Y2210679D01*
X8490303Y2228857D01*
X8508481Y2245333D01*
X8528187Y2259948D01*
X8549230Y2272560D01*
X8571409Y2283050D01*
X8594508Y2291315D01*
X8618307Y2297276D01*
X8642575Y2300876D01*
X8667079Y2302080D01*
X9567081Y2302080D01*
X9591585Y2300876D01*
X9591585Y2300876D01*
G37*
D15*
X9117080Y1402080D03*
D10*
G36*
X5591585Y2300876D02*
G01*
X5615853Y2297276D01*
X5639652Y2291315D01*
X5662751Y2283050D01*
X5684930Y2272560D01*
X5705973Y2259948D01*
X5725679Y2245333D01*
X5743857Y2228857D01*
X5760333Y2210679D01*
X5774948Y2190973D01*
X5787560Y2169930D01*
X5798050Y2147751D01*
X5806315Y2124652D01*
X5812276Y2100853D01*
X5815876Y2076585D01*
X5817080Y2052081D01*
X5817080Y752079D01*
X5815876Y727575D01*
X5812276Y703307D01*
X5806315Y679508D01*
X5798050Y656409D01*
X5787560Y634230D01*
X5774948Y613187D01*
X5760333Y593481D01*
X5743857Y575303D01*
X5725679Y558827D01*
X5705973Y544212D01*
X5684930Y531600D01*
X5662751Y521110D01*
X5639652Y512845D01*
X5615853Y506884D01*
X5591585Y503284D01*
X5567081Y502080D01*
X4667079Y502080D01*
X4642575Y503284D01*
X4618307Y506884D01*
X4594508Y512845D01*
X4571409Y521110D01*
X4549230Y531600D01*
X4528187Y544212D01*
X4508481Y558827D01*
X4490303Y575303D01*
X4473827Y593481D01*
X4459212Y613187D01*
X4446600Y634230D01*
X4436110Y656409D01*
X4427845Y679508D01*
X4421884Y703307D01*
X4418284Y727575D01*
X4417080Y752079D01*
X4417080Y2052081D01*
X4418284Y2076585D01*
X4421884Y2100853D01*
X4427845Y2124652D01*
X4436110Y2147751D01*
X4446600Y2169930D01*
X4459212Y2190973D01*
X4473827Y2210679D01*
X4490303Y2228857D01*
X4508481Y2245333D01*
X4528187Y2259948D01*
X4549230Y2272560D01*
X4571409Y2283050D01*
X4594508Y2291315D01*
X4618307Y2297276D01*
X4642575Y2300876D01*
X4667079Y2302080D01*
X5567081Y2302080D01*
X5591585Y2300876D01*
X5591585Y2300876D01*
G37*
D15*
X5117080Y1402080D03*
D16*
X-13709000Y-18623280D02*
X-12159000Y-18623280D01*
X-22480000Y-27394280D02*
X-13709000Y-18623280D01*
X-22480000Y-38750000D02*
X-22480000Y-27394280D01*
X-12159000Y-4013680D02*
X-6644180Y1501140D01*
X-12159000Y-18623280D02*
X-12159000Y-4013680D01*
X5018020Y1501140D02*
X5117080Y1402080D01*
X-6644180Y1501140D02*
X5018020Y1501140D01*
X-18648220Y1501140D02*
X-18729500Y1419860D01*
X-9444180Y1501140D02*
X-18648220Y1501140D01*
X-9444180Y24752300D02*
X-12336780Y27644900D01*
X-9444180Y1501140D02*
X-9444180Y24752300D01*
X9917080Y1402080D02*
X9988200Y1330960D01*
X9117080Y1402080D02*
X9917080Y1402080D01*
X16695880Y1330960D02*
X19162220Y3797300D01*
X9988200Y1330960D02*
X16695880Y1330960D01*
X9117080Y20185940D02*
X14518640Y25587500D01*
X9117080Y1402080D02*
X9117080Y20185940D01*
D17*
G36*
X-494679Y45180104D02*
G01*
X-384469Y45161861D01*
X-273896Y45129874D01*
X-157886Y45082086D01*
X-32132Y45016245D01*
X107971Y44929745D01*
X120527Y44921455D01*
X122380Y44920255D01*
X203813Y44868501D01*
X208192Y44865840D01*
X293742Y44816197D01*
X298282Y44813685D01*
X388864Y44765958D01*
X393427Y44763670D01*
X489955Y44717667D01*
X494409Y44715649D01*
X597799Y44671175D01*
X602038Y44669441D01*
X713204Y44626302D01*
X717153Y44624844D01*
X837009Y44582848D01*
X840621Y44581644D01*
X970082Y44540596D01*
X973336Y44539611D01*
X1113318Y44499318D01*
X1116214Y44498522D01*
X1267630Y44458790D01*
X1270183Y44458148D01*
X1433949Y44418784D01*
X1436179Y44418269D01*
X1613208Y44379078D01*
X1615147Y44378665D01*
X1806355Y44339455D01*
X1808029Y44339123D01*
X2014331Y44299699D01*
X2015771Y44299433D01*
X2238081Y44259601D01*
X2239315Y44259386D01*
X2478548Y44218954D01*
X2479602Y44218780D01*
X2736672Y44177553D01*
X2737569Y44177413D01*
X3013391Y44135199D01*
X3014150Y44135085D01*
X3309640Y44091688D01*
X3310282Y44091595D01*
X3626353Y44046823D01*
X3626892Y44046748D01*
X3964459Y44000406D01*
X3964911Y44000345D01*
X4324890Y43952241D01*
X4325264Y43952191D01*
X4708568Y43902130D01*
X4708877Y43902091D01*
X5116421Y43849880D01*
X5116573Y43849860D01*
X5178314Y43842026D01*
X5178314Y43842027D01*
X5312243Y43824902D01*
X5441423Y43808098D01*
X5562901Y43792019D01*
X5674134Y43777012D01*
X5771989Y43763510D01*
X5854235Y43751817D01*
X5917400Y43742422D01*
X5958305Y43735797D01*
X5967016Y43734141D01*
X6045761Y43714309D01*
X6123151Y43688582D01*
X6201961Y43655543D01*
X6284428Y43613706D01*
X6372472Y43561582D01*
X6467744Y43497780D01*
X6571798Y43420994D01*
X6686071Y43330059D01*
X6812053Y43223825D01*
X6951151Y43101264D01*
X7104973Y42961211D01*
X7220539Y42853767D01*
X7306018Y42772870D01*
X7407742Y42675104D01*
X7523946Y42562238D01*
X7653112Y42435796D01*
X7793610Y42297423D01*
X7943394Y42149169D01*
X8101374Y41992144D01*
X8265704Y41828202D01*
X8434906Y41658836D01*
X8606943Y41486096D01*
X8780616Y41311192D01*
X8954301Y41135762D01*
X9125981Y40961838D01*
X9294439Y40790647D01*
X9458085Y40623789D01*
X9614809Y40463400D01*
X9763696Y40310390D01*
X9902299Y40167243D01*
X10029730Y40034839D01*
X10144090Y39915098D01*
X10243634Y39809789D01*
X10298098Y39751496D01*
X10608916Y39411915D01*
X10898027Y39085674D01*
X11165818Y38772316D01*
X11412433Y38471671D01*
X11638154Y38183405D01*
X11843131Y37907369D01*
X12027662Y37643228D01*
X12191895Y37390877D01*
X12336235Y37149841D01*
X12442730Y36955097D01*
X12509832Y36822009D01*
X12570742Y36691091D01*
X12628643Y36554971D01*
X12686748Y36406066D01*
X12733859Y36277276D01*
X12735009Y36274253D01*
X12854329Y35972143D01*
X12857442Y35964923D01*
X12998622Y35663529D01*
X13002000Y35656840D01*
X13162002Y35361915D01*
X13165782Y35355414D01*
X13341569Y35072713D01*
X13345043Y35067424D01*
X13458279Y34904068D01*
X13672090Y34593382D01*
X13879459Y34262720D01*
X14080284Y33912992D01*
X14272896Y33547441D01*
X14455663Y33169273D01*
X14626962Y32781710D01*
X14785159Y32388033D01*
X14929003Y31990530D01*
X14954528Y31914955D01*
X15020798Y31711367D01*
X15076795Y31527679D01*
X15123412Y31360094D01*
X15161607Y31204630D01*
X15192319Y31057336D01*
X15216494Y30914124D01*
X15235058Y30770727D01*
X15248913Y30622428D01*
X15252111Y30578610D01*
X15252608Y30573318D01*
X15269354Y30427960D01*
X15270761Y30418741D01*
X15301994Y30254703D01*
X15303532Y30247708D01*
X15348684Y30066768D01*
X15350207Y30061203D01*
X15408711Y29865139D01*
X15410185Y29860525D01*
X15481475Y29651114D01*
X15482899Y29647148D01*
X15485006Y29641574D01*
X15393640Y29650572D01*
X14804390Y29647500D01*
X14645640Y29488750D01*
X14645640Y28514500D01*
X14665640Y28514500D01*
X14665640Y28260500D01*
X14645640Y28260500D01*
X14645640Y27286250D01*
X14804390Y27127500D01*
X15393640Y27124428D01*
X15518122Y27136688D01*
X15637820Y27172998D01*
X15748134Y27231963D01*
X15844825Y27311315D01*
X15924177Y27408006D01*
X15983142Y27518320D01*
X16019452Y27638018D01*
X16031712Y27762500D01*
X16028640Y28101750D01*
X15869892Y28260498D01*
X16028640Y28260498D01*
X16028640Y28324585D01*
X16040166Y28291955D01*
X16081992Y28153134D01*
X16114555Y28018727D01*
X16138616Y27884921D01*
X16154827Y27747832D01*
X16163706Y27603595D01*
X16165672Y27448513D01*
X16161117Y27279152D01*
X16150458Y27092207D01*
X16134137Y26884235D01*
X16122725Y26757599D01*
X16122658Y26756831D01*
X16108650Y26590072D01*
X16108487Y26587910D01*
X16097151Y26418298D01*
X16097032Y26416272D01*
X16088480Y26247911D01*
X16088392Y26245870D01*
X16082739Y26082864D01*
X16082682Y26080645D01*
X16080042Y25927099D01*
X16080024Y25924475D01*
X16080510Y25784494D01*
X16080568Y25781069D01*
X16084293Y25658756D01*
X16084510Y25654250D01*
X16090114Y25569428D01*
X16090617Y25563754D01*
X16109055Y25398060D01*
X16109945Y25391586D01*
X16135986Y25232530D01*
X16137324Y25225576D01*
X16172382Y25067355D01*
X16174039Y25060726D01*
X16219530Y24897537D01*
X16221249Y24891885D01*
X16278586Y24717924D01*
X16279948Y24714008D01*
X16331913Y24572102D01*
X16406174Y24363446D01*
X16463419Y24172157D01*
X16505162Y23991267D01*
X16532347Y23815123D01*
X16545781Y23637781D01*
X16546018Y23453228D01*
X16533399Y23255766D01*
X16508082Y23038929D01*
X16505944Y23023644D01*
X16505819Y23022729D01*
X16477325Y22807647D01*
X16477077Y22805652D01*
X16450274Y22575392D01*
X16450080Y22573617D01*
X16424897Y22327140D01*
X16424746Y22325568D01*
X16401108Y22061835D01*
X16400991Y22060448D01*
X16378828Y21778420D01*
X16378738Y21777199D01*
X16357975Y21475837D01*
X16357906Y21474765D01*
X16338473Y21153030D01*
X16338420Y21152091D01*
X16320244Y20808943D01*
X16320203Y20808121D01*
X16303211Y20442523D01*
X16303180Y20441806D01*
X16287299Y20052717D01*
X16287277Y20052145D01*
X16275040Y19715007D01*
X16275039Y19715002D01*
X16261696Y19347068D01*
X16247770Y19003983D01*
X16233008Y18683056D01*
X16217253Y18383783D01*
X16200275Y18104132D01*
X16181895Y17843027D01*
X16161914Y17598970D01*
X16140147Y17370632D01*
X16116392Y17156493D01*
X16090469Y16955193D01*
X16062184Y16765266D01*
X16031341Y16585221D01*
X15997774Y16413748D01*
X15961240Y16249146D01*
X15921562Y16090070D01*
X15878491Y15934893D01*
X15831820Y15782193D01*
X15781297Y15630417D01*
X15726684Y15478084D01*
X15667599Y15323344D01*
X15645566Y15267723D01*
X15644694Y15265460D01*
X15553009Y15020449D01*
X15550941Y15014472D01*
X15474875Y14775585D01*
X15472968Y14768983D01*
X15410493Y14528482D01*
X15408970Y14521908D01*
X15358059Y14272056D01*
X15357034Y14266365D01*
X15318641Y14021416D01*
X15318232Y14018605D01*
X15306138Y13928282D01*
X15305981Y13927063D01*
X15295807Y13845054D01*
X15295599Y13843275D01*
X15287098Y13765830D01*
X15286877Y13763643D01*
X15279806Y13687015D01*
X15279615Y13684718D01*
X15273727Y13605158D01*
X15273590Y13603061D01*
X15268641Y13516820D01*
X15268555Y13515130D01*
X15264299Y13418461D01*
X15264251Y13417235D01*
X15260443Y13306388D01*
X15260418Y13305582D01*
X15256813Y13176810D01*
X15256800Y13176335D01*
X15253178Y13026970D01*
X15248498Y12836524D01*
X15243699Y12669246D01*
X15238596Y12522573D01*
X15233004Y12393891D01*
X15226737Y12280485D01*
X15219640Y12180080D01*
X15211533Y12089903D01*
X15202247Y12007332D01*
X15191567Y11929434D01*
X15179281Y11853484D01*
X15165054Y11776156D01*
X15159646Y11748677D01*
X15138971Y11651294D01*
X15116852Y11560462D01*
X15092007Y11472331D01*
X15063185Y11383456D01*
X15029036Y11290288D01*
X14988204Y11189456D01*
X14939418Y11077848D01*
X14881477Y10952503D01*
X14813057Y10810147D01*
X14736223Y10654311D01*
X14736122Y10654107D01*
X14638023Y10454240D01*
X14637310Y10452763D01*
X14552352Y10273862D01*
X14551457Y10271936D01*
X14479388Y10113389D01*
X14478256Y10110825D01*
X14418821Y9972018D01*
X14417376Y9968499D01*
X14370321Y9848820D01*
X14368468Y9843797D01*
X14333539Y9742633D01*
X14331191Y9735078D01*
X14308134Y9651815D01*
X14305582Y9640670D01*
X14295031Y9582718D01*
X14294770Y9581236D01*
X14280689Y9498333D01*
X14257100Y9401763D01*
X14222444Y9285658D01*
X14176436Y9150068D01*
X14118887Y8994854D01*
X14049536Y8819505D01*
X13968246Y8623721D01*
X13874749Y8406844D01*
X13768659Y8167920D01*
X13765566Y8161044D01*
X13765467Y8160824D01*
X13681524Y7973237D01*
X13681288Y7972705D01*
X13606011Y7802394D01*
X13605727Y7801747D01*
X13539403Y7649406D01*
X13539049Y7648584D01*
X13481967Y7514905D01*
X13481504Y7513807D01*
X13433951Y7399485D01*
X13433306Y7397905D01*
X13395571Y7303634D01*
X13394593Y7301112D01*
X13366963Y7227584D01*
X13365275Y7222806D01*
X13348039Y7170715D01*
X13344544Y7157960D01*
X13337990Y7128000D01*
X13335119Y7104854D01*
X13335063Y7103074D01*
X13336723Y7078233D01*
X13342359Y7056477D01*
X13349192Y7037288D01*
X13359802Y7014766D01*
X13374602Y6994746D01*
X13389636Y6980609D01*
X13412987Y6961982D01*
X13435670Y6947531D01*
X13474277Y6928347D01*
X13486330Y6923117D01*
X13539169Y6903369D01*
X13546831Y6900780D01*
X13621432Y6878195D01*
X13625742Y6876973D01*
X13718730Y6852366D01*
X13721694Y6851620D01*
X13829694Y6825805D01*
X13832042Y6825267D01*
X13951679Y6799059D01*
X13953755Y6798622D01*
X14081655Y6772834D01*
X14083456Y6772485D01*
X14188589Y6752864D01*
X14340638Y6723284D01*
X14515610Y6685168D01*
X14714434Y6638321D01*
X14936460Y6582886D01*
X15181448Y6518920D01*
X15448986Y6446527D01*
X15738821Y6365771D01*
X16050211Y6276859D01*
X16383686Y6179631D01*
X16737749Y6074520D01*
X17113232Y5961271D01*
X17508998Y5840219D01*
X17710781Y5777913D01*
X17710856Y5777890D01*
X18017286Y5683479D01*
X18017705Y5683351D01*
X18303858Y5596268D01*
X18304370Y5596113D01*
X18573948Y5515313D01*
X18574551Y5515134D01*
X18831258Y5439574D01*
X18831937Y5439376D01*
X19079475Y5368012D01*
X19080211Y5367802D01*
X19284023Y5310372D01*
X18787220Y5310372D01*
X18613966Y5293308D01*
X18447370Y5242772D01*
X18293834Y5160705D01*
X18159258Y5050262D01*
X18048815Y4915686D01*
X17966748Y4762150D01*
X17916212Y4595554D01*
X17899148Y4422300D01*
X17899148Y3609030D01*
X17623151Y3333033D01*
X17622220Y3511550D01*
X17463470Y3670300D01*
X16489220Y3670300D01*
X16489220Y2446050D01*
X16612694Y2322576D01*
X16381079Y2090960D01*
X10451323Y2090960D01*
X10438088Y2225335D01*
X10387552Y2391931D01*
X10305485Y2545467D01*
X10195042Y2680042D01*
X10060467Y2790485D01*
X9906931Y2872552D01*
X9877080Y2881607D01*
X9877080Y2922300D01*
X15099148Y2922300D01*
X15111408Y2797818D01*
X15147718Y2678120D01*
X15206683Y2567806D01*
X15286035Y2471115D01*
X15382726Y2391763D01*
X15493040Y2332798D01*
X15612738Y2296488D01*
X15737220Y2284228D01*
X16076470Y2287300D01*
X16235220Y2446050D01*
X16235220Y3670300D01*
X15260970Y3670300D01*
X15102220Y3511550D01*
X15099148Y2922300D01*
X9877080Y2922300D01*
X9877080Y4672300D01*
X15099148Y4672300D01*
X15102220Y4083050D01*
X15260970Y3924300D01*
X16235220Y3924300D01*
X16235220Y5148550D01*
X16489220Y5148550D01*
X16489220Y3924300D01*
X17463470Y3924300D01*
X17622220Y4083050D01*
X17625292Y4672300D01*
X17613032Y4796782D01*
X17576722Y4916480D01*
X17517757Y5026794D01*
X17438405Y5123485D01*
X17341714Y5202837D01*
X17231400Y5261802D01*
X17111702Y5298112D01*
X16987220Y5310372D01*
X16647970Y5307300D01*
X16489220Y5148550D01*
X16235220Y5148550D01*
X16076470Y5307300D01*
X15737220Y5310372D01*
X15612738Y5298112D01*
X15493040Y5261802D01*
X15382726Y5202837D01*
X15286035Y5123485D01*
X15206683Y5026794D01*
X15147718Y4916480D01*
X15111408Y4796782D01*
X15099148Y4672300D01*
X9877080Y4672300D01*
X9877080Y19871139D01*
X14330371Y24324428D01*
X15143640Y24324428D01*
X15316894Y24341492D01*
X15483490Y24392028D01*
X15637026Y24474095D01*
X15771602Y24584538D01*
X15882045Y24719114D01*
X15964112Y24872650D01*
X16014648Y25039246D01*
X16031712Y25212500D01*
X16031712Y25962500D01*
X16014648Y26135754D01*
X15964112Y26302350D01*
X15882045Y26455886D01*
X15771602Y26590462D01*
X15637026Y26700905D01*
X15483490Y26782972D01*
X15316894Y26833508D01*
X15143640Y26850572D01*
X13893640Y26850572D01*
X13720386Y26833508D01*
X13553790Y26782972D01*
X13400254Y26700905D01*
X13265678Y26590462D01*
X13155235Y26455886D01*
X13073168Y26302350D01*
X13022632Y26135754D01*
X13005568Y25962500D01*
X13005568Y25212500D01*
X13011241Y25154903D01*
X8606078Y20749739D01*
X8577080Y20725941D01*
X8553282Y20696943D01*
X8553281Y20696942D01*
X8482106Y20610216D01*
X8411534Y20478186D01*
X8387526Y20399039D01*
X8368078Y20334926D01*
X8360219Y20255133D01*
X8353404Y20185940D01*
X8357081Y20148607D01*
X8357080Y2881607D01*
X8327229Y2872552D01*
X8173693Y2790485D01*
X8039118Y2680042D01*
X7928675Y2545467D01*
X7846608Y2391931D01*
X7796072Y2225335D01*
X7779008Y2052081D01*
X7779008Y752079D01*
X7796072Y578825D01*
X7846608Y412229D01*
X7928675Y258693D01*
X8039118Y124118D01*
X8173693Y13675D01*
X8327229Y-68392D01*
X8493825Y-118928D01*
X8667079Y-135992D01*
X9567081Y-135992D01*
X9740335Y-118928D01*
X9906931Y-68392D01*
X10060467Y13675D01*
X10195042Y124118D01*
X10305485Y258693D01*
X10387552Y412229D01*
X10435702Y570960D01*
X16658558Y570960D01*
X16695880Y567284D01*
X16733202Y570960D01*
X16733213Y570960D01*
X16844866Y581957D01*
X16988127Y625414D01*
X17120156Y695986D01*
X17235881Y790959D01*
X17259684Y819963D01*
X18729623Y2289901D01*
X18787220Y2284228D01*
X19537220Y2284228D01*
X19710474Y2301292D01*
X19877070Y2351828D01*
X20030606Y2433895D01*
X20165182Y2544338D01*
X20275625Y2678914D01*
X20357692Y2832450D01*
X20408228Y2999046D01*
X20425292Y3172300D01*
X20425292Y4422300D01*
X20408228Y4595554D01*
X20357692Y4762150D01*
X20275625Y4915686D01*
X20165182Y5050262D01*
X20122133Y5085591D01*
X20312858Y5036631D01*
X20313406Y5036492D01*
X20581070Y4969049D01*
X20581672Y4968899D01*
X20845683Y4903746D01*
X20846571Y4903530D01*
X21089935Y4845327D01*
X21091059Y4845064D01*
X21317351Y4793114D01*
X21318713Y4792809D01*
X21531507Y4746414D01*
X21533087Y4746080D01*
X21735957Y4704543D01*
X21737703Y4704198D01*
X21934224Y4666823D01*
X21936057Y4666489D01*
X22129804Y4632579D01*
X22131624Y4632274D01*
X22326171Y4601131D01*
X22327880Y4600869D01*
X22526802Y4571797D01*
X22528314Y4571585D01*
X22735185Y4543887D01*
X22736074Y4543771D01*
X22812285Y4534114D01*
X22812497Y4534088D01*
X23020795Y4508050D01*
X23275369Y4387016D01*
X23275682Y4386868D01*
X23428111Y4314907D01*
X23428949Y4314515D01*
X23563634Y4252127D01*
X23564791Y4251598D01*
X23686541Y4196675D01*
X23687983Y4196035D01*
X23801607Y4146467D01*
X23803215Y4145779D01*
X23913521Y4099457D01*
X23915103Y4098805D01*
X24026902Y4053618D01*
X24028079Y4053149D01*
X24109266Y4021273D01*
X24110429Y4020823D01*
X24188672Y3990986D01*
X24189841Y3990547D01*
X24276200Y3958584D01*
X24277104Y3958253D01*
X24297411Y3950912D01*
X24290622Y3942334D01*
X24281079Y3923695D01*
X24274710Y3914559D01*
X24257662Y3895551D01*
X24236222Y3859352D01*
X24231491Y3852566D01*
X24219067Y3830389D01*
X24188899Y3779453D01*
X24186137Y3771605D01*
X24182069Y3764343D01*
X24163760Y3708018D01*
X24155330Y3684065D01*
X24153364Y3676038D01*
X24140355Y3636019D01*
X24137751Y3614039D01*
X24127920Y3586089D01*
X24118717Y3521650D01*
X24108848Y3452630D01*
X24108851Y3452575D01*
X24108842Y3452512D01*
X24112644Y3382814D01*
X24116173Y3317897D01*
X24116188Y3317840D01*
X24116191Y3317779D01*
X24132864Y3252712D01*
X24149643Y3187181D01*
X24149669Y3187126D01*
X24149684Y3187069D01*
X24177316Y3129454D01*
X24207972Y3065506D01*
X24225810Y3041715D01*
X24237671Y3016582D01*
X24259063Y2987688D01*
X24260174Y2985857D01*
X24279089Y2960640D01*
X24317961Y2908135D01*
X24319557Y2906686D01*
X24320851Y2904961D01*
X24369471Y2861371D01*
X24417864Y2817436D01*
X24419714Y2816325D01*
X24421318Y2814887D01*
X24477542Y2781599D01*
X24504557Y2765376D01*
X24506489Y2764460D01*
X24537427Y2746143D01*
X24567303Y2735635D01*
X24602047Y2719167D01*
X24641644Y2697159D01*
X24694953Y2680028D01*
X24747640Y2661127D01*
X24792441Y2654443D01*
X24920414Y2626798D01*
X24952191Y2619881D01*
X24952719Y2619819D01*
X24953244Y2619706D01*
X24986007Y2615936D01*
X25190897Y2592031D01*
X25210239Y2588965D01*
X25224287Y2588135D01*
X25238266Y2586504D01*
X25257852Y2586152D01*
X25891964Y2548686D01*
X25897225Y2547935D01*
X25925541Y2546702D01*
X25953834Y2545030D01*
X25959144Y2545238D01*
X26626712Y2516162D01*
X26656140Y1797466D01*
X26655955Y1793397D01*
X26657519Y1763788D01*
X26658727Y1734283D01*
X26659289Y1730265D01*
X26698236Y992894D01*
X26698729Y969954D01*
X26700010Y959302D01*
X26700575Y948604D01*
X26704021Y925948D01*
X26725199Y749842D01*
X26724692Y736534D01*
X26733240Y682979D01*
X26735680Y662686D01*
X26738542Y649757D01*
X26740630Y636675D01*
X26745816Y616900D01*
X26757536Y563954D01*
X26762897Y551761D01*
X26776191Y501064D01*
X26776928Y492429D01*
X26793283Y435883D01*
X26799639Y411643D01*
X26802629Y403567D01*
X26814418Y362808D01*
X26826006Y340433D01*
X26834753Y316812D01*
X26856958Y280673D01*
X26860925Y273014D01*
X26874595Y251969D01*
X26905392Y201847D01*
X26911280Y195492D01*
X26914368Y190739D01*
X26923218Y171938D01*
X26951043Y134278D01*
X26958127Y123372D01*
X26971024Y107234D01*
X27003401Y63413D01*
X27013085Y54603D01*
X27021259Y44376D01*
X27062916Y9275D01*
X27103215Y-27384D01*
X27114434Y-34136D01*
X27124444Y-42571D01*
X27172139Y-68866D01*
X27189857Y-79530D01*
X27201617Y-85118D01*
X27242609Y-107718D01*
X27262410Y-114006D01*
X27287392Y-125878D01*
X27329483Y-148897D01*
X27380349Y-164861D01*
X27430515Y-182914D01*
X27444617Y-185032D01*
X27458225Y-189303D01*
X27511224Y-195036D01*
X27563951Y-202956D01*
X27611881Y-200689D01*
X27664288Y-201191D01*
X27688909Y-204507D01*
X27731580Y-201837D01*
X27740541Y-201923D01*
X27765173Y-199735D01*
X27789834Y-198192D01*
X27798675Y-196759D01*
X27841267Y-192976D01*
X27865107Y-185993D01*
X27891784Y-181670D01*
X27935269Y-244238D01*
X28069912Y-481089D01*
X28483325Y-1314250D01*
X28724494Y-1859304D01*
X28937001Y-2426130D01*
X29122918Y-3020279D01*
X29282020Y-3642130D01*
X29414086Y-4292104D01*
X29518856Y-4970425D01*
X29596085Y-5677340D01*
X29645543Y-6413013D01*
X29667013Y-7177548D01*
X29660308Y-7971077D01*
X29625258Y-8793671D01*
X29561724Y-9645325D01*
X29469577Y-10526215D01*
X29348721Y-11436290D01*
X29199081Y-12375575D01*
X29025205Y-13319071D01*
X29025129Y-13319337D01*
X29019186Y-13351733D01*
X29013061Y-13384970D01*
X29013037Y-13385253D01*
X28812070Y-14480782D01*
X28807504Y-14501395D01*
X28806005Y-14513847D01*
X28803742Y-14526182D01*
X28801986Y-14547225D01*
X28752096Y-14961589D01*
X28748377Y-14987922D01*
X28748081Y-14994940D01*
X28747240Y-15001925D01*
X28746664Y-15028549D01*
X28729933Y-15425228D01*
X28728305Y-15453650D01*
X28728517Y-15458817D01*
X28728299Y-15463979D01*
X28729892Y-15492372D01*
X28746949Y-15908681D01*
X28747065Y-15930146D01*
X28748325Y-15942266D01*
X28748824Y-15954446D01*
X28751801Y-15975707D01*
X28801359Y-16452429D01*
X28802043Y-16466831D01*
X28804835Y-16485868D01*
X28806825Y-16505009D01*
X28809715Y-16519136D01*
X29013036Y-17905365D01*
X29013090Y-17906428D01*
X29017960Y-17938934D01*
X29022650Y-17970911D01*
X29022903Y-17971926D01*
X29475166Y-20990760D01*
X29616861Y-22071054D01*
X29709510Y-22948714D01*
X29759909Y-23693092D01*
X29775118Y-24379340D01*
X29761159Y-25084823D01*
X29723143Y-25884902D01*
X29489498Y-30101901D01*
X29489495Y-30101919D01*
X29487532Y-30137374D01*
X29485776Y-30169075D01*
X29485777Y-30169091D01*
X29382506Y-32034696D01*
X29377773Y-32062124D01*
X29378786Y-32101892D01*
X29378456Y-32107859D01*
X29379644Y-32135535D01*
X29381210Y-32197013D01*
X29382533Y-32202880D01*
X29382791Y-32208888D01*
X29397359Y-32268619D01*
X29403457Y-32295658D01*
X29405338Y-32301335D01*
X29414763Y-32339978D01*
X29426505Y-32365210D01*
X30537654Y-35718272D01*
X31152352Y-37617621D01*
X31343196Y-38271993D01*
X31471724Y-38793994D01*
X31550458Y-39232257D01*
X31593033Y-39645756D01*
X31609967Y-40096203D01*
X31609453Y-40627670D01*
X31578862Y-41343445D01*
X31505331Y-42128902D01*
X31394768Y-42952213D01*
X31254191Y-43773418D01*
X31091121Y-44552864D01*
X30913964Y-45249717D01*
X30730858Y-45827874D01*
X30667707Y-45990114D01*
X30622992Y-46055033D01*
X30565376Y-46128118D01*
X30494727Y-46208609D01*
X30407778Y-46300306D01*
X30341603Y-46367107D01*
X30214694Y-46489807D01*
X30084607Y-46607844D01*
X29948371Y-46723571D01*
X29803297Y-46839016D01*
X29646778Y-46956116D01*
X29476216Y-47076785D01*
X29289065Y-47202891D01*
X29082741Y-47336332D01*
X28901731Y-47449894D01*
X28650415Y-47604214D01*
X28417683Y-47743810D01*
X28202293Y-47869237D01*
X28002544Y-47981329D01*
X27816922Y-48080816D01*
X27643822Y-48168497D01*
X27481705Y-48245135D01*
X27328942Y-48311555D01*
X27183924Y-48368572D01*
X27044952Y-48417037D01*
X26910266Y-48457805D01*
X26778034Y-48491722D01*
X26647148Y-48519467D01*
X26598209Y-48528197D01*
X26553200Y-48534626D01*
X26506783Y-48539203D01*
X26452667Y-48542332D01*
X26385318Y-48544236D01*
X26299824Y-48545124D01*
X26226005Y-48545280D01*
X26091737Y-48543938D01*
X26091532Y-48543930D01*
X25834108Y-48482881D01*
X25518589Y-48381272D01*
X25160020Y-48241826D01*
X24756674Y-48065010D01*
X23773135Y-47589356D01*
X22807708Y-47120742D01*
X22797174Y-47114783D01*
X22777427Y-47106044D01*
X22758039Y-47096633D01*
X22746708Y-47092449D01*
X21890054Y-46713332D01*
X21874637Y-46705606D01*
X21859297Y-46699720D01*
X21844286Y-46693077D01*
X21827922Y-46687682D01*
X21010957Y-46374220D01*
X20991922Y-46366079D01*
X20979564Y-46362175D01*
X20967468Y-46357534D01*
X20947509Y-46352049D01*
X20127882Y-46093128D01*
X20108132Y-46086075D01*
X20095807Y-46082996D01*
X20083709Y-46079174D01*
X20063210Y-46074852D01*
X19200166Y-45859230D01*
X19182912Y-45854073D01*
X19167565Y-45851085D01*
X19152382Y-45847292D01*
X19134548Y-45844658D01*
X18186226Y-45660042D01*
X18173294Y-45656718D01*
X18153193Y-45653611D01*
X18133264Y-45649731D01*
X18119994Y-45648479D01*
X17041350Y-45481738D01*
X17032980Y-45479809D01*
X17008136Y-45476603D01*
X16983350Y-45472772D01*
X16974763Y-45472298D01*
X15690462Y-45306591D01*
X14494284Y-45148495D01*
X13459434Y-44981637D01*
X12572527Y-44803544D01*
X11826678Y-44613297D01*
X11206935Y-44408476D01*
X10955922Y-44306337D01*
X10729114Y-44199575D01*
X10531866Y-44091509D01*
X10362466Y-43982759D01*
X10218736Y-43873818D01*
X10109583Y-43775286D01*
X9940857Y-43574396D01*
X9716404Y-43245087D01*
X9464981Y-42827184D01*
X9214779Y-42368883D01*
X8989023Y-41913854D01*
X8810597Y-41508085D01*
X8699230Y-41196498D01*
X8682724Y-41130134D01*
X8676345Y-41073625D01*
X8674231Y-41049115D01*
X8672573Y-41040219D01*
X8671559Y-41031232D01*
X8666418Y-41007182D01*
X8661888Y-40982870D01*
X8660539Y-40959140D01*
X8649561Y-40916706D01*
X8647724Y-40906846D01*
X8641135Y-40884134D01*
X8635212Y-40861241D01*
X8631761Y-40851825D01*
X8619547Y-40809728D01*
X8608598Y-40788631D01*
X8605562Y-40780348D01*
X8605234Y-40778329D01*
X8582367Y-40717067D01*
X8571469Y-40687335D01*
X8570585Y-40685502D01*
X8569871Y-40683590D01*
X8555894Y-40655051D01*
X8527529Y-40596258D01*
X8526301Y-40594628D01*
X8410194Y-40357561D01*
X8400098Y-40335438D01*
X8395387Y-40327330D01*
X8391276Y-40318935D01*
X8378527Y-40298308D01*
X8170719Y-39940610D01*
X8162528Y-39924869D01*
X8153813Y-39911509D01*
X8145819Y-39897749D01*
X8135466Y-39883383D01*
X7888623Y-39504977D01*
X7884453Y-39497433D01*
X7870236Y-39476791D01*
X7856563Y-39455830D01*
X7851176Y-39449116D01*
X7204968Y-38510849D01*
X7200975Y-38502239D01*
X7166753Y-38455362D01*
X7153004Y-38435399D01*
X7146920Y-38428194D01*
X7121414Y-38393257D01*
X7103475Y-38376751D01*
X7087758Y-38358140D01*
X7053947Y-38331179D01*
X7022119Y-38301893D01*
X7001316Y-38289210D01*
X6982260Y-38274015D01*
X6943830Y-38254164D01*
X6906908Y-38231654D01*
X6884028Y-38223273D01*
X6862376Y-38212088D01*
X6820824Y-38200120D01*
X6811956Y-38196871D01*
X6788451Y-38190795D01*
X6732715Y-38174741D01*
X6723264Y-38173944D01*
X4713156Y-37654333D01*
X3941556Y-37446964D01*
X3286260Y-37253172D01*
X2736811Y-37069373D01*
X2285614Y-36893427D01*
X1924674Y-36724151D01*
X1644238Y-36561094D01*
X1431002Y-36403149D01*
X1254555Y-36233124D01*
X1251236Y-36229343D01*
X1230333Y-36209784D01*
X1209721Y-36189922D01*
X1205773Y-36186803D01*
X1090720Y-36079146D01*
X1088040Y-36075511D01*
X1041516Y-36033105D01*
X1020188Y-36013148D01*
X1016622Y-36010415D01*
X1013304Y-36007390D01*
X989910Y-35989937D01*
X939933Y-35951626D01*
X935880Y-35949630D01*
X755388Y-35814977D01*
X731801Y-35796952D01*
X728419Y-35794858D01*
X725238Y-35792485D01*
X699881Y-35777189D01*
X446819Y-35620510D01*
X419027Y-35603264D01*
X418722Y-35603114D01*
X418433Y-35602935D01*
X389019Y-35588501D01*
X143944Y-35467933D01*
X117050Y-35454360D01*
X113792Y-35453099D01*
X110657Y-35451557D01*
X82469Y-35440978D01*
X-30664Y-35397200D01*
X-30889Y-35397058D01*
X-93286Y-35372968D01*
X-124716Y-35360806D01*
X-124974Y-35360734D01*
X-125226Y-35360637D01*
X-158276Y-35351480D01*
X-222147Y-35333732D01*
X-222408Y-35333712D01*
X-275415Y-35319027D01*
X-306374Y-35307012D01*
X-340261Y-35301061D01*
X-340838Y-35300901D01*
X-373326Y-35295254D01*
X-405972Y-35289521D01*
X-406573Y-35289475D01*
X-440468Y-35283584D01*
X-473664Y-35284389D01*
X-565120Y-35277456D01*
X-623202Y-35271505D01*
X-665893Y-35275541D01*
X-708769Y-35276506D01*
X-765779Y-35289186D01*
X-871470Y-35309778D01*
X-922144Y-35317177D01*
X-969341Y-35333943D01*
X-1017326Y-35348294D01*
X-1062580Y-35372255D01*
X-1145321Y-35411158D01*
X-1166352Y-35417829D01*
X-1206231Y-35439797D01*
X-1216847Y-35444788D01*
X-1235699Y-35456029D01*
X-1254925Y-35466620D01*
X-1264596Y-35473260D01*
X-1303701Y-35496578D01*
X-1320084Y-35511359D01*
X-1388298Y-35558195D01*
X-1391249Y-35559494D01*
X-1443890Y-35596365D01*
X-1468996Y-35613603D01*
X-1471445Y-35615665D01*
X-1474076Y-35617508D01*
X-1497269Y-35637410D01*
X-1546348Y-35678737D01*
X-1548358Y-35681250D01*
X-1918503Y-35998876D01*
X-2198680Y-36226738D01*
X-2511049Y-36436261D01*
X-2876511Y-36641920D01*
X-3293583Y-36841085D01*
X-3760654Y-37031717D01*
X-4276020Y-37212191D01*
X-4837979Y-37381182D01*
X-5424573Y-37532363D01*
X-5424847Y-37532406D01*
X-5458008Y-37540980D01*
X-5489482Y-37549092D01*
X-5489729Y-37549182D01*
X-5864468Y-37646077D01*
X-5884887Y-37650553D01*
X-5897036Y-37654498D01*
X-5909385Y-37657691D01*
X-5928986Y-37664873D01*
X-6198563Y-37752409D01*
X-6199923Y-37752575D01*
X-6262547Y-37773185D01*
X-6293425Y-37783212D01*
X-6294681Y-37783761D01*
X-6295978Y-37784188D01*
X-6325580Y-37797270D01*
X-6386080Y-37823720D01*
X-6387204Y-37824503D01*
X-6562641Y-37902033D01*
X-6579448Y-37906691D01*
X-6624219Y-37929246D01*
X-6639162Y-37935850D01*
X-6654261Y-37944381D01*
X-6669757Y-37952188D01*
X-6683564Y-37960938D01*
X-6727203Y-37985595D01*
X-6740420Y-37996970D01*
X-6895963Y-38095544D01*
X-6921624Y-38107980D01*
X-6952811Y-38131571D01*
X-6957278Y-38134402D01*
X-6979616Y-38151847D01*
X-7002273Y-38168986D01*
X-7006166Y-38172582D01*
X-7036976Y-38196644D01*
X-7055592Y-38218240D01*
X-7188862Y-38341351D01*
X-7210629Y-38357137D01*
X-7238304Y-38387024D01*
X-7243383Y-38391716D01*
X-7261158Y-38411705D01*
X-7279335Y-38431335D01*
X-7283514Y-38436846D01*
X-7310580Y-38467283D01*
X-7324184Y-38490475D01*
X-7431652Y-38632190D01*
X-7441352Y-38641494D01*
X-7472350Y-38685857D01*
X-7484624Y-38702042D01*
X-7491612Y-38713424D01*
X-7499272Y-38724386D01*
X-7509230Y-38742117D01*
X-7537535Y-38788218D01*
X-7542196Y-38800820D01*
X-7663597Y-39016992D01*
X-7678617Y-39043113D01*
X-7680049Y-39046287D01*
X-7681750Y-39049317D01*
X-7693840Y-39076869D01*
X-7834656Y-39389108D01*
X-8056486Y-39844494D01*
X-8442719Y-40557744D01*
X-8941406Y-41434031D01*
X-9491273Y-42363110D01*
X-10094472Y-43317220D01*
X-10681158Y-44158323D01*
X-11248603Y-44886245D01*
X-11515606Y-45197191D01*
X-11776310Y-45479250D01*
X-12025666Y-45727355D01*
X-12261576Y-45940294D01*
X-12481428Y-46116918D01*
X-12681789Y-46256266D01*
X-12858145Y-46357969D01*
X-13004767Y-46423077D01*
X-13115136Y-46455493D01*
X-13126820Y-46456899D01*
X-13131156Y-46457244D01*
X-13235103Y-46464230D01*
X-13360256Y-46471734D01*
X-13431097Y-46475755D01*
X-13431907Y-46475804D01*
X-13540333Y-46482654D01*
X-13541878Y-46482761D01*
X-13620182Y-46488667D01*
X-13734245Y-46494326D01*
X-13755619Y-46494620D01*
X-13767832Y-46495993D01*
X-13780095Y-46496601D01*
X-13801225Y-46499746D01*
X-14154260Y-46539424D01*
X-14158221Y-46539524D01*
X-14187688Y-46543181D01*
X-14217194Y-46546497D01*
X-14221068Y-46547323D01*
X-14844242Y-46624658D01*
X-15987598Y-46739014D01*
X-15992369Y-46739088D01*
X-16021081Y-46742363D01*
X-16049812Y-46745237D01*
X-16054486Y-46746174D01*
X-16620281Y-46810718D01*
X-16635278Y-46811607D01*
X-16653694Y-46814530D01*
X-16672211Y-46816642D01*
X-16686891Y-46819798D01*
X-17263506Y-46911308D01*
X-17278594Y-46912874D01*
X-17296730Y-46916581D01*
X-17314993Y-46919479D01*
X-17329654Y-46923310D01*
X-17916554Y-47043259D01*
X-17930918Y-47045368D01*
X-17949500Y-47049993D01*
X-17968255Y-47053826D01*
X-17982121Y-47058112D01*
X-18588186Y-47208956D01*
X-18601210Y-47211385D01*
X-18620825Y-47217080D01*
X-18640630Y-47222009D01*
X-18653102Y-47226450D01*
X-19287620Y-47410666D01*
X-19298937Y-47413175D01*
X-19319949Y-47420052D01*
X-19341131Y-47426202D01*
X-19351869Y-47430500D01*
X-20024601Y-47650690D01*
X-20034051Y-47653068D01*
X-20056541Y-47661144D01*
X-20079279Y-47668586D01*
X-20088209Y-47672515D01*
X-20809198Y-47931408D01*
X-20816861Y-47933526D01*
X-20840890Y-47942788D01*
X-20865064Y-47951468D01*
X-20872229Y-47954867D01*
X-21675827Y-48264601D01*
X-22135948Y-48439302D01*
X-22524330Y-48569343D01*
X-22856078Y-48659868D01*
X-23010309Y-48689623D01*
X-23072250Y-48693048D01*
X-23173559Y-48696831D01*
X-23276306Y-48699050D01*
X-23374670Y-48699577D01*
X-23462452Y-48698300D01*
X-23533048Y-48695194D01*
X-23569140Y-48691955D01*
X-23718255Y-48670433D01*
X-23866862Y-48642086D01*
X-24017889Y-48605962D01*
X-24175020Y-48560938D01*
X-24341826Y-48505866D01*
X-24521726Y-48439628D01*
X-24718286Y-48361043D01*
X-24867313Y-48298216D01*
X-25073679Y-48208044D01*
X-25285924Y-48112290D01*
X-25502652Y-48011723D01*
X-25722127Y-47907271D01*
X-25943301Y-47799539D01*
X-26164510Y-47689429D01*
X-26384273Y-47577756D01*
X-26601330Y-47465222D01*
X-26814061Y-47352717D01*
X-27021137Y-47240979D01*
X-27221140Y-47130791D01*
X-27412500Y-47023026D01*
X-27593836Y-46918451D01*
X-27763708Y-46817869D01*
X-27920635Y-46722109D01*
X-28063066Y-46632055D01*
X-28189341Y-46548677D01*
X-28297908Y-46472914D01*
X-28386743Y-46406125D01*
X-28395141Y-46399089D01*
X-28468032Y-46221244D01*
X-28710759Y-45501587D01*
X-28982028Y-44565441D01*
X-29256357Y-43510330D01*
X-29509078Y-42434562D01*
X-29567359Y-42153600D01*
X-23981672Y-42153600D01*
X-23969412Y-42278082D01*
X-23933102Y-42397780D01*
X-23874137Y-42508094D01*
X-23794785Y-42604785D01*
X-23698094Y-42684137D01*
X-23587780Y-42743102D01*
X-23468082Y-42779412D01*
X-23343600Y-42791672D01*
X-22765750Y-42788600D01*
X-22607000Y-42629850D01*
X-22607000Y-41417000D01*
X-23819850Y-41417000D01*
X-23978600Y-41575750D01*
X-23981672Y-42153600D01*
X-29567359Y-42153600D01*
X-29716212Y-41436019D01*
X-29854918Y-40610526D01*
X-29889668Y-40312256D01*
X-29900407Y-40107845D01*
X-29879407Y-39688036D01*
X-29820016Y-39215291D01*
X-29733190Y-38768381D01*
X-29627281Y-38398214D01*
X-29533598Y-38118622D01*
X-29527699Y-38103609D01*
X-29522926Y-38086772D01*
X-29517356Y-38070148D01*
X-29513749Y-38054397D01*
X-29433788Y-37772320D01*
X-29428204Y-37755643D01*
X-29424618Y-37739971D01*
X-29420234Y-37724505D01*
X-29417119Y-37707197D01*
X-29350173Y-37414606D01*
X-29345344Y-37397183D01*
X-29342674Y-37381832D01*
X-29339199Y-37366644D01*
X-29336913Y-37348710D01*
X-29283568Y-37041991D01*
X-29279735Y-37024761D01*
X-29277807Y-37008868D01*
X-29275064Y-36993096D01*
X-29273758Y-36975491D01*
X-29234382Y-36650881D01*
X-29231581Y-36634648D01*
X-29230332Y-36617493D01*
X-29228262Y-36600430D01*
X-29227891Y-36583973D01*
X-29202646Y-36237281D01*
X-29200762Y-36222614D01*
X-29200204Y-36203738D01*
X-29198833Y-36184916D01*
X-29199210Y-36170142D01*
X-29188161Y-35796694D01*
X-29187003Y-35783895D01*
X-29187168Y-35763100D01*
X-29186552Y-35742294D01*
X-29187434Y-35729462D01*
X-29190678Y-35319419D01*
X-29189980Y-35303810D01*
X-29190944Y-35285795D01*
X-29191087Y-35267759D01*
X-29192741Y-35252225D01*
X-29245715Y-34262561D01*
X-29245692Y-34247763D01*
X-29247512Y-34228991D01*
X-29248520Y-34210154D01*
X-29250756Y-34195523D01*
X-29366208Y-33004526D01*
X-29366455Y-32995054D01*
X-29369456Y-32971023D01*
X-29371788Y-32946965D01*
X-29373619Y-32937686D01*
X-29552477Y-31505388D01*
X-29552722Y-31499671D01*
X-29556643Y-31472027D01*
X-29560106Y-31444299D01*
X-29561369Y-31438714D01*
X-29804926Y-29721783D01*
X-29804969Y-29720831D01*
X-29809652Y-29688463D01*
X-29814243Y-29656101D01*
X-29814469Y-29655176D01*
X-30056978Y-27979093D01*
X-30236563Y-26617628D01*
X-30351445Y-25516619D01*
X-30405462Y-24587729D01*
X-30402942Y-23736109D01*
X-30346437Y-22862365D01*
X-30236510Y-21870249D01*
X-30077858Y-20697546D01*
X-30076934Y-20693422D01*
X-30073349Y-20664221D01*
X-30069403Y-20635052D01*
X-30069250Y-20630826D01*
X-29954656Y-19697372D01*
X-29952266Y-19684369D01*
X-29950559Y-19663995D01*
X-29948068Y-19643707D01*
X-29947751Y-19630495D01*
X-29872702Y-18734943D01*
X-29870669Y-18720406D01*
X-29869897Y-18701472D01*
X-29868311Y-18682549D01*
X-29868525Y-18667846D01*
X-29833921Y-17819388D01*
X-29832426Y-17802973D01*
X-29832552Y-17785822D01*
X-29831852Y-17768658D01*
X-29832799Y-17752178D01*
X-29838679Y-16952072D01*
X-29838001Y-16933368D01*
X-29838926Y-16918451D01*
X-29839036Y-16903510D01*
X-29841007Y-16884903D01*
X-29887569Y-16134193D01*
X-29888134Y-16112747D01*
X-29889650Y-16100639D01*
X-29890405Y-16088462D01*
X-29893825Y-16067286D01*
X-29981508Y-15366859D01*
X-29983960Y-15342129D01*
X-29985686Y-15333484D01*
X-29986779Y-15324750D01*
X-29992260Y-15300548D01*
X-30121914Y-14651026D01*
X-30127203Y-14622523D01*
X-30128493Y-14618065D01*
X-30129400Y-14613521D01*
X-30137827Y-14585810D01*
X-30304508Y-14009788D01*
X-30306929Y-13998773D01*
X-30313867Y-13977446D01*
X-30320084Y-13955961D01*
X-30324255Y-13945513D01*
X-30517302Y-13352094D01*
X-30699761Y-12732280D01*
X-30867264Y-12101675D01*
X-31019196Y-11464481D01*
X-31154999Y-10824775D01*
X-31274104Y-10186832D01*
X-31376008Y-9554747D01*
X-31460213Y-8932729D01*
X-31526253Y-8324991D01*
X-31573688Y-7735933D01*
X-31602147Y-7169868D01*
X-31611316Y-6631415D01*
X-31601018Y-6125315D01*
X-31571277Y-5656604D01*
X-31522480Y-5230797D01*
X-31456784Y-4860228D01*
X-31341589Y-4444522D01*
X-31170095Y-3991789D01*
X-30955175Y-3528130D01*
X-30715042Y-3087959D01*
X-30470218Y-2705238D01*
X-30238972Y-2406083D01*
X-30155306Y-2317146D01*
X-30094364Y-2263590D01*
X-30087485Y-2259086D01*
X-30073841Y-2254074D01*
X-30046384Y-2245416D01*
X-30032964Y-2243409D01*
X-29982177Y-2225169D01*
X-29962907Y-2219092D01*
X-29950483Y-2213786D01*
X-29937793Y-2209228D01*
X-29919570Y-2200582D01*
X-29869911Y-2179373D01*
X-29858706Y-2171708D01*
X-29846361Y-2165850D01*
X-29843322Y-2165056D01*
X-29785470Y-2136962D01*
X-29757848Y-2123858D01*
X-29755170Y-2122249D01*
X-29752358Y-2120883D01*
X-29726282Y-2104887D01*
X-29671174Y-2071767D01*
X-29668850Y-2069656D01*
X-29433071Y-1925019D01*
X-29407876Y-1909990D01*
X-29404457Y-1907466D01*
X-29400829Y-1905240D01*
X-29377411Y-1887495D01*
X-29052131Y-1647319D01*
X-29032360Y-1633554D01*
X-29025109Y-1627367D01*
X-29017427Y-1621695D01*
X-28999518Y-1605532D01*
X-28688430Y-1340100D01*
X-28683852Y-1336800D01*
X-28662854Y-1318278D01*
X-28641535Y-1300088D01*
X-28637618Y-1296018D01*
X-28326175Y-1021301D01*
X-28004513Y-757920D01*
X-27963284Y-726932D01*
X-27848370Y-721123D01*
X-27840885Y-720522D01*
X-27646223Y-699092D01*
X-27640027Y-698256D01*
X-27428627Y-664384D01*
X-27423653Y-663485D01*
X-27192968Y-617040D01*
X-27190769Y-616577D01*
X-27176330Y-613403D01*
X-27097373Y-596177D01*
X-27002812Y-575874D01*
X-26900096Y-554073D01*
X-26799003Y-532851D01*
X-26726756Y-517865D01*
X-26726189Y-517746D01*
X-26539442Y-478120D01*
X-26537624Y-477720D01*
X-26409797Y-448633D01*
X-26415901Y-453630D01*
X-26416681Y-454274D01*
X-26642855Y-642463D01*
X-26643710Y-643181D01*
X-26855128Y-822262D01*
X-26856088Y-823083D01*
X-27051601Y-992059D01*
X-27052705Y-993024D01*
X-27231164Y-1150899D01*
X-27232473Y-1152074D01*
X-27392729Y-1297850D01*
X-27394335Y-1299336D01*
X-27535239Y-1432017D01*
X-27536557Y-1433276D01*
X-27580552Y-1475911D01*
X-27581791Y-1477128D01*
X-27675727Y-1570685D01*
X-27678015Y-1573024D01*
X-27752258Y-1650879D01*
X-27755808Y-1654759D01*
X-27810494Y-1717079D01*
X-27816580Y-1724570D01*
X-27851848Y-1771523D01*
X-27863733Y-1790678D01*
X-27879722Y-1822430D01*
X-27888686Y-1845657D01*
X-27892946Y-1870186D01*
X-27892306Y-1895345D01*
X-27890337Y-1911053D01*
X-27884834Y-1935333D01*
X-27874700Y-1958074D01*
X-27860324Y-1978400D01*
X-27842259Y-1995532D01*
X-27821199Y-2008809D01*
X-27797953Y-2017723D01*
X-27784490Y-2020646D01*
X-27764289Y-2023895D01*
X-27739439Y-2025420D01*
X-27710942Y-2021095D01*
X-27673393Y-2010932D01*
X-27656677Y-2005131D01*
X-27604996Y-1983051D01*
X-27596371Y-1978976D01*
X-27533773Y-1946475D01*
X-27527818Y-1943178D01*
X-27457520Y-1901753D01*
X-27453185Y-1899080D01*
X-27398445Y-1863792D01*
X-27395028Y-1861510D01*
X-27249854Y-1761132D01*
X-27246958Y-1759069D01*
X-27090722Y-1644446D01*
X-27088334Y-1642650D01*
X-26920069Y-1513005D01*
X-26918100Y-1511457D01*
X-26736836Y-1366010D01*
X-26735211Y-1364684D01*
X-26539979Y-1202659D01*
X-26538636Y-1201529D01*
X-26328468Y-1022146D01*
X-26327358Y-1021188D01*
X-26101283Y-823670D01*
X-26100781Y-823228D01*
X-26090986Y-814579D01*
X-25909196Y-656268D01*
X-25743111Y-516497D01*
X-25590953Y-393872D01*
X-25451274Y-287259D01*
X-25322520Y-195415D01*
X-25203237Y-117137D01*
X-25091375Y-50840D01*
X-25019207Y-12225D01*
X-24916414Y37148D01*
X-24831058Y71068D01*
X-24757389Y92185D01*
X-24687380Y103517D01*
X-24622488Y106914D01*
X-24569289Y106493D01*
X-24539500Y104139D01*
X-24526832Y101242D01*
X-24516581Y96837D01*
X-24482040Y72837D01*
X-24444767Y36868D01*
X-24414562Y-1722D01*
X-24400545Y-27348D01*
X-24387024Y-55911D01*
X-24374218Y-77262D01*
X-24351072Y-101143D01*
X-24340064Y-109859D01*
X-24319124Y-123326D01*
X-24295960Y-132449D01*
X-24271460Y-136878D01*
X-24246568Y-136442D01*
X-24222239Y-131158D01*
X-24199408Y-121230D01*
X-24178952Y-107038D01*
X-24160768Y-87989D01*
X-24150356Y-74527D01*
X-24133418Y-45273D01*
X-24127359Y-30590D01*
X-24122237Y-15586D01*
X-24109861Y29758D01*
X-24107111Y42300D01*
X-24095656Y110965D01*
X-24094748Y117429D01*
X-24084193Y209697D01*
X-24083808Y213591D01*
X-24074135Y329742D01*
X-24073947Y332323D01*
X-24065136Y472639D01*
X-24065034Y474463D01*
X-24061630Y544860D01*
X-22792572Y544860D01*
X-22780312Y420378D01*
X-22744002Y300680D01*
X-22685037Y190366D01*
X-22605685Y93675D01*
X-22508994Y14323D01*
X-22398680Y-44642D01*
X-22278982Y-80952D01*
X-22154500Y-93212D01*
X-21815250Y-90140D01*
X-21656500Y68610D01*
X-21656500Y1292860D01*
X-21402500Y1292860D01*
X-21402500Y68610D01*
X-21243750Y-90140D01*
X-20904500Y-93212D01*
X-20780018Y-80952D01*
X-20660320Y-44642D01*
X-20550006Y14323D01*
X-20453315Y93675D01*
X-20373963Y190366D01*
X-20314998Y300680D01*
X-20278688Y420378D01*
X-20266428Y544860D01*
X-20269500Y1134110D01*
X-20428250Y1292860D01*
X-21402500Y1292860D01*
X-21656500Y1292860D01*
X-22630750Y1292860D01*
X-22789500Y1134110D01*
X-22792572Y544860D01*
X-24061630Y544860D01*
X-24057066Y639223D01*
X-24057008Y640573D01*
X-24049864Y830058D01*
X-24049829Y831091D01*
X-24043490Y1045583D01*
X-24043475Y1046154D01*
X-24041393Y1129271D01*
X-24041392Y1129271D01*
X-24036882Y1305738D01*
X-24032295Y1459187D01*
X-24027400Y1594292D01*
X-24022024Y1713830D01*
X-24015968Y1821496D01*
X-24009052Y1920517D01*
X-24001059Y2014695D01*
X-23991781Y2107569D01*
X-23980948Y2203116D01*
X-23977503Y2231654D01*
X-23956616Y2383952D01*
X-23934282Y2512537D01*
X-23910989Y2616426D01*
X-23887933Y2693137D01*
X-23868678Y2737576D01*
X-23866716Y2740259D01*
X-23832501Y2748838D01*
X-23758707Y2760608D01*
X-23656709Y2771911D01*
X-23528563Y2782218D01*
X-23375269Y2791354D01*
X-23197453Y2799244D01*
X-22995525Y2805849D01*
X-22769860Y2811142D01*
X-22521548Y2815094D01*
X-22605685Y2746045D01*
X-22685037Y2649354D01*
X-22744002Y2539040D01*
X-22780312Y2419342D01*
X-22792572Y2294860D01*
X-22789500Y1705610D01*
X-22630750Y1546860D01*
X-21656500Y1546860D01*
X-21656500Y1566860D01*
X-21402500Y1566860D01*
X-21402500Y1546860D01*
X-20428250Y1546860D01*
X-20269500Y1705610D01*
X-20266428Y2294860D01*
X-20278688Y2419342D01*
X-20314998Y2539040D01*
X-20373963Y2649354D01*
X-20453315Y2746045D01*
X-20526821Y2806369D01*
X-20286007Y2801288D01*
X-19997792Y2793797D01*
X-19720042Y2785146D01*
X-19600918Y2780777D01*
X-19732462Y2672822D01*
X-19842905Y2538246D01*
X-19924972Y2384710D01*
X-19975508Y2218114D01*
X-19992572Y2044860D01*
X-19992572Y794860D01*
X-19975508Y621606D01*
X-19924972Y455010D01*
X-19842905Y301474D01*
X-19732462Y166898D01*
X-19597886Y56455D01*
X-19444350Y-25612D01*
X-19277754Y-76148D01*
X-19104500Y-93212D01*
X-18354500Y-93212D01*
X-18181246Y-76148D01*
X-18014650Y-25612D01*
X-17861114Y56455D01*
X-17726538Y166898D01*
X-17616095Y301474D01*
X-17534028Y455010D01*
X-17483492Y621606D01*
X-17471719Y741140D01*
X-10693956Y741140D01*
X-10690188Y702886D01*
X-10639652Y536290D01*
X-10557585Y382754D01*
X-10447142Y248178D01*
X-10312566Y137735D01*
X-10159030Y55668D01*
X-9992434Y5132D01*
X-9819180Y-11932D01*
X-9232054Y-11932D01*
X-12670002Y-3449881D01*
X-12699000Y-3473679D01*
X-12722798Y-3502677D01*
X-12722799Y-3502678D01*
X-12793974Y-3589404D01*
X-12864546Y-3721434D01*
X-12890694Y-3807635D01*
X-12908002Y-3864694D01*
X-12915150Y-3937271D01*
X-12922676Y-4013680D01*
X-12918999Y-4051012D01*
X-12919000Y-17863280D01*
X-13671678Y-17863280D01*
X-13709001Y-17859604D01*
X-13746324Y-17863280D01*
X-13746333Y-17863280D01*
X-13857986Y-17874277D01*
X-13963975Y-17906428D01*
X-14001247Y-17917734D01*
X-14133277Y-17988306D01*
X-14155503Y-18006547D01*
X-14249001Y-18083279D01*
X-14272799Y-18112277D01*
X-22991002Y-26830481D01*
X-23020000Y-26854279D01*
X-23043798Y-26883277D01*
X-23043799Y-26883278D01*
X-23114974Y-26970004D01*
X-23185546Y-27102034D01*
X-23229002Y-27245295D01*
X-23243676Y-27394280D01*
X-23239999Y-27431612D01*
X-23240000Y-37456984D01*
X-23316606Y-37497931D01*
X-23544797Y-37685203D01*
X-23732069Y-37913394D01*
X-23871225Y-38173736D01*
X-23956916Y-38456223D01*
X-23985851Y-38750000D01*
X-23956916Y-39043777D01*
X-23871225Y-39326264D01*
X-23732069Y-39586606D01*
X-23544797Y-39814797D01*
X-23536735Y-39821414D01*
X-23587780Y-39836898D01*
X-23698094Y-39895863D01*
X-23794785Y-39975215D01*
X-23874137Y-40071906D01*
X-23933102Y-40182220D01*
X-23969412Y-40301918D01*
X-23981672Y-40426400D01*
X-23978600Y-41004250D01*
X-23819850Y-41163000D01*
X-22607000Y-41163000D01*
X-22607000Y-41143000D01*
X-22353000Y-41143000D01*
X-22353000Y-41163000D01*
X-22333000Y-41163000D01*
X-22333000Y-41417000D01*
X-22353000Y-41417000D01*
X-22353000Y-42629850D01*
X-22194250Y-42788600D01*
X-21616400Y-42791672D01*
X-21491918Y-42779412D01*
X-21372220Y-42743102D01*
X-21261906Y-42684137D01*
X-21165215Y-42604785D01*
X-21085863Y-42508094D01*
X-21026898Y-42397780D01*
X-21011414Y-42346735D01*
X-21004797Y-42354797D01*
X-20776606Y-42542069D01*
X-20516264Y-42681225D01*
X-20233777Y-42766916D01*
X-20013619Y-42788600D01*
X-19866381Y-42788600D01*
X-19646223Y-42766916D01*
X-19363736Y-42681225D01*
X-19103394Y-42542069D01*
X-18875203Y-42354797D01*
X-18687931Y-42126606D01*
X-18668117Y-42089537D01*
X-18564039Y-42245302D01*
X-18355302Y-42454039D01*
X-18109853Y-42618042D01*
X-17837125Y-42731010D01*
X-17547599Y-42788600D01*
X-17252401Y-42788600D01*
X-16962875Y-42731010D01*
X-16690147Y-42618042D01*
X-16444698Y-42454039D01*
X-16235961Y-42245302D01*
X-16071958Y-41999853D01*
X-15958990Y-41727125D01*
X-15901400Y-41437599D01*
X-15901400Y-41142401D01*
X-15958990Y-40852875D01*
X-16071958Y-40580147D01*
X-16235961Y-40334698D01*
X-16444698Y-40125961D01*
X-16603281Y-40020000D01*
X-16444698Y-39914039D01*
X-16235961Y-39705302D01*
X-16071958Y-39459853D01*
X-15958990Y-39187125D01*
X-15901400Y-38897599D01*
X-15901400Y-38602401D01*
X-15958990Y-38312875D01*
X-16071958Y-38040147D01*
X-16235961Y-37794698D01*
X-16444698Y-37585961D01*
X-16690147Y-37421958D01*
X-16962875Y-37308990D01*
X-17252401Y-37251400D01*
X-17547599Y-37251400D01*
X-17837125Y-37308990D01*
X-18109853Y-37421958D01*
X-18355302Y-37585961D01*
X-18564039Y-37794698D01*
X-18668117Y-37950463D01*
X-18687931Y-37913394D01*
X-18875203Y-37685203D01*
X-19103394Y-37497931D01*
X-19363736Y-37358775D01*
X-19646223Y-37273084D01*
X-19866381Y-37251400D01*
X-20013619Y-37251400D01*
X-20233777Y-37273084D01*
X-20516264Y-37358775D01*
X-20776606Y-37497931D01*
X-21004797Y-37685203D01*
X-21192069Y-37913394D01*
X-21210000Y-37946940D01*
X-21227931Y-37913394D01*
X-21415203Y-37685203D01*
X-21643394Y-37497931D01*
X-21720000Y-37456984D01*
X-21720000Y-27709081D01*
X-13394198Y-19383280D01*
X-12196333Y-19383280D01*
X-12159000Y-19386957D01*
X-12121667Y-19383280D01*
X-12010014Y-19372283D01*
X-11866753Y-19328826D01*
X-11734724Y-19258254D01*
X-11618999Y-19163281D01*
X-11524026Y-19047556D01*
X-11453454Y-18915527D01*
X-11409997Y-18772266D01*
X-11395323Y-18623280D01*
X-11399000Y-18585947D01*
X-11399000Y-4328481D01*
X-7076777Y-6259D01*
X-7019180Y-11932D01*
X-6269180Y-11932D01*
X-6095926Y5132D01*
X-5929330Y55668D01*
X-5775794Y137735D01*
X-5641218Y248178D01*
X-5530775Y382754D01*
X-5448708Y536290D01*
X-5398172Y702886D01*
X-5394404Y741140D01*
X3780085Y741140D01*
X3796072Y578825D01*
X3846608Y412229D01*
X3928675Y258693D01*
X4039118Y124118D01*
X4173693Y13675D01*
X4327229Y-68392D01*
X4493825Y-118928D01*
X4667079Y-135992D01*
X5567081Y-135992D01*
X5740335Y-118928D01*
X5906931Y-68392D01*
X6060467Y13675D01*
X6195042Y124118D01*
X6305485Y258693D01*
X6387552Y412229D01*
X6438088Y578825D01*
X6455152Y752079D01*
X6455152Y2052081D01*
X6438088Y2225335D01*
X6387552Y2391931D01*
X6305485Y2545467D01*
X6195042Y2680042D01*
X6060467Y2790485D01*
X5906931Y2872552D01*
X5740335Y2923088D01*
X5567081Y2940152D01*
X4667079Y2940152D01*
X4493825Y2923088D01*
X4327229Y2872552D01*
X4173693Y2790485D01*
X4039118Y2680042D01*
X3928675Y2545467D01*
X3846608Y2391931D01*
X3806933Y2261140D01*
X-5394404Y2261140D01*
X-5398172Y2299394D01*
X-5448708Y2465990D01*
X-5530775Y2619526D01*
X-5641218Y2754102D01*
X-5775794Y2864545D01*
X-5929330Y2946612D01*
X-6095926Y2997148D01*
X-6269180Y3014212D01*
X-7019180Y3014212D01*
X-7192434Y2997148D01*
X-7359030Y2946612D01*
X-7512566Y2864545D01*
X-7647142Y2754102D01*
X-7757585Y2619526D01*
X-7839652Y2465990D01*
X-7890188Y2299394D01*
X-7907252Y2126140D01*
X-7907252Y1312870D01*
X-8181108Y1039014D01*
X-8181108Y2126140D01*
X-8198172Y2299394D01*
X-8248708Y2465990D01*
X-8330775Y2619526D01*
X-8441218Y2754102D01*
X-8575794Y2864545D01*
X-8684180Y2922479D01*
X-8684180Y24714978D01*
X-8680504Y24752301D01*
X-8684180Y24789624D01*
X-8684180Y24789633D01*
X-8695177Y24901286D01*
X-8738634Y25044547D01*
X-8776593Y25115563D01*
X-8809206Y25176577D01*
X-8880381Y25263303D01*
X-8904179Y25292301D01*
X-8933177Y25316099D01*
X-10829381Y27212302D01*
X-10823708Y27269900D01*
X-10823708Y27762500D01*
X13005568Y27762500D01*
X13017828Y27638018D01*
X13054138Y27518320D01*
X13113103Y27408006D01*
X13192455Y27311315D01*
X13289146Y27231963D01*
X13399460Y27172998D01*
X13519158Y27136688D01*
X13643640Y27124428D01*
X14232890Y27127500D01*
X14391640Y27286250D01*
X14391640Y28260500D01*
X13167390Y28260500D01*
X13008640Y28101750D01*
X13005568Y27762500D01*
X-10823708Y27762500D01*
X-10823708Y28019900D01*
X-10840772Y28193154D01*
X-10891308Y28359750D01*
X-10973375Y28513286D01*
X-11083818Y28647862D01*
X-11218394Y28758305D01*
X-11371930Y28840372D01*
X-11538526Y28890908D01*
X-11711780Y28907972D01*
X-12961780Y28907972D01*
X-13135034Y28890908D01*
X-13301630Y28840372D01*
X-13455166Y28758305D01*
X-13589742Y28647862D01*
X-13700185Y28513286D01*
X-13782252Y28359750D01*
X-13832788Y28193154D01*
X-13849852Y28019900D01*
X-13849852Y27269900D01*
X-13832788Y27096646D01*
X-13782252Y26930050D01*
X-13700185Y26776514D01*
X-13589742Y26641938D01*
X-13455166Y26531495D01*
X-13301630Y26449428D01*
X-13135034Y26398892D01*
X-12961780Y26381828D01*
X-12148509Y26381828D01*
X-10204179Y24437497D01*
X-10204180Y2922479D01*
X-10312566Y2864545D01*
X-10447142Y2754102D01*
X-10557585Y2619526D01*
X-10639652Y2465990D01*
X-10690188Y2299394D01*
X-10693956Y2261140D01*
X-17496544Y2261140D01*
X-17534028Y2384710D01*
X-17616095Y2538246D01*
X-17619140Y2541956D01*
X-17575225Y2534028D01*
X-17550409Y2532028D01*
X-17534556Y2533305D01*
X-17457145Y2544456D01*
X-17424134Y2553901D01*
X-17342647Y2589730D01*
X-17328039Y2597318D01*
X-17308365Y2609217D01*
X-17288218Y2620802D01*
X-17275817Y2625767D01*
X-17254365Y2630778D01*
X-17212653Y2636462D01*
X-17158613Y2641698D01*
X-17091979Y2646931D01*
X-17024434Y2651110D01*
X-16966445Y2653654D01*
X-16936959Y2654215D01*
X-16934927Y2654270D01*
X-16890952Y2655811D01*
X-16880367Y2656626D01*
X-16847390Y2660557D01*
X-16818882Y2667361D01*
X-16804242Y2672704D01*
X-16781804Y2683491D01*
X-16761901Y2698448D01*
X-16745299Y2717000D01*
X-16732635Y2738435D01*
X-16724396Y2761929D01*
X-16720899Y2786578D01*
X-16722278Y2811436D01*
X-16726853Y2830800D01*
X-16731362Y2844856D01*
X-16746637Y2876532D01*
X-16764688Y2903596D01*
X-16771491Y2912859D01*
X-16799313Y2947353D01*
X-16802413Y2951051D01*
X-16805506Y2954601D01*
X-16841984Y2996790D01*
X-16873211Y3034623D01*
X-16903261Y3073379D01*
X-16935817Y3118042D01*
X-16974277Y3173345D01*
X-17021646Y3243461D01*
X-17062199Y3304291D01*
X-17062356Y3304526D01*
X-17118229Y3387934D01*
X-17119372Y3389611D01*
X-17164990Y3455411D01*
X-17167487Y3458886D01*
X-17206214Y3510912D01*
X-17210667Y3516554D01*
X-17245864Y3558640D01*
X-17252288Y3565757D01*
X-17287317Y3601737D01*
X-17294315Y3608398D01*
X-17332539Y3642106D01*
X-17337960Y3646625D01*
X-17382742Y3681894D01*
X-17385289Y3683849D01*
X-17419117Y3709132D01*
X-17491356Y3765353D01*
X-17535160Y3805865D01*
X-17543343Y3816504D01*
X-17521958Y3840081D01*
X-17499233Y3860561D01*
X-17468908Y3884485D01*
X-17430145Y3911691D01*
X-17380974Y3943059D01*
X-17319691Y3979353D01*
X-17244649Y4021384D01*
X-17154347Y4069934D01*
X-17047229Y4125855D01*
X-16921394Y4190194D01*
X-16775491Y4263727D01*
X-16656839Y4323011D01*
X-16356622Y4471043D01*
X-16075674Y4606277D01*
X-15810864Y4730114D01*
X-15559539Y4843722D01*
X-15319101Y4948247D01*
X-15086724Y5044937D01*
X-14859667Y5134992D01*
X-14635103Y5219649D01*
X-14493057Y5270960D01*
X-14366118Y5314321D01*
X-14243792Y5352236D01*
X-14118169Y5386944D01*
X-13981675Y5420497D01*
X-13826575Y5454942D01*
X-13810334Y5458388D01*
X-13808740Y5458737D01*
X-13660646Y5492154D01*
X-13657491Y5492908D01*
X-13510172Y5530128D01*
X-13507137Y5530935D01*
X-13364630Y5570712D01*
X-13361453Y5571644D01*
X-13227796Y5612736D01*
X-13224144Y5613919D01*
X-13103373Y5655083D01*
X-13098704Y5656777D01*
X-12994857Y5696770D01*
X-12988060Y5699617D01*
X-12905174Y5737194D01*
X-12900069Y5739647D01*
X-12897773Y5740814D01*
X-12889705Y5745290D01*
X-12835745Y5777849D01*
X-12821828Y5787573D01*
X-12775308Y5824938D01*
X-12761138Y5838224D01*
X-12726753Y5875806D01*
X-12708169Y5902193D01*
X-12690617Y5935404D01*
X-12681197Y5958450D01*
X-12677083Y5977454D01*
X-12675783Y5986913D01*
X-12674827Y6011791D01*
X-12677339Y6030438D01*
X-12683781Y6060953D01*
X-12691286Y6084691D01*
X-12699045Y6099902D01*
X-12719222Y6133642D01*
X-12735139Y6154861D01*
X-12770329Y6192771D01*
X-12781970Y6203821D01*
X-12833451Y6246843D01*
X-12841311Y6252906D01*
X-12910360Y6301987D01*
X-12915627Y6305536D01*
X-13003524Y6361619D01*
X-13007078Y6363805D01*
X-13115098Y6427834D01*
X-13117516Y6429232D01*
X-13246939Y6502151D01*
X-13248189Y6502846D01*
X-13311863Y6537782D01*
X-13469135Y6624481D01*
X-13603841Y6701203D01*
X-13717776Y6769417D01*
X-13812311Y6830286D01*
X-13888628Y6884696D01*
X-13948240Y6933493D01*
X-13992954Y6977381D01*
X-14025331Y7017435D01*
X-14048589Y7055750D01*
X-14065777Y7095699D01*
X-14078869Y7141142D01*
X-14089095Y7196563D01*
X-14091788Y7214918D01*
X-14093939Y7231049D01*
X-14095264Y7244853D01*
X-14095971Y7260232D01*
X-14095958Y7280862D01*
X-14094931Y7309543D01*
X-14092632Y7348205D01*
X-14088865Y7398815D01*
X-14083510Y7462943D01*
X-14076422Y7542691D01*
X-14067442Y7640394D01*
X-14056460Y7757868D01*
X-14043340Y7897248D01*
X-14034686Y7989085D01*
X-14034618Y7989829D01*
X-14015911Y8201674D01*
X-14015754Y8203632D01*
X-14002021Y8392440D01*
X-14001848Y8395235D01*
X-13993363Y8562933D01*
X-13993226Y8566819D01*
X-13990264Y8715333D01*
X-13990269Y8720610D01*
X-13993107Y8851866D01*
X-13993451Y8858855D01*
X-14002362Y8974777D01*
X-14003372Y8983742D01*
X-14018632Y9086258D01*
X-14020766Y9097244D01*
X-14042651Y9188279D01*
X-14046385Y9200896D01*
X-14075168Y9282375D01*
X-14080732Y9295669D01*
X-14116689Y9369518D01*
X-14123757Y9382151D01*
X-14167164Y9450297D01*
X-14174836Y9461061D01*
X-14225967Y9525429D01*
X-14232660Y9533190D01*
X-14282438Y9586409D01*
X-14286575Y9590630D01*
X-14319637Y9622834D01*
X-14322861Y9625867D01*
X-14358140Y9657912D01*
X-14361572Y9660919D01*
X-14401500Y9694650D01*
X-14404571Y9697163D01*
X-14451583Y9734425D01*
X-14453993Y9736289D01*
X-14510522Y9778927D01*
X-14512246Y9780205D01*
X-14580724Y9830063D01*
X-14581877Y9830892D01*
X-14664738Y9889816D01*
X-14665467Y9890330D01*
X-14765145Y9960164D01*
X-14765536Y9960437D01*
X-14852207Y10020674D01*
X-15113626Y10213566D01*
X-15356285Y10416153D01*
X-15551133Y10599457D01*
X-15655417Y10708181D01*
X-15737970Y10804786D01*
X-15799702Y10890017D01*
X-15842487Y10965038D01*
X-15869079Y11031719D01*
X-15883490Y11097211D01*
X-15884710Y11108598D01*
X-15885642Y11139853D01*
X-15883081Y11166583D01*
X-15876557Y11193563D01*
X-15864361Y11224374D01*
X-15844120Y11261465D01*
X-15813681Y11306084D01*
X-15771463Y11358860D01*
X-15716327Y11420310D01*
X-15647296Y11491116D01*
X-15563548Y11572008D01*
X-15464156Y11663944D01*
X-15348242Y11767899D01*
X-15214844Y11884959D01*
X-15063024Y12016202D01*
X-14963139Y12101833D01*
X-14473091Y12520933D01*
X-14455848Y12538891D01*
X-14442439Y12559868D01*
X-14433380Y12583058D01*
X-14428635Y12617375D01*
X-14428038Y13633375D01*
X-14428038Y13633496D01*
X-14428128Y13883842D01*
X-14428128Y13884146D01*
X-14428753Y14111118D01*
X-14428755Y14111531D01*
X-14429990Y14317150D01*
X-14429995Y14317695D01*
X-14431913Y14503984D01*
X-14431922Y14504685D01*
X-14434596Y14673664D01*
X-14434613Y14674550D01*
X-14438117Y14828242D01*
X-14438146Y14829331D01*
X-14442553Y14969757D01*
X-14442601Y14971061D01*
X-14447984Y15100242D01*
X-14448056Y15101756D01*
X-14454490Y15221716D01*
X-14454592Y15223408D01*
X-14462150Y15336166D01*
X-14462284Y15337972D01*
X-14471038Y15445551D01*
X-14471201Y15447388D01*
X-14481226Y15551810D01*
X-14481407Y15553568D01*
X-14492776Y15656854D01*
X-14492960Y15658431D01*
X-14505746Y15762603D01*
X-14505867Y15763557D01*
X-14505897Y15763787D01*
X-14506064Y15765020D01*
X-14530391Y15938272D01*
X-14530989Y15942109D01*
X-14557318Y16095421D01*
X-14558286Y16100447D01*
X-14587930Y16239269D01*
X-14589339Y16245171D01*
X-14623609Y16374953D01*
X-14625395Y16381087D01*
X-14665606Y16507279D01*
X-14667528Y16512859D01*
X-14714990Y16640911D01*
X-14716011Y16643574D01*
X-14721530Y16657496D01*
X-14749342Y16731023D01*
X-14776607Y16809663D01*
X-14800279Y16884147D01*
X-14817329Y16945138D01*
X-14817499Y16945828D01*
X-14848569Y17092272D01*
X-14876564Y17262806D01*
X-14901607Y17457925D01*
X-14923540Y17676308D01*
X-14942284Y17916883D01*
X-14957789Y18178647D01*
X-14970019Y18460600D01*
X-14978946Y18761680D01*
X-14984552Y19080987D01*
X-14986824Y19417725D01*
X-14985745Y19770708D01*
X-14981303Y20139330D01*
X-14973484Y20522623D01*
X-14962285Y20919350D01*
X-14947689Y21328950D01*
X-14929688Y21750354D01*
X-14908257Y22183059D01*
X-14883423Y22625413D01*
X-14877810Y22718868D01*
X-14844471Y23234262D01*
X-14806639Y23757861D01*
X-14764630Y24286592D01*
X-14718772Y24817285D01*
X-14669350Y25347237D01*
X-14616706Y25873130D01*
X-14561143Y26392046D01*
X-14502964Y26901090D01*
X-14442507Y27397003D01*
X-14380078Y27876870D01*
X-14316027Y28337419D01*
X-14250564Y28776366D01*
X-14243835Y28819704D01*
X-14211787Y29012500D01*
X13005568Y29012500D01*
X13008640Y28673250D01*
X13167390Y28514500D01*
X14391640Y28514500D01*
X14391640Y29488750D01*
X14232890Y29647500D01*
X13643640Y29650572D01*
X13519158Y29638312D01*
X13399460Y29602002D01*
X13289146Y29543037D01*
X13192455Y29463685D01*
X13113103Y29366994D01*
X13054138Y29256680D01*
X13017828Y29136982D01*
X13005568Y29012500D01*
X-14211787Y29012500D01*
X-14197259Y29099891D01*
X-14143613Y29389715D01*
X-14083690Y29686114D01*
X-14054501Y29819900D01*
X-13849852Y29819900D01*
X-13837592Y29695418D01*
X-13801282Y29575720D01*
X-13742317Y29465406D01*
X-13662965Y29368715D01*
X-13566274Y29289363D01*
X-13455960Y29230398D01*
X-13336262Y29194088D01*
X-13211780Y29181828D01*
X-12622530Y29184900D01*
X-12463780Y29343650D01*
X-12463780Y30317900D01*
X-12209780Y30317900D01*
X-12209780Y29343650D01*
X-12051030Y29184900D01*
X-11461780Y29181828D01*
X-11337298Y29194088D01*
X-11217600Y29230398D01*
X-11107286Y29289363D01*
X-11010595Y29368715D01*
X-10931243Y29465406D01*
X-10872278Y29575720D01*
X-10835968Y29695418D01*
X-10823708Y29819900D01*
X-10826780Y30159150D01*
X-10985530Y30317900D01*
X-12209780Y30317900D01*
X-12463780Y30317900D01*
X-13688030Y30317900D01*
X-13846780Y30159150D01*
X-13849852Y29819900D01*
X-14054501Y29819900D01*
X-14018417Y29985279D01*
X-13948709Y30283471D01*
X-13875475Y30577001D01*
X-13837167Y30721037D01*
X-13688030Y30571900D01*
X-12463780Y30571900D01*
X-12463780Y31546150D01*
X-12209780Y31546150D01*
X-12209780Y30571900D01*
X-10985530Y30571900D01*
X-10826780Y30730650D01*
X-10823708Y31069900D01*
X-10835968Y31194382D01*
X-10872278Y31314080D01*
X-10931243Y31424394D01*
X-11010595Y31521085D01*
X-11107286Y31600437D01*
X-11217600Y31659402D01*
X-11337298Y31695712D01*
X-11461780Y31707972D01*
X-12051030Y31704900D01*
X-12209780Y31546150D01*
X-12463780Y31546150D01*
X-12622530Y31704900D01*
X-13211780Y31707972D01*
X-13336262Y31695712D01*
X-13455960Y31659402D01*
X-13566274Y31600437D01*
X-13578825Y31590137D01*
X-13566097Y31628868D01*
X-13518607Y31763551D01*
X-13469981Y31892097D01*
X-13425666Y31997632D01*
X-13384255Y32083555D01*
X-13344328Y32153607D01*
X-13303015Y32213763D01*
X-13289764Y32230784D01*
X-13289601Y32230994D01*
X-13251576Y32280049D01*
X-13250166Y32281902D01*
X-13199895Y32349270D01*
X-13199133Y32350302D01*
X-13138549Y32433225D01*
X-13138054Y32433908D01*
X-13069093Y32529626D01*
X-13068729Y32530133D01*
X-12993325Y32635886D01*
X-12993031Y32636300D01*
X-12913117Y32749330D01*
X-12912860Y32749696D01*
X-12830372Y32867243D01*
X-12830129Y32867590D01*
X-12747000Y32986895D01*
X-12746753Y32987250D01*
X-12664919Y33105554D01*
X-12664652Y33105942D01*
X-12586045Y33220485D01*
X-12585734Y33220940D01*
X-12512290Y33328962D01*
X-12511900Y33329539D01*
X-12445553Y33428283D01*
X-12445024Y33429077D01*
X-12387707Y33515782D01*
X-12387239Y33516496D01*
X-12372568Y33539017D01*
X-12371382Y33540871D01*
X-12238546Y33752721D01*
X-12236165Y33756678D01*
X-12121940Y33954478D01*
X-12119227Y33959426D01*
X-12022637Y34145295D01*
X-12019690Y34151354D01*
X-11939757Y34327410D01*
X-11936743Y34334630D01*
X-11872489Y34502990D01*
X-11869646Y34511289D01*
X-11820094Y34674073D01*
X-11817917Y34682179D01*
X-11788769Y34807009D01*
X-11787088Y34815507D01*
X-11772860Y34903020D01*
X-11771963Y34909626D01*
X-11760054Y35018783D01*
X-11759638Y35023369D01*
X-11750417Y35150491D01*
X-11750253Y35153134D01*
X-11747301Y35210342D01*
X-11747300Y35210353D01*
X-11742976Y35294280D01*
X-11737942Y35375774D01*
X-11732599Y35449501D01*
X-11727473Y35508466D01*
X-11723684Y35541920D01*
X-11686691Y35754040D01*
X-11634286Y35976161D01*
X-11568753Y36200075D01*
X-11492593Y36417070D01*
X-11419533Y36593839D01*
X-11407218Y36619239D01*
X-11382418Y36667659D01*
X-11347059Y36735237D01*
X-11302665Y36819106D01*
X-11250312Y36917291D01*
X-11191464Y37027084D01*
X-11126857Y37147144D01*
X-11057997Y37274695D01*
X-10985766Y37408119D01*
X-10911376Y37545189D01*
X-10835893Y37683945D01*
X-10760623Y37821988D01*
X-10686516Y37957572D01*
X-10614758Y38088518D01*
X-10546479Y38212747D01*
X-10482814Y38328178D01*
X-10424749Y38432994D01*
X-10373816Y38524395D01*
X-10330877Y38600791D01*
X-10297193Y38659880D01*
X-10274274Y38698963D01*
X-10270746Y38704726D01*
X-10093217Y38971302D01*
X-9896333Y39233755D01*
X-9683226Y39488692D01*
X-9457911Y39731516D01*
X-9224448Y39957681D01*
X-8985241Y40164157D01*
X-8833286Y40288910D01*
X-8831994Y40289985D01*
X-8677794Y40420034D01*
X-8676539Y40421107D01*
X-8519287Y40557268D01*
X-8518092Y40558316D01*
X-8356722Y40701615D01*
X-8355604Y40702620D01*
X-8189054Y40854083D01*
X-8188025Y40855029D01*
X-8015230Y41015682D01*
X-8014295Y41016560D01*
X-7834192Y41187429D01*
X-7833355Y41188230D01*
X-7644879Y41370340D01*
X-7644136Y41371064D01*
X-7446223Y41565442D01*
X-7445571Y41566087D01*
X-7237158Y41773758D01*
X-7236590Y41774328D01*
X-7016613Y41996317D01*
X-7016121Y41996816D01*
X-6783516Y42234151D01*
X-6783095Y42234583D01*
X-6536798Y42488288D01*
X-6536439Y42488659D01*
X-6275386Y42759760D01*
X-6275116Y42760041D01*
X-6066420Y42978104D01*
X-5928034Y43122665D01*
X-5805581Y43249645D01*
X-5696377Y43361650D01*
X-5599038Y43459954D01*
X-5511476Y43546546D01*
X-5432017Y43623013D01*
X-5358608Y43691319D01*
X-5289423Y43753209D01*
X-5222318Y43810711D01*
X-5155371Y43865630D01*
X-5086367Y43920001D01*
X-5013158Y43975772D01*
X-4991313Y43992122D01*
X-4811289Y44118542D01*
X-4633464Y44228299D01*
X-4459258Y44321075D01*
X-4291733Y44395560D01*
X-4133792Y44450698D01*
X-4001168Y44483241D01*
X-3909721Y44495619D01*
X-3809878Y44500360D01*
X-3712448Y44497252D01*
X-3626675Y44486612D01*
X-3599354Y44480672D01*
X-3551084Y44466061D01*
X-3489791Y44443951D01*
X-3428685Y44418947D01*
X-3412435Y44411640D01*
X-3408701Y44410033D01*
X-3260119Y44348860D01*
X-3248363Y44344682D01*
X-3104123Y44301280D01*
X-3089810Y44297864D01*
X-2948028Y44272598D01*
X-2931825Y44270774D01*
X-2790623Y44264009D01*
X-2773801Y44264318D01*
X-2631296Y44276417D01*
X-2615340Y44278800D01*
X-2469651Y44310129D01*
X-2455708Y44313970D01*
X-2304954Y44364893D01*
X-2293531Y44369377D01*
X-2135832Y44440259D01*
X-2126893Y44444708D01*
X-1960366Y44535912D01*
X-1953573Y44539911D01*
X-1776338Y44651804D01*
X-1772012Y44654660D01*
X-1646890Y44740990D01*
X-1485398Y44852393D01*
X-1341111Y44944541D01*
X-1210464Y45019459D01*
X-1091207Y45078385D01*
X-980876Y45122775D01*
X-876619Y45154242D01*
X-775107Y45174371D01*
X-671669Y45184551D01*
X-611260Y45186077D01*
X-494679Y45180104D01*
X-494679Y45180104D01*
G37*
X-494679Y45180104D02*
X-384469Y45161861D01*
X-273896Y45129874D01*
X-157886Y45082086D01*
X-32132Y45016245D01*
X107971Y44929745D01*
X120527Y44921455D01*
X122380Y44920255D01*
X203813Y44868501D01*
X208192Y44865840D01*
X293742Y44816197D01*
X298282Y44813685D01*
X388864Y44765958D01*
X393427Y44763670D01*
X489955Y44717667D01*
X494409Y44715649D01*
X597799Y44671175D01*
X602038Y44669441D01*
X713204Y44626302D01*
X717153Y44624844D01*
X837009Y44582848D01*
X840621Y44581644D01*
X970082Y44540596D01*
X973336Y44539611D01*
X1113318Y44499318D01*
X1116214Y44498522D01*
X1267630Y44458790D01*
X1270183Y44458148D01*
X1433949Y44418784D01*
X1436179Y44418269D01*
X1613208Y44379078D01*
X1615147Y44378665D01*
X1806355Y44339455D01*
X1808029Y44339123D01*
X2014331Y44299699D01*
X2015771Y44299433D01*
X2238081Y44259601D01*
X2239315Y44259386D01*
X2478548Y44218954D01*
X2479602Y44218780D01*
X2736672Y44177553D01*
X2737569Y44177413D01*
X3013391Y44135199D01*
X3014150Y44135085D01*
X3309640Y44091688D01*
X3310282Y44091595D01*
X3626353Y44046823D01*
X3626892Y44046748D01*
X3964459Y44000406D01*
X3964911Y44000345D01*
X4324890Y43952241D01*
X4325264Y43952191D01*
X4708568Y43902130D01*
X4708877Y43902091D01*
X5116421Y43849880D01*
X5116573Y43849860D01*
X5178314Y43842026D01*
X5178314Y43842027D01*
X5312243Y43824902D01*
X5441423Y43808098D01*
X5562901Y43792019D01*
X5674134Y43777012D01*
X5771989Y43763510D01*
X5854235Y43751817D01*
X5917400Y43742422D01*
X5958305Y43735797D01*
X5967016Y43734141D01*
X6045761Y43714309D01*
X6123151Y43688582D01*
X6201961Y43655543D01*
X6284428Y43613706D01*
X6372472Y43561582D01*
X6467744Y43497780D01*
X6571798Y43420994D01*
X6686071Y43330059D01*
X6812053Y43223825D01*
X6951151Y43101264D01*
X7104973Y42961211D01*
X7220539Y42853767D01*
X7306018Y42772870D01*
X7407742Y42675104D01*
X7523946Y42562238D01*
X7653112Y42435796D01*
X7793610Y42297423D01*
X7943394Y42149169D01*
X8101374Y41992144D01*
X8265704Y41828202D01*
X8434906Y41658836D01*
X8606943Y41486096D01*
X8780616Y41311192D01*
X8954301Y41135762D01*
X9125981Y40961838D01*
X9294439Y40790647D01*
X9458085Y40623789D01*
X9614809Y40463400D01*
X9763696Y40310390D01*
X9902299Y40167243D01*
X10029730Y40034839D01*
X10144090Y39915098D01*
X10243634Y39809789D01*
X10298098Y39751496D01*
X10608916Y39411915D01*
X10898027Y39085674D01*
X11165818Y38772316D01*
X11412433Y38471671D01*
X11638154Y38183405D01*
X11843131Y37907369D01*
X12027662Y37643228D01*
X12191895Y37390877D01*
X12336235Y37149841D01*
X12442730Y36955097D01*
X12509832Y36822009D01*
X12570742Y36691091D01*
X12628643Y36554971D01*
X12686748Y36406066D01*
X12733859Y36277276D01*
X12735009Y36274253D01*
X12854329Y35972143D01*
X12857442Y35964923D01*
X12998622Y35663529D01*
X13002000Y35656840D01*
X13162002Y35361915D01*
X13165782Y35355414D01*
X13341569Y35072713D01*
X13345043Y35067424D01*
X13458279Y34904068D01*
X13672090Y34593382D01*
X13879459Y34262720D01*
X14080284Y33912992D01*
X14272896Y33547441D01*
X14455663Y33169273D01*
X14626962Y32781710D01*
X14785159Y32388033D01*
X14929003Y31990530D01*
X14954528Y31914955D01*
X15020798Y31711367D01*
X15076795Y31527679D01*
X15123412Y31360094D01*
X15161607Y31204630D01*
X15192319Y31057336D01*
X15216494Y30914124D01*
X15235058Y30770727D01*
X15248913Y30622428D01*
X15252111Y30578610D01*
X15252608Y30573318D01*
X15269354Y30427960D01*
X15270761Y30418741D01*
X15301994Y30254703D01*
X15303532Y30247708D01*
X15348684Y30066768D01*
X15350207Y30061203D01*
X15408711Y29865139D01*
X15410185Y29860525D01*
X15481475Y29651114D01*
X15482899Y29647148D01*
X15485006Y29641574D01*
X15393640Y29650572D01*
X14804390Y29647500D01*
X14645640Y29488750D01*
X14645640Y28514500D01*
X14665640Y28514500D01*
X14665640Y28260500D01*
X14645640Y28260500D01*
X14645640Y27286250D01*
X14804390Y27127500D01*
X15393640Y27124428D01*
X15518122Y27136688D01*
X15637820Y27172998D01*
X15748134Y27231963D01*
X15844825Y27311315D01*
X15924177Y27408006D01*
X15983142Y27518320D01*
X16019452Y27638018D01*
X16031712Y27762500D01*
X16028640Y28101750D01*
X15869892Y28260498D01*
X16028640Y28260498D01*
X16028640Y28324585D01*
X16040166Y28291955D01*
X16081992Y28153134D01*
X16114555Y28018727D01*
X16138616Y27884921D01*
X16154827Y27747832D01*
X16163706Y27603595D01*
X16165672Y27448513D01*
X16161117Y27279152D01*
X16150458Y27092207D01*
X16134137Y26884235D01*
X16122725Y26757599D01*
X16122658Y26756831D01*
X16108650Y26590072D01*
X16108487Y26587910D01*
X16097151Y26418298D01*
X16097032Y26416272D01*
X16088480Y26247911D01*
X16088392Y26245870D01*
X16082739Y26082864D01*
X16082682Y26080645D01*
X16080042Y25927099D01*
X16080024Y25924475D01*
X16080510Y25784494D01*
X16080568Y25781069D01*
X16084293Y25658756D01*
X16084510Y25654250D01*
X16090114Y25569428D01*
X16090617Y25563754D01*
X16109055Y25398060D01*
X16109945Y25391586D01*
X16135986Y25232530D01*
X16137324Y25225576D01*
X16172382Y25067355D01*
X16174039Y25060726D01*
X16219530Y24897537D01*
X16221249Y24891885D01*
X16278586Y24717924D01*
X16279948Y24714008D01*
X16331913Y24572102D01*
X16406174Y24363446D01*
X16463419Y24172157D01*
X16505162Y23991267D01*
X16532347Y23815123D01*
X16545781Y23637781D01*
X16546018Y23453228D01*
X16533399Y23255766D01*
X16508082Y23038929D01*
X16505944Y23023644D01*
X16505819Y23022729D01*
X16477325Y22807647D01*
X16477077Y22805652D01*
X16450274Y22575392D01*
X16450080Y22573617D01*
X16424897Y22327140D01*
X16424746Y22325568D01*
X16401108Y22061835D01*
X16400991Y22060448D01*
X16378828Y21778420D01*
X16378738Y21777199D01*
X16357975Y21475837D01*
X16357906Y21474765D01*
X16338473Y21153030D01*
X16338420Y21152091D01*
X16320244Y20808943D01*
X16320203Y20808121D01*
X16303211Y20442523D01*
X16303180Y20441806D01*
X16287299Y20052717D01*
X16287277Y20052145D01*
X16275040Y19715007D01*
X16275039Y19715002D01*
X16261696Y19347068D01*
X16247770Y19003983D01*
X16233008Y18683056D01*
X16217253Y18383783D01*
X16200275Y18104132D01*
X16181895Y17843027D01*
X16161914Y17598970D01*
X16140147Y17370632D01*
X16116392Y17156493D01*
X16090469Y16955193D01*
X16062184Y16765266D01*
X16031341Y16585221D01*
X15997774Y16413748D01*
X15961240Y16249146D01*
X15921562Y16090070D01*
X15878491Y15934893D01*
X15831820Y15782193D01*
X15781297Y15630417D01*
X15726684Y15478084D01*
X15667599Y15323344D01*
X15645566Y15267723D01*
X15644694Y15265460D01*
X15553009Y15020449D01*
X15550941Y15014472D01*
X15474875Y14775585D01*
X15472968Y14768983D01*
X15410493Y14528482D01*
X15408970Y14521908D01*
X15358059Y14272056D01*
X15357034Y14266365D01*
X15318641Y14021416D01*
X15318232Y14018605D01*
X15306138Y13928282D01*
X15305981Y13927063D01*
X15295807Y13845054D01*
X15295599Y13843275D01*
X15287098Y13765830D01*
X15286877Y13763643D01*
X15279806Y13687015D01*
X15279615Y13684718D01*
X15273727Y13605158D01*
X15273590Y13603061D01*
X15268641Y13516820D01*
X15268555Y13515130D01*
X15264299Y13418461D01*
X15264251Y13417235D01*
X15260443Y13306388D01*
X15260418Y13305582D01*
X15256813Y13176810D01*
X15256800Y13176335D01*
X15253178Y13026970D01*
X15248498Y12836524D01*
X15243699Y12669246D01*
X15238596Y12522573D01*
X15233004Y12393891D01*
X15226737Y12280485D01*
X15219640Y12180080D01*
X15211533Y12089903D01*
X15202247Y12007332D01*
X15191567Y11929434D01*
X15179281Y11853484D01*
X15165054Y11776156D01*
X15159646Y11748677D01*
X15138971Y11651294D01*
X15116852Y11560462D01*
X15092007Y11472331D01*
X15063185Y11383456D01*
X15029036Y11290288D01*
X14988204Y11189456D01*
X14939418Y11077848D01*
X14881477Y10952503D01*
X14813057Y10810147D01*
X14736223Y10654311D01*
X14736122Y10654107D01*
X14638023Y10454240D01*
X14637310Y10452763D01*
X14552352Y10273862D01*
X14551457Y10271936D01*
X14479388Y10113389D01*
X14478256Y10110825D01*
X14418821Y9972018D01*
X14417376Y9968499D01*
X14370321Y9848820D01*
X14368468Y9843797D01*
X14333539Y9742633D01*
X14331191Y9735078D01*
X14308134Y9651815D01*
X14305582Y9640670D01*
X14295031Y9582718D01*
X14294770Y9581236D01*
X14280689Y9498333D01*
X14257100Y9401763D01*
X14222444Y9285658D01*
X14176436Y9150068D01*
X14118887Y8994854D01*
X14049536Y8819505D01*
X13968246Y8623721D01*
X13874749Y8406844D01*
X13768659Y8167920D01*
X13765566Y8161044D01*
X13765467Y8160824D01*
X13681524Y7973237D01*
X13681288Y7972705D01*
X13606011Y7802394D01*
X13605727Y7801747D01*
X13539403Y7649406D01*
X13539049Y7648584D01*
X13481967Y7514905D01*
X13481504Y7513807D01*
X13433951Y7399485D01*
X13433306Y7397905D01*
X13395571Y7303634D01*
X13394593Y7301112D01*
X13366963Y7227584D01*
X13365275Y7222806D01*
X13348039Y7170715D01*
X13344544Y7157960D01*
X13337990Y7128000D01*
X13335119Y7104854D01*
X13335063Y7103074D01*
X13336723Y7078233D01*
X13342359Y7056477D01*
X13349192Y7037288D01*
X13359802Y7014766D01*
X13374602Y6994746D01*
X13389636Y6980609D01*
X13412987Y6961982D01*
X13435670Y6947531D01*
X13474277Y6928347D01*
X13486330Y6923117D01*
X13539169Y6903369D01*
X13546831Y6900780D01*
X13621432Y6878195D01*
X13625742Y6876973D01*
X13718730Y6852366D01*
X13721694Y6851620D01*
X13829694Y6825805D01*
X13832042Y6825267D01*
X13951679Y6799059D01*
X13953755Y6798622D01*
X14081655Y6772834D01*
X14083456Y6772485D01*
X14188589Y6752864D01*
X14340638Y6723284D01*
X14515610Y6685168D01*
X14714434Y6638321D01*
X14936460Y6582886D01*
X15181448Y6518920D01*
X15448986Y6446527D01*
X15738821Y6365771D01*
X16050211Y6276859D01*
X16383686Y6179631D01*
X16737749Y6074520D01*
X17113232Y5961271D01*
X17508998Y5840219D01*
X17710781Y5777913D01*
X17710856Y5777890D01*
X18017286Y5683479D01*
X18017705Y5683351D01*
X18303858Y5596268D01*
X18304370Y5596113D01*
X18573948Y5515313D01*
X18574551Y5515134D01*
X18831258Y5439574D01*
X18831937Y5439376D01*
X19079475Y5368012D01*
X19080211Y5367802D01*
X19284023Y5310372D01*
X18787220Y5310372D01*
X18613966Y5293308D01*
X18447370Y5242772D01*
X18293834Y5160705D01*
X18159258Y5050262D01*
X18048815Y4915686D01*
X17966748Y4762150D01*
X17916212Y4595554D01*
X17899148Y4422300D01*
X17899148Y3609030D01*
X17623151Y3333033D01*
X17622220Y3511550D01*
X17463470Y3670300D01*
X16489220Y3670300D01*
X16489220Y2446050D01*
X16612694Y2322576D01*
X16381079Y2090960D01*
X10451323Y2090960D01*
X10438088Y2225335D01*
X10387552Y2391931D01*
X10305485Y2545467D01*
X10195042Y2680042D01*
X10060467Y2790485D01*
X9906931Y2872552D01*
X9877080Y2881607D01*
X9877080Y2922300D01*
X15099148Y2922300D01*
X15111408Y2797818D01*
X15147718Y2678120D01*
X15206683Y2567806D01*
X15286035Y2471115D01*
X15382726Y2391763D01*
X15493040Y2332798D01*
X15612738Y2296488D01*
X15737220Y2284228D01*
X16076470Y2287300D01*
X16235220Y2446050D01*
X16235220Y3670300D01*
X15260970Y3670300D01*
X15102220Y3511550D01*
X15099148Y2922300D01*
X9877080Y2922300D01*
X9877080Y4672300D01*
X15099148Y4672300D01*
X15102220Y4083050D01*
X15260970Y3924300D01*
X16235220Y3924300D01*
X16235220Y5148550D01*
X16489220Y5148550D01*
X16489220Y3924300D01*
X17463470Y3924300D01*
X17622220Y4083050D01*
X17625292Y4672300D01*
X17613032Y4796782D01*
X17576722Y4916480D01*
X17517757Y5026794D01*
X17438405Y5123485D01*
X17341714Y5202837D01*
X17231400Y5261802D01*
X17111702Y5298112D01*
X16987220Y5310372D01*
X16647970Y5307300D01*
X16489220Y5148550D01*
X16235220Y5148550D01*
X16076470Y5307300D01*
X15737220Y5310372D01*
X15612738Y5298112D01*
X15493040Y5261802D01*
X15382726Y5202837D01*
X15286035Y5123485D01*
X15206683Y5026794D01*
X15147718Y4916480D01*
X15111408Y4796782D01*
X15099148Y4672300D01*
X9877080Y4672300D01*
X9877080Y19871139D01*
X14330371Y24324428D01*
X15143640Y24324428D01*
X15316894Y24341492D01*
X15483490Y24392028D01*
X15637026Y24474095D01*
X15771602Y24584538D01*
X15882045Y24719114D01*
X15964112Y24872650D01*
X16014648Y25039246D01*
X16031712Y25212500D01*
X16031712Y25962500D01*
X16014648Y26135754D01*
X15964112Y26302350D01*
X15882045Y26455886D01*
X15771602Y26590462D01*
X15637026Y26700905D01*
X15483490Y26782972D01*
X15316894Y26833508D01*
X15143640Y26850572D01*
X13893640Y26850572D01*
X13720386Y26833508D01*
X13553790Y26782972D01*
X13400254Y26700905D01*
X13265678Y26590462D01*
X13155235Y26455886D01*
X13073168Y26302350D01*
X13022632Y26135754D01*
X13005568Y25962500D01*
X13005568Y25212500D01*
X13011241Y25154903D01*
X8606078Y20749739D01*
X8577080Y20725941D01*
X8553282Y20696943D01*
X8553281Y20696942D01*
X8482106Y20610216D01*
X8411534Y20478186D01*
X8387526Y20399039D01*
X8368078Y20334926D01*
X8360219Y20255133D01*
X8353404Y20185940D01*
X8357081Y20148607D01*
X8357080Y2881607D01*
X8327229Y2872552D01*
X8173693Y2790485D01*
X8039118Y2680042D01*
X7928675Y2545467D01*
X7846608Y2391931D01*
X7796072Y2225335D01*
X7779008Y2052081D01*
X7779008Y752079D01*
X7796072Y578825D01*
X7846608Y412229D01*
X7928675Y258693D01*
X8039118Y124118D01*
X8173693Y13675D01*
X8327229Y-68392D01*
X8493825Y-118928D01*
X8667079Y-135992D01*
X9567081Y-135992D01*
X9740335Y-118928D01*
X9906931Y-68392D01*
X10060467Y13675D01*
X10195042Y124118D01*
X10305485Y258693D01*
X10387552Y412229D01*
X10435702Y570960D01*
X16658558Y570960D01*
X16695880Y567284D01*
X16733202Y570960D01*
X16733213Y570960D01*
X16844866Y581957D01*
X16988127Y625414D01*
X17120156Y695986D01*
X17235881Y790959D01*
X17259684Y819963D01*
X18729623Y2289901D01*
X18787220Y2284228D01*
X19537220Y2284228D01*
X19710474Y2301292D01*
X19877070Y2351828D01*
X20030606Y2433895D01*
X20165182Y2544338D01*
X20275625Y2678914D01*
X20357692Y2832450D01*
X20408228Y2999046D01*
X20425292Y3172300D01*
X20425292Y4422300D01*
X20408228Y4595554D01*
X20357692Y4762150D01*
X20275625Y4915686D01*
X20165182Y5050262D01*
X20122133Y5085591D01*
X20312858Y5036631D01*
X20313406Y5036492D01*
X20581070Y4969049D01*
X20581672Y4968899D01*
X20845683Y4903746D01*
X20846571Y4903530D01*
X21089935Y4845327D01*
X21091059Y4845064D01*
X21317351Y4793114D01*
X21318713Y4792809D01*
X21531507Y4746414D01*
X21533087Y4746080D01*
X21735957Y4704543D01*
X21737703Y4704198D01*
X21934224Y4666823D01*
X21936057Y4666489D01*
X22129804Y4632579D01*
X22131624Y4632274D01*
X22326171Y4601131D01*
X22327880Y4600869D01*
X22526802Y4571797D01*
X22528314Y4571585D01*
X22735185Y4543887D01*
X22736074Y4543771D01*
X22812285Y4534114D01*
X22812497Y4534088D01*
X23020795Y4508050D01*
X23275369Y4387016D01*
X23275682Y4386868D01*
X23428111Y4314907D01*
X23428949Y4314515D01*
X23563634Y4252127D01*
X23564791Y4251598D01*
X23686541Y4196675D01*
X23687983Y4196035D01*
X23801607Y4146467D01*
X23803215Y4145779D01*
X23913521Y4099457D01*
X23915103Y4098805D01*
X24026902Y4053618D01*
X24028079Y4053149D01*
X24109266Y4021273D01*
X24110429Y4020823D01*
X24188672Y3990986D01*
X24189841Y3990547D01*
X24276200Y3958584D01*
X24277104Y3958253D01*
X24297411Y3950912D01*
X24290622Y3942334D01*
X24281079Y3923695D01*
X24274710Y3914559D01*
X24257662Y3895551D01*
X24236222Y3859352D01*
X24231491Y3852566D01*
X24219067Y3830389D01*
X24188899Y3779453D01*
X24186137Y3771605D01*
X24182069Y3764343D01*
X24163760Y3708018D01*
X24155330Y3684065D01*
X24153364Y3676038D01*
X24140355Y3636019D01*
X24137751Y3614039D01*
X24127920Y3586089D01*
X24118717Y3521650D01*
X24108848Y3452630D01*
X24108851Y3452575D01*
X24108842Y3452512D01*
X24112644Y3382814D01*
X24116173Y3317897D01*
X24116188Y3317840D01*
X24116191Y3317779D01*
X24132864Y3252712D01*
X24149643Y3187181D01*
X24149669Y3187126D01*
X24149684Y3187069D01*
X24177316Y3129454D01*
X24207972Y3065506D01*
X24225810Y3041715D01*
X24237671Y3016582D01*
X24259063Y2987688D01*
X24260174Y2985857D01*
X24279089Y2960640D01*
X24317961Y2908135D01*
X24319557Y2906686D01*
X24320851Y2904961D01*
X24369471Y2861371D01*
X24417864Y2817436D01*
X24419714Y2816325D01*
X24421318Y2814887D01*
X24477542Y2781599D01*
X24504557Y2765376D01*
X24506489Y2764460D01*
X24537427Y2746143D01*
X24567303Y2735635D01*
X24602047Y2719167D01*
X24641644Y2697159D01*
X24694953Y2680028D01*
X24747640Y2661127D01*
X24792441Y2654443D01*
X24920414Y2626798D01*
X24952191Y2619881D01*
X24952719Y2619819D01*
X24953244Y2619706D01*
X24986007Y2615936D01*
X25190897Y2592031D01*
X25210239Y2588965D01*
X25224287Y2588135D01*
X25238266Y2586504D01*
X25257852Y2586152D01*
X25891964Y2548686D01*
X25897225Y2547935D01*
X25925541Y2546702D01*
X25953834Y2545030D01*
X25959144Y2545238D01*
X26626712Y2516162D01*
X26656140Y1797466D01*
X26655955Y1793397D01*
X26657519Y1763788D01*
X26658727Y1734283D01*
X26659289Y1730265D01*
X26698236Y992894D01*
X26698729Y969954D01*
X26700010Y959302D01*
X26700575Y948604D01*
X26704021Y925948D01*
X26725199Y749842D01*
X26724692Y736534D01*
X26733240Y682979D01*
X26735680Y662686D01*
X26738542Y649757D01*
X26740630Y636675D01*
X26745816Y616900D01*
X26757536Y563954D01*
X26762897Y551761D01*
X26776191Y501064D01*
X26776928Y492429D01*
X26793283Y435883D01*
X26799639Y411643D01*
X26802629Y403567D01*
X26814418Y362808D01*
X26826006Y340433D01*
X26834753Y316812D01*
X26856958Y280673D01*
X26860925Y273014D01*
X26874595Y251969D01*
X26905392Y201847D01*
X26911280Y195492D01*
X26914368Y190739D01*
X26923218Y171938D01*
X26951043Y134278D01*
X26958127Y123372D01*
X26971024Y107234D01*
X27003401Y63413D01*
X27013085Y54603D01*
X27021259Y44376D01*
X27062916Y9275D01*
X27103215Y-27384D01*
X27114434Y-34136D01*
X27124444Y-42571D01*
X27172139Y-68866D01*
X27189857Y-79530D01*
X27201617Y-85118D01*
X27242609Y-107718D01*
X27262410Y-114006D01*
X27287392Y-125878D01*
X27329483Y-148897D01*
X27380349Y-164861D01*
X27430515Y-182914D01*
X27444617Y-185032D01*
X27458225Y-189303D01*
X27511224Y-195036D01*
X27563951Y-202956D01*
X27611881Y-200689D01*
X27664288Y-201191D01*
X27688909Y-204507D01*
X27731580Y-201837D01*
X27740541Y-201923D01*
X27765173Y-199735D01*
X27789834Y-198192D01*
X27798675Y-196759D01*
X27841267Y-192976D01*
X27865107Y-185993D01*
X27891784Y-181670D01*
X27935269Y-244238D01*
X28069912Y-481089D01*
X28483325Y-1314250D01*
X28724494Y-1859304D01*
X28937001Y-2426130D01*
X29122918Y-3020279D01*
X29282020Y-3642130D01*
X29414086Y-4292104D01*
X29518856Y-4970425D01*
X29596085Y-5677340D01*
X29645543Y-6413013D01*
X29667013Y-7177548D01*
X29660308Y-7971077D01*
X29625258Y-8793671D01*
X29561724Y-9645325D01*
X29469577Y-10526215D01*
X29348721Y-11436290D01*
X29199081Y-12375575D01*
X29025205Y-13319071D01*
X29025129Y-13319337D01*
X29019186Y-13351733D01*
X29013061Y-13384970D01*
X29013037Y-13385253D01*
X28812070Y-14480782D01*
X28807504Y-14501395D01*
X28806005Y-14513847D01*
X28803742Y-14526182D01*
X28801986Y-14547225D01*
X28752096Y-14961589D01*
X28748377Y-14987922D01*
X28748081Y-14994940D01*
X28747240Y-15001925D01*
X28746664Y-15028549D01*
X28729933Y-15425228D01*
X28728305Y-15453650D01*
X28728517Y-15458817D01*
X28728299Y-15463979D01*
X28729892Y-15492372D01*
X28746949Y-15908681D01*
X28747065Y-15930146D01*
X28748325Y-15942266D01*
X28748824Y-15954446D01*
X28751801Y-15975707D01*
X28801359Y-16452429D01*
X28802043Y-16466831D01*
X28804835Y-16485868D01*
X28806825Y-16505009D01*
X28809715Y-16519136D01*
X29013036Y-17905365D01*
X29013090Y-17906428D01*
X29017960Y-17938934D01*
X29022650Y-17970911D01*
X29022903Y-17971926D01*
X29475166Y-20990760D01*
X29616861Y-22071054D01*
X29709510Y-22948714D01*
X29759909Y-23693092D01*
X29775118Y-24379340D01*
X29761159Y-25084823D01*
X29723143Y-25884902D01*
X29489498Y-30101901D01*
X29489495Y-30101919D01*
X29487532Y-30137374D01*
X29485776Y-30169075D01*
X29485777Y-30169091D01*
X29382506Y-32034696D01*
X29377773Y-32062124D01*
X29378786Y-32101892D01*
X29378456Y-32107859D01*
X29379644Y-32135535D01*
X29381210Y-32197013D01*
X29382533Y-32202880D01*
X29382791Y-32208888D01*
X29397359Y-32268619D01*
X29403457Y-32295658D01*
X29405338Y-32301335D01*
X29414763Y-32339978D01*
X29426505Y-32365210D01*
X30537654Y-35718272D01*
X31152352Y-37617621D01*
X31343196Y-38271993D01*
X31471724Y-38793994D01*
X31550458Y-39232257D01*
X31593033Y-39645756D01*
X31609967Y-40096203D01*
X31609453Y-40627670D01*
X31578862Y-41343445D01*
X31505331Y-42128902D01*
X31394768Y-42952213D01*
X31254191Y-43773418D01*
X31091121Y-44552864D01*
X30913964Y-45249717D01*
X30730858Y-45827874D01*
X30667707Y-45990114D01*
X30622992Y-46055033D01*
X30565376Y-46128118D01*
X30494727Y-46208609D01*
X30407778Y-46300306D01*
X30341603Y-46367107D01*
X30214694Y-46489807D01*
X30084607Y-46607844D01*
X29948371Y-46723571D01*
X29803297Y-46839016D01*
X29646778Y-46956116D01*
X29476216Y-47076785D01*
X29289065Y-47202891D01*
X29082741Y-47336332D01*
X28901731Y-47449894D01*
X28650415Y-47604214D01*
X28417683Y-47743810D01*
X28202293Y-47869237D01*
X28002544Y-47981329D01*
X27816922Y-48080816D01*
X27643822Y-48168497D01*
X27481705Y-48245135D01*
X27328942Y-48311555D01*
X27183924Y-48368572D01*
X27044952Y-48417037D01*
X26910266Y-48457805D01*
X26778034Y-48491722D01*
X26647148Y-48519467D01*
X26598209Y-48528197D01*
X26553200Y-48534626D01*
X26506783Y-48539203D01*
X26452667Y-48542332D01*
X26385318Y-48544236D01*
X26299824Y-48545124D01*
X26226005Y-48545280D01*
X26091737Y-48543938D01*
X26091532Y-48543930D01*
X25834108Y-48482881D01*
X25518589Y-48381272D01*
X25160020Y-48241826D01*
X24756674Y-48065010D01*
X23773135Y-47589356D01*
X22807708Y-47120742D01*
X22797174Y-47114783D01*
X22777427Y-47106044D01*
X22758039Y-47096633D01*
X22746708Y-47092449D01*
X21890054Y-46713332D01*
X21874637Y-46705606D01*
X21859297Y-46699720D01*
X21844286Y-46693077D01*
X21827922Y-46687682D01*
X21010957Y-46374220D01*
X20991922Y-46366079D01*
X20979564Y-46362175D01*
X20967468Y-46357534D01*
X20947509Y-46352049D01*
X20127882Y-46093128D01*
X20108132Y-46086075D01*
X20095807Y-46082996D01*
X20083709Y-46079174D01*
X20063210Y-46074852D01*
X19200166Y-45859230D01*
X19182912Y-45854073D01*
X19167565Y-45851085D01*
X19152382Y-45847292D01*
X19134548Y-45844658D01*
X18186226Y-45660042D01*
X18173294Y-45656718D01*
X18153193Y-45653611D01*
X18133264Y-45649731D01*
X18119994Y-45648479D01*
X17041350Y-45481738D01*
X17032980Y-45479809D01*
X17008136Y-45476603D01*
X16983350Y-45472772D01*
X16974763Y-45472298D01*
X15690462Y-45306591D01*
X14494284Y-45148495D01*
X13459434Y-44981637D01*
X12572527Y-44803544D01*
X11826678Y-44613297D01*
X11206935Y-44408476D01*
X10955922Y-44306337D01*
X10729114Y-44199575D01*
X10531866Y-44091509D01*
X10362466Y-43982759D01*
X10218736Y-43873818D01*
X10109583Y-43775286D01*
X9940857Y-43574396D01*
X9716404Y-43245087D01*
X9464981Y-42827184D01*
X9214779Y-42368883D01*
X8989023Y-41913854D01*
X8810597Y-41508085D01*
X8699230Y-41196498D01*
X8682724Y-41130134D01*
X8676345Y-41073625D01*
X8674231Y-41049115D01*
X8672573Y-41040219D01*
X8671559Y-41031232D01*
X8666418Y-41007182D01*
X8661888Y-40982870D01*
X8660539Y-40959140D01*
X8649561Y-40916706D01*
X8647724Y-40906846D01*
X8641135Y-40884134D01*
X8635212Y-40861241D01*
X8631761Y-40851825D01*
X8619547Y-40809728D01*
X8608598Y-40788631D01*
X8605562Y-40780348D01*
X8605234Y-40778329D01*
X8582367Y-40717067D01*
X8571469Y-40687335D01*
X8570585Y-40685502D01*
X8569871Y-40683590D01*
X8555894Y-40655051D01*
X8527529Y-40596258D01*
X8526301Y-40594628D01*
X8410194Y-40357561D01*
X8400098Y-40335438D01*
X8395387Y-40327330D01*
X8391276Y-40318935D01*
X8378527Y-40298308D01*
X8170719Y-39940610D01*
X8162528Y-39924869D01*
X8153813Y-39911509D01*
X8145819Y-39897749D01*
X8135466Y-39883383D01*
X7888623Y-39504977D01*
X7884453Y-39497433D01*
X7870236Y-39476791D01*
X7856563Y-39455830D01*
X7851176Y-39449116D01*
X7204968Y-38510849D01*
X7200975Y-38502239D01*
X7166753Y-38455362D01*
X7153004Y-38435399D01*
X7146920Y-38428194D01*
X7121414Y-38393257D01*
X7103475Y-38376751D01*
X7087758Y-38358140D01*
X7053947Y-38331179D01*
X7022119Y-38301893D01*
X7001316Y-38289210D01*
X6982260Y-38274015D01*
X6943830Y-38254164D01*
X6906908Y-38231654D01*
X6884028Y-38223273D01*
X6862376Y-38212088D01*
X6820824Y-38200120D01*
X6811956Y-38196871D01*
X6788451Y-38190795D01*
X6732715Y-38174741D01*
X6723264Y-38173944D01*
X4713156Y-37654333D01*
X3941556Y-37446964D01*
X3286260Y-37253172D01*
X2736811Y-37069373D01*
X2285614Y-36893427D01*
X1924674Y-36724151D01*
X1644238Y-36561094D01*
X1431002Y-36403149D01*
X1254555Y-36233124D01*
X1251236Y-36229343D01*
X1230333Y-36209784D01*
X1209721Y-36189922D01*
X1205773Y-36186803D01*
X1090720Y-36079146D01*
X1088040Y-36075511D01*
X1041516Y-36033105D01*
X1020188Y-36013148D01*
X1016622Y-36010415D01*
X1013304Y-36007390D01*
X989910Y-35989937D01*
X939933Y-35951626D01*
X935880Y-35949630D01*
X755388Y-35814977D01*
X731801Y-35796952D01*
X728419Y-35794858D01*
X725238Y-35792485D01*
X699881Y-35777189D01*
X446819Y-35620510D01*
X419027Y-35603264D01*
X418722Y-35603114D01*
X418433Y-35602935D01*
X389019Y-35588501D01*
X143944Y-35467933D01*
X117050Y-35454360D01*
X113792Y-35453099D01*
X110657Y-35451557D01*
X82469Y-35440978D01*
X-30664Y-35397200D01*
X-30889Y-35397058D01*
X-93286Y-35372968D01*
X-124716Y-35360806D01*
X-124974Y-35360734D01*
X-125226Y-35360637D01*
X-158276Y-35351480D01*
X-222147Y-35333732D01*
X-222408Y-35333712D01*
X-275415Y-35319027D01*
X-306374Y-35307012D01*
X-340261Y-35301061D01*
X-340838Y-35300901D01*
X-373326Y-35295254D01*
X-405972Y-35289521D01*
X-406573Y-35289475D01*
X-440468Y-35283584D01*
X-473664Y-35284389D01*
X-565120Y-35277456D01*
X-623202Y-35271505D01*
X-665893Y-35275541D01*
X-708769Y-35276506D01*
X-765779Y-35289186D01*
X-871470Y-35309778D01*
X-922144Y-35317177D01*
X-969341Y-35333943D01*
X-1017326Y-35348294D01*
X-1062580Y-35372255D01*
X-1145321Y-35411158D01*
X-1166352Y-35417829D01*
X-1206231Y-35439797D01*
X-1216847Y-35444788D01*
X-1235699Y-35456029D01*
X-1254925Y-35466620D01*
X-1264596Y-35473260D01*
X-1303701Y-35496578D01*
X-1320084Y-35511359D01*
X-1388298Y-35558195D01*
X-1391249Y-35559494D01*
X-1443890Y-35596365D01*
X-1468996Y-35613603D01*
X-1471445Y-35615665D01*
X-1474076Y-35617508D01*
X-1497269Y-35637410D01*
X-1546348Y-35678737D01*
X-1548358Y-35681250D01*
X-1918503Y-35998876D01*
X-2198680Y-36226738D01*
X-2511049Y-36436261D01*
X-2876511Y-36641920D01*
X-3293583Y-36841085D01*
X-3760654Y-37031717D01*
X-4276020Y-37212191D01*
X-4837979Y-37381182D01*
X-5424573Y-37532363D01*
X-5424847Y-37532406D01*
X-5458008Y-37540980D01*
X-5489482Y-37549092D01*
X-5489729Y-37549182D01*
X-5864468Y-37646077D01*
X-5884887Y-37650553D01*
X-5897036Y-37654498D01*
X-5909385Y-37657691D01*
X-5928986Y-37664873D01*
X-6198563Y-37752409D01*
X-6199923Y-37752575D01*
X-6262547Y-37773185D01*
X-6293425Y-37783212D01*
X-6294681Y-37783761D01*
X-6295978Y-37784188D01*
X-6325580Y-37797270D01*
X-6386080Y-37823720D01*
X-6387204Y-37824503D01*
X-6562641Y-37902033D01*
X-6579448Y-37906691D01*
X-6624219Y-37929246D01*
X-6639162Y-37935850D01*
X-6654261Y-37944381D01*
X-6669757Y-37952188D01*
X-6683564Y-37960938D01*
X-6727203Y-37985595D01*
X-6740420Y-37996970D01*
X-6895963Y-38095544D01*
X-6921624Y-38107980D01*
X-6952811Y-38131571D01*
X-6957278Y-38134402D01*
X-6979616Y-38151847D01*
X-7002273Y-38168986D01*
X-7006166Y-38172582D01*
X-7036976Y-38196644D01*
X-7055592Y-38218240D01*
X-7188862Y-38341351D01*
X-7210629Y-38357137D01*
X-7238304Y-38387024D01*
X-7243383Y-38391716D01*
X-7261158Y-38411705D01*
X-7279335Y-38431335D01*
X-7283514Y-38436846D01*
X-7310580Y-38467283D01*
X-7324184Y-38490475D01*
X-7431652Y-38632190D01*
X-7441352Y-38641494D01*
X-7472350Y-38685857D01*
X-7484624Y-38702042D01*
X-7491612Y-38713424D01*
X-7499272Y-38724386D01*
X-7509230Y-38742117D01*
X-7537535Y-38788218D01*
X-7542196Y-38800820D01*
X-7663597Y-39016992D01*
X-7678617Y-39043113D01*
X-7680049Y-39046287D01*
X-7681750Y-39049317D01*
X-7693840Y-39076869D01*
X-7834656Y-39389108D01*
X-8056486Y-39844494D01*
X-8442719Y-40557744D01*
X-8941406Y-41434031D01*
X-9491273Y-42363110D01*
X-10094472Y-43317220D01*
X-10681158Y-44158323D01*
X-11248603Y-44886245D01*
X-11515606Y-45197191D01*
X-11776310Y-45479250D01*
X-12025666Y-45727355D01*
X-12261576Y-45940294D01*
X-12481428Y-46116918D01*
X-12681789Y-46256266D01*
X-12858145Y-46357969D01*
X-13004767Y-46423077D01*
X-13115136Y-46455493D01*
X-13126820Y-46456899D01*
X-13131156Y-46457244D01*
X-13235103Y-46464230D01*
X-13360256Y-46471734D01*
X-13431097Y-46475755D01*
X-13431907Y-46475804D01*
X-13540333Y-46482654D01*
X-13541878Y-46482761D01*
X-13620182Y-46488667D01*
X-13734245Y-46494326D01*
X-13755619Y-46494620D01*
X-13767832Y-46495993D01*
X-13780095Y-46496601D01*
X-13801225Y-46499746D01*
X-14154260Y-46539424D01*
X-14158221Y-46539524D01*
X-14187688Y-46543181D01*
X-14217194Y-46546497D01*
X-14221068Y-46547323D01*
X-14844242Y-46624658D01*
X-15987598Y-46739014D01*
X-15992369Y-46739088D01*
X-16021081Y-46742363D01*
X-16049812Y-46745237D01*
X-16054486Y-46746174D01*
X-16620281Y-46810718D01*
X-16635278Y-46811607D01*
X-16653694Y-46814530D01*
X-16672211Y-46816642D01*
X-16686891Y-46819798D01*
X-17263506Y-46911308D01*
X-17278594Y-46912874D01*
X-17296730Y-46916581D01*
X-17314993Y-46919479D01*
X-17329654Y-46923310D01*
X-17916554Y-47043259D01*
X-17930918Y-47045368D01*
X-17949500Y-47049993D01*
X-17968255Y-47053826D01*
X-17982121Y-47058112D01*
X-18588186Y-47208956D01*
X-18601210Y-47211385D01*
X-18620825Y-47217080D01*
X-18640630Y-47222009D01*
X-18653102Y-47226450D01*
X-19287620Y-47410666D01*
X-19298937Y-47413175D01*
X-19319949Y-47420052D01*
X-19341131Y-47426202D01*
X-19351869Y-47430500D01*
X-20024601Y-47650690D01*
X-20034051Y-47653068D01*
X-20056541Y-47661144D01*
X-20079279Y-47668586D01*
X-20088209Y-47672515D01*
X-20809198Y-47931408D01*
X-20816861Y-47933526D01*
X-20840890Y-47942788D01*
X-20865064Y-47951468D01*
X-20872229Y-47954867D01*
X-21675827Y-48264601D01*
X-22135948Y-48439302D01*
X-22524330Y-48569343D01*
X-22856078Y-48659868D01*
X-23010309Y-48689623D01*
X-23072250Y-48693048D01*
X-23173559Y-48696831D01*
X-23276306Y-48699050D01*
X-23374670Y-48699577D01*
X-23462452Y-48698300D01*
X-23533048Y-48695194D01*
X-23569140Y-48691955D01*
X-23718255Y-48670433D01*
X-23866862Y-48642086D01*
X-24017889Y-48605962D01*
X-24175020Y-48560938D01*
X-24341826Y-48505866D01*
X-24521726Y-48439628D01*
X-24718286Y-48361043D01*
X-24867313Y-48298216D01*
X-25073679Y-48208044D01*
X-25285924Y-48112290D01*
X-25502652Y-48011723D01*
X-25722127Y-47907271D01*
X-25943301Y-47799539D01*
X-26164510Y-47689429D01*
X-26384273Y-47577756D01*
X-26601330Y-47465222D01*
X-26814061Y-47352717D01*
X-27021137Y-47240979D01*
X-27221140Y-47130791D01*
X-27412500Y-47023026D01*
X-27593836Y-46918451D01*
X-27763708Y-46817869D01*
X-27920635Y-46722109D01*
X-28063066Y-46632055D01*
X-28189341Y-46548677D01*
X-28297908Y-46472914D01*
X-28386743Y-46406125D01*
X-28395141Y-46399089D01*
X-28468032Y-46221244D01*
X-28710759Y-45501587D01*
X-28982028Y-44565441D01*
X-29256357Y-43510330D01*
X-29509078Y-42434562D01*
X-29567359Y-42153600D01*
X-23981672Y-42153600D01*
X-23969412Y-42278082D01*
X-23933102Y-42397780D01*
X-23874137Y-42508094D01*
X-23794785Y-42604785D01*
X-23698094Y-42684137D01*
X-23587780Y-42743102D01*
X-23468082Y-42779412D01*
X-23343600Y-42791672D01*
X-22765750Y-42788600D01*
X-22607000Y-42629850D01*
X-22607000Y-41417000D01*
X-23819850Y-41417000D01*
X-23978600Y-41575750D01*
X-23981672Y-42153600D01*
X-29567359Y-42153600D01*
X-29716212Y-41436019D01*
X-29854918Y-40610526D01*
X-29889668Y-40312256D01*
X-29900407Y-40107845D01*
X-29879407Y-39688036D01*
X-29820016Y-39215291D01*
X-29733190Y-38768381D01*
X-29627281Y-38398214D01*
X-29533598Y-38118622D01*
X-29527699Y-38103609D01*
X-29522926Y-38086772D01*
X-29517356Y-38070148D01*
X-29513749Y-38054397D01*
X-29433788Y-37772320D01*
X-29428204Y-37755643D01*
X-29424618Y-37739971D01*
X-29420234Y-37724505D01*
X-29417119Y-37707197D01*
X-29350173Y-37414606D01*
X-29345344Y-37397183D01*
X-29342674Y-37381832D01*
X-29339199Y-37366644D01*
X-29336913Y-37348710D01*
X-29283568Y-37041991D01*
X-29279735Y-37024761D01*
X-29277807Y-37008868D01*
X-29275064Y-36993096D01*
X-29273758Y-36975491D01*
X-29234382Y-36650881D01*
X-29231581Y-36634648D01*
X-29230332Y-36617493D01*
X-29228262Y-36600430D01*
X-29227891Y-36583973D01*
X-29202646Y-36237281D01*
X-29200762Y-36222614D01*
X-29200204Y-36203738D01*
X-29198833Y-36184916D01*
X-29199210Y-36170142D01*
X-29188161Y-35796694D01*
X-29187003Y-35783895D01*
X-29187168Y-35763100D01*
X-29186552Y-35742294D01*
X-29187434Y-35729462D01*
X-29190678Y-35319419D01*
X-29189980Y-35303810D01*
X-29190944Y-35285795D01*
X-29191087Y-35267759D01*
X-29192741Y-35252225D01*
X-29245715Y-34262561D01*
X-29245692Y-34247763D01*
X-29247512Y-34228991D01*
X-29248520Y-34210154D01*
X-29250756Y-34195523D01*
X-29366208Y-33004526D01*
X-29366455Y-32995054D01*
X-29369456Y-32971023D01*
X-29371788Y-32946965D01*
X-29373619Y-32937686D01*
X-29552477Y-31505388D01*
X-29552722Y-31499671D01*
X-29556643Y-31472027D01*
X-29560106Y-31444299D01*
X-29561369Y-31438714D01*
X-29804926Y-29721783D01*
X-29804969Y-29720831D01*
X-29809652Y-29688463D01*
X-29814243Y-29656101D01*
X-29814469Y-29655176D01*
X-30056978Y-27979093D01*
X-30236563Y-26617628D01*
X-30351445Y-25516619D01*
X-30405462Y-24587729D01*
X-30402942Y-23736109D01*
X-30346437Y-22862365D01*
X-30236510Y-21870249D01*
X-30077858Y-20697546D01*
X-30076934Y-20693422D01*
X-30073349Y-20664221D01*
X-30069403Y-20635052D01*
X-30069250Y-20630826D01*
X-29954656Y-19697372D01*
X-29952266Y-19684369D01*
X-29950559Y-19663995D01*
X-29948068Y-19643707D01*
X-29947751Y-19630495D01*
X-29872702Y-18734943D01*
X-29870669Y-18720406D01*
X-29869897Y-18701472D01*
X-29868311Y-18682549D01*
X-29868525Y-18667846D01*
X-29833921Y-17819388D01*
X-29832426Y-17802973D01*
X-29832552Y-17785822D01*
X-29831852Y-17768658D01*
X-29832799Y-17752178D01*
X-29838679Y-16952072D01*
X-29838001Y-16933368D01*
X-29838926Y-16918451D01*
X-29839036Y-16903510D01*
X-29841007Y-16884903D01*
X-29887569Y-16134193D01*
X-29888134Y-16112747D01*
X-29889650Y-16100639D01*
X-29890405Y-16088462D01*
X-29893825Y-16067286D01*
X-29981508Y-15366859D01*
X-29983960Y-15342129D01*
X-29985686Y-15333484D01*
X-29986779Y-15324750D01*
X-29992260Y-15300548D01*
X-30121914Y-14651026D01*
X-30127203Y-14622523D01*
X-30128493Y-14618065D01*
X-30129400Y-14613521D01*
X-30137827Y-14585810D01*
X-30304508Y-14009788D01*
X-30306929Y-13998773D01*
X-30313867Y-13977446D01*
X-30320084Y-13955961D01*
X-30324255Y-13945513D01*
X-30517302Y-13352094D01*
X-30699761Y-12732280D01*
X-30867264Y-12101675D01*
X-31019196Y-11464481D01*
X-31154999Y-10824775D01*
X-31274104Y-10186832D01*
X-31376008Y-9554747D01*
X-31460213Y-8932729D01*
X-31526253Y-8324991D01*
X-31573688Y-7735933D01*
X-31602147Y-7169868D01*
X-31611316Y-6631415D01*
X-31601018Y-6125315D01*
X-31571277Y-5656604D01*
X-31522480Y-5230797D01*
X-31456784Y-4860228D01*
X-31341589Y-4444522D01*
X-31170095Y-3991789D01*
X-30955175Y-3528130D01*
X-30715042Y-3087959D01*
X-30470218Y-2705238D01*
X-30238972Y-2406083D01*
X-30155306Y-2317146D01*
X-30094364Y-2263590D01*
X-30087485Y-2259086D01*
X-30073841Y-2254074D01*
X-30046384Y-2245416D01*
X-30032964Y-2243409D01*
X-29982177Y-2225169D01*
X-29962907Y-2219092D01*
X-29950483Y-2213786D01*
X-29937793Y-2209228D01*
X-29919570Y-2200582D01*
X-29869911Y-2179373D01*
X-29858706Y-2171708D01*
X-29846361Y-2165850D01*
X-29843322Y-2165056D01*
X-29785470Y-2136962D01*
X-29757848Y-2123858D01*
X-29755170Y-2122249D01*
X-29752358Y-2120883D01*
X-29726282Y-2104887D01*
X-29671174Y-2071767D01*
X-29668850Y-2069656D01*
X-29433071Y-1925019D01*
X-29407876Y-1909990D01*
X-29404457Y-1907466D01*
X-29400829Y-1905240D01*
X-29377411Y-1887495D01*
X-29052131Y-1647319D01*
X-29032360Y-1633554D01*
X-29025109Y-1627367D01*
X-29017427Y-1621695D01*
X-28999518Y-1605532D01*
X-28688430Y-1340100D01*
X-28683852Y-1336800D01*
X-28662854Y-1318278D01*
X-28641535Y-1300088D01*
X-28637618Y-1296018D01*
X-28326175Y-1021301D01*
X-28004513Y-757920D01*
X-27963284Y-726932D01*
X-27848370Y-721123D01*
X-27840885Y-720522D01*
X-27646223Y-699092D01*
X-27640027Y-698256D01*
X-27428627Y-664384D01*
X-27423653Y-663485D01*
X-27192968Y-617040D01*
X-27190769Y-616577D01*
X-27176330Y-613403D01*
X-27097373Y-596177D01*
X-27002812Y-575874D01*
X-26900096Y-554073D01*
X-26799003Y-532851D01*
X-26726756Y-517865D01*
X-26726189Y-517746D01*
X-26539442Y-478120D01*
X-26537624Y-477720D01*
X-26409797Y-448633D01*
X-26415901Y-453630D01*
X-26416681Y-454274D01*
X-26642855Y-642463D01*
X-26643710Y-643181D01*
X-26855128Y-822262D01*
X-26856088Y-823083D01*
X-27051601Y-992059D01*
X-27052705Y-993024D01*
X-27231164Y-1150899D01*
X-27232473Y-1152074D01*
X-27392729Y-1297850D01*
X-27394335Y-1299336D01*
X-27535239Y-1432017D01*
X-27536557Y-1433276D01*
X-27580552Y-1475911D01*
X-27581791Y-1477128D01*
X-27675727Y-1570685D01*
X-27678015Y-1573024D01*
X-27752258Y-1650879D01*
X-27755808Y-1654759D01*
X-27810494Y-1717079D01*
X-27816580Y-1724570D01*
X-27851848Y-1771523D01*
X-27863733Y-1790678D01*
X-27879722Y-1822430D01*
X-27888686Y-1845657D01*
X-27892946Y-1870186D01*
X-27892306Y-1895345D01*
X-27890337Y-1911053D01*
X-27884834Y-1935333D01*
X-27874700Y-1958074D01*
X-27860324Y-1978400D01*
X-27842259Y-1995532D01*
X-27821199Y-2008809D01*
X-27797953Y-2017723D01*
X-27784490Y-2020646D01*
X-27764289Y-2023895D01*
X-27739439Y-2025420D01*
X-27710942Y-2021095D01*
X-27673393Y-2010932D01*
X-27656677Y-2005131D01*
X-27604996Y-1983051D01*
X-27596371Y-1978976D01*
X-27533773Y-1946475D01*
X-27527818Y-1943178D01*
X-27457520Y-1901753D01*
X-27453185Y-1899080D01*
X-27398445Y-1863792D01*
X-27395028Y-1861510D01*
X-27249854Y-1761132D01*
X-27246958Y-1759069D01*
X-27090722Y-1644446D01*
X-27088334Y-1642650D01*
X-26920069Y-1513005D01*
X-26918100Y-1511457D01*
X-26736836Y-1366010D01*
X-26735211Y-1364684D01*
X-26539979Y-1202659D01*
X-26538636Y-1201529D01*
X-26328468Y-1022146D01*
X-26327358Y-1021188D01*
X-26101283Y-823670D01*
X-26100781Y-823228D01*
X-26090986Y-814579D01*
X-25909196Y-656268D01*
X-25743111Y-516497D01*
X-25590953Y-393872D01*
X-25451274Y-287259D01*
X-25322520Y-195415D01*
X-25203237Y-117137D01*
X-25091375Y-50840D01*
X-25019207Y-12225D01*
X-24916414Y37148D01*
X-24831058Y71068D01*
X-24757389Y92185D01*
X-24687380Y103517D01*
X-24622488Y106914D01*
X-24569289Y106493D01*
X-24539500Y104139D01*
X-24526832Y101242D01*
X-24516581Y96837D01*
X-24482040Y72837D01*
X-24444767Y36868D01*
X-24414562Y-1722D01*
X-24400545Y-27348D01*
X-24387024Y-55911D01*
X-24374218Y-77262D01*
X-24351072Y-101143D01*
X-24340064Y-109859D01*
X-24319124Y-123326D01*
X-24295960Y-132449D01*
X-24271460Y-136878D01*
X-24246568Y-136442D01*
X-24222239Y-131158D01*
X-24199408Y-121230D01*
X-24178952Y-107038D01*
X-24160768Y-87989D01*
X-24150356Y-74527D01*
X-24133418Y-45273D01*
X-24127359Y-30590D01*
X-24122237Y-15586D01*
X-24109861Y29758D01*
X-24107111Y42300D01*
X-24095656Y110965D01*
X-24094748Y117429D01*
X-24084193Y209697D01*
X-24083808Y213591D01*
X-24074135Y329742D01*
X-24073947Y332323D01*
X-24065136Y472639D01*
X-24065034Y474463D01*
X-24061630Y544860D01*
X-22792572Y544860D01*
X-22780312Y420378D01*
X-22744002Y300680D01*
X-22685037Y190366D01*
X-22605685Y93675D01*
X-22508994Y14323D01*
X-22398680Y-44642D01*
X-22278982Y-80952D01*
X-22154500Y-93212D01*
X-21815250Y-90140D01*
X-21656500Y68610D01*
X-21656500Y1292860D01*
X-21402500Y1292860D01*
X-21402500Y68610D01*
X-21243750Y-90140D01*
X-20904500Y-93212D01*
X-20780018Y-80952D01*
X-20660320Y-44642D01*
X-20550006Y14323D01*
X-20453315Y93675D01*
X-20373963Y190366D01*
X-20314998Y300680D01*
X-20278688Y420378D01*
X-20266428Y544860D01*
X-20269500Y1134110D01*
X-20428250Y1292860D01*
X-21402500Y1292860D01*
X-21656500Y1292860D01*
X-22630750Y1292860D01*
X-22789500Y1134110D01*
X-22792572Y544860D01*
X-24061630Y544860D01*
X-24057066Y639223D01*
X-24057008Y640573D01*
X-24049864Y830058D01*
X-24049829Y831091D01*
X-24043490Y1045583D01*
X-24043475Y1046154D01*
X-24041393Y1129271D01*
X-24041392Y1129271D01*
X-24036882Y1305738D01*
X-24032295Y1459187D01*
X-24027400Y1594292D01*
X-24022024Y1713830D01*
X-24015968Y1821496D01*
X-24009052Y1920517D01*
X-24001059Y2014695D01*
X-23991781Y2107569D01*
X-23980948Y2203116D01*
X-23977503Y2231654D01*
X-23956616Y2383952D01*
X-23934282Y2512537D01*
X-23910989Y2616426D01*
X-23887933Y2693137D01*
X-23868678Y2737576D01*
X-23866716Y2740259D01*
X-23832501Y2748838D01*
X-23758707Y2760608D01*
X-23656709Y2771911D01*
X-23528563Y2782218D01*
X-23375269Y2791354D01*
X-23197453Y2799244D01*
X-22995525Y2805849D01*
X-22769860Y2811142D01*
X-22521548Y2815094D01*
X-22605685Y2746045D01*
X-22685037Y2649354D01*
X-22744002Y2539040D01*
X-22780312Y2419342D01*
X-22792572Y2294860D01*
X-22789500Y1705610D01*
X-22630750Y1546860D01*
X-21656500Y1546860D01*
X-21656500Y1566860D01*
X-21402500Y1566860D01*
X-21402500Y1546860D01*
X-20428250Y1546860D01*
X-20269500Y1705610D01*
X-20266428Y2294860D01*
X-20278688Y2419342D01*
X-20314998Y2539040D01*
X-20373963Y2649354D01*
X-20453315Y2746045D01*
X-20526821Y2806369D01*
X-20286007Y2801288D01*
X-19997792Y2793797D01*
X-19720042Y2785146D01*
X-19600918Y2780777D01*
X-19732462Y2672822D01*
X-19842905Y2538246D01*
X-19924972Y2384710D01*
X-19975508Y2218114D01*
X-19992572Y2044860D01*
X-19992572Y794860D01*
X-19975508Y621606D01*
X-19924972Y455010D01*
X-19842905Y301474D01*
X-19732462Y166898D01*
X-19597886Y56455D01*
X-19444350Y-25612D01*
X-19277754Y-76148D01*
X-19104500Y-93212D01*
X-18354500Y-93212D01*
X-18181246Y-76148D01*
X-18014650Y-25612D01*
X-17861114Y56455D01*
X-17726538Y166898D01*
X-17616095Y301474D01*
X-17534028Y455010D01*
X-17483492Y621606D01*
X-17471719Y741140D01*
X-10693956Y741140D01*
X-10690188Y702886D01*
X-10639652Y536290D01*
X-10557585Y382754D01*
X-10447142Y248178D01*
X-10312566Y137735D01*
X-10159030Y55668D01*
X-9992434Y5132D01*
X-9819180Y-11932D01*
X-9232054Y-11932D01*
X-12670002Y-3449881D01*
X-12699000Y-3473679D01*
X-12722798Y-3502677D01*
X-12722799Y-3502678D01*
X-12793974Y-3589404D01*
X-12864546Y-3721434D01*
X-12890694Y-3807635D01*
X-12908002Y-3864694D01*
X-12915150Y-3937271D01*
X-12922676Y-4013680D01*
X-12918999Y-4051012D01*
X-12919000Y-17863280D01*
X-13671678Y-17863280D01*
X-13709001Y-17859604D01*
X-13746324Y-17863280D01*
X-13746333Y-17863280D01*
X-13857986Y-17874277D01*
X-13963975Y-17906428D01*
X-14001247Y-17917734D01*
X-14133277Y-17988306D01*
X-14155503Y-18006547D01*
X-14249001Y-18083279D01*
X-14272799Y-18112277D01*
X-22991002Y-26830481D01*
X-23020000Y-26854279D01*
X-23043798Y-26883277D01*
X-23043799Y-26883278D01*
X-23114974Y-26970004D01*
X-23185546Y-27102034D01*
X-23229002Y-27245295D01*
X-23243676Y-27394280D01*
X-23239999Y-27431612D01*
X-23240000Y-37456984D01*
X-23316606Y-37497931D01*
X-23544797Y-37685203D01*
X-23732069Y-37913394D01*
X-23871225Y-38173736D01*
X-23956916Y-38456223D01*
X-23985851Y-38750000D01*
X-23956916Y-39043777D01*
X-23871225Y-39326264D01*
X-23732069Y-39586606D01*
X-23544797Y-39814797D01*
X-23536735Y-39821414D01*
X-23587780Y-39836898D01*
X-23698094Y-39895863D01*
X-23794785Y-39975215D01*
X-23874137Y-40071906D01*
X-23933102Y-40182220D01*
X-23969412Y-40301918D01*
X-23981672Y-40426400D01*
X-23978600Y-41004250D01*
X-23819850Y-41163000D01*
X-22607000Y-41163000D01*
X-22607000Y-41143000D01*
X-22353000Y-41143000D01*
X-22353000Y-41163000D01*
X-22333000Y-41163000D01*
X-22333000Y-41417000D01*
X-22353000Y-41417000D01*
X-22353000Y-42629850D01*
X-22194250Y-42788600D01*
X-21616400Y-42791672D01*
X-21491918Y-42779412D01*
X-21372220Y-42743102D01*
X-21261906Y-42684137D01*
X-21165215Y-42604785D01*
X-21085863Y-42508094D01*
X-21026898Y-42397780D01*
X-21011414Y-42346735D01*
X-21004797Y-42354797D01*
X-20776606Y-42542069D01*
X-20516264Y-42681225D01*
X-20233777Y-42766916D01*
X-20013619Y-42788600D01*
X-19866381Y-42788600D01*
X-19646223Y-42766916D01*
X-19363736Y-42681225D01*
X-19103394Y-42542069D01*
X-18875203Y-42354797D01*
X-18687931Y-42126606D01*
X-18668117Y-42089537D01*
X-18564039Y-42245302D01*
X-18355302Y-42454039D01*
X-18109853Y-42618042D01*
X-17837125Y-42731010D01*
X-17547599Y-42788600D01*
X-17252401Y-42788600D01*
X-16962875Y-42731010D01*
X-16690147Y-42618042D01*
X-16444698Y-42454039D01*
X-16235961Y-42245302D01*
X-16071958Y-41999853D01*
X-15958990Y-41727125D01*
X-15901400Y-41437599D01*
X-15901400Y-41142401D01*
X-15958990Y-40852875D01*
X-16071958Y-40580147D01*
X-16235961Y-40334698D01*
X-16444698Y-40125961D01*
X-16603281Y-40020000D01*
X-16444698Y-39914039D01*
X-16235961Y-39705302D01*
X-16071958Y-39459853D01*
X-15958990Y-39187125D01*
X-15901400Y-38897599D01*
X-15901400Y-38602401D01*
X-15958990Y-38312875D01*
X-16071958Y-38040147D01*
X-16235961Y-37794698D01*
X-16444698Y-37585961D01*
X-16690147Y-37421958D01*
X-16962875Y-37308990D01*
X-17252401Y-37251400D01*
X-17547599Y-37251400D01*
X-17837125Y-37308990D01*
X-18109853Y-37421958D01*
X-18355302Y-37585961D01*
X-18564039Y-37794698D01*
X-18668117Y-37950463D01*
X-18687931Y-37913394D01*
X-18875203Y-37685203D01*
X-19103394Y-37497931D01*
X-19363736Y-37358775D01*
X-19646223Y-37273084D01*
X-19866381Y-37251400D01*
X-20013619Y-37251400D01*
X-20233777Y-37273084D01*
X-20516264Y-37358775D01*
X-20776606Y-37497931D01*
X-21004797Y-37685203D01*
X-21192069Y-37913394D01*
X-21210000Y-37946940D01*
X-21227931Y-37913394D01*
X-21415203Y-37685203D01*
X-21643394Y-37497931D01*
X-21720000Y-37456984D01*
X-21720000Y-27709081D01*
X-13394198Y-19383280D01*
X-12196333Y-19383280D01*
X-12159000Y-19386957D01*
X-12121667Y-19383280D01*
X-12010014Y-19372283D01*
X-11866753Y-19328826D01*
X-11734724Y-19258254D01*
X-11618999Y-19163281D01*
X-11524026Y-19047556D01*
X-11453454Y-18915527D01*
X-11409997Y-18772266D01*
X-11395323Y-18623280D01*
X-11399000Y-18585947D01*
X-11399000Y-4328481D01*
X-7076777Y-6259D01*
X-7019180Y-11932D01*
X-6269180Y-11932D01*
X-6095926Y5132D01*
X-5929330Y55668D01*
X-5775794Y137735D01*
X-5641218Y248178D01*
X-5530775Y382754D01*
X-5448708Y536290D01*
X-5398172Y702886D01*
X-5394404Y741140D01*
X3780085Y741140D01*
X3796072Y578825D01*
X3846608Y412229D01*
X3928675Y258693D01*
X4039118Y124118D01*
X4173693Y13675D01*
X4327229Y-68392D01*
X4493825Y-118928D01*
X4667079Y-135992D01*
X5567081Y-135992D01*
X5740335Y-118928D01*
X5906931Y-68392D01*
X6060467Y13675D01*
X6195042Y124118D01*
X6305485Y258693D01*
X6387552Y412229D01*
X6438088Y578825D01*
X6455152Y752079D01*
X6455152Y2052081D01*
X6438088Y2225335D01*
X6387552Y2391931D01*
X6305485Y2545467D01*
X6195042Y2680042D01*
X6060467Y2790485D01*
X5906931Y2872552D01*
X5740335Y2923088D01*
X5567081Y2940152D01*
X4667079Y2940152D01*
X4493825Y2923088D01*
X4327229Y2872552D01*
X4173693Y2790485D01*
X4039118Y2680042D01*
X3928675Y2545467D01*
X3846608Y2391931D01*
X3806933Y2261140D01*
X-5394404Y2261140D01*
X-5398172Y2299394D01*
X-5448708Y2465990D01*
X-5530775Y2619526D01*
X-5641218Y2754102D01*
X-5775794Y2864545D01*
X-5929330Y2946612D01*
X-6095926Y2997148D01*
X-6269180Y3014212D01*
X-7019180Y3014212D01*
X-7192434Y2997148D01*
X-7359030Y2946612D01*
X-7512566Y2864545D01*
X-7647142Y2754102D01*
X-7757585Y2619526D01*
X-7839652Y2465990D01*
X-7890188Y2299394D01*
X-7907252Y2126140D01*
X-7907252Y1312870D01*
X-8181108Y1039014D01*
X-8181108Y2126140D01*
X-8198172Y2299394D01*
X-8248708Y2465990D01*
X-8330775Y2619526D01*
X-8441218Y2754102D01*
X-8575794Y2864545D01*
X-8684180Y2922479D01*
X-8684180Y24714978D01*
X-8680504Y24752301D01*
X-8684180Y24789624D01*
X-8684180Y24789633D01*
X-8695177Y24901286D01*
X-8738634Y25044547D01*
X-8776593Y25115563D01*
X-8809206Y25176577D01*
X-8880381Y25263303D01*
X-8904179Y25292301D01*
X-8933177Y25316099D01*
X-10829381Y27212302D01*
X-10823708Y27269900D01*
X-10823708Y27762500D01*
X13005568Y27762500D01*
X13017828Y27638018D01*
X13054138Y27518320D01*
X13113103Y27408006D01*
X13192455Y27311315D01*
X13289146Y27231963D01*
X13399460Y27172998D01*
X13519158Y27136688D01*
X13643640Y27124428D01*
X14232890Y27127500D01*
X14391640Y27286250D01*
X14391640Y28260500D01*
X13167390Y28260500D01*
X13008640Y28101750D01*
X13005568Y27762500D01*
X-10823708Y27762500D01*
X-10823708Y28019900D01*
X-10840772Y28193154D01*
X-10891308Y28359750D01*
X-10973375Y28513286D01*
X-11083818Y28647862D01*
X-11218394Y28758305D01*
X-11371930Y28840372D01*
X-11538526Y28890908D01*
X-11711780Y28907972D01*
X-12961780Y28907972D01*
X-13135034Y28890908D01*
X-13301630Y28840372D01*
X-13455166Y28758305D01*
X-13589742Y28647862D01*
X-13700185Y28513286D01*
X-13782252Y28359750D01*
X-13832788Y28193154D01*
X-13849852Y28019900D01*
X-13849852Y27269900D01*
X-13832788Y27096646D01*
X-13782252Y26930050D01*
X-13700185Y26776514D01*
X-13589742Y26641938D01*
X-13455166Y26531495D01*
X-13301630Y26449428D01*
X-13135034Y26398892D01*
X-12961780Y26381828D01*
X-12148509Y26381828D01*
X-10204179Y24437497D01*
X-10204180Y2922479D01*
X-10312566Y2864545D01*
X-10447142Y2754102D01*
X-10557585Y2619526D01*
X-10639652Y2465990D01*
X-10690188Y2299394D01*
X-10693956Y2261140D01*
X-17496544Y2261140D01*
X-17534028Y2384710D01*
X-17616095Y2538246D01*
X-17619140Y2541956D01*
X-17575225Y2534028D01*
X-17550409Y2532028D01*
X-17534556Y2533305D01*
X-17457145Y2544456D01*
X-17424134Y2553901D01*
X-17342647Y2589730D01*
X-17328039Y2597318D01*
X-17308365Y2609217D01*
X-17288218Y2620802D01*
X-17275817Y2625767D01*
X-17254365Y2630778D01*
X-17212653Y2636462D01*
X-17158613Y2641698D01*
X-17091979Y2646931D01*
X-17024434Y2651110D01*
X-16966445Y2653654D01*
X-16936959Y2654215D01*
X-16934927Y2654270D01*
X-16890952Y2655811D01*
X-16880367Y2656626D01*
X-16847390Y2660557D01*
X-16818882Y2667361D01*
X-16804242Y2672704D01*
X-16781804Y2683491D01*
X-16761901Y2698448D01*
X-16745299Y2717000D01*
X-16732635Y2738435D01*
X-16724396Y2761929D01*
X-16720899Y2786578D01*
X-16722278Y2811436D01*
X-16726853Y2830800D01*
X-16731362Y2844856D01*
X-16746637Y2876532D01*
X-16764688Y2903596D01*
X-16771491Y2912859D01*
X-16799313Y2947353D01*
X-16802413Y2951051D01*
X-16805506Y2954601D01*
X-16841984Y2996790D01*
X-16873211Y3034623D01*
X-16903261Y3073379D01*
X-16935817Y3118042D01*
X-16974277Y3173345D01*
X-17021646Y3243461D01*
X-17062199Y3304291D01*
X-17062356Y3304526D01*
X-17118229Y3387934D01*
X-17119372Y3389611D01*
X-17164990Y3455411D01*
X-17167487Y3458886D01*
X-17206214Y3510912D01*
X-17210667Y3516554D01*
X-17245864Y3558640D01*
X-17252288Y3565757D01*
X-17287317Y3601737D01*
X-17294315Y3608398D01*
X-17332539Y3642106D01*
X-17337960Y3646625D01*
X-17382742Y3681894D01*
X-17385289Y3683849D01*
X-17419117Y3709132D01*
X-17491356Y3765353D01*
X-17535160Y3805865D01*
X-17543343Y3816504D01*
X-17521958Y3840081D01*
X-17499233Y3860561D01*
X-17468908Y3884485D01*
X-17430145Y3911691D01*
X-17380974Y3943059D01*
X-17319691Y3979353D01*
X-17244649Y4021384D01*
X-17154347Y4069934D01*
X-17047229Y4125855D01*
X-16921394Y4190194D01*
X-16775491Y4263727D01*
X-16656839Y4323011D01*
X-16356622Y4471043D01*
X-16075674Y4606277D01*
X-15810864Y4730114D01*
X-15559539Y4843722D01*
X-15319101Y4948247D01*
X-15086724Y5044937D01*
X-14859667Y5134992D01*
X-14635103Y5219649D01*
X-14493057Y5270960D01*
X-14366118Y5314321D01*
X-14243792Y5352236D01*
X-14118169Y5386944D01*
X-13981675Y5420497D01*
X-13826575Y5454942D01*
X-13810334Y5458388D01*
X-13808740Y5458737D01*
X-13660646Y5492154D01*
X-13657491Y5492908D01*
X-13510172Y5530128D01*
X-13507137Y5530935D01*
X-13364630Y5570712D01*
X-13361453Y5571644D01*
X-13227796Y5612736D01*
X-13224144Y5613919D01*
X-13103373Y5655083D01*
X-13098704Y5656777D01*
X-12994857Y5696770D01*
X-12988060Y5699617D01*
X-12905174Y5737194D01*
X-12900069Y5739647D01*
X-12897773Y5740814D01*
X-12889705Y5745290D01*
X-12835745Y5777849D01*
X-12821828Y5787573D01*
X-12775308Y5824938D01*
X-12761138Y5838224D01*
X-12726753Y5875806D01*
X-12708169Y5902193D01*
X-12690617Y5935404D01*
X-12681197Y5958450D01*
X-12677083Y5977454D01*
X-12675783Y5986913D01*
X-12674827Y6011791D01*
X-12677339Y6030438D01*
X-12683781Y6060953D01*
X-12691286Y6084691D01*
X-12699045Y6099902D01*
X-12719222Y6133642D01*
X-12735139Y6154861D01*
X-12770329Y6192771D01*
X-12781970Y6203821D01*
X-12833451Y6246843D01*
X-12841311Y6252906D01*
X-12910360Y6301987D01*
X-12915627Y6305536D01*
X-13003524Y6361619D01*
X-13007078Y6363805D01*
X-13115098Y6427834D01*
X-13117516Y6429232D01*
X-13246939Y6502151D01*
X-13248189Y6502846D01*
X-13311863Y6537782D01*
X-13469135Y6624481D01*
X-13603841Y6701203D01*
X-13717776Y6769417D01*
X-13812311Y6830286D01*
X-13888628Y6884696D01*
X-13948240Y6933493D01*
X-13992954Y6977381D01*
X-14025331Y7017435D01*
X-14048589Y7055750D01*
X-14065777Y7095699D01*
X-14078869Y7141142D01*
X-14089095Y7196563D01*
X-14091788Y7214918D01*
X-14093939Y7231049D01*
X-14095264Y7244853D01*
X-14095971Y7260232D01*
X-14095958Y7280862D01*
X-14094931Y7309543D01*
X-14092632Y7348205D01*
X-14088865Y7398815D01*
X-14083510Y7462943D01*
X-14076422Y7542691D01*
X-14067442Y7640394D01*
X-14056460Y7757868D01*
X-14043340Y7897248D01*
X-14034686Y7989085D01*
X-14034618Y7989829D01*
X-14015911Y8201674D01*
X-14015754Y8203632D01*
X-14002021Y8392440D01*
X-14001848Y8395235D01*
X-13993363Y8562933D01*
X-13993226Y8566819D01*
X-13990264Y8715333D01*
X-13990269Y8720610D01*
X-13993107Y8851866D01*
X-13993451Y8858855D01*
X-14002362Y8974777D01*
X-14003372Y8983742D01*
X-14018632Y9086258D01*
X-14020766Y9097244D01*
X-14042651Y9188279D01*
X-14046385Y9200896D01*
X-14075168Y9282375D01*
X-14080732Y9295669D01*
X-14116689Y9369518D01*
X-14123757Y9382151D01*
X-14167164Y9450297D01*
X-14174836Y9461061D01*
X-14225967Y9525429D01*
X-14232660Y9533190D01*
X-14282438Y9586409D01*
X-14286575Y9590630D01*
X-14319637Y9622834D01*
X-14322861Y9625867D01*
X-14358140Y9657912D01*
X-14361572Y9660919D01*
X-14401500Y9694650D01*
X-14404571Y9697163D01*
X-14451583Y9734425D01*
X-14453993Y9736289D01*
X-14510522Y9778927D01*
X-14512246Y9780205D01*
X-14580724Y9830063D01*
X-14581877Y9830892D01*
X-14664738Y9889816D01*
X-14665467Y9890330D01*
X-14765145Y9960164D01*
X-14765536Y9960437D01*
X-14852207Y10020674D01*
X-15113626Y10213566D01*
X-15356285Y10416153D01*
X-15551133Y10599457D01*
X-15655417Y10708181D01*
X-15737970Y10804786D01*
X-15799702Y10890017D01*
X-15842487Y10965038D01*
X-15869079Y11031719D01*
X-15883490Y11097211D01*
X-15884710Y11108598D01*
X-15885642Y11139853D01*
X-15883081Y11166583D01*
X-15876557Y11193563D01*
X-15864361Y11224374D01*
X-15844120Y11261465D01*
X-15813681Y11306084D01*
X-15771463Y11358860D01*
X-15716327Y11420310D01*
X-15647296Y11491116D01*
X-15563548Y11572008D01*
X-15464156Y11663944D01*
X-15348242Y11767899D01*
X-15214844Y11884959D01*
X-15063024Y12016202D01*
X-14963139Y12101833D01*
X-14473091Y12520933D01*
X-14455848Y12538891D01*
X-14442439Y12559868D01*
X-14433380Y12583058D01*
X-14428635Y12617375D01*
X-14428038Y13633375D01*
X-14428038Y13633496D01*
X-14428128Y13883842D01*
X-14428128Y13884146D01*
X-14428753Y14111118D01*
X-14428755Y14111531D01*
X-14429990Y14317150D01*
X-14429995Y14317695D01*
X-14431913Y14503984D01*
X-14431922Y14504685D01*
X-14434596Y14673664D01*
X-14434613Y14674550D01*
X-14438117Y14828242D01*
X-14438146Y14829331D01*
X-14442553Y14969757D01*
X-14442601Y14971061D01*
X-14447984Y15100242D01*
X-14448056Y15101756D01*
X-14454490Y15221716D01*
X-14454592Y15223408D01*
X-14462150Y15336166D01*
X-14462284Y15337972D01*
X-14471038Y15445551D01*
X-14471201Y15447388D01*
X-14481226Y15551810D01*
X-14481407Y15553568D01*
X-14492776Y15656854D01*
X-14492960Y15658431D01*
X-14505746Y15762603D01*
X-14505867Y15763557D01*
X-14505897Y15763787D01*
X-14506064Y15765020D01*
X-14530391Y15938272D01*
X-14530989Y15942109D01*
X-14557318Y16095421D01*
X-14558286Y16100447D01*
X-14587930Y16239269D01*
X-14589339Y16245171D01*
X-14623609Y16374953D01*
X-14625395Y16381087D01*
X-14665606Y16507279D01*
X-14667528Y16512859D01*
X-14714990Y16640911D01*
X-14716011Y16643574D01*
X-14721530Y16657496D01*
X-14749342Y16731023D01*
X-14776607Y16809663D01*
X-14800279Y16884147D01*
X-14817329Y16945138D01*
X-14817499Y16945828D01*
X-14848569Y17092272D01*
X-14876564Y17262806D01*
X-14901607Y17457925D01*
X-14923540Y17676308D01*
X-14942284Y17916883D01*
X-14957789Y18178647D01*
X-14970019Y18460600D01*
X-14978946Y18761680D01*
X-14984552Y19080987D01*
X-14986824Y19417725D01*
X-14985745Y19770708D01*
X-14981303Y20139330D01*
X-14973484Y20522623D01*
X-14962285Y20919350D01*
X-14947689Y21328950D01*
X-14929688Y21750354D01*
X-14908257Y22183059D01*
X-14883423Y22625413D01*
X-14877810Y22718868D01*
X-14844471Y23234262D01*
X-14806639Y23757861D01*
X-14764630Y24286592D01*
X-14718772Y24817285D01*
X-14669350Y25347237D01*
X-14616706Y25873130D01*
X-14561143Y26392046D01*
X-14502964Y26901090D01*
X-14442507Y27397003D01*
X-14380078Y27876870D01*
X-14316027Y28337419D01*
X-14250564Y28776366D01*
X-14243835Y28819704D01*
X-14211787Y29012500D01*
X13005568Y29012500D01*
X13008640Y28673250D01*
X13167390Y28514500D01*
X14391640Y28514500D01*
X14391640Y29488750D01*
X14232890Y29647500D01*
X13643640Y29650572D01*
X13519158Y29638312D01*
X13399460Y29602002D01*
X13289146Y29543037D01*
X13192455Y29463685D01*
X13113103Y29366994D01*
X13054138Y29256680D01*
X13017828Y29136982D01*
X13005568Y29012500D01*
X-14211787Y29012500D01*
X-14197259Y29099891D01*
X-14143613Y29389715D01*
X-14083690Y29686114D01*
X-14054501Y29819900D01*
X-13849852Y29819900D01*
X-13837592Y29695418D01*
X-13801282Y29575720D01*
X-13742317Y29465406D01*
X-13662965Y29368715D01*
X-13566274Y29289363D01*
X-13455960Y29230398D01*
X-13336262Y29194088D01*
X-13211780Y29181828D01*
X-12622530Y29184900D01*
X-12463780Y29343650D01*
X-12463780Y30317900D01*
X-12209780Y30317900D01*
X-12209780Y29343650D01*
X-12051030Y29184900D01*
X-11461780Y29181828D01*
X-11337298Y29194088D01*
X-11217600Y29230398D01*
X-11107286Y29289363D01*
X-11010595Y29368715D01*
X-10931243Y29465406D01*
X-10872278Y29575720D01*
X-10835968Y29695418D01*
X-10823708Y29819900D01*
X-10826780Y30159150D01*
X-10985530Y30317900D01*
X-12209780Y30317900D01*
X-12463780Y30317900D01*
X-13688030Y30317900D01*
X-13846780Y30159150D01*
X-13849852Y29819900D01*
X-14054501Y29819900D01*
X-14018417Y29985279D01*
X-13948709Y30283471D01*
X-13875475Y30577001D01*
X-13837167Y30721037D01*
X-13688030Y30571900D01*
X-12463780Y30571900D01*
X-12463780Y31546150D01*
X-12209780Y31546150D01*
X-12209780Y30571900D01*
X-10985530Y30571900D01*
X-10826780Y30730650D01*
X-10823708Y31069900D01*
X-10835968Y31194382D01*
X-10872278Y31314080D01*
X-10931243Y31424394D01*
X-11010595Y31521085D01*
X-11107286Y31600437D01*
X-11217600Y31659402D01*
X-11337298Y31695712D01*
X-11461780Y31707972D01*
X-12051030Y31704900D01*
X-12209780Y31546150D01*
X-12463780Y31546150D01*
X-12622530Y31704900D01*
X-13211780Y31707972D01*
X-13336262Y31695712D01*
X-13455960Y31659402D01*
X-13566274Y31600437D01*
X-13578825Y31590137D01*
X-13566097Y31628868D01*
X-13518607Y31763551D01*
X-13469981Y31892097D01*
X-13425666Y31997632D01*
X-13384255Y32083555D01*
X-13344328Y32153607D01*
X-13303015Y32213763D01*
X-13289764Y32230784D01*
X-13289601Y32230994D01*
X-13251576Y32280049D01*
X-13250166Y32281902D01*
X-13199895Y32349270D01*
X-13199133Y32350302D01*
X-13138549Y32433225D01*
X-13138054Y32433908D01*
X-13069093Y32529626D01*
X-13068729Y32530133D01*
X-12993325Y32635886D01*
X-12993031Y32636300D01*
X-12913117Y32749330D01*
X-12912860Y32749696D01*
X-12830372Y32867243D01*
X-12830129Y32867590D01*
X-12747000Y32986895D01*
X-12746753Y32987250D01*
X-12664919Y33105554D01*
X-12664652Y33105942D01*
X-12586045Y33220485D01*
X-12585734Y33220940D01*
X-12512290Y33328962D01*
X-12511900Y33329539D01*
X-12445553Y33428283D01*
X-12445024Y33429077D01*
X-12387707Y33515782D01*
X-12387239Y33516496D01*
X-12372568Y33539017D01*
X-12371382Y33540871D01*
X-12238546Y33752721D01*
X-12236165Y33756678D01*
X-12121940Y33954478D01*
X-12119227Y33959426D01*
X-12022637Y34145295D01*
X-12019690Y34151354D01*
X-11939757Y34327410D01*
X-11936743Y34334630D01*
X-11872489Y34502990D01*
X-11869646Y34511289D01*
X-11820094Y34674073D01*
X-11817917Y34682179D01*
X-11788769Y34807009D01*
X-11787088Y34815507D01*
X-11772860Y34903020D01*
X-11771963Y34909626D01*
X-11760054Y35018783D01*
X-11759638Y35023369D01*
X-11750417Y35150491D01*
X-11750253Y35153134D01*
X-11747301Y35210342D01*
X-11747300Y35210353D01*
X-11742976Y35294280D01*
X-11737942Y35375774D01*
X-11732599Y35449501D01*
X-11727473Y35508466D01*
X-11723684Y35541920D01*
X-11686691Y35754040D01*
X-11634286Y35976161D01*
X-11568753Y36200075D01*
X-11492593Y36417070D01*
X-11419533Y36593839D01*
X-11407218Y36619239D01*
X-11382418Y36667659D01*
X-11347059Y36735237D01*
X-11302665Y36819106D01*
X-11250312Y36917291D01*
X-11191464Y37027084D01*
X-11126857Y37147144D01*
X-11057997Y37274695D01*
X-10985766Y37408119D01*
X-10911376Y37545189D01*
X-10835893Y37683945D01*
X-10760623Y37821988D01*
X-10686516Y37957572D01*
X-10614758Y38088518D01*
X-10546479Y38212747D01*
X-10482814Y38328178D01*
X-10424749Y38432994D01*
X-10373816Y38524395D01*
X-10330877Y38600791D01*
X-10297193Y38659880D01*
X-10274274Y38698963D01*
X-10270746Y38704726D01*
X-10093217Y38971302D01*
X-9896333Y39233755D01*
X-9683226Y39488692D01*
X-9457911Y39731516D01*
X-9224448Y39957681D01*
X-8985241Y40164157D01*
X-8833286Y40288910D01*
X-8831994Y40289985D01*
X-8677794Y40420034D01*
X-8676539Y40421107D01*
X-8519287Y40557268D01*
X-8518092Y40558316D01*
X-8356722Y40701615D01*
X-8355604Y40702620D01*
X-8189054Y40854083D01*
X-8188025Y40855029D01*
X-8015230Y41015682D01*
X-8014295Y41016560D01*
X-7834192Y41187429D01*
X-7833355Y41188230D01*
X-7644879Y41370340D01*
X-7644136Y41371064D01*
X-7446223Y41565442D01*
X-7445571Y41566087D01*
X-7237158Y41773758D01*
X-7236590Y41774328D01*
X-7016613Y41996317D01*
X-7016121Y41996816D01*
X-6783516Y42234151D01*
X-6783095Y42234583D01*
X-6536798Y42488288D01*
X-6536439Y42488659D01*
X-6275386Y42759760D01*
X-6275116Y42760041D01*
X-6066420Y42978104D01*
X-5928034Y43122665D01*
X-5805581Y43249645D01*
X-5696377Y43361650D01*
X-5599038Y43459954D01*
X-5511476Y43546546D01*
X-5432017Y43623013D01*
X-5358608Y43691319D01*
X-5289423Y43753209D01*
X-5222318Y43810711D01*
X-5155371Y43865630D01*
X-5086367Y43920001D01*
X-5013158Y43975772D01*
X-4991313Y43992122D01*
X-4811289Y44118542D01*
X-4633464Y44228299D01*
X-4459258Y44321075D01*
X-4291733Y44395560D01*
X-4133792Y44450698D01*
X-4001168Y44483241D01*
X-3909721Y44495619D01*
X-3809878Y44500360D01*
X-3712448Y44497252D01*
X-3626675Y44486612D01*
X-3599354Y44480672D01*
X-3551084Y44466061D01*
X-3489791Y44443951D01*
X-3428685Y44418947D01*
X-3412435Y44411640D01*
X-3408701Y44410033D01*
X-3260119Y44348860D01*
X-3248363Y44344682D01*
X-3104123Y44301280D01*
X-3089810Y44297864D01*
X-2948028Y44272598D01*
X-2931825Y44270774D01*
X-2790623Y44264009D01*
X-2773801Y44264318D01*
X-2631296Y44276417D01*
X-2615340Y44278800D01*
X-2469651Y44310129D01*
X-2455708Y44313970D01*
X-2304954Y44364893D01*
X-2293531Y44369377D01*
X-2135832Y44440259D01*
X-2126893Y44444708D01*
X-1960366Y44535912D01*
X-1953573Y44539911D01*
X-1776338Y44651804D01*
X-1772012Y44654660D01*
X-1646890Y44740990D01*
X-1485398Y44852393D01*
X-1341111Y44944541D01*
X-1210464Y45019459D01*
X-1091207Y45078385D01*
X-980876Y45122775D01*
X-876619Y45154242D01*
X-775107Y45174371D01*
X-671669Y45184551D01*
X-611260Y45186077D01*
X-494679Y45180104D01*
M02*
