G04 #@! TF.GenerationSoftware,KiCad,Pcbnew,(5.1.2)-1*
G04 #@! TF.CreationDate,2019-07-11T20:21:29-05:00*
G04 #@! TF.ProjectId,keanu-homeboy,6b65616e-752d-4686-9f6d-65626f792e6b,rev?*
G04 #@! TF.SameCoordinates,Original*
G04 #@! TF.FileFunction,Profile,NP*
%FSLAX46Y46*%
G04 Gerber Fmt 4.6, Leading zero omitted, Abs format (unit mm)*
G04 Created by KiCad (PCBNEW (5.1.2)-1) date 2019-07-11 20:21:29*
%MOMM*%
%LPD*%
G04 APERTURE LIST*
%ADD10C,0.100000*%
G04 APERTURE END LIST*
D10*
X-24285366Y-49323263D02*
X-24500759Y-49259732D01*
X-24500759Y-49259732D02*
X-24762871Y-49165364D01*
X-24762871Y-49165364D02*
X-25395564Y-48900630D01*
X-25395564Y-48900630D02*
X-26120078Y-48562077D01*
X-26120078Y-48562077D02*
X-26873049Y-48182723D01*
X-26873049Y-48182723D02*
X-27591108Y-47795587D01*
X-27591108Y-47795587D02*
X-28210891Y-47433684D01*
X-28210891Y-47433684D02*
X-28669029Y-47130033D01*
X-28669029Y-47130033D02*
X-28817680Y-47010370D01*
X-28817680Y-47010370D02*
X-28902158Y-46917651D01*
X-28902158Y-46917651D02*
X-28998911Y-46732210D01*
X-28998911Y-46732210D02*
X-29110138Y-46460825D01*
X-29110138Y-46460825D02*
X-29364576Y-45706446D01*
X-29364576Y-45706446D02*
X-29642606Y-44746964D01*
X-29642606Y-44746964D02*
X-29921361Y-43674827D01*
X-29921361Y-43674827D02*
X-30177975Y-42582485D01*
X-30177975Y-42582485D02*
X-30389581Y-41562385D01*
X-30389581Y-41562385D02*
X-30533314Y-40706977D01*
X-30533314Y-40706977D02*
X-30572582Y-40369922D01*
X-30572582Y-40369922D02*
X-30586306Y-40108709D01*
X-30586306Y-40108709D02*
X-30562267Y-39628145D01*
X-30562267Y-39628145D02*
X-30496815Y-39107160D01*
X-30496815Y-39107160D02*
X-30399945Y-38608546D01*
X-30399945Y-38608546D02*
X-30281652Y-38195097D01*
X-30281652Y-38195097D02*
X-30177555Y-37884422D01*
X-30177555Y-37884422D02*
X-30088443Y-37570060D01*
X-30088443Y-37570060D02*
X-30014447Y-37246659D01*
X-30014447Y-37246659D02*
X-29955698Y-36908870D01*
X-29955698Y-36908870D02*
X-29912328Y-36551342D01*
X-29912328Y-36551342D02*
X-29884467Y-36168726D01*
X-29884467Y-36168726D02*
X-29872247Y-35755670D01*
X-29872247Y-35755670D02*
X-29875799Y-35306825D01*
X-29875799Y-35306825D02*
X-29930742Y-34280366D01*
X-29930742Y-34280366D02*
X-30050345Y-33046547D01*
X-30050345Y-33046547D02*
X-30235657Y-31562566D01*
X-30235657Y-31562566D02*
X-30487727Y-29785622D01*
X-30487727Y-29785622D02*
X-30735532Y-28072938D01*
X-30735532Y-28072938D02*
X-30916899Y-26697965D01*
X-30916899Y-26697965D02*
X-31034378Y-25572069D01*
X-31034378Y-25572069D02*
X-31090520Y-24606616D01*
X-31090520Y-24606616D02*
X-31087876Y-23712972D01*
X-31087876Y-23712972D02*
X-31028996Y-22802504D01*
X-31028996Y-22802504D02*
X-30916430Y-21786578D01*
X-30916430Y-21786578D02*
X-30752730Y-20576560D01*
X-30752730Y-20576560D02*
X-30632063Y-19593636D01*
X-30632063Y-19593636D02*
X-30553728Y-18658874D01*
X-30553728Y-18658874D02*
X-30517654Y-17774362D01*
X-30517654Y-17774362D02*
X-30523770Y-16942190D01*
X-30523770Y-16942190D02*
X-30572008Y-16164448D01*
X-30572008Y-16164448D02*
X-30662294Y-15443223D01*
X-30662294Y-15443223D02*
X-30794561Y-14780606D01*
X-30794561Y-14780606D02*
X-30968736Y-14178685D01*
X-30968736Y-14178685D02*
X-31171698Y-13554785D01*
X-31171698Y-13554785D02*
X-31359463Y-12916944D01*
X-31359463Y-12916944D02*
X-31531555Y-12269063D01*
X-31531555Y-12269063D02*
X-31687497Y-11615047D01*
X-31687497Y-11615047D02*
X-31826813Y-10958796D01*
X-31826813Y-10958796D02*
X-31949025Y-10304214D01*
X-31949025Y-10304214D02*
X-32053657Y-9655201D01*
X-32053657Y-9655201D02*
X-32140233Y-9015662D01*
X-32140233Y-9015662D02*
X-32208275Y-8389498D01*
X-32208275Y-8389498D02*
X-32257307Y-7780611D01*
X-32257307Y-7780611D02*
X-32286853Y-7192904D01*
X-32286853Y-7192904D02*
X-32296434Y-6630278D01*
X-32296434Y-6630278D02*
X-32285576Y-6096638D01*
X-32285576Y-6096638D02*
X-32253801Y-5595883D01*
X-32253801Y-5595883D02*
X-32200631Y-5131918D01*
X-32200631Y-5131918D02*
X-32125592Y-4708644D01*
X-32125592Y-4708644D02*
X-31993315Y-4231292D01*
X-31993315Y-4231292D02*
X-31801945Y-3726086D01*
X-31801945Y-3726086D02*
X-31567237Y-3219736D01*
X-31567237Y-3219736D02*
X-31304945Y-2738948D01*
X-31304945Y-2738948D02*
X-31030826Y-2310431D01*
X-31030826Y-2310431D02*
X-30760634Y-1960893D01*
X-30760634Y-1960893D02*
X-30631935Y-1824086D01*
X-30631935Y-1824086D02*
X-30510126Y-1717040D01*
X-30510126Y-1717040D02*
X-30397176Y-1643093D01*
X-30397176Y-1643093D02*
X-30295056Y-1605582D01*
X-30295056Y-1605582D02*
X-30201007Y-1575924D01*
X-30201007Y-1575924D02*
X-30081861Y-1519398D01*
X-30081861Y-1519398D02*
X-29787694Y-1338943D01*
X-29787694Y-1338943D02*
X-29451381Y-1090620D01*
X-29451381Y-1090620D02*
X-29111749Y-800833D01*
X-29111749Y-800833D02*
X-28769875Y-499274D01*
X-28769875Y-499274D02*
X-28427458Y-218899D01*
X-28427458Y-218899D02*
X-28124257Y8992D01*
X-28124257Y8992D02*
X-27900032Y153096D01*
X-27900032Y153096D02*
X-27741517Y258328D01*
X-27741517Y258328D02*
X-27622311Y382347D01*
X-27622311Y382347D02*
X-27542605Y523592D01*
X-27542605Y523592D02*
X-27502590Y680503D01*
X-27502590Y680503D02*
X-27502458Y851519D01*
X-27502458Y851519D02*
X-27542398Y1035078D01*
X-27542398Y1035078D02*
X-27622602Y1229620D01*
X-27622602Y1229620D02*
X-27743262Y1433584D01*
X-27743262Y1433584D02*
X-27910071Y1710622D01*
X-27910071Y1710622D02*
X-28088146Y2063664D01*
X-28088146Y2063664D02*
X-28275880Y2487285D01*
X-28275880Y2487285D02*
X-28471663Y2976065D01*
X-28471663Y2976065D02*
X-28880941Y4127407D01*
X-28880941Y4127407D02*
X-29303111Y5474309D01*
X-29303111Y5474309D02*
X-29725302Y6973391D01*
X-29725302Y6973391D02*
X-30134643Y8581273D01*
X-30134643Y8581273D02*
X-30518266Y10254573D01*
X-30518266Y10254573D02*
X-30863298Y11949911D01*
X-30863298Y11949911D02*
X-30925581Y12340834D01*
X-30925581Y12340834D02*
X-30981223Y12815227D01*
X-30981223Y12815227D02*
X-31071971Y13964539D01*
X-31071971Y13964539D02*
X-31134318Y15298076D01*
X-31134318Y15298076D02*
X-31167040Y16716068D01*
X-31167040Y16716068D02*
X-31168914Y18118745D01*
X-31168914Y18118745D02*
X-31138715Y19406336D01*
X-31138715Y19406336D02*
X-31075220Y20479072D01*
X-31075220Y20479072D02*
X-31030605Y20903691D01*
X-31030605Y20903691D02*
X-30977206Y21237182D01*
X-30977206Y21237182D02*
X-30281609Y24693246D01*
X-30281609Y24693246D02*
X-29993515Y26077969D01*
X-29993515Y26077969D02*
X-29715171Y27288867D01*
X-29715171Y27288867D02*
X-29432457Y28369096D01*
X-29432457Y28369096D02*
X-29131257Y29361813D01*
X-29131257Y29361813D02*
X-28797451Y30310174D01*
X-28797451Y30310174D02*
X-28416921Y31257336D01*
X-28416921Y31257336D02*
X-27975551Y32246454D01*
X-27975551Y32246454D02*
X-27459220Y33320686D01*
X-27459220Y33320686D02*
X-27011951Y34199439D01*
X-27011951Y34199439D02*
X-26550674Y35052620D01*
X-26550674Y35052620D02*
X-26075922Y35879567D01*
X-26075922Y35879567D02*
X-25588230Y36679615D01*
X-25588230Y36679615D02*
X-25088129Y37452104D01*
X-25088129Y37452104D02*
X-24576153Y38196368D01*
X-24576153Y38196368D02*
X-24052834Y38911746D01*
X-24052834Y38911746D02*
X-23518707Y39597574D01*
X-23518707Y39597574D02*
X-22974303Y40253190D01*
X-22974303Y40253190D02*
X-22420156Y40877930D01*
X-22420156Y40877930D02*
X-21856799Y41471132D01*
X-21856799Y41471132D02*
X-21284766Y42032132D01*
X-21284766Y42032132D02*
X-20704588Y42560268D01*
X-20704588Y42560268D02*
X-20116799Y43054876D01*
X-20116799Y43054876D02*
X-19521933Y43515294D01*
X-19521933Y43515294D02*
X-18920522Y43940859D01*
X-18920522Y43940859D02*
X-17938782Y44571522D01*
X-17938782Y44571522D02*
X-16902369Y45178586D01*
X-16902369Y45178586D02*
X-15833861Y45751503D01*
X-15833861Y45751503D02*
X-14755835Y46279724D01*
X-14755835Y46279724D02*
X-13690868Y46752702D01*
X-13690868Y46752702D02*
X-12661539Y47159889D01*
X-12661539Y47159889D02*
X-11690425Y47490736D01*
X-11690425Y47490736D02*
X-11233754Y47624236D01*
X-11233754Y47624236D02*
X-10800104Y47734695D01*
X-10800104Y47734695D02*
X-9113856Y48107929D01*
X-9113856Y48107929D02*
X-7902937Y48340375D01*
X-7902937Y48340375D02*
X-6522911Y48571757D01*
X-6522911Y48571757D02*
X-4430097Y48942436D01*
X-4430097Y48942436D02*
X-3438585Y49104921D01*
X-3438585Y49104921D02*
X-2445734Y49234351D01*
X-2445734Y49234351D02*
X-1451830Y49330752D01*
X-1451830Y49330752D02*
X-457160Y49394146D01*
X-457160Y49394146D02*
X537990Y49424559D01*
X537990Y49424559D02*
X1533332Y49422016D01*
X1533332Y49422016D02*
X2528582Y49386540D01*
X2528582Y49386540D02*
X3523451Y49318156D01*
X3523451Y49318156D02*
X4517653Y49216888D01*
X4517653Y49216888D02*
X5510902Y49082762D01*
X5510902Y49082762D02*
X6502912Y48915801D01*
X6502912Y48915801D02*
X7493395Y48716029D01*
X7493395Y48716029D02*
X8482066Y48483472D01*
X8482066Y48483472D02*
X9468637Y48218154D01*
X9468637Y48218154D02*
X10452822Y47920099D01*
X10452822Y47920099D02*
X11434334Y47589331D01*
X11434334Y47589331D02*
X11978045Y47365170D01*
X11978045Y47365170D02*
X12679835Y47029048D01*
X12679835Y47029048D02*
X13487501Y46610279D01*
X13487501Y46610279D02*
X14348842Y46138179D01*
X14348842Y46138179D02*
X15211655Y45642063D01*
X15211655Y45642063D02*
X16023738Y45151244D01*
X16023738Y45151244D02*
X16732889Y44695038D01*
X16732889Y44695038D02*
X17286906Y44302760D01*
X17286906Y44302760D02*
X18012776Y43727319D01*
X18012776Y43727319D02*
X18753372Y43101062D01*
X18753372Y43101062D02*
X19488874Y42443193D01*
X19488874Y42443193D02*
X20199461Y41772917D01*
X20199461Y41772917D02*
X20865314Y41109440D01*
X20865314Y41109440D02*
X21466613Y40471968D01*
X21466613Y40471968D02*
X21983536Y39879705D01*
X21983536Y39879705D02*
X22396265Y39351857D01*
X22396265Y39351857D02*
X22744064Y38851573D01*
X22744064Y38851573D02*
X23093976Y38310118D01*
X23093976Y38310118D02*
X23444143Y37731625D01*
X23444143Y37731625D02*
X23792705Y37120230D01*
X23792705Y37120230D02*
X24137805Y36480067D01*
X24137805Y36480067D02*
X24477585Y35815272D01*
X24477585Y35815272D02*
X24810184Y35129979D01*
X24810184Y35129979D02*
X25133746Y34428323D01*
X25133746Y34428323D02*
X25746323Y32992464D01*
X25746323Y32992464D02*
X26031621Y32266529D01*
X26031621Y32266529D02*
X26300447Y31540772D01*
X26300447Y31540772D02*
X26550943Y30819326D01*
X26550943Y30819326D02*
X26781251Y30106327D01*
X26781251Y30106327D02*
X26989512Y29405909D01*
X26989512Y29405909D02*
X27173867Y28722208D01*
X27173867Y28722208D02*
X27458895Y27513111D01*
X27458895Y27513111D02*
X27707832Y26267353D01*
X27707832Y26267353D02*
X27920624Y24990235D01*
X27920624Y24990235D02*
X28097223Y23687055D01*
X28097223Y23687055D02*
X28237576Y22363112D01*
X28237576Y22363112D02*
X28341632Y21023707D01*
X28341632Y21023707D02*
X28409339Y19674137D01*
X28409339Y19674137D02*
X28440648Y18319702D01*
X28440648Y18319702D02*
X28435506Y16965702D01*
X28435506Y16965702D02*
X28393863Y15617435D01*
X28393863Y15617435D02*
X28315667Y14280200D01*
X28315667Y14280200D02*
X28200868Y12959298D01*
X28200868Y12959298D02*
X28049413Y11660027D01*
X28049413Y11660027D02*
X27861252Y10387686D01*
X27861252Y10387686D02*
X27636333Y9147574D01*
X27636333Y9147574D02*
X27374606Y7944991D01*
X27374606Y7944991D02*
X27155840Y7116879D01*
X27155840Y7116879D02*
X26908794Y6347036D01*
X26908794Y6347036D02*
X26641650Y5651536D01*
X26641650Y5651536D02*
X26362590Y5046450D01*
X26362590Y5046450D02*
X26079797Y4547850D01*
X26079797Y4547850D02*
X25939557Y4343505D01*
X25939557Y4343505D02*
X25801451Y4171808D01*
X25801451Y4171808D02*
X25666504Y4034769D01*
X25666504Y4034769D02*
X25535736Y3934397D01*
X25535736Y3934397D02*
X25410172Y3872700D01*
X25410172Y3872700D02*
X25290834Y3851688D01*
X25290834Y3851688D02*
X25199578Y3829469D01*
X25199578Y3829469D02*
X25089738Y3768972D01*
X25089738Y3768972D02*
X24975139Y3679437D01*
X24975139Y3679437D02*
X24869602Y3570102D01*
X24869602Y3570102D02*
X24812657Y3488420D01*
X24812657Y3488420D02*
X24796499Y3422452D01*
X24796499Y3422452D02*
X24828353Y3369952D01*
X24828353Y3369952D02*
X24915444Y3328672D01*
X24915444Y3328672D02*
X25064994Y3296366D01*
X25064994Y3296366D02*
X25284229Y3270787D01*
X25284229Y3270787D02*
X25960647Y3230822D01*
X25960647Y3230822D02*
X27285386Y3173122D01*
X27285386Y3173122D02*
X27341776Y1795926D01*
X27341776Y1795926D02*
X27382846Y1018333D01*
X27382846Y1018333D02*
X27411762Y777877D01*
X27411762Y777877D02*
X27453702Y617937D01*
X27453702Y617937D02*
X27514247Y524728D01*
X27514247Y524728D02*
X27598975Y484466D01*
X27598975Y484466D02*
X27713465Y483368D01*
X27713465Y483368D02*
X27863296Y507650D01*
X27863296Y507650D02*
X28007941Y524432D01*
X28007941Y524432D02*
X28135400Y506622D01*
X28135400Y506622D02*
X28255753Y441779D01*
X28255753Y441779D02*
X28379076Y317465D01*
X28379076Y317465D02*
X28515449Y121241D01*
X28515449Y121241D02*
X28674948Y-159332D01*
X28674948Y-159332D02*
X29103639Y-1023282D01*
X29103639Y-1023282D02*
X29358937Y-1600269D01*
X29358937Y-1600269D02*
X29585074Y-2203451D01*
X29585074Y-2203451D02*
X29782058Y-2832968D01*
X29782058Y-2832968D02*
X29949894Y-3488957D01*
X29949894Y-3488957D02*
X30088589Y-4171558D01*
X30088589Y-4171558D02*
X30198151Y-4880907D01*
X30198151Y-4880907D02*
X30278584Y-5617144D01*
X30278584Y-5617144D02*
X30329897Y-6380406D01*
X30329897Y-6380406D02*
X30352094Y-7170833D01*
X30352094Y-7170833D02*
X30345184Y-7988562D01*
X30345184Y-7988562D02*
X30309172Y-8833731D01*
X30309172Y-8833731D02*
X30244064Y-9706479D01*
X30244064Y-9706479D02*
X30149869Y-10606945D01*
X30149869Y-10606945D02*
X30026591Y-11535266D01*
X30026591Y-11535266D02*
X29874237Y-12491580D01*
X29874237Y-12491580D02*
X29692815Y-13476027D01*
X29692815Y-13476027D02*
X29483570Y-14616683D01*
X29483570Y-14616683D02*
X29431350Y-15050402D01*
X29431350Y-15050402D02*
X29414108Y-15459226D01*
X29414108Y-15459226D02*
X29431872Y-15892785D01*
X29431872Y-15892785D02*
X29484674Y-16400715D01*
X29484674Y-16400715D02*
X29695515Y-17838214D01*
X29695515Y-17838214D02*
X30153536Y-20895482D01*
X30153536Y-20895482D02*
X30297171Y-21990570D01*
X30297171Y-21990570D02*
X30392077Y-22889615D01*
X30392077Y-22889615D02*
X30444396Y-23662354D01*
X30444396Y-23662354D02*
X30460268Y-24378528D01*
X30460268Y-24378528D02*
X30445836Y-25107874D01*
X30445836Y-25107874D02*
X30407241Y-25920134D01*
X30407241Y-25920134D02*
X30171588Y-30173374D01*
X30171588Y-30173374D02*
X30064268Y-32112123D01*
X30064268Y-32112123D02*
X31188589Y-35504933D01*
X31188589Y-35504933D02*
X31807156Y-37416235D01*
X31807156Y-37416235D02*
X32004860Y-38094129D01*
X32004860Y-38094129D02*
X32142074Y-38651405D01*
X32142074Y-38651405D02*
X32229217Y-39136477D01*
X32229217Y-39136477D02*
X32276712Y-39597760D01*
X32276712Y-39597760D02*
X32294979Y-40083670D01*
X32294979Y-40083670D02*
X32294439Y-40642622D01*
X32294439Y-40642622D02*
X32262496Y-41390027D01*
X32262496Y-41390027D02*
X32186067Y-42206436D01*
X32186067Y-42206436D02*
X32072028Y-43055628D01*
X32072028Y-43055628D02*
X31927250Y-43901378D01*
X31927250Y-43901378D02*
X31758606Y-44707465D01*
X31758606Y-44707465D02*
X31572971Y-45437666D01*
X31572971Y-45437666D02*
X31377217Y-46055759D01*
X31377217Y-46055759D02*
X31277694Y-46311444D01*
X31277694Y-46311444D02*
X31178218Y-46525519D01*
X31178218Y-46525519D02*
X31084444Y-46676341D01*
X31084444Y-46676341D02*
X30952768Y-46841749D01*
X30952768Y-46841749D02*
X30786543Y-47018751D01*
X30786543Y-47018751D02*
X30589128Y-47204355D01*
X30589128Y-47204355D02*
X30114145Y-47589403D01*
X30114145Y-47589403D02*
X29554669Y-47972961D01*
X29554669Y-47972961D02*
X28648542Y-48527294D01*
X28648542Y-48527294D02*
X28255436Y-48746488D01*
X28255436Y-48746488D02*
X27893213Y-48927383D01*
X27893213Y-48927383D02*
X27555057Y-49070240D01*
X27555057Y-49070240D02*
X27234151Y-49175318D01*
X27234151Y-49175318D02*
X26923680Y-49242879D01*
X26923680Y-49242879D02*
X26616826Y-49273184D01*
X26616826Y-49273184D02*
X26306773Y-49266494D01*
X26306773Y-49266494D02*
X25986705Y-49223069D01*
X25986705Y-49223069D02*
X25649806Y-49143172D01*
X25649806Y-49143172D02*
X25289258Y-49027062D01*
X25289258Y-49027062D02*
X24898247Y-48875000D01*
X24898247Y-48875000D02*
X24469955Y-48687248D01*
X24469955Y-48687248D02*
X23474263Y-48205716D01*
X23474263Y-48205716D02*
X22489189Y-47727565D01*
X22489189Y-47727565D02*
X21597838Y-47333092D01*
X21597838Y-47333092D02*
X20753497Y-47009126D01*
X20753497Y-47009126D02*
X19909453Y-46742492D01*
X19909453Y-46742492D02*
X19018990Y-46520020D01*
X19018990Y-46520020D02*
X18035395Y-46328537D01*
X18035395Y-46328537D02*
X16911955Y-46154871D01*
X16911955Y-46154871D02*
X15601956Y-45985849D01*
X15601956Y-45985849D02*
X14394887Y-45826315D01*
X14394887Y-45826315D02*
X13337442Y-45655814D01*
X13337442Y-45655814D02*
X12420345Y-45471659D01*
X12420345Y-45471659D02*
X11634322Y-45271164D01*
X11634322Y-45271164D02*
X10970098Y-45051643D01*
X10970098Y-45051643D02*
X10680762Y-44933909D01*
X10680762Y-44933909D02*
X10418398Y-44810410D01*
X10418398Y-44810410D02*
X10181847Y-44680812D01*
X10181847Y-44680812D02*
X9969948Y-44544779D01*
X9969948Y-44544779D02*
X9781543Y-44401975D01*
X9781543Y-44401975D02*
X9615473Y-44252064D01*
X9615473Y-44252064D02*
X9394202Y-43988613D01*
X9394202Y-43988613D02*
X9139443Y-43614839D01*
X9139443Y-43614839D02*
X8870608Y-43167994D01*
X8870608Y-43167994D02*
X8607107Y-42685330D01*
X8607107Y-42685330D02*
X8368351Y-42204097D01*
X8368351Y-42204097D02*
X8173750Y-41761547D01*
X8173750Y-41761547D02*
X8042715Y-41394932D01*
X8042715Y-41394932D02*
X8007101Y-41251741D01*
X8007101Y-41251741D02*
X7994657Y-41141503D01*
X7994657Y-41141503D02*
X7980476Y-41065390D01*
X7980476Y-41065390D02*
X7939892Y-40954667D01*
X7939892Y-40954667D02*
X7790895Y-40650445D01*
X7790895Y-40650445D02*
X7570421Y-40270942D01*
X7570421Y-40270942D02*
X7301222Y-39858264D01*
X7301222Y-39858264D02*
X6607943Y-38851650D01*
X6607943Y-38851650D02*
X4538503Y-38316700D01*
X4538503Y-38316700D02*
X3755525Y-38106274D01*
X3755525Y-38106274D02*
X3080406Y-37906620D01*
X3080406Y-37906620D02*
X2503574Y-37713661D01*
X2503574Y-37713661D02*
X2015455Y-37523317D01*
X2015455Y-37523317D02*
X1606475Y-37331510D01*
X1606475Y-37331510D02*
X1267062Y-37134162D01*
X1267062Y-37134162D02*
X987643Y-36927195D01*
X987643Y-36927195D02*
X758643Y-36706531D01*
X758643Y-36706531D02*
X576733Y-36536315D01*
X576733Y-36536315D02*
X342605Y-36361649D01*
X342605Y-36361649D02*
X86452Y-36203056D01*
X86452Y-36203056D02*
X-161535Y-36081055D01*
X-161535Y-36081055D02*
X-340542Y-36011786D01*
X-340542Y-36011786D02*
X-491304Y-35970017D01*
X-491304Y-35970017D02*
X-625903Y-35959813D01*
X-625903Y-35959813D02*
X-756419Y-35985242D01*
X-756419Y-35985242D02*
X-894934Y-36050369D01*
X-894934Y-36050369D02*
X-1053528Y-36159261D01*
X-1053528Y-36159261D02*
X-1479279Y-36524602D01*
X-1479279Y-36524602D02*
X-1790935Y-36778065D01*
X-1790935Y-36778065D02*
X-2151748Y-37020081D01*
X-2151748Y-37020081D02*
X-2560593Y-37250154D01*
X-2560593Y-37250154D02*
X-3016345Y-37467789D01*
X-3016345Y-37467789D02*
X-3517881Y-37672488D01*
X-3517881Y-37672488D02*
X-4064075Y-37863757D01*
X-4064075Y-37863757D02*
X-4653804Y-38041099D01*
X-4653804Y-38041099D02*
X-5285944Y-38204018D01*
X-5285944Y-38204018D02*
X-5705332Y-38312457D01*
X-5705332Y-38312457D02*
X-6049867Y-38424333D01*
X-6049867Y-38424333D02*
X-6331500Y-38548794D01*
X-6331500Y-38548794D02*
X-6562180Y-38694985D01*
X-6562180Y-38694985D02*
X-6753860Y-38872052D01*
X-6753860Y-38872052D02*
X-6918487Y-39089140D01*
X-6918487Y-39089140D02*
X-7068014Y-39355396D01*
X-7068014Y-39355396D02*
X-7214390Y-39679965D01*
X-7214390Y-39679965D02*
X-7447127Y-40157740D01*
X-7447127Y-40157740D02*
X-7843818Y-40890301D01*
X-7843818Y-40890301D02*
X-8348928Y-41777874D01*
X-8348928Y-41777874D02*
X-8906922Y-42720686D01*
X-8906922Y-42720686D02*
X-9523772Y-43696386D01*
X-9523772Y-43696386D02*
X-10129751Y-44565146D01*
X-10129751Y-44565146D02*
X-10718336Y-45320185D01*
X-10718336Y-45320185D02*
X-11004066Y-45652940D01*
X-11004066Y-45652940D02*
X-11283000Y-45954723D01*
X-11283000Y-45954723D02*
X-11554323Y-46224686D01*
X-11554323Y-46224686D02*
X-11817219Y-46461982D01*
X-11817219Y-46461982D02*
X-12070873Y-46665762D01*
X-12070873Y-46665762D02*
X-12314468Y-46835179D01*
X-12314468Y-46835179D02*
X-12547189Y-46969387D01*
X-12547189Y-46969387D02*
X-12768221Y-47067536D01*
X-12768221Y-47067536D02*
X-12976747Y-47128781D01*
X-12976747Y-47128781D02*
X-13171953Y-47152273D01*
X-13171953Y-47152273D02*
X-13712549Y-47179092D01*
X-13712549Y-47179092D02*
X-14107252Y-47223453D01*
X-14107252Y-47223453D02*
X-14767980Y-47305447D01*
X-14767980Y-47305447D02*
X-15948160Y-47423487D01*
X-15948160Y-47423487D02*
X-16561142Y-47493414D01*
X-16561142Y-47493414D02*
X-17174396Y-47590738D01*
X-17174396Y-47590738D02*
X-17798126Y-47718215D01*
X-17798126Y-47718215D02*
X-18442537Y-47878603D01*
X-18442537Y-47878603D02*
X-19117833Y-48074657D01*
X-19117833Y-48074657D02*
X-19834220Y-48309135D01*
X-19834220Y-48309135D02*
X-20601900Y-48584793D01*
X-20601900Y-48584793D02*
X-21431080Y-48904387D01*
X-21431080Y-48904387D02*
X-21905535Y-49084531D01*
X-21905535Y-49084531D02*
X-22325262Y-49225067D01*
X-22325262Y-49225067D02*
X-22700821Y-49327546D01*
X-22700821Y-49327546D02*
X-23042772Y-49393517D01*
X-23042772Y-49393517D02*
X-23361674Y-49424530D01*
X-23361674Y-49424530D02*
X-23668087Y-49422134D01*
X-23668087Y-49422134D02*
X-23972572Y-49387880D01*
X-23972572Y-49387880D02*
X-24285688Y-49323317D01*
X-24285688Y-49323317D02*
X-24285366Y-49323263D01*
X-24285366Y-49323263D02*
X-24285366Y-49323263D01*
M02*
