G04 #@! TF.GenerationSoftware,KiCad,Pcbnew,8.0.4*
G04 #@! TF.CreationDate,2024-07-22T02:56:23-05:00*
G04 #@! TF.ProjectId,keanu-homeboy-panel,6b65616e-752d-4686-9f6d-65626f792d70,rev?*
G04 #@! TF.SameCoordinates,Original*
G04 #@! TF.FileFunction,Profile,NP*
%FSLAX46Y46*%
G04 Gerber Fmt 4.6, Leading zero omitted, Abs format (unit mm)*
G04 Created by KiCad (PCBNEW 8.0.4) date 2024-07-22 02:56:23*
%MOMM*%
%LPD*%
G01*
G04 APERTURE LIST*
G04 #@! TA.AperFunction,Profile*
%ADD10C,0.100000*%
G04 #@! TD*
G04 APERTURE END LIST*
D10*
X158652618Y-126442533D02*
X159083014Y-126578494D01*
X137116372Y-127708464D02*
X137330399Y-127636804D01*
X100063706Y-103445482D02*
X100006116Y-103483192D01*
X196969197Y-115038698D02*
X196961097Y-114673508D01*
X191135027Y-75924003D02*
X191589091Y-76037446D01*
X132509564Y-109194248D02*
X132605314Y-109519496D01*
X128224364Y-50484144D02*
X128208124Y-50457374D01*
X100175831Y-71520572D02*
X100122751Y-71678991D01*
X124378777Y-80016798D02*
X124096273Y-79816767D01*
X128413634Y-50249834D02*
X128460164Y-50238504D01*
X131663599Y-75372082D02*
X131758259Y-74999738D01*
X115390353Y-70565652D02*
X115481633Y-70600972D01*
X165847347Y-123193064D02*
X165867367Y-123364935D01*
X197655966Y-121686883D02*
X197340547Y-120712272D01*
X135550743Y-127543042D02*
X135873366Y-127678036D01*
X166649791Y-126437320D02*
X166699131Y-126531880D01*
X193212863Y-83072565D02*
X193034436Y-82796466D01*
X137067835Y-81763188D02*
X136785265Y-82081756D01*
X196849066Y-68824069D02*
X199904710Y-68824069D01*
X135181299Y-76965321D02*
X135550743Y-77137955D01*
X133052249Y-53021265D02*
X133000179Y-53040395D01*
X124748913Y-80310226D02*
X124378777Y-80016798D01*
X99999235Y-111246801D02*
X100002335Y-111671142D01*
X179643107Y-121817573D02*
X179898850Y-121713193D01*
X132910874Y-123193064D02*
X132930894Y-123364935D01*
X172289449Y-29474666D02*
X171788841Y-29796254D01*
X137330399Y-127636804D02*
X137995148Y-127381977D01*
X147403252Y-121484898D02*
X147587237Y-121361490D01*
X162880516Y-95999448D02*
X162939056Y-95325894D01*
X141510588Y-28366206D02*
X140976024Y-28603620D01*
X114025904Y-121713193D02*
X114258301Y-121602217D01*
X137942637Y-30500244D02*
X137646793Y-30769551D01*
X158800420Y-30901728D02*
X158438077Y-30559941D01*
X123320566Y-28928774D02*
X122880600Y-28675794D01*
X195510102Y-102360594D02*
X195466892Y-102340064D01*
X163974237Y-55743052D02*
X163966176Y-55456014D01*
X155817073Y-28675794D02*
X155489412Y-28496203D01*
X194851211Y-127729572D02*
X195009313Y-127732972D01*
X188753546Y-79080881D02*
X188425885Y-78901290D01*
X160454947Y-83367550D02*
X160276390Y-83072565D01*
X181611650Y-121149139D02*
X181731036Y-121238199D01*
X161798937Y-49883525D02*
X161943139Y-49629279D01*
X183007709Y-71531861D02*
X183351965Y-71633668D01*
X178527682Y-71738826D02*
X179063877Y-71600446D01*
X165816941Y-112598826D02*
X165755411Y-113100038D01*
X108574115Y-78771293D02*
X108039551Y-79008707D01*
X100410635Y-99067121D02*
X100621599Y-99816194D01*
X105815430Y-127121849D02*
X106159777Y-127021879D01*
X180189661Y-77502087D02*
X179683386Y-77568087D01*
X161281507Y-100926751D02*
X161205247Y-100910281D01*
X100329681Y-70206204D02*
X100331481Y-70435079D01*
X123734663Y-29179052D02*
X123320566Y-28928774D01*
X195936639Y-43551417D02*
X195939239Y-42860985D01*
X165872181Y-60841714D02*
X165875281Y-61266055D01*
X177447061Y-77951210D02*
X177447061Y-77406087D01*
X196961797Y-115410607D02*
X196969197Y-115038698D01*
X130002583Y-44920807D02*
X130042453Y-44238925D01*
X139742900Y-76470012D02*
X140055610Y-76420382D01*
X132030764Y-96067121D02*
X129936154Y-96067121D01*
X134415146Y-52007587D02*
X134354356Y-52070827D01*
X189969219Y-79816767D02*
X189607609Y-79584139D01*
X165017047Y-54819423D02*
X164989937Y-55056008D01*
X100331481Y-70435079D02*
X100325281Y-70645704D01*
X129148964Y-49320733D02*
X129285186Y-48966084D01*
X182726162Y-77424477D02*
X182218665Y-77406387D01*
X162872627Y-45662034D02*
X162880516Y-45594361D01*
X132735468Y-113717050D02*
X132678068Y-114235091D01*
X151869996Y-72013750D02*
X152223513Y-72527043D01*
X132032764Y-38581017D02*
X133280478Y-38581017D01*
X190999503Y-80629567D02*
X190621859Y-80310226D01*
X149789689Y-27019390D02*
X149282192Y-27001300D01*
X197135535Y-126583397D02*
X197220295Y-126493137D01*
X196444491Y-110282103D02*
X196471121Y-110060941D01*
X133004184Y-73396038D02*
X133112086Y-73916207D01*
X162908529Y-102382334D02*
X162847159Y-102349274D01*
X132903874Y-72654780D02*
X132910874Y-72787977D01*
X132911108Y-110850215D02*
X132935708Y-111246801D01*
X132032764Y-48662034D02*
X133347108Y-48662034D01*
X162221659Y-99371171D02*
X162319230Y-99067121D01*
X128245364Y-100787171D02*
X128299184Y-100731421D01*
X166202627Y-70206204D02*
X166204427Y-70435079D01*
X99095291Y-105988554D02*
X99098016Y-106148139D01*
X122552939Y-25000000D02*
X141510588Y-25000000D01*
X103070570Y-77321070D02*
X103180403Y-77353470D01*
X136116876Y-127758557D02*
X136276376Y-127791504D01*
X191135027Y-126329090D02*
X191589091Y-126442533D01*
X164404074Y-120712272D02*
X163912593Y-119229156D01*
X99671149Y-43678712D02*
X99687839Y-44401774D01*
X132118834Y-54603587D02*
X132080574Y-54819423D01*
X163040959Y-102545783D02*
X162971419Y-102445724D01*
X100329681Y-120611291D02*
X100331481Y-120840166D01*
X128260030Y-127529942D02*
X128459415Y-127607482D01*
X131758259Y-74999738D02*
X131844249Y-74588698D01*
X174447061Y-76259981D02*
X174447061Y-77404087D01*
X101519420Y-102079844D02*
X101539790Y-102173444D01*
X169524358Y-77405087D02*
X169686972Y-77389277D01*
X145154285Y-122338983D02*
X145271914Y-122264433D01*
X111885232Y-72436157D02*
X111959872Y-72270652D01*
X169171773Y-82765784D02*
X168904923Y-83130570D01*
X100448609Y-125425004D02*
X100590382Y-125914263D01*
X183233466Y-27054260D02*
X182726162Y-27019390D01*
X148418106Y-121006059D02*
X148544559Y-121068269D01*
X132677197Y-91948447D02*
X132654447Y-92164969D01*
X134268403Y-51330285D02*
X134414993Y-51575557D01*
X99772335Y-59432548D02*
X99861155Y-59739480D01*
X173304655Y-126789809D02*
X173906452Y-126729619D01*
X160981919Y-84344736D02*
X160808659Y-84005744D01*
X172679373Y-76470012D02*
X172992083Y-76420382D01*
X133059224Y-71678991D02*
X132998904Y-71889817D01*
X184752752Y-27259430D02*
X184246907Y-27174290D01*
X191589091Y-76037446D02*
X192019487Y-76173407D01*
X133261754Y-70645704D02*
X133247544Y-70840808D01*
X128651724Y-50145154D02*
X128720534Y-50075274D01*
X140976024Y-28603620D02*
X140426317Y-28872970D01*
X132920418Y-61717085D02*
X132880468Y-62193739D01*
X133112086Y-124321294D02*
X133242939Y-124878301D01*
X146428118Y-71510016D02*
X146706634Y-71412486D01*
X130906653Y-104734766D02*
X130835933Y-104386694D01*
X165613546Y-53380691D02*
X165473767Y-53599201D01*
X166204427Y-120840166D02*
X166198227Y-121050791D01*
X132865068Y-110482448D02*
X132911108Y-110850215D01*
X167412736Y-102173444D02*
X167412669Y-102260644D01*
X168388845Y-33498905D02*
X168140161Y-33906866D01*
X97095291Y-55743052D02*
X97095291Y-48662034D01*
X192857086Y-32136274D02*
X192646628Y-31867114D01*
X108370424Y-76282722D02*
X108571691Y-76260102D01*
X192904550Y-126944841D02*
X193914582Y-127434202D01*
X162708409Y-51943687D02*
X162632009Y-51956067D01*
X165885977Y-72144070D02*
X165852607Y-72409731D01*
X195165784Y-77312435D02*
X195324100Y-77277985D01*
X100869265Y-126579160D02*
X100945065Y-126640180D01*
X132034489Y-106148139D02*
X132032764Y-106148139D01*
X164719493Y-71281796D02*
X164404074Y-70307185D01*
X180682630Y-70827157D02*
X180899729Y-70640862D01*
X199904710Y-85986104D02*
X194644720Y-85986104D01*
X185159986Y-122932130D02*
X185297255Y-123142562D01*
X141510588Y-76259981D02*
X141510588Y-77404087D01*
X137942637Y-80905331D02*
X137646793Y-81174638D01*
X195644882Y-102348774D02*
X195568482Y-102361154D01*
X185425885Y-123369165D02*
X185425885Y-129810174D01*
X102025130Y-84733629D02*
X101789916Y-85168683D01*
X164989937Y-55056008D02*
X164973737Y-55311353D01*
X164958937Y-72394199D02*
X164934717Y-72158981D01*
X166198227Y-70645704D02*
X166184017Y-70840808D01*
X100374497Y-103290392D02*
X100224496Y-103382412D01*
X161798937Y-100288612D02*
X161943139Y-100034366D01*
X164969237Y-99067121D02*
X166283581Y-99067121D01*
X108571691Y-126665189D02*
X108574115Y-126665068D01*
X167412669Y-51855557D02*
X167392259Y-51935567D01*
X108571691Y-76260102D02*
X108574115Y-76259981D01*
X163471068Y-103423615D02*
X163340887Y-103129398D01*
X160978109Y-77029115D02*
X161196503Y-77124855D01*
X132998904Y-71889817D02*
X132949504Y-72144070D01*
X148675177Y-121149139D02*
X148794563Y-121238199D01*
X158198554Y-126329090D02*
X158652618Y-126442533D01*
X112217812Y-122338983D02*
X112335441Y-122264433D01*
X132865068Y-60077361D02*
X132911108Y-60445128D01*
X102267215Y-84311953D02*
X102025130Y-84733629D01*
X163686826Y-104052192D02*
X163586380Y-103731189D01*
X145591209Y-122143913D02*
X146127404Y-122005533D01*
X133160969Y-103382412D02*
X133100209Y-103411232D01*
X195923279Y-92575419D02*
X195888749Y-91887247D01*
X162847159Y-51944187D02*
X162782169Y-51935087D01*
X146127404Y-122005533D02*
X146428118Y-121915103D01*
X103848792Y-31676669D02*
X103571190Y-32010980D01*
X165592575Y-95486858D02*
X165638387Y-96067121D01*
X163856193Y-76469294D02*
X164098396Y-76272950D01*
X103180403Y-77353470D02*
X103339903Y-77386417D01*
X99878376Y-53202455D02*
X99740600Y-53380691D01*
X132605314Y-109519496D02*
X132708808Y-109837635D01*
X101384326Y-85986104D02*
X97095291Y-85986104D01*
X166592121Y-52610912D02*
X166418936Y-52758680D01*
X133773344Y-100503006D02*
X133982043Y-101090098D01*
X132938808Y-61266055D02*
X132920418Y-61717085D01*
X99100791Y-55311353D02*
X99095291Y-55583467D01*
X195888749Y-91887247D02*
X195835689Y-91204257D01*
X163340887Y-103129398D02*
X163122289Y-102688853D01*
X132935708Y-111246801D02*
X132938808Y-111671142D01*
X180899729Y-70640862D02*
X180980599Y-70585332D01*
X196444791Y-60306564D02*
X196435691Y-60085483D01*
X100013031Y-122549157D02*
X99979661Y-122814818D01*
X166097442Y-52977325D02*
X166036682Y-53006145D01*
X155489412Y-125918720D02*
X155840633Y-125975350D01*
X115026783Y-70640862D02*
X115107653Y-70585332D01*
X150071236Y-71531861D02*
X150415492Y-71633668D01*
X181051229Y-120957209D02*
X181117779Y-120944239D01*
X170004308Y-81763188D02*
X169721738Y-82081756D01*
X99710275Y-115155043D02*
X99738905Y-115647347D01*
X195660169Y-77151555D02*
X195844873Y-77059315D01*
X134797344Y-127176968D02*
X135181299Y-127370408D01*
X177447061Y-77404087D02*
X177447061Y-73035157D01*
X146746913Y-27163000D02*
X146241322Y-27245850D01*
X161579738Y-127666692D02*
X161751529Y-127707432D01*
X115330728Y-27015510D02*
X114823526Y-27047840D01*
X164967237Y-38581017D02*
X164969237Y-38581017D01*
X164967237Y-119229156D02*
X164969237Y-119229156D01*
X196638924Y-58743052D02*
X199904710Y-58743052D01*
X99668841Y-109519496D02*
X99772335Y-109837635D01*
X152473207Y-72930991D02*
X152489412Y-72964078D01*
X101539723Y-51855557D02*
X101519313Y-51935567D01*
X168140161Y-33906866D02*
X167898076Y-34328542D01*
X167392366Y-102079844D02*
X167412736Y-102173444D01*
X129787223Y-127556642D02*
X129971927Y-127464402D01*
X151816279Y-27259430D02*
X151310434Y-27174290D01*
X104179899Y-77303377D02*
X104393926Y-77231717D01*
X148774647Y-77405087D02*
X148267201Y-77420597D01*
X97095291Y-96067121D02*
X97095291Y-88986104D01*
X108033506Y-76324532D02*
X108370424Y-76282722D01*
X101068109Y-102719260D02*
X100893503Y-102862229D01*
X112237682Y-77839954D02*
X111574115Y-77951210D01*
X184806469Y-122418837D02*
X185159986Y-122932130D01*
X115950850Y-121324999D02*
X116067621Y-121437520D01*
X116591723Y-121741498D02*
X116840624Y-121838558D01*
X100301661Y-120087879D02*
X100329681Y-120611291D01*
X133242939Y-124878301D02*
X133385082Y-125425004D01*
X101145400Y-101339336D02*
X101241130Y-101555349D01*
X178208387Y-122264433D02*
X178351997Y-122200963D01*
X164969237Y-116229156D02*
X164967237Y-116229156D01*
X127872186Y-84005744D02*
X127696213Y-83679312D01*
X170879110Y-80905331D02*
X170583266Y-81174638D01*
X106944991Y-79570199D02*
X106416503Y-79879753D01*
X100115776Y-53021265D02*
X100063706Y-53040395D01*
X100006116Y-103483192D02*
X99944006Y-103537782D01*
X132622067Y-92711978D02*
X132606667Y-93368546D01*
X188777106Y-75570263D02*
X190060608Y-75737803D01*
X165611851Y-65242260D02*
X165671751Y-65816376D01*
X181481032Y-70663182D02*
X181611650Y-70744052D01*
X197791025Y-124562521D02*
X197849175Y-124129501D01*
X196934417Y-63874385D02*
X196886027Y-63415945D01*
X130066293Y-93266072D02*
X130050333Y-92575419D01*
X131414489Y-126408797D02*
X131462309Y-126331887D01*
X196471121Y-59655854D02*
X196638924Y-58743052D01*
X132032764Y-116229156D02*
X132030764Y-116229156D01*
X165590920Y-41759882D02*
X165558540Y-42306891D01*
X194393960Y-100632881D02*
X194457990Y-100601421D01*
X128862464Y-49883525D02*
X129006666Y-49629279D01*
X126984140Y-82541361D02*
X126773682Y-82272201D01*
X131061471Y-114279472D02*
X131013081Y-113821032D01*
X101478520Y-101980644D02*
X101519420Y-102079844D01*
X113770161Y-121817573D02*
X114025904Y-121713193D01*
X135707383Y-33104998D02*
X135452372Y-33498905D01*
X178351997Y-71795876D02*
X178527682Y-71738826D01*
X190999503Y-30224480D02*
X190621859Y-29905139D01*
X99979661Y-122814818D02*
X99967401Y-123059867D01*
X132624312Y-44401774D02*
X132656102Y-45081771D01*
X197385975Y-126222726D02*
X197436725Y-126092347D01*
X195977432Y-102545783D02*
X195907892Y-102445724D01*
X132015199Y-123713198D02*
X132031489Y-123332081D01*
X168643856Y-33104998D02*
X168388845Y-33498905D01*
X127518474Y-83367550D02*
X127339917Y-83072565D01*
X181203674Y-27015510D02*
X180696472Y-27047840D01*
X195350202Y-50584504D02*
X194674691Y-50555084D01*
X138852368Y-80201341D02*
X138545696Y-80418344D01*
X173912497Y-28603620D02*
X173362790Y-28872970D01*
X131029703Y-105861101D02*
X131003533Y-105471899D01*
X148044126Y-70585332D02*
X148114756Y-70552122D01*
X101478673Y-52007587D02*
X101417883Y-52070827D01*
X100590382Y-125914263D02*
X100720125Y-126298936D01*
X161521517Y-100601421D02*
X161588197Y-100550241D01*
X101222717Y-52197967D02*
X101068109Y-52314173D01*
X111574115Y-77951210D02*
X111574115Y-77406087D01*
X195568482Y-51956067D02*
X195510102Y-51955507D01*
X165995697Y-71678991D02*
X165935377Y-71889817D01*
X173906452Y-76324532D02*
X174243370Y-76282722D01*
X132030764Y-68824069D02*
X132032764Y-68824069D01*
X160978109Y-127434202D02*
X161196503Y-127529942D01*
X167412736Y-51768357D02*
X167412669Y-51855557D01*
X128456826Y-50534704D02*
X128345034Y-50521664D01*
X133656598Y-75893849D02*
X133713318Y-76032233D01*
X119552939Y-25000000D02*
X119552939Y-27400830D01*
X124748913Y-29905139D02*
X124378777Y-29611711D01*
X164951672Y-123713198D02*
X164967962Y-123332081D01*
X164283822Y-76088050D02*
X164350962Y-76003710D01*
X196435691Y-60085483D02*
X196444491Y-59877016D01*
X132022464Y-122799286D02*
X131998244Y-122564068D01*
X129972056Y-51977247D02*
X129910686Y-51944187D01*
X132283864Y-104507649D02*
X132186284Y-104765263D01*
X130404414Y-52724311D02*
X130185816Y-52283766D01*
X99882465Y-113100038D02*
X99798995Y-113717050D01*
X146706634Y-71412486D02*
X146962377Y-71308106D01*
X165988722Y-53021265D02*
X165936652Y-53040395D01*
X169444136Y-32010980D02*
X169171773Y-32360697D01*
X166699131Y-76126793D02*
X166742211Y-76174073D01*
X144510588Y-129810174D02*
X144510588Y-123440244D01*
X149146576Y-71137969D02*
X149319649Y-71238601D01*
X100374497Y-52885305D02*
X100224496Y-52977325D01*
X115858090Y-121238199D02*
X115950850Y-121324999D01*
X99670194Y-93368546D02*
X99671149Y-94083799D01*
X103988394Y-127760724D02*
X104179899Y-127708464D01*
X134415146Y-102412674D02*
X134354356Y-102475914D01*
X131037764Y-55743052D02*
X131029703Y-55456014D01*
X136235300Y-82765784D02*
X135968450Y-83130570D01*
X165613546Y-103785778D02*
X165473767Y-104004288D01*
X165875281Y-111671142D02*
X165856891Y-112122172D01*
X162708409Y-102348774D02*
X162632009Y-102361154D01*
X130571845Y-110711651D02*
X130562745Y-110490570D01*
X128459415Y-77202395D02*
X128643265Y-77261605D01*
X115950850Y-70919912D02*
X116067621Y-71032433D01*
X166463328Y-75509176D02*
X166593071Y-75893849D01*
X128521014Y-50227794D02*
X128585044Y-50196334D01*
X161943139Y-100034366D02*
X162085437Y-99725820D01*
X125501604Y-30559941D02*
X125126557Y-30224480D01*
X163535248Y-110970654D02*
X163508318Y-110711651D01*
X177993018Y-72024186D02*
X178090758Y-71933896D01*
X125262081Y-75924003D02*
X125716145Y-76037446D01*
X147963256Y-121045949D02*
X148044126Y-120990419D01*
X119424309Y-72737475D02*
X119536734Y-72930991D01*
X161393299Y-50534704D02*
X161281507Y-50521664D01*
X165867367Y-72959848D02*
X165940657Y-73396038D01*
X101222717Y-102603054D02*
X101068109Y-102719260D01*
X197135535Y-76178310D02*
X197220295Y-76088050D01*
X129972056Y-102382334D02*
X129910686Y-102349274D01*
X129382757Y-99067121D02*
X132030764Y-99067121D01*
X197536545Y-125777169D02*
X197631205Y-125404825D01*
X134726389Y-85168683D02*
X134498317Y-85616776D01*
X129451154Y-77277985D02*
X129614790Y-77224405D01*
X168117772Y-127370408D02*
X168487216Y-127543042D01*
X146962377Y-71308106D02*
X147194774Y-71197130D01*
X103031977Y-32725483D02*
X102770910Y-33104998D01*
X132701914Y-45662034D02*
X132032764Y-45662034D01*
X113491645Y-71510016D02*
X113770161Y-71412486D01*
X129563076Y-51887447D02*
X129541686Y-51805887D01*
X165560785Y-94806861D02*
X165592575Y-95486858D01*
X127872186Y-33600657D02*
X127696213Y-33274225D01*
X161457487Y-100632881D02*
X161521517Y-100601421D01*
X132920418Y-112122172D02*
X132880468Y-112598826D01*
X161281507Y-50521664D02*
X161205247Y-50505194D01*
X162978926Y-94644012D02*
X163000166Y-93956504D01*
X165672765Y-65824069D02*
X164969237Y-65824069D01*
X196876479Y-55066812D02*
X196835469Y-54691390D01*
X129148964Y-99725820D02*
X129285186Y-99371171D01*
X99974401Y-123193064D02*
X99994421Y-123364935D01*
X131783020Y-71281796D02*
X131467601Y-70307185D01*
X128815056Y-127707432D02*
X128978265Y-127729572D01*
X97095291Y-25000000D02*
X108574115Y-25000000D01*
X159446565Y-81970195D02*
X159139951Y-81645135D01*
X132903874Y-123059867D02*
X132910874Y-123193064D01*
X135550743Y-77137955D02*
X135873366Y-77272949D01*
X164968237Y-105988554D02*
X164970962Y-106148139D01*
X132030764Y-38581017D02*
X132032764Y-38581017D01*
X135873366Y-127678036D02*
X136007043Y-127726157D01*
X169861340Y-77355637D02*
X170052845Y-77303377D01*
X196708879Y-104386694D02*
X196623299Y-104052192D01*
X116853216Y-77424477D02*
X116345719Y-77406387D01*
X113190931Y-122005533D02*
X113491645Y-121915103D01*
X101331930Y-101735372D02*
X101478520Y-101980644D01*
X114258301Y-71197130D02*
X114466779Y-71079811D01*
X152489412Y-77404087D02*
X152489412Y-77406087D01*
X125501604Y-80965028D02*
X125126557Y-80629567D01*
X132938808Y-111671142D02*
X132920418Y-112122172D01*
X181186419Y-120949439D02*
X181263299Y-120970739D01*
X166247443Y-52885305D02*
X166097442Y-52977325D01*
X133112304Y-71520572D02*
X133059224Y-71678991D01*
X166084950Y-119229156D02*
X166113617Y-119458731D01*
X131088851Y-65005520D02*
X131096251Y-64633611D01*
X161316509Y-34646881D02*
X161151518Y-34289093D01*
X196779599Y-54329679D02*
X196708879Y-53981607D01*
X162737596Y-89864636D02*
X162629089Y-89213408D01*
X99100791Y-105716440D02*
X99095291Y-105988554D01*
X140055610Y-76420382D02*
X140368182Y-76384722D01*
X103070570Y-127726157D02*
X103180403Y-127758557D01*
X197287435Y-76003710D02*
X197335255Y-75926800D01*
X163586380Y-103731189D02*
X163471068Y-103423615D01*
X99670194Y-42963459D02*
X99671149Y-43678712D01*
X167351619Y-102412674D02*
X167290829Y-102475914D01*
X132080574Y-105224510D02*
X132053464Y-105461095D01*
X168809839Y-127678036D02*
X168943516Y-127726157D01*
X115107653Y-70585332D02*
X115178283Y-70552122D01*
X118879806Y-77664517D02*
X118373961Y-77579377D01*
X193569159Y-33274225D02*
X193391420Y-32962463D01*
X171788841Y-29796254D02*
X171482169Y-30013257D01*
X163876314Y-62857538D02*
X163642760Y-61298576D01*
X162221659Y-48966084D02*
X162319230Y-48662034D01*
X100720125Y-75893849D02*
X100776845Y-76032233D01*
X199904710Y-96067121D02*
X195809100Y-96067121D01*
X101045570Y-50685011D02*
X101145400Y-50934249D01*
X147253188Y-27097000D02*
X146746913Y-27163000D01*
X132030764Y-119229156D02*
X132032764Y-119229156D01*
X159968077Y-76539754D02*
X160978109Y-77029115D01*
X117878275Y-122146056D02*
X118933523Y-122418837D01*
X134354356Y-52070827D02*
X134159190Y-52197967D01*
X114823526Y-27047840D02*
X114316715Y-27097000D01*
X101145400Y-50934249D02*
X101241130Y-51150262D01*
X122904160Y-75570263D02*
X124187662Y-75737803D01*
X197895410Y-72394199D02*
X197871190Y-72158981D01*
X166036682Y-103411232D02*
X165988722Y-103426352D01*
X135707383Y-83510085D02*
X135452372Y-83903992D01*
X194329772Y-50534704D02*
X194217980Y-50521664D01*
X132032764Y-88986104D02*
X133280478Y-88986104D01*
X189193512Y-28928774D02*
X188753546Y-28675794D01*
X126203478Y-31240048D02*
X125863947Y-30901728D01*
X100893503Y-102862229D02*
X100719175Y-103015999D01*
X178110628Y-77839954D02*
X177447061Y-77951210D01*
X185425885Y-27400830D02*
X185257819Y-27361298D01*
X160808659Y-84005744D02*
X160632686Y-83679312D01*
X197904710Y-123047061D02*
X197895410Y-122799286D01*
X165751322Y-103607542D02*
X165613546Y-103785778D01*
X171688376Y-127121849D02*
X172032723Y-127021879D01*
X132015199Y-73308111D02*
X132031489Y-72926994D01*
X118879806Y-27259430D02*
X118373961Y-27174290D01*
X127696213Y-83679312D02*
X127518474Y-83367550D01*
X164398782Y-126331887D02*
X164449502Y-126222726D01*
X132031764Y-55583467D02*
X132034489Y-55743052D01*
X196886027Y-113821032D02*
X196812787Y-113262625D01*
X133148477Y-68824069D02*
X133177144Y-69053644D01*
X100067711Y-123801125D02*
X100175613Y-124321294D01*
X133112304Y-121925659D02*
X133059224Y-122084078D01*
X136235300Y-32360697D02*
X135968450Y-32725483D01*
X129526946Y-102088361D02*
X129506006Y-101691851D01*
X112237682Y-27434867D02*
X111574115Y-27546123D01*
X155489412Y-129810174D02*
X155489412Y-125918720D01*
X164951672Y-73308111D02*
X164967962Y-72926994D01*
X130104486Y-52140696D02*
X130034946Y-52040637D01*
X131953804Y-122316720D02*
X131883834Y-122032555D01*
X196961097Y-114673508D02*
X196934417Y-114279472D01*
X195255703Y-99067121D02*
X199904710Y-99067121D01*
X168140161Y-84311953D02*
X167898076Y-84733629D01*
X161151518Y-84694180D02*
X160981919Y-84344736D01*
X99767954Y-91778394D02*
X99740724Y-91948447D01*
X171788841Y-80201341D02*
X171482169Y-80418344D01*
X128815056Y-77302345D02*
X128978265Y-77324485D01*
X99740724Y-91948447D02*
X99717974Y-92164969D01*
X137355102Y-31055616D02*
X137067835Y-31358101D01*
X165872181Y-111246801D02*
X165875281Y-111671142D01*
X163949554Y-63415945D02*
X163876314Y-62857538D01*
X170931621Y-76976890D02*
X171323076Y-76836327D01*
X194593480Y-50075274D02*
X194663900Y-49987724D01*
X103180403Y-127758557D02*
X103339903Y-127791504D01*
X125863947Y-30901728D02*
X125501604Y-30559941D01*
X195764119Y-40124066D02*
X195674069Y-39459549D01*
X199904710Y-58743052D02*
X199904710Y-65824069D01*
X166202627Y-120611291D02*
X166204427Y-120840166D01*
X128215045Y-84694180D02*
X128045446Y-84344736D01*
X197655966Y-71281796D02*
X197340547Y-70307185D01*
X100776845Y-126437320D02*
X100826185Y-126531880D01*
X164969237Y-96067121D02*
X164967237Y-96067121D01*
X136750499Y-127794364D02*
X136924867Y-127760724D01*
X194516211Y-127666692D02*
X194688002Y-127707432D01*
X163898996Y-105096477D02*
X163843126Y-104734766D01*
X139742900Y-126875099D02*
X140055610Y-126825469D01*
X164967237Y-68824069D02*
X164969237Y-68824069D01*
X167051625Y-126795018D02*
X167367665Y-126979559D01*
X131262589Y-76178310D02*
X131347349Y-76088050D01*
X107119137Y-126825469D02*
X107431709Y-126789809D01*
X144703027Y-123084870D02*
X144821705Y-122841244D01*
X115481633Y-121006059D02*
X115608086Y-121068269D01*
X164967237Y-88986104D02*
X164969237Y-88986104D01*
X197756780Y-71627468D02*
X197655966Y-71281796D01*
X152223513Y-72527043D02*
X152360782Y-72737475D01*
X100269557Y-38904894D02*
X100122652Y-39610991D01*
X131262589Y-126583397D02*
X131347349Y-126493137D01*
X133526855Y-125914263D02*
X133656598Y-126298936D01*
X112335441Y-122264433D02*
X112479051Y-122200963D01*
X164098396Y-76272950D02*
X164199062Y-76178310D01*
X180980599Y-70585332D02*
X181051229Y-70552122D01*
X99798805Y-65816376D02*
X99799819Y-65824069D01*
X148267201Y-77420597D02*
X147759999Y-77452927D01*
X166918516Y-101090098D02*
X167018346Y-101339336D01*
X161294097Y-100685771D02*
X161350107Y-100654921D01*
X104393926Y-127636804D02*
X105058675Y-127381977D01*
X133148477Y-119229156D02*
X133177144Y-119458731D01*
X122552939Y-75513633D02*
X122904160Y-75570263D01*
X131069171Y-65419707D02*
X131088851Y-65005520D01*
X97095291Y-65824069D02*
X97095291Y-58743052D01*
X192450033Y-126743691D02*
X192904550Y-126944841D01*
X179063877Y-122005533D02*
X179364591Y-121915103D01*
X130976120Y-119229156D02*
X132030764Y-119229156D01*
X177447061Y-77406087D02*
X177447061Y-77404087D01*
X133655648Y-103015999D02*
X133482463Y-103163767D01*
X134476263Y-51768357D02*
X134476196Y-51855557D01*
X133177144Y-119458731D02*
X133238134Y-120087879D01*
X165614541Y-114235091D02*
X165584521Y-114699357D01*
X151816279Y-77664517D02*
X151310434Y-77579377D01*
X163966176Y-105861101D02*
X163940006Y-105471899D01*
X100288961Y-121428206D02*
X100259001Y-121600451D01*
X101384326Y-35581017D02*
X97095291Y-35581017D01*
X131976229Y-73724414D02*
X132015199Y-73308111D01*
X119552939Y-72964078D02*
X119552939Y-77404087D01*
X104710320Y-81174638D02*
X104418629Y-81460703D01*
X117360520Y-27054260D02*
X116853216Y-27019390D01*
X193212863Y-32667478D02*
X193034436Y-32391379D01*
X128585044Y-100601421D02*
X128651724Y-100550241D01*
X157032746Y-29411680D02*
X156671136Y-29179052D01*
X163122289Y-102688853D02*
X163040959Y-102545783D01*
X132677073Y-103785778D02*
X132537294Y-104004288D01*
X130598175Y-59655854D02*
X130765978Y-58743052D01*
X130063693Y-93956504D02*
X130066293Y-93266072D01*
X131563779Y-126092347D02*
X131663599Y-125777169D01*
X188425885Y-129810174D02*
X188425885Y-125918720D01*
X132675378Y-65242260D02*
X132735278Y-65816376D01*
X132656102Y-95486858D02*
X132701914Y-96067121D01*
X194286580Y-100654921D02*
X194333110Y-100643591D01*
X196969197Y-64633611D02*
X196961097Y-64268421D01*
X161396637Y-50238504D02*
X161457487Y-50227794D01*
X133059125Y-39610991D02*
X132704427Y-41373307D01*
X167114076Y-51150262D02*
X167204876Y-51330285D01*
X133000179Y-103445482D02*
X132942589Y-103483192D01*
X194735410Y-100288612D02*
X194879612Y-100034366D01*
X195520140Y-88986104D02*
X199904710Y-88986104D01*
X164970962Y-106148139D02*
X164969237Y-106148139D01*
X129944043Y-45594361D02*
X130002583Y-44920807D01*
X181731036Y-121238199D02*
X181823796Y-121324999D01*
X148774647Y-27000000D02*
X148267201Y-27015510D01*
X119552939Y-77404087D02*
X119552939Y-77406087D01*
X128862464Y-100288612D02*
X129006666Y-100034366D01*
X155840633Y-75570263D02*
X157124135Y-75737803D01*
X148181306Y-120944239D02*
X148249946Y-120949439D01*
X97095291Y-58743052D02*
X99560843Y-58743052D01*
X165645281Y-109837635D02*
X165734101Y-110144567D01*
X164968237Y-72641974D02*
X164958937Y-72394199D01*
X195487736Y-77224405D02*
X195660169Y-77151555D01*
X99249811Y-104765263D02*
X99182361Y-105008674D01*
X133526855Y-75509176D02*
X133656598Y-75893849D01*
X132677197Y-41543360D02*
X132654447Y-41759882D01*
X132032764Y-85986104D02*
X132030764Y-85986104D01*
X140368182Y-76384722D02*
X140969979Y-76324532D01*
X164969237Y-119229156D02*
X166084950Y-119229156D01*
X102936893Y-127678036D02*
X103070570Y-127726157D01*
X141510588Y-77404087D02*
X141510588Y-77406087D01*
X103814026Y-77389277D02*
X103988394Y-77355637D01*
X192450033Y-76338604D02*
X192904550Y-76539754D01*
X165995697Y-122084078D02*
X165935377Y-122294904D01*
X130571845Y-60306564D02*
X130562745Y-60085483D01*
X105450130Y-76836327D02*
X105815430Y-76716762D01*
X166174607Y-120087879D02*
X166202627Y-120611291D01*
X163570905Y-127069965D02*
X163856193Y-126874381D01*
X136276376Y-127791504D02*
X136431639Y-127808974D01*
X172679373Y-126875099D02*
X172992083Y-126825469D01*
X130598175Y-110060941D02*
X130765978Y-109148139D01*
X129910686Y-51944187D02*
X129845696Y-51935087D01*
X162952276Y-91887247D02*
X162899216Y-91204257D01*
X132403546Y-104249451D02*
X132283864Y-104507649D01*
X116210103Y-121543056D02*
X116383176Y-121643688D01*
X196579233Y-111703663D02*
X196471721Y-110970654D01*
X99738905Y-65242260D02*
X99798805Y-65816376D01*
X131046774Y-116229156D02*
X131069171Y-115824794D01*
X132032764Y-99067121D02*
X133347108Y-99067121D01*
X185425885Y-77805917D02*
X185257819Y-77766385D01*
X188425885Y-78901290D02*
X188425885Y-77406087D01*
X103339903Y-77386417D02*
X103495166Y-77403887D01*
X106944991Y-29165112D02*
X106416503Y-29474666D01*
X147746157Y-121232244D02*
X147963256Y-121045949D01*
X163002766Y-93266072D02*
X162986806Y-92575419D01*
X180339725Y-121484898D02*
X180523710Y-121361490D01*
X147403252Y-71079811D02*
X147587237Y-70956403D01*
X150803956Y-27105900D02*
X150296993Y-27054260D01*
X129695536Y-51956067D02*
X129637156Y-51955507D01*
X136007043Y-127726157D02*
X136116876Y-127758557D01*
X116383176Y-121643688D02*
X116591723Y-121741498D01*
X194252982Y-85051968D02*
X194087991Y-84694180D01*
X197631205Y-125404825D02*
X197717195Y-124993785D01*
X100175613Y-124321294D02*
X100306466Y-124878301D01*
X195835689Y-91204257D02*
X195764119Y-90529153D01*
X129477256Y-100989591D02*
X128801745Y-100960171D01*
X99347391Y-104507649D02*
X99249811Y-104765263D01*
X164820307Y-122032555D02*
X164719493Y-121686883D01*
X165473767Y-104004288D02*
X165340019Y-104249451D01*
X161628874Y-35379054D02*
X161316509Y-34646881D01*
X162583667Y-88986104D02*
X164967237Y-88986104D01*
X102614270Y-77137955D02*
X102936893Y-77272949D01*
X195875529Y-44920807D02*
X195915399Y-44238925D01*
X133713318Y-126437320D02*
X133762658Y-126531880D01*
X167204876Y-101735372D02*
X167351466Y-101980644D01*
X144896345Y-122675739D02*
X144972595Y-122539970D01*
X181940567Y-71032433D02*
X182083049Y-71137969D01*
X185409680Y-72930991D02*
X185425885Y-72964078D01*
X103814026Y-127794364D02*
X103988394Y-127760724D01*
X164968237Y-123047061D02*
X164958937Y-122799286D01*
X167392259Y-51935567D02*
X167351619Y-52007587D01*
X100325281Y-70645704D02*
X100311071Y-70840808D01*
X131013081Y-113821032D02*
X130939841Y-113262625D01*
X172361321Y-76535012D02*
X172679373Y-76470012D01*
X100175831Y-121925659D02*
X100122751Y-122084078D01*
X129637156Y-51955507D02*
X129593946Y-51934977D01*
X100221271Y-121765359D02*
X100175831Y-121925659D01*
X196623299Y-53647105D02*
X196522853Y-53326102D01*
X99560843Y-109148139D02*
X99573091Y-109194248D01*
X145056545Y-122429273D02*
X145154285Y-122338983D01*
X102244826Y-76965321D02*
X102614270Y-77137955D01*
X164967237Y-109148139D02*
X164969237Y-109148139D01*
X161396637Y-100643591D02*
X161457487Y-100632881D01*
X106159777Y-76616792D02*
X106488375Y-76535012D01*
X163966176Y-55456014D02*
X163940006Y-55066812D01*
X152321346Y-77766385D02*
X151816279Y-77664517D01*
X162971419Y-52040637D02*
X162908529Y-51977247D01*
X194332361Y-77202395D02*
X194516211Y-77261605D01*
X101789916Y-85168683D02*
X101561844Y-85616776D01*
X116067621Y-121437520D02*
X116210103Y-121543056D01*
X119384873Y-27361298D02*
X118879806Y-27259430D01*
X152489412Y-77406087D02*
X152489412Y-77805917D01*
X132037264Y-55311353D02*
X132031764Y-55583467D01*
X177758178Y-122841244D02*
X177832818Y-122675739D01*
X165340019Y-53844364D02*
X165220337Y-54102562D01*
X133238134Y-120087879D02*
X133266154Y-120611291D01*
X160276390Y-83072565D02*
X160097963Y-82796466D01*
X99685594Y-42306891D02*
X99670194Y-42963459D01*
X99798995Y-63311963D02*
X99741595Y-63830004D01*
X168487216Y-127543042D02*
X168809839Y-127678036D01*
X137995148Y-127381977D02*
X138386603Y-127241414D01*
X162872627Y-96067121D02*
X162880516Y-95999448D01*
X182256122Y-121643688D02*
X182464669Y-121741498D01*
X162908529Y-51977247D02*
X162847159Y-51944187D01*
X115107653Y-120990419D02*
X115178283Y-120957209D01*
X194081070Y-50457374D02*
X194089270Y-50423734D01*
X133195474Y-71195364D02*
X133157744Y-71360272D01*
X161943139Y-49629279D02*
X162085437Y-49320733D01*
X99098016Y-106148139D02*
X97095291Y-106148139D01*
X144510588Y-77951210D02*
X144510588Y-77406087D01*
X97095291Y-88986104D02*
X100344005Y-88986104D01*
X105915895Y-29796254D02*
X105609223Y-30013257D01*
X195875529Y-95325894D02*
X195915399Y-94644012D01*
X165433789Y-58743052D02*
X165446037Y-58789161D01*
X193918392Y-33939649D02*
X193745132Y-33600657D01*
X163508318Y-60306564D02*
X163499218Y-60085483D01*
X131061471Y-63874385D02*
X131013081Y-63415945D01*
X161751529Y-77302345D02*
X161914738Y-77324485D01*
X195888749Y-41482160D02*
X195835689Y-40799170D01*
X133280478Y-38581017D02*
X133206030Y-38904894D01*
X124187662Y-126142890D02*
X124760527Y-126231450D01*
X128460164Y-100643591D02*
X128521014Y-100632881D01*
X132034489Y-55743052D02*
X132032764Y-55743052D01*
X132735278Y-116221463D02*
X132736292Y-116229156D01*
X132030764Y-99067121D02*
X132032764Y-99067121D01*
X97095291Y-119229156D02*
X100212004Y-119229156D01*
X132032764Y-65824069D02*
X132030764Y-65824069D01*
X130050333Y-92575419D02*
X130015803Y-91887247D01*
X189607609Y-79584139D02*
X189193512Y-79333861D01*
X163040959Y-52140696D02*
X162971419Y-52040637D01*
X135968450Y-32725483D02*
X135707383Y-33104998D01*
X128045446Y-33939649D02*
X127872186Y-33600657D01*
X164854552Y-124562521D02*
X164912702Y-124129501D01*
X100621599Y-49411107D02*
X100836871Y-50097919D01*
X196886027Y-63415945D02*
X196812787Y-62857538D01*
X132605314Y-59114409D02*
X132708808Y-59432548D01*
X165751322Y-53202455D02*
X165613546Y-53380691D01*
X180696472Y-27047840D02*
X180189661Y-27097000D01*
X132497316Y-58743052D02*
X132509564Y-58789161D01*
X163997944Y-63874385D02*
X163949554Y-63415945D01*
X134177603Y-51150262D02*
X134268403Y-51330285D01*
X112120072Y-122429273D02*
X112217812Y-122338983D01*
X164890277Y-71911633D02*
X164820307Y-71627468D01*
X111574115Y-25000000D02*
X119552939Y-25000000D01*
X194879612Y-100034366D02*
X195021910Y-99725820D01*
X99798995Y-113717050D02*
X99741595Y-114235091D01*
X164694732Y-74999738D02*
X164780722Y-74588698D01*
X136116876Y-77353470D02*
X136276376Y-77386417D01*
X165995598Y-39610991D02*
X165640900Y-41373307D01*
X162319230Y-99067121D02*
X164967237Y-99067121D01*
X99799819Y-116229156D02*
X97095291Y-116229156D01*
X130835933Y-53981607D02*
X130750353Y-53647105D01*
X164199062Y-76178310D02*
X164283822Y-76088050D01*
X133881538Y-126640180D02*
X134115152Y-126795018D01*
X157124135Y-126142890D02*
X157697000Y-126231450D01*
X132031764Y-72641974D02*
X132022464Y-72394199D01*
X196471721Y-110970654D02*
X196444791Y-110711651D01*
X199904710Y-99067121D02*
X199904710Y-106148139D01*
X127161490Y-32391379D02*
X126984140Y-32136274D01*
X134004582Y-102719260D02*
X133829976Y-102862229D01*
X167290829Y-52070827D02*
X167095663Y-52197967D01*
X170583266Y-81174638D02*
X170291575Y-81460703D01*
X132735278Y-65816376D02*
X132736292Y-65824069D01*
X129593946Y-51934977D02*
X129563076Y-51887447D01*
X183351965Y-71633668D02*
X183751221Y-71740969D01*
X134004582Y-52314173D02*
X133829976Y-52457142D01*
X108370424Y-126687809D02*
X108571691Y-126665189D01*
X138386603Y-76836327D02*
X138751903Y-76716762D01*
X132031489Y-72926994D02*
X132031764Y-72641974D01*
X166321555Y-75019917D02*
X166463328Y-75509176D01*
X144972595Y-122539970D02*
X145056545Y-122429273D01*
X196934417Y-114279472D02*
X196886027Y-113821032D01*
X99573091Y-109194248D02*
X99668841Y-109519496D01*
X133059125Y-90016078D02*
X132704427Y-91778394D01*
X163002766Y-42860985D02*
X162986806Y-42170332D01*
X132704427Y-91778394D02*
X132677197Y-91948447D01*
X99719629Y-45081771D02*
X99765441Y-45662034D01*
X165558540Y-92711978D02*
X165543140Y-93368546D01*
X149777097Y-71433471D02*
X150071236Y-71531861D01*
X115838174Y-77405087D02*
X115330728Y-77420597D01*
X180339725Y-71079811D02*
X180523710Y-70956403D01*
X133267954Y-70435079D02*
X133261754Y-70645704D01*
X101519420Y-51674757D02*
X101539790Y-51768357D01*
X130598775Y-60565567D02*
X130571845Y-60306564D01*
X133773344Y-50097919D02*
X133982043Y-50685011D01*
X164350962Y-126408797D02*
X164398782Y-126331887D01*
X119552939Y-77406087D02*
X119552939Y-77805917D01*
X132654447Y-41759882D02*
X132622067Y-42306891D01*
X163000166Y-43551417D02*
X163002766Y-42860985D01*
X102515899Y-83903992D02*
X102267215Y-84311953D01*
X126510092Y-81970195D02*
X126203478Y-81645135D01*
X165543140Y-93368546D02*
X165544095Y-94083799D01*
X166161907Y-71023119D02*
X166131947Y-71195364D01*
X182083049Y-71137969D02*
X182256122Y-71238601D01*
X132607622Y-43678712D02*
X132624312Y-44401774D01*
X166216951Y-38581017D02*
X166142503Y-38904894D01*
X165672765Y-116229156D02*
X164969237Y-116229156D01*
X100122652Y-90016078D02*
X99767954Y-91778394D01*
X158800420Y-81306815D02*
X158438077Y-80965028D01*
X136507663Y-32010980D02*
X136235300Y-32360697D01*
X130835933Y-104386694D02*
X130750353Y-104052192D01*
X97095291Y-129810174D02*
X97095291Y-119229156D01*
X133655648Y-52610912D02*
X133482463Y-52758680D01*
X191374550Y-30559941D02*
X190999503Y-30224480D01*
X162978926Y-44238925D02*
X163000166Y-43551417D01*
X195466892Y-102340064D02*
X195436022Y-102292534D01*
X131513029Y-75817639D02*
X131563779Y-75687260D01*
X116345719Y-27001300D02*
X115838174Y-27000000D01*
X129962743Y-91204257D02*
X129891173Y-90529153D01*
X162827646Y-40124066D02*
X162737596Y-39459549D01*
X163949554Y-113821032D02*
X163876314Y-113262625D01*
X127161490Y-82796466D02*
X126984140Y-82541361D01*
X199904710Y-48662034D02*
X199904710Y-55743052D01*
X161727427Y-100392811D02*
X161798937Y-100288612D01*
X132736292Y-65824069D02*
X132032764Y-65824069D01*
X166766449Y-52457142D02*
X166592121Y-52610912D01*
X126203478Y-81645135D02*
X125863947Y-81306815D01*
X197220295Y-126493137D02*
X197287435Y-126408797D01*
X196902649Y-105861101D02*
X196876479Y-105471899D01*
X132646748Y-64749956D02*
X132675378Y-65242260D01*
X160632686Y-83679312D02*
X160454947Y-83367550D01*
X166174607Y-69682792D02*
X166202627Y-70206204D01*
X195324100Y-127683072D02*
X195487736Y-127629492D01*
X190251723Y-80016798D02*
X189969219Y-79816767D01*
X133004184Y-123801125D02*
X133112086Y-124321294D01*
X105815430Y-76716762D02*
X106159777Y-76616792D01*
X147587237Y-121361490D02*
X147746157Y-121232244D01*
X133310970Y-52885305D02*
X133160969Y-52977325D01*
X148418106Y-70600972D02*
X148544559Y-70663182D01*
X132607622Y-94083799D02*
X132624312Y-94806861D01*
X161235657Y-100731421D02*
X161294097Y-100685771D01*
X182713570Y-121838558D02*
X183007709Y-121936948D01*
X165935377Y-122294904D02*
X165885977Y-122549157D01*
X144510588Y-27546123D02*
X144510588Y-25000000D01*
X132648048Y-114699357D02*
X132646748Y-115155043D01*
X131758259Y-125404825D02*
X131844249Y-124993785D01*
X132032764Y-96067121D02*
X132030764Y-96067121D01*
X168388845Y-83903992D02*
X168140161Y-84311953D01*
X166283581Y-48662034D02*
X166494545Y-49411107D01*
X196623299Y-104052192D02*
X196522853Y-103731189D01*
X108574115Y-77404087D02*
X108574115Y-77406087D01*
X128208124Y-50457374D02*
X128216324Y-50423734D01*
X190633473Y-75826363D02*
X191135027Y-75924003D01*
X161738218Y-100960171D02*
X161393299Y-100939791D01*
X131783020Y-121686883D02*
X131467601Y-120712272D01*
X130919720Y-126874381D02*
X131161923Y-126678037D01*
X195907892Y-102445724D02*
X195845002Y-102382334D01*
X149789689Y-77424477D02*
X149282192Y-77406387D01*
X162827646Y-90529153D02*
X162737596Y-89864636D01*
X181940567Y-121437520D02*
X182083049Y-121543056D01*
X105305889Y-30248033D02*
X105006164Y-30500244D01*
X162551263Y-127629492D02*
X162723696Y-127556642D01*
X103298827Y-32360697D02*
X103031977Y-32725483D01*
X189193512Y-79333861D02*
X188753546Y-79080881D01*
X148114756Y-120957209D02*
X148181306Y-120944239D01*
X197904435Y-72926994D02*
X197904710Y-72641974D01*
X179364591Y-71510016D02*
X179643107Y-71412486D01*
X180980599Y-120990419D02*
X181051229Y-120957209D01*
X99717974Y-41759882D02*
X99685594Y-42306891D01*
X132053464Y-55056008D02*
X132037264Y-55311353D01*
X99799819Y-65824069D02*
X97095291Y-65824069D01*
X165816952Y-53132695D02*
X165751322Y-53202455D01*
X129506006Y-101691851D02*
X129477256Y-100989591D01*
X131088851Y-115410607D02*
X131096251Y-115038698D01*
X104393926Y-77231717D02*
X105058675Y-76976890D01*
X173906452Y-126729619D02*
X174243370Y-126687809D01*
X155817073Y-79080881D02*
X155489412Y-78901290D01*
X133829976Y-52457142D02*
X133655648Y-52610912D01*
X133052249Y-103426352D02*
X133000179Y-103445482D01*
X165935377Y-71889817D02*
X165885977Y-72144070D01*
X195644882Y-51943687D02*
X195568482Y-51956067D01*
X107489844Y-79278057D02*
X106944991Y-79570199D01*
X145056545Y-72024186D02*
X145154285Y-71933896D01*
X134498317Y-85616776D02*
X134320799Y-85986104D01*
X129285186Y-99371171D02*
X129382757Y-99067121D01*
X99974401Y-72787977D02*
X99994421Y-72959848D01*
X111574115Y-27546123D02*
X111574115Y-25000000D01*
X155489412Y-78901290D02*
X155489412Y-77406087D01*
X177447061Y-129810174D02*
X177447061Y-123440244D01*
X128790954Y-49987724D02*
X128862464Y-49883525D01*
X164500252Y-75687260D02*
X164600072Y-75372082D01*
X131161923Y-126678037D02*
X131262589Y-126583397D01*
X129910686Y-102349274D02*
X129845696Y-102340174D01*
X194286580Y-50249834D02*
X194333110Y-50238504D01*
X128299184Y-50326334D02*
X128357624Y-50280684D01*
X161152797Y-50423734D02*
X161181837Y-50382084D01*
X128041636Y-127434202D02*
X128260030Y-127529942D01*
X166709817Y-100503006D02*
X166918516Y-101090098D01*
X193914582Y-77029115D02*
X194132976Y-77124855D01*
X167351619Y-52007587D02*
X167290829Y-52070827D01*
X108574115Y-25000000D02*
X108574115Y-28366206D01*
X129292838Y-77312435D02*
X129451154Y-77277985D01*
X194332361Y-127607482D02*
X194516211Y-127666692D01*
X105058675Y-127381977D02*
X105450130Y-127241414D01*
X183233466Y-77459347D02*
X182726162Y-77424477D01*
X148249946Y-70544352D02*
X148326826Y-70565652D01*
X134455786Y-51935567D02*
X134415146Y-52007587D01*
X192857086Y-82541361D02*
X192646628Y-82272201D01*
X133238134Y-69682792D02*
X133266154Y-70206204D01*
X195845002Y-102382334D02*
X195783632Y-102349274D01*
X127696213Y-33274225D02*
X127518474Y-32962463D01*
X169861340Y-127760724D02*
X170052845Y-127708464D01*
X134455893Y-51674757D02*
X134476263Y-51768357D01*
X148267201Y-27015510D02*
X147759999Y-27047840D01*
X196708879Y-53981607D02*
X196623299Y-53647105D01*
X169686972Y-77389277D02*
X169861340Y-77355637D01*
X168943516Y-77321070D02*
X169053349Y-77353470D01*
X161316509Y-85051968D02*
X161151518Y-84694180D01*
X163499218Y-60085483D02*
X163508018Y-59877016D01*
X165816952Y-103537782D02*
X165751322Y-103607542D01*
X199904710Y-88986104D02*
X199904710Y-96067121D01*
X136750499Y-77389277D02*
X136924867Y-77355637D01*
X167898076Y-34328542D02*
X167662862Y-34763596D01*
X132283864Y-54102562D02*
X132186284Y-54360176D01*
X163876314Y-113262625D02*
X163642760Y-111703663D01*
X182083049Y-121543056D02*
X182256122Y-121643688D01*
X112479051Y-71795876D02*
X112654736Y-71738826D01*
X113304849Y-77650937D02*
X112237682Y-77839954D01*
X99740600Y-53380691D02*
X99600821Y-53599201D01*
X132818938Y-62694951D02*
X132735468Y-63311963D01*
X119536734Y-72930991D02*
X119552939Y-72964078D01*
X132930894Y-123364935D02*
X133004184Y-123801125D01*
X101494719Y-76574472D02*
X101860871Y-76771881D01*
X162229311Y-127717522D02*
X162387627Y-127683072D01*
X158198554Y-75924003D02*
X158652618Y-76037446D01*
X174243370Y-126687809D02*
X174444637Y-126665189D01*
X196579233Y-61298576D02*
X196471721Y-60565567D01*
X99967401Y-72654780D02*
X99974401Y-72787977D01*
X197436725Y-126092347D02*
X197536545Y-125777169D01*
X183740429Y-77510987D02*
X183233466Y-77459347D01*
X132606667Y-93368546D02*
X132607622Y-94083799D01*
X177832818Y-122675739D02*
X177909068Y-122539970D01*
X161395888Y-127607482D02*
X161579738Y-127666692D01*
X147746157Y-70827157D02*
X147963256Y-70640862D01*
X132910874Y-72787977D02*
X132930894Y-72959848D01*
X100224496Y-52977325D02*
X100163736Y-53006145D01*
X107431709Y-126789809D02*
X108033506Y-126729619D01*
X170931621Y-127381977D02*
X171323076Y-127241414D01*
X132186284Y-54360176D02*
X132118834Y-54603587D01*
X191374550Y-80965028D02*
X190999503Y-80629567D01*
X139881464Y-29165112D02*
X139352976Y-29474666D01*
X164958937Y-122799286D02*
X164934717Y-122564068D01*
X129006666Y-49629279D02*
X129148964Y-49320733D01*
X151310434Y-77579377D02*
X150803956Y-77510987D01*
X129771936Y-102348774D02*
X129695536Y-102361154D01*
X141508164Y-76260102D02*
X141510588Y-76259981D01*
X161294097Y-50280684D02*
X161350107Y-50249834D01*
X164967237Y-116229156D02*
X163983247Y-116229156D01*
X136785265Y-82081756D02*
X136507663Y-82416067D01*
X164024624Y-64268421D02*
X163997944Y-63874385D01*
X161579738Y-77261605D02*
X161751529Y-77302345D01*
X194457990Y-50196334D02*
X194524670Y-50145154D01*
X103651412Y-77405087D02*
X103814026Y-77389277D01*
X130962523Y-105096477D02*
X130906653Y-104734766D01*
X136587885Y-77405087D02*
X136750499Y-77389277D01*
X193391420Y-83367550D02*
X193212863Y-83072565D01*
X133100209Y-103411232D02*
X133052249Y-103426352D01*
X140969979Y-76324532D02*
X141306897Y-76282722D01*
X99999235Y-60841714D02*
X100002335Y-61266055D01*
X196444491Y-59877016D02*
X196471121Y-59655854D01*
X169053349Y-77353470D02*
X169212849Y-77386417D01*
X104179899Y-127708464D02*
X104393926Y-127636804D01*
X197826750Y-122316720D02*
X197756780Y-122032555D01*
X165638387Y-45662034D02*
X164969237Y-45662034D01*
X162952276Y-41482160D02*
X162899216Y-40799170D01*
X170052845Y-77303377D02*
X170266872Y-77231717D01*
X196444791Y-110711651D02*
X196435691Y-110490570D01*
X106488375Y-126940099D02*
X106806427Y-126875099D01*
X174447061Y-129810174D02*
X155489412Y-129810174D01*
X194663900Y-100392811D02*
X194735410Y-100288612D01*
X162413729Y-100989591D02*
X161738218Y-100960171D01*
X164968237Y-55583467D02*
X164970962Y-55743052D01*
X196876479Y-105471899D02*
X196835469Y-105096477D01*
X185257819Y-27361298D02*
X184752752Y-27259430D01*
X167351466Y-51575557D02*
X167392366Y-51674757D01*
X148887323Y-121324999D02*
X149004094Y-121437520D01*
X104418629Y-31055616D02*
X104131362Y-31358101D01*
X196638924Y-109148139D02*
X199904710Y-109148139D01*
X123734663Y-79584139D02*
X123320566Y-79333861D01*
X162573629Y-102360594D02*
X162530419Y-102340064D01*
X163534648Y-110060941D02*
X163702451Y-109148139D01*
X99738905Y-115647347D02*
X99798805Y-116221463D01*
X166321555Y-125425004D02*
X166463328Y-125914263D01*
X134476196Y-51855557D02*
X134455786Y-51935567D01*
X132537294Y-53599201D02*
X132403546Y-53844364D01*
X99687839Y-94806861D02*
X99719629Y-95486858D01*
X164989937Y-105461095D02*
X164973737Y-105716440D01*
X163772406Y-53981607D02*
X163686826Y-53647105D01*
X106416503Y-79879753D02*
X105915895Y-80201341D01*
X166742211Y-76174073D02*
X166818011Y-76235093D01*
X166699131Y-126531880D02*
X166742211Y-126579160D01*
X197340547Y-70307185D02*
X196849066Y-68824069D01*
X133177144Y-69053644D02*
X133238134Y-69682792D01*
X133881538Y-76235093D02*
X134115152Y-76389931D01*
X194644720Y-85986104D02*
X194565347Y-85784141D01*
X145174155Y-77839954D02*
X144510588Y-77951210D01*
X167257272Y-85986104D02*
X164969237Y-85986104D01*
X134476263Y-102173444D02*
X134476196Y-102260644D01*
X115858090Y-70833112D02*
X115950850Y-70919912D01*
X100269557Y-89309981D02*
X100122652Y-90016078D01*
X131998244Y-122564068D02*
X131953804Y-122316720D01*
X130034946Y-52040637D02*
X129972056Y-51977247D01*
X197436725Y-75687260D02*
X197536545Y-75372082D01*
X128978265Y-127729572D02*
X129136367Y-127732972D01*
X129962743Y-40799170D02*
X129891173Y-40124066D01*
X166649791Y-76032233D02*
X166699131Y-76126793D01*
X97095291Y-106148139D02*
X97095291Y-99067121D01*
X164969237Y-48662034D02*
X166283581Y-48662034D01*
X128643265Y-77261605D02*
X128815056Y-77302345D01*
X162387627Y-77277985D02*
X162551263Y-77224405D01*
X131037764Y-106148139D02*
X131029703Y-105861101D01*
X100122751Y-122084078D02*
X100062431Y-122294904D01*
X164719493Y-121686883D02*
X164404074Y-120712272D01*
X196812787Y-113262625D02*
X196579233Y-111703663D01*
X113810440Y-77568087D02*
X113304849Y-77650937D01*
X163843126Y-54329679D02*
X163772406Y-53981607D01*
X124096273Y-29411680D02*
X123734663Y-29179052D01*
X148326826Y-120970739D02*
X148418106Y-121006059D01*
X129614790Y-127629492D02*
X129787223Y-127556642D01*
X174444637Y-76260102D02*
X174447061Y-76259981D01*
X100836871Y-100503006D02*
X101045570Y-101090098D01*
X166048777Y-121925659D02*
X165995697Y-122084078D01*
X130649907Y-53326102D02*
X130534595Y-53018528D01*
X130562745Y-60085483D02*
X130571545Y-59877016D01*
X107119137Y-76420382D02*
X107431709Y-76384722D01*
X181823796Y-70919912D02*
X181940567Y-71032433D01*
X141510588Y-77406087D02*
X141510588Y-78771293D01*
X166113617Y-69053644D02*
X166174607Y-69682792D01*
X131462309Y-126331887D02*
X131513029Y-126222726D01*
X128345034Y-50521664D02*
X128268774Y-50505194D01*
X128216324Y-50423734D02*
X128245364Y-50382084D01*
X164600072Y-75372082D02*
X164694732Y-74999738D01*
X113304849Y-27245850D02*
X112237682Y-27434867D01*
X178110628Y-27434867D02*
X177447061Y-27546123D01*
X114650764Y-121361490D02*
X114809684Y-121232244D01*
X133982043Y-50685011D02*
X134081873Y-50934249D01*
X100776845Y-76032233D02*
X100826185Y-76126793D01*
X115178283Y-70552122D02*
X115244833Y-70539152D01*
X170879110Y-30500244D02*
X170583266Y-30769551D01*
X162478159Y-102210974D02*
X162463419Y-102088361D01*
X161708247Y-85986104D02*
X161628874Y-85784141D01*
X164969237Y-68824069D02*
X166084950Y-68824069D01*
X166131947Y-121600451D02*
X166094217Y-121765359D01*
X165583221Y-64749956D02*
X165611851Y-65242260D01*
X165640900Y-91778394D02*
X165613670Y-91948447D01*
X196779599Y-104734766D02*
X196708879Y-104386694D01*
X119552939Y-27400830D02*
X119384873Y-27361298D01*
X155489412Y-75513633D02*
X155840633Y-75570263D01*
X190633473Y-126231450D02*
X191135027Y-126329090D01*
X185297255Y-72737475D02*
X185409680Y-72930991D01*
X161205247Y-100910281D02*
X161160837Y-100889231D01*
X99685594Y-92711978D02*
X99670194Y-93368546D01*
X101417883Y-102475914D02*
X101222717Y-102603054D01*
X167733817Y-127176968D02*
X168117772Y-127370408D01*
X139424848Y-76535012D02*
X139742900Y-76470012D01*
X128299184Y-100731421D02*
X128357624Y-100685771D01*
X106806427Y-76470012D02*
X107119137Y-76420382D01*
X132080574Y-54819423D02*
X132053464Y-55056008D01*
X163983247Y-116229156D02*
X164005644Y-115824794D01*
X132930894Y-72959848D02*
X133004184Y-73396038D01*
X197340547Y-120712272D02*
X196849066Y-119229156D01*
X131663599Y-125777169D02*
X131758259Y-125404825D01*
X148326826Y-70565652D02*
X148418106Y-70600972D01*
X155840633Y-125975350D02*
X157124135Y-126142890D01*
X159083014Y-76173407D02*
X159513560Y-76338604D01*
X130939841Y-113262625D02*
X130706287Y-111703663D01*
X158438077Y-80965028D02*
X158063030Y-80629567D01*
X131414489Y-76003710D02*
X131462309Y-75926800D01*
X165885977Y-122549157D02*
X165852607Y-122814818D01*
X194081070Y-100862461D02*
X194089270Y-100828821D01*
X169171773Y-32360697D02*
X168904923Y-32725483D01*
X161196503Y-127529942D02*
X161395888Y-127607482D01*
X178351997Y-122200963D02*
X178527682Y-122143913D01*
X122552939Y-78901290D02*
X122552939Y-77406087D01*
X150296993Y-77459347D02*
X149789689Y-77424477D01*
X197287435Y-126408797D02*
X197335255Y-126331887D01*
X163772406Y-104386694D02*
X163686826Y-104052192D01*
X194329772Y-100939791D02*
X194217980Y-100926751D01*
X100288961Y-71023119D02*
X100259001Y-71195364D01*
X181117779Y-120944239D02*
X181186419Y-120949439D01*
X194524670Y-50145154D02*
X194593480Y-50075274D01*
X160097963Y-82796466D02*
X159920613Y-82541361D01*
X164283822Y-126493137D02*
X164350962Y-126408797D01*
X196812787Y-62857538D02*
X196579233Y-61298576D01*
X113770161Y-71412486D02*
X114025904Y-71308106D01*
X199904710Y-116229156D02*
X196919720Y-116229156D01*
X147963256Y-70640862D02*
X148044126Y-70585332D01*
X161152797Y-100828821D02*
X161181837Y-100787171D01*
X134115152Y-126795018D02*
X134431192Y-126979559D01*
X181711120Y-77405087D02*
X181203674Y-77420597D01*
X174447061Y-77406087D02*
X174447061Y-78771293D01*
X132118834Y-105008674D02*
X132080574Y-105224510D01*
X170291575Y-81460703D02*
X170004308Y-81763188D01*
X165875281Y-61266055D02*
X165856891Y-61717085D01*
X112120072Y-72024186D02*
X112217812Y-71933896D01*
X128692401Y-85784141D02*
X128380036Y-85051968D01*
X133762658Y-126531880D02*
X133805738Y-126579160D01*
X113810440Y-27163000D02*
X113304849Y-27245850D01*
X166097442Y-103382412D02*
X166036682Y-103411232D01*
X194089270Y-100828821D02*
X194118310Y-100787171D01*
X164934717Y-122564068D02*
X164890277Y-122316720D01*
X162723696Y-77151555D02*
X162908400Y-77059315D01*
X99144101Y-54819423D02*
X99116991Y-55056008D01*
X100224496Y-103382412D02*
X100163736Y-103411232D01*
X162499549Y-51887447D02*
X162478159Y-51805887D01*
X130962523Y-54691390D02*
X130906653Y-54329679D01*
X108574115Y-126665068D02*
X108574115Y-129810174D01*
X165446037Y-58789161D02*
X165541787Y-59114409D01*
X133059224Y-122084078D02*
X132998904Y-122294904D01*
X194118310Y-50382084D02*
X194172130Y-50326334D01*
X131003533Y-55066812D02*
X130962523Y-54691390D01*
X164969237Y-88986104D02*
X166216951Y-88986104D01*
X195436022Y-102292534D02*
X195414632Y-102210974D01*
X165543140Y-42963459D02*
X165544095Y-43678712D01*
X133195474Y-121600451D02*
X133157744Y-121765359D01*
X194524670Y-100550241D02*
X194593480Y-100480361D01*
X115178283Y-120957209D02*
X115244833Y-120944239D01*
X166593071Y-75893849D02*
X166649791Y-76032233D01*
X132646748Y-115155043D02*
X132675378Y-115647347D01*
X133266154Y-70206204D02*
X133267954Y-70435079D01*
X100006116Y-53078105D02*
X99944006Y-53132695D01*
X170004308Y-31358101D02*
X169721738Y-31676669D01*
X99182361Y-105008674D02*
X99144101Y-105224510D01*
X162463419Y-51683274D02*
X162442479Y-51286764D01*
X144703027Y-72679783D02*
X144821705Y-72436157D01*
X168117772Y-76965321D02*
X168487216Y-77137955D01*
X159083014Y-126578494D02*
X159513560Y-126743691D01*
X136431639Y-77403887D02*
X136587885Y-77405087D01*
X152223513Y-122932130D02*
X152360782Y-123142562D01*
X166463328Y-125914263D02*
X166593071Y-126298936D01*
X163586380Y-53326102D02*
X163471068Y-53018528D01*
X163122289Y-52283766D02*
X163040959Y-52140696D01*
X132736292Y-116229156D02*
X132032764Y-116229156D01*
X165638387Y-96067121D02*
X164969237Y-96067121D01*
X157685386Y-29905139D02*
X157315250Y-29611711D01*
X166283581Y-99067121D02*
X166494545Y-99816194D01*
X155489412Y-28496203D02*
X155489412Y-25000000D01*
X181823796Y-121324999D02*
X181940567Y-121437520D01*
X163642760Y-61298576D02*
X163535248Y-60565567D01*
X99765441Y-45662034D02*
X97095291Y-45662034D01*
X195158132Y-99371171D02*
X195255703Y-99067121D01*
X162986806Y-92575419D02*
X162952276Y-91887247D01*
X99098016Y-55743052D02*
X97095291Y-55743052D01*
X164398782Y-75926800D02*
X164449502Y-75817639D01*
X132814849Y-53202455D02*
X132677073Y-53380691D01*
X105609223Y-80418344D02*
X105305889Y-80653120D01*
X163108853Y-127352630D02*
X163570905Y-127069965D01*
X162583667Y-38581017D02*
X164967237Y-38581017D01*
X197871190Y-122564068D02*
X197826750Y-122316720D01*
X195414632Y-51805887D02*
X195399892Y-51683274D01*
X100212004Y-68824069D02*
X100240671Y-69053644D01*
X100163736Y-103411232D02*
X100115776Y-103426352D01*
X133261754Y-121050791D02*
X133247544Y-121245895D01*
X99943995Y-62193739D02*
X99882465Y-62694951D01*
X195350202Y-100989591D02*
X194674691Y-100960171D01*
X145415524Y-71795876D02*
X145591209Y-71738826D01*
X164967237Y-55743052D02*
X163974237Y-55743052D01*
X165541787Y-59114409D02*
X165645281Y-59432548D01*
X117867483Y-27105900D02*
X117360520Y-27054260D01*
X178090758Y-71933896D02*
X178208387Y-71859346D01*
X144510588Y-73035157D02*
X144703027Y-72679783D01*
X161588197Y-100550241D02*
X161657007Y-100480361D01*
X130571545Y-110282103D02*
X130598175Y-110060941D01*
X165867367Y-123364935D02*
X165940657Y-123801125D01*
X166113617Y-119458731D02*
X166174607Y-120087879D01*
X184806469Y-72013750D02*
X185159986Y-72527043D01*
X181711120Y-27000000D02*
X181203674Y-27015510D01*
X167412669Y-102260644D02*
X167392259Y-102340654D01*
X195565562Y-89213408D02*
X195520140Y-88986104D01*
X97095291Y-109148139D02*
X99560843Y-109148139D01*
X181051229Y-70552122D02*
X181117779Y-70539152D01*
X164967237Y-99067121D02*
X164969237Y-99067121D01*
X196942117Y-115824794D02*
X196961797Y-115410607D01*
X188777106Y-125975350D02*
X190060608Y-126142890D01*
X129801123Y-89864636D02*
X129692616Y-89213408D01*
X185425885Y-77404087D02*
X185425885Y-77406087D01*
X151869996Y-122418837D02*
X152223513Y-122932130D01*
X131953804Y-71911633D02*
X131883834Y-71627468D01*
X99741595Y-114235091D02*
X99711575Y-114699357D01*
X133982043Y-101090098D02*
X134081873Y-101339336D01*
X132998904Y-122294904D02*
X132949504Y-122549157D01*
X165879062Y-103483192D02*
X165816952Y-103537782D01*
X134177603Y-101555349D02*
X134268403Y-101735372D01*
X101478520Y-51575557D02*
X101519420Y-51674757D01*
X161395888Y-77202395D02*
X161579738Y-77261605D01*
X168904923Y-83130570D02*
X168643856Y-83510085D01*
X161914738Y-77324485D02*
X162072840Y-77327885D01*
X140426317Y-28872970D02*
X139881464Y-29165112D01*
X135452372Y-33498905D02*
X135203688Y-33906866D01*
X130172380Y-127352630D02*
X130634432Y-127069965D01*
X115330728Y-77420597D02*
X114823526Y-77452927D01*
X196471121Y-110060941D02*
X196638924Y-109148139D01*
X136785265Y-31676669D02*
X136507663Y-32010980D01*
X101068109Y-52314173D02*
X100893503Y-52457142D01*
X182218665Y-27001300D02*
X181711120Y-27000000D01*
X171688376Y-76716762D02*
X172032723Y-76616792D01*
X166418936Y-103163767D02*
X166247443Y-103290392D01*
X164694732Y-125404825D02*
X164780722Y-124993785D01*
X167351466Y-101980644D02*
X167392366Y-102079844D01*
X131347349Y-126493137D02*
X131414489Y-126408797D01*
X156257039Y-28928774D02*
X155817073Y-28675794D01*
X128245364Y-50382084D02*
X128299184Y-50326334D01*
X157315250Y-29611711D02*
X157032746Y-29411680D01*
X162442479Y-101691851D02*
X162413729Y-100989591D01*
X163508318Y-110711651D02*
X163499218Y-110490570D01*
X102770910Y-33104998D02*
X102515899Y-33498905D01*
X165755411Y-62694951D02*
X165671941Y-63311963D01*
X169686972Y-127794364D02*
X169861340Y-127760724D01*
X166709817Y-50097919D02*
X166918516Y-50685011D01*
X104131362Y-81763188D02*
X103848792Y-82081756D01*
X163686826Y-53647105D02*
X163586380Y-53326102D01*
X164820307Y-71627468D02*
X164719493Y-71281796D01*
X165856891Y-61717085D02*
X165816941Y-62193739D01*
X197034869Y-126678037D02*
X197135535Y-126583397D01*
X197888145Y-73308111D02*
X197904435Y-72926994D01*
X124096273Y-79816767D02*
X123734663Y-79584139D01*
X101860871Y-127176968D02*
X102244826Y-127370408D01*
X112335441Y-71859346D02*
X112479051Y-71795876D01*
X129787223Y-77151555D02*
X129971927Y-77059315D01*
X103031977Y-83130570D02*
X102770910Y-83510085D01*
X167051625Y-76389931D02*
X167367665Y-76574472D01*
X99249811Y-54360176D02*
X99182361Y-54603587D01*
X128208124Y-100862461D02*
X128216324Y-100828821D01*
X101241130Y-51150262D02*
X101331930Y-51330285D01*
X128215045Y-34289093D02*
X128045446Y-33939649D01*
X195324100Y-77277985D02*
X195487736Y-77224405D01*
X194593480Y-100480361D02*
X194663900Y-100392811D01*
X164098396Y-126678037D02*
X164199062Y-126583397D01*
X100945065Y-126640180D02*
X101178679Y-126795018D01*
X177909068Y-72134883D02*
X177993018Y-72024186D01*
X130649907Y-103731189D02*
X130534595Y-103423615D01*
X163940006Y-55066812D02*
X163898996Y-54691390D01*
X195977432Y-52140696D02*
X195907892Y-52040637D01*
X167018346Y-50934249D02*
X167114076Y-51150262D01*
X131976229Y-124129501D02*
X132015199Y-123713198D01*
X132497316Y-109148139D02*
X132509564Y-109194248D01*
X195021910Y-99725820D02*
X195158132Y-99371171D01*
X180682630Y-121232244D02*
X180899729Y-121045949D01*
X183351965Y-122038755D02*
X183751221Y-122146056D01*
X131046774Y-65824069D02*
X131069171Y-65419707D01*
X131998244Y-72158981D02*
X131953804Y-71911633D01*
X99719629Y-95486858D02*
X99765441Y-96067121D01*
X99668841Y-59114409D02*
X99772335Y-59432548D01*
X172032723Y-127021879D02*
X172361321Y-126940099D01*
X101519313Y-51935567D02*
X101478673Y-52007587D01*
X162413729Y-50584504D02*
X161738218Y-50555084D01*
X195399892Y-102088361D02*
X195378952Y-101691851D01*
X196522853Y-53326102D02*
X196407541Y-53018528D01*
X165640900Y-41373307D02*
X165613670Y-41543360D01*
X190621859Y-29905139D02*
X190251723Y-29611711D01*
X162908400Y-127464402D02*
X163108853Y-127352630D01*
X155489412Y-77406087D02*
X155489412Y-77404087D01*
X165879062Y-53078105D02*
X165816952Y-53132695D01*
X132797628Y-110144567D02*
X132865068Y-110482448D01*
X132030764Y-65824069D02*
X131046774Y-65824069D01*
X100002335Y-111671142D02*
X99983945Y-112122172D01*
X102267215Y-33906866D02*
X102025130Y-34328542D01*
X99994421Y-123364935D02*
X100067711Y-123801125D01*
X170266872Y-127636804D02*
X170931621Y-127381977D01*
X161914738Y-127729572D02*
X162072840Y-127732972D01*
X105915895Y-80201341D02*
X105609223Y-80418344D01*
X125716145Y-76037446D02*
X126146541Y-76173407D01*
X197034869Y-76272950D02*
X197135535Y-76178310D01*
X122880600Y-28675794D02*
X122552939Y-28496203D01*
X117479019Y-71633668D02*
X117878275Y-71740969D01*
X144510588Y-25000000D02*
X152489412Y-25000000D01*
X133000179Y-53040395D02*
X132942589Y-53078105D01*
X114650764Y-70956403D02*
X114809684Y-70827157D01*
X108574115Y-77406087D02*
X108574115Y-78771293D01*
X165734101Y-110144567D02*
X165801541Y-110482448D01*
X122552939Y-125918720D02*
X122904160Y-125975350D01*
X135968450Y-83130570D02*
X135707383Y-83510085D01*
X162442479Y-51286764D02*
X162413729Y-50584504D01*
X114025904Y-71308106D02*
X114258301Y-71197130D01*
X149004094Y-121437520D02*
X149146576Y-121543056D01*
X191736893Y-30901728D02*
X191374550Y-30559941D01*
X173912497Y-79008707D02*
X173362790Y-79278057D01*
X161144597Y-50457374D02*
X161152797Y-50423734D01*
X133558072Y-49411107D02*
X133773344Y-50097919D01*
X194230570Y-100685771D02*
X194286580Y-100654921D01*
X130534595Y-103423615D02*
X130404414Y-103129398D01*
X165611851Y-115647347D02*
X165671751Y-116221463D01*
X189607609Y-29179052D02*
X189193512Y-28928774D01*
X128380036Y-85051968D02*
X128215045Y-84694180D01*
X134414993Y-101980644D02*
X134455893Y-102079844D01*
X131844249Y-124993785D02*
X131918079Y-124562521D01*
X100063706Y-53040395D02*
X100006116Y-53078105D01*
X194132976Y-77124855D02*
X194332361Y-77202395D01*
X101241130Y-101555349D02*
X101331930Y-101735372D01*
X115738704Y-121149139D02*
X115858090Y-121238199D01*
X130172380Y-76947543D02*
X130634432Y-76664878D01*
X129936154Y-96067121D02*
X129944043Y-95999448D01*
X140969979Y-126729619D02*
X141306897Y-126687809D01*
X133385082Y-75019917D02*
X133526855Y-75509176D01*
X180131247Y-71197130D02*
X180339725Y-71079811D01*
X164449502Y-75817639D02*
X164500252Y-75687260D01*
X138852368Y-29796254D02*
X138545696Y-30013257D01*
X191589091Y-126442533D02*
X192019487Y-126578494D01*
X132537294Y-104004288D02*
X132403546Y-104249451D01*
X170052845Y-127708464D02*
X170266872Y-127636804D01*
X128268774Y-50505194D02*
X128224364Y-50484144D01*
X133206030Y-89309981D02*
X133059125Y-90016078D01*
X167434790Y-85616776D02*
X167257272Y-85986104D01*
X139096250Y-127021879D02*
X139424848Y-126940099D01*
X195718642Y-102340174D02*
X195644882Y-102348774D01*
X99560843Y-58743052D02*
X99573091Y-58789161D01*
X165446037Y-109194248D02*
X165541787Y-109519496D01*
X102770910Y-83510085D02*
X102515899Y-83903992D01*
X164969237Y-38581017D02*
X166216951Y-38581017D01*
X134320799Y-85986104D02*
X132032764Y-85986104D01*
X97095291Y-99067121D02*
X100410635Y-99067121D01*
X129593946Y-102340064D02*
X129563076Y-102292534D01*
X169212849Y-77386417D02*
X169368112Y-77403887D01*
X194663900Y-49987724D02*
X194735410Y-49883525D01*
X128790954Y-100392811D02*
X128862464Y-100288612D01*
X162986806Y-42170332D02*
X162952276Y-41482160D01*
X199904710Y-35581017D02*
X194644720Y-35581017D01*
X190060608Y-126142890D02*
X190633473Y-126231450D01*
X132880468Y-112598826D02*
X132818938Y-113100038D01*
X161151518Y-34289093D02*
X160981919Y-33939649D01*
X181263299Y-120970739D02*
X181354579Y-121006059D01*
X132708808Y-109837635D02*
X132797628Y-110144567D01*
X164404074Y-70307185D02*
X163912593Y-68824069D01*
X165613670Y-41543360D02*
X165590920Y-41759882D01*
X100719175Y-52610912D02*
X100545990Y-52758680D01*
X132030764Y-106148139D02*
X131037764Y-106148139D01*
X165220337Y-54102562D02*
X165122757Y-54360176D01*
X141510588Y-25000000D02*
X141510588Y-28366206D01*
X130042453Y-94644012D02*
X130063693Y-93956504D01*
X195021910Y-49320733D02*
X195158132Y-48966084D01*
X146746913Y-77568087D02*
X146241322Y-77650937D01*
X97095291Y-38581017D02*
X100344005Y-38581017D01*
X122552939Y-77404087D02*
X122552939Y-75513633D01*
X171178835Y-80653120D02*
X170879110Y-80905331D01*
X115608086Y-121068269D02*
X115738704Y-121149139D01*
X150296993Y-27054260D02*
X149789689Y-27019390D01*
X134498317Y-35211689D02*
X134320799Y-35581017D01*
X195660169Y-127556642D02*
X195844873Y-127464402D01*
X195783632Y-51944187D02*
X195718642Y-51935087D01*
X100311071Y-70840808D02*
X100288961Y-71023119D01*
X100062431Y-71889817D02*
X100013031Y-72144070D01*
X164912702Y-73724414D02*
X164951672Y-73308111D01*
X163508018Y-59877016D02*
X163534648Y-59655854D01*
X101860871Y-76771881D02*
X102244826Y-76965321D01*
X97095291Y-35581017D02*
X97095291Y-25000000D01*
X99671149Y-94083799D02*
X99687839Y-94806861D01*
X128720534Y-100480361D02*
X128790954Y-100392811D01*
X106416503Y-29474666D02*
X105915895Y-29796254D01*
X131918079Y-74157434D02*
X131976229Y-73724414D01*
X103848792Y-82081756D02*
X103571190Y-82416067D01*
X167662862Y-34763596D02*
X167434790Y-35211689D01*
X138545696Y-80418344D02*
X138242362Y-80653120D01*
X182464669Y-121741498D02*
X182713570Y-121838558D01*
X133206030Y-38904894D02*
X133059125Y-39610991D01*
X182464669Y-71336411D02*
X182713570Y-71433471D01*
X152489412Y-27400830D02*
X152321346Y-27361298D01*
X119552939Y-77805917D02*
X119384873Y-77766385D01*
X99772335Y-109837635D02*
X99861155Y-110144567D01*
X100259001Y-121600451D02*
X100221271Y-121765359D01*
X162939056Y-44920807D02*
X162978926Y-44238925D01*
X196919720Y-65824069D02*
X196942117Y-65419707D01*
X149004094Y-71032433D02*
X149146576Y-71137969D01*
X195809100Y-96067121D02*
X195816989Y-95999448D01*
X100062431Y-122294904D02*
X100013031Y-122549157D01*
X193391420Y-32962463D02*
X193212863Y-32667478D01*
X133347108Y-99067121D02*
X133558072Y-99816194D01*
X134431192Y-126979559D02*
X134797344Y-127176968D01*
X100122751Y-71678991D02*
X100062431Y-71889817D01*
X131029703Y-55456014D02*
X131003533Y-55066812D01*
X127031604Y-126944841D02*
X128041636Y-127434202D01*
X164005644Y-65419707D02*
X164025324Y-65005520D01*
X114316715Y-77502087D02*
X113810440Y-77568087D01*
X99944006Y-103537782D02*
X99878376Y-103607542D01*
X172289449Y-79879753D02*
X171788841Y-80201341D01*
X100826185Y-76126793D02*
X100869265Y-76174073D01*
X162478159Y-51805887D02*
X162463419Y-51683274D01*
X180523710Y-121361490D02*
X180682630Y-121232244D01*
X170583266Y-30769551D02*
X170291575Y-31055616D01*
X170291575Y-31055616D02*
X170004308Y-31358101D01*
X165340019Y-104249451D02*
X165220337Y-104507649D01*
X140368182Y-126789809D02*
X140969979Y-126729619D01*
X181203674Y-77420597D02*
X180696472Y-77452927D01*
X100240671Y-69053644D02*
X100301661Y-69682792D01*
X181354579Y-70600972D02*
X181481032Y-70663182D01*
X152321346Y-27361298D02*
X151816279Y-27259430D01*
X197220295Y-76088050D02*
X197287435Y-76003710D01*
X97095291Y-116229156D02*
X97095291Y-109148139D01*
X129891173Y-40124066D02*
X129801123Y-39459549D01*
X101789916Y-34763596D02*
X101561844Y-35211689D01*
X119536734Y-123336078D02*
X119552939Y-123369165D01*
X100344005Y-38581017D02*
X100269557Y-38904894D01*
X194217980Y-100926751D02*
X194141720Y-100910281D01*
X131467601Y-120712272D02*
X130976120Y-119229156D01*
X152360782Y-72737475D02*
X152473207Y-72930991D01*
X131088151Y-64268421D02*
X131061471Y-63874385D01*
X112217812Y-71933896D02*
X112335441Y-71859346D01*
X100945065Y-76235093D02*
X101178679Y-76389931D01*
X163912593Y-68824069D02*
X164967237Y-68824069D01*
X166593071Y-126298936D02*
X166649791Y-126437320D01*
X114809684Y-70827157D02*
X115026783Y-70640862D01*
X172361321Y-126940099D02*
X172679373Y-126875099D01*
X165544095Y-94083799D02*
X165560785Y-94806861D01*
X163000166Y-93956504D02*
X163002766Y-93266072D01*
X99861155Y-59739480D02*
X99928595Y-60077361D01*
X147759999Y-77452927D02*
X147253188Y-77502087D01*
X164969237Y-35581017D02*
X164967237Y-35581017D01*
X126146541Y-76173407D02*
X126577087Y-76338604D01*
X111766554Y-123084870D02*
X111885232Y-122841244D01*
X146706634Y-121817573D02*
X146962377Y-121713193D01*
X134268403Y-101735372D02*
X134414993Y-101980644D01*
X113491645Y-121915103D02*
X113770161Y-121817573D01*
X124187662Y-75737803D02*
X124760527Y-75826363D01*
X159710155Y-82272201D02*
X159446565Y-81970195D01*
X193745132Y-84005744D02*
X193569159Y-83679312D01*
X195845002Y-51977247D02*
X195783632Y-51944187D01*
X164967962Y-72926994D02*
X164968237Y-72641974D01*
X168487216Y-77137955D02*
X168809839Y-77272949D01*
X101178679Y-76389931D02*
X101494719Y-76574472D01*
X166941055Y-102719260D02*
X166766449Y-102862229D01*
X99882465Y-62694951D02*
X99798995Y-63311963D01*
X134081873Y-50934249D02*
X134177603Y-51150262D01*
X134431192Y-76574472D02*
X134797344Y-76771881D01*
X147194774Y-121602217D02*
X147403252Y-121484898D01*
X161393299Y-100939791D02*
X161281507Y-100926751D01*
X196407541Y-53018528D02*
X196277360Y-52724311D01*
X169721738Y-82081756D02*
X169444136Y-82416067D01*
X167898076Y-84733629D02*
X167662862Y-85168683D01*
X165614541Y-63830004D02*
X165584521Y-64294270D01*
X112036122Y-72134883D02*
X112120072Y-72024186D01*
X111574115Y-123440244D02*
X111766554Y-123084870D01*
X128771774Y-85986104D02*
X128692401Y-85784141D01*
X122552939Y-129810174D02*
X122552939Y-125918720D01*
X197888145Y-123713198D02*
X197904435Y-123332081D01*
X133805738Y-126579160D02*
X133881538Y-126640180D01*
X168904923Y-32725483D02*
X168643856Y-33104998D01*
X111574115Y-129810174D02*
X111574115Y-123440244D01*
X191736893Y-81306815D02*
X191374550Y-80965028D01*
X99711575Y-64294270D02*
X99710275Y-64749956D01*
X101045570Y-101090098D02*
X101145400Y-101339336D01*
X166179412Y-74473214D02*
X166321555Y-75019917D01*
X194217980Y-50521664D02*
X194141720Y-50505194D01*
X99717974Y-92164969D02*
X99685594Y-92711978D01*
X127518474Y-32962463D02*
X127339917Y-32667478D01*
X196507378Y-127069965D02*
X196792666Y-126874381D01*
X173362790Y-79278057D02*
X172817937Y-79570199D01*
X100240671Y-119458731D02*
X100301661Y-120087879D01*
X133157744Y-71360272D02*
X133112304Y-71520572D01*
X152360782Y-123142562D02*
X152473207Y-123336078D01*
X101539723Y-102260644D02*
X101519313Y-102340654D01*
X100163736Y-53006145D02*
X100115776Y-53021265D01*
X137355102Y-81460703D02*
X137067835Y-81763188D01*
X148794563Y-70833112D02*
X148887323Y-70919912D01*
X166094217Y-121765359D02*
X166048777Y-121925659D01*
X133482463Y-52758680D02*
X133310970Y-52885305D01*
X179177795Y-77650937D02*
X178110628Y-77839954D01*
X111574115Y-77406087D02*
X111574115Y-77404087D01*
X102244826Y-127370408D02*
X102614270Y-127543042D01*
X145415524Y-122200963D02*
X145591209Y-122143913D01*
X138242362Y-30248033D02*
X137942637Y-30500244D01*
X174447061Y-77404087D02*
X174447061Y-77406087D01*
X119424309Y-123142562D02*
X119536734Y-123336078D01*
X174447061Y-126665068D02*
X174447061Y-129810174D01*
X111574115Y-73035157D02*
X111766554Y-72679783D01*
X133713318Y-76032233D02*
X133762658Y-76126793D01*
X115026783Y-121045949D02*
X115107653Y-120990419D01*
X165592575Y-45081771D02*
X165638387Y-45662034D01*
X194089270Y-50423734D02*
X194118310Y-50382084D01*
X196058762Y-52283766D02*
X195977432Y-52140696D01*
X161350107Y-50249834D02*
X161396637Y-50238504D01*
X123320566Y-79333861D02*
X122880600Y-79080881D01*
X100344005Y-88986104D02*
X100269557Y-89309981D01*
X115244833Y-70539152D02*
X115313473Y-70544352D01*
X99983945Y-112122172D02*
X99943995Y-112598826D01*
X100115776Y-103426352D02*
X100063706Y-103445482D01*
X134159190Y-102603054D02*
X134004582Y-102719260D01*
X196045326Y-76947543D02*
X196507378Y-76664878D01*
X145271914Y-122264433D02*
X145415524Y-122200963D01*
X196792666Y-76469294D02*
X197034869Y-76272950D01*
X149319649Y-71238601D02*
X149528196Y-71336411D01*
X128413634Y-100654921D02*
X128460164Y-100643591D01*
X196522853Y-103731189D02*
X196407541Y-103423615D01*
X196058762Y-102688853D02*
X195977432Y-102545783D01*
X196961097Y-64268421D02*
X196934417Y-63874385D01*
X128692401Y-35379054D02*
X128380036Y-34646881D01*
X157124135Y-75737803D02*
X157697000Y-75826363D01*
X199904710Y-45662034D02*
X195809100Y-45662034D01*
X194674691Y-50555084D02*
X194329772Y-50534704D01*
X171323076Y-76836327D02*
X171688376Y-76716762D01*
X166184017Y-121245895D02*
X166161907Y-121428206D01*
X162530419Y-102340064D02*
X162499549Y-102292534D01*
X124378777Y-29611711D02*
X124096273Y-29411680D01*
X195009313Y-127732972D02*
X195165784Y-127717522D01*
X194688002Y-77302345D02*
X194851211Y-77324485D01*
X135181299Y-127370408D02*
X135550743Y-127543042D01*
X99347391Y-54102562D02*
X99249811Y-54360176D01*
X133267954Y-120840166D02*
X133261754Y-121050791D01*
X163702451Y-58743052D02*
X164967237Y-58743052D01*
X162499549Y-102292534D02*
X162478159Y-102210974D01*
X99979661Y-72409731D02*
X99967401Y-72654780D01*
X165671941Y-63311963D02*
X165614541Y-63830004D01*
X99741595Y-63830004D02*
X99711575Y-64294270D01*
X130185816Y-102688853D02*
X130104486Y-102545783D01*
X163108853Y-76947543D02*
X163570905Y-76664878D01*
X164973737Y-55311353D02*
X164968237Y-55583467D01*
X152489412Y-25000000D02*
X152489412Y-27400830D01*
X194333110Y-50238504D02*
X194393960Y-50227794D01*
X183751221Y-71740969D02*
X184806469Y-72013750D01*
X133805738Y-76174073D02*
X133881538Y-76235093D01*
X155489412Y-77404087D02*
X155489412Y-75513633D01*
X159920613Y-82541361D02*
X159710155Y-82272201D01*
X171482169Y-80418344D02*
X171178835Y-80653120D01*
X161196503Y-77124855D02*
X161395888Y-77202395D01*
X162551263Y-77224405D02*
X162723696Y-77151555D01*
X99710275Y-64749956D02*
X99738905Y-65242260D01*
X100002335Y-61266055D02*
X99983945Y-61717085D01*
X130562745Y-110490570D02*
X130571545Y-110282103D01*
X106806427Y-126875099D02*
X107119137Y-126825469D01*
X163843126Y-104734766D02*
X163772406Y-104386694D01*
X165560785Y-44401774D02*
X165592575Y-45081771D01*
X132030764Y-109148139D02*
X132032764Y-109148139D01*
X195466892Y-51934977D02*
X195436022Y-51887447D01*
X132032764Y-119229156D02*
X133148477Y-119229156D01*
X132032764Y-45662034D02*
X132030764Y-45662034D01*
X196407541Y-103423615D02*
X196277360Y-103129398D01*
X137646793Y-30769551D02*
X137355102Y-31055616D01*
X152489412Y-129810174D02*
X144510588Y-129810174D01*
X190251723Y-29611711D02*
X189969219Y-29411680D01*
X116591723Y-71336411D02*
X116840624Y-71433471D01*
X105006164Y-80905331D02*
X104710320Y-81174638D01*
X166084950Y-68824069D02*
X166113617Y-69053644D01*
X179898850Y-121713193D02*
X180131247Y-121602217D01*
X99943995Y-112598826D02*
X99882465Y-113100038D01*
X195009313Y-77327885D02*
X195165784Y-77312435D01*
X133385082Y-125425004D02*
X133526855Y-125914263D01*
X166048559Y-124321294D02*
X166179412Y-124878301D01*
X162387627Y-127683072D02*
X162551263Y-127629492D01*
X129771936Y-51943687D02*
X129695536Y-51956067D01*
X129801123Y-39459549D02*
X129692616Y-38808321D01*
X162737596Y-39459549D02*
X162629089Y-38808321D01*
X129292838Y-127717522D02*
X129451154Y-127683072D01*
X196792666Y-126874381D02*
X197034869Y-126678037D01*
X129526946Y-51683274D02*
X129506006Y-51286764D01*
X167392366Y-51674757D02*
X167412736Y-51768357D01*
X132031764Y-123047061D02*
X132022464Y-122799286D01*
X126146541Y-126578494D02*
X126577087Y-126743691D01*
X166131947Y-71195364D02*
X166094217Y-71360272D01*
X124760527Y-126231450D02*
X125262081Y-126329090D01*
X157697000Y-126231450D02*
X158198554Y-126329090D01*
X164780722Y-124993785D02*
X164854552Y-124562521D01*
X195816989Y-95999448D02*
X195875529Y-95325894D01*
X99944006Y-53132695D02*
X99878376Y-53202455D01*
X133242939Y-74473214D02*
X133385082Y-75019917D01*
X158063030Y-80629567D02*
X157685386Y-80310226D01*
X189969219Y-29411680D02*
X189607609Y-29179052D01*
X102614270Y-127543042D02*
X102936893Y-127678036D01*
X132818938Y-113100038D02*
X132735468Y-113717050D01*
X197849175Y-73724414D02*
X197888145Y-73308111D01*
X165584521Y-114699357D02*
X165583221Y-115155043D01*
X177832818Y-72270652D02*
X177909068Y-72134883D01*
X193914582Y-127434202D02*
X194132976Y-127529942D01*
X103988394Y-77355637D02*
X104179899Y-77303377D01*
X179643107Y-71412486D02*
X179898850Y-71308106D01*
X101519313Y-102340654D02*
X101478673Y-102412674D01*
X164967237Y-85986104D02*
X161708247Y-85986104D01*
X195764119Y-90529153D02*
X195674069Y-89864636D01*
X158063030Y-30224480D02*
X157685386Y-29905139D01*
X133112086Y-73916207D02*
X133242939Y-74473214D01*
X132031764Y-105988554D02*
X132034489Y-106148139D01*
X132032764Y-68824069D02*
X133148477Y-68824069D01*
X99600821Y-53599201D02*
X99467073Y-53844364D01*
X197717195Y-74588698D02*
X197791025Y-74157434D01*
X165583221Y-115155043D02*
X165611851Y-115647347D01*
X194118310Y-100787171D02*
X194172130Y-100731421D01*
X172032723Y-76616792D02*
X172361321Y-76535012D01*
X159139951Y-81645135D02*
X158800420Y-81306815D01*
X165936652Y-53040395D02*
X165879062Y-53078105D01*
X100719175Y-103015999D02*
X100545990Y-103163767D01*
X140976024Y-79008707D02*
X140426317Y-79278057D01*
X164969237Y-65824069D02*
X164967237Y-65824069D01*
X165220337Y-104507649D02*
X165122757Y-104765263D01*
X179177795Y-27245850D02*
X178110628Y-27434867D01*
X168809839Y-77272949D02*
X168943516Y-77321070D01*
X166184017Y-70840808D02*
X166161907Y-71023119D01*
X126773682Y-31867114D02*
X126510092Y-31565108D01*
X163856193Y-126874381D02*
X164098396Y-126678037D01*
X128651724Y-100550241D02*
X128720534Y-100480361D01*
X161457487Y-50227794D02*
X161521517Y-50196334D01*
X118933523Y-122418837D02*
X119287040Y-122932130D01*
X128224364Y-100889231D02*
X128208124Y-100862461D01*
X195399892Y-51683274D02*
X195378952Y-51286764D01*
X160981919Y-33939649D02*
X160808659Y-33600657D01*
X164967237Y-65824069D02*
X163983247Y-65824069D01*
X128357624Y-50280684D02*
X128413634Y-50249834D01*
X164969237Y-109148139D02*
X165433789Y-109148139D01*
X136431639Y-127808974D02*
X136587885Y-127810174D01*
X100306466Y-124878301D02*
X100448609Y-125425004D01*
X132880479Y-103537782D02*
X132814849Y-103607542D01*
X196961797Y-65005520D02*
X196969197Y-64633611D01*
X132030764Y-85986104D02*
X128771774Y-85986104D01*
X161657007Y-50075274D02*
X161727427Y-49987724D01*
X185409680Y-123336078D02*
X185425885Y-123369165D01*
X99116991Y-105461095D02*
X99100791Y-105716440D01*
X144972595Y-72134883D02*
X145056545Y-72024186D01*
X100301661Y-69682792D02*
X100329681Y-70206204D01*
X136007043Y-77321070D02*
X136116876Y-77353470D01*
X159920613Y-32136274D02*
X159710155Y-31867114D01*
X139352976Y-79879753D02*
X138852368Y-80201341D01*
X130919720Y-76469294D02*
X131161923Y-76272950D01*
X165852607Y-72409731D02*
X165840347Y-72654780D01*
X161350107Y-100654921D02*
X161396637Y-100643591D01*
X131883834Y-71627468D02*
X131783020Y-71281796D01*
X199904710Y-129810174D02*
X188425885Y-129810174D01*
X128643265Y-127666692D02*
X128815056Y-127707432D01*
X97095291Y-85986104D02*
X97095291Y-68824069D01*
X132942589Y-53078105D02*
X132880479Y-53132695D01*
X99928595Y-110482448D02*
X99974635Y-110850215D01*
X160808659Y-33600657D02*
X160632686Y-33274225D01*
X106488375Y-76535012D02*
X106806427Y-76470012D01*
X149282192Y-77406387D02*
X148774647Y-77405087D01*
X127339917Y-83072565D02*
X127161490Y-82796466D01*
X132677073Y-53380691D02*
X132537294Y-53599201D01*
X133656598Y-126298936D02*
X133713318Y-126437320D01*
X165645281Y-59432548D02*
X165734101Y-59739480D01*
X194087991Y-34289093D02*
X193918392Y-33939649D01*
X100013031Y-72144070D02*
X99979661Y-72409731D01*
X166918516Y-50685011D02*
X167018346Y-50934249D01*
X114316715Y-27097000D02*
X113810440Y-27163000D01*
X166494545Y-99816194D02*
X166709817Y-100503006D01*
X133225434Y-71023119D02*
X133195474Y-71195364D01*
X152489412Y-72964078D02*
X152489412Y-77404087D01*
X130598775Y-110970654D02*
X130571845Y-110711651D01*
X179683386Y-77568087D02*
X179177795Y-77650937D01*
X152473207Y-123336078D02*
X152489412Y-123369165D01*
X134414993Y-51575557D02*
X134455893Y-51674757D01*
X194097310Y-50484144D02*
X194081070Y-50457374D01*
X128041636Y-77029115D02*
X128260030Y-77124855D01*
X195487736Y-127629492D02*
X195660169Y-127556642D01*
X193745132Y-33600657D02*
X193569159Y-33274225D01*
X132030764Y-45662034D02*
X129936154Y-45662034D01*
X128978265Y-77324485D02*
X129136367Y-77327885D01*
X167257272Y-35581017D02*
X164969237Y-35581017D01*
X105006164Y-30500244D02*
X104710320Y-30769551D01*
X160276390Y-32667478D02*
X160097963Y-32391379D01*
X97095291Y-48662034D02*
X100410635Y-48662034D01*
X103651412Y-127810174D02*
X103814026Y-127794364D01*
X130634432Y-127069965D02*
X130919720Y-126874381D01*
X163997944Y-114279472D02*
X163949554Y-113821032D01*
X100306466Y-74473214D02*
X100448609Y-75019917D01*
X163535248Y-60565567D02*
X163508318Y-60306564D01*
X169444136Y-82416067D02*
X169171773Y-82765784D01*
X132701914Y-96067121D02*
X132032764Y-96067121D01*
X108574115Y-28366206D02*
X108039551Y-28603620D01*
X134354356Y-102475914D02*
X134159190Y-102603054D01*
X132622067Y-42306891D02*
X132606667Y-42963459D01*
X100410635Y-48662034D02*
X100621599Y-49411107D01*
X99767954Y-41373307D02*
X99740724Y-41543360D01*
X100259001Y-71195364D02*
X100221271Y-71360272D01*
X193034436Y-82796466D02*
X192857086Y-82541361D01*
X125126557Y-30224480D02*
X124748913Y-29905139D01*
X197536545Y-75372082D02*
X197631205Y-74999738D01*
X101178679Y-126795018D02*
X101494719Y-126979559D01*
X134081873Y-101339336D02*
X134177603Y-101555349D01*
X100621599Y-99816194D02*
X100836871Y-100503006D01*
X108039551Y-79008707D02*
X107489844Y-79278057D01*
X199904710Y-65824069D02*
X196919720Y-65824069D01*
X128771774Y-35581017D02*
X128692401Y-35379054D01*
X127031604Y-76539754D02*
X128041636Y-77029115D01*
X159968077Y-126944841D02*
X160978109Y-127434202D01*
X103571190Y-82416067D02*
X103298827Y-82765784D01*
X99740724Y-41543360D02*
X99717974Y-41759882D01*
X164973737Y-105716440D02*
X164968237Y-105988554D01*
X195520140Y-38581017D02*
X199904710Y-38581017D01*
X100893503Y-52457142D02*
X100719175Y-52610912D01*
X100826185Y-126531880D02*
X100869265Y-126579160D01*
X102515899Y-33498905D02*
X102267215Y-33906866D01*
X116840624Y-121838558D02*
X117134763Y-121936948D01*
X132949504Y-72144070D02*
X132916134Y-72409731D01*
X188425885Y-77406087D02*
X188425885Y-77404087D01*
X148249946Y-120949439D02*
X148326826Y-120970739D01*
X179898850Y-71308106D02*
X180131247Y-71197130D01*
X150814748Y-71740969D02*
X151869996Y-72013750D01*
X128801745Y-100960171D02*
X128456826Y-100939791D01*
X172992083Y-126825469D02*
X173304655Y-126789809D01*
X168943516Y-127726157D02*
X169053349Y-127758557D01*
X195816989Y-45594361D02*
X195875529Y-44920807D01*
X194565347Y-85784141D02*
X194252982Y-85051968D01*
X103495166Y-127808974D02*
X103651412Y-127810174D01*
X169368112Y-77403887D02*
X169524358Y-77405087D01*
X197335255Y-75926800D02*
X197385975Y-75817639D01*
X165122757Y-104765263D02*
X165055307Y-105008674D01*
X105305889Y-80653120D02*
X105006164Y-80905331D01*
X162319230Y-48662034D02*
X164967237Y-48662034D01*
X130765978Y-109148139D02*
X132030764Y-109148139D01*
X169721738Y-31676669D02*
X169444136Y-32010980D01*
X182726162Y-27019390D02*
X182218665Y-27001300D01*
X167434790Y-35211689D02*
X167257272Y-35581017D01*
X116383176Y-71238601D02*
X116591723Y-71336411D01*
X129936154Y-45662034D02*
X129944043Y-45594361D01*
X163912593Y-119229156D02*
X164967237Y-119229156D01*
X100122652Y-39610991D02*
X99767954Y-41373307D01*
X115738704Y-70744052D02*
X115858090Y-70833112D01*
X185297255Y-123142562D02*
X185409680Y-123336078D01*
X150415492Y-71633668D02*
X150814748Y-71740969D01*
X99182361Y-54603587D02*
X99144101Y-54819423D01*
X169212849Y-127791504D02*
X169368112Y-127808974D01*
X194457990Y-100601421D02*
X194524670Y-100550241D01*
X125262081Y-126329090D02*
X125716145Y-126442533D01*
X196910710Y-55743052D02*
X196902649Y-55456014D01*
X180131247Y-121602217D02*
X180339725Y-121484898D01*
X162782169Y-51935087D02*
X162708409Y-51943687D01*
X132675378Y-115647347D02*
X132735278Y-116221463D01*
X92095291Y-134810174D02*
X204904710Y-134810174D01*
X195674069Y-39459549D02*
X195565562Y-38808321D01*
X167367665Y-76574472D02*
X167733817Y-76771881D01*
X99687839Y-44401774D02*
X99719629Y-45081771D01*
X195783632Y-102349274D02*
X195718642Y-102340174D01*
X166094217Y-71360272D02*
X166048777Y-71520572D01*
X159139951Y-31240048D02*
X158800420Y-30901728D01*
X194252982Y-34646881D02*
X194087991Y-34289093D01*
X161628874Y-85784141D02*
X161316509Y-85051968D01*
X137067835Y-31358101D02*
X136785265Y-31676669D01*
X103339903Y-127791504D02*
X103495166Y-127808974D01*
X194172130Y-50326334D02*
X194230570Y-50280684D01*
X137116372Y-77303377D02*
X137330399Y-77231717D01*
X166742211Y-126579160D02*
X166818011Y-126640180D01*
X128720534Y-50075274D02*
X128790954Y-49987724D01*
X165801541Y-60077361D02*
X165847581Y-60445128D01*
X147759999Y-27047840D02*
X147253188Y-27097000D01*
X129944043Y-95999448D02*
X130002583Y-95325894D01*
X132935708Y-60841714D02*
X132938808Y-61266055D01*
X166941055Y-52314173D02*
X166766449Y-52457142D01*
X130015803Y-91887247D02*
X129962743Y-91204257D01*
X161727427Y-49987724D02*
X161798937Y-49883525D01*
X137995148Y-76976890D02*
X138386603Y-76836327D01*
X101494719Y-126979559D02*
X101860871Y-127176968D01*
X164500252Y-126092347D02*
X164600072Y-125777169D01*
X162782169Y-102340174D02*
X162708409Y-102348774D01*
X136924867Y-77355637D02*
X137116372Y-77303377D01*
X163702451Y-109148139D02*
X164967237Y-109148139D01*
X197791025Y-74157434D02*
X197849175Y-73724414D01*
X156671136Y-29179052D02*
X156257039Y-28928774D01*
X131347349Y-76088050D02*
X131414489Y-76003710D01*
X131096251Y-115038698D02*
X131088151Y-114673508D01*
X101331930Y-51330285D02*
X101478520Y-51575557D01*
X190060608Y-75737803D02*
X190633473Y-75826363D01*
X194565347Y-35379054D02*
X194252982Y-34646881D01*
X174447061Y-28366206D02*
X173912497Y-28603620D01*
X129136367Y-77327885D02*
X129292838Y-77312435D01*
X119552939Y-129810174D02*
X111574115Y-129810174D01*
X192383038Y-81970195D02*
X192076424Y-81645135D01*
X129692616Y-89213408D02*
X129647194Y-88986104D01*
X135203688Y-33906866D02*
X134961603Y-34328542D01*
X177447061Y-27546123D02*
X177447061Y-25000000D01*
X99711575Y-114699357D02*
X99710275Y-115155043D01*
X129506006Y-51286764D02*
X129477256Y-50584504D01*
X104418629Y-81460703D02*
X104131362Y-81763188D01*
X160097963Y-32391379D02*
X159920613Y-32136274D01*
X164969237Y-58743052D02*
X165433789Y-58743052D01*
X104131362Y-31358101D02*
X103848792Y-31676669D01*
X147253188Y-77502087D02*
X146746913Y-77568087D01*
X163340887Y-52724311D02*
X163122289Y-52283766D01*
X132911108Y-60445128D02*
X132935708Y-60841714D01*
X177909068Y-122539970D02*
X177993018Y-122429273D01*
X162072840Y-127732972D02*
X162229311Y-127717522D01*
X185425885Y-72964078D02*
X185425885Y-77404087D01*
X131161923Y-76272950D02*
X131262589Y-76178310D01*
X99798805Y-116221463D02*
X99799819Y-116229156D01*
X165755411Y-113100038D02*
X165671941Y-113717050D01*
X161205247Y-50505194D02*
X161160837Y-50484144D01*
X164934717Y-72158981D02*
X164890277Y-71911633D01*
X193918392Y-84344736D02*
X193745132Y-84005744D01*
X135203688Y-84311953D02*
X134961603Y-84733629D01*
X172817937Y-29165112D02*
X172289449Y-29474666D01*
X129647194Y-88986104D02*
X132030764Y-88986104D01*
X132704427Y-41373307D02*
X132677197Y-41543360D01*
X132735468Y-63311963D02*
X132678068Y-63830004D01*
X132030764Y-58743052D02*
X132032764Y-58743052D01*
X116067621Y-71032433D02*
X116210103Y-71137969D01*
X161160837Y-50484144D02*
X161144597Y-50457374D01*
X195923279Y-42170332D02*
X195888749Y-41482160D01*
X111574115Y-77404087D02*
X111574115Y-73035157D01*
X185257819Y-77766385D02*
X184752752Y-77664517D01*
X199904710Y-106148139D02*
X196910710Y-106148139D01*
X166204427Y-70435079D02*
X166198227Y-70645704D01*
X105609223Y-30013257D02*
X105305889Y-30248033D01*
X174444637Y-126665189D02*
X174447061Y-126665068D01*
X165544095Y-43678712D02*
X165560785Y-44401774D01*
X165840347Y-123059867D02*
X165847347Y-123193064D01*
X196507378Y-76664878D02*
X196792666Y-76469294D01*
X131883834Y-122032555D02*
X131783020Y-121686883D01*
X165995598Y-90016078D02*
X165640900Y-91778394D01*
X131069171Y-115824794D02*
X131088851Y-115410607D01*
X178527682Y-122143913D02*
X179063877Y-122005533D01*
X111885232Y-122841244D02*
X111959872Y-122675739D01*
X112654736Y-71738826D02*
X113190931Y-71600446D01*
X134476196Y-102260644D02*
X134455786Y-102340654D01*
X151310434Y-27174290D02*
X150803956Y-27105900D01*
X185425885Y-77406087D02*
X185425885Y-77805917D01*
X174447061Y-25000000D02*
X174447061Y-28366206D01*
X141508164Y-126665189D02*
X141510588Y-126665068D01*
X100448609Y-75019917D02*
X100590382Y-75509176D01*
X173304655Y-76384722D02*
X173906452Y-76324532D01*
X163940006Y-105471899D02*
X163898996Y-105096477D01*
X117360520Y-77459347D02*
X116853216Y-77424477D01*
X164967237Y-106148139D02*
X163974237Y-106148139D01*
X150814748Y-122146056D02*
X151869996Y-122418837D01*
X195565562Y-38808321D02*
X195520140Y-38581017D01*
X195915399Y-94644012D02*
X195936639Y-93956504D01*
X99974635Y-60445128D02*
X99999235Y-60841714D01*
X132606667Y-42963459D02*
X132607622Y-43678712D01*
X150415492Y-122038755D02*
X150814748Y-122146056D01*
X161738218Y-50555084D02*
X161393299Y-50534704D01*
X129692616Y-38808321D02*
X129647194Y-38581017D01*
X106159777Y-127021879D02*
X106488375Y-126940099D01*
X181263299Y-70565652D02*
X181354579Y-70600972D01*
X199904710Y-25000000D02*
X199904710Y-35581017D01*
X129971927Y-77059315D02*
X130172380Y-76947543D01*
X162971419Y-102445724D02*
X162908529Y-102382334D01*
X130063693Y-43551417D02*
X130066293Y-42860985D01*
X161235657Y-50326334D02*
X161294097Y-50280684D01*
X101417883Y-52070827D02*
X101222717Y-52197967D01*
X194097310Y-100889231D02*
X194081070Y-100862461D01*
X166142503Y-38904894D02*
X165995598Y-39610991D01*
X141306897Y-126687809D02*
X141508164Y-126665189D01*
X165122757Y-54360176D02*
X165055307Y-54603587D01*
X164970962Y-55743052D02*
X164969237Y-55743052D01*
X114809684Y-121232244D02*
X115026783Y-121045949D01*
X195718642Y-51935087D02*
X195644882Y-51943687D01*
X183740429Y-27105900D02*
X183233466Y-27054260D01*
X195844873Y-77059315D02*
X196045326Y-76947543D01*
X137646793Y-81174638D02*
X137355102Y-81460703D01*
X103298827Y-82765784D02*
X103031977Y-83130570D01*
X132654447Y-92164969D02*
X132622067Y-92711978D01*
X199904710Y-55743052D02*
X196910710Y-55743052D01*
X99974635Y-110850215D02*
X99999235Y-111246801D01*
X159710155Y-31867114D02*
X159446565Y-31565108D01*
X161751529Y-127707432D02*
X161914738Y-127729572D01*
X165847347Y-72787977D02*
X165867367Y-72959848D01*
X117479019Y-122038755D02*
X117878275Y-122146056D01*
X195568482Y-102361154D02*
X195510102Y-102360594D01*
X112654736Y-122143913D02*
X113190931Y-122005533D01*
X99983945Y-61717085D02*
X99943995Y-62193739D01*
X129971927Y-127464402D02*
X130172380Y-127352630D01*
X195835689Y-40799170D02*
X195764119Y-40124066D01*
X188425885Y-75513633D02*
X188777106Y-75570263D01*
X162463419Y-102088361D02*
X162442479Y-101691851D01*
X138751903Y-127121849D02*
X139096250Y-127021879D01*
X199904710Y-38581017D02*
X199904710Y-45662034D01*
X149528196Y-71336411D02*
X149777097Y-71433471D01*
X115313473Y-70544352D02*
X115390353Y-70565652D01*
X128585044Y-50196334D02*
X128651724Y-50145154D01*
X178090758Y-122338983D02*
X178208387Y-122264433D01*
X194172130Y-100731421D02*
X194230570Y-100685771D01*
X163508018Y-110282103D02*
X163534648Y-110060941D01*
X171323076Y-127241414D02*
X171688376Y-127121849D01*
X195939239Y-93266072D02*
X195923279Y-92575419D01*
X162085437Y-99725820D02*
X162221659Y-99371171D01*
X164967237Y-45662034D02*
X162872627Y-45662034D01*
X194132976Y-127529942D02*
X194332361Y-127607482D01*
X167733817Y-76771881D02*
X168117772Y-76965321D01*
X129614790Y-77224405D02*
X129787223Y-77151555D01*
X99967401Y-123059867D02*
X99974401Y-123193064D01*
X196835469Y-54691390D02*
X196779599Y-54329679D01*
X114466779Y-71079811D02*
X114650764Y-70956403D01*
X136276376Y-77386417D02*
X136431639Y-77403887D01*
X133280478Y-88986104D02*
X133206030Y-89309981D01*
X164967237Y-58743052D02*
X164969237Y-58743052D01*
X132624312Y-94806861D02*
X132656102Y-95486858D01*
X188753546Y-28675794D02*
X188425885Y-28496203D01*
X163499218Y-110490570D02*
X163508018Y-110282103D01*
X129637156Y-102360594D02*
X129593946Y-102340064D01*
X100331481Y-120840166D02*
X100325281Y-121050791D01*
X115608086Y-70663182D02*
X115738704Y-70744052D01*
X165473767Y-53599201D02*
X165340019Y-53844364D01*
X194735410Y-49883525D02*
X194879612Y-49629279D01*
X105450130Y-127241414D02*
X105815430Y-127121849D01*
X130042453Y-44238925D02*
X130063693Y-43551417D01*
X157685386Y-80310226D02*
X157315250Y-80016798D01*
X126773682Y-82272201D02*
X126510092Y-81970195D01*
X195674069Y-89864636D02*
X195565562Y-89213408D01*
X185425885Y-129810174D02*
X177447061Y-129810174D01*
X177447061Y-73035157D02*
X177639500Y-72679783D01*
X101561844Y-85616776D02*
X101384326Y-85986104D01*
X194516211Y-77261605D02*
X194688002Y-77302345D01*
X146127404Y-71600446D02*
X146428118Y-71510016D01*
X157315250Y-80016798D02*
X157032746Y-79816767D01*
X197849175Y-124129501D02*
X197888145Y-123713198D01*
X139096250Y-76616792D02*
X139424848Y-76535012D01*
X133247544Y-70840808D02*
X133225434Y-71023119D01*
X99573091Y-58789161D02*
X99668841Y-59114409D01*
X178208387Y-71859346D02*
X178351997Y-71795876D01*
X180899729Y-121045949D02*
X180980599Y-120990419D01*
X128045446Y-84344736D02*
X127872186Y-84005744D01*
X167095663Y-102603054D02*
X166941055Y-102719260D01*
X177447061Y-25000000D02*
X185425885Y-25000000D01*
X160454947Y-32962463D02*
X160276390Y-32667478D01*
X148544559Y-70663182D02*
X148675177Y-70744052D01*
X100869265Y-76174073D02*
X100945065Y-76235093D01*
X133266154Y-120611291D02*
X133267954Y-120840166D01*
X195436022Y-51887447D02*
X195414632Y-51805887D01*
X147587237Y-70956403D02*
X147746157Y-70827157D01*
X183007709Y-121936948D02*
X183351965Y-122038755D01*
X164350962Y-76003710D02*
X164398782Y-75926800D01*
X132678068Y-114235091D02*
X132648048Y-114699357D01*
X150071236Y-121936948D02*
X150415492Y-122038755D01*
X165433789Y-109148139D02*
X165446037Y-109194248D01*
X195936639Y-93956504D02*
X195939239Y-93266072D01*
X129006666Y-100034366D02*
X129148964Y-99725820D01*
X181354579Y-121006059D02*
X181481032Y-121068269D01*
X99861155Y-110144567D02*
X99928595Y-110482448D01*
X164032724Y-64633611D02*
X164024624Y-64268421D01*
X163974237Y-106148139D02*
X163966176Y-105861101D01*
X136587885Y-127810174D02*
X136750499Y-127794364D01*
X148181306Y-70539152D02*
X148249946Y-70544352D01*
X128459415Y-127607482D02*
X128643265Y-127666692D01*
X166198227Y-121050791D02*
X166184017Y-121245895D01*
X196902649Y-55456014D02*
X196876479Y-55066812D01*
X125126557Y-80629567D02*
X124748913Y-80310226D01*
X141306897Y-76282722D02*
X141508164Y-76260102D01*
X161181837Y-50382084D02*
X161235657Y-50326334D01*
X132032764Y-106148139D02*
X132030764Y-106148139D01*
X164969237Y-45662034D02*
X164967237Y-45662034D01*
X130906653Y-54329679D02*
X130835933Y-53981607D01*
X132032764Y-58743052D02*
X132497316Y-58743052D01*
X100545990Y-103163767D02*
X100374497Y-103290392D01*
X129845696Y-51935087D02*
X129771936Y-51943687D01*
X130765978Y-58743052D02*
X132030764Y-58743052D01*
X132656102Y-45081771D02*
X132701914Y-45662034D01*
X99765441Y-96067121D02*
X97095291Y-96067121D01*
X192383038Y-31565108D02*
X192076424Y-31240048D01*
X104710320Y-30769551D02*
X104418629Y-31055616D01*
X167392259Y-102340654D02*
X167351619Y-102412674D01*
X157697000Y-75826363D02*
X158198554Y-75924003D01*
X118373961Y-77579377D02*
X117867483Y-77510987D01*
X167204876Y-51330285D02*
X167351466Y-51575557D01*
X134455893Y-102079844D02*
X134476263Y-102173444D01*
X128521014Y-100632881D02*
X128585044Y-100601421D01*
X194674691Y-100960171D02*
X194329772Y-100939791D01*
X177447061Y-123440244D02*
X177639500Y-123084870D01*
X145154285Y-71933896D02*
X145271914Y-71859346D01*
X132880468Y-62193739D02*
X132818938Y-62694951D01*
X168643856Y-83510085D02*
X168388845Y-83903992D01*
X194087991Y-84694180D02*
X193918392Y-84344736D01*
X195165784Y-127717522D02*
X195324100Y-127683072D01*
X165936652Y-103445482D02*
X165879062Y-103483192D01*
X115390353Y-120970739D02*
X115481633Y-121006059D01*
X134159190Y-52197967D02*
X134004582Y-52314173D01*
X165847581Y-110850215D02*
X165872181Y-111246801D01*
X111766554Y-72679783D02*
X111885232Y-72436157D01*
X162085437Y-49320733D02*
X162221659Y-48966084D01*
X165055307Y-105008674D02*
X165017047Y-105224510D01*
X148044126Y-120990419D02*
X148114756Y-120957209D01*
X162229311Y-77312435D02*
X162387627Y-77277985D01*
X100175613Y-73916207D02*
X100306466Y-74473214D01*
X164967237Y-35581017D02*
X161708247Y-35581017D01*
X162723696Y-127556642D02*
X162908400Y-127464402D01*
X181481032Y-121068269D02*
X181611650Y-121149139D01*
X161657007Y-100480361D02*
X161727427Y-100392811D01*
X164969237Y-55743052D02*
X164967237Y-55743052D01*
X192076424Y-31240048D02*
X191736893Y-30901728D01*
X164967237Y-48662034D02*
X164969237Y-48662034D01*
X195510102Y-51955507D02*
X195466892Y-51934977D01*
X196277360Y-103129398D02*
X196058762Y-102688853D01*
X204904710Y-134810174D02*
X204904710Y-20000000D01*
X99928595Y-60077361D02*
X99974635Y-60445128D01*
X174243370Y-76282722D02*
X174444637Y-76260102D01*
X163898996Y-54691390D02*
X163843126Y-54329679D01*
X164025324Y-115410607D02*
X164032724Y-115038698D01*
X171178835Y-30248033D02*
X170879110Y-30500244D01*
X100212004Y-119229156D02*
X100240671Y-119458731D01*
X99994421Y-72959848D02*
X100067711Y-73396038D01*
X156257039Y-79333861D02*
X155817073Y-79080881D01*
X119384873Y-77766385D02*
X118879806Y-77664517D01*
X158438077Y-30559941D02*
X158063030Y-30224480D01*
X132037264Y-105716440D02*
X132031764Y-105988554D01*
X128345034Y-100926751D02*
X128268774Y-100910281D01*
X152489412Y-77805917D02*
X152321346Y-77766385D01*
X164969237Y-106148139D02*
X164967237Y-106148139D01*
X134320799Y-35581017D02*
X132032764Y-35581017D01*
X161160837Y-100889231D02*
X161144597Y-100862461D01*
X126577087Y-76338604D02*
X127031604Y-76539754D01*
X163642760Y-111703663D02*
X163535248Y-110970654D01*
X149528196Y-121741498D02*
X149777097Y-121838558D01*
X100311071Y-121245895D02*
X100288961Y-121428206D01*
X156671136Y-79584139D02*
X156257039Y-79333861D01*
X111959872Y-122675739D02*
X112036122Y-122539970D01*
X165734101Y-59739480D02*
X165801541Y-60077361D01*
X193034436Y-32391379D02*
X192857086Y-32136274D01*
X128268774Y-100910281D02*
X128224364Y-100889231D01*
X125716145Y-126442533D02*
X126146541Y-126578494D01*
X134115152Y-76389931D02*
X134431192Y-76574472D01*
X197335255Y-126331887D02*
X197385975Y-126222726D01*
X140426317Y-79278057D02*
X139881464Y-79570199D01*
X101539790Y-51768357D02*
X101539723Y-51855557D01*
X132032764Y-35581017D02*
X132030764Y-35581017D01*
X144821705Y-122841244D02*
X144896345Y-122675739D01*
X162632009Y-51956067D02*
X162573629Y-51955507D01*
X166048777Y-71520572D02*
X165995697Y-71678991D01*
X131096251Y-64633611D02*
X131088151Y-64268421D01*
X149146576Y-121543056D02*
X149319649Y-121643688D01*
X199904710Y-68824069D02*
X199904710Y-85986104D01*
X177639500Y-123084870D02*
X177758178Y-122841244D01*
X133310970Y-103290392D02*
X133160969Y-103382412D01*
X133762658Y-76126793D02*
X133805738Y-76174073D01*
X133100209Y-53006145D02*
X133052249Y-53021265D01*
X147194774Y-71197130D02*
X147403252Y-71079811D01*
X197385975Y-75817639D02*
X197436725Y-75687260D01*
X114466779Y-121484898D02*
X114650764Y-121361490D01*
X194644720Y-35581017D02*
X194565347Y-35379054D01*
X138242362Y-80653120D02*
X137942637Y-80905331D01*
X164890277Y-122316720D02*
X164820307Y-122032555D01*
X108574115Y-76259981D02*
X108574115Y-77404087D01*
X141510588Y-126665068D02*
X141510588Y-129810174D01*
X119552939Y-123369165D02*
X119552939Y-129810174D01*
X131844249Y-74588698D02*
X131918079Y-74157434D01*
X107489844Y-28872970D02*
X106944991Y-29165112D01*
X162530419Y-51934977D02*
X162499549Y-51887447D01*
X102936893Y-77272949D02*
X103070570Y-77321070D01*
X129563076Y-102292534D02*
X129541686Y-102210974D01*
X165558540Y-42306891D02*
X165543140Y-42963459D01*
X141510588Y-129810174D02*
X122552939Y-129810174D01*
X183751221Y-122146056D02*
X184806469Y-122418837D01*
X166494545Y-49411107D02*
X166709817Y-50097919D01*
X145174155Y-27434867D02*
X144510588Y-27546123D01*
X179063877Y-71600446D02*
X179364591Y-71510016D01*
X129285186Y-48966084D02*
X129382757Y-48662034D01*
X130571545Y-59877016D02*
X130598175Y-59655854D01*
X116345719Y-77406387D02*
X115838174Y-77405087D01*
X128801745Y-50555084D02*
X128456826Y-50534704D01*
X192019487Y-126578494D02*
X192450033Y-126743691D01*
X165940657Y-73396038D02*
X166048559Y-73916207D01*
X162573629Y-51955507D02*
X162530419Y-51934977D01*
X166048559Y-73916207D02*
X166179412Y-74473214D01*
X132916134Y-72409731D02*
X132903874Y-72654780D01*
X159513560Y-76338604D02*
X159968077Y-76539754D01*
X162899216Y-91204257D02*
X162827646Y-90529153D01*
X100545990Y-52758680D02*
X100374497Y-52885305D01*
X132032764Y-109148139D02*
X132497316Y-109148139D01*
X131513029Y-126222726D02*
X131563779Y-126092347D01*
X167018346Y-101339336D02*
X167114076Y-101555349D01*
X128460164Y-50238504D02*
X128521014Y-50227794D01*
X165671751Y-65816376D02*
X165672765Y-65824069D01*
X162072840Y-77327885D02*
X162229311Y-77312435D01*
X100325281Y-121050791D02*
X100311071Y-121245895D01*
X165852607Y-122814818D02*
X165840347Y-123059867D01*
X134797344Y-76771881D02*
X135181299Y-76965321D01*
X162939056Y-95325894D02*
X162978926Y-94644012D01*
X194879612Y-49629279D02*
X195021910Y-49320733D01*
X102025130Y-34328542D02*
X101789916Y-34763596D01*
X194141720Y-100910281D02*
X194097310Y-100889231D01*
X132031489Y-123332081D02*
X132031764Y-123047061D01*
X181731036Y-70833112D02*
X181823796Y-70919912D01*
X112036122Y-122539970D02*
X112120072Y-122429273D01*
X130050333Y-42170332D02*
X130015803Y-41482160D01*
X132030764Y-116229156D02*
X131046774Y-116229156D01*
X165584521Y-64294270D02*
X165583221Y-64749956D01*
X185425885Y-25000000D02*
X185425885Y-27400830D01*
X164005644Y-115824794D02*
X164025324Y-115410607D01*
X129891173Y-90529153D02*
X129801123Y-89864636D01*
X99116991Y-55056008D02*
X99100791Y-55311353D01*
X139881464Y-79570199D02*
X139352976Y-79879753D01*
X194688002Y-127707432D02*
X194851211Y-127729572D01*
X194393960Y-50227794D02*
X194457990Y-50196334D01*
X100590382Y-75509176D02*
X100720125Y-75893849D01*
X148544559Y-121068269D02*
X148675177Y-121149139D01*
X177639500Y-72679783D02*
X177758178Y-72436157D01*
X177993018Y-122429273D02*
X178090758Y-122338983D01*
X130404414Y-103129398D02*
X130185816Y-102688853D01*
X117134763Y-71531861D02*
X117479019Y-71633668D01*
X128380036Y-34646881D02*
X128215045Y-34289093D01*
X155489412Y-25000000D02*
X174447061Y-25000000D01*
X164600072Y-125777169D02*
X164694732Y-125404825D01*
X165671941Y-113717050D02*
X165614541Y-114235091D01*
X197904710Y-72641974D02*
X197895410Y-72394199D01*
X196919720Y-116229156D02*
X196942117Y-115824794D01*
X163471068Y-53018528D02*
X163340887Y-52724311D01*
X129541686Y-51805887D02*
X129526946Y-51683274D01*
X138386603Y-127241414D02*
X138751903Y-127121849D01*
X138751903Y-76716762D02*
X139096250Y-76616792D01*
X115481633Y-70600972D02*
X115608086Y-70663182D01*
X164199062Y-126583397D02*
X164283822Y-126493137D01*
X171482169Y-30013257D02*
X171178835Y-30248033D01*
X145591209Y-71738826D02*
X146127404Y-71600446D01*
X160632686Y-33274225D02*
X160454947Y-32962463D01*
X165613670Y-91948447D02*
X165590920Y-92164969D01*
X164032724Y-115038698D02*
X164024624Y-114673508D01*
X184752752Y-77664517D02*
X184246907Y-77579377D01*
X115313473Y-120949439D02*
X115390353Y-120970739D01*
X130185816Y-52283766D02*
X130104486Y-52140696D01*
X128456826Y-100939791D02*
X128345034Y-100926751D01*
X125863947Y-81306815D02*
X125501604Y-80965028D01*
X132022464Y-72394199D02*
X131998244Y-72158981D01*
X197871190Y-72158981D02*
X197826750Y-71911633D01*
X131563779Y-75687260D02*
X131663599Y-75372082D01*
X164780722Y-74588698D02*
X164854552Y-74157434D01*
X132648048Y-64294270D02*
X132646748Y-64749956D01*
X129695536Y-102361154D02*
X129637156Y-102360594D01*
X97095291Y-68824069D02*
X100212004Y-68824069D01*
X119287040Y-72527043D02*
X119424309Y-72737475D01*
X161181837Y-100787171D02*
X161235657Y-100731421D01*
X149282192Y-27001300D02*
X148774647Y-27000000D01*
X195378952Y-101691851D02*
X195350202Y-100989591D01*
X108574115Y-129810174D02*
X97095291Y-129810174D01*
X166142503Y-89309981D02*
X165995598Y-90016078D01*
X130034946Y-102445724D02*
X129972056Y-102382334D01*
X184246907Y-27174290D02*
X183740429Y-27105900D01*
X92095291Y-20000000D02*
X92095291Y-134810174D01*
X131003533Y-105471899D02*
X130962523Y-105096477D01*
X166818011Y-76235093D02*
X167051625Y-76389931D01*
X136924867Y-127760724D02*
X137116372Y-127708464D01*
X195915399Y-44238925D02*
X195936639Y-43551417D01*
X127339917Y-32667478D02*
X127161490Y-32391379D01*
X162880516Y-45594361D02*
X162939056Y-44920807D01*
X195844873Y-127464402D02*
X196045326Y-127352630D01*
X100221271Y-71360272D02*
X100175831Y-71520572D01*
X166766449Y-102862229D02*
X166592121Y-103015999D01*
X169053349Y-127758557D02*
X169212849Y-127791504D01*
X117867483Y-77510987D02*
X117360520Y-77459347D01*
X128216324Y-100828821D02*
X128245364Y-100787171D01*
X97095291Y-45662034D02*
X97095291Y-38581017D01*
X195907892Y-52040637D02*
X195845002Y-51977247D01*
X135873366Y-77272949D02*
X136007043Y-77321070D01*
X134455786Y-102340654D02*
X134415146Y-102412674D01*
X184246907Y-77579377D02*
X183740429Y-77510987D01*
X179364591Y-121915103D02*
X179643107Y-121817573D01*
X195158132Y-48966084D02*
X195255703Y-48662034D01*
X196435691Y-110490570D02*
X196444491Y-110282103D01*
X165856891Y-112122172D02*
X165816941Y-112598826D01*
X132030764Y-35581017D02*
X128771774Y-35581017D01*
X144896345Y-72270652D02*
X144972595Y-72134883D01*
X133558072Y-99816194D02*
X133773344Y-100503006D01*
X139352976Y-29474666D02*
X138852368Y-29796254D01*
X146962377Y-121713193D02*
X147194774Y-121602217D01*
X132053464Y-105461095D02*
X132037264Y-105716440D01*
X128357624Y-100685771D02*
X128413634Y-100654921D01*
X169368112Y-127808974D02*
X169524358Y-127810174D01*
X99095291Y-55583467D02*
X99098016Y-55743052D01*
X165541787Y-109519496D02*
X165645281Y-109837635D01*
X164967237Y-96067121D02*
X162872627Y-96067121D01*
X132949504Y-122549157D02*
X132916134Y-122814818D01*
X166179412Y-124878301D02*
X166321555Y-125425004D01*
X99600821Y-104004288D02*
X99467073Y-104249451D01*
X170266872Y-77231717D02*
X170931621Y-76976890D01*
X159513560Y-126743691D02*
X159968077Y-126944841D01*
X164449502Y-126222726D02*
X164500252Y-126092347D01*
X126984140Y-32136274D02*
X126773682Y-31867114D01*
X195255703Y-48662034D02*
X199904710Y-48662034D01*
X135452372Y-83903992D02*
X135203688Y-84311953D01*
X99467073Y-53844364D02*
X99347391Y-54102562D01*
X141510588Y-78771293D02*
X140976024Y-79008707D01*
X162629089Y-38808321D02*
X162583667Y-38581017D01*
X146241322Y-27245850D02*
X145174155Y-27434867D01*
X190621859Y-80310226D02*
X190251723Y-80016798D01*
X159446565Y-31565108D02*
X159139951Y-31240048D01*
X132797628Y-59739480D02*
X132865068Y-60077361D01*
X118373961Y-27174290D02*
X117867483Y-27105900D01*
X133829976Y-102862229D02*
X133655648Y-103015999D01*
X137330399Y-77231717D02*
X137995148Y-76976890D01*
X149777097Y-121838558D02*
X150071236Y-121936948D01*
X192646628Y-82272201D02*
X192383038Y-81970195D01*
X119287040Y-122932130D02*
X119424309Y-123142562D01*
X181611650Y-70744052D02*
X181731036Y-70833112D01*
X152489412Y-123369165D02*
X152489412Y-129810174D01*
X146428118Y-121915103D02*
X146706634Y-121817573D01*
X193569159Y-83679312D02*
X193391420Y-83367550D01*
X101539790Y-102173444D02*
X101539723Y-102260644D01*
X194141720Y-50505194D02*
X194097310Y-50484144D01*
X165801541Y-110482448D02*
X165847581Y-110850215D01*
X177758178Y-72436157D02*
X177832818Y-72270652D01*
X130634432Y-76664878D02*
X130919720Y-76469294D01*
X130976120Y-68824069D02*
X132030764Y-68824069D01*
X167095663Y-52197967D02*
X166941055Y-52314173D01*
X161708247Y-35581017D02*
X161628874Y-35379054D01*
X131467601Y-70307185D02*
X130976120Y-68824069D01*
X132030764Y-55743052D02*
X131037764Y-55743052D01*
X165840347Y-72654780D02*
X165847347Y-72787977D01*
X196835469Y-105096477D02*
X196779599Y-104734766D01*
X138545696Y-30013257D02*
X138242362Y-30248033D01*
X134961603Y-34328542D02*
X134726389Y-34763596D01*
X132814849Y-103607542D02*
X132677073Y-103785778D01*
X165590920Y-92164969D02*
X165558540Y-92711978D01*
X129382757Y-48662034D02*
X132030764Y-48662034D01*
X130066293Y-42860985D02*
X130050333Y-42170332D01*
X164912702Y-124129501D02*
X164951672Y-123713198D01*
X100067711Y-73396038D02*
X100175613Y-73916207D01*
X157032746Y-79816767D02*
X156671136Y-79584139D01*
X165940657Y-123801125D02*
X166048559Y-124321294D01*
X197904435Y-123332081D02*
X197904710Y-123047061D01*
X182218665Y-77406387D02*
X181711120Y-77405087D01*
X180189661Y-27097000D02*
X179683386Y-27163000D01*
X197895410Y-122799286D02*
X197871190Y-122564068D01*
X116210103Y-71137969D02*
X116383176Y-71238601D01*
X181186419Y-70544352D02*
X181263299Y-70565652D01*
X162629089Y-89213408D02*
X162583667Y-88986104D01*
X132403546Y-53844364D02*
X132283864Y-54102562D01*
X129451154Y-127683072D02*
X129614790Y-127629492D01*
X165017047Y-105224510D02*
X164989937Y-105461095D01*
X204904710Y-20000000D02*
X92095291Y-20000000D01*
X126510092Y-31565108D02*
X126203478Y-31240048D01*
X99144101Y-105224510D02*
X99116991Y-105461095D01*
X132708808Y-59432548D02*
X132797628Y-59739480D01*
X115244833Y-120944239D02*
X115313473Y-120949439D01*
X117134763Y-121936948D02*
X117479019Y-122038755D01*
X158652618Y-76037446D02*
X159083014Y-76173407D01*
X196471721Y-60565567D02*
X196444791Y-60306564D01*
X122880600Y-79080881D02*
X122552939Y-78901290D01*
X166036682Y-53006145D02*
X165988722Y-53021265D01*
X132509564Y-58789161D02*
X132605314Y-59114409D01*
X113190931Y-71600446D02*
X113491645Y-71510016D01*
X108033506Y-126729619D02*
X108370424Y-126687809D01*
X172992083Y-76420382D02*
X173304655Y-76384722D01*
X164967962Y-123332081D02*
X164968237Y-123047061D01*
X167367665Y-126979559D02*
X167733817Y-127176968D01*
X172817937Y-79570199D02*
X172289449Y-79879753D01*
X162632009Y-102361154D02*
X162573629Y-102360594D01*
X122552939Y-28496203D02*
X122552939Y-25000000D01*
X130939841Y-62857538D02*
X130706287Y-61298576D01*
X162847159Y-102349274D02*
X162782169Y-102340174D01*
X133482463Y-103163767D02*
X133310970Y-103290392D01*
X173362790Y-28872970D02*
X172817937Y-29165112D01*
X126577087Y-126743691D02*
X127031604Y-126944841D01*
X188425885Y-125918720D02*
X188777106Y-125975350D01*
X196942117Y-65419707D02*
X196961797Y-65005520D01*
X144510588Y-123440244D02*
X144703027Y-123084870D01*
X166418936Y-52758680D02*
X166247443Y-52885305D01*
X180523710Y-70956403D02*
X180682630Y-70827157D01*
X99467073Y-104249451D02*
X99347391Y-104507649D01*
X179683386Y-27163000D02*
X179177795Y-27245850D01*
X196849066Y-119229156D02*
X199904710Y-119229156D01*
X196045326Y-127352630D02*
X196507378Y-127069965D01*
X197756780Y-122032555D02*
X197655966Y-121686883D01*
X185159986Y-72527043D02*
X185297255Y-72737475D01*
X148675177Y-70744052D02*
X148794563Y-70833112D01*
X144510588Y-77404087D02*
X144510588Y-73035157D01*
X124760527Y-75826363D02*
X125262081Y-75924003D01*
X162899216Y-40799170D02*
X162827646Y-40124066D01*
X182256122Y-71238601D02*
X182464669Y-71336411D01*
X146241322Y-77650937D02*
X145174155Y-77839954D01*
X181117779Y-70539152D02*
X181186419Y-70544352D01*
X195809100Y-45662034D02*
X195816989Y-45594361D01*
X116853216Y-27019390D02*
X116345719Y-27001300D01*
X139424848Y-126940099D02*
X139742900Y-126875099D01*
X114258301Y-121602217D02*
X114466779Y-121484898D01*
X166161907Y-121428206D02*
X166131947Y-121600451D01*
X111959872Y-72270652D02*
X112036122Y-72134883D01*
X192076424Y-81645135D02*
X191736893Y-81306815D01*
X130534595Y-53018528D02*
X130404414Y-52724311D01*
X122904160Y-125975350D02*
X124187662Y-126142890D01*
X132942589Y-103483192D02*
X132880479Y-103537782D01*
X107431709Y-76384722D02*
X108033506Y-76324532D01*
X167114076Y-101555349D02*
X167204876Y-101735372D01*
X197631205Y-74999738D02*
X197717195Y-74588698D01*
X194230570Y-50280684D02*
X194286580Y-50249834D01*
X129845696Y-102340174D02*
X129771936Y-102348774D01*
X197717195Y-124993785D02*
X197791025Y-124562521D01*
X144510588Y-77406087D02*
X144510588Y-77404087D01*
X188425885Y-28496203D02*
X188425885Y-25000000D01*
X100720125Y-126298936D02*
X100776845Y-126437320D01*
X163534648Y-59655854D02*
X163702451Y-58743052D01*
X197826750Y-71911633D02*
X197756780Y-71627468D01*
X133157744Y-121765359D02*
X133112304Y-121925659D01*
X163570905Y-76664878D02*
X163856193Y-76469294D01*
X192904550Y-76539754D02*
X193914582Y-77029115D01*
X188425885Y-77404087D02*
X188425885Y-75513633D01*
X165671751Y-116221463D02*
X165672765Y-116229156D01*
X180696472Y-77452927D02*
X180189661Y-77502087D01*
X182713570Y-71433471D02*
X183007709Y-71531861D01*
X112479051Y-122200963D02*
X112654736Y-122143913D01*
X130750353Y-53647105D02*
X130649907Y-53326102D01*
X99878376Y-103607542D02*
X99740600Y-103785778D01*
X164024624Y-114673508D02*
X163997944Y-114279472D01*
X174447061Y-78771293D02*
X173912497Y-79008707D01*
X166216951Y-88986104D02*
X166142503Y-89309981D01*
X199904710Y-119229156D02*
X199904710Y-129810174D01*
X117878275Y-71740969D02*
X118933523Y-72013750D01*
X133247544Y-121245895D02*
X133225434Y-121428206D01*
X101561844Y-35211689D02*
X101384326Y-35581017D01*
X99740600Y-103785778D02*
X99600821Y-104004288D01*
X136507663Y-82416067D02*
X136235300Y-82765784D01*
X194851211Y-77324485D02*
X195009313Y-77327885D01*
X150803956Y-77510987D02*
X150296993Y-77459347D01*
X195378952Y-51286764D02*
X195350202Y-50584504D01*
X114823526Y-77452927D02*
X114316715Y-77502087D01*
X140055610Y-126825469D02*
X140368182Y-126789809D01*
X164025324Y-65005520D02*
X164032724Y-64633611D01*
X149319649Y-121643688D02*
X149528196Y-121741498D01*
X164969237Y-85986104D02*
X164967237Y-85986104D01*
X131013081Y-63415945D02*
X130939841Y-62857538D01*
X194333110Y-100643591D02*
X194393960Y-100632881D01*
X164854552Y-74157434D02*
X164912702Y-73724414D01*
X148114756Y-70552122D02*
X148181306Y-70539152D01*
X134726389Y-34763596D02*
X134498317Y-35211689D01*
X133347108Y-48662034D02*
X133558072Y-49411107D01*
X188425885Y-25000000D02*
X199904710Y-25000000D01*
X129541686Y-102210974D02*
X129526946Y-102088361D01*
X144821705Y-72436157D02*
X144896345Y-72270652D01*
X129136367Y-127732972D02*
X129292838Y-127717522D01*
X167290829Y-102475914D02*
X167095663Y-102603054D01*
X165055307Y-54603587D02*
X165017047Y-54819423D01*
X100836871Y-50097919D02*
X101045570Y-50685011D01*
X105058675Y-76976890D02*
X105450130Y-76836327D01*
X148794563Y-121238199D02*
X148887323Y-121324999D01*
X133160969Y-52977325D02*
X133100209Y-53006145D01*
X118933523Y-72013750D02*
X119287040Y-72527043D01*
X196910710Y-106148139D02*
X196902649Y-105861101D01*
X132678068Y-63830004D02*
X132648048Y-64294270D01*
X129647194Y-38581017D02*
X132030764Y-38581017D01*
X122552939Y-77406087D02*
X122552939Y-77404087D01*
X166247443Y-103290392D02*
X166097442Y-103382412D01*
X130750353Y-104052192D02*
X130649907Y-103731189D01*
X163983247Y-65824069D02*
X164005644Y-65419707D01*
X165816941Y-62193739D02*
X165755411Y-62694951D01*
X132030764Y-88986104D02*
X132032764Y-88986104D01*
X145271914Y-71859346D02*
X145415524Y-71795876D01*
X128260030Y-77124855D02*
X128459415Y-77202395D01*
X132032764Y-55743052D02*
X132030764Y-55743052D01*
X162908400Y-77059315D02*
X163108853Y-76947543D01*
X132916134Y-122814818D02*
X132903874Y-123059867D01*
X103571190Y-32010980D02*
X103298827Y-32360697D01*
X115838174Y-27000000D02*
X115330728Y-27015510D01*
X131918079Y-124562521D02*
X131976229Y-124129501D01*
X131088151Y-114673508D02*
X131061471Y-114279472D01*
X116840624Y-71433471D02*
X117134763Y-71531861D01*
X130706287Y-61298576D02*
X130598775Y-60565567D01*
X130015803Y-41482160D02*
X129962743Y-40799170D01*
X195414632Y-102210974D02*
X195399892Y-102088361D01*
X134961603Y-84733629D02*
X134726389Y-85168683D01*
X195939239Y-42860985D02*
X195923279Y-42170332D01*
X132880479Y-53132695D02*
X132814849Y-53202455D01*
X196277360Y-52724311D02*
X196058762Y-52283766D01*
X103495166Y-77403887D02*
X103651412Y-77405087D01*
X130104486Y-102545783D02*
X130034946Y-102445724D01*
X130002583Y-95325894D02*
X130042453Y-94644012D01*
X131462309Y-75926800D02*
X131513029Y-75817639D01*
X108039551Y-28603620D02*
X107489844Y-28872970D01*
X199904710Y-109148139D02*
X199904710Y-116229156D01*
X166818011Y-126640180D02*
X167051625Y-126795018D01*
X166592121Y-103015999D02*
X166418936Y-103163767D01*
X133225434Y-121428206D02*
X133195474Y-121600451D01*
X129477256Y-50584504D02*
X128801745Y-50555084D01*
X165988722Y-103426352D02*
X165936652Y-103445482D01*
X148887323Y-70919912D02*
X149004094Y-71032433D01*
X161588197Y-50145154D02*
X161657007Y-50075274D01*
X192019487Y-76173407D02*
X192450033Y-76338604D01*
X167662862Y-85168683D02*
X167434790Y-85616776D01*
X130706287Y-111703663D02*
X130598775Y-110970654D01*
X132030764Y-48662034D02*
X132032764Y-48662034D01*
X165847581Y-60445128D02*
X165872181Y-60841714D01*
X161144597Y-100862461D02*
X161152797Y-100828821D01*
X169524358Y-127810174D02*
X169686972Y-127794364D01*
X192646628Y-31867114D02*
X192383038Y-31565108D01*
X161521517Y-50196334D02*
X161588197Y-50145154D01*
X132186284Y-104765263D02*
X132118834Y-105008674D01*
X101478673Y-102412674D02*
X101417883Y-102475914D01*
M02*
