M48
; DRILL file {KiCad 8.0.4} date 2024-07-22T02:56:36-0500
; FORMAT={-:-/ absolute / metric / decimal}
; #@! TF.CreationDate,2024-07-22T02:56:36-05:00
; #@! TF.GenerationSoftware,Kicad,Pcbnew,8.0.4
; #@! TF.FileFunction,Plated,1,2,PTH
FMAT,2
METRIC
; #@! TA.AperFunction,Plated,PTH,ComponentDrill
T1C1.016
%
G90
G05
T1
X102.968Y-71.069
X102.968Y-73.609
X102.968Y-121.474
X102.968Y-124.014
X105.508Y-71.069
X105.508Y-73.609
X105.508Y-121.474
X105.508Y-124.014
X108.048Y-71.069
X108.048Y-73.609
X108.048Y-121.474
X108.048Y-124.014
X135.905Y-71.069
X135.905Y-73.609
X135.905Y-121.474
X135.905Y-124.014
X138.445Y-71.069
X138.445Y-73.609
X138.445Y-121.474
X138.445Y-124.014
X140.985Y-71.069
X140.985Y-73.609
X140.985Y-121.474
X140.985Y-124.014
X168.841Y-71.069
X168.841Y-73.609
X168.841Y-121.474
X168.841Y-124.014
X171.381Y-71.069
X171.381Y-73.609
X171.381Y-121.474
X171.381Y-124.014
X173.921Y-71.069
X173.921Y-73.609
X173.921Y-121.474
X173.921Y-124.014
M30
