M48
; DRILL file {KiCad 8.0.4} date 2024-07-22T02:56:36-0500
; FORMAT={-:-/ absolute / metric / decimal}
; #@! TF.CreationDate,2024-07-22T02:56:36-05:00
; #@! TF.GenerationSoftware,Kicad,Pcbnew,8.0.4
; #@! TF.FileFunction,NonPlated,1,2,NPTH
FMAT,2
METRIC
; #@! TA.AperFunction,NonPlated,NPTH,ComponentDrill
T1C0.500
; #@! TA.AperFunction,NonPlated,NPTH,ComponentDrill
T2C2.000
%
G90
G05
T1
X92.095Y-27.0
X92.095Y-127.81
X92.929Y-27.0
X92.929Y-127.81
X93.762Y-27.0
X93.762Y-127.81
X94.595Y-27.0
X94.595Y-127.81
X95.429Y-27.0
X95.429Y-127.81
X96.262Y-27.0
X96.262Y-127.81
X97.095Y-27.0
X97.095Y-127.81
X99.095Y-20.0
X99.095Y-20.833
X99.095Y-21.667
X99.095Y-22.5
X99.095Y-23.333
X99.095Y-24.167
X99.095Y-25.0
X99.095Y-129.81
X99.095Y-130.644
X99.095Y-131.477
X99.095Y-132.31
X99.095Y-133.144
X99.095Y-133.977
X99.095Y-134.81
X99.098Y-55.743
X99.098Y-106.148
X99.17Y-56.754
X99.17Y-107.159
X99.328Y-57.756
X99.328Y-108.161
X99.561Y-58.743
X99.561Y-109.148
X99.765Y-45.662
X99.765Y-96.067
X99.8Y-65.824
X99.8Y-116.229
X99.936Y-66.824
X99.936Y-117.229
X99.94Y-46.67
X99.94Y-97.075
X100.079Y-67.823
X100.079Y-118.229
X100.161Y-47.669
X100.161Y-98.074
X100.212Y-68.824
X100.212Y-119.229
X100.344Y-38.581
X100.344Y-88.986
X100.411Y-48.662
X100.411Y-99.067
X100.611Y-37.554
X100.611Y-87.959
X100.958Y-36.552
X100.958Y-86.957
X101.384Y-35.581
X101.384Y-85.986
X108.574Y-28.366
X108.574Y-76.26
X108.574Y-78.771
X108.574Y-126.665
X109.425Y-75.985
X109.425Y-126.39
X109.548Y-28.005
X109.548Y-78.41
X110.075Y-75.339
X110.075Y-125.745
X110.555Y-27.751
X110.555Y-78.156
X110.624Y-74.604
X110.624Y-125.01
X111.115Y-73.83
X111.115Y-124.235
X111.574Y-27.546
X111.574Y-73.035
X111.574Y-77.951
X111.574Y-123.44
X119.553Y-27.401
X119.553Y-72.964
X119.553Y-77.806
X119.553Y-123.369
X119.851Y-73.763
X119.851Y-124.168
X120.27Y-74.51
X120.27Y-124.915
X120.33Y-27.598
X120.33Y-78.003
X120.905Y-75.066
X120.905Y-125.471
X121.095Y-27.835
X121.095Y-78.24
X121.714Y-75.343
X121.714Y-125.748
X121.84Y-28.131
X121.84Y-78.536
X122.553Y-28.496
X122.553Y-75.514
X122.553Y-78.901
X122.553Y-125.919
X128.772Y-35.581
X128.772Y-85.986
X129.127Y-36.562
X129.127Y-86.967
X129.383Y-48.662
X129.383Y-99.067
X129.422Y-37.562
X129.422Y-87.968
X129.627Y-47.674
X129.627Y-98.079
X129.647Y-38.581
X129.647Y-88.986
X129.805Y-46.672
X129.805Y-97.077
X129.936Y-45.662
X129.936Y-96.067
X130.766Y-58.743
X130.766Y-109.148
X130.92Y-57.749
X130.92Y-108.154
X130.936Y-67.833
X130.936Y-118.238
X130.976Y-68.824
X130.976Y-119.229
X130.991Y-66.828
X130.991Y-117.233
X131.016Y-56.748
X131.016Y-107.153
X131.038Y-55.743
X131.038Y-106.148
X131.047Y-65.824
X131.047Y-116.229
X132.034Y-55.743
X132.034Y-106.148
X132.106Y-56.754
X132.106Y-107.159
X132.265Y-57.756
X132.265Y-108.161
X132.497Y-58.743
X132.497Y-109.148
X132.702Y-45.662
X132.702Y-96.067
X132.736Y-65.824
X132.736Y-116.229
X132.872Y-66.824
X132.872Y-117.229
X132.877Y-46.67
X132.877Y-97.075
X133.015Y-67.823
X133.015Y-118.229
X133.098Y-47.669
X133.098Y-98.074
X133.148Y-68.824
X133.148Y-119.229
X133.28Y-38.581
X133.28Y-88.986
X133.347Y-48.662
X133.347Y-99.067
X133.547Y-37.554
X133.547Y-87.959
X133.894Y-36.552
X133.894Y-86.957
X134.321Y-35.581
X134.321Y-85.986
X141.511Y-28.366
X141.511Y-76.26
X141.511Y-78.771
X141.511Y-126.665
X142.362Y-75.985
X142.362Y-126.39
X142.485Y-28.005
X142.485Y-78.41
X143.012Y-75.339
X143.012Y-125.745
X143.492Y-27.751
X143.492Y-78.156
X143.56Y-74.604
X143.56Y-125.01
X144.052Y-73.83
X144.052Y-124.235
X144.511Y-27.546
X144.511Y-73.035
X144.511Y-77.951
X144.511Y-123.44
X152.489Y-27.401
X152.489Y-72.964
X152.489Y-77.806
X152.489Y-123.369
X152.787Y-73.763
X152.787Y-124.168
X153.206Y-74.51
X153.206Y-124.915
X153.266Y-27.598
X153.266Y-78.003
X153.841Y-75.066
X153.841Y-125.471
X154.032Y-27.835
X154.032Y-78.24
X154.65Y-75.343
X154.65Y-125.748
X154.776Y-28.131
X154.776Y-78.536
X155.489Y-28.496
X155.489Y-75.514
X155.489Y-78.901
X155.489Y-125.919
X161.708Y-35.581
X161.708Y-85.986
X162.063Y-36.562
X162.063Y-86.967
X162.319Y-48.662
X162.319Y-99.067
X162.358Y-37.562
X162.358Y-87.968
X162.563Y-47.674
X162.563Y-98.079
X162.584Y-38.581
X162.584Y-88.986
X162.742Y-46.672
X162.742Y-97.077
X162.873Y-45.662
X162.873Y-96.067
X163.702Y-58.743
X163.702Y-109.148
X163.856Y-57.749
X163.856Y-108.154
X163.872Y-67.833
X163.872Y-118.238
X163.913Y-68.824
X163.913Y-119.229
X163.928Y-66.828
X163.928Y-117.233
X163.953Y-56.748
X163.953Y-107.153
X163.974Y-55.743
X163.974Y-106.148
X163.983Y-65.824
X163.983Y-116.229
X164.971Y-55.743
X164.971Y-106.148
X165.043Y-56.754
X165.043Y-107.159
X165.201Y-57.756
X165.201Y-108.161
X165.434Y-58.743
X165.434Y-109.148
X165.638Y-45.662
X165.638Y-96.067
X165.673Y-65.824
X165.673Y-116.229
X165.809Y-66.824
X165.809Y-117.229
X165.813Y-46.67
X165.813Y-97.075
X165.952Y-67.823
X165.952Y-118.229
X166.034Y-47.669
X166.034Y-98.074
X166.085Y-68.824
X166.085Y-119.229
X166.217Y-38.581
X166.217Y-88.986
X166.284Y-48.662
X166.284Y-99.067
X166.484Y-37.554
X166.484Y-87.959
X166.831Y-36.552
X166.831Y-86.957
X167.257Y-35.581
X167.257Y-85.986
X174.447Y-28.366
X174.447Y-76.26
X174.447Y-78.771
X174.447Y-126.665
X175.298Y-75.985
X175.298Y-126.39
X175.421Y-28.005
X175.421Y-78.41
X175.948Y-75.339
X175.948Y-125.745
X176.428Y-27.751
X176.428Y-78.156
X176.497Y-74.604
X176.497Y-125.01
X176.988Y-73.83
X176.988Y-124.235
X177.447Y-27.546
X177.447Y-73.035
X177.447Y-77.951
X177.447Y-123.44
X185.426Y-27.401
X185.426Y-72.964
X185.426Y-77.806
X185.426Y-123.369
X185.724Y-73.763
X185.724Y-124.168
X186.143Y-74.51
X186.143Y-124.915
X186.203Y-27.598
X186.203Y-78.003
X186.778Y-75.066
X186.778Y-125.471
X186.968Y-27.835
X186.968Y-78.24
X187.587Y-75.343
X187.587Y-125.748
X187.713Y-28.131
X187.713Y-78.536
X188.426Y-28.496
X188.426Y-75.514
X188.426Y-78.901
X188.426Y-125.919
X194.645Y-35.581
X194.645Y-85.986
X195.0Y-36.562
X195.0Y-86.967
X195.256Y-48.662
X195.256Y-99.067
X195.295Y-37.562
X195.295Y-87.968
X195.5Y-47.674
X195.5Y-98.079
X195.52Y-38.581
X195.52Y-88.986
X195.678Y-46.672
X195.678Y-97.077
X195.809Y-45.662
X195.809Y-96.067
X196.639Y-58.743
X196.639Y-109.148
X196.793Y-57.749
X196.793Y-108.154
X196.808Y-67.833
X196.808Y-118.238
X196.849Y-68.824
X196.849Y-119.229
X196.864Y-66.828
X196.864Y-117.233
X196.889Y-56.748
X196.889Y-107.153
X196.911Y-55.743
X196.911Y-106.148
X196.92Y-65.824
X196.92Y-116.229
X197.905Y-20.0
X197.905Y-20.833
X197.905Y-21.667
X197.905Y-22.5
X197.905Y-23.333
X197.905Y-24.167
X197.905Y-25.0
X197.905Y-129.81
X197.905Y-130.644
X197.905Y-131.477
X197.905Y-132.31
X197.905Y-133.144
X197.905Y-133.977
X197.905Y-134.81
X199.905Y-27.0
X199.905Y-127.81
X200.738Y-27.0
X200.738Y-127.81
X201.571Y-27.0
X201.571Y-127.81
X202.405Y-27.0
X202.405Y-127.81
X203.238Y-27.0
X203.238Y-127.81
X204.071Y-27.0
X204.071Y-127.81
X204.905Y-27.0
X204.905Y-127.81
T2
X95.0Y-23.0
X95.0Y-132.0
X202.0Y-23.0
X202.0Y-132.014
M30
