G04 #@! TF.GenerationSoftware,KiCad,Pcbnew,8.0.4*
G04 #@! TF.CreationDate,2024-07-22T02:56:23-05:00*
G04 #@! TF.ProjectId,keanu-homeboy-panel,6b65616e-752d-4686-9f6d-65626f792d70,rev?*
G04 #@! TF.SameCoordinates,Original*
G04 #@! TF.FileFunction,Paste,Bot*
G04 #@! TF.FilePolarity,Positive*
%FSLAX46Y46*%
G04 Gerber Fmt 4.6, Leading zero omitted, Abs format (unit mm)*
G04 Created by KiCad (PCBNEW 8.0.4) date 2024-07-22 02:56:23*
%MOMM*%
%LPD*%
G01*
G04 APERTURE LIST*
G04 Aperture macros list*
%AMRoundRect*
0 Rectangle with rounded corners*
0 $1 Rounding radius*
0 $2 $3 $4 $5 $6 $7 $8 $9 X,Y pos of 4 corners*
0 Add a 4 corners polygon primitive as box body*
4,1,4,$2,$3,$4,$5,$6,$7,$8,$9,$2,$3,0*
0 Add four circle primitives for the rounded corners*
1,1,$1+$1,$2,$3*
1,1,$1+$1,$4,$5*
1,1,$1+$1,$6,$7*
1,1,$1+$1,$8,$9*
0 Add four rect primitives between the rounded corners*
20,1,$1+$1,$2,$3,$4,$5,0*
20,1,$1+$1,$4,$5,$6,$7,0*
20,1,$1+$1,$6,$7,$8,$9,0*
20,1,$1+$1,$8,$9,$2,$3,0*%
G04 Aperture macros list end*
%ADD10RoundRect,0.250000X-0.450000X0.350000X-0.450000X-0.350000X0.450000X-0.350000X0.450000X0.350000X0*%
%ADD11R,0.900000X1.200000*%
%ADD12R,0.800000X1.000000*%
%ADD13R,2.600000X5.560000*%
%ADD14R,8.000000X5.560000*%
G04 APERTURE END LIST*
D10*
X147238211Y-95229553D03*
X147238211Y-97229553D03*
D11*
X109986538Y-47142206D03*
X109986538Y-43942206D03*
D12*
X110386538Y-45542206D03*
D10*
X147238211Y-44824466D03*
X147238211Y-46824466D03*
D11*
X154000511Y-44067106D03*
X154000511Y-47267106D03*
D12*
X153600511Y-45667106D03*
D13*
X136405392Y-59549114D03*
X160215392Y-59549114D03*
D14*
X148310392Y-59549114D03*
D11*
X177323984Y-37365306D03*
X177323984Y-34165306D03*
D12*
X177723984Y-35765306D03*
D11*
X153687011Y-33782206D03*
X153687011Y-36982206D03*
D12*
X153287011Y-35382206D03*
D11*
X186623484Y-84187293D03*
X186623484Y-87387293D03*
D12*
X186223484Y-85787293D03*
D13*
X103468919Y-109954201D03*
X127278919Y-109954201D03*
D14*
X115373919Y-109954201D03*
D11*
X175859484Y-97547293D03*
X175859484Y-94347293D03*
D12*
X176259484Y-95947293D03*
D11*
X186623484Y-33782206D03*
X186623484Y-36982206D03*
D12*
X186223484Y-35382206D03*
D11*
X175859484Y-47142206D03*
X175859484Y-43942206D03*
D12*
X176259484Y-45542206D03*
D13*
X103468919Y-59549114D03*
X127278919Y-59549114D03*
D14*
X115373919Y-59549114D03*
D11*
X120750538Y-84187293D03*
X120750538Y-87387293D03*
D12*
X120350538Y-85787293D03*
D10*
X114301738Y-95229553D03*
X114301738Y-97229553D03*
D11*
X109986538Y-97547293D03*
X109986538Y-94347293D03*
D12*
X110386538Y-95947293D03*
D11*
X142923011Y-97547293D03*
X142923011Y-94347293D03*
D12*
X143323011Y-95947293D03*
D11*
X177323984Y-87770393D03*
X177323984Y-84570393D03*
D12*
X177723984Y-86170393D03*
D10*
X180174684Y-44824466D03*
X180174684Y-46824466D03*
D11*
X111451038Y-87770393D03*
X111451038Y-84570393D03*
D12*
X111851038Y-86170393D03*
D11*
X153687011Y-84187293D03*
X153687011Y-87387293D03*
D12*
X153287011Y-85787293D03*
D11*
X186936984Y-44067106D03*
X186936984Y-47267106D03*
D12*
X186536984Y-45667106D03*
D11*
X144387511Y-87770393D03*
X144387511Y-84570393D03*
D12*
X144787511Y-86170393D03*
D10*
X183039804Y-44824466D03*
X183039804Y-46824466D03*
D11*
X120750538Y-33782206D03*
X120750538Y-36982206D03*
D12*
X120350538Y-35382206D03*
D13*
X169341865Y-59549114D03*
X193151865Y-59549114D03*
D14*
X181246865Y-59549114D03*
D11*
X144387511Y-37365306D03*
X144387511Y-34165306D03*
D12*
X144787511Y-35765306D03*
D13*
X136405392Y-109954201D03*
X160215392Y-109954201D03*
D14*
X148310392Y-109954201D03*
D11*
X154000511Y-94472193D03*
X154000511Y-97672193D03*
D12*
X153600511Y-96072193D03*
D10*
X114301738Y-44824466D03*
X114301738Y-46824466D03*
D11*
X111451038Y-37365306D03*
X111451038Y-34165306D03*
D12*
X111851038Y-35765306D03*
D10*
X150103331Y-44824466D03*
X150103331Y-46824466D03*
X117166858Y-44824466D03*
X117166858Y-46824466D03*
D11*
X142923011Y-47142206D03*
X142923011Y-43942206D03*
D12*
X143323011Y-45542206D03*
D11*
X121064038Y-94472193D03*
X121064038Y-97672193D03*
D12*
X120664038Y-96072193D03*
D13*
X169341865Y-109954201D03*
X193151865Y-109954201D03*
D14*
X181246865Y-109954201D03*
D10*
X183039804Y-95229553D03*
X183039804Y-97229553D03*
X117166858Y-95229553D03*
X117166858Y-97229553D03*
X150103331Y-95229553D03*
X150103331Y-97229553D03*
D11*
X121064038Y-44067106D03*
X121064038Y-47267106D03*
D12*
X120664038Y-45667106D03*
D11*
X186936984Y-94472193D03*
X186936984Y-97672193D03*
D12*
X186536984Y-96072193D03*
D10*
X180174684Y-95229553D03*
X180174684Y-97229553D03*
M02*
